<svg width="635" height="322" viewBox="0 0 635 322" fill="none" xmlns="http://www.w3.org/2000/svg">
<path d="M181.259 17.7329V134.418C187.564 134.418 192.22 135.824 195.227 138.637C198.233 141.353 199.737 144.893 199.737 149.258C199.737 153.623 198.185 157.212 195.081 160.024C192.074 162.837 187.467 164.244 181.259 164.244V176.174C187.564 176.174 192.22 177.581 195.227 180.393C198.233 183.206 199.737 186.795 199.737 191.16C199.737 195.525 198.185 199.113 195.081 201.926C192.074 204.642 186.982 206 179.804 206H139.794C132.616 206 127.476 204.642 124.372 201.926C121.365 199.113 119.862 195.476 119.862 191.014C119.862 186.65 121.365 183.109 124.372 180.393C127.476 177.581 132.616 176.174 139.794 176.174H151.433V164.244H70.3941V139.365L141.831 17.7329H181.259ZM151.433 134.418V61.0897L108.222 134.418H151.433ZM381.602 95.2803V128.016C381.602 147.415 375.976 165.99 364.725 183.74C353.571 201.49 337.567 210.365 316.713 210.365C304.685 210.365 294.501 207.746 286.159 202.508C277.915 197.173 270.058 187.425 262.589 173.264C255.218 159.006 251.532 143.923 251.532 128.016V95.2803C251.532 75.9784 257.109 57.4523 268.264 39.7023C279.418 21.8552 295.422 12.9317 316.276 12.9317C328.206 12.9317 338.294 15.5506 346.539 20.7883C354.88 26.026 362.785 35.774 370.254 50.0322C377.819 64.1935 381.602 79.2762 381.602 95.2803ZM351.631 95.2803C351.631 79.0822 347.121 64.921 338.1 52.7966C332.959 46.1039 325.733 42.7576 316.422 42.7576C307.401 42.7576 300.029 46.4434 294.307 53.815C285.674 64.9694 281.358 78.7912 281.358 95.2803V128.016C281.358 144.311 285.917 158.473 295.034 170.5C300.078 177.193 307.304 180.539 316.713 180.539C325.636 180.539 332.959 176.853 338.682 169.481C347.314 158.327 351.631 144.505 351.631 128.016V95.2803ZM538.006 106.338C546.833 112.351 553.429 119.335 557.793 127.289C562.158 135.145 564.341 143.972 564.341 153.768C564.341 164.341 561.431 174.137 555.611 183.158C549.888 192.081 541.547 198.871 530.586 203.527C519.626 208.085 505.271 210.365 487.521 210.365C464.436 210.365 447.074 206.776 435.434 199.598C428.936 195.525 425.686 190.675 425.686 185.049C425.686 180.781 427.093 177.193 429.906 174.283C432.815 171.276 436.307 169.772 440.381 169.772C443.194 169.772 446.104 170.742 449.111 172.682C453.378 175.592 457.404 177.532 461.186 178.502C467.006 179.86 475.008 180.539 485.193 180.539C502.555 180.539 515.116 178.308 522.875 173.846C530.635 169.287 534.515 162.886 534.515 154.641C534.515 148.531 532.235 142.662 527.676 137.037C523.215 131.314 517.201 126.901 509.635 123.797C505.271 122.051 497.899 120.838 487.521 120.16C482.574 119.869 478.743 118.365 476.027 115.649C473.408 112.836 472.098 109.393 472.098 105.319C472.098 101.052 473.553 97.4627 476.463 94.5529C479.373 91.643 483.059 90.1881 487.521 90.1881C497.414 90.1881 502.7 90.1396 503.379 90.0426C507.259 89.6546 511.139 88.3937 515.019 86.2598C518.898 84.1259 522.002 81.2161 524.33 77.5303C526.755 73.7475 527.967 69.8677 527.967 65.8909C527.967 59.5862 525.155 54.1545 519.529 49.5958C514 44.94 505.659 42.6121 494.504 42.6121C480.149 42.6121 469.189 46.7829 461.623 55.1245C459.392 57.5493 457.598 59.1013 456.24 59.7802C454.203 60.8472 451.923 61.3806 449.402 61.3806C445.328 61.3806 441.836 59.9257 438.926 57.0159C436.016 54.106 434.561 50.5172 434.561 46.2494C434.561 39.5568 439.023 33.0581 447.947 26.7535C460.944 17.539 477.191 12.9317 496.687 12.9317C515.116 12.9317 529.907 18.1694 541.062 28.6449C552.216 39.1203 557.793 51.7296 557.793 66.4729C557.793 74.1355 556.144 81.3131 552.847 88.0057C549.549 94.6014 544.602 100.712 538.006 106.338Z" fill="white"/>
<path d="M176.642 265.945V274.294H182.487C183.86 274.294 184.834 274.563 185.409 275.102C186.003 275.621 186.3 276.308 186.3 277.161C186.3 277.996 186.003 278.683 185.409 279.221C184.834 279.74 183.86 280 182.487 280H170.046C168.673 280 167.689 279.74 167.096 279.221C166.521 278.683 166.233 277.987 166.233 277.133C166.233 276.298 166.53 275.621 167.124 275.102C167.717 274.563 168.691 274.294 170.046 274.294H170.937V251.973H170.046C168.673 251.973 167.689 251.713 167.096 251.194C166.521 250.656 166.233 249.96 166.233 249.106C166.233 248.253 166.521 247.566 167.096 247.047C167.689 246.509 168.673 246.24 170.046 246.24L196.904 246.268V254.979C196.904 256.333 196.635 257.308 196.097 257.901C195.577 258.477 194.891 258.764 194.037 258.764C193.202 258.764 192.516 258.477 191.978 257.901C191.458 257.326 191.198 256.352 191.198 254.979V251.973H176.642V260.239H181.652C181.652 258.755 181.791 257.799 182.069 257.373C182.645 256.463 183.461 256.009 184.519 256.009C185.354 256.009 186.031 256.306 186.55 256.899C187.088 257.475 187.357 258.449 187.357 259.822V266.39C187.357 267.763 187.088 268.747 186.55 269.34C186.031 269.916 185.344 270.203 184.491 270.203C183.452 270.203 182.645 269.749 182.069 268.839C181.791 268.413 181.652 267.448 181.652 265.945H176.642ZM229.606 267.837C229.606 270.027 228.994 272.151 227.77 274.211C226.563 276.252 224.754 277.885 222.342 279.109C219.949 280.315 217.444 280.918 214.828 280.918C212.23 280.918 209.744 280.325 207.369 279.137C204.994 277.931 203.185 276.298 201.941 274.239C200.698 272.179 200.077 270.027 200.077 267.782C200.077 265.5 200.708 263.264 201.969 261.074C203.231 258.866 205.04 257.131 207.396 255.87C209.771 254.608 212.249 253.977 214.828 253.977C217.425 253.977 219.921 254.626 222.314 255.925C224.727 257.206 226.545 258.94 227.77 261.13C228.994 263.301 229.606 265.537 229.606 267.837ZM223.901 267.865C223.901 266.028 223.242 264.34 221.925 262.8C220.125 260.722 217.759 259.683 214.828 259.683C212.249 259.683 210.096 260.508 208.371 262.16C206.645 263.811 205.782 265.722 205.782 267.893C205.782 269.674 206.654 271.344 208.398 272.903C210.143 274.443 212.286 275.213 214.828 275.213C217.388 275.213 219.541 274.443 221.285 272.903C223.029 271.344 223.901 269.665 223.901 267.865ZM247.836 254.729V258.291C250.23 256.565 252.113 255.415 253.486 254.84C254.878 254.265 256.177 253.977 257.383 253.977C259.238 253.977 261.038 254.664 262.782 256.037C263.97 256.964 264.563 257.911 264.563 258.875C264.563 259.692 264.276 260.388 263.701 260.963C263.144 261.52 262.467 261.798 261.669 261.798C260.964 261.798 260.222 261.445 259.442 260.74C258.663 260.035 257.967 259.683 257.355 259.683C256.557 259.683 255.36 260.184 253.765 261.186C252.188 262.188 250.211 263.69 247.836 265.694V274.294H255.963C257.336 274.294 258.311 274.563 258.886 275.102C259.479 275.621 259.776 276.308 259.776 277.161C259.776 277.996 259.479 278.683 258.886 279.221C258.311 279.74 257.336 280 255.963 280H238.735C237.362 280 236.379 279.74 235.785 279.221C235.21 278.683 234.922 277.987 234.922 277.133C234.922 276.298 235.21 275.621 235.785 275.102C236.379 274.563 237.362 274.294 238.735 274.294H242.131V260.434H240.071C238.698 260.434 237.715 260.174 237.121 259.655C236.546 259.117 236.258 258.421 236.258 257.567C236.258 256.732 236.546 256.055 237.121 255.536C237.715 254.998 238.698 254.729 240.071 254.729H247.836ZM276.058 243.902V256.705C277.45 255.795 278.86 255.118 280.289 254.673C281.736 254.209 283.192 253.977 284.658 253.977C288.61 253.977 291.959 255.341 294.706 258.068C297.452 260.796 298.825 264.089 298.825 267.949C298.825 271.641 297.517 274.73 294.9 277.217C292.284 279.685 288.833 280.918 284.547 280.918C283.025 280.918 281.56 280.724 280.149 280.334C278.739 279.944 277.375 279.369 276.058 278.608V280H269.378C268.005 280 267.022 279.74 266.428 279.221C265.853 278.683 265.565 277.987 265.565 277.133C265.565 276.298 265.862 275.621 266.456 275.102C267.05 274.563 268.024 274.294 269.378 274.294H270.353V249.607H269.378C268.005 249.607 267.022 249.348 266.428 248.828C265.853 248.29 265.565 247.594 265.565 246.741C265.565 245.906 265.853 245.229 266.428 244.709C267.022 244.171 268.005 243.902 269.378 243.902H276.058ZM293.119 268.116C293.119 265.759 292.293 263.765 290.642 262.132C288.991 260.499 286.968 259.683 284.575 259.683C282.2 259.683 280.187 260.499 278.535 262.132C276.884 263.765 276.058 265.731 276.058 268.032C276.058 270.129 276.8 271.854 278.285 273.209C279.769 274.545 281.866 275.213 284.575 275.213C287.284 275.213 289.38 274.545 290.865 273.209C292.368 271.854 293.119 270.157 293.119 268.116ZM319.532 243.902V249.941H312.741V243.902H319.532ZM320.311 254.729V274.294H327.158C328.531 274.294 329.505 274.563 330.08 275.102C330.674 275.621 330.971 276.308 330.971 277.161C330.971 277.996 330.674 278.683 330.08 279.221C329.505 279.74 328.531 280 327.158 280H307.759C306.386 280 305.402 279.74 304.809 279.221C304.233 278.683 303.946 277.987 303.946 277.133C303.946 276.298 304.233 275.621 304.809 275.102C305.402 274.563 306.386 274.294 307.759 274.294H314.605V260.434H310.013C308.659 260.434 307.685 260.174 307.091 259.655C306.497 259.117 306.2 258.421 306.2 257.567C306.2 256.732 306.488 256.055 307.063 255.536C307.657 254.998 308.64 254.729 310.013 254.729H320.311ZM364.814 243.902V274.294H365.789C367.143 274.294 368.117 274.563 368.711 275.102C369.305 275.621 369.602 276.308 369.602 277.161C369.602 277.996 369.305 278.683 368.711 279.221C368.136 279.74 367.162 280 365.789 280H359.109V278.608C357.81 279.369 356.446 279.944 355.018 280.334C353.607 280.724 352.142 280.918 350.62 280.918C346.334 280.918 342.883 279.685 340.267 277.217C337.65 274.73 336.342 271.641 336.342 267.949C336.342 264.089 337.715 260.796 340.461 258.068C343.208 255.341 346.557 253.977 350.509 253.977C351.993 253.977 353.45 254.209 354.878 254.673C356.307 255.118 357.717 255.795 359.109 256.705V249.607H358.135C356.762 249.607 355.778 249.348 355.185 248.828C354.609 248.29 354.322 247.604 354.322 246.769C354.322 245.915 354.609 245.229 355.185 244.709C355.778 244.171 356.762 243.902 358.135 243.902H364.814ZM359.109 268.116C359.109 265.759 358.283 263.765 356.632 262.132C354.98 260.499 352.958 259.683 350.564 259.683C348.189 259.683 346.176 260.499 344.525 262.132C342.874 263.765 342.048 265.731 342.048 268.032C342.048 270.129 342.79 271.854 344.274 273.209C345.759 274.545 347.855 275.213 350.564 275.213C353.255 275.213 355.352 274.545 356.854 273.209C358.357 271.854 359.109 270.157 359.109 268.116ZM399.048 243.902V274.294H400.022C401.376 274.294 402.351 274.563 402.944 275.102C403.538 275.621 403.835 276.308 403.835 277.161C403.835 277.996 403.538 278.683 402.944 279.221C402.369 279.74 401.395 280 400.022 280H393.342V278.608C392.043 279.369 390.68 279.944 389.251 280.334C387.841 280.724 386.375 280.918 384.854 280.918C380.567 280.918 377.116 279.685 374.5 277.217C371.884 274.73 370.576 271.641 370.576 267.949C370.576 264.089 371.949 260.796 374.695 258.068C377.441 255.341 380.79 253.977 384.742 253.977C386.227 253.977 387.683 254.209 389.112 254.673C390.541 255.118 391.951 255.795 393.342 256.705V249.607H392.368C390.995 249.607 390.012 249.348 389.418 248.828C388.843 248.29 388.555 247.604 388.555 246.769C388.555 245.915 388.843 245.229 389.418 244.709C390.012 244.171 390.995 243.902 392.368 243.902H399.048ZM393.342 268.116C393.342 265.759 392.517 263.765 390.865 262.132C389.214 260.499 387.191 259.683 384.798 259.683C382.423 259.683 380.41 260.499 378.758 262.132C377.107 263.765 376.281 265.731 376.281 268.032C376.281 270.129 377.023 271.854 378.508 273.209C379.992 274.545 382.089 275.213 384.798 275.213C387.488 275.213 389.585 274.545 391.088 273.209C392.591 271.854 393.342 270.157 393.342 268.116ZM434.506 270.259H411.099C411.693 271.743 412.741 272.94 414.244 273.849C415.766 274.758 417.816 275.213 420.395 275.213C422.51 275.213 425.321 274.758 428.828 273.849C430.275 273.478 431.277 273.292 431.834 273.292C432.595 273.292 433.235 273.562 433.754 274.1C434.274 274.638 434.534 275.315 434.534 276.131C434.534 276.874 434.255 277.504 433.699 278.024C432.957 278.71 431.147 279.369 428.271 280C425.396 280.612 422.631 280.918 419.978 280.918C415.413 280.918 411.758 279.629 409.012 277.05C406.284 274.471 404.92 271.298 404.92 267.531C404.92 263.523 406.396 260.267 409.346 257.762C412.314 255.239 415.729 253.977 419.588 253.977C421.907 253.977 424.032 254.385 425.961 255.202C427.91 256.018 429.357 256.899 430.303 257.846C431.639 259.219 432.743 260.917 433.615 262.939C434.209 264.349 434.506 265.982 434.506 267.837V270.259ZM428.188 264.553C427.316 262.92 426.175 261.705 424.765 260.907C423.354 260.091 421.675 259.683 419.727 259.683C417.797 259.683 416.127 260.091 414.717 260.907C413.307 261.705 412.157 262.92 411.266 264.553H428.188ZM448.645 254.729V256.649C449.684 255.758 450.825 255.09 452.068 254.645C453.33 254.2 454.693 253.977 456.159 253.977C459.536 253.977 462.208 255.025 464.175 257.122C465.733 258.792 466.513 260.981 466.513 263.69V274.294C467.719 274.294 468.609 274.563 469.185 275.102C469.76 275.621 470.047 276.308 470.047 277.161C470.047 277.996 469.75 278.683 469.157 279.221C468.582 279.74 467.607 280 466.234 280H461.085C459.712 280 458.729 279.74 458.135 279.221C457.56 278.683 457.272 277.987 457.272 277.133C457.272 276.298 457.56 275.621 458.135 275.102C458.71 274.563 459.601 274.294 460.807 274.294V263.523C460.807 262.28 460.473 261.371 459.805 260.796C458.933 260.054 457.625 259.683 455.881 259.683C454.563 259.683 453.404 259.942 452.402 260.462C451.418 260.963 450.166 262.039 448.645 263.69V274.294C450.11 274.294 451.057 274.434 451.483 274.712C452.393 275.269 452.847 276.085 452.847 277.161C452.847 277.996 452.55 278.683 451.957 279.221C451.381 279.74 450.407 280 449.034 280H442.549C441.176 280 440.193 279.74 439.599 279.221C439.024 278.683 438.736 277.987 438.736 277.133C438.736 276.094 439.182 275.287 440.072 274.712C440.518 274.434 441.473 274.294 442.939 274.294V260.434C441.733 260.434 440.842 260.165 440.267 259.627C439.692 259.089 439.404 258.402 439.404 257.567C439.404 256.732 439.692 256.055 440.267 255.536C440.861 254.998 441.844 254.729 443.217 254.729H448.645ZM9.96191 307.8H4.03223L2.81836 311.098H4.54785C4.7627 311.098 4.91667 311.141 5.00977 311.227C5.10286 311.305 5.14941 311.413 5.14941 311.549C5.14941 311.678 5.10286 311.785 5.00977 311.871C4.91667 311.957 4.7627 312 4.54785 312H1.1748C0.959961 312 0.80599 311.957 0.712891 311.871C0.619792 311.785 0.573242 311.678 0.573242 311.549C0.573242 311.413 0.619792 311.305 0.712891 311.227C0.80599 311.141 0.959961 311.098 1.1748 311.098H1.87305L5.8584 300.334H3.19434C2.97949 300.334 2.82552 300.295 2.73242 300.216C2.63932 300.13 2.59277 300.019 2.59277 299.883C2.59277 299.747 2.63932 299.639 2.73242 299.561C2.82552 299.475 2.97949 299.432 3.19434 299.432H7.73828L12.1426 311.098H12.8408C13.0557 311.098 13.2096 311.141 13.3027 311.227C13.3958 311.305 13.4424 311.413 13.4424 311.549C13.4424 311.678 13.3958 311.785 13.3027 311.871C13.2096 311.957 13.0557 312 12.8408 312H9.47852C9.25651 312 9.09896 311.957 9.00586 311.871C8.91276 311.785 8.86621 311.678 8.86621 311.549C8.86621 311.413 8.91276 311.305 9.00586 311.227C9.09896 311.141 9.25651 311.098 9.47852 311.098H11.1973L9.96191 307.8ZM9.61816 306.897L7.12598 300.334H6.79297L4.37598 306.897H9.61816ZM23.9697 303.61V303.31C23.9697 303.088 24.0127 302.93 24.0986 302.837C24.1846 302.744 24.292 302.697 24.4209 302.697C24.557 302.697 24.668 302.744 24.7539 302.837C24.8398 302.93 24.8828 303.088 24.8828 303.31V305.351C24.8757 305.573 24.8291 305.73 24.7432 305.823C24.6644 305.916 24.557 305.963 24.4209 305.963C24.2992 305.963 24.1953 305.924 24.1094 305.845C24.0306 305.759 23.984 305.619 23.9697 305.426C23.9268 304.917 23.5902 304.434 22.96 303.976C22.3369 303.517 21.4954 303.288 20.4355 303.288C19.0964 303.288 18.0794 303.707 17.3848 304.545C16.6901 305.383 16.3428 306.342 16.3428 307.424C16.3428 308.591 16.7259 309.554 17.4922 310.313C18.2585 311.073 19.2503 311.452 20.4678 311.452C21.1696 311.452 21.8822 311.323 22.6055 311.065C23.3359 310.808 23.9948 310.392 24.582 309.819C24.7324 309.676 24.8649 309.604 24.9795 309.604C25.1012 309.604 25.2015 309.647 25.2803 309.733C25.3662 309.812 25.4092 309.912 25.4092 310.034C25.4092 310.342 25.0475 310.732 24.3242 311.205C23.1569 311.971 21.8571 312.354 20.4248 312.354C18.971 312.354 17.7751 311.893 16.8369 310.969C15.9059 310.038 15.4404 308.86 15.4404 307.435C15.4404 305.981 15.9167 304.774 16.8691 303.814C17.8288 302.855 19.0355 302.375 20.4893 302.375C21.8714 302.375 23.0316 302.787 23.9697 303.61ZM37.1826 303.61V303.31C37.1826 303.088 37.2256 302.93 37.3115 302.837C37.3975 302.744 37.5049 302.697 37.6338 302.697C37.7699 302.697 37.8809 302.744 37.9668 302.837C38.0527 302.93 38.0957 303.088 38.0957 303.31V305.351C38.0885 305.573 38.042 305.73 37.9561 305.823C37.8773 305.916 37.7699 305.963 37.6338 305.963C37.512 305.963 37.4082 305.924 37.3223 305.845C37.2435 305.759 37.1969 305.619 37.1826 305.426C37.1396 304.917 36.8031 304.434 36.1729 303.976C35.5498 303.517 34.7083 303.288 33.6484 303.288C32.3092 303.288 31.2923 303.707 30.5977 304.545C29.903 305.383 29.5557 306.342 29.5557 307.424C29.5557 308.591 29.9388 309.554 30.7051 310.313C31.4714 311.073 32.4632 311.452 33.6807 311.452C34.3825 311.452 35.0951 311.323 35.8184 311.065C36.5488 310.808 37.2077 310.392 37.7949 309.819C37.9453 309.676 38.0778 309.604 38.1924 309.604C38.3141 309.604 38.4144 309.647 38.4932 309.733C38.5791 309.812 38.6221 309.912 38.6221 310.034C38.6221 310.342 38.2604 310.732 37.5371 311.205C36.3698 311.971 35.07 312.354 33.6377 312.354C32.1839 312.354 30.988 311.893 30.0498 310.969C29.1188 310.038 28.6533 308.86 28.6533 307.435C28.6533 305.981 29.1296 304.774 30.082 303.814C31.0417 302.855 32.2484 302.375 33.7021 302.375C35.0843 302.375 36.2445 302.787 37.1826 303.61ZM51.5127 307.563H42.3174C42.4749 308.731 42.9619 309.673 43.7783 310.389C44.6019 311.098 45.6188 311.452 46.8291 311.452C47.5023 311.452 48.2077 311.341 48.9453 311.119C49.6829 310.897 50.2845 310.604 50.75 310.238C50.8861 310.131 51.0042 310.077 51.1045 310.077C51.2191 310.077 51.3193 310.124 51.4053 310.217C51.4912 310.303 51.5342 310.407 51.5342 310.528C51.5342 310.65 51.4769 310.768 51.3623 310.883C51.0186 311.241 50.4062 311.577 49.5254 311.893C48.6517 312.201 47.7529 312.354 46.8291 312.354C45.2822 312.354 43.9896 311.85 42.9512 310.84C41.9199 309.823 41.4043 308.595 41.4043 307.155C41.4043 305.845 41.8877 304.72 42.8545 303.782C43.8285 302.844 45.0316 302.375 46.4639 302.375C47.9391 302.375 49.153 302.858 50.1055 303.825C51.0579 304.785 51.527 306.031 51.5127 307.563ZM50.5996 306.65C50.4206 305.655 49.9479 304.846 49.1816 304.223C48.4225 303.6 47.5166 303.288 46.4639 303.288C45.4111 303.288 44.5052 303.596 43.7461 304.212C42.987 304.828 42.5143 305.641 42.3281 306.65H50.5996ZM62.8242 303.288C62.8242 303.08 62.8672 302.93 62.9531 302.837C63.0391 302.744 63.1465 302.697 63.2754 302.697C63.4115 302.697 63.5225 302.744 63.6084 302.837C63.6943 302.93 63.7373 303.088 63.7373 303.31V304.856C63.7373 305.071 63.6943 305.225 63.6084 305.318C63.5225 305.411 63.4115 305.458 63.2754 305.458C63.1536 305.458 63.0498 305.419 62.9639 305.34C62.8851 305.261 62.8385 305.132 62.8242 304.953C62.7812 304.523 62.5592 304.169 62.1582 303.89C61.571 303.489 60.7939 303.288 59.8271 303.288C58.8174 303.288 58.0332 303.492 57.4746 303.9C57.0521 304.208 56.8408 304.552 56.8408 304.932C56.8408 305.361 57.0915 305.719 57.5928 306.006C57.9365 306.206 58.5882 306.36 59.5479 306.468C60.8011 306.604 61.6712 306.758 62.1582 306.93C62.8529 307.18 63.3685 307.528 63.7051 307.972C64.0488 308.416 64.2207 308.896 64.2207 309.411C64.2207 310.177 63.8519 310.861 63.1143 311.463C62.3766 312.057 61.2952 312.354 59.8701 312.354C58.445 312.354 57.2777 311.993 56.3682 311.27C56.3682 311.513 56.3538 311.671 56.3252 311.742C56.2965 311.814 56.2428 311.875 56.1641 311.925C56.0924 311.975 56.0101 312 55.917 312C55.7881 312 55.6807 311.953 55.5947 311.86C55.5088 311.767 55.4658 311.613 55.4658 311.398V309.54C55.4658 309.325 55.5052 309.171 55.584 309.078C55.6699 308.985 55.7809 308.938 55.917 308.938C56.0459 308.938 56.1533 308.985 56.2393 309.078C56.3324 309.164 56.3789 309.282 56.3789 309.433C56.3789 309.762 56.4613 310.038 56.626 310.26C56.8766 310.604 57.2741 310.89 57.8184 311.119C58.3698 311.341 59.043 311.452 59.8379 311.452C61.0124 311.452 61.8861 311.234 62.459 310.797C63.0319 310.36 63.3184 309.898 63.3184 309.411C63.3184 308.853 63.0283 308.405 62.4482 308.068C61.861 307.732 61.0052 307.506 59.8809 307.392C58.7637 307.277 57.9616 307.127 57.4746 306.94C56.9876 306.754 56.6081 306.475 56.3359 306.103C56.0638 305.73 55.9277 305.329 55.9277 304.899C55.9277 304.126 56.3073 303.514 57.0664 303.062C57.8255 302.604 58.7314 302.375 59.7842 302.375C61.0303 302.375 62.0436 302.679 62.8242 303.288ZM76.0371 303.288C76.0371 303.08 76.0801 302.93 76.166 302.837C76.252 302.744 76.3594 302.697 76.4883 302.697C76.6243 302.697 76.7354 302.744 76.8213 302.837C76.9072 302.93 76.9502 303.088 76.9502 303.31V304.856C76.9502 305.071 76.9072 305.225 76.8213 305.318C76.7354 305.411 76.6243 305.458 76.4883 305.458C76.3665 305.458 76.2627 305.419 76.1768 305.34C76.098 305.261 76.0514 305.132 76.0371 304.953C75.9941 304.523 75.7721 304.169 75.3711 303.89C74.7839 303.489 74.0068 303.288 73.04 303.288C72.0303 303.288 71.2461 303.492 70.6875 303.9C70.265 304.208 70.0537 304.552 70.0537 304.932C70.0537 305.361 70.3044 305.719 70.8057 306.006C71.1494 306.206 71.8011 306.36 72.7607 306.468C74.014 306.604 74.8841 306.758 75.3711 306.93C76.0658 307.18 76.5814 307.528 76.918 307.972C77.2617 308.416 77.4336 308.896 77.4336 309.411C77.4336 310.177 77.0648 310.861 76.3271 311.463C75.5895 312.057 74.5081 312.354 73.083 312.354C71.6579 312.354 70.4906 311.993 69.5811 311.27C69.5811 311.513 69.5667 311.671 69.5381 311.742C69.5094 311.814 69.4557 311.875 69.377 311.925C69.3053 311.975 69.223 312 69.1299 312C69.001 312 68.8936 311.953 68.8076 311.86C68.7217 311.767 68.6787 311.613 68.6787 311.398V309.54C68.6787 309.325 68.7181 309.171 68.7969 309.078C68.8828 308.985 68.9938 308.938 69.1299 308.938C69.2588 308.938 69.3662 308.985 69.4521 309.078C69.5452 309.164 69.5918 309.282 69.5918 309.433C69.5918 309.762 69.6742 310.038 69.8389 310.26C70.0895 310.604 70.487 310.89 71.0312 311.119C71.5827 311.341 72.2559 311.452 73.0508 311.452C74.2253 311.452 75.099 311.234 75.6719 310.797C76.2448 310.36 76.5312 309.898 76.5312 309.411C76.5312 308.853 76.2412 308.405 75.6611 308.068C75.0739 307.732 74.2181 307.506 73.0938 307.392C71.9766 307.277 71.1745 307.127 70.6875 306.94C70.2005 306.754 69.821 306.475 69.5488 306.103C69.2767 305.73 69.1406 305.329 69.1406 304.899C69.1406 304.126 69.5202 303.514 70.2793 303.062C71.0384 302.604 71.9443 302.375 72.9971 302.375C74.2432 302.375 75.2565 302.679 76.0371 303.288ZM97.6289 302.697H102.527C102.742 302.697 102.896 302.74 102.989 302.826C103.082 302.912 103.129 303.023 103.129 303.159C103.129 303.288 103.082 303.396 102.989 303.481C102.896 303.567 102.742 303.61 102.527 303.61H97.6289V309.615C97.6289 310.138 97.8366 310.575 98.252 310.926C98.6745 311.277 99.2904 311.452 100.1 311.452C100.708 311.452 101.367 311.363 102.076 311.184C102.785 310.997 103.337 310.79 103.73 310.561C103.874 310.467 103.992 310.421 104.085 310.421C104.2 310.421 104.3 310.467 104.386 310.561C104.472 310.646 104.515 310.75 104.515 310.872C104.515 310.979 104.468 311.08 104.375 311.173C104.146 311.409 103.587 311.667 102.699 311.946C101.818 312.218 100.973 312.354 100.164 312.354C99.1113 312.354 98.2734 312.107 97.6504 311.613C97.0273 311.119 96.7158 310.453 96.7158 309.615V303.61H95.0508C94.8359 303.61 94.682 303.567 94.5889 303.481C94.4958 303.396 94.4492 303.285 94.4492 303.148C94.4492 303.02 94.4958 302.912 94.5889 302.826C94.682 302.74 94.8359 302.697 95.0508 302.697H96.7158V300.033C96.7158 299.818 96.7588 299.664 96.8447 299.571C96.9307 299.478 97.0381 299.432 97.167 299.432C97.3031 299.432 97.4141 299.478 97.5 299.571C97.5859 299.664 97.6289 299.818 97.6289 300.033V302.697ZM117.738 307.37C117.738 308.745 117.244 309.92 116.256 310.894C115.275 311.868 114.09 312.354 112.7 312.354C111.297 312.354 110.104 311.868 109.123 310.894C108.142 309.912 107.651 308.738 107.651 307.37C107.651 305.995 108.142 304.821 109.123 303.847C110.104 302.866 111.297 302.375 112.7 302.375C114.09 302.375 115.275 302.862 116.256 303.836C117.244 304.81 117.738 305.988 117.738 307.37ZM116.825 307.37C116.825 306.239 116.421 305.275 115.611 304.48C114.809 303.686 113.835 303.288 112.689 303.288C111.544 303.288 110.566 303.689 109.757 304.491C108.955 305.286 108.554 306.246 108.554 307.37C108.554 308.487 108.955 309.447 109.757 310.249C110.566 311.051 111.544 311.452 112.689 311.452C113.835 311.452 114.809 311.055 115.611 310.26C116.421 309.458 116.825 308.494 116.825 307.37ZM137.268 302.697H142.166C142.381 302.697 142.535 302.74 142.628 302.826C142.721 302.912 142.768 303.023 142.768 303.159C142.768 303.288 142.721 303.396 142.628 303.481C142.535 303.567 142.381 303.61 142.166 303.61H137.268V309.615C137.268 310.138 137.475 310.575 137.891 310.926C138.313 311.277 138.929 311.452 139.738 311.452C140.347 311.452 141.006 311.363 141.715 311.184C142.424 310.997 142.975 310.79 143.369 310.561C143.512 310.467 143.631 310.421 143.724 310.421C143.838 310.421 143.938 310.467 144.024 310.561C144.11 310.646 144.153 310.75 144.153 310.872C144.153 310.979 144.107 311.08 144.014 311.173C143.785 311.409 143.226 311.667 142.338 311.946C141.457 312.218 140.612 312.354 139.803 312.354C138.75 312.354 137.912 312.107 137.289 311.613C136.666 311.119 136.354 310.453 136.354 309.615V303.61H134.689C134.475 303.61 134.321 303.567 134.228 303.481C134.134 303.396 134.088 303.285 134.088 303.148C134.088 303.02 134.134 302.912 134.228 302.826C134.321 302.74 134.475 302.697 134.689 302.697H136.354V300.033C136.354 299.818 136.397 299.664 136.483 299.571C136.569 299.478 136.677 299.432 136.806 299.432C136.942 299.432 137.053 299.478 137.139 299.571C137.225 299.664 137.268 299.818 137.268 300.033V302.697ZM149.363 298.519V304.072C149.936 303.449 150.484 303.012 151.007 302.762C151.537 302.504 152.128 302.375 152.779 302.375C153.481 302.375 154.076 302.5 154.562 302.751C155.057 302.994 155.468 303.374 155.798 303.89C156.127 304.398 156.292 304.935 156.292 305.501V311.098H157.302C157.524 311.098 157.678 311.141 157.764 311.227C157.857 311.305 157.903 311.413 157.903 311.549C157.903 311.678 157.857 311.785 157.764 311.871C157.678 311.957 157.524 312 157.302 312H154.369C154.147 312 153.99 311.957 153.896 311.871C153.803 311.785 153.757 311.678 153.757 311.549C153.757 311.413 153.803 311.305 153.896 311.227C153.99 311.141 154.147 311.098 154.369 311.098H155.379V305.565C155.379 304.914 155.143 304.369 154.67 303.933C154.204 303.496 153.553 303.277 152.715 303.277C152.056 303.277 151.494 303.438 151.028 303.761C150.692 303.99 150.137 304.531 149.363 305.383V311.098H150.384C150.599 311.098 150.753 311.141 150.846 311.227C150.939 311.305 150.985 311.413 150.985 311.549C150.985 311.678 150.939 311.785 150.846 311.871C150.753 311.957 150.599 312 150.384 312H147.44C147.226 312 147.072 311.957 146.979 311.871C146.885 311.785 146.839 311.678 146.839 311.549C146.839 311.413 146.885 311.305 146.979 311.227C147.072 311.141 147.226 311.098 147.44 311.098H148.461V299.432H147.247C147.032 299.432 146.878 299.389 146.785 299.303C146.692 299.217 146.646 299.106 146.646 298.97C146.646 298.841 146.692 298.733 146.785 298.647C146.878 298.562 147.032 298.519 147.247 298.519H149.363ZM165.992 298.067V300.398H164.66V298.067H165.992ZM166.024 302.697V311.098H169.569C169.791 311.098 169.949 311.141 170.042 311.227C170.135 311.305 170.182 311.413 170.182 311.549C170.182 311.678 170.135 311.785 170.042 311.871C169.949 311.957 169.791 312 169.569 312H161.577C161.362 312 161.208 311.957 161.115 311.871C161.022 311.785 160.976 311.678 160.976 311.549C160.976 311.413 161.022 311.305 161.115 311.227C161.208 311.141 161.362 311.098 161.577 311.098H165.122V303.61H162.49C162.275 303.61 162.118 303.567 162.018 303.481C161.924 303.396 161.878 303.288 161.878 303.159C161.878 303.023 161.924 302.912 162.018 302.826C162.111 302.74 162.268 302.697 162.49 302.697H166.024ZM181.74 303.288C181.74 303.08 181.783 302.93 181.869 302.837C181.955 302.744 182.062 302.697 182.191 302.697C182.327 302.697 182.438 302.744 182.524 302.837C182.61 302.93 182.653 303.088 182.653 303.31V304.856C182.653 305.071 182.61 305.225 182.524 305.318C182.438 305.411 182.327 305.458 182.191 305.458C182.07 305.458 181.966 305.419 181.88 305.34C181.801 305.261 181.755 305.132 181.74 304.953C181.697 304.523 181.475 304.169 181.074 303.89C180.487 303.489 179.71 303.288 178.743 303.288C177.733 303.288 176.949 303.492 176.391 303.9C175.968 304.208 175.757 304.552 175.757 304.932C175.757 305.361 176.007 305.719 176.509 306.006C176.853 306.206 177.504 306.36 178.464 306.468C179.717 306.604 180.587 306.758 181.074 306.93C181.769 307.18 182.285 307.528 182.621 307.972C182.965 308.416 183.137 308.896 183.137 309.411C183.137 310.177 182.768 310.861 182.03 311.463C181.293 312.057 180.211 312.354 178.786 312.354C177.361 312.354 176.194 311.993 175.284 311.27C175.284 311.513 175.27 311.671 175.241 311.742C175.213 311.814 175.159 311.875 175.08 311.925C175.008 311.975 174.926 312 174.833 312C174.704 312 174.597 311.953 174.511 311.86C174.425 311.767 174.382 311.613 174.382 311.398V309.54C174.382 309.325 174.421 309.171 174.5 309.078C174.586 308.985 174.697 308.938 174.833 308.938C174.962 308.938 175.069 308.985 175.155 309.078C175.248 309.164 175.295 309.282 175.295 309.433C175.295 309.762 175.377 310.038 175.542 310.26C175.793 310.604 176.19 310.89 176.734 311.119C177.286 311.341 177.959 311.452 178.754 311.452C179.928 311.452 180.802 311.234 181.375 310.797C181.948 310.36 182.234 309.898 182.234 309.411C182.234 308.853 181.944 308.405 181.364 308.068C180.777 307.732 179.921 307.506 178.797 307.392C177.68 307.277 176.878 307.127 176.391 306.94C175.904 306.754 175.524 306.475 175.252 306.103C174.98 305.73 174.844 305.329 174.844 304.899C174.844 304.126 175.223 303.514 175.982 303.062C176.742 302.604 177.647 302.375 178.7 302.375C179.946 302.375 180.96 302.679 181.74 303.288ZM204.105 302.697V304.975C205.28 303.915 206.157 303.234 206.737 302.934C207.325 302.626 207.865 302.472 208.359 302.472C208.896 302.472 209.394 302.654 209.853 303.02C210.318 303.378 210.551 303.65 210.551 303.836C210.551 303.972 210.504 304.087 210.411 304.18C210.325 304.266 210.214 304.309 210.078 304.309C210.007 304.309 209.946 304.298 209.896 304.276C209.845 304.248 209.752 304.165 209.616 304.029C209.366 303.779 209.147 303.607 208.961 303.514C208.775 303.421 208.592 303.374 208.413 303.374C208.019 303.374 207.543 303.532 206.984 303.847C206.433 304.162 205.473 304.932 204.105 306.156V311.098H208.102C208.324 311.098 208.481 311.141 208.574 311.227C208.667 311.305 208.714 311.413 208.714 311.549C208.714 311.678 208.667 311.785 208.574 311.871C208.481 311.957 208.324 312 208.102 312H201.022C200.808 312 200.654 311.961 200.561 311.882C200.467 311.796 200.421 311.688 200.421 311.56C200.421 311.438 200.464 311.338 200.55 311.259C200.643 311.173 200.8 311.13 201.022 311.13H203.203V303.61H201.538C201.323 303.61 201.169 303.567 201.076 303.481C200.983 303.396 200.937 303.285 200.937 303.148C200.937 303.02 200.979 302.912 201.065 302.826C201.159 302.74 201.316 302.697 201.538 302.697H204.105ZM223.28 307.563H214.085C214.243 308.731 214.729 309.673 215.546 310.389C216.369 311.098 217.386 311.452 218.597 311.452C219.27 311.452 219.975 311.341 220.713 311.119C221.451 310.897 222.052 310.604 222.518 310.238C222.654 310.131 222.772 310.077 222.872 310.077C222.987 310.077 223.087 310.124 223.173 310.217C223.259 310.303 223.302 310.407 223.302 310.528C223.302 310.65 223.244 310.768 223.13 310.883C222.786 311.241 222.174 311.577 221.293 311.893C220.419 312.201 219.521 312.354 218.597 312.354C217.05 312.354 215.757 311.85 214.719 310.84C213.688 309.823 213.172 308.595 213.172 307.155C213.172 305.845 213.655 304.72 214.622 303.782C215.596 302.844 216.799 302.375 218.231 302.375C219.707 302.375 220.921 302.858 221.873 303.825C222.826 304.785 223.295 306.031 223.28 307.563ZM222.367 306.65C222.188 305.655 221.715 304.846 220.949 304.223C220.19 303.6 219.284 303.288 218.231 303.288C217.179 303.288 216.273 303.596 215.514 304.212C214.755 304.828 214.282 305.641 214.096 306.65H222.367ZM234.592 303.288C234.592 303.08 234.635 302.93 234.721 302.837C234.807 302.744 234.914 302.697 235.043 302.697C235.179 302.697 235.29 302.744 235.376 302.837C235.462 302.93 235.505 303.088 235.505 303.31V304.856C235.505 305.071 235.462 305.225 235.376 305.318C235.29 305.411 235.179 305.458 235.043 305.458C234.921 305.458 234.817 305.419 234.731 305.34C234.653 305.261 234.606 305.132 234.592 304.953C234.549 304.523 234.327 304.169 233.926 303.89C233.339 303.489 232.562 303.288 231.595 303.288C230.585 303.288 229.801 303.492 229.242 303.9C228.82 304.208 228.608 304.552 228.608 304.932C228.608 305.361 228.859 305.719 229.36 306.006C229.704 306.206 230.356 306.36 231.315 306.468C232.569 306.604 233.439 306.758 233.926 306.93C234.62 307.18 235.136 307.528 235.473 307.972C235.816 308.416 235.988 308.896 235.988 309.411C235.988 310.177 235.619 310.861 234.882 311.463C234.144 312.057 233.063 312.354 231.638 312.354C230.213 312.354 229.045 311.993 228.136 311.27C228.136 311.513 228.121 311.671 228.093 311.742C228.064 311.814 228.01 311.875 227.932 311.925C227.86 311.975 227.778 312 227.685 312C227.556 312 227.448 311.953 227.362 311.86C227.276 311.767 227.233 311.613 227.233 311.398V309.54C227.233 309.325 227.273 309.171 227.352 309.078C227.438 308.985 227.549 308.938 227.685 308.938C227.813 308.938 227.921 308.985 228.007 309.078C228.1 309.164 228.146 309.282 228.146 309.433C228.146 309.762 228.229 310.038 228.394 310.26C228.644 310.604 229.042 310.89 229.586 311.119C230.137 311.341 230.811 311.452 231.605 311.452C232.78 311.452 233.654 311.234 234.227 310.797C234.799 310.36 235.086 309.898 235.086 309.411C235.086 308.853 234.796 308.405 234.216 308.068C233.629 307.732 232.773 307.506 231.648 307.392C230.531 307.277 229.729 307.127 229.242 306.94C228.755 306.754 228.376 306.475 228.104 306.103C227.831 305.73 227.695 305.329 227.695 304.899C227.695 304.126 228.075 303.514 228.834 303.062C229.593 302.604 230.499 302.375 231.552 302.375C232.798 302.375 233.811 302.679 234.592 303.288ZM249.867 307.37C249.867 308.745 249.373 309.92 248.385 310.894C247.404 311.868 246.218 312.354 244.829 312.354C243.425 312.354 242.233 311.868 241.252 310.894C240.271 309.912 239.78 308.738 239.78 307.37C239.78 305.995 240.271 304.821 241.252 303.847C242.233 302.866 243.425 302.375 244.829 302.375C246.218 302.375 247.404 302.862 248.385 303.836C249.373 304.81 249.867 305.988 249.867 307.37ZM248.954 307.37C248.954 306.239 248.549 305.275 247.74 304.48C246.938 303.686 245.964 303.288 244.818 303.288C243.673 303.288 242.695 303.689 241.886 304.491C241.084 305.286 240.683 306.246 240.683 307.37C240.683 308.487 241.084 309.447 241.886 310.249C242.695 311.051 243.673 311.452 244.818 311.452C245.964 311.452 246.938 311.055 247.74 310.26C248.549 309.458 248.954 308.494 248.954 307.37ZM261.125 312V310.679C259.893 311.796 258.561 312.354 257.129 312.354C256.248 312.354 255.578 312.115 255.12 311.635C254.526 311.005 254.229 310.271 254.229 309.433V303.61H253.015C252.8 303.61 252.646 303.567 252.553 303.481C252.46 303.396 252.413 303.285 252.413 303.148C252.413 303.02 252.46 302.912 252.553 302.826C252.646 302.74 252.8 302.697 253.015 302.697H255.131V309.433C255.131 310.02 255.317 310.503 255.689 310.883C256.062 311.262 256.527 311.452 257.086 311.452C258.554 311.452 259.9 310.779 261.125 309.433V303.61H259.46C259.245 303.61 259.091 303.567 258.998 303.481C258.905 303.396 258.858 303.285 258.858 303.148C258.858 303.02 258.905 302.912 258.998 302.826C259.091 302.74 259.245 302.697 259.46 302.697H262.027V311.098H262.79C263.005 311.098 263.159 311.141 263.252 311.227C263.345 311.305 263.392 311.413 263.392 311.549C263.392 311.678 263.345 311.785 263.252 311.871C263.159 311.957 263.005 312 262.79 312H261.125ZM270.17 302.697V304.975C271.344 303.915 272.222 303.234 272.802 302.934C273.389 302.626 273.93 302.472 274.424 302.472C274.961 302.472 275.459 302.654 275.917 303.02C276.382 303.378 276.615 303.65 276.615 303.836C276.615 303.972 276.569 304.087 276.476 304.18C276.39 304.266 276.279 304.309 276.143 304.309C276.071 304.309 276.01 304.298 275.96 304.276C275.91 304.248 275.817 304.165 275.681 304.029C275.43 303.779 275.212 303.607 275.025 303.514C274.839 303.421 274.657 303.374 274.478 303.374C274.084 303.374 273.607 303.532 273.049 303.847C272.497 304.162 271.538 304.932 270.17 306.156V311.098H274.166C274.388 311.098 274.546 311.141 274.639 311.227C274.732 311.305 274.778 311.413 274.778 311.549C274.778 311.678 274.732 311.785 274.639 311.871C274.546 311.957 274.388 312 274.166 312H267.087C266.872 312 266.718 311.961 266.625 311.882C266.532 311.796 266.485 311.688 266.485 311.56C266.485 311.438 266.528 311.338 266.614 311.259C266.707 311.173 266.865 311.13 267.087 311.13H269.268V303.61H267.603C267.388 303.61 267.234 303.567 267.141 303.481C267.048 303.396 267.001 303.285 267.001 303.148C267.001 303.02 267.044 302.912 267.13 302.826C267.223 302.74 267.381 302.697 267.603 302.697H270.17ZM288.228 303.61V303.31C288.228 303.088 288.271 302.93 288.356 302.837C288.442 302.744 288.55 302.697 288.679 302.697C288.815 302.697 288.926 302.744 289.012 302.837C289.098 302.93 289.141 303.088 289.141 303.31V305.351C289.133 305.573 289.087 305.73 289.001 305.823C288.922 305.916 288.815 305.963 288.679 305.963C288.557 305.963 288.453 305.924 288.367 305.845C288.288 305.759 288.242 305.619 288.228 305.426C288.185 304.917 287.848 304.434 287.218 303.976C286.595 303.517 285.753 303.288 284.693 303.288C283.354 303.288 282.337 303.707 281.643 304.545C280.948 305.383 280.601 306.342 280.601 307.424C280.601 308.591 280.984 309.554 281.75 310.313C282.516 311.073 283.508 311.452 284.726 311.452C285.427 311.452 286.14 311.323 286.863 311.065C287.594 310.808 288.253 310.392 288.84 309.819C288.99 309.676 289.123 309.604 289.237 309.604C289.359 309.604 289.459 309.647 289.538 309.733C289.624 309.812 289.667 309.912 289.667 310.034C289.667 310.342 289.305 310.732 288.582 311.205C287.415 311.971 286.115 312.354 284.683 312.354C283.229 312.354 282.033 311.893 281.095 310.969C280.164 310.038 279.698 308.86 279.698 307.435C279.698 305.981 280.174 304.774 281.127 303.814C282.087 302.855 283.293 302.375 284.747 302.375C286.129 302.375 287.289 302.787 288.228 303.61ZM302.558 307.563H293.362C293.52 308.731 294.007 309.673 294.823 310.389C295.647 311.098 296.664 311.452 297.874 311.452C298.547 311.452 299.253 311.341 299.99 311.119C300.728 310.897 301.329 310.604 301.795 310.238C301.931 310.131 302.049 310.077 302.149 310.077C302.264 310.077 302.364 310.124 302.45 310.217C302.536 310.303 302.579 310.407 302.579 310.528C302.579 310.65 302.522 310.768 302.407 310.883C302.063 311.241 301.451 311.577 300.57 311.893C299.697 312.201 298.798 312.354 297.874 312.354C296.327 312.354 295.035 311.85 293.996 310.84C292.965 309.823 292.449 308.595 292.449 307.155C292.449 305.845 292.933 304.72 293.899 303.782C294.873 302.844 296.076 302.375 297.509 302.375C298.984 302.375 300.198 302.858 301.15 303.825C302.103 304.785 302.572 306.031 302.558 307.563ZM301.645 306.65C301.465 305.655 300.993 304.846 300.227 304.223C299.467 303.6 298.562 303.288 297.509 303.288C296.456 303.288 295.55 303.596 294.791 304.212C294.032 304.828 293.559 305.641 293.373 306.65H301.645ZM329.145 307.37C329.145 308.745 328.65 309.92 327.662 310.894C326.681 311.868 325.496 312.354 324.106 312.354C322.703 312.354 321.51 311.868 320.529 310.894C319.548 309.912 319.058 308.738 319.058 307.37C319.058 305.995 319.548 304.821 320.529 303.847C321.51 302.866 322.703 302.375 324.106 302.375C325.496 302.375 326.681 302.862 327.662 303.836C328.65 304.81 329.145 305.988 329.145 307.37ZM328.231 307.37C328.231 306.239 327.827 305.275 327.018 304.48C326.215 303.686 325.242 303.288 324.096 303.288C322.95 303.288 321.972 303.689 321.163 304.491C320.361 305.286 319.96 306.246 319.96 307.37C319.96 308.487 320.361 309.447 321.163 310.249C321.972 311.051 322.95 311.452 324.096 311.452C325.242 311.452 326.215 311.055 327.018 310.26C327.827 309.458 328.231 308.494 328.231 307.37ZM334.397 302.697V304.062C335.028 303.424 335.597 302.984 336.105 302.74C336.614 302.497 337.187 302.375 337.824 302.375C338.512 302.375 339.138 302.522 339.704 302.815C340.105 303.03 340.467 303.388 340.789 303.89C341.118 304.384 341.283 304.892 341.283 305.415V311.098H342.046C342.261 311.098 342.415 311.141 342.508 311.227C342.601 311.305 342.647 311.413 342.647 311.549C342.647 311.678 342.601 311.785 342.508 311.871C342.415 311.957 342.261 312 342.046 312H339.629C339.407 312 339.249 311.957 339.156 311.871C339.063 311.785 339.017 311.678 339.017 311.549C339.017 311.413 339.063 311.305 339.156 311.227C339.249 311.141 339.407 311.098 339.629 311.098H340.381V305.565C340.381 304.928 340.148 304.391 339.683 303.954C339.217 303.51 338.594 303.288 337.813 303.288C337.219 303.288 336.703 303.41 336.267 303.653C335.83 303.89 335.207 304.484 334.397 305.437V311.098H335.418C335.633 311.098 335.787 311.141 335.88 311.227C335.973 311.305 336.02 311.413 336.02 311.549C336.02 311.678 335.973 311.785 335.88 311.871C335.787 311.957 335.633 312 335.418 312H332.475C332.26 312 332.106 311.957 332.013 311.871C331.92 311.785 331.873 311.678 331.873 311.549C331.873 311.413 331.92 311.305 332.013 311.227C332.106 311.141 332.26 311.098 332.475 311.098H333.495V303.61H332.732C332.518 303.61 332.364 303.567 332.271 303.481C332.177 303.396 332.131 303.285 332.131 303.148C332.131 303.02 332.177 302.912 332.271 302.826C332.364 302.74 332.518 302.697 332.732 302.697H334.397ZM361.887 302.697H366.785C367 302.697 367.154 302.74 367.247 302.826C367.34 302.912 367.387 303.023 367.387 303.159C367.387 303.288 367.34 303.396 367.247 303.481C367.154 303.567 367 303.61 366.785 303.61H361.887V309.615C361.887 310.138 362.094 310.575 362.51 310.926C362.932 311.277 363.548 311.452 364.357 311.452C364.966 311.452 365.625 311.363 366.334 311.184C367.043 310.997 367.594 310.79 367.988 310.561C368.132 310.467 368.25 310.421 368.343 310.421C368.457 310.421 368.558 310.467 368.644 310.561C368.729 310.646 368.772 310.75 368.772 310.872C368.772 310.979 368.726 311.08 368.633 311.173C368.404 311.409 367.845 311.667 366.957 311.946C366.076 312.218 365.231 312.354 364.422 312.354C363.369 312.354 362.531 312.107 361.908 311.613C361.285 311.119 360.974 310.453 360.974 309.615V303.61H359.309C359.094 303.61 358.94 303.567 358.847 303.481C358.754 303.396 358.707 303.285 358.707 303.148C358.707 303.02 358.754 302.912 358.847 302.826C358.94 302.74 359.094 302.697 359.309 302.697H360.974V300.033C360.974 299.818 361.017 299.664 361.103 299.571C361.188 299.478 361.296 299.432 361.425 299.432C361.561 299.432 361.672 299.478 361.758 299.571C361.844 299.664 361.887 299.818 361.887 300.033V302.697ZM373.982 298.519V304.072C374.555 303.449 375.103 303.012 375.626 302.762C376.156 302.504 376.747 302.375 377.398 302.375C378.1 302.375 378.695 302.5 379.182 302.751C379.676 302.994 380.088 303.374 380.417 303.89C380.746 304.398 380.911 304.935 380.911 305.501V311.098H381.921C382.143 311.098 382.297 311.141 382.383 311.227C382.476 311.305 382.522 311.413 382.522 311.549C382.522 311.678 382.476 311.785 382.383 311.871C382.297 311.957 382.143 312 381.921 312H378.988C378.766 312 378.609 311.957 378.516 311.871C378.423 311.785 378.376 311.678 378.376 311.549C378.376 311.413 378.423 311.305 378.516 311.227C378.609 311.141 378.766 311.098 378.988 311.098H379.998V305.565C379.998 304.914 379.762 304.369 379.289 303.933C378.824 303.496 378.172 303.277 377.334 303.277C376.675 303.277 376.113 303.438 375.647 303.761C375.311 303.99 374.756 304.531 373.982 305.383V311.098H375.003C375.218 311.098 375.372 311.141 375.465 311.227C375.558 311.305 375.604 311.413 375.604 311.549C375.604 311.678 375.558 311.785 375.465 311.871C375.372 311.957 375.218 312 375.003 312H372.06C371.845 312 371.691 311.957 371.598 311.871C371.505 311.785 371.458 311.678 371.458 311.549C371.458 311.413 371.505 311.305 371.598 311.227C371.691 311.141 371.845 311.098 372.06 311.098H373.08V299.432H371.866C371.651 299.432 371.497 299.389 371.404 299.303C371.311 299.217 371.265 299.106 371.265 298.97C371.265 298.841 371.311 298.733 371.404 298.647C371.497 298.562 371.651 298.519 371.866 298.519H373.982ZM395.048 307.563H385.853C386.01 308.731 386.497 309.673 387.313 310.389C388.137 311.098 389.154 311.452 390.364 311.452C391.037 311.452 391.743 311.341 392.48 311.119C393.218 310.897 393.82 310.604 394.285 310.238C394.421 310.131 394.539 310.077 394.64 310.077C394.754 310.077 394.854 310.124 394.94 310.217C395.026 310.303 395.069 310.407 395.069 310.528C395.069 310.65 395.012 310.768 394.897 310.883C394.554 311.241 393.941 311.577 393.061 311.893C392.187 312.201 391.288 312.354 390.364 312.354C388.817 312.354 387.525 311.85 386.486 310.84C385.455 309.823 384.939 308.595 384.939 307.155C384.939 305.845 385.423 304.72 386.39 303.782C387.364 302.844 388.567 302.375 389.999 302.375C391.474 302.375 392.688 302.858 393.641 303.825C394.593 304.785 395.062 306.031 395.048 307.563ZM394.135 306.65C393.956 305.655 393.483 304.846 392.717 304.223C391.958 303.6 391.052 303.288 389.999 303.288C388.946 303.288 388.04 303.596 387.281 304.212C386.522 304.828 386.049 305.641 385.863 306.65H394.135ZM419.572 303.288C419.572 303.08 419.615 302.93 419.701 302.837C419.787 302.744 419.895 302.697 420.023 302.697C420.16 302.697 420.271 302.744 420.356 302.837C420.442 302.93 420.485 303.088 420.485 303.31V304.856C420.485 305.071 420.442 305.225 420.356 305.318C420.271 305.411 420.16 305.458 420.023 305.458C419.902 305.458 419.798 305.419 419.712 305.34C419.633 305.261 419.587 305.132 419.572 304.953C419.529 304.523 419.307 304.169 418.906 303.89C418.319 303.489 417.542 303.288 416.575 303.288C415.565 303.288 414.781 303.492 414.223 303.9C413.8 304.208 413.589 304.552 413.589 304.932C413.589 305.361 413.84 305.719 414.341 306.006C414.685 306.206 415.336 306.36 416.296 306.468C417.549 306.604 418.419 306.758 418.906 306.93C419.601 307.18 420.117 307.528 420.453 307.972C420.797 308.416 420.969 308.896 420.969 309.411C420.969 310.177 420.6 310.861 419.862 311.463C419.125 312.057 418.043 312.354 416.618 312.354C415.193 312.354 414.026 311.993 413.116 311.27C413.116 311.513 413.102 311.671 413.073 311.742C413.045 311.814 412.991 311.875 412.912 311.925C412.84 311.975 412.758 312 412.665 312C412.536 312 412.429 311.953 412.343 311.86C412.257 311.767 412.214 311.613 412.214 311.398V309.54C412.214 309.325 412.253 309.171 412.332 309.078C412.418 308.985 412.529 308.938 412.665 308.938C412.794 308.938 412.901 308.985 412.987 309.078C413.08 309.164 413.127 309.282 413.127 309.433C413.127 309.762 413.209 310.038 413.374 310.26C413.625 310.604 414.022 310.89 414.566 311.119C415.118 311.341 415.791 311.452 416.586 311.452C417.76 311.452 418.634 311.234 419.207 310.797C419.78 310.36 420.066 309.898 420.066 309.411C420.066 308.853 419.776 308.405 419.196 308.068C418.609 307.732 417.753 307.506 416.629 307.392C415.512 307.277 414.71 307.127 414.223 306.94C413.736 306.754 413.356 306.475 413.084 306.103C412.812 305.73 412.676 305.329 412.676 304.899C412.676 304.126 413.055 303.514 413.814 303.062C414.574 302.604 415.479 302.375 416.532 302.375C417.778 302.375 418.792 302.679 419.572 303.288ZM434.687 307.563H425.491C425.649 308.731 426.136 309.673 426.952 310.389C427.776 311.098 428.793 311.452 430.003 311.452C430.676 311.452 431.382 311.341 432.119 311.119C432.857 310.897 433.458 310.604 433.924 310.238C434.06 310.131 434.178 310.077 434.278 310.077C434.393 310.077 434.493 310.124 434.579 310.217C434.665 310.303 434.708 310.407 434.708 310.528C434.708 310.65 434.651 310.768 434.536 310.883C434.192 311.241 433.58 311.577 432.699 311.893C431.826 312.201 430.927 312.354 430.003 312.354C428.456 312.354 427.163 311.85 426.125 310.84C425.094 309.823 424.578 308.595 424.578 307.155C424.578 305.845 425.062 304.72 426.028 303.782C427.002 302.844 428.205 302.375 429.638 302.375C431.113 302.375 432.327 302.858 433.279 303.825C434.232 304.785 434.701 306.031 434.687 307.563ZM433.773 306.65C433.594 305.655 433.122 304.846 432.355 304.223C431.596 303.6 430.69 303.288 429.638 303.288C428.585 303.288 427.679 303.596 426.92 304.212C426.161 304.828 425.688 305.641 425.502 306.65H433.773ZM441.938 302.697V304.975C443.112 303.915 443.989 303.234 444.569 302.934C445.157 302.626 445.697 302.472 446.191 302.472C446.729 302.472 447.226 302.654 447.685 303.02C448.15 303.378 448.383 303.65 448.383 303.836C448.383 303.972 448.336 304.087 448.243 304.18C448.157 304.266 448.046 304.309 447.91 304.309C447.839 304.309 447.778 304.298 447.728 304.276C447.677 304.248 447.584 304.165 447.448 304.029C447.198 303.779 446.979 303.607 446.793 303.514C446.607 303.421 446.424 303.374 446.245 303.374C445.851 303.374 445.375 303.532 444.816 303.847C444.265 304.162 443.305 304.932 441.938 306.156V311.098H445.934C446.156 311.098 446.313 311.141 446.406 311.227C446.499 311.305 446.546 311.413 446.546 311.549C446.546 311.678 446.499 311.785 446.406 311.871C446.313 311.957 446.156 312 445.934 312H438.854C438.64 312 438.486 311.961 438.393 311.882C438.299 311.796 438.253 311.688 438.253 311.56C438.253 311.438 438.296 311.338 438.382 311.259C438.475 311.173 438.632 311.13 438.854 311.13H441.035V303.61H439.37C439.155 303.61 439.001 303.567 438.908 303.481C438.815 303.396 438.769 303.285 438.769 303.148C438.769 303.02 438.812 302.912 438.897 302.826C438.991 302.74 439.148 302.697 439.37 302.697H441.938ZM457.02 312H455.494L451.788 303.61H450.864C450.649 303.61 450.495 303.567 450.402 303.481C450.309 303.396 450.263 303.285 450.263 303.148C450.263 303.02 450.309 302.912 450.402 302.826C450.495 302.74 450.649 302.697 450.864 302.697H454.248C454.463 302.697 454.617 302.74 454.71 302.826C454.803 302.912 454.85 303.023 454.85 303.159C454.85 303.288 454.803 303.396 454.71 303.481C454.617 303.567 454.463 303.61 454.248 303.61H452.755L456.063 311.098H456.461L459.705 303.61H458.201C457.986 303.61 457.832 303.567 457.739 303.481C457.646 303.396 457.6 303.285 457.6 303.148C457.6 303.02 457.646 302.912 457.739 302.826C457.832 302.74 457.986 302.697 458.201 302.697H461.596C461.818 302.697 461.972 302.74 462.058 302.826C462.151 302.912 462.197 303.023 462.197 303.159C462.197 303.288 462.151 303.396 462.058 303.481C461.972 303.567 461.818 303.61 461.596 303.61H460.683L457.02 312ZM474.325 307.563H465.13C465.287 308.731 465.774 309.673 466.591 310.389C467.414 311.098 468.431 311.452 469.642 311.452C470.315 311.452 471.02 311.341 471.758 311.119C472.495 310.897 473.097 310.604 473.562 310.238C473.699 310.131 473.817 310.077 473.917 310.077C474.032 310.077 474.132 310.124 474.218 310.217C474.304 310.303 474.347 310.407 474.347 310.528C474.347 310.65 474.289 310.768 474.175 310.883C473.831 311.241 473.219 311.577 472.338 311.893C471.464 312.201 470.565 312.354 469.642 312.354C468.095 312.354 466.802 311.85 465.764 310.84C464.732 309.823 464.217 308.595 464.217 307.155C464.217 305.845 464.7 304.72 465.667 303.782C466.641 302.844 467.844 302.375 469.276 302.375C470.752 302.375 471.965 302.858 472.918 303.825C473.87 304.785 474.34 306.031 474.325 307.563ZM473.412 306.65C473.233 305.655 472.76 304.846 471.994 304.223C471.235 303.6 470.329 303.288 469.276 303.288C468.224 303.288 467.318 303.596 466.559 304.212C465.799 304.828 465.327 305.641 465.141 306.65H473.412ZM481.576 302.697V304.975C482.751 303.915 483.628 303.234 484.208 302.934C484.795 302.626 485.336 302.472 485.83 302.472C486.367 302.472 486.865 302.654 487.323 303.02C487.789 303.378 488.021 303.65 488.021 303.836C488.021 303.972 487.975 304.087 487.882 304.18C487.796 304.266 487.685 304.309 487.549 304.309C487.477 304.309 487.416 304.298 487.366 304.276C487.316 304.248 487.223 304.165 487.087 304.029C486.836 303.779 486.618 303.607 486.432 303.514C486.245 303.421 486.063 303.374 485.884 303.374C485.49 303.374 485.014 303.532 484.455 303.847C483.904 304.162 482.944 304.932 481.576 306.156V311.098H485.572C485.794 311.098 485.952 311.141 486.045 311.227C486.138 311.305 486.185 311.413 486.185 311.549C486.185 311.678 486.138 311.785 486.045 311.871C485.952 311.957 485.794 312 485.572 312H478.493C478.278 312 478.124 311.961 478.031 311.882C477.938 311.796 477.892 311.688 477.892 311.56C477.892 311.438 477.935 311.338 478.021 311.259C478.114 311.173 478.271 311.13 478.493 311.13H480.674V303.61H479.009C478.794 303.61 478.64 303.567 478.547 303.481C478.454 303.396 478.407 303.285 478.407 303.148C478.407 303.02 478.45 302.912 478.536 302.826C478.629 302.74 478.787 302.697 479.009 302.697H481.576ZM509.527 298.067V300.398H508.195V298.067H509.527ZM509.56 302.697V311.098H513.104C513.326 311.098 513.484 311.141 513.577 311.227C513.67 311.305 513.717 311.413 513.717 311.549C513.717 311.678 513.67 311.785 513.577 311.871C513.484 311.957 513.326 312 513.104 312H505.112C504.897 312 504.743 311.957 504.65 311.871C504.557 311.785 504.511 311.678 504.511 311.549C504.511 311.413 504.557 311.305 504.65 311.227C504.743 311.141 504.897 311.098 505.112 311.098H508.657V303.61H506.025C505.811 303.61 505.653 303.567 505.553 303.481C505.46 303.396 505.413 303.288 505.413 303.159C505.413 303.023 505.46 302.912 505.553 302.826C505.646 302.74 505.803 302.697 506.025 302.697H509.56ZM525.275 303.288C525.275 303.08 525.318 302.93 525.404 302.837C525.49 302.744 525.598 302.697 525.727 302.697C525.863 302.697 525.974 302.744 526.06 302.837C526.146 302.93 526.188 303.088 526.188 303.31V304.856C526.188 305.071 526.146 305.225 526.06 305.318C525.974 305.411 525.863 305.458 525.727 305.458C525.605 305.458 525.501 305.419 525.415 305.34C525.336 305.261 525.29 305.132 525.275 304.953C525.232 304.523 525.01 304.169 524.609 303.89C524.022 303.489 523.245 303.288 522.278 303.288C521.269 303.288 520.484 303.492 519.926 303.9C519.503 304.208 519.292 304.552 519.292 304.932C519.292 305.361 519.543 305.719 520.044 306.006C520.388 306.206 521.039 306.36 521.999 306.468C523.252 306.604 524.122 306.758 524.609 306.93C525.304 307.18 525.82 307.528 526.156 307.972C526.5 308.416 526.672 308.896 526.672 309.411C526.672 310.177 526.303 310.861 525.565 311.463C524.828 312.057 523.746 312.354 522.321 312.354C520.896 312.354 519.729 311.993 518.819 311.27C518.819 311.513 518.805 311.671 518.776 311.742C518.748 311.814 518.694 311.875 518.615 311.925C518.544 311.975 518.461 312 518.368 312C518.239 312 518.132 311.953 518.046 311.86C517.96 311.767 517.917 311.613 517.917 311.398V309.54C517.917 309.325 517.956 309.171 518.035 309.078C518.121 308.985 518.232 308.938 518.368 308.938C518.497 308.938 518.604 308.985 518.69 309.078C518.784 309.164 518.83 309.282 518.83 309.433C518.83 309.762 518.912 310.038 519.077 310.26C519.328 310.604 519.725 310.89 520.27 311.119C520.821 311.341 521.494 311.452 522.289 311.452C523.464 311.452 524.337 311.234 524.91 310.797C525.483 310.36 525.77 309.898 525.77 309.411C525.77 308.853 525.479 308.405 524.899 308.068C524.312 307.732 523.456 307.506 522.332 307.392C521.215 307.277 520.413 307.127 519.926 306.94C519.439 306.754 519.059 306.475 518.787 306.103C518.515 305.73 518.379 305.329 518.379 304.899C518.379 304.126 518.758 303.514 519.518 303.062C520.277 302.604 521.183 302.375 522.235 302.375C523.481 302.375 524.495 302.679 525.275 303.288ZM553.141 298.519V311.098H554.344C554.566 311.098 554.723 311.141 554.816 311.227C554.91 311.305 554.956 311.413 554.956 311.549C554.956 311.678 554.91 311.785 554.816 311.871C554.723 311.957 554.566 312 554.344 312H552.228V310.206C551.182 311.638 549.854 312.354 548.242 312.354C547.426 312.354 546.642 312.14 545.89 311.71C545.145 311.273 544.554 310.654 544.117 309.852C543.688 309.049 543.473 308.222 543.473 307.37C543.473 306.511 543.688 305.684 544.117 304.889C544.554 304.087 545.145 303.467 545.89 303.03C546.642 302.593 547.429 302.375 548.253 302.375C549.828 302.375 551.153 303.091 552.228 304.523V299.432H551.024C550.802 299.432 550.645 299.389 550.552 299.303C550.459 299.217 550.412 299.106 550.412 298.97C550.412 298.841 550.459 298.733 550.552 298.647C550.645 298.562 550.802 298.519 551.024 298.519H553.141ZM552.228 307.37C552.228 306.224 551.841 305.257 551.067 304.47C550.294 303.682 549.374 303.288 548.307 303.288C547.232 303.288 546.309 303.682 545.535 304.47C544.762 305.257 544.375 306.224 544.375 307.37C544.375 308.509 544.762 309.476 545.535 310.271C546.309 311.058 547.232 311.452 548.307 311.452C549.374 311.452 550.294 311.058 551.067 310.271C551.841 309.476 552.228 308.509 552.228 307.37ZM566.815 307.563H557.62C557.778 308.731 558.265 309.673 559.081 310.389C559.905 311.098 560.922 311.452 562.132 311.452C562.805 311.452 563.51 311.341 564.248 311.119C564.986 310.897 565.587 310.604 566.053 310.238C566.189 310.131 566.307 310.077 566.407 310.077C566.522 310.077 566.622 310.124 566.708 310.217C566.794 310.303 566.837 310.407 566.837 310.528C566.837 310.65 566.78 310.768 566.665 310.883C566.321 311.241 565.709 311.577 564.828 311.893C563.954 312.201 563.056 312.354 562.132 312.354C560.585 312.354 559.292 311.85 558.254 310.84C557.223 309.823 556.707 308.595 556.707 307.155C556.707 305.845 557.19 304.72 558.157 303.782C559.131 302.844 560.334 302.375 561.767 302.375C563.242 302.375 564.456 302.858 565.408 303.825C566.361 304.785 566.83 306.031 566.815 307.563ZM565.902 306.65C565.723 305.655 565.251 304.846 564.484 304.223C563.725 303.6 562.819 303.288 561.767 303.288C560.714 303.288 559.808 303.596 559.049 304.212C558.29 304.828 557.817 305.641 557.631 306.65H565.902ZM572.229 302.697V304.062C572.86 303.424 573.429 302.984 573.938 302.74C574.446 302.497 575.019 302.375 575.656 302.375C576.344 302.375 576.97 302.522 577.536 302.815C577.937 303.03 578.299 303.388 578.621 303.89C578.951 304.384 579.115 304.892 579.115 305.415V311.098H579.878C580.093 311.098 580.247 311.141 580.34 311.227C580.433 311.305 580.479 311.413 580.479 311.549C580.479 311.678 580.433 311.785 580.34 311.871C580.247 311.957 580.093 312 579.878 312H577.461C577.239 312 577.081 311.957 576.988 311.871C576.895 311.785 576.849 311.678 576.849 311.549C576.849 311.413 576.895 311.305 576.988 311.227C577.081 311.141 577.239 311.098 577.461 311.098H578.213V305.565C578.213 304.928 577.98 304.391 577.515 303.954C577.049 303.51 576.426 303.288 575.646 303.288C575.051 303.288 574.535 303.41 574.099 303.653C573.662 303.89 573.039 304.484 572.229 305.437V311.098H573.25C573.465 311.098 573.619 311.141 573.712 311.227C573.805 311.305 573.852 311.413 573.852 311.549C573.852 311.678 573.805 311.785 573.712 311.871C573.619 311.957 573.465 312 573.25 312H570.307C570.092 312 569.938 311.957 569.845 311.871C569.752 311.785 569.705 311.678 569.705 311.549C569.705 311.413 569.752 311.305 569.845 311.227C569.938 311.141 570.092 311.098 570.307 311.098H571.327V303.61H570.564C570.35 303.61 570.196 303.567 570.103 303.481C570.009 303.396 569.963 303.285 569.963 303.148C569.963 303.02 570.009 302.912 570.103 302.826C570.196 302.74 570.35 302.697 570.564 302.697H572.229ZM588.805 298.067V300.398H587.473V298.067H588.805ZM588.837 302.697V311.098H592.382C592.604 311.098 592.761 311.141 592.854 311.227C592.948 311.305 592.994 311.413 592.994 311.549C592.994 311.678 592.948 311.785 592.854 311.871C592.761 311.957 592.604 312 592.382 312H584.39C584.175 312 584.021 311.957 583.928 311.871C583.835 311.785 583.788 311.678 583.788 311.549C583.788 311.413 583.835 311.305 583.928 311.227C584.021 311.141 584.175 311.098 584.39 311.098H587.935V303.61H585.303C585.088 303.61 584.93 303.567 584.83 303.481C584.737 303.396 584.69 303.288 584.69 303.159C584.69 303.023 584.737 302.912 584.83 302.826C584.923 302.74 585.081 302.697 585.303 302.697H588.837ZM606.454 307.563H597.259C597.416 308.731 597.903 309.673 598.72 310.389C599.543 311.098 600.56 311.452 601.771 311.452C602.444 311.452 603.149 311.341 603.887 311.119C604.624 310.897 605.226 310.604 605.691 310.238C605.827 310.131 605.946 310.077 606.046 310.077C606.16 310.077 606.261 310.124 606.347 310.217C606.433 310.303 606.476 310.407 606.476 310.528C606.476 310.65 606.418 310.768 606.304 310.883C605.96 311.241 605.348 311.577 604.467 311.893C603.593 312.201 602.694 312.354 601.771 312.354C600.224 312.354 598.931 311.85 597.893 310.84C596.861 309.823 596.346 308.595 596.346 307.155C596.346 305.845 596.829 304.72 597.796 303.782C598.77 302.844 599.973 302.375 601.405 302.375C602.881 302.375 604.094 302.858 605.047 303.825C605.999 304.785 606.468 306.031 606.454 307.563ZM605.541 306.65C605.362 305.655 604.889 304.846 604.123 304.223C603.364 303.6 602.458 303.288 601.405 303.288C600.353 303.288 599.447 303.596 598.688 304.212C597.928 304.828 597.456 305.641 597.27 306.65H605.541ZM619.205 298.519V311.098H620.408C620.63 311.098 620.788 311.141 620.881 311.227C620.974 311.305 621.021 311.413 621.021 311.549C621.021 311.678 620.974 311.785 620.881 311.871C620.788 311.957 620.63 312 620.408 312H618.292V310.206C617.246 311.638 615.918 312.354 614.307 312.354C613.49 312.354 612.706 312.14 611.954 311.71C611.209 311.273 610.618 310.654 610.182 309.852C609.752 309.049 609.537 308.222 609.537 307.37C609.537 306.511 609.752 305.684 610.182 304.889C610.618 304.087 611.209 303.467 611.954 303.03C612.706 302.593 613.494 302.375 614.317 302.375C615.893 302.375 617.218 303.091 618.292 304.523V299.432H617.089C616.867 299.432 616.709 299.389 616.616 299.303C616.523 299.217 616.477 299.106 616.477 298.97C616.477 298.841 616.523 298.733 616.616 298.647C616.709 298.562 616.867 298.519 617.089 298.519H619.205ZM618.292 307.37C618.292 306.224 617.905 305.257 617.132 304.47C616.358 303.682 615.438 303.288 614.371 303.288C613.297 303.288 612.373 303.682 611.6 304.47C610.826 305.257 610.439 306.224 610.439 307.37C610.439 308.509 610.826 309.476 611.6 310.271C612.373 311.058 613.297 311.452 614.371 311.452C615.438 311.452 616.358 311.058 617.132 310.271C617.905 309.476 618.292 308.509 618.292 307.37ZM628.862 299.432L628.454 306.715C628.44 306.944 628.39 307.105 628.304 307.198C628.225 307.291 628.125 307.338 628.003 307.338C627.874 307.338 627.767 307.291 627.681 307.198C627.602 307.105 627.555 306.944 627.541 306.715L627.144 299.432C627.129 299.26 627.122 299.134 627.122 299.056C627.122 298.812 627.204 298.608 627.369 298.443C627.541 298.279 627.752 298.196 628.003 298.196C628.254 298.196 628.461 298.279 628.626 298.443C628.791 298.608 628.873 298.816 628.873 299.066C628.873 299.138 628.869 299.26 628.862 299.432ZM627.788 310.088H628.207C628.515 310.088 628.776 310.199 628.991 310.421C629.213 310.636 629.324 310.897 629.324 311.205C629.324 311.52 629.213 311.785 628.991 312C628.769 312.215 628.508 312.322 628.207 312.322H627.788C627.48 312.322 627.215 312.215 626.993 312C626.778 311.778 626.671 311.517 626.671 311.216C626.671 310.894 626.782 310.625 627.004 310.41C627.226 310.195 627.487 310.088 627.788 310.088Z" fill="white"/>
</svg>
