<svg width="92" height="63" viewBox="0 0 92 63" fill="none" xmlns="http://www.w3.org/2000/svg">
<g clip-path="url(#clip0_1378_18262)">
<mask id="mask0_1378_18262" style="mask-type:luminance" maskUnits="userSpaceOnUse" x="1" y="7" width="71" height="56">
<path d="M71.5013 7.00734L1.31995 7.00734L1.31995 62.5655L71.5013 62.5655L71.5013 7.00734Z" fill="white"/>
</mask>
<g mask="url(#mask0_1378_18262)">
<path d="M69.7512 49.572C69.3969 48.9598 68.9353 48.3798 68.3555 47.9717C67.7114 47.5206 66.9277 47.4347 66.1654 47.3058C65.2636 47.1554 64.3617 47.0158 63.4599 46.8654C62.9983 46.7902 62.5473 46.7258 62.0857 46.6721C61.7744 46.6399 61.463 46.6076 61.1517 46.6399C61.506 44.8355 61.8924 43.0418 62.3004 41.2481C63.1056 37.7145 64.0182 34.2023 65.0166 30.7224C65.4246 29.3047 65.9077 27.8869 66.0795 26.4155C66.2191 25.2233 66.1439 23.8914 65.4139 22.8926C64.4691 21.6144 62.8587 21.4533 61.4201 21.1848C59.6057 20.8411 57.802 20.5082 55.9876 20.1645C54.1518 19.8208 52.3266 19.4771 50.4908 19.1441C48.6979 18.8112 46.9157 18.4675 45.112 18.2527C43.2869 18.0379 41.451 18.0593 39.6152 17.9949C37.8222 17.9304 36.083 17.6727 34.3652 17.1571C32.7119 16.6631 31.1015 16.0186 29.5018 15.3957C27.8699 14.762 26.2058 14.182 24.531 13.6772C17.821 11.6472 10.8533 10.6162 3.87488 10.0684C2.99453 10.0039 2.11417 9.9395 1.23382 9.89654C1.22308 9.89654 1.20161 9.89654 1.19087 9.89654C1.12646 9.85358 1.02983 9.85358 0.976152 9.95024C-0.451741 12.4957 -1.53608 15.2775 -2.48085 18.0379C-3.4471 20.8411 -4.22009 23.7088 -4.89646 26.598C-6.30288 32.5483 -7.34428 38.5737 -8.47156 44.5777C-9.07278 47.7784 -9.674 50.979 -10.286 54.1904C-10.5866 55.7693 -10.8872 57.3482 -11.1878 58.927C-11.424 60.1622 -11.6816 61.3973 -11.7138 62.6647C-11.7353 63.7066 -11.6065 64.8128 -11.0804 65.7365C-10.4685 66.8106 -9.39486 67.3476 -8.23537 67.6269C-6.71085 67.992 -5.15413 68.2605 -3.61887 68.572C-2.06215 68.8835 -0.505421 69.2057 1.06204 69.5172C2.60803 69.8287 4.17549 70.1186 5.75369 70.2046C7.35336 70.2905 8.9423 70.1186 10.5312 70.022C12.1094 69.9361 13.6447 70.022 15.1907 70.3549C16.7259 70.6879 18.229 71.182 19.7428 71.6331C20.2903 71.7942 20.8378 71.966 21.3854 72.1164C21.4498 72.256 21.5464 72.3849 21.6967 72.4816C21.89 72.5997 22.1154 72.6212 22.3409 72.6212C22.62 72.6212 22.8884 72.6104 23.1675 72.6104C27.3761 72.6212 31.5309 73.2978 35.6643 74.0282C39.8084 74.7586 43.9525 75.5748 48.1503 75.9078C49.181 75.9937 50.2116 76.0474 51.253 76.0582C52.2622 76.0689 53.3143 76.1011 54.3235 75.9508C54.7744 75.8756 55.2254 75.7359 55.5904 75.4459C55.9125 75.1989 56.1487 74.866 56.3204 74.49C56.4922 74.0926 56.5996 73.6845 56.7069 73.2656C56.8143 72.836 56.9217 72.4171 57.029 71.9875C57.3404 70.7416 57.598 69.4957 57.8235 68.2391C57.9845 68.3142 58.1778 68.3357 58.3388 68.3679C59.0367 68.4968 59.7345 68.6042 60.4323 68.7009C61.1302 68.7868 61.8173 68.8513 62.5151 68.8942C63.1164 68.9265 63.7283 68.9479 64.3295 68.8727C64.92 68.7976 65.5105 68.6257 66.0043 68.282C66.5089 67.9276 66.9062 67.455 67.2068 66.9287C67.5181 66.3809 67.7436 65.7902 67.969 65.1995C68.216 64.5873 68.4522 63.9751 68.6562 63.3521C68.7098 63.191 68.7635 63.0299 68.8172 62.8795C68.8172 62.8795 68.8172 62.8688 68.8279 62.8688C69.4828 61.4618 69.8479 59.9688 70.1377 58.4544C70.4383 56.8756 70.7389 55.2645 70.7389 53.6534C70.7389 52.2464 70.4598 50.8072 69.7512 49.572ZM67.5933 51.9135C67.604 51.7631 67.6255 51.6127 67.6362 51.4624C67.7006 50.8394 67.7758 50.2057 67.8295 49.5828C67.8617 49.282 67.8832 48.9813 67.9046 48.6806C67.9154 48.6054 67.9154 48.5195 67.9261 48.4443C68.3555 48.7235 68.7098 49.1424 68.989 49.5613C69.5043 50.3453 69.8049 51.1938 69.9552 52.0746C69.7405 52.0853 69.515 52.1175 69.3111 52.1283C69.0104 52.139 68.7206 52.1498 68.42 52.139C68.2589 52.139 68.0979 52.1283 67.9368 52.1283C67.851 52.1283 67.6899 52.139 67.6148 52.096C67.6148 52.096 67.604 52.1175 67.5933 52.0423C67.5826 51.9886 67.5933 51.9457 67.5933 51.9135ZM60.5826 21.7541C60.6363 21.7648 60.69 21.7756 60.733 21.7863C61.302 21.8937 61.8817 21.9796 62.44 22.0978C61.7314 24.6325 61.1517 27.2103 60.5504 29.7665C59.917 32.4624 59.3265 35.1582 58.7468 37.8649C58.167 40.5822 57.598 43.2996 57.0612 46.0277C56.5244 48.7343 55.9984 51.4516 55.5045 54.169C55.0106 56.8971 54.4846 59.6359 54.0873 62.3855C54.0444 62.7077 54.0015 63.0406 53.9692 63.3629C53.9263 63.524 53.8834 63.6743 53.8404 63.8354C53.5935 64.7913 53.3251 65.7473 53.0674 66.7032C52.5521 68.6365 52.0368 70.559 51.6181 72.5245C51.4141 73.4804 51.2423 74.4471 51.1135 75.4137C50.6518 75.403 50.1902 75.3922 49.7393 75.3708C49.8681 74.8874 49.9647 74.3826 50.0721 73.8886C50.1902 73.3301 50.3083 72.7716 50.4156 72.213C50.6518 71.0746 50.8987 69.9468 51.1886 68.819C51.4248 67.9168 51.7254 67.0361 51.9616 66.1447C52.1763 65.3606 52.3588 64.5765 52.5091 63.7817C52.5521 63.7495 52.5736 63.7066 52.5843 63.6421C52.842 62.2673 53.003 60.8711 53.207 59.4855C53.411 58.1 53.615 56.7145 53.8297 55.3289C54.2591 52.5686 54.7208 49.8191 55.2146 47.0695C55.7085 44.3092 56.2346 41.5489 56.7928 38.7993C57.3511 36.0497 57.9416 33.3001 58.5535 30.5613C59.1655 27.8225 59.8204 25.0944 60.4646 22.3663C60.529 22.1622 60.5612 21.9581 60.5826 21.7541ZM-11.1556 63.8784C-11.3059 62.7721 -11.1878 61.6229 -10.9945 60.5274C-10.7369 59.0237 -10.4363 57.52 -10.1464 56.0163C-9.54517 52.8801 -8.95468 49.7331 -8.35347 46.5969C-7.21545 40.6359 -6.16331 34.6534 -4.85352 28.7247C-3.60814 23.0322 -2.04067 17.3719 0.364199 12.0554C0.6326 11.4647 0.901001 10.8847 1.1694 10.3047C1.19087 10.3154 1.21235 10.3154 1.23382 10.3154C2.15712 10.4013 3.08042 10.4873 4.00372 10.5839C3.9393 10.7665 3.88562 10.9706 3.83194 11.1424C3.73532 11.4539 3.62796 11.7761 3.53133 12.0876C3.32735 12.7213 3.11263 13.3657 2.89791 13.9994C2.46846 15.2561 2.00681 16.5127 1.53443 17.7479C1.40559 18.0916 1.26603 18.4245 1.13719 18.7682C0.997624 19.1226 0.825849 19.4771 0.718489 19.8423C0.707752 19.8852 0.707751 19.9174 0.707751 19.9497C0.321254 20.7659 -0.0437708 21.593 -0.39806 22.42C-1.02075 23.8914 -1.58976 25.3736 -2.1373 26.8773C-3.2109 29.8524 -4.14494 32.8705 -5.02529 35.8993C-5.89491 38.9174 -6.72159 41.957 -7.4409 45.0073C-8.19243 48.208 -8.81512 51.4409 -9.37339 54.6845C-9.92093 57.9282 -10.3718 61.1825 -10.7691 64.4369C-10.7905 64.6517 -10.8228 64.8665 -10.8442 65.0706C-10.9945 64.7054 -11.1019 64.2865 -11.1556 63.8784ZM-10.4148 65.7795C-10.4148 65.7687 -10.404 65.758 -10.404 65.7473C-10.1249 64.1254 -9.98534 62.4821 -9.75989 60.8496C-9.53443 59.217 -9.29824 57.5952 -9.02984 55.9734C-8.50377 52.7405 -7.88108 49.5291 -7.14029 46.3391C-6.43172 43.2673 -5.60504 40.2278 -4.74616 37.1989C-3.88727 34.1809 -2.98545 31.1843 -1.95479 28.2199C-1.01001 25.481 0.0850611 22.8066 1.19087 20.1215C1.20161 20.1 1.22308 20.0893 1.23382 20.0678C1.54516 19.4771 1.75988 18.8219 2.00681 18.199C2.25374 17.576 2.48993 16.9423 2.71539 16.3194C3.16631 15.0735 3.59575 13.8061 3.97151 12.5387C4.07887 12.1843 4.18623 11.8191 4.28285 11.4539C4.35801 11.1961 4.45463 10.9169 4.50831 10.6484C5.09879 10.7128 5.68928 10.7773 6.27976 10.8417C6.23681 10.9491 6.19387 11.0565 6.15092 11.1639C6.04356 11.4647 5.95768 11.7654 5.86105 12.0661C5.67854 12.6461 5.49603 13.2261 5.30278 13.8061C4.93775 14.9768 4.57273 16.1475 4.2077 17.3182C3.50986 19.5952 2.79054 21.883 1.9746 24.1277C1.51295 25.4059 0.997624 26.6518 0.493031 27.9084C0.460823 27.9943 0.47156 28.0695 0.514503 28.1447C0.278311 28.7139 0.0528536 29.2939 -0.172604 29.8632C-0.687933 31.152 -1.19253 32.4409 -1.68639 33.7405C-2.66336 36.3397 -3.60814 38.9604 -4.47776 41.6026C-5.33664 44.234 -6.0989 46.8869 -6.73232 49.5828C-7.35501 52.2464 -7.76298 54.9315 -8.0958 57.6382C-8.43935 60.3877 -8.77217 63.1588 -9.53443 65.8332C-9.59885 66.048 -9.65253 66.2628 -9.71694 66.4776C-9.99608 66.2628 -10.2215 66.0373 -10.4148 65.7795ZM-9.30897 66.6817C-8.46083 64.1254 -8.03138 61.4833 -7.66636 58.8304C-7.2906 56.1237 -6.92557 53.4171 -6.33509 50.7427C-5.74461 48.0684 -5.01456 45.4262 -4.18788 42.8055C-3.35047 40.1418 -2.41644 37.4997 -1.43946 34.879C-0.956335 33.5901 -0.473212 32.3013 0.0206461 31.0124C0.407144 30.0028 0.804377 28.9932 1.15867 27.9728C1.63105 26.931 2.02829 25.8462 2.42552 24.7722C2.83349 23.6551 3.23072 22.5274 3.59575 21.3889C4.34727 19.0797 5.04511 16.7597 5.73222 14.429C5.92547 13.7631 6.11872 13.108 6.31197 12.442C6.40859 12.1198 6.49448 11.7869 6.5911 11.4647C6.64478 11.2821 6.69846 11.0887 6.73067 10.8847C7.47146 10.9706 8.20151 11.0565 8.9423 11.1532C8.37329 12.6891 7.89016 14.2572 7.38557 15.8038C6.8595 17.4471 6.34417 19.0904 5.82884 20.7337C4.79818 23.9988 3.77826 27.264 2.7476 30.5291C2.45773 31.4528 2.16785 32.3765 1.87798 33.3001C1.58811 34.2238 1.27676 35.1475 1.04057 36.0819C1.0191 36.1786 1.02983 36.2645 1.07278 36.329C0.815112 37.1452 0.568183 37.9723 0.33199 38.7993C-0.333644 41.087 -0.967071 43.3855 -1.56829 45.6947C-2.15877 47.9824 -2.69557 50.2702 -3.16796 52.5794C-3.40415 53.7286 -3.61887 54.8886 -3.81212 56.0378C-4.00537 57.23 -4.16641 58.4222 -4.35966 59.6144C-4.54217 60.7959 -4.76763 61.9666 -5.01456 63.1373C-5.26149 64.2973 -5.55136 65.4358 -5.8305 66.585C-5.90565 66.875 -5.97007 67.165 -6.02375 67.4657C-6.59276 67.3583 -7.15103 67.2509 -7.72004 67.1328C-8.26758 67.0361 -8.81512 66.918 -9.30897 66.6817ZM17.6707 70.2798C16.1999 69.8501 14.7076 69.485 13.183 69.3453C11.6478 69.2164 10.1233 69.3776 8.59874 69.485C7.00981 69.5924 5.44235 69.5816 3.85341 69.3561C2.28595 69.1305 0.73996 68.7976 -0.80603 68.4968C-2.33055 68.1961 -3.85506 67.8954 -5.37958 67.6054C-5.444 67.5946 -5.50842 67.5839 -5.5621 67.5731C-5.16486 66.4669 -4.91793 65.3069 -4.64953 64.1576C-4.38113 63.0084 -4.14494 61.8484 -3.94095 60.6885C-3.72623 59.507 -3.55446 58.3148 -3.37194 57.1226C-3.18943 55.9519 -2.96397 54.7812 -2.73852 53.6105C-2.2876 51.3013 -1.7508 49.0028 -1.18179 46.715C-0.602045 44.4166 0.0313816 42.1288 0.675544 39.8519C0.997625 38.6919 1.31971 37.5426 1.64179 36.3827C1.7062 36.1571 1.75988 35.9423 1.8243 35.7168C2.03902 35.0831 2.23227 34.4386 2.43626 33.8049C2.69392 32.9779 2.95159 32.1616 3.20925 31.3346C3.72458 29.6913 4.23991 28.048 4.75524 26.394C5.77516 23.1289 6.78435 19.853 7.79354 16.5879C8.34108 14.805 8.91009 13.022 9.37174 11.2176C13.6017 11.7869 17.7995 12.5387 21.9114 13.645C23.5755 14.0853 25.2181 14.5901 26.8393 15.1594C28.4389 15.7179 30.0171 16.3623 31.6061 16.9638C32.0785 17.1356 32.5508 17.3075 33.0232 17.4793C32.83 18.1453 32.7334 18.8434 32.6045 19.5308C32.465 20.2719 32.3469 21.013 32.218 21.7541C31.9604 23.247 31.692 24.7507 31.4128 26.2436C30.8653 29.208 30.307 32.1616 29.7165 35.1153C29.1261 38.0904 28.5034 41.0548 27.8699 44.0084C27.258 46.9621 26.6138 49.9157 25.9697 52.8801C25.3255 55.866 24.6921 58.8518 24.0694 61.8377C23.9942 62.2136 23.9083 62.5788 23.8332 62.9547C23.8117 63.0406 23.8332 63.1266 23.8761 63.191C23.2964 64.9095 22.7703 66.6387 22.2335 68.3787C22.0725 68.9157 21.9007 69.4635 21.7397 70.0005C21.6001 70.4623 21.4068 70.9349 21.3317 71.4183C20.1185 70.9994 18.8946 70.6342 17.6707 70.2798ZM37.3928 73.7167C33.3775 73.0078 29.3408 72.3205 25.2611 72.1164C24.7457 72.0949 24.2304 72.0734 23.7044 72.0627C23.2749 72.0519 22.8455 72.0842 22.4268 72.0734C22.459 71.9338 22.3946 71.7727 22.2228 71.719C22.1047 71.676 21.9758 71.6331 21.8578 71.5901C21.8685 71.5042 21.89 71.4183 21.9114 71.3431C22.0403 70.849 22.2013 70.3549 22.3516 69.8609C22.9743 67.788 23.6185 65.7258 24.1875 63.6421C24.2197 63.5347 24.2412 63.4273 24.2734 63.3306C24.3485 63.2984 24.4129 63.234 24.4344 63.1266C25.0786 60.1407 25.7549 57.1656 26.3991 54.1904C27.0433 51.2153 27.6874 48.2402 28.3209 45.2651C28.9543 42.3007 29.5662 39.3363 30.1567 36.3612C30.7365 33.3968 31.2947 30.4217 31.8315 27.4358C32.3683 24.4607 32.9051 21.4748 33.3453 18.4782C33.3883 18.1882 33.4205 17.909 33.4419 17.619C34.2901 17.8982 35.149 18.1345 36.0293 18.3171L32.7334 38.7241C32.7012 38.9282 32.7978 39.1215 32.9803 39.2074C33.0447 39.2396 33.1199 39.2611 33.1843 39.2611C33.3024 39.2611 33.4312 39.2074 33.5171 39.1108L34.0432 38.5522C34.2364 38.3482 34.5155 38.2515 34.7947 38.2945C35.0738 38.3482 35.31 38.5308 35.4174 38.7885L35.4711 38.9067C35.5569 39.1108 35.7609 39.2289 35.9864 39.2074C36.2118 39.1859 36.3836 39.0356 36.4373 38.81L36.8238 37.0701C36.8882 37.0808 36.9526 37.0808 37.017 37.0915C37.425 37.1345 37.833 37.2097 38.2302 37.2956C38.6489 37.3815 39.0569 37.5104 39.4863 37.5641C39.6796 37.5856 39.744 37.2956 39.583 37.2097C39.1965 37.0056 38.7563 36.8982 38.3268 36.8123C37.9081 36.7264 37.4787 36.6619 37.0493 36.619C37.0063 36.619 36.9634 36.6082 36.9204 36.6082L37.4894 34.0305C38.037 34.1164 38.5845 34.1916 39.1213 34.2775C40.1305 34.4386 41.1504 34.6105 42.1596 34.7716C44.1995 35.1045 46.2286 35.4805 48.2469 35.9101C49.3742 36.1464 50.4908 36.4364 51.6288 36.6727C52.0046 36.7478 52.1656 36.2001 51.7898 36.0927C50.7914 35.8134 49.7607 35.6093 48.7515 35.3945C47.7316 35.1797 46.7117 34.9757 45.6918 34.7823C43.6734 34.4064 41.6443 34.0412 39.5937 33.8372C38.9281 33.7727 38.2517 33.6761 37.5753 33.6224L38.2195 30.7117C38.5523 30.7761 38.8851 30.8298 39.2179 30.8943C39.6366 30.9802 40.0553 31.0661 40.4633 31.1628C40.6673 31.2057 40.8713 31.2594 41.0645 31.3024C41.2793 31.3561 41.4832 31.4098 41.698 31.3776C41.8483 31.3561 41.8268 31.1628 41.7302 31.0983C41.5584 30.9694 41.3437 30.9372 41.1397 30.8835C40.9357 30.8406 40.7317 30.7869 40.5385 30.7439C40.109 30.658 39.6796 30.572 39.2501 30.4969C38.9281 30.4432 38.606 30.3895 38.2839 30.3465L38.9066 27.5325C40.6136 27.6936 42.3099 27.8977 43.9955 28.1876C46.1427 28.5528 48.2684 29.0361 50.3941 29.5517C50.9954 29.7021 51.5966 29.8524 52.1978 30.0028C52.4877 30.078 52.7775 30.1532 53.0674 30.2176C53.368 30.2928 53.6901 30.4109 54.0014 30.4002C54.2054 30.3895 54.2913 30.1209 54.1088 30.0135C53.8726 29.8632 53.6042 29.8202 53.3358 29.7558C53.0567 29.6806 52.7775 29.6161 52.4984 29.541C51.9616 29.4013 51.4248 29.2724 50.8987 29.1436C49.8144 28.875 48.7301 28.628 47.6457 28.381C45.4985 27.9191 43.3298 27.5217 41.1397 27.2962C40.4204 27.221 39.7118 27.1673 38.9925 27.1351L39.8514 23.2148C41.5262 23.5907 43.2225 23.9237 44.8973 24.2888C46.9479 24.7507 48.9985 25.234 51.0383 25.7495C52.1978 26.0395 53.3358 26.3618 54.4953 26.6518C54.8389 26.7377 54.9892 26.2221 54.6456 26.1147C52.6058 25.5133 50.5337 25.0192 48.4617 24.5251C46.4111 24.0418 44.3605 23.58 42.2884 23.1826C41.5154 23.0322 40.7317 22.8818 39.948 22.7529L40.8283 18.736C41.1719 18.7467 41.5154 18.7467 41.859 18.7575C45.4985 18.8327 49.0414 19.606 52.595 20.2719C54.4094 20.6156 56.2131 20.9485 58.0275 21.2922C58.736 21.4211 59.4554 21.5607 60.1639 21.6896C59.96 22.2052 59.8204 22.7422 59.6808 23.2792C59.509 23.9559 59.3265 24.6325 59.1655 25.3199C58.8219 26.684 58.4891 28.0373 58.167 29.4121C57.5229 32.1402 56.9109 34.879 56.3419 37.6286C55.7729 40.3781 55.2361 43.1277 54.7315 45.888C54.2269 48.6483 53.7653 51.4194 53.3251 54.1904C52.8956 56.9615 52.4877 59.7433 52.1334 62.5251C52.0904 62.8795 52.0582 63.234 52.026 63.5884C52.026 63.6206 52.026 63.6421 52.0368 63.6743C51.8972 64.3832 51.7254 65.0813 51.5429 65.7795C51.3174 66.6387 51.0276 67.4872 50.7914 68.3572C50.4908 69.4527 50.2438 70.559 50.0077 71.676C49.8788 72.3097 49.7393 72.9434 49.6104 73.5771C49.4816 74.1678 49.3313 74.7693 49.2239 75.36C45.2623 75.113 41.3222 74.4041 37.3928 73.7167ZM51.5966 75.4137C52.1871 71.6223 53.3251 67.9491 54.2591 64.2328C54.3343 63.9321 54.3987 63.6314 54.4631 63.3199C54.7745 62.0203 54.9677 60.6885 55.2039 59.3781C55.4508 58.0141 55.6978 56.6608 55.9447 55.2967C56.4493 52.5794 56.9646 49.862 57.5014 47.1554C58.0382 44.4381 58.5965 41.7314 59.1655 39.0356C59.7452 36.3182 60.3465 33.6009 60.9477 30.8943C61.5489 28.1984 62.2145 25.5133 62.7835 22.8066C62.8265 22.6026 62.8694 22.4092 62.9124 22.2052C63.0197 22.2267 63.1164 22.2589 63.2237 22.2911C63.7713 22.4415 64.2866 22.6992 64.6731 23.1181C64.5657 23.0859 64.4476 23.1289 64.4047 23.2685C63.9752 24.5574 63.6209 25.857 63.2667 27.1673C62.9124 28.4562 62.5581 29.7558 62.2253 31.0554C61.5489 33.6761 60.9047 36.3075 60.2928 38.9389C59.6916 41.5596 59.1118 44.191 58.575 46.8332C58.0382 49.4754 57.5336 52.1175 57.072 54.7704C56.6103 57.4233 56.1701 60.087 55.7622 62.7506C55.7085 63.0836 55.6978 63.4058 55.6978 63.7495C55.5045 64.6625 55.3113 65.5754 55.0643 66.4776C54.8067 67.412 54.5275 68.3357 54.3235 69.2916C54.1088 70.269 53.9263 71.2464 53.7438 72.2238C53.5398 73.2871 53.3573 74.3504 53.1855 75.4245C52.9815 75.4352 52.7668 75.4352 52.5628 75.4352C52.23 75.4137 51.9187 75.4137 51.5966 75.4137ZM56.8036 70.3549C56.5996 71.2142 56.3741 72.0519 56.1487 72.9004C55.9661 73.6093 55.8158 74.4686 55.1932 74.9304C54.8496 75.1882 54.4094 75.2848 53.9907 75.3278C53.8941 75.3385 53.7867 75.3493 53.6901 75.3493C54.0659 73.4804 54.4094 71.6008 54.8174 69.732C55.2254 67.8309 55.9232 65.9943 56.2238 64.0717C56.3097 63.5347 56.3527 62.9977 56.3956 62.4499C56.4063 62.2888 56.4171 62.1277 56.4385 61.9666C56.4493 61.9129 56.46 61.8592 56.46 61.8055C56.5674 61.1396 56.6747 60.4844 56.7821 59.8185C57.0075 58.4867 57.2437 57.1548 57.4799 55.823C57.9523 53.1701 58.4677 50.5279 59.0045 47.8858C59.5413 45.2436 60.0995 42.6122 60.7007 39.9807C61.302 37.3493 61.9247 34.7286 62.5796 32.1187C63.2345 29.5195 63.9216 26.931 64.5872 24.3318C64.6731 23.9988 64.759 23.6659 64.8341 23.3329C64.8341 23.3115 64.8449 23.29 64.8449 23.2685C64.8663 23.29 64.8771 23.3222 64.8985 23.3437C65.2099 23.8163 65.3709 24.3748 65.4139 24.944C65.5212 26.2221 65.2206 27.5003 64.8556 28.7139C63.8464 32.1294 62.9124 35.5771 62.0857 39.0356C60.4216 45.974 59.144 53.009 58.2744 60.0977C58.167 60.957 58.0704 61.8162 57.9738 62.6755C57.9631 62.7292 57.9738 62.7829 57.9953 62.8258C57.9308 63.2125 57.8664 63.5991 57.8127 63.9965C57.7269 64.5765 57.6517 65.1458 57.5766 65.7258C57.5443 66.0158 57.5121 66.3058 57.4799 66.5958C57.4477 66.8857 57.3833 67.208 57.394 67.498C57.394 67.5194 57.4048 67.5517 57.4048 67.5731C57.2223 68.5183 57.0183 69.442 56.8036 70.3549ZM69.5687 57.7993C69.4399 58.5081 69.3003 59.217 69.1285 59.9259C68.8387 60.7314 68.5595 61.537 68.2804 62.3425C67.8939 63.4488 67.4752 64.5443 67.0243 65.6184C66.6378 66.5421 66.1439 67.498 65.1884 67.9276C64.2329 68.3572 63.0734 68.2391 62.0642 68.1639C61.3879 68.1102 60.7115 68.0457 60.0459 67.9491C59.6916 67.8954 59.348 67.8417 58.9937 67.788C58.8219 67.7557 58.6502 67.7235 58.4891 67.6913C58.4354 67.6805 58.3066 67.6698 58.21 67.6591C58.1992 67.6161 58.1778 67.5839 58.1456 67.5517C58.0919 67.498 58.0275 67.4765 57.9631 67.4657C58.0275 67.0791 58.0919 66.6924 58.1563 66.3165C58.4247 64.6195 58.6716 62.901 58.8327 61.1825C59.4339 56.4352 60.1854 51.7094 61.1087 47.0158C61.3771 47.0587 61.6455 47.1017 61.9139 47.1554C62.3004 47.2306 62.6762 47.3165 63.0627 47.3917C63.8357 47.5313 64.6087 47.671 65.3817 47.8106C65.7574 47.875 66.1439 47.9502 66.5197 48.0146C66.831 48.0684 67.1531 48.1221 67.443 48.2187C67.4108 48.4013 67.3893 48.5839 67.3571 48.7557C67.3141 49.1102 67.2605 49.4539 67.2175 49.8083C67.1316 50.4957 67.035 51.1831 66.9706 51.8812C66.9384 52.182 67.0135 52.4934 67.2927 52.6546C67.5611 52.8157 67.9261 52.7834 68.2267 52.7942C68.5703 52.8049 68.9138 52.8049 69.2574 52.7834C69.5043 52.7727 69.7942 52.7834 70.0518 52.7405C70.1807 54.4053 69.8693 56.1774 69.5687 57.7993Z" fill="#1C1919"/>
<path d="M10.0267 13.1831C10.6494 13.4624 11.3472 13.5913 12.0128 13.7416C12.7107 13.9027 13.4085 14.0531 14.1064 14.2142C14.7935 14.3646 15.4806 14.5257 16.157 14.6868C16.5005 14.762 16.8441 14.8372 17.1876 14.9231C17.3594 14.9661 17.5312 14.9983 17.7029 15.0305C17.864 15.0627 18.0572 15.1272 18.2183 15.0627C18.3364 15.0198 18.3793 14.8801 18.2934 14.7942C18.1753 14.6653 17.9928 14.6438 17.8318 14.5901C17.6707 14.5472 17.5097 14.515 17.3594 14.472C17.0158 14.3968 16.6723 14.3109 16.3287 14.2357C15.6309 14.0853 14.933 13.9242 14.2352 13.7739C13.5481 13.6235 12.861 13.4839 12.1739 13.3335C11.4975 13.1939 10.7889 13.0113 10.0911 13.022C9.99447 13.0113 9.94079 13.1402 10.0267 13.1831Z" fill="#1C1919"/>
<path d="M10.1233 15.6857C10.0374 15.6964 10.0374 15.8468 10.1233 15.8683C11.3472 16.0616 12.5818 16.1153 13.8057 16.3194C15.0296 16.5234 16.2321 16.792 17.4238 17.1249C19.8394 17.8016 22.1906 18.7145 24.4881 19.7134C25.1322 19.9926 25.7657 20.2719 26.3991 20.5619C27.054 20.8626 27.6982 21.1633 28.3853 21.3889C28.6107 21.4641 28.7288 21.1311 28.5463 21.0237C28.0095 20.6908 27.4405 20.433 26.8607 20.1752C26.2703 19.9067 25.6905 19.6489 25.1 19.3912C23.9405 18.8864 22.7703 18.3923 21.5786 17.9412C19.2274 17.0497 16.8118 16.2871 14.321 15.9005C12.9576 15.6642 11.5082 15.4709 10.1233 15.6857Z" fill="#1C1919"/>
<path d="M9.79047 18.8004C11.2184 19.1656 12.6892 19.3697 14.1386 19.5952C15.5987 19.8208 17.0695 20.0463 18.5296 20.2611C19.367 20.39 20.2044 20.5082 21.0418 20.6371C21.1707 20.6585 21.2995 20.6048 21.3317 20.476C21.3639 20.3685 21.2888 20.2074 21.1707 20.186C18.2183 19.7456 15.2658 19.2838 12.3134 18.8756C11.4868 18.7575 10.6493 18.6715 9.82267 18.6286C9.71531 18.6178 9.69384 18.7682 9.79047 18.8004Z" fill="#1C1919"/>
<path d="M9.25362 23.3866C9.70454 23.5692 10.2413 23.6229 10.7245 23.7196C11.2183 23.8163 11.7122 23.9022 12.2168 23.9988C13.183 24.1707 14.16 24.3425 15.137 24.5036C17.0909 24.8366 19.0556 25.1696 21.0096 25.4918C21.5679 25.5884 22.1261 25.6744 22.6844 25.771C22.9528 25.814 23.2319 25.8677 23.5003 25.9107C23.6292 25.9321 23.7473 25.9644 23.8761 25.9644C24.0264 25.9644 24.166 25.9536 24.3163 25.9536C24.5417 25.9644 24.574 25.6421 24.37 25.5777C24.1338 25.5025 23.9298 25.4166 23.6829 25.3736C23.4359 25.3307 23.1783 25.2877 22.9313 25.2447C22.4267 25.1588 21.9329 25.0836 21.4283 24.9977C20.4621 24.8366 19.4851 24.6755 18.5188 24.5144C16.5541 24.1922 14.5894 23.87 12.6247 23.5585C12.0665 23.4726 11.5082 23.3866 10.9499 23.3007C10.6708 23.2577 10.3916 23.2148 10.1125 23.1826C9.8441 23.1503 9.56497 23.0966 9.29657 23.1074C9.12479 23.1289 9.11405 23.3329 9.25362 23.3866Z" fill="#1C1919"/>
<path d="M25.3577 27.6614C25.0141 27.5432 24.6169 27.5325 24.2518 27.4895C23.9083 27.4466 23.554 27.4036 23.2104 27.3606C22.5019 27.2747 21.7933 27.1995 21.0847 27.1136C19.6568 26.9525 18.2289 26.8021 16.7903 26.7484C16.64 26.7484 16.5971 26.9954 16.7581 27.0169C18.1752 27.2425 19.5924 27.3821 21.0203 27.554C21.7289 27.6399 22.4375 27.7258 23.146 27.8225C23.4896 27.8654 23.8439 27.9191 24.1874 27.9621C24.5525 28.0051 24.939 28.1125 25.304 28.0802C25.5402 28.0695 25.5831 27.7473 25.3577 27.6614Z" fill="#1C1919"/>
<path d="M7.24598 27.6828C7.89014 27.8439 8.54504 27.9514 9.19994 28.0802C9.8441 28.1984 10.4883 28.3273 11.1217 28.4669C12.41 28.7354 13.6983 29.0254 14.9759 29.3584C15.341 29.455 15.706 29.5517 16.071 29.6484C16.232 29.6913 16.3931 29.7343 16.5541 29.788C16.6293 29.8095 16.7152 29.8417 16.7903 29.8632C16.8762 29.8846 16.9728 29.8846 17.0587 29.9169C17.209 29.9706 17.3486 29.745 17.2198 29.6376C17.1124 29.5409 17.0265 29.4443 16.8977 29.3798C16.7474 29.3047 16.5863 29.2617 16.4253 29.2187C16.114 29.1328 15.7919 29.0469 15.4698 28.961C14.8149 28.7891 14.16 28.628 13.4944 28.4776C12.1846 28.1769 10.864 27.9084 9.54349 27.6936C8.79197 27.5754 8.04045 27.4465 7.27819 27.4036C7.12788 27.3928 7.09568 27.6399 7.24598 27.6828Z" fill="#1C1919"/>
<path d="M23.028 33.8586C23.1139 33.8586 23.1998 33.8479 23.275 33.8801C23.2964 33.8909 23.3072 33.8909 23.3179 33.9016C23.3501 34.009 23.5004 34.0734 23.6078 33.9768C23.7044 33.8909 23.7151 33.7727 23.6937 33.6546C23.6614 33.4827 23.5004 33.3968 23.3501 33.3646C23.1891 33.3216 23.0066 33.3431 22.8348 33.3324C22.6308 33.3216 22.4268 33.3109 22.2228 33.2894C21.4391 33.2249 20.6661 33.0853 19.9038 32.935C18.3578 32.6342 16.8333 32.2153 15.2766 32.0327C14.8579 31.979 14.4285 31.9361 13.999 31.9253C13.5588 31.9146 13.1079 31.9146 12.6892 32.0327C12.5926 32.0542 12.5819 32.2261 12.6892 32.2476C13.0435 32.3013 13.3871 32.3013 13.7414 32.3335C14.1064 32.3657 14.4607 32.3979 14.8257 32.4409C15.5343 32.5376 16.2428 32.6664 16.9514 32.8168C18.3793 33.1175 19.7857 33.4827 21.2244 33.6975C21.6216 33.7512 22.0188 33.8049 22.4161 33.8264C22.6308 33.8372 22.8348 33.8479 23.028 33.8586Z" fill="#1C1919"/>
<path d="M4.56205 34.3312C5.4102 34.5031 6.26908 34.6427 7.11723 34.8253C7.95464 35.0079 8.77058 35.2227 9.59725 35.4375C11.2613 35.8671 12.9469 36.3075 14.6647 36.4686C15.0726 36.5115 15.4806 36.5115 15.8778 36.5867C16.0711 36.619 16.2536 36.6727 16.4361 36.7586C16.6186 36.8445 16.7582 36.9734 16.9514 37.0378C17.1017 37.0808 17.2521 36.9304 17.1984 36.7908C17.091 36.4364 16.683 36.2645 16.3502 36.1679C15.9959 36.0604 15.6202 36.0282 15.2551 35.996C14.407 35.9316 13.5696 35.8349 12.7322 35.6738C10.9929 35.3408 9.28591 34.8468 7.55741 34.4708C6.59116 34.2668 5.59271 34.0735 4.59426 34.0842C4.45469 34.0842 4.41175 34.299 4.56205 34.3312Z" fill="#1C1919"/>
<path d="M24.3807 40.0774C24.0908 39.9163 23.7258 39.8626 23.4037 39.7874C23.0709 39.7122 22.7273 39.637 22.3945 39.5619C21.7074 39.4222 21.0203 39.3041 20.3225 39.1859C18.959 38.9604 17.5848 38.7563 16.1998 38.6597C15.4161 38.606 14.6431 38.5845 13.8594 38.606C13.7413 38.606 13.752 38.7671 13.8594 38.7778C15.2229 38.9604 16.5863 39.0893 17.9391 39.2611C19.2918 39.4437 20.6446 39.68 21.9866 39.97C22.3731 40.0559 22.7488 40.1418 23.1246 40.2278C23.4896 40.3137 23.8868 40.4533 24.2626 40.4533C24.4773 40.4641 24.5632 40.1741 24.3807 40.0774Z" fill="#1C1919"/>
<path d="M22.9636 43.5036C22.3946 43.2996 21.7826 43.1814 21.2029 43.031C20.6124 42.8807 20.0219 42.741 19.4314 42.6122C18.2612 42.3436 17.0802 42.0859 15.8993 41.8496C13.5159 41.3663 11.111 40.9581 8.6954 40.6252C8.02976 40.5285 7.35339 40.4426 6.68776 40.3674C6.00065 40.2922 5.32428 40.2492 4.63717 40.217C4.47613 40.2063 4.43319 40.4748 4.59423 40.507C5.19545 40.6144 5.78593 40.7218 6.38715 40.8078C6.97763 40.8937 7.56811 40.9689 8.1586 41.0548C9.36103 41.2266 10.5635 41.42 11.7659 41.624C14.1386 42.0322 16.5112 42.5155 18.8517 43.0525C19.5066 43.2029 20.1722 43.364 20.8271 43.5251C21.4928 43.6862 22.1584 43.901 22.8348 44.0192C23.1568 44.0729 23.2857 43.611 22.9636 43.5036Z" fill="#1C1919"/>
<path d="M13.14 45.7377C14.117 45.9847 15.0725 46.3069 16.0388 46.5754C16.5756 46.715 17.1231 46.8439 17.6706 46.9299C17.939 46.9728 18.2182 47.005 18.4973 47.0158C18.7872 47.0373 19.0985 47.0587 19.3884 46.9836C19.5709 46.9406 19.5924 46.6076 19.3884 46.5862C19.1307 46.5539 18.8838 46.5647 18.6261 46.5539C18.3685 46.5432 18.1216 46.5217 17.8639 46.4895C17.3808 46.4251 16.8976 46.3176 16.4145 46.1995C15.4483 45.9525 14.5035 45.641 13.548 45.3832C11.5296 44.8355 9.44683 44.7066 7.36404 44.5562C6.18308 44.4703 5.01285 44.3521 3.84262 44.1803C3.72452 44.1588 3.67084 44.3306 3.78894 44.3736C5.81805 44.9751 7.96526 44.9966 10.0588 45.2221C11.1002 45.3295 12.1308 45.4799 13.14 45.7377Z" fill="#1C1919"/>
<path d="M12.4744 49.7653C12.0664 49.3035 11.4438 49.2176 10.864 49.1317C10.1662 49.035 9.46832 48.9491 8.75974 48.8631C8.05117 48.7772 7.34259 48.6806 6.63401 48.5946C6.29045 48.5517 5.93617 48.5087 5.59261 48.4657C5.22759 48.4228 4.85183 48.3583 4.47606 48.3583C4.32576 48.3583 4.29355 48.5839 4.44386 48.6269C4.77667 48.7128 5.1417 48.7557 5.47452 48.7987C5.81807 48.8524 6.17236 48.9061 6.51591 48.9491C7.20302 49.0457 7.87939 49.1424 8.56649 49.2391C9.24287 49.3357 9.92997 49.4216 10.6063 49.5183C11.1968 49.5935 11.7766 49.7009 12.3026 49.9694C12.4422 50.0553 12.571 49.8835 12.4744 49.7653Z" fill="#1C1919"/>
<path d="M19.4958 52.1068C18.8302 51.8705 18.0787 51.849 17.3916 51.7953C16.683 51.7416 15.9851 51.7094 15.2766 51.6986C14.568 51.6879 13.8594 51.6986 13.1616 51.7309C12.818 51.7416 12.4637 51.7738 12.1202 51.806C11.7659 51.8383 11.3901 51.8597 11.0466 51.9564C10.907 51.9886 10.9499 52.182 11.0788 52.1927C11.4223 52.2142 11.7766 52.182 12.1202 52.1605C12.4637 52.1497 12.818 52.139 13.1616 52.1283C13.8701 52.1068 14.5787 52.1068 15.2766 52.1175C15.9744 52.139 16.6615 52.1712 17.3594 52.2249C18.0572 52.2786 18.7658 52.4183 19.4636 52.3753C19.6139 52.3646 19.6461 52.1605 19.4958 52.1068Z" fill="#1C1919"/>
<path d="M54.4309 23.1933C54.0229 23 53.5505 22.9355 53.1103 22.8389C52.6702 22.7315 52.2193 22.6348 51.7791 22.5381C50.8773 22.3341 49.9647 22.1515 49.0521 21.9796C48.9555 21.9581 48.9126 22.0978 49.0092 22.13C49.9003 22.3878 50.7914 22.6241 51.6932 22.8496C52.1334 22.957 52.5843 23.0644 53.0245 23.1718C53.4646 23.2792 53.9155 23.4296 54.3665 23.4511C54.4953 23.4511 54.5597 23.2577 54.4309 23.1933Z" fill="#1C1919"/>
<path d="M52.069 32.3979C51.8113 32.2368 51.457 32.1831 51.1671 32.1079C50.8558 32.0328 50.5552 31.9576 50.2438 31.8824C49.6211 31.7428 48.9985 31.6139 48.3758 31.5065C47.7531 31.3991 47.1196 31.3131 46.497 31.2487C45.8635 31.1843 45.2301 31.1091 44.5967 31.152C44.4464 31.1628 44.3927 31.3991 44.5537 31.4313C45.1657 31.5494 45.7991 31.6031 46.4218 31.6891C47.0445 31.775 47.6564 31.8716 48.2791 31.9898C48.8911 32.1079 49.503 32.2261 50.115 32.3764C50.4263 32.4516 50.7377 32.5268 51.0383 32.6127C51.3282 32.6879 51.6503 32.8276 51.9616 32.8276C52.1871 32.8276 52.2515 32.5268 52.069 32.3979Z" fill="#1C1919"/>
<path d="M40.6243 38.1334C40.7854 38.1656 40.9357 38.23 41.0967 38.2622C41.2792 38.3052 41.4617 38.3374 41.6442 38.3697C41.9878 38.4341 42.3314 38.4878 42.6749 38.5522C43.3513 38.6704 44.0384 38.7671 44.7148 38.8745C46.089 39.0893 47.4632 39.3041 48.8374 39.5296C49.2346 39.5941 49.6211 39.6585 50.0184 39.723C50.3941 39.7874 50.8128 39.9163 51.1993 39.8841C51.414 39.8733 51.5643 39.5404 51.3174 39.433C50.9953 39.2933 50.6411 39.2719 50.2975 39.2182C49.9539 39.1645 49.5997 39.1 49.2561 39.0463C48.5583 38.9389 47.8712 38.8208 47.1733 38.7134C45.7884 38.4985 44.4034 38.2837 43.0077 38.1119C42.6105 38.0582 42.224 38.0152 41.8268 37.9723C41.6443 37.9508 41.451 37.94 41.2685 37.9186C41.0538 37.8971 40.8498 37.9078 40.6458 37.8971C40.5277 37.8863 40.4955 38.1011 40.6243 38.1334Z" fill="#1C1919"/>
<path d="M32.7548 39.9056C33.2916 40.0344 33.8821 40.0344 34.4297 40.0667C34.9987 40.1096 35.5784 40.1418 36.1474 40.1848C37.264 40.26 38.3913 40.3567 39.5078 40.4748C41.7409 40.7111 43.9633 41.044 46.1642 41.4737C46.7976 41.5918 47.4203 41.7207 48.0537 41.8603C48.365 41.9248 48.6764 42 48.9877 42.0751C49.2991 42.1503 49.6212 42.2685 49.9325 42.2255C50.158 42.1933 50.2438 41.9355 50.0506 41.7959C49.8251 41.6348 49.546 41.6026 49.2776 41.5381C48.9877 41.4737 48.6979 41.4092 48.408 41.3448C47.8497 41.2266 47.2914 41.1085 46.7224 40.9903C45.5951 40.7648 44.4679 40.5715 43.3406 40.4104C41.0967 40.0774 38.8314 39.8411 36.5661 39.7122C35.922 39.68 35.2885 39.6478 34.6444 39.6478C34.0217 39.6478 33.3668 39.5941 32.7656 39.723C32.6475 39.723 32.6582 39.8841 32.7548 39.9056Z" fill="#1C1919"/>
<path d="M41.977 43.5466C41.6872 43.4929 41.408 43.4392 41.1182 43.3962C40.5384 43.2996 39.9479 43.2136 39.3682 43.1277C38.1979 42.9559 37.0277 42.8055 35.8575 42.6874C35.5354 42.6551 35.2133 42.6229 34.8913 42.6122C34.5692 42.6014 34.2256 42.5692 33.9035 42.6229C33.8069 42.6336 33.8284 42.7733 33.9035 42.7948C34.1719 42.8914 34.4618 42.9236 34.7409 42.9773C35.0308 43.031 35.3207 43.0633 35.6213 43.1062C36.201 43.1814 36.7701 43.2566 37.3498 43.3425C38.5093 43.5036 39.6581 43.6862 40.8068 43.8903C41.1396 43.944 41.4724 44.0084 41.7945 44.0621C42.1166 44.1158 42.4602 44.2232 42.793 44.2232C43.0936 44.2232 43.1043 43.8366 42.8574 43.7292C42.589 43.6218 42.2669 43.6003 41.977 43.5466Z" fill="#1C1919"/>
<path d="M49.2347 47.6602C49.0951 47.6172 48.9663 47.5635 48.8375 47.5421C48.6979 47.5098 48.5583 47.4991 48.4188 47.4776C48.1396 47.4347 47.8605 47.3917 47.5814 47.338C47.0231 47.2521 46.4755 47.1554 45.9173 47.0695C44.8115 46.8869 43.6949 46.715 42.5891 46.5325C40.3882 46.178 38.1873 45.7914 35.9542 45.6195C34.7196 45.5228 33.4742 45.4906 32.2503 45.6625C32.1429 45.6732 32.1751 45.8343 32.2718 45.8451C33.3883 45.9095 34.4941 45.9632 35.5999 46.0599C36.6843 46.1565 37.7686 46.2962 38.853 46.4573C41.0431 46.7902 43.2333 47.1769 45.4234 47.5421C46.0461 47.6495 46.6688 47.7461 47.2915 47.8535C47.5921 47.9072 47.8927 47.9502 48.1933 48.0039C48.3543 48.0254 48.5154 48.0576 48.6764 48.0791C48.8375 48.1006 48.9985 48.0898 49.1703 48.1006C49.4279 48.1113 49.4709 47.7247 49.2347 47.6602Z" fill="#1C1919"/>
<path d="M33.2917 49.0565C33.442 49.078 33.5923 49.0887 33.7426 49.1102C34.0217 49.1424 34.3008 49.1639 34.58 49.1961C35.1705 49.2605 35.7609 49.325 36.3514 49.4002C36.9312 49.4754 37.5002 49.5505 38.0799 49.6472C38.3698 49.6902 38.6489 49.7331 38.9388 49.7868C39.0784 49.8083 39.2179 49.8298 39.3468 49.8513C39.5186 49.8835 39.6366 49.8513 39.8084 49.8298C39.9695 49.8083 39.9802 49.5613 39.8514 49.4968C39.7118 49.4217 39.6152 49.3572 39.4541 49.325C39.3038 49.3035 39.1535 49.282 39.0032 49.2498C38.7241 49.2068 38.4557 49.1639 38.1765 49.1317C37.5861 49.0457 37.0063 48.9706 36.4158 48.9061C35.8361 48.8417 35.2563 48.788 34.6873 48.7343C34.3975 48.7128 34.1076 48.6913 33.8177 48.6698C33.6781 48.6591 33.5386 48.6591 33.399 48.6483C33.2272 48.6376 33.0769 48.6591 32.9159 48.6806C32.7656 48.702 32.7119 48.9169 32.8729 48.9598C33.0125 49.0028 33.1413 49.0457 33.2917 49.0565Z" fill="#1C1919"/>
<path d="M48.0322 54.0616C47.8712 53.9971 47.6887 53.9756 47.5169 53.9434C47.27 53.9005 47.0123 53.8467 46.7654 53.8038C45.8421 53.6319 44.9295 53.4708 44.0062 53.3312C42.1489 53.0305 40.2701 52.7942 38.3805 52.7297C37.8437 52.7083 37.3176 52.719 36.7808 52.7405C36.5232 52.7512 36.2655 52.762 36.0186 52.7834C35.7717 52.8049 35.4925 52.8264 35.2778 52.966C35.2349 52.9982 35.2241 53.0734 35.2778 53.1057C35.6321 53.2882 36.1152 53.2131 36.5017 53.2131C36.9526 53.2131 37.4035 53.2345 37.8545 53.256C38.7348 53.299 39.6152 53.3527 40.4955 53.4493C42.267 53.6319 44.0277 53.9219 45.7776 54.2441C46.2608 54.3301 46.7439 54.416 47.2163 54.5127C47.4847 54.5664 47.9678 54.5664 48.1074 54.8564C48.1718 54.996 48.408 54.996 48.4724 54.8564C48.6549 54.4804 48.3543 54.1904 48.0322 54.0616Z" fill="#1C1919"/>
<path d="M42.2348 57.1978C41.9234 57.1119 41.6121 57.1011 41.29 57.0796C40.9894 57.0582 40.678 57.0367 40.3774 57.0152C39.744 56.9722 39.1106 56.9293 38.4772 56.8863C37.2318 56.8111 35.9864 56.736 34.741 56.6822C34.3867 56.6715 34.0324 56.65 33.6781 56.65C33.3346 56.65 32.9588 56.6178 32.626 56.7145C32.5079 56.7467 32.5294 56.8863 32.626 56.9293C32.8944 57.0367 33.2165 57.0582 33.5064 57.0796C33.8284 57.1119 34.1398 57.1333 34.4619 57.1548C35.0846 57.1978 35.7073 57.2408 36.3299 57.2837C37.5753 57.3696 38.8207 57.4556 40.0661 57.5522C40.4096 57.5737 40.7425 57.6059 41.086 57.6274C41.451 57.6596 41.8161 57.7133 42.1811 57.6704C42.428 57.6489 42.5139 57.2837 42.2348 57.1978Z" fill="#1C1919"/>
</g>
<path d="M58.3131 4.25439C57.9355 4.46546 57.5867 4.72513 57.2731 5.03062C57.2632 5.04261 57.2533 5.05459 57.2497 5.0638C57.2342 5.06294 57.2186 5.06209 57.2031 5.06123C57.0513 5.04345 56.8952 5.05051 56.7468 5.09247C56.4599 5.16439 56.206 5.32901 55.9732 5.50733C55.7178 5.70321 55.48 5.922 55.2718 6.17375C55.196 6.26045 55.1287 6.36642 55.1418 6.4831C55.1577 6.6062 55.2409 6.69226 55.3339 6.76634C55.2688 6.82542 55.2269 6.92026 55.1829 6.99305C55.1283 7.09345 55.08 7.19107 55.0346 7.29512C54.9465 7.50962 54.9043 7.74233 54.9305 7.97569C54.9576 8.19341 55.0566 8.40257 55.2081 8.55822C55.2792 8.63422 55.3631 8.70466 55.4505 8.76589C55.4956 8.79972 55.5407 8.83354 55.5986 8.8618C55.5977 8.94637 55.5939 9.02451 55.593 9.10907C55.5888 9.39402 55.5782 9.68175 55.6178 9.96284C55.2603 10.0121 54.9728 10.3597 54.9401 10.7183C54.8667 11.2784 55.4569 11.64 55.778 12.0275C55.9667 12.251 56.1264 12.4948 56.2671 12.747C56.3845 12.9635 56.511 13.1836 56.6964 13.3473C57.115 13.7151 57.7101 13.5161 58.1618 13.3185C58.3145 13.2517 58.4616 13.1721 58.6059 13.086C59.0712 13.3875 59.6724 13.5836 60.2191 13.5511C60.8251 13.5155 61.3887 13.1925 61.805 12.7579C62.2149 12.3261 62.4903 11.7772 62.6851 11.2176C62.7463 11.0455 62.811 10.8642 62.8538 10.6848C63.0305 10.6381 63.1876 10.4776 63.3151 10.353C63.4234 10.2367 63.5353 10.1113 63.5893 9.95757C63.6533 9.79187 63.6396 9.62189 63.5976 9.45661C63.5451 9.25002 63.468 9.03893 63.3582 8.85738C63.3406 8.83448 63.3259 8.81799 63.3047 8.80429C63.3623 8.64137 63.3776 8.45105 63.3244 8.26009C63.2208 7.88458 63.0543 7.52127 62.9125 7.16246C62.7595 6.77796 62.5966 6.40545 62.4118 6.03486C61.8621 4.95158 60.9342 3.50583 59.5225 3.77895C59.0859 3.85515 58.6844 4.0461 58.3131 4.25439ZM55.4098 6.35059C55.5727 6.13394 55.7907 5.93914 55.998 5.77194C56.199 5.60753 56.4119 5.45319 56.6593 5.36028C56.7767 5.31661 56.9024 5.29221 57.0239 5.29265C57.1545 5.29672 57.29 5.32926 57.4199 5.34897C57.6797 5.38837 57.9256 5.32672 58.1884 5.30361C58.4483 5.27407 58.7152 5.29506 58.9707 5.3593C59.097 5.38821 59.2417 5.42439 59.3368 5.52052C59.4319 5.61665 59.4217 5.7665 59.4157 5.89153C59.396 6.17562 59.3543 6.46163 59.2851 6.73673C59.2265 6.7241 59.1736 6.72431 59.1051 6.72366C58.8148 6.73586 58.532 6.85188 58.2543 6.92744C57.9702 7.00578 57.6064 7.05779 57.3757 7.25817C57.288 7.33481 57.2214 7.42515 57.1696 7.53197C56.9693 7.42064 56.752 7.33971 56.5446 7.24679C56.3132 7.13374 56.0854 7.01149 55.8739 6.87447C55.7589 6.80232 55.6504 6.72739 55.5418 6.65245C55.4459 6.57196 55.3035 6.48888 55.4098 6.35059ZM59.6435 11.8364C59.5532 11.7688 59.463 11.7011 59.3756 11.6399C59.3305 11.6061 59.2917 11.5695 59.2459 11.5513C59.3909 11.4496 59.5303 11.3351 59.6753 11.2334C59.7949 11.1428 59.9766 11.0557 60.0518 10.9157C60.1333 10.7729 60.0433 10.6363 59.9744 10.5134C59.8036 10.1749 59.6137 9.84482 59.3368 9.5757C59.2981 9.53909 59.2502 9.49884 59.2114 9.46223C59.316 9.42413 59.4165 9.34192 59.4831 9.25158C59.5632 9.14005 59.6129 9.01117 59.6958 8.90606C59.7759 8.79452 59.8919 8.71318 60.0107 8.63825C60.0397 8.61791 60.0687 8.59758 60.0977 8.57724C60.1005 8.58366 60.1069 8.58088 60.1161 8.58452C60.4024 8.7194 60.6391 8.98316 60.7436 9.27411C60.865 9.60359 60.7857 9.95961 60.8597 10.3021C60.8953 10.4702 60.9656 10.6308 60.9729 10.8035C60.981 10.9607 60.9298 11.1208 60.8638 11.2645C60.7091 11.5693 60.4232 11.8168 60.1578 12.0246C60.0573 12.1068 59.9952 12.1034 59.8866 12.0285C59.8056 11.9645 59.7245 11.9005 59.6435 11.8364ZM57.692 10.4941C57.686 10.359 57.6644 10.223 57.6146 10.0918C57.562 9.95414 57.4775 9.83039 57.415 9.70472C57.1114 9.08001 58.1046 8.95931 58.5624 8.89681C58.5669 9.06315 58.6555 9.231 58.7738 9.36288C58.9717 9.59003 59.2164 9.75082 59.398 9.99274C59.486 10.1073 59.5577 10.2366 59.6294 10.3659C59.6638 10.4273 59.6983 10.4888 59.7236 10.5466C59.7461 10.598 59.8312 10.7061 59.8318 10.7594C59.8324 10.8127 59.7624 10.8433 59.7171 10.8784C59.6492 10.9311 59.5848 10.9745 59.5169 11.0272C59.3783 11.1261 59.2488 11.2286 59.1101 11.3275C58.8809 11.4967 58.6298 11.6677 58.3444 11.7084C58.0434 11.7482 57.8327 11.5955 57.7529 11.3091C57.6687 11.0475 57.7069 10.7707 57.692 10.4941ZM57.6988 8.84604C57.696 8.83962 57.696 8.83962 57.6932 8.8332C57.3862 8.4778 57.1199 7.92096 57.4606 7.50415C57.6291 7.30035 57.9209 7.2569 58.1576 7.19162C58.4071 7.12076 58.6601 7.04071 58.9152 6.9827C59.1229 6.93775 59.3419 6.91849 59.5018 7.0934C59.5785 7.18225 59.6362 7.27945 59.7165 7.35909C59.7877 7.43509 59.8751 7.49632 59.966 7.54835C60.0542 7.59395 60.1424 7.63955 60.2305 7.68516C60.3004 7.72348 60.4675 7.81105 60.4694 7.90203C60.4713 7.99302 60.3411 8.11119 60.2887 8.16471C60.2073 8.23856 60.1175 8.29315 60.0305 8.35416C59.831 8.48731 59.6287 8.61405 59.494 8.82598C59.3962 8.98355 59.2612 9.33336 59.0276 9.26719C58.8937 9.13446 58.7789 8.99337 58.7504 8.8069C58.7611 8.77929 58.7534 8.74439 58.7422 8.7187C58.7394 8.71228 58.7394 8.71228 58.7429 8.70307C58.7431 8.63414 58.6591 8.63264 58.623 8.67138C58.3044 8.68828 57.9844 8.73644 57.6988 8.84604ZM60.8624 8.93907C60.8419 8.90974 60.8307 8.88405 60.8103 8.85472C60.9265 8.70444 61.0271 8.5533 61.1553 8.41308C61.2997 8.25809 61.4526 8.12236 61.609 7.97743C61.6451 7.93869 61.6876 7.89715 61.7237 7.85841C61.8744 8.02968 61.9608 8.24441 61.9715 8.47691C61.9783 8.59636 61.9631 8.71775 61.9205 8.82822C61.8885 8.91106 61.8474 8.99027 61.8309 9.07398C61.8006 9.05664 61.7639 9.04208 61.73 9.03394C61.4429 8.91469 61.1528 8.85794 60.8624 8.93907ZM61.3571 7.90399C61.103 8.13755 60.8474 8.40236 60.6864 8.70999C60.5793 8.60381 60.4595 8.50318 60.3226 8.43296C60.4323 8.35439 60.5363 8.26298 60.6136 8.14502C60.6774 8.04826 60.7264 7.93501 60.6822 7.81662C60.638 7.69823 60.5146 7.60681 60.4089 7.5383C60.2939 7.46615 60.1747 7.41883 60.0598 7.34668C59.9356 7.27089 59.8533 7.1692 59.7653 7.05466C59.6921 6.95661 59.6026 6.87333 59.5116 6.8213C59.6027 6.54428 59.6507 6.25548 59.674 5.96219C59.6872 5.74982 59.6906 5.54943 59.5857 5.39636C59.6748 5.3574 59.7631 5.33407 59.8627 5.33643C60.0152 5.33857 60.1627 5.38118 60.296 5.46061C60.5872 5.62397 60.8012 5.90528 61.0195 6.16176C61.1435 6.30649 61.2582 6.44757 61.3822 6.5923C61.5061 6.73703 61.6456 6.88261 61.7278 7.05324C61.8675 7.39 61.5885 7.68799 61.3571 7.90399ZM55.583 8.60084C55.5111 8.54046 55.4392 8.48009 55.3772 8.40772C55.2441 8.25936 55.1746 8.08317 55.1716 7.88557C55.1685 7.68797 55.2212 7.49658 55.2979 7.32531C55.3363 7.23968 55.381 7.15126 55.4349 7.06649C55.4753 7.00291 55.5058 6.95131 55.5243 6.88966C55.6751 6.992 55.8324 7.09155 55.9932 7.1819C55.7358 7.61584 55.6343 8.11166 55.6041 8.61454C55.5977 8.61732 55.5886 8.61368 55.583 8.60084ZM55.884 8.23198C55.937 7.90272 56.0332 7.58524 56.2054 7.30329C56.2266 7.317 56.2478 7.3307 56.2725 7.3352C56.5369 7.47201 56.8318 7.62616 57.1318 7.67091C57.1019 7.77581 57.0839 7.89077 57.0879 8.00381C57.0962 8.35213 57.2741 8.67219 57.4889 8.93788C57.3319 9.0295 57.1889 9.15323 57.1369 9.32899C57.0373 9.65568 57.2965 9.90189 57.3983 10.1864C57.5084 10.4902 57.4398 10.8186 57.4779 11.131C57.3607 11.1057 57.2364 11.0988 57.1193 11.0736C56.9463 11.0421 56.7741 10.995 56.609 10.9295C56.2944 10.7993 56.0308 10.5779 55.9123 10.2549C55.7853 9.91254 55.813 9.52547 55.8174 9.17159C55.826 8.86181 55.838 8.54283 55.884 8.23198ZM57.6366 13.2268C57.4281 13.2874 57.1858 13.3399 56.9763 13.2249C56.8064 13.1309 56.6903 12.9521 56.589 12.7899C56.468 12.5826 56.3562 12.379 56.219 12.1866C56.067 11.9776 55.8958 11.777 55.7084 11.5912C55.5358 11.4218 55.3194 11.2563 55.2148 11.0343C55.0363 10.6609 55.2858 10.261 55.6442 10.1273C55.6547 10.1686 55.6652 10.2099 55.6757 10.2512C55.7828 10.6175 56.035 10.8821 56.363 11.06C56.5421 11.1577 56.7326 11.2121 56.9331 11.2545C57.0503 11.2797 57.1618 11.2921 57.2797 11.3018C57.351 11.3089 57.4315 11.3196 57.5064 11.3174C57.5581 11.5396 57.6755 11.7561 57.8786 11.8738C58.1635 12.04 58.5288 11.9567 58.8095 11.8186C58.9085 11.7677 59.0047 11.7103 59.098 11.6465C59.1261 11.7108 59.1888 11.7675 59.2459 11.8114C59.3087 11.8681 59.3686 11.9184 59.4376 11.9724C59.4313 11.9752 59.4341 11.9816 59.4277 11.9844C59.1132 12.3744 58.7579 12.7058 58.3167 12.9447C58.1024 13.0614 57.8733 13.1616 57.6366 13.2268ZM60.3377 13.285C60.0459 13.3284 59.7487 13.2901 59.4629 13.2085C59.2293 13.1423 59.0127 13.0458 58.7827 12.9704C59.1081 12.7439 59.4018 12.4624 59.6202 12.1297C59.7428 12.2368 59.8873 12.3419 60.037 12.3376C60.2369 12.3267 60.4075 12.145 60.5441 12.024C60.697 11.8883 60.847 11.7461 60.964 11.5802C61.1844 11.2696 61.2799 10.8988 61.1763 10.5233C61.1146 10.3131 61.0805 10.1138 61.0754 9.89411C61.0696 9.69009 61.0665 9.49249 61.0105 9.2951C60.9972 9.24736 60.9839 9.19962 60.9614 9.14824C61.4304 9.11143 61.9171 9.35765 62.261 9.65866C62.4491 9.82886 62.6159 10.0543 62.6316 10.3153C62.6472 10.5762 62.5377 10.846 62.4545 11.089C62.1237 12.0829 61.4574 13.1242 60.3377 13.285ZM63.3621 9.88863C63.3088 10.0267 63.2068 10.1402 63.1084 10.2444C63.0397 10.3127 62.9555 10.3802 62.8869 10.4484C62.8855 10.4108 62.8934 10.3767 62.8921 10.339C62.8871 10.0505 62.7437 9.79184 62.5542 9.58396C62.7975 9.44695 63.0303 9.26863 63.1876 9.03914C63.2936 9.29882 63.4687 9.61246 63.3621 9.88863ZM59.211 4.10649C59.5177 4.01059 59.8498 3.97249 60.1638 4.04936C60.4257 4.11081 60.6591 4.24591 60.8755 4.41141C61.3562 4.78265 61.7045 5.31894 61.9942 5.8426C62.3555 6.49557 62.637 7.19114 62.9122 7.88949C63.0371 8.20977 63.2086 8.53261 63.0186 8.86058C62.876 9.10656 62.6313 9.27482 62.4168 9.46042C62.2914 9.34696 62.1497 9.24826 62.0009 9.16797C62.0499 9.05472 62.12 8.95517 62.1507 8.83465C62.1913 8.70213 62.21 8.57154 62.2011 8.43003C62.1863 8.15343 62.0746 7.8809 61.8816 7.68222C61.8788 7.6758 61.8696 7.67216 61.8668 7.66574C61.9753 7.48056 62.0352 7.27076 61.9679 7.04768C61.9091 6.84387 61.7612 6.67902 61.6316 6.52145C61.4873 6.34739 61.3493 6.17055 61.205 5.9965C60.9634 5.70426 60.7199 5.38998 60.3792 5.21763C60.1027 5.07076 59.6509 5.00823 59.4004 5.23258C59.155 5.08742 58.833 5.04459 58.5534 5.02917C58.2456 5.01845 57.9587 5.09037 57.6557 5.10813C57.6119 5.11198 57.5716 5.10663 57.5314 5.10127C58.0042 4.65728 58.5849 4.30385 59.211 4.10649Z" fill="black"/>
</g>
<g clip-path="url(#clip1_1378_18262)">
<path d="M86.7188 29.8412C87.8072 28.2743 88.3918 26.3612 88.3802 24.4468C88.3666 22.6164 87.7926 20.8047 86.7692 19.3266C85.7057 17.8062 84.2164 16.6468 82.4875 16.0357C80.7517 15.4122 78.8191 15.3696 77.0371 15.9164C75.3232 16.4392 73.7663 17.4898 72.6258 18.9055C71.4354 20.3922 70.7174 22.2273 70.5868 24.1353C70.4623 25.9816 70.9001 27.8412 71.8273 29.4096C72.7518 30.9879 74.1615 32.2527 75.8151 32.9914C76.238 33.1786 76.6689 33.3363 77.1104 33.4546C78.8858 33.9303 80.7951 33.8295 82.5172 33.161C84.1955 32.5019 85.668 31.3442 86.7188 29.8412ZM77.216 33.0605C75.5173 32.6054 74.0023 31.6186 72.88 30.2408C71.7978 28.9054 71.1266 27.2261 70.9854 25.4882C70.8365 23.6637 71.263 21.8033 72.1926 20.215C73.0915 18.7029 74.4254 17.4869 75.9921 16.7452C77.5711 15.9961 79.3725 15.7608 81.0794 16.0703C82.8219 16.3999 84.4219 17.2616 85.6474 18.5614C86.8205 19.8261 87.6018 21.4399 87.8714 23.1595C88.1512 24.9557 87.8591 26.8521 87.0516 28.4837C86.267 30.0686 85.0176 31.3917 83.5038 32.2427C81.9778 33.101 80.2215 33.4752 78.4996 33.2989C78.0684 33.2573 77.6382 33.1737 77.216 33.0605Z" fill="black"/>
<path d="M74.9688 37.9917C75.2042 37.7274 75.3777 37.4254 75.525 37.1059C75.718 36.6929 75.9013 36.2774 76.082 35.8718C76.1689 35.6627 76.2627 35.4661 76.3496 35.2571C76.4312 35.0678 76.5442 34.8763 76.5708 34.6617C76.6284 34.6771 76.686 34.6925 76.734 34.7054C78.7397 35.2428 80.8813 35.1197 82.8279 34.3425C84.7378 33.587 86.3931 32.246 87.5744 30.5245C88.8056 28.7319 89.4668 26.5331 89.454 24.3544C89.4505 22.2943 88.8221 20.2252 87.6612 18.5308C86.4838 16.8214 84.8097 15.5069 82.875 14.8196C80.9237 14.1172 78.7545 14.0745 76.7559 14.7006C74.8035 15.3073 73.0376 16.5237 71.75 18.1428C70.3977 19.8502 69.5866 21.956 69.4379 24.1231C69.2885 26.2161 69.778 28.3431 70.8182 30.1424C71.5357 31.3801 72.5059 32.4426 73.6556 33.2575C73.5332 33.3303 73.4605 33.4481 73.3729 33.583C73.2652 33.7548 73.1601 33.9167 73.0619 34.0911C72.8683 34.4299 72.6938 34.7739 72.5455 35.1354C72.3876 35.4943 72.2681 35.8636 72.146 36.2427C72.0466 36.5751 71.9324 36.9246 72.2112 37.1894C72.4664 37.4268 72.7802 37.6376 73.0679 37.8308C73.3843 38.0318 73.7183 38.2057 74.0804 38.3133C74.445 38.411 74.7186 38.2731 74.9688 37.9917ZM69.8204 25.6512C69.6608 23.5598 70.149 21.4308 71.2091 19.6241C72.2193 17.8884 73.7387 16.4792 75.5231 15.6163C77.3075 14.7533 79.349 14.4661 81.2914 14.8177C83.2626 15.1769 85.0841 16.1718 86.4549 17.6585C87.7857 19.1027 88.6582 20.9521 88.963 22.924C89.2754 24.9824 88.9312 27.1499 88.0194 29.0175C87.1303 30.8384 85.7146 32.3599 83.9875 33.3543C82.2605 34.3488 80.271 34.7872 78.3177 34.5912C77.8264 34.544 77.3386 34.445 76.8588 34.3164C74.9298 33.7996 73.2178 32.665 71.9623 31.0931C70.7252 29.5684 69.9777 27.6363 69.8204 25.6512ZM74.0082 37.7765C73.8503 37.7131 73.6951 37.6398 73.5425 37.5567C73.2661 37.3982 73.0072 37.2126 72.7606 37.0198C72.6822 36.9671 72.52 36.8815 72.4958 36.7799C72.4775 36.7328 72.5258 36.6296 72.539 36.5803C72.5601 36.5015 72.5812 36.4227 72.6145 36.3366C72.7209 36.0166 72.8437 35.7116 72.9788 35.3993C73.1341 35.0502 73.3059 34.7161 73.4873 34.3846C73.5802 34.2299 73.6634 34.0727 73.7633 33.9305C73.8535 33.7857 73.9603 33.6559 73.9929 33.4957C74.4044 33.7644 74.836 33.9962 75.2755 34.1984C75.5982 34.3377 75.9235 34.4671 76.2445 34.5742C76.1649 34.6796 76.1087 34.8124 76.0456 34.9328C75.9719 35.0926 75.8983 35.2523 75.8124 35.4194C75.665 35.7389 75.5054 36.0658 75.3581 36.3853C75.2187 36.6753 75.0889 36.9679 74.9329 37.2429C74.8602 37.3607 74.7901 37.4686 74.7105 37.574C74.6308 37.6794 74.5065 37.8361 74.3755 37.8644C74.2759 37.8905 74.1111 37.8147 74.0082 37.7765Z" fill="black"/>
<path d="M81.9991 30.0655C83.1523 28.4104 83.159 26.1207 82.0233 24.4859C80.878 22.8485 78.8046 22.1028 76.889 22.6877C74.9856 23.2654 73.6078 25.0293 73.4604 27.0383C73.3208 29.0179 74.4498 30.9466 76.2254 31.7286C76.4452 31.8297 76.6798 31.9137 76.9197 31.978C78.8034 32.4721 80.8512 31.7009 81.9991 30.0655ZM79.0985 31.6009C79.0899 31.5563 79.0813 31.5118 79.0822 31.4698C79.059 31.3263 79.0331 31.1926 79.0098 31.0491C78.9563 30.7497 78.9124 30.4528 78.8808 30.1486C78.8395 29.8419 78.8053 29.5476 78.7518 29.2482C78.7285 29.1046 78.7122 28.9736 78.6889 28.8301C78.67 28.7088 78.6563 28.5679 78.6033 28.4586C78.6837 28.4274 78.7667 28.3863 78.8428 28.3327C79.3072 28.7106 79.8137 29.047 80.2957 29.3979C80.5642 29.5859 80.823 29.7715 81.0915 29.9596C81.1865 30.0273 81.2954 30.1198 81.4149 30.1729C80.8023 30.8852 79.9894 31.3855 79.0985 31.6009ZM78.5247 26.8325C79.2157 27.0177 78.8831 28.2591 78.1842 28.1035C77.5107 27.8913 77.8338 26.6474 78.5247 26.8325ZM82.0253 29.2383C81.9166 29.452 81.7983 29.6632 81.6539 29.8568C81.5214 29.7369 81.3619 29.6413 81.2434 29.5462C81.0037 29.3658 80.7544 29.1829 80.5148 29.0025C80.0589 28.6692 79.611 28.3063 79.1281 27.9973C79.2236 27.8329 79.286 27.6384 79.2977 27.4409C79.351 27.4341 79.4139 27.4298 79.4794 27.4156C79.6418 27.3853 79.7946 27.3523 79.9571 27.3219C80.2505 27.2632 80.5466 27.1947 80.8496 27.1387C81.143 27.08 81.4391 27.0115 81.7352 26.943C81.9535 26.8959 82.2582 26.872 82.4428 26.7208C82.5466 27.5617 82.4129 28.4446 82.0253 29.2383ZM82.4032 26.4462C82.1851 26.3772 81.9003 26.4804 81.6942 26.5202C81.3816 26.5737 81.0785 26.6298 80.7633 26.6931C80.4698 26.7518 80.1668 26.8079 79.8734 26.8665C79.7205 26.8995 79.5799 26.9252 79.4271 26.9581C79.3616 26.9723 79.2865 26.9838 79.2306 27.0005C79.2054 26.941 79.1776 26.8913 79.1524 26.8317C79.1246 26.782 79.0845 26.7396 79.0444 26.6972C79.4183 26.1849 79.7948 25.6628 80.1163 25.1153C80.2696 24.8502 80.4134 24.5825 80.5998 24.3473C80.7066 24.2175 80.8762 24.0835 80.9909 23.9241C81.0998 24.0167 81.1965 24.1165 81.2932 24.2163C81.875 24.8474 82.2531 25.6245 82.4032 26.4462ZM80.7016 23.6988C80.5591 23.8084 80.4374 23.9553 80.3359 24.0654C80.1303 24.2954 79.97 24.5481 79.8071 24.8107C79.4514 25.3701 79.0505 25.9068 78.6591 26.4461C78.6303 26.4384 78.6015 26.4307 78.5728 26.423C78.4912 25.7676 78.3495 25.1065 78.1929 24.4627C78.1159 24.1358 78.0293 23.8064 77.9401 23.4868C77.8767 23.3009 77.8283 23.0978 77.7431 22.9166C78.7813 22.8041 79.8492 23.0797 80.7016 23.6988ZM76.3849 23.3024C76.7169 23.1379 77.0742 23.033 77.4209 22.9675C77.4396 23.2049 77.4993 23.4426 77.5494 23.6778C77.6099 23.9897 77.6921 24.2968 77.7526 24.6087C77.8857 25.2252 77.9847 25.8536 78.1179 26.47C77.9816 26.518 77.8688 26.5934 77.7603 26.691C77.2112 26.3221 76.6349 25.9777 76.0709 25.6259C75.7971 25.4575 75.5138 25.2865 75.2427 25.1083C75.1119 25.0205 74.9812 24.9326 74.8531 24.8349C74.8007 24.7998 74.7511 24.7548 74.7014 24.7098C75.1374 24.1192 75.7111 23.6287 76.3849 23.3024ZM74.5035 25.0264C74.6498 25.1712 74.8425 25.2967 74.9898 25.3996C75.2556 25.5975 75.5363 25.7783 75.8196 25.9493C76.3906 26.3135 76.952 26.6751 77.5379 27.0222C77.4844 27.1451 77.4501 27.2732 77.4349 27.4064C77.4323 27.4162 77.4297 27.4261 77.4297 27.4261C77.1084 27.4351 76.7931 27.4984 76.4709 27.5494C76.1487 27.6003 75.8265 27.6512 75.5016 27.712C75.1794 27.763 74.8545 27.8237 74.5323 27.8747C74.3603 27.9025 74.1882 27.9303 74.0205 27.9804C73.9768 27.9898 73.9428 28.0018 73.8991 28.0112C73.8845 27.9123 73.8698 27.8133 73.8648 27.7169C73.7804 26.7651 74.0216 25.8265 74.5035 25.0264ZM73.9603 28.3972C74.1025 28.4037 74.2746 28.3758 74.3811 28.3622C74.7417 28.3215 75.0954 28.2684 75.449 28.2154C75.7904 28.1696 76.1441 28.1165 76.4881 28.0608C76.8104 28.0099 77.1465 27.9838 77.4723 27.881C77.5201 28.01 77.5801 28.1317 77.6671 28.2289C77.5858 28.3022 77.5184 28.4002 77.4466 28.4761C77.3451 28.5861 77.2532 28.6988 77.1587 28.8213C76.96 29.0637 76.7613 29.3062 76.5627 29.5486C76.364 29.791 76.1749 30.0361 75.9858 30.2811C75.8562 30.4575 75.6585 30.658 75.5717 30.867C74.7768 30.2633 74.1982 29.3902 73.9603 28.3972ZM77.0157 31.5813C76.6127 31.4733 76.2281 31.2963 75.8855 31.0778C76.0577 30.9339 76.2032 30.6983 76.337 30.5441C76.5235 30.309 76.7169 30.0862 76.9129 29.8537C77.109 29.6211 77.2954 29.3859 77.4914 29.1533C77.5833 29.0407 77.6875 28.9207 77.789 28.8107C77.8782 28.7079 77.9989 28.6029 78.0812 28.4877C78.0908 28.4903 78.0908 28.4903 78.1004 28.4928C78.1196 28.498 78.1292 28.5006 78.1484 28.5057C78.1323 28.6809 78.2165 28.9041 78.2328 29.0352C78.2906 29.3569 78.3388 29.6761 78.3774 29.9926C78.4256 30.3118 78.4738 30.6309 78.5343 30.9428C78.5844 31.178 78.6117 31.4599 78.7151 31.6882C78.3833 31.7366 78.0306 31.7477 77.6885 31.7193C77.4502 31.6872 77.2365 31.6405 77.0157 31.5813Z" fill="black"/>
</g>
<defs>
<clipPath id="clip0_1378_18262">
<rect width="71" height="63" fill="white"/>
</clipPath>
<clipPath id="clip1_1378_18262">
<rect width="25" height="20" fill="white" transform="translate(91.7889 17.1764) rotate(105)"/>
</clipPath>
</defs>
</svg>
