<svg width="35" height="31" viewBox="0 0 35 31" fill="none" xmlns="http://www.w3.org/2000/svg">
<g clip-path="url(#clip0_94_20590)">
<path fill-rule="evenodd" clip-rule="evenodd" d="M18.8969 1.82275C20.4086 1.82275 21.7157 2.69952 22.3371 3.97232C22.8969 3.65132 23.544 3.46927 24.2291 3.46927C26.54 3.46927 28.3181 5.51163 27.9998 7.80066L26.8984 15.7216C28.2373 14.6871 30.1487 14.6459 31.5439 15.7209C33.2932 17.0689 33.5307 19.6184 32.0605 21.2663L24.6633 29.5568C24.3828 29.8714 24.0124 30.0694 23.619 30.1387C22.7702 30.6775 21.7632 30.9894 20.689 30.9894H16.283C10.7458 30.9894 6.25697 26.5007 6.25697 20.9634V16.9158L5.66098 10.1804C5.45928 7.90096 7.2553 5.93901 9.54361 5.93901C9.90836 5.93901 10.263 5.9895 10.6001 6.08439C11.1032 4.57317 12.5289 3.46927 14.2275 3.46927C14.7071 3.46927 15.1672 3.55793 15.5916 3.72023C16.2555 2.58519 17.487 1.82275 18.8969 1.82275Z" fill="black"/>
<path fill-rule="evenodd" clip-rule="evenodd" d="M31.1717 9.11432C31.1717 9.84945 30.839 10.6685 30.0087 11.3564L32.3347 14.164C33.9349 12.8382 34.8175 11.0182 34.8175 9.11432C34.8175 7.21038 33.9349 5.39038 32.3347 4.0647L30.0087 6.87226C30.839 7.56012 31.1717 8.37919 31.1717 9.11432ZM3.82796 10.0258C3.82796 10.7609 4.16057 11.58 4.99089 12.2678L2.66503 15.0754C1.0648 13.7496 0.182129 11.9297 0.182129 10.0258C0.182129 8.12184 1.0648 6.30184 2.66503 4.97616L4.99089 7.78372C4.16057 8.47158 3.82796 9.29065 3.82796 10.0258Z" fill="black"/>
</g>
<defs>
<clipPath id="clip0_94_20590">
<rect width="35" height="30.625" fill="white"/>
</clipPath>
</defs>
</svg>
