<svg width="1376" height="245" viewBox="0 0 1376 245" fill="none" xmlns="http://www.w3.org/2000/svg">
<path d="M322.571 20.3584C322.571 20.3136 322.571 20.2688 322.571 20.2688C322.526 16.816 320.419 13.7219 317.19 12.5112C313.961 11.3005 310.105 12.287 307.907 14.9775C305.71 17.668 305.351 21.5243 307.145 24.4839C308.939 27.4883 312.436 29.0129 315.844 28.3851C319.701 27.6676 322.481 24.2148 322.571 20.3584ZM309.208 24.3493C307.504 22.2418 307.279 19.2374 308.67 16.9057C310.06 14.6187 312.795 13.3183 315.441 13.8564C318.535 14.4394 320.732 17.1299 320.777 20.2688C320.732 22.9593 319.073 25.4704 316.517 26.3672C313.916 27.3089 310.957 26.4569 309.208 24.3493Z" fill="white" fill-opacity="0.5"/>
<path d="M421.709 131.978C418.481 130.767 414.624 131.754 412.427 134.444C410.229 137.135 409.871 140.991 411.664 143.951C413.458 146.955 416.956 148.48 420.364 147.852C424.221 147.179 427.001 143.682 427.091 139.825C427.091 139.78 427.091 139.736 427.091 139.736C427.091 136.283 424.983 133.189 421.709 131.978ZM421.082 145.879C418.481 146.821 415.521 146.013 413.772 143.861C412.068 141.753 411.844 138.749 413.234 136.417C414.624 134.13 417.36 132.83 420.005 133.368C423.099 133.951 425.297 136.641 425.342 139.78C425.297 142.426 423.638 144.937 421.082 145.879Z" fill="white" fill-opacity="0.5"/>
<path d="M1276.07 45.5145C1279.93 44.8419 1282.71 41.3442 1282.8 37.4878C1282.8 37.443 1282.8 37.3982 1282.8 37.3982C1282.76 33.9454 1280.65 30.8513 1277.42 29.6406C1274.19 28.4298 1270.33 29.4164 1268.14 32.1069C1265.94 34.7973 1265.58 38.6537 1267.37 41.6133C1269.21 44.5728 1272.67 46.0974 1276.07 45.5145ZM1268.94 34.035C1270.33 31.7481 1273.07 30.4477 1275.72 30.9858C1278.81 31.5688 1281.01 34.2592 1281.05 37.3982C1281.01 40.0886 1279.35 42.5998 1276.79 43.4966C1274.19 44.4383 1271.23 43.6311 1269.48 41.4787C1267.78 39.3712 1267.55 36.322 1268.94 34.035Z" fill="white" fill-opacity="0.5"/>
<path d="M613.304 116.468C610.075 115.257 606.219 116.244 604.021 118.934C601.824 121.625 601.465 125.481 603.259 128.441C605.053 131.445 608.551 132.97 611.959 132.342C615.815 131.669 618.596 128.172 618.685 124.315C618.685 124.27 618.685 124.226 618.685 124.226C618.685 120.773 616.578 117.679 613.304 116.468ZM612.676 130.324C610.075 131.266 607.116 130.459 605.367 128.306C603.663 126.199 603.439 123.194 604.829 120.862C606.219 118.576 608.954 117.275 611.6 117.813C614.694 118.396 616.892 121.087 616.936 124.226C616.892 126.916 615.232 129.427 612.676 130.324Z" fill="white" fill-opacity="0.5"/>
<path d="M565.862 194.931C562.633 193.72 558.776 194.706 556.579 197.397C554.382 200.087 554.023 203.944 555.817 206.903C557.61 209.908 561.108 211.432 564.516 210.805C568.373 210.132 571.153 206.634 571.243 202.778C571.243 202.733 571.243 202.688 571.243 202.688C571.198 199.235 569.09 196.141 565.862 194.931ZM565.189 208.787C562.588 209.728 559.628 208.921 557.88 206.769C556.176 204.661 555.951 201.657 557.341 199.325C558.732 197.038 561.467 195.738 564.113 196.276C567.207 196.859 569.404 199.549 569.449 202.688C569.449 205.379 567.79 207.89 565.189 208.787Z" fill="white" fill-opacity="0.5"/>
<path d="M1283.79 228.647C1280.56 227.437 1276.7 228.423 1274.5 231.114C1272.31 233.804 1271.95 237.661 1273.74 240.62C1275.54 243.624 1279.03 245.149 1282.44 244.521C1286.3 243.849 1289.08 240.351 1289.17 236.495C1289.17 236.45 1289.17 236.405 1289.17 236.405C1289.12 232.952 1287.02 229.858 1283.79 228.647ZM1283.11 242.503C1280.51 243.445 1277.55 242.638 1275.8 240.486C1274.1 238.378 1273.88 235.374 1275.27 233.042C1276.66 230.755 1279.39 229.455 1282.04 229.993C1285.13 230.576 1287.33 233.266 1287.37 236.405C1287.37 239.095 1285.72 241.607 1283.11 242.503Z" fill="white" fill-opacity="0.5"/>
<path d="M877.417 94.7055C874.189 93.4948 870.332 94.4813 868.135 97.1718C865.937 99.8623 865.579 103.719 867.372 106.678C869.166 109.683 872.664 111.207 876.072 110.579C879.929 109.907 882.709 106.409 882.799 102.553C882.799 102.508 882.799 102.463 882.799 102.463C882.799 99.0103 880.646 95.9162 877.417 94.7055ZM876.79 108.606C874.189 109.548 871.229 108.741 869.48 106.589C867.776 104.481 867.552 101.477 868.942 99.1448C870.332 96.8579 873.068 95.5575 875.713 96.0956C878.807 96.6786 881.005 99.369 881.05 102.508C881.005 105.154 879.346 107.665 876.79 108.606Z" fill="white" fill-opacity="0.5"/>
<path d="M1368.84 177.385C1372.7 176.668 1375.48 173.215 1375.57 169.358C1375.57 169.314 1375.57 169.269 1375.57 169.269C1375.53 165.816 1373.42 162.722 1370.19 161.511C1366.96 160.3 1363.1 161.287 1360.91 163.977C1358.71 166.668 1358.35 170.524 1360.14 173.484C1361.98 176.443 1365.44 177.968 1368.84 177.385ZM1362.25 173.349C1360.55 171.242 1360.32 168.237 1361.71 165.906C1363.1 163.619 1365.84 162.318 1368.49 162.856C1371.58 163.439 1373.78 166.13 1373.82 169.269C1373.78 171.959 1372.12 174.47 1369.56 175.367C1366.92 176.264 1364 175.457 1362.25 173.349Z" fill="white" fill-opacity="0.5"/>
<path d="M18.1672 173.66C15.3869 173.66 12.6515 173.66 9.87121 173.66C9.87121 171.777 9.87121 169.893 9.87121 168.01C9.87121 167.293 9.87121 166.575 9.87121 165.858C9.87121 164.737 8.07748 164.692 8.07748 165.858C8.07748 168.458 8.07748 171.104 8.07748 173.705C6.37343 173.705 4.71424 173.705 3.01019 173.705C2.2927 173.705 1.5752 173.705 0.85771 173.705C-0.263372 173.705 -0.308215 175.499 0.85771 175.499C3.27925 175.499 5.70079 175.499 8.12232 175.499C8.12232 177.337 8.12232 179.176 8.12232 181.014C8.12232 181.732 8.12232 182.449 8.12232 183.167C8.12232 184.288 9.91606 184.332 9.91606 183.167C9.91606 180.611 9.91606 178.055 9.91606 175.454C11.934 175.454 13.9968 175.454 16.0147 175.454C16.7322 175.454 17.4497 175.454 18.1672 175.454C19.2883 175.409 19.2883 173.66 18.1672 173.66Z" fill="white" fill-opacity="0.5"/>
<path d="M1195.17 169.66C1192.39 169.66 1189.65 169.66 1186.87 169.66C1186.87 167.777 1186.87 165.893 1186.87 164.01C1186.87 163.293 1186.87 162.575 1186.87 161.858C1186.87 160.737 1185.08 160.692 1185.08 161.858C1185.08 164.458 1185.08 167.104 1185.08 169.705C1183.37 169.705 1181.71 169.705 1180.01 169.705C1179.29 169.705 1178.58 169.705 1177.86 169.705C1176.74 169.705 1176.69 171.499 1177.86 171.499C1180.28 171.499 1182.7 171.499 1185.12 171.499C1185.12 173.337 1185.12 175.176 1185.12 177.014C1185.12 177.732 1185.12 178.449 1185.12 179.167C1185.12 180.288 1186.92 180.332 1186.92 179.167C1186.92 176.611 1186.92 174.055 1186.92 171.454C1188.93 171.454 1191 171.454 1193.01 171.454C1193.73 171.454 1194.45 171.454 1195.17 171.454C1196.29 171.454 1196.29 169.66 1195.17 169.66Z" fill="white" fill-opacity="0.5"/>
<path d="M114.916 18.1665C114.916 15.6105 114.916 13.0546 114.916 10.4538C116.934 10.4538 118.997 10.4538 121.015 10.4538C121.732 10.4538 122.45 10.4538 123.167 10.4538C124.288 10.4538 124.333 8.66012 123.167 8.66012C120.387 8.66012 117.651 8.66012 114.871 8.66012C114.871 6.77677 114.871 4.89341 114.871 3.01007C114.871 2.2926 114.871 1.57514 114.871 0.857677C114.871 -0.263362 113.077 -0.308203 113.077 0.857677C113.077 3.45849 113.077 6.10414 113.077 8.70495C111.373 8.70495 109.714 8.70495 108.01 8.70495C107.293 8.70495 106.575 8.70495 105.858 8.70495C104.737 8.70495 104.692 10.4986 105.858 10.4986C108.279 10.4986 110.701 10.4986 113.122 10.4986C113.122 12.3371 113.122 14.1756 113.122 16.0141C113.122 16.7316 113.122 17.449 113.122 18.1665C113.167 19.2875 114.916 19.2875 114.916 18.1665Z" fill="white" fill-opacity="0.5"/>
<path d="M768.493 147.215C765.713 147.215 762.977 147.215 760.197 147.215C760.197 145.332 760.197 143.448 760.197 141.565C760.197 140.848 760.197 140.13 760.197 139.413C760.197 138.292 758.403 138.247 758.403 139.413C758.403 142.013 758.403 144.659 758.403 147.26C756.699 147.26 755.04 147.26 753.336 147.26C752.618 147.26 751.901 147.26 751.183 147.26C750.062 147.26 750.017 149.054 751.183 149.054C753.605 149.054 756.026 149.054 758.448 149.054C758.448 150.892 758.448 152.731 758.448 154.569C758.448 155.287 758.448 156.004 758.448 156.721C758.448 157.843 760.242 157.887 760.242 156.721C760.242 154.165 760.242 151.61 760.242 149.009C762.26 149.009 764.322 149.009 766.34 149.009C767.058 149.009 767.775 149.009 768.493 149.009C769.659 149.009 769.659 147.215 768.493 147.215Z" fill="white" fill-opacity="0.5"/>
<path d="M1084.67 12.3972C1081.89 12.3972 1079.15 12.3972 1076.37 12.3972C1076.37 10.5138 1076.37 8.63047 1076.37 6.74713C1076.37 6.02966 1076.37 5.3122 1076.37 4.59474C1076.37 3.4737 1074.58 3.42886 1074.58 4.59474C1074.58 7.19555 1074.58 9.8412 1074.58 12.442C1072.88 12.442 1071.22 12.442 1069.51 12.442C1068.8 12.442 1068.08 12.442 1067.36 12.442C1066.24 12.442 1066.19 14.2357 1067.36 14.2357C1069.78 14.2357 1072.2 14.2357 1074.63 14.2357C1074.63 16.0742 1074.63 17.9127 1074.63 19.7512C1074.63 20.4686 1074.63 21.1861 1074.63 21.9036C1074.63 23.0246 1076.42 23.0695 1076.42 21.9036C1076.42 19.3476 1076.42 16.7916 1076.42 14.1908C1078.44 14.1908 1080.5 14.1908 1082.52 14.1908C1083.24 14.1908 1083.95 14.1908 1084.67 14.1908C1085.84 14.1908 1085.84 12.3972 1084.67 12.3972Z" fill="white" fill-opacity="0.5"/>
<path d="M668.636 18.7839C665.856 18.7839 663.121 18.7839 660.34 18.7839C660.34 16.9006 660.34 15.0172 660.34 13.1338C660.34 12.4164 660.34 11.6989 660.34 10.9815C660.34 9.86042 658.547 9.81558 658.547 10.9815C658.547 13.5823 658.547 16.2279 658.547 18.8287C656.843 18.8287 655.183 18.8287 653.479 18.8287C652.762 18.8287 652.044 18.8287 651.327 18.8287C650.206 18.8287 650.161 20.6224 651.327 20.6224C653.748 20.6224 656.17 20.6224 658.592 20.6224C658.592 22.4609 658.592 24.2994 658.592 26.1379C658.592 26.8554 658.592 27.5728 658.592 28.2903C658.592 29.4113 660.385 29.4562 660.385 28.2903C660.385 25.7343 660.385 23.1784 660.385 20.5776C662.403 20.5776 664.466 20.5776 666.484 20.5776C667.201 20.5776 667.919 20.5776 668.636 20.5776C669.802 20.5776 669.802 18.7839 668.636 18.7839Z" fill="white" fill-opacity="0.5"/>
<path d="M508.062 77.1745C505.281 77.1745 502.546 77.1745 499.766 77.1745C499.766 75.2912 499.766 73.4078 499.766 71.5245C499.766 70.807 499.766 70.0895 499.766 69.3721C499.766 68.251 497.972 68.2062 497.972 69.3721C497.972 71.9729 497.972 74.6185 497.972 77.2194C496.268 77.2194 494.609 77.2194 492.905 77.2194C492.187 77.2194 491.47 77.2194 490.752 77.2194C489.631 77.2194 489.586 79.013 490.752 79.013C493.174 79.013 495.595 79.013 498.017 79.013C498.017 80.8515 498.017 82.69 498.017 84.5285C498.017 85.246 498.017 85.9635 498.017 86.6809C498.017 87.802 499.811 87.8468 499.811 86.6809C499.811 84.125 499.811 81.569 499.811 78.9682C501.829 78.9682 503.891 78.9682 505.909 78.9682C506.627 78.9682 507.344 78.9682 508.062 78.9682C509.228 78.9682 509.228 77.1745 508.062 77.1745Z" fill="white" fill-opacity="0.5"/>
<path d="M915.163 21.1614C915.163 21.1122 915.163 21.0631 915.163 21.0631C915.114 17.2786 912.804 13.8873 909.265 12.5603C905.726 11.2333 901.499 12.3145 899.09 15.2635C896.682 18.2124 896.289 22.4393 898.255 25.6831C900.221 28.9761 904.055 30.6472 907.79 29.9591C912.017 29.1727 915.065 25.3882 915.163 21.1614ZM908.527 27.7474C905.677 28.7795 902.433 27.8948 900.516 25.5357C898.648 23.2257 898.402 19.9327 899.926 17.3769C901.45 14.8703 904.448 13.445 907.348 14.0348C910.739 14.6737 913.148 17.6227 913.197 21.0631C913.197 24.0121 911.378 26.7153 908.527 27.7474Z" fill="white" fill-opacity="0.5"/>
</svg>
