<svg width="31" height="35" viewBox="0 0 31 35" fill="none" xmlns="http://www.w3.org/2000/svg">
<g clip-path="url(#clip0_94_20588)">
<path d="M20.3146 16.625C20.2358 17.5481 19.4658 18.2685 18.5296 18.2685C17.5408 18.2685 16.7373 17.4665 16.7373 16.4763C16.7373 15.486 17.5394 14.684 18.5281 14.684C19.5242 14.7263 20.3146 15.5444 20.3146 16.5462C20.3146 16.574 20.3146 16.6002 20.3131 16.6279V16.6235L20.3146 16.625ZM12.1421 14.6854C11.1387 14.7744 10.3585 15.61 10.3585 16.6279C10.3585 17.6458 11.1387 18.4815 12.1348 18.5704H12.1421C13.1381 18.5281 13.9285 17.71 13.9285 16.7081C13.9285 16.6804 13.9285 16.6542 13.9271 16.6265V16.6308C13.9285 16.6017 13.93 16.5681 13.93 16.5331C13.93 15.5342 13.141 14.7204 12.1523 14.6825H12.1494L12.1421 14.6854ZM30.625 3.605V35C26.2165 31.1033 27.6252 32.394 22.505 27.6325L23.4325 30.87H3.58604C1.60416 30.8642 -0.00146484 29.2571 -0.00146484 27.2738C-0.00146484 27.2708 -0.00146484 27.2679 -0.00146484 27.265V3.605C-0.00146484 3.60208 -0.00146484 3.59917 -0.00146484 3.59625C-0.00146484 1.61292 1.60416 0.00583333 3.58458 0H27.036C29.0179 0.00583333 30.6235 1.61292 30.6235 3.59625V3.605H30.625ZM25.6375 20.195C25.5762 16.4631 24.6517 12.9617 23.0562 9.86125L23.1175 9.9925C21.77 8.92646 20.0725 8.24979 18.2204 8.15646L18.2 8.155L17.955 8.435C19.6321 8.89 21.0904 9.65563 22.3329 10.6735L22.3125 10.6575C20.2723 9.53604 17.8412 8.87542 15.2556 8.87542C13.0783 8.87542 11.0104 9.34354 9.14666 10.185L9.23999 10.1471C8.59249 10.4446 8.20749 10.6575 8.20749 10.6575C9.49666 9.60458 11.0396 8.81125 12.7283 8.3825L12.81 8.365L12.635 8.155C10.7625 8.24979 9.06499 8.92646 7.69999 10.0056L7.71749 9.9925C6.18333 12.9617 5.25874 16.4631 5.19749 20.1746V20.195C6.3627 21.8152 8.24249 22.8579 10.3644 22.8579C10.4242 22.8579 10.484 22.8565 10.5437 22.855H10.535C10.535 22.855 11.1825 22.0675 11.7075 21.4025C10.4446 21.0773 9.38583 20.3423 8.6552 19.3521L8.64499 19.3375C8.90166 19.5183 9.32749 19.7517 9.35958 19.775C11.1227 20.755 13.2271 21.331 15.4671 21.331C17.204 21.331 18.8592 20.984 20.3671 20.3569L20.2825 20.3875C21.0525 20.0929 21.7146 19.7458 22.33 19.3331L22.2935 19.3565C21.5265 20.3817 20.4312 21.124 19.1669 21.4317L19.129 21.439C19.654 22.104 20.284 22.8565 20.284 22.8565C20.3321 22.8579 20.389 22.8579 20.4458 22.8579C22.5765 22.8579 24.4635 21.8167 25.6258 20.214L25.639 20.195H25.6375Z" fill="black"/>
</g>
<defs>
<clipPath id="clip0_94_20588">
<rect width="30.625" height="35" fill="white"/>
</clipPath>
</defs>
</svg>
