<svg width="20" height="19" viewBox="0 0 20 19" fill="none" xmlns="http://www.w3.org/2000/svg">
<path d="M10 0C9.05 0 8.415 0.682 8.063 1.282C7.702 1.901 7.5 2.656 7.5 3.25C7.5 3.744 7.563 4.424 7.932 4.996C8.342 5.63 9.038 6 10 6C10.962 6 11.658 5.63 12.068 4.996C12.438 4.424 12.5 3.744 12.5 3.25C12.5 2.656 12.298 1.9 11.937 1.282C11.586 0.682 10.95 0 10 0ZM9 3.25C9 2.94 9.121 2.445 9.358 2.04C9.606 1.616 9.845 1.5 10 1.5C10.155 1.5 10.394 1.616 10.642 2.04C10.879 2.445 11 2.94 11 3.25C11 3.66 10.938 3.98 10.807 4.182C10.717 4.322 10.537 4.5 10 4.5C9.462 4.5 9.283 4.322 9.193 4.182C9.063 3.98 9 3.66 9 3.25ZM18.5 9.25V17.5H19.25C19.4489 17.5 19.6397 17.579 19.7803 17.7197C19.921 17.8603 20 18.0511 20 18.25C20 18.4489 19.921 18.6397 19.7803 18.7803C19.6397 18.921 19.4489 19 19.25 19H0.75C0.551088 19 0.360322 18.921 0.21967 18.7803C0.0790175 18.6397 0 18.4489 0 18.25C0 18.0511 0.0790175 17.8603 0.21967 17.7197C0.360322 17.579 0.551088 17.5 0.75 17.5H1.5V9.25C1.5 8.65326 1.73705 8.08097 2.15901 7.65901C2.58097 7.23705 3.15326 7 3.75 7H16.25C16.8467 7 17.419 7.23705 17.841 7.65901C18.2629 8.08097 18.5 8.65326 18.5 9.25ZM3 9.25V11.341L5.447 12.921C5.64907 13.0515 5.88448 13.1208 6.125 13.1208C6.36552 13.1208 6.60093 13.0515 6.803 12.921L8.55 11.793C8.98071 11.5153 9.48046 11.3634 9.99287 11.3546C10.5053 11.3458 11.01 11.4803 11.45 11.743L13.459 12.942C13.6662 13.0657 13.9047 13.1269 14.1459 13.118C14.387 13.1091 14.6205 13.0306 14.818 12.892L17 11.36V9.25C17 9.05109 16.921 8.86032 16.7803 8.71967C16.6397 8.57902 16.4489 8.5 16.25 8.5H3.75C3.55109 8.5 3.36032 8.57902 3.21967 8.71967C3.07902 8.86032 3 9.05109 3 9.25ZM15.68 14.12C15.2454 14.425 14.7318 14.5977 14.2013 14.6172C13.6707 14.6367 13.1458 14.5023 12.69 14.23L10.682 13.03C10.4819 12.9105 10.2523 12.8493 10.0192 12.8533C9.78614 12.8574 9.55884 12.9266 9.363 13.053L7.616 14.181C7.17158 14.4678 6.6539 14.6203 6.125 14.6203C5.5961 14.6203 5.07842 14.4678 4.634 14.181L3 13.126V17.5H17V13.193L15.68 14.119V14.12Z" fill="#F3AE09"/>
</svg>
