<svg width="66" height="88" viewBox="0 0 66 88" fill="none" xmlns="http://www.w3.org/2000/svg">
<g clip-path="url(#clip0_195_4955)">
<mask id="mask0_195_4955" style="mask-type:luminance" maskUnits="userSpaceOnUse" x="-1" y="0" width="50" height="88">
<path d="M-0.0169487 0H48.1904V88H-0.0169487V0Z" fill="white"/>
</mask>
<g mask="url(#mask0_195_4955)">
<path d="M2.48387 37.3251C2.95699 35.3962 4.78188 34.1103 6.20123 32.909C9.8679 29.8127 13.5177 26.7164 17.1843 23.637C18.3671 22.6387 19.533 21.6404 20.7327 20.676C21.8479 16.8013 23.0138 12.9605 24.1628 9.10283C24.7542 7.10629 25.3456 5.12667 25.937 3.13013C26.0722 2.65638 26.2243 2.1657 26.3594 1.69195C26.4777 1.31971 26.6129 0.964394 26.8326 0.659837C27.4071 -0.118475 28.3026 -0.0677153 29.1475 0.186082C33.0169 1.35355 36.8356 2.70714 40.6037 4.17916C41.3303 4.4668 42.0737 4.78827 42.5468 5.44815C43.0707 6.19262 42.9524 7.10629 42.8172 7.95228C42.4793 9.9319 42.0737 11.8777 41.5837 13.8235C41.2627 15.1094 40.9247 16.3953 40.553 17.6812C40.7051 17.7319 40.8571 17.7827 41.0092 17.8842C41.2627 18.0365 41.5161 18.1888 41.7527 18.358C42.2427 18.6964 42.7158 19.0178 43.2058 19.3732C44.1521 20.05 45.1152 20.7267 46.0614 21.4374C46.5684 21.8096 46.6866 22.3172 46.4839 22.9094C46.298 23.4678 46.0614 24.0092 45.8418 24.5506C45.4194 25.6504 44.98 26.7502 44.5576 27.8669C44.321 28.476 44.0845 29.0682 43.8479 29.6773C43.7296 29.9819 43.5945 30.3034 43.4762 30.6079C43.4086 30.7602 43.3579 30.9125 43.2903 31.0648C43.2565 31.1324 43.2396 31.2001 43.2058 31.2678C43.2058 31.2847 43.1889 31.2847 43.1889 31.3016C43.2565 31.4201 43.2734 31.5385 43.2396 31.6739C44.6252 33.2305 46.0108 34.7702 47.3794 36.3268C48.1567 37.2067 48.9339 38.1034 49.7112 38.9832C49.9985 39.3216 49.5253 39.8123 49.2212 39.4739C46.0276 36.1069 42.9017 32.6891 39.7757 29.2713C39.0661 28.4929 38.3564 27.7146 37.6467 26.9363C37.5622 26.9025 37.4777 26.8348 37.4608 26.7333C36.6667 25.8535 35.8725 24.9905 35.0783 24.1107C33.5238 22.4187 32.02 20.676 30.4316 19.0178C29.7896 18.3411 29.063 17.8335 28.0998 17.8165C27.8971 17.8165 27.6943 17.8335 27.5084 17.8504C27.4409 18.5272 27.3395 19.187 27.255 19.8469C27.1367 20.6929 27.0353 21.5389 26.9508 22.3849C26.7819 24.0938 26.6974 25.8027 26.7143 27.5285C26.7143 30.9294 27.0353 34.3134 27.6774 37.6466C27.7957 38.2895 27.9478 38.9325 28.0829 39.5585C28.1843 39.5416 28.2857 39.5247 28.404 39.5416C29.0123 39.6093 29.3333 40.0661 29.4516 40.5906C29.5361 40.4045 29.6037 40.2015 29.6713 40.0153C29.7727 39.7615 29.8571 39.4908 29.9585 39.237C29.4854 38.4249 29.0461 37.562 28.9109 36.6145C28.8264 35.9884 28.8264 34.2288 29.8909 34.5164C30.7189 34.7364 30.871 35.7515 30.8372 36.4622C30.8372 36.5299 30.8372 36.5975 30.8372 36.6483C30.8541 36.5975 30.871 36.5468 30.8879 36.496C31.0399 36.0392 31.1751 35.5993 31.3272 35.1424C31.3103 35.1255 31.2934 35.0917 31.2934 35.0748C30.8541 33.975 30.6006 32.6552 31.0737 31.5216C31.2934 30.9802 31.6989 30.3541 32.341 30.3034C32.9662 30.2526 33.3379 30.794 33.3379 31.3693C33.3548 31.9784 33.0507 32.6045 32.8648 33.1797C32.6452 33.8734 32.4086 34.5672 32.1889 35.2778C31.8003 36.4622 31.4117 37.6296 30.9892 38.7971C31.4962 38.391 32.1382 38.1034 32.6283 38.6787C33.2535 39.4062 32.7465 40.2691 32.1045 40.7598C31.4286 41.2674 30.6513 41.5889 29.8233 41.7412C29.6713 42.0965 29.5023 42.4518 29.3333 42.8071C29.2826 42.9086 29.2319 43.0102 29.1813 43.1117C29.3333 43.0609 29.4854 42.9932 29.6375 42.9594C33.2535 41.8088 37.5284 42.6718 40.1813 45.4466C41.3809 46.6987 42.1582 48.3061 42.3272 50.0488C42.4962 51.7915 41.9892 53.5512 40.9754 54.9725C40.0461 56.2922 38.7788 57.2905 37.3594 57.9504C37.4777 57.9842 37.596 58.035 37.6974 58.0688C38.1198 58.2042 38.5422 58.3057 38.9647 58.441C39.8095 58.6948 40.6544 58.9317 41.4992 59.1178C43.2227 59.5239 44.9462 59.8115 46.7035 60.0315C47.1935 60.0823 47.6836 60.133 48.1736 60.2007C48.4101 60.2345 48.6636 60.2345 48.9002 60.3022C49.0522 60.353 49.255 60.5222 49.1874 60.7083C49.0353 61.0974 48.5284 61.0128 48.1736 61.0128C47.7343 61.0128 47.2949 60.979 46.8556 60.9452C45.977 60.8775 45.0983 60.776 44.2197 60.6406C42.4624 60.3868 40.7389 59.9807 39.0492 59.4901C38.576 59.3547 38.1029 59.2024 37.6467 59.0332C37.4101 58.9486 37.1736 58.864 36.9539 58.7625C36.7343 58.661 36.4808 58.5933 36.3625 58.3564C34.639 58.9486 32.7634 59.1009 30.9555 58.7794C27.4578 58.1703 24.129 55.6323 23.4869 52.0115C23.4025 51.5885 23.3687 51.1486 23.3687 50.7087C23.3856 47.4939 25.4977 44.8544 28.2857 43.5008L28.2688 43.4839C28.0829 43.264 27.9816 43.0271 27.8971 42.7733C27.5422 42.2149 27.2719 41.555 27.2381 40.8952C27.2212 40.7429 27.2381 40.5737 27.2719 40.4214C27.1198 39.7785 26.9846 39.1524 26.8495 38.5095C26.5115 36.8006 26.2412 35.0748 26.0722 33.3489C25.7174 29.8973 25.7174 26.4118 26.0722 22.9602C26.1736 21.9957 26.2919 21.0313 26.4439 20.0669C26.5453 19.3562 26.6805 18.6625 26.8664 17.9857C26.3763 18.1211 25.9201 18.3241 25.4808 18.561C24.5852 19.0348 23.7911 19.627 22.9969 20.253C22.1014 20.9467 21.2227 21.6743 20.3441 22.4018C16.8126 25.3459 13.3318 28.3576 9.8172 31.3355C8.93855 32.0799 8.0599 32.8244 7.18126 33.5689C6.38709 34.2457 5.57604 34.8886 4.84946 35.6162C4.25807 36.2253 3.70046 36.919 3.53149 37.765C3.34562 38.6956 3.75115 39.5923 4.20737 40.3707C4.76497 41.3182 5.42396 42.198 6.03226 43.1117C6.65745 44.0423 7.29954 44.9729 7.94162 45.9034C9.2258 47.7815 10.51 49.6596 11.7942 51.5377C14.3625 55.2601 16.9816 58.9656 19.6513 62.6372C22.2872 66.258 25.0077 69.845 27.8126 73.3474C30.5837 76.816 33.4562 80.2168 36.4301 83.5331C37.1398 84.3114 37.8157 85.1405 38.5929 85.8511C39.2688 86.4772 40.063 86.9171 40.9923 86.9509C42.9862 87.0186 44.6928 85.7496 46.2473 84.6668C47.0415 84.1084 47.8694 83.5839 48.765 83.1778C49.0353 83.0594 49.3395 83.0932 49.5084 83.3639C49.6436 83.6008 49.576 83.99 49.3226 84.1084C47.4301 84.9375 45.9263 86.4433 44.0507 87.3232C42.1751 88.1861 40.063 88.3891 38.3564 87.0694C37.5284 86.4264 36.8356 85.6143 36.1429 84.836C35.3656 83.99 34.6052 83.1271 33.8449 82.2641C32.3241 80.5383 30.8372 78.7787 29.3671 77.0021C26.427 73.432 23.5714 69.7942 20.8003 66.0719C17.9954 62.3157 15.275 58.4918 12.5883 54.651C9.90169 50.8102 7.26574 46.9186 4.6467 43.044C3.53149 41.352 1.96006 39.4739 2.48387 37.3251ZM31.6482 32.9259C31.7327 32.5199 31.8003 32.1138 31.8848 31.7077C31.6989 32.0969 31.6482 32.5029 31.6482 32.9259ZM32.3241 31.1324C32.3579 31.1324 32.3917 31.1324 32.4424 31.1324L32.4255 31.1155C32.3917 31.1155 32.3579 31.1155 32.3241 31.1324ZM24.1966 49.4735C24.129 49.8627 24.0952 50.2688 24.0952 50.6579C24.1121 54.0757 26.7481 56.7829 29.874 57.7642C33.2366 58.8133 37.2243 58.0519 39.7081 55.4631C40.8064 54.3126 41.5499 52.8237 41.6851 51.2332C41.8203 49.6258 41.3641 48.0692 40.4516 46.7494C38.424 43.8392 34.5545 42.6379 31.1582 43.2301C27.8971 43.8223 24.8218 46.1065 24.1966 49.4735ZM42.4286 30.6925C42.8848 29.4574 43.3579 28.2391 43.831 27.0209C44.321 25.7689 44.8111 24.4999 45.3011 23.2478C45.4025 22.9771 45.5714 22.6894 45.6221 22.4018C45.6728 22.1649 45.2842 22.0127 45.1152 21.8773C44.5745 21.4712 44.0169 21.0651 43.4762 20.6591C42.8848 20.2192 42.2934 19.7792 41.702 19.3224C41.4147 19.1024 41.1106 18.8825 40.8402 18.6456C40.6882 18.5272 40.5361 18.3918 40.4009 18.2565C40.2657 18.6964 40.1306 19.1363 39.9954 19.5762C39.7081 20.5068 39.404 21.4543 39.0829 22.3849C38.7619 23.3155 38.424 24.2291 38.2212 25.1936C38.1705 25.4135 38.1367 25.6504 38.1029 25.8873C39.5392 27.4778 40.9923 29.0851 42.4286 30.6925ZM27.9985 16.7167C29.0123 16.7167 29.9247 17.089 30.6851 17.7489C31.53 18.4764 32.2396 19.3901 32.9831 20.2192C34.4869 21.8773 35.9739 23.5354 37.4777 25.1936C37.6467 23.84 38.1705 22.5033 38.5929 21.2174C39.1843 19.3732 39.725 17.5289 40.2319 15.6677C40.722 13.8235 41.1782 11.9623 41.5499 10.0842C41.7358 9.17051 41.9386 8.23992 42.0568 7.30933C42.1075 6.93709 42.1244 6.5141 41.9723 6.15878C41.8372 5.85422 41.5668 5.61735 41.2796 5.44815C40.553 5.00823 39.7081 4.75443 38.914 4.4668C38.0015 4.1284 37.0891 3.79 36.1598 3.46853C34.3349 2.82557 32.51 2.21646 30.6682 1.64119C30.1951 1.48891 29.7389 1.35355 29.2657 1.20127C28.8771 1.08283 28.4209 0.879795 27.9985 0.947474C27.3395 1.06591 27.1874 2.14878 27.0353 2.65638C26.4608 4.58524 25.9032 6.49718 25.3287 8.42604C24.2304 12.1653 23.1152 15.9215 22.0169 19.6608C22.2028 19.5254 22.3717 19.3732 22.5576 19.2378C24.129 18.0027 25.937 16.7167 27.9985 16.7167Z" fill="white" fill-opacity="0.5"/>
<path d="M33.3887 47.4093C33.9125 48.526 33.8618 49.8965 33.2535 50.9963C32.9156 51.6223 32.4087 52.1299 31.8511 52.5529C31.5807 52.756 31.2935 52.9421 30.9893 53.0944C30.6852 53.2636 30.3135 53.4497 29.9417 53.4158C29.739 53.382 29.6207 53.179 29.7728 53.0098C30.0769 52.6544 30.6176 52.4853 31.0062 52.2145C31.3949 51.9438 31.7666 51.6054 32.0539 51.2332C32.6115 50.4887 32.9325 49.5581 32.7804 48.6275C32.6453 47.6969 32.037 46.8848 31.1076 46.631C30.2797 46.411 29.2996 46.8002 29.0124 47.6462C28.8603 48.0861 28.9617 48.526 29.401 48.6952C29.8403 48.8813 30.3641 48.8306 30.8204 48.8644C31.2766 48.9152 31.4625 49.6089 30.9386 49.7273C29.8572 49.9642 28.3027 49.6596 28.0324 48.4076C27.7451 47.0878 28.9279 45.8358 30.1783 45.6496C31.5131 45.4635 32.8311 46.2249 33.3887 47.4093Z" fill="white" fill-opacity="0.5"/>
<path d="M32.0877 53.0775C32.5608 52.5699 33.1015 52.113 33.676 51.7408C34.8926 50.9625 36.5823 50.235 37.9678 51.0133C39.1675 51.6901 39.7251 53.2298 39.2351 54.5157C38.7282 55.8523 37.3258 56.8337 35.8726 56.5291C35.1291 56.3768 34.5546 55.8016 34.4532 55.0402C34.3688 54.3634 34.7067 53.602 35.3995 53.4159C35.8895 53.2805 36.2443 54.0419 35.7543 54.2788C35.4502 54.4141 35.3488 54.6849 35.4164 55.0063C35.5009 55.3955 35.8895 55.5816 36.2612 55.6155C37.2413 55.6831 38.1368 54.8879 38.3734 53.9573C38.593 53.0606 38.103 52.0623 37.2244 51.7408C36.6499 51.5209 36.0078 51.6393 35.4502 51.8254C34.9264 51.9946 34.4363 52.2315 33.9801 52.5191C33.4563 52.8406 33.0001 53.2467 32.5777 53.6866C32.358 53.9066 32.1721 54.1604 31.9863 54.4141C31.8004 54.6679 31.6483 54.9048 31.378 55.0909C31.2259 55.1755 31.04 55.0571 31.04 54.8879C31.04 54.5326 31.1921 54.2619 31.3949 53.9742C31.5976 53.6528 31.8342 53.3651 32.0877 53.0775Z" fill="white" fill-opacity="0.5"/>
<path d="M30.195 4.36528C31.0736 4.51756 31.9353 4.78827 32.7802 5.04207C33.6589 5.29587 34.5375 5.54967 35.3993 5.8373C36.2441 6.10802 37.089 6.41258 37.9338 6.71713C38.3562 6.86941 38.7618 7.03861 39.1842 7.20781C39.5559 7.36009 40.0797 7.49545 40.367 7.78308C40.5191 7.93536 40.4008 8.18916 40.198 8.18916C39.9784 8.18916 39.7756 8.10456 39.5728 8.03688C39.3532 7.9692 39.1335 7.8846 38.9138 7.81692C38.5083 7.68156 38.1028 7.52929 37.6973 7.39393C36.8524 7.10629 36.0075 6.81865 35.1458 6.56486C34.284 6.31106 33.4392 6.04034 32.5774 5.80346C31.7157 5.56659 30.837 5.39739 29.9922 5.12667C29.5022 4.97439 29.7049 4.28068 30.195 4.36528Z" fill="white" fill-opacity="0.5"/>
<path d="M30.6684 7.85079C31.395 7.98615 32.1047 8.25687 32.8143 8.47682C33.524 8.69678 34.2337 8.93366 34.9265 9.18746C35.6193 9.42433 36.2951 9.69505 36.971 9.96577C37.6638 10.2534 38.3904 10.5241 38.9987 10.9471C39.2014 11.0994 39.0832 11.387 38.8297 11.3532C38.1031 11.2178 37.4103 10.9133 36.7176 10.6595C36.0417 10.4057 35.3489 10.1688 34.6561 9.93193C33.9633 9.69505 33.2706 9.47509 32.5778 9.25514C31.8681 9.03518 31.1246 8.8829 30.4319 8.61218C29.9756 8.44298 30.1615 7.76619 30.6684 7.85079Z" fill="white" fill-opacity="0.5"/>
<path d="M31.3948 12.6899C32.4087 12.8929 33.4056 13.2482 34.3518 13.6035C35.315 13.9758 36.2443 14.3988 37.1567 14.9064C37.5116 15.0925 37.1905 15.617 36.8526 15.4309C35.9571 14.991 35.0277 14.5849 34.0815 14.2634C33.1352 13.925 32.1552 13.722 31.1752 13.502C30.6345 13.3836 30.8541 12.5714 31.3948 12.6899Z" fill="white" fill-opacity="0.5"/>
<path d="M36.9031 57.9335C37.3255 58.0181 37.6972 58.2381 38.1028 58.3903C38.4914 58.5426 38.8969 58.678 39.2856 58.7964C40.1135 59.0333 40.9753 59.1856 41.8201 59.3209C43.6619 59.6086 45.5206 59.7947 47.3624 60.0485C51.2149 60.5899 55.0336 61.3851 58.8693 62.0619C60.7955 62.4003 62.7218 62.7218 64.6481 63.0094C64.3777 62.3157 64.0398 61.6389 63.7187 60.9621C63.2794 60.0316 62.8401 59.101 62.367 58.1873C60.5083 54.5157 58.3962 50.9794 56.0306 47.5955C53.665 44.2284 51.029 41.0983 48.3424 38.0019C48.0045 37.6128 47.6834 37.2067 47.3624 36.8006C47.1596 36.5638 47.4637 36.2423 47.7172 36.4453C49.3224 37.8158 50.7587 39.3555 52.1273 40.9629C53.496 42.5703 54.814 44.2454 56.0475 45.9543C58.4975 49.3382 60.728 52.9083 62.6542 56.6137C63.6343 58.4919 64.5467 60.4038 65.3578 62.3496C65.7971 63.3817 66.1688 64.4815 65.9323 65.5982C65.7295 66.5964 65.0705 67.4255 64.3946 68.1362C62.9415 69.6928 61.3363 71.0971 59.8324 72.603C59.072 73.3644 58.3455 74.1427 57.6358 74.9548C57.0275 75.6655 56.4699 76.4269 55.8954 77.1713C53.665 80.1492 51.2825 83.0933 48.0382 85.0052C47.5989 85.259 47.1596 85.4959 46.7034 85.6989C46.4668 85.8004 46.1796 85.7666 46.0275 85.5297C45.8923 85.3098 45.9768 84.9883 46.1965 84.8529C47.8693 83.9223 49.4238 82.8733 50.8094 81.5366C52.0935 80.3184 53.2088 78.9479 54.2902 77.5605C55.4561 76.0715 56.5544 74.5488 57.8724 73.1783C59.3424 71.6555 60.9476 70.268 62.4515 68.796C63.1611 68.1023 63.9215 67.4255 64.4791 66.6134C64.7326 66.2411 64.9353 65.8351 65.0367 65.3951C65.1212 64.9721 65.0874 64.5491 65.0029 64.1431C61.1335 63.5847 57.2979 62.8741 53.4622 62.1634C51.5359 61.8081 49.5928 61.4697 47.6665 61.0975C45.8247 60.7422 43.9661 60.4545 42.1243 60.1162C41.1611 59.947 40.2149 59.727 39.2687 59.4394C38.8124 59.304 38.3562 59.1348 37.9169 58.9318C37.4776 58.7287 37.0045 58.5426 36.6834 58.1704C36.6158 58.0858 36.7341 57.8997 36.9031 57.9335Z" fill="white" fill-opacity="0.5"/>
</g>
</g>
<defs>
<clipPath id="clip0_195_4955">
<rect width="66" height="88" fill="white" transform="matrix(-1 0 0 1 66 0)"/>
</clipPath>
</defs>
</svg>
