<svg width="62" height="62" viewBox="0 0 62 62" fill="none" xmlns="http://www.w3.org/2000/svg">
<path d="M33.6061 54.7344H16.062C15.8051 54.7344 15.5587 54.6323 15.377 54.4506C15.1953 54.269 15.0933 54.0226 15.0933 53.7656C15.0933 53.5087 15.1953 53.2623 15.377 53.0806C15.5587 52.8989 15.8051 52.7969 16.062 52.7969H33.6061C33.863 52.7969 34.1094 52.8989 34.2911 53.0806C34.4728 53.2623 34.5748 53.5087 34.5748 53.7656C34.5748 54.0226 34.4728 54.269 34.2911 54.4506C34.1094 54.6323 33.863 54.7344 33.6061 54.7344Z" fill="#F3AE09"/>
<path d="M15.7324 54.8216C15.4755 54.8216 15.2291 54.7195 15.0474 54.5379C14.8657 54.3562 14.7637 54.1098 14.7637 53.8528C15.4999 33.5188 25.1874 20.8475 28.1712 17.4375C32.9374 12.0125 44.1168 5.21191 51.6827 3.16785C51.9274 3.11086 52.1846 3.1511 52.4001 3.28011C52.6156 3.40911 52.7726 3.61678 52.8379 3.85931C52.9033 4.10184 52.8719 4.36027 52.7503 4.58008C52.6288 4.7999 52.4266 4.96392 52.1865 5.03754C44.9209 6.97504 34.1774 13.5238 29.634 18.726C26.7277 22.0003 17.3696 34.226 16.6915 53.8916C16.6815 54.1401 16.5764 54.3752 16.3979 54.5484C16.2194 54.7215 15.9811 54.8193 15.7324 54.8216Z" fill="#F3AE09"/>
<path d="M28.2102 12.1771C27.9962 12.1764 27.7884 12.1049 27.6193 11.9737C27.4167 11.8166 27.2846 11.5858 27.2519 11.3316C27.2193 11.0774 27.2886 10.8206 27.4449 10.6174C30.6418 6.45179 37.5005 1.77273 52.0221 3.13867C52.279 3.16308 52.5157 3.28855 52.6801 3.48748C52.8445 3.68642 52.9232 3.94252 52.8988 4.19945C52.8744 4.45638 52.7489 4.69309 52.55 4.8575C52.351 5.02192 52.0949 5.10058 51.838 5.07617C38.2077 3.79742 31.8818 7.98242 28.9852 11.8574C28.8882 11.9653 28.7682 12.0501 28.6341 12.1054C28.4999 12.1608 28.3551 12.1853 28.2102 12.1771ZM14.3474 39.3312C14.1912 39.3309 14.0374 39.2929 13.8991 39.2204C13.7608 39.1478 13.642 39.0429 13.553 38.9146C9.18395 32.6759 11.0633 28.2584 12.8749 23.9474L12.9911 23.6762C13.0523 23.5315 13.1478 23.4039 13.2693 23.3043C13.3908 23.2047 13.5347 23.1362 13.6886 23.1046C13.8435 23.0722 14.0039 23.0782 14.1559 23.1221C14.3079 23.166 14.4468 23.2465 14.5605 23.3565L16.6821 25.4296C17.4377 21.8646 19.3752 13.9693 22.6593 10.4915C22.8192 10.323 23.0344 10.2175 23.2655 10.1944C23.4967 10.1713 23.7285 10.232 23.9186 10.3655C24.3933 10.6949 26.8249 12.458 27.1058 14.2405C27.1249 14.3665 27.119 14.495 27.0884 14.6186C27.0579 14.7423 27.0032 14.8587 26.9277 14.9613C26.8521 15.0638 26.7571 15.1505 26.648 15.2163C26.539 15.2821 26.418 15.3258 26.2921 15.3449C26.1661 15.364 26.0377 15.3581 25.914 15.3275C25.7903 15.297 25.6739 15.2423 25.5714 15.1668C25.4688 15.0912 25.3821 14.9962 25.3163 14.8871C25.2505 14.7781 25.2068 14.6571 25.1877 14.5312C24.8163 13.7021 24.2313 12.9866 23.4924 12.458C20.0533 16.9724 18.2611 27.3962 18.2418 27.5124C18.2119 27.686 18.1353 27.8481 18.0202 27.9814C17.9051 28.1147 17.7558 28.2141 17.5884 28.2689C17.4211 28.3237 17.2419 28.3318 17.0703 28.2924C16.8986 28.253 16.741 28.1675 16.6143 28.0452L14.2118 25.7105C12.623 29.5855 11.6736 32.8502 15.1224 37.7715C15.1967 37.8756 15.2497 37.9934 15.2783 38.1181C15.3068 38.2428 15.3104 38.372 15.2888 38.4981C15.2672 38.6242 15.2208 38.7447 15.1523 38.8528C15.0839 38.9609 14.9947 39.0543 14.8899 39.1277C14.734 39.2493 14.5447 39.3203 14.3474 39.3312Z" fill="#F3AE09"/>
<path d="M33.8289 32.7437H33.6932L28.8495 32.0656C28.6474 32.0358 28.4599 31.943 28.3138 31.8003C28.1676 31.6577 28.0703 31.4725 28.0357 31.2712C28.002 31.0702 28.0326 30.8637 28.123 30.6811C28.2135 30.4985 28.3592 30.349 28.5395 30.254C28.5879 30.254 33.1507 27.8321 35.3207 24.519C36.5995 22.5815 37.6264 20.8668 38.2851 19.7334H35.5532C35.3418 19.7312 35.1369 19.6599 34.9698 19.5304C34.8027 19.401 34.6825 19.2203 34.6276 19.0162C34.5727 18.812 34.5861 18.5954 34.6658 18.3996C34.7455 18.2038 34.887 18.0394 35.0689 17.9315C37.5472 16.5949 39.921 15.0729 42.1698 13.3784C42.3544 13.0977 42.5226 12.8066 42.6736 12.5065C44.4634 9.00332 47.0559 5.97273 50.2395 3.66181C50.4467 3.51273 50.7045 3.4515 50.9566 3.49141C51.2088 3.53132 51.435 3.66915 51.5861 3.87493C51.6599 3.97964 51.7123 4.09796 51.7401 4.22304C51.7679 4.34812 51.7706 4.47747 51.7481 4.60361C51.7256 4.72975 51.6782 4.85017 51.6089 4.95789C51.5395 5.06562 51.4494 5.15851 51.3439 5.23118C48.3963 7.36797 46.0017 10.1778 44.3592 13.4268C44.1691 13.8078 43.9556 14.1767 43.7198 14.5312C42.3041 15.7803 40.7543 16.8687 39.0989 17.7765H39.9901C40.1582 17.7765 40.3235 17.8203 40.4695 17.9035C40.6156 17.9868 40.7375 18.1066 40.8232 18.2512C40.9083 18.3984 40.953 18.5655 40.953 18.7356C40.953 18.9056 40.9083 19.0727 40.8232 19.2199C40.7651 19.3362 39.3023 22.0099 36.9482 25.5749C35.5541 27.5259 33.8098 29.2012 31.8042 30.5156L33.9354 30.8159C34.1924 30.8339 34.4316 30.9532 34.6006 31.1476C34.7695 31.3419 34.8544 31.5955 34.8364 31.8524C34.8184 32.1094 34.6991 32.3486 34.5047 32.5176C34.3103 32.6865 34.0567 32.7714 33.7998 32.7534L33.8289 32.7437ZM21.3126 42.5184C19.9684 42.5037 18.6275 42.3838 17.302 42.1599C17.1748 42.1402 17.0527 42.0956 16.9427 42.0287C16.8327 41.9618 16.737 41.8739 16.661 41.77C16.5849 41.6661 16.5301 41.5483 16.4997 41.4232C16.4692 41.2981 16.4637 41.1682 16.4834 41.041C16.5031 40.9138 16.5477 40.7917 16.6146 40.6817C16.6815 40.5717 16.7694 40.476 16.8733 40.4C16.9772 40.324 17.0951 40.2692 17.2201 40.2387C17.3452 40.2082 17.4751 40.2027 17.6023 40.2224C22.4461 40.9877 26.0304 40.6681 29.7989 36.7834C30.3246 36.2473 30.8226 35.6847 31.2907 35.0977C31.4506 34.8981 31.6829 34.7698 31.9369 34.7408C32.191 34.7118 32.4462 34.7843 32.647 34.9427C32.748 35.0213 32.8324 35.119 32.8953 35.2304C32.9583 35.3417 32.9986 35.4644 33.0139 35.5914C33.0292 35.7184 33.0193 35.8472 32.9845 35.9703C32.9498 36.0934 32.8911 36.2084 32.8117 36.3087C32.3467 36.8899 31.8429 37.5002 31.1939 38.1299C29.9648 39.5356 28.444 40.6565 26.7374 41.4144C25.0309 42.1723 23.1796 42.549 21.3126 42.5184ZM47.6529 54.7343H38.2464C37.9894 54.7343 37.743 54.6322 37.5614 54.4506C37.3797 54.2689 37.2776 54.0225 37.2776 53.7656C37.2776 53.5086 37.3797 53.2622 37.5614 53.0805C37.743 52.8989 37.9894 52.7968 38.2464 52.7968H47.6529C47.9099 52.7968 48.1563 52.8989 48.3379 53.0805C48.5196 53.2622 48.6217 53.5086 48.6217 53.7656C48.6217 54.0225 48.5196 54.2689 48.3379 54.4506C48.1563 54.6322 47.9099 54.7343 47.6529 54.7343ZM40.1742 59.0937H10.0654C9.8085 59.0937 9.5621 58.9916 9.38042 58.8099C9.19874 58.6283 9.09668 58.3819 9.09668 58.1249C9.09668 57.868 9.19874 57.6216 9.38042 57.4399C9.5621 57.2582 9.8085 57.1562 10.0654 57.1562H40.1742C40.4311 57.1562 40.6775 57.2582 40.8592 57.4399C41.0409 57.6216 41.1429 57.868 41.1429 58.1249C41.1429 58.3819 41.0409 58.6283 40.8592 58.8099C40.6775 58.9916 40.4311 59.0937 40.1742 59.0937Z" fill="#F3AE09"/>
</svg>
