<svg width="96" height="96" viewBox="0 0 96 96" fill="none" xmlns="http://www.w3.org/2000/svg">
<path d="M72 88H24C19.5817 88 16 84.4183 16 80V16C16 11.5817 19.5817 8.00001 24 8.00001H52C52.0359 7.99536 52.0722 7.99536 52.108 8.00001H52.132C52.1698 8.01184 52.2086 8.01988 52.248 8.02401C52.6007 8.04662 52.949 8.1152 53.284 8.22801H53.344H53.404H53.452C53.5258 8.27971 53.5954 8.33723 53.66 8.40001C54.0958 8.5937 54.4929 8.86475 54.832 9.20001L78.832 33.2C79.1673 33.5392 79.4383 33.9362 79.632 34.372C79.668 34.46 79.696 34.544 79.724 34.636L79.764 34.748C79.8757 35.0816 79.9416 35.4287 79.96 35.78C79.9635 35.8199 79.9729 35.859 79.988 35.896V35.92C79.9946 35.9462 79.9986 35.973 80 36V80C80 82.1217 79.1571 84.1566 77.6569 85.6569C76.1566 87.1572 74.1217 88 72 88ZM52 16V36H72L52 16Z" fill="white" fill-opacity="0.12"/>
</svg>
