<svg xmlns="http://www.w3.org/2000/svg" width="400.5" height="337.33" viewBox="0 0 596.5 337.33"><defs><style>.cls-1{fill:#f3ae09;}.cls-2{fill:#fff;}</style></defs><g id="Layer_2" data-name="Layer 2"><g id="Layer_1-2" data-name="Layer 1"><path d="M149.4,239.54c.26.28,1.82,1.6,1.91,2,.13.58-.79,2.15-1,2.67l1.69-1.29a20,20,0,0,0-4.27.83,1.78,1.78,0,0,0-1.28,1.69,37.31,37.31,0,0,0,.9,7.6,1.72,1.72,0,0,0,1.22,1.23l1.9.35-1.22-1.23a13.4,13.4,0,0,0,2.78,5.7l-.27-2.12L150,259.61a1.75,1.75,0,0,0,.27,2.12c2.66,2.17,7.16,5.93,9.75,1.81l-2,.8,5.63,2.26-1.28-1.69.06,2.23a1.76,1.76,0,0,0,1.75,1.75c2.1-.18,5.85.26,7.68-1,1.66-1.11.94-2.69.78-4.28l-.87,1.51,3.06-1.62-2.12-.27c1.25,1.16,3.12,3,5,2.49s3.56-3.31,4.56-4.74c1.82-2.62,1.54-6.47-2.32-6.66l1.69,2.21a22.6,22.6,0,0,0,1-4.22l-1.22,1.22a8.79,8.79,0,0,1,2.79-.48,1.8,1.8,0,0,0,1.75-1.75,21.13,21.13,0,0,0-.57-6.19,1.79,1.79,0,0,0-1.69-1.29h-2.41l1.69,1.29c0-.23-.76-4.08-1.14-3,.11-.31,1.3-.77,1.56-1.2.86-1.4-.06-2.55-.86-3.71-1-1.49-2.46-4.36-4.26-5.14-2.14-.92-3.62,1.58-6,.76l1.22,2.15a5.44,5.44,0,0,0-1.84-5.72c-2.33-1.76-5.41-1-8.09-1.19a1.74,1.74,0,0,0-1.69,1.28c-.16,1.16-.29,2.31-.36,3.47l.86-1.51c-1.4.93-1.9,1-3.36.46a2.77,2.77,0,0,0-2.13-.3c-2.48.59-5,3.28-6.71,5.06-1.55,1.63.92,4.11,2.48,2.47,1.06-1.12,3.5-4,4.79-4,.9,0,1.83,1,3,.86a6.82,6.82,0,0,0,3.69-1.56c1.17-1.15.88-2.4,1.1-4.05l-1.68,1.29c1.39.09,7.2-.76,6.56,2.48a1.8,1.8,0,0,0,1.22,2.15,6.64,6.64,0,0,0,3.64.36c1.09-.22,1.84-1,2.84-1.29l-1.71-.45c1.36,1.05,2.29,4,3.74,4.66.31.7.49.68.54-.07.31-.57.28-.72-.1-.44-.21,0-1,.59-1.07.72-1.55,1.74.05,4.37.34,6.35a1.75,1.75,0,0,0,1.69,1.28h2.41L182,246.08a17.91,17.91,0,0,1,.45,5.26c.58-.59,1.17-1.17,1.75-1.75a17.6,17.6,0,0,0-3.73.61,1.71,1.71,0,0,0-1.22,1.22,21.85,21.85,0,0,1-1,4.22,1.77,1.77,0,0,0,1.69,2.22c-.08,0-3.26,4.45-3.94,5l1.7-.45a5,5,0,0,1-2.53-1.6,1.8,1.8,0,0,0-2.12-.27L170,262.14a1.69,1.69,0,0,0-.87,1.51c.15,1.45.29.88-.69,1.37s-3.13.27-4.27.37l1.75,1.75-.06-2.23a1.85,1.85,0,0,0-1.29-1.69L158.94,261a1.73,1.73,0,0,0-2,.8c-.41.65-4.12-2.4-4.25-2.51l.27,2.12c.6-.88,1.21-1.76,1.81-2.65a1.8,1.8,0,0,0-.27-2.12,9.58,9.58,0,0,1-1.89-4.15,1.73,1.73,0,0,0-1.22-1.22l-1.9-.35,1.22,1.22a32.48,32.48,0,0,1-.77-6.67l-1.29,1.69a10.89,10.89,0,0,1,3.34-.71,1.86,1.86,0,0,0,1.69-1.28c.47-1.3,1.44-2.95,1.11-4.38s-2-2.72-2.95-3.69c-1.54-1.65-4,.83-2.47,2.47Z"/><path d="M161.89,239.11c-10.81,5-5.13,21.2,6.41,18.63a10.2,10.2,0,0,0,7.84-11.44A10,10,0,0,0,166,238a1.75,1.75,0,0,0,0,3.5c8,0,9,11.51,1.09,12.87s-10.4-9-3.47-12.25c2-.95.26-4-1.77-3Z"/><path d="M75.87,334.43l8.76-26.82c.7-2.16,1.41-4.32,2.11-6.48.41-1.23.81-2.46,1.21-3.7.6-1.83.76-2.31,2.79-2.16s4.5,1.11,6.6,1.63l6.61,1.63,13.21,3.25,7.07,1.74c.57.14,3,.37,3.31.81.53.8-.37,2.42-.64,3.29q-4.22,13.78-8.45,27.58l2.45.34v-1.85a1.25,1.25,0,0,0-2.49,0v1.85a1.25,1.25,0,0,0,2.44.33q3.87-12.62,7.72-25.21c.65-2.11,3.25-6.63.7-8.29-1.3-.85-3.35-1-4.85-1.37l-6.6-1.62-25-6.16c-2.34-.57-5.1-1.65-6.41,1-1.74,3.6-2.63,8-3.87,11.75l-9.06,27.75c-.5,1.53,1.9,2.18,2.4.66Z"/><path d="M63.19,332.2q0-10.9,0-21.8c0-2.32.06-2.43,2.39-2.28l5.9.36,10.84.66c1.6.1,1.59-2.39,0-2.49l-13.79-.84c-2.09-.13-6.59-1.44-7.64,1.24-.56,1.43-.19,3.36-.19,4.84v6.44q0,6.93,0,13.87a1.25,1.25,0,0,0,2.49,0Z"/><path d="M91.83,306.42a14.14,14.14,0,0,0,9.41-.29l-1.53-.87a5.41,5.41,0,0,0,4.23,3.8c1.36.23,1.84-.07,2.92,1,.62.59.91,1.27,1.85,1.49a3.4,3.4,0,0,0,2.19-.35c.38-.16.72-.44,1.1-.59,1-.38,1.07-.15,1.83.29a10.33,10.33,0,0,0,2.83,1.64,6.24,6.24,0,0,0,3.29-.15,1.25,1.25,0,0,0-.67-2.4,3.62,3.62,0,0,1-3.69-.85,5.37,5.37,0,0,0-1.54-1.27c-1.29-.48-2.42.15-3.54.73-1.83.95-1.64-.9-3-1.69-2-1.15-4.4.71-5.42-2.28a1.27,1.27,0,0,0-1.53-.87,12,12,0,0,1-8.09.29c-1.53-.48-2.19,1.93-.66,2.4Z"/><path d="M88.44,316.71a21,21,0,0,0,6.81.06l-1.53-1.53A4,4,0,0,0,95,319.88c1.89,1.45,3.39.32,5.35-.17,1.59-.39,2.71.52,4.21.85,1.15.26,1.88-.22,3-.26,1.25-.05,2.39,1.16,3.52,1.53a7.53,7.53,0,0,0,3.83.13c1.57-.3.9-2.7-.66-2.4-2.53.47-3.37-1.31-5.41-1.8-1.53-.37-2.84.55-4.43.12-1.24-.34-2.17-1-3.5-.86a6.46,6.46,0,0,0-1.63.45,16.69,16.69,0,0,1-1.65.66c-1.56-.42-2-1.17-1.46-2.23.39-1-.71-1.65-1.53-1.53a17.14,17.14,0,0,1-5.49-.06c-1.56-.27-2.24,2.12-.66,2.4Z"/><path d="M84.84,327.94a22.72,22.72,0,0,0,5.76-.33l-1.53-1.53c-.57,3.24,3,3.82,5.44,4.14a39.58,39.58,0,0,0,6.53.1c2.66-.09,5.06,1.24,7.49,2.21,1.49.59,2.13-1.82.66-2.4-2.86-1.14-5.45-2.55-8.58-2.25-1,.1-9.39.24-9.14-1.14a1.27,1.27,0,0,0-1.54-1.53,19.73,19.73,0,0,1-5.09.24c-1.6-.12-1.59,2.37,0,2.49Z"/><path d="M6.29,111.67l26.83,8.76,6.47,2.12,3.7,1.21c1.84.6,2.31.76,2.16,2.78s-1.11,4.5-1.63,6.61l-1.62,6.6Q40.58,146.35,39,153L37.21,160c-.14.57-.38,3-.82,3.3-.8.54-2.42-.37-3.28-.63L5.52,154.26l-.33,2.44,1.84,0a1.25,1.25,0,0,0,0-2.49l-1.84,0a1.25,1.25,0,0,0-.33,2.45l25.21,7.72c2.1.64,6.63,3.24,8.29.7.85-1.31,1-3.35,1.36-4.85.54-2.21,1.09-4.41,1.63-6.61l6.15-25c.58-2.35,1.66-5.11-1-6.42-3.59-1.74-8-2.62-11.75-3.86L7,109.27c-1.52-.5-2.18,1.91-.66,2.4Z"/><path d="M8.52,99h21.8c2.33,0,2.43.06,2.29,2.39l-.36,5.91-.67,10.83c-.1,1.6,2.39,1.59,2.49,0l.84-13.79c.13-2.08,1.44-6.58-1.23-7.64-1.43-.56-3.36-.19-4.85-.19H8.52a1.25,1.25,0,0,0,0,2.49Z"/><path d="M34.31,127.64a14,14,0,0,0,.28,9.4l.87-1.53a5.41,5.41,0,0,0-3.79,4.23c-.23,1.36.06,1.84-1,2.92-.6.63-1.28.92-1.5,1.85a3.44,3.44,0,0,0,.36,2.2c.16.37.43.72.58,1.1.39,1,.16,1.07-.28,1.82a10.63,10.63,0,0,0-1.64,2.83,6.23,6.23,0,0,0,.14,3.29,1.25,1.25,0,0,0,2.4-.66,3.62,3.62,0,0,1,.86-3.7,5.2,5.2,0,0,0,1.26-1.54c.49-1.28-.14-2.41-.73-3.54-.95-1.83.9-1.63,1.69-3,1.15-2-.71-4.4,2.28-5.42a1.25,1.25,0,0,0,.87-1.53,11.94,11.94,0,0,1-.28-8.08c.47-1.54-1.93-2.19-2.4-.66Z"/><path d="M24,124.24a20.81,20.81,0,0,0-.06,6.82l1.53-1.53a4,4,0,0,0-4.64,1.27c-1.45,1.89-.33,3.38.16,5.34.4,1.59-.51,2.71-.85,4.21-.26,1.16.23,1.88.27,3,0,1.24-1.16,2.38-1.53,3.51a7.43,7.43,0,0,0-.13,3.83c.29,1.57,2.69.91,2.4-.66-.47-2.53,1.3-3.36,1.8-5.41.36-1.53-.56-2.84-.12-4.43.34-1.23,1-2.17.85-3.5a5.72,5.72,0,0,0-.45-1.63,16.69,16.69,0,0,1-.66-1.65c.43-1.55,1.17-2,2.23-1.45,1,.39,1.66-.72,1.53-1.53a17.14,17.14,0,0,1,.07-5.49c.27-1.57-2.13-2.24-2.4-.67Z"/><path d="M12.79,120.64a22.69,22.69,0,0,0,.32,5.76l1.53-1.53c-3.23-.56-3.82,3-4.13,5.44a38.63,38.63,0,0,0-.1,6.54c.08,2.65-1.25,5.05-2.21,7.48-.59,1.49,1.81,2.14,2.4.67,1.13-2.86,2.54-5.46,2.24-8.59-.09-1-.24-9.38,1.14-9.14a1.26,1.26,0,0,0,1.53-1.53,19.81,19.81,0,0,1-.23-5.1c.12-1.6-2.37-1.59-2.49,0Z"/><path d="M7.07,326a23.37,23.37,0,0,1,37.68,1.69,1.26,1.26,0,0,0,2.15,0A9.34,9.34,0,0,1,51,323.78c1.77-.69,4.18-.35,5,1.67a1.26,1.26,0,0,0,2.27.3,2.86,2.86,0,0,1,2-1.41,1.25,1.25,0,0,0-.66-2.4,5.92,5.92,0,0,0-3.5,2.55l2.28.3A6,6,0,0,0,52.12,321c-3.3.25-5.67,2.87-7.37,5.46H46.9a26.23,26.23,0,0,0-19.64-11.79,26,26,0,0,0-22,9.6c-1,1.23.75,3,1.76,1.76Z"/><path d="M127.36,318.54a13.8,13.8,0,0,1,19,8.65,1.25,1.25,0,0,0,2.44-.33c.33-3.82,4.52-5.75,7.66-6.95,3.71-1.42,9.18-2.67,11.26,1.84a1.26,1.26,0,0,0,2,.26,6,6,0,0,1,3.28-2c.51-.11,4-.26,3.94.53l.62-1.08-.26.14c-1.42.75-.16,2.9,1.26,2.15,2.72-1.44-.83-3.77-2.31-4.14a8.46,8.46,0,0,0-8.29,2.67l1.95.25c-2.57-5.58-9.31-4.8-14.07-3-4.36,1.65-9.05,4.23-9.49,9.35l2.44-.33a16.33,16.33,0,0,0-22.69-10.14c-1.45.66-.19,2.81,1.26,2.15Z"/><path d="M218.36,317.25a11.51,11.51,0,0,1,10.52-6.59c4.83,0,9.18,2.55,12.52,5.85a1.25,1.25,0,0,0,1.95-.25,8.6,8.6,0,0,1,14.75-2.1,1.26,1.26,0,0,0,2.12-.88c-.28-4-.19-8.3,2.1-11.73,2.12-3.19,6.46-5.08,10-3.06l.63-2.32-1-.05c-1.6-.09-1.59,2.4,0,2.48l1,.06a1.26,1.26,0,0,0,.63-2.32c-3.95-2.25-8.81-1-11.93,2.11-3.82,3.85-4.27,9.72-3.91,14.83l2.13-.88A11,11,0,0,0,241.21,315l1.95-.26c-4-3.9-9.27-6.89-15-6.55A13.87,13.87,0,0,0,216.22,316c-.66,1.45,1.48,2.71,2.14,1.26Z"/><path d="M308.32,329.9a8.31,8.31,0,0,1,4-9,8.44,8.44,0,0,1,4.54-1,6.83,6.83,0,0,0,2.95,0c2.05-.79,1.45-2.78,1.49-4.47a5.47,5.47,0,0,1,1.8-3.85c.75-.71,3.52-2.44,4.52-1.35l-.32-1.21,1-.5c-1.48-.59-2.13,1.81-.66,2.4a1.55,1.55,0,0,0,2.09-1.41c.06-1.43-1.48-1.92-2.67-2a8.29,8.29,0,0,0-8,6.24c-.22.87.05,1.81-.12,2.64-.29,1.44-1.67.94-2.79,1a10.66,10.66,0,0,0-10.2,13.18c.31,1.57,2.71.9,2.4-.66Z"/><path d="M391.09,310.56a10.34,10.34,0,0,1,13.5,1c3.41,3.61,3.62,9.25,1.17,13.42-.83,1.42,1.22,2.51,2.15,1.26a8.37,8.37,0,0,1,15.07,4.3,1.26,1.26,0,0,0,1.88,1.07c7.18-4.42,19.22-8.09,24.26,1.43a1.26,1.26,0,0,0,2.15,0,2.72,2.72,0,0,1,3.41-.95c1.51.55,2.16-1.85.66-2.39a5.2,5.2,0,0,0-6.22,2.08h2.15a14.25,14.25,0,0,0-11.2-7.2c-5.9-.68-11.57,1.86-16.47,4.88l1.87,1.08A10.77,10.77,0,0,0,405.76,325l2.15,1.26c3.11-5.3,2.61-12.64-2.05-16.92a12.9,12.9,0,0,0-16.53-.51c-1.26,1,.52,2.74,1.76,1.76Z"/><path d="M346.08,289.27l18.48,8.81c1.44.69,2.7-1.46,1.26-2.15l-18.49-8.81c-1.44-.68-2.7,1.46-1.25,2.15Z"/><path d="M344.12,296.18l18.78,9.23c1.43.7,2.69-1.44,1.25-2.15L345.38,294c-1.44-.71-2.7,1.44-1.26,2.15Z"/><path d="M338.23,303.08a109.71,109.71,0,0,0,19.38,9.71c1.5.58,2.14-1.83.66-2.4a105.56,105.56,0,0,1-18.78-9.46c-1.36-.86-2.61,1.29-1.26,2.15Z"/><path d="M339,310.41l-.25-.22-1.5,1.95,14,6.5c1.45.67,2.71-1.47,1.26-2.14l-14-6.5c-1.19-.56-2.63.93-1.51,1.95l.25.22c1.18,1.07,2.94-.68,1.76-1.76Z"/><path d="M4,234.32c-.49-3.46,4.89-9.24,8.46-7.39,3.79,2,1.9,8.26-.18,10.77-1.47,1.77-3.46,3.42-3.54,5.91a4.08,4.08,0,0,0,3.21,4.4c1.57.23,2.24-2.17.66-2.4-3.3-.49,0-4.52,1-5.62a13.45,13.45,0,0,0,2.85-4.67c1.05-3.1.94-7.4-1.59-9.81s-6.15-1.34-8.67.54C3.22,228.21,1,231.26,1.56,235c.23,1.58,2.63.91,2.4-.66Z"/><path d="M13.42,252.57v-1a1.25,1.25,0,1,0-2.49,0v1a1.25,1.25,0,1,0,2.49,0Z"/><path d="M48.84,249.94l17.52-13.26a1.25,1.25,0,0,0-1-2.27,10.56,10.56,0,0,1-6.77-1.15L58,235.58a35.38,35.38,0,0,1,9.36.4l-.75-1.83a33.25,33.25,0,0,0-3.77,7.18c-.57,1.5,1.83,2.15,2.4.67a30.47,30.47,0,0,1,3.52-6.59,1.25,1.25,0,0,0-.74-1.83,37.82,37.82,0,0,0-10-.49c-1.14.1-1.81,1.7-.63,2.32a13.45,13.45,0,0,0,8.69,1.4c-.32-.76-.64-1.52-1-2.28L47.58,247.79c-1.26,1,0,3.11,1.26,2.15Z"/><path d="M101.68,181.35l-2.22,16a.92.92,0,0,0,1.68.68,7.75,7.75,0,0,1,4.11-2.92l-.88-1.53a25.69,25.69,0,0,1-5.06,4.65l1.34.56a24.48,24.48,0,0,0-1.77-5.68c-.48-1.07-2.07-.16-1.59.9a21.87,21.87,0,0,1,1.59,5.24.92.92,0,0,0,1.33.57,27.87,27.87,0,0,0,5.45-4.95c.54-.64.06-1.82-.88-1.53a9.87,9.87,0,0,0-5.23,3.79l1.68.68q1.11-8,2.21-16c.16-1.15-1.6-1.63-1.76-.46Z"/><path d="M393.35,276.42l20.32-20.79-1.95-1.51-1,1.32c-.95,1.29,1.21,2.53,2.15,1.26l1-1.32c.85-1.15-1-2.5-2-1.51l-20.32,20.79c-1.12,1.15.63,2.91,1.76,1.76Z"/><path d="M391.45,271.42a5.75,5.75,0,0,1-.91,5.8l2,1.51a9.63,9.63,0,0,1,9.31-4.29c1.59.18,1.58-2.31,0-2.49a12.07,12.07,0,0,0-11.46,5.53c-.76,1.16,1,2.61,1.95,1.5a8.29,8.29,0,0,0,1.55-8.22c-.53-1.5-2.94-.86-2.4.66Z"/><path d="M571.6,268.59a55,55,0,0,1,14.24-2.45c3.56-.15,3.59-2.64,0-2.48a65.6,65.6,0,0,0-17.07,2.79c-2.91.92-.11,3.08,2.83,2.14Z"/><path d="M579.85,286.67a10.53,10.53,0,0,1,4.36.29,1.25,1.25,0,0,0,.66-2.4,13.45,13.45,0,0,0-5.68-.29c-1.58.25-.91,2.64.66,2.4Z"/><path d="M537,322.74v5a1.25,1.25,0,0,0,2.49,0v-5a1.25,1.25,0,0,0-2.49,0Z"/><path d="M551.89,322.74v3.49a1.25,1.25,0,0,0,2.49,0v-3.49a1.25,1.25,0,0,0-2.49,0Z"/><path d="M369.52,242.13a91.86,91.86,0,0,0,.21,12.85c.1,1.18,2,1.19,1.86,0a91.86,91.86,0,0,1-.21-12.85c.06-1.2-1.8-1.19-1.86,0Z"/><path d="M377.26,236l.05,18.32c0,.74,1.06,1.32,1.58.66l.69-.86c.74-.93-.57-2.25-1.31-1.32l-.69.86,1.58.66,0-18.32a.93.93,0,0,0-1.86,0Z"/><path d="M388,228.75a113.24,113.24,0,0,0,1.33,25.94c.2,1.17,2,.67,1.8-.5a110.57,110.57,0,0,1-1.27-25.44c.08-1.19-1.78-1.19-1.86,0Z"/><path d="M399.24,222.06q.15,8.4.28,16.79c.05,2.68.09,5.36.14,8,0,2-.08,3.91,1.25,5.51.77.92,2.08-.4,1.32-1.32-1.34-1.6-.73-5.18-.76-7.11l-.12-7.3q-.12-7.31-.25-14.6a.93.93,0,0,0-1.86,0Z"/><path d="M399.31,217.52a11.14,11.14,0,0,0-3.14,7.73.94.94,0,0,0,1.73.47,30.65,30.65,0,0,0,3.31-7l-1.56.41a6.46,6.46,0,0,1,1.91,5l.69-.9-1.9.35c-.38.07-1.22.41-1.57.29l.65.65,0,0h-1.86v.09c.15,1.17,2,1.19,1.86,0v-.09c-.15-1.15-1.89-1.23-1.86,0a1.18,1.18,0,0,0,1,1.23c1.23.17,2.94-.48,4.16-.71a.92.92,0,0,0,.68-.89,8.32,8.32,0,0,0-2.45-6.3.94.94,0,0,0-1.56.41,28.85,28.85,0,0,1-3.11,6.54l1.73.47a9.08,9.08,0,0,1,2.6-6.41c.83-.86-.48-2.18-1.32-1.32Z"/><path d="M1.57,187.74a23,23,0,0,1,12.39-7c1.4-.27,2.8-.34,3.66,1a7.77,7.77,0,0,1,.91,3c.42,2.62.72,5.27,1.07,7.89a.94.94,0,0,0,1.37.56,7.89,7.89,0,0,1,10.49,1.54c.76.92,2.07-.4,1.32-1.32A9.75,9.75,0,0,0,20,191.58l1.36.56c-.43-3.19-.49-6.73-1.5-9.81-.69-2.11-2.16-3.66-4.49-3.65-5.61,0-11.46,3.79-15.14,7.74-.82.88.49,2.2,1.31,1.32Z"/><path d="M58.47,211.72a12.44,12.44,0,0,1,15.7-2.61c5.06,3.16,6.83,10.26,4.25,15.53a.94.94,0,0,0,1.27,1.28c4.23-1.94,8.91-2.16,13.49-2,3.89.1,11.84.77,10.76,6.63a.93.93,0,0,0,1.7.71c6.07-7.95,13.87-16.19,24.12-18.18,8.36-1.63,18.27,1.57,21.87,9.78.26.6,1.05.52,1.46.19a37.27,37.27,0,0,1,35-6c11.66,4,20.42,14.49,23.18,26.39a35.16,35.16,0,0,1,.83,10c-.21,3.81-.69,7.65.71,11.31a1,1,0,0,0,1.7.22,9.16,9.16,0,0,1,15.83,9l1.79.49A14.05,14.05,0,0,1,245.53,263a.93.93,0,0,0,0-1.86,15.9,15.9,0,0,0-15.19,12.7.93.93,0,0,0,1.79.49A11,11,0,0,0,212.9,264l1.7.22c-1.46-3.82-.73-7.81-.59-11.77a36.45,36.45,0,0,0-.83-9,39.67,39.67,0,0,0-8.11-16.66,37.51,37.51,0,0,0-33.83-13.27,38.6,38.6,0,0,0-19.47,8.23l1.46.18c-3.8-8.67-14.14-12.17-23-10.8-11.17,1.72-19.65,10.65-26.18,19.2l1.7.72c1-5.68-4.64-8.41-9.37-8.83-5.88-.52-12.18-.35-17.62,2.14L80,225.58a14.31,14.31,0,0,0-4.5-17.8c-5.68-3.9-14-2.54-18.37,2.62-.77.91.54,2.23,1.32,1.32Z"/><path d="M342.39,269.57c3.89-1.79,8.73-3.81,12.76-1.35a.94.94,0,0,0,1.37-1.05,22.19,22.19,0,0,1-.08-14.33c1.25-3.7,5.6-10.05,10.11-6.24.91.77,2.23-.54,1.31-1.31-4.37-3.7-9.73-.22-12,4.07a23.7,23.7,0,0,0-1.18,18.3l1.37-1.05c-4.66-2.85-10.11-.73-14.64,1.35-1.08.5-.14,2.1.94,1.61Z"/><path d="M408.1,243.83c4.78-3.61,10.41-8,16.76-7.46a11.39,11.39,0,0,1,7.14,3.09c1.89,1.91,1.8,4.32,3,6.56.83,1.55,2.35,2.37,4,1.31,1.25-.83,2-1.82,3.52-2.25a8.58,8.58,0,0,1,4.33,0c6.44,1.56,9,8.32,10.94,14a.94.94,0,0,0,1.7.22,22.22,22.22,0,0,1,21.39-10.38c1.18.13,1.17-1.73,0-1.86a24,24,0,0,0-23,11.3l1.7.22c-1.56-4.56-3.36-9.48-7.17-12.67-3.07-2.56-7.64-3.82-11.44-2.21a13.25,13.25,0,0,0-2.41,1.56c-.68.48-1.25.75-1.83.05a4.77,4.77,0,0,1-.62-1.65,11.85,11.85,0,0,0-2.44-5.13,13.4,13.4,0,0,0-10.72-4c-6,.44-11.11,4.22-15.74,7.73-.95.71,0,2.32.93,1.6Z"/><path d="M535.83,243.42a14.28,14.28,0,0,1,14.8-5l.5-1.79c-10.59-2-20.92-10.14-23.41-21C526.65,211,527,205,531.06,201.9c1.94-1.5,4.51-1.76,5.57-4.24s.72-5.26,2.17-7.73a11.07,11.07,0,0,1,17.48-2c.53.53,1.67.17,1.59-.66A18.56,18.56,0,0,1,580,166.83c1.17.22,1.67-1.57.5-1.79A20.41,20.41,0,0,0,556,187.29l1.59-.65a13,13,0,0,0-16.3-2,13.38,13.38,0,0,0-5.11,6.43,29.19,29.19,0,0,0-.91,4.52c-.47,2.38-2,2.86-3.92,3.87-4.75,2.53-6.33,8.22-6,13.27.44,5.79,3.29,11.13,7.12,15.41a32.33,32.33,0,0,0,18.1,10.22c1.16.22,1.67-1.49.5-1.79a16.2,16.2,0,0,0-16.9,5.88c-.73.94.88,1.87,1.6.93Z"/><path class="cls-1" d="M451.13,237.72c25.7-2,56.66-7.17,68.11-33.85a34.91,34.91,0,0,0,2.54-19.4l-2.4.66a3.91,3.91,0,0,1-1.34,4l1.76,1.76a9.09,9.09,0,0,0,2.16-5.59l-2.32.63a13.27,13.27,0,0,1,1.09,5.19,1.25,1.25,0,0,0,2.49,0,16.42,16.42,0,0,0-1.43-6.44c-.53-1.22-2.27-.49-2.32.62a6.13,6.13,0,0,1-1.43,3.83,1.25,1.25,0,0,0,1.76,1.76,6.35,6.35,0,0,0,2-6.4c-.36-1.59-2.65-.89-2.4.66,2.44,15.35-7.5,30-20,37.9-14.28,9-31.75,10.9-48.21,12.2-1.58.12-1.6,2.61,0,2.49Z"/><path d="M61.2,215.1c.17-.5.34-1,.52-1.49a1.25,1.25,0,0,0-.87-1.53,1.27,1.27,0,0,0-1.53.87c-.18.5-.35,1-.52,1.49a1.25,1.25,0,0,0,.86,1.53,1.29,1.29,0,0,0,1.54-.87Z"/><path d="M196.39,229.9c5,1.41,6.83,8,7.77,12.53a35.41,35.41,0,0,1-.44,16,.31.31,0,0,0,.6.17,36.17,36.17,0,0,0,.05-18c-1.12-4.32-3-9.95-7.82-11.3a.31.31,0,0,0-.16.6Z"/><path d="M200.81,244.11a42.77,42.77,0,0,1,.06,11c0,.4.58.39.63,0a43.7,43.7,0,0,0-.06-11c-.06-.39-.68-.39-.63,0Z"/><path d="M73.31,213.7c4.12,1.72,1.61,6.65,0,9.19-.22.33.32.64.54.31,1.9-2.94,4.19-8.2-.35-10.1-.37-.15-.53.45-.16.6Z"/><path d="M71.53,216.44a3.76,3.76,0,0,1,0,5c-.26.3.17.74.44.44A4.41,4.41,0,0,0,72,216c-.26-.3-.7.14-.44.44Z"/><path d="M3,193.84c1.47-2,8.86-10.58,11.75-6.88.25.32.68-.12.44-.44-3.38-4.33-10.88,4.55-12.73,7-.24.32.3.63.54.32Z"/><path d="M8.16,192.59a15.49,15.49,0,0,1,5.24-2.35c.38-.09.22-.69-.17-.6a16.46,16.46,0,0,0-5.39,2.41c-.32.23,0,.77.32.54Z"/><path d="M566.89,181.5a15.72,15.72,0,0,1,7.23-7.09,19.92,19.92,0,0,1,5.74-1.77c1.45-.23,5.33-1,6.19.64.18.36.72,0,.53-.31-.65-1.27-2-1.25-3.31-1.23a23.16,23.16,0,0,0-7.38,1.26,16.71,16.71,0,0,0-9.54,8.19c-.18.36.36.67.54.31Z"/><path d="M575.82,177.51a26,26,0,0,1,9.18-1.29c.4,0,.4-.61,0-.62a26.16,26.16,0,0,0-9.34,1.31c-.38.13-.22.73.16.6Z"/><path d="M583.91,179.66a1.6,1.6,0,0,1,2.47,0c.26.31.69-.13.44-.44a2.22,2.22,0,0,0-3.35,0c-.25.31.19.75.44.44Z"/><path d="M50.83,112.86a19.81,19.81,0,0,1,11.89,4.5,25.88,25.88,0,0,1,5,5.62c1,1.53,4,5.54,2.52,7.38-.31.4.33.85.64.45,1.1-1.41.36-3-.34-4.42a28.84,28.84,0,0,0-5.32-7.74,21,21,0,0,0-14.35-6.57c-.5,0-.57.76-.07.78Z"/><path d="M60.07,120.94a32.09,32.09,0,0,1,6.3,9.78c.19.46.9.13.71-.33a32.71,32.71,0,0,0-6.41-9.95c-.34-.37-.94.13-.6.5Z"/><path d="M61.88,131.29a2,2,0,0,1,1.29,2.82c-.22.45.52.72.73.27a2.79,2.79,0,0,0-1.75-3.83c-.48-.12-.75.61-.27.74Z"/><path d="M112.32,232.82a38.46,38.46,0,0,1,17.09-13c1.48-.57.83-3-.66-2.4a41.46,41.46,0,0,0-18.58,14.17c-1,1.28,1.21,2.53,2.15,1.25Z"/><path d="M552,185.64h-.17a1.24,1.24,0,0,0,0,2.48H552a1.25,1.25,0,0,0,1.24-1.24,1.27,1.27,0,0,0-1.24-1.24Z"/><path d="M213.85,262.4h-.12a1.25,1.25,0,1,0,0,2.49h.12a1.25,1.25,0,1,0,0-2.49Z"/><path d="M233.89,279.27a33,33,0,0,1,12.72-12.39c.35-.19,0-.73-.31-.54a33.74,33.74,0,0,0-13,12.61.31.31,0,0,0,.54.32Z"/><path d="M236.85,280a112.67,112.67,0,0,1,10.53-9.73c.31-.25-.13-.69-.44-.44a112.67,112.67,0,0,0-10.53,9.73c-.27.29.17.73.44.44Z"/><path d="M240.19,280.36l7.7-7.55c.29-.28-.15-.72-.44-.44l-7.7,7.55c-.29.28.15.72.44.44Z"/><path d="M574.34,37.38A41.75,41.75,0,0,1,590,53.49c.24.44.92,0,.68-.4a42.58,42.58,0,0,0-16-16.39.39.39,0,0,0-.4.68Z"/><path d="M573.4,41.13a142.81,142.81,0,0,1,12.33,13.34c.32.39.87-.17.56-.56A144.08,144.08,0,0,0,574,40.57c-.37-.35-.93.21-.56.56Z"/><path d="M573,45.36l9.57,9.76c.35.36.91-.2.55-.56l-9.57-9.76c-.35-.36-.91.19-.55.56Z"/><path d="M572.26,48.93q3,3.12,6.11,6.23a.25.25,0,0,0,.35-.35l-6.11-6.24c-.22-.23-.58.13-.35.36Z"/><path d="M243.4,280.59l6.33-6.29a.31.31,0,0,0-.44-.44L243,280.15a.31.31,0,0,0,.44.44Z"/><path class="cls-1" d="M139.61,220.8a4.89,4.89,0,0,1,4.48,2c.92,1.29,3.08,0,2.15-1.26a7.39,7.39,0,0,0-6.63-3.2c-1.58.13-1.6,2.62,0,2.49Z"/><path d="M291.44,285.92a46.23,46.23,0,0,1-.81,6.53c-.07.39.53.56.6.16a48.54,48.54,0,0,0,.84-6.69c0-.4-.6-.4-.63,0Z"/><path d="M294.47,285.59l-.7,7c0,.4.58.39.62,0l.7-7c0-.39-.58-.39-.62,0Z"/><path d="M297.12,284.86a19.88,19.88,0,0,0-.75,7c0,.39.66.4.63,0a18.93,18.93,0,0,1,.72-6.86.31.31,0,0,0-.6-.17Z"/><path d="M299.45,282.87a29.3,29.3,0,0,0-.77,7.69.31.31,0,0,0,.62,0,28.85,28.85,0,0,1,.75-7.52c.09-.39-.51-.56-.6-.17Z"/><path d="M301.72,283.27c-.15,2-.29,4-.44,6,0,.4.6.4.63,0q.21-3,.43-6c0-.4-.6-.4-.62,0Z"/><path d="M303,283.93l-.26,4.3c0,.4.6.39.62,0l.26-4.3c0-.4-.6-.4-.62,0Z"/><path d="M305,282.6v4.64a.31.31,0,0,0,.62,0V282.6a.31.31,0,0,0-.62,0Z"/><path d="M34.35,199.72c-5.4.24-6.17,8.43-4.58,12.26,2.4,5.75,9.47,7.12,14.83,5,5-1.92,8.6-6.81,6.93-12.25-1.72-5.6-7.7-8-13.09-6.44a1.25,1.25,0,0,0,.66,2.4c3.91-1.16,8.45.25,9.92,4.35,1.36,3.77-.72,7.29-4.08,9.07s-8.23,2-11.22-.77a7,7,0,0,1-2.2-5.12c0-1.75.42-5.94,2.83-6,1.59-.07,1.6-2.56,0-2.49Z"/><path d="M41.78,202.76c-4.08-1.71-6.76,3-6.24,6.48a4.46,4.46,0,0,0,3.13,3.87c1.95.54,3.84-.29,5.51-1.22,1.4-.78.14-2.93-1.26-2.15-1.66.92-4.34,2-4.9-.71-.41-1.91.72-4.87,3.1-3.87,1.47.61,2.12-1.79.66-2.4Z"/><path d="M49.6,196.73l.52-1A1.24,1.24,0,0,0,48,194.49l-.52,1a1.25,1.25,0,0,0,2.15,1.26Z"/><path d="M55.07,202.32l1-.25a1.25,1.25,0,0,0,.87-1.53,1.27,1.27,0,0,0-1.53-.87l-1,.25a1.25,1.25,0,0,0-.87,1.53,1.27,1.27,0,0,0,1.53.87Z"/><path d="M24.48,203.44a4,4,0,0,0,2.63,1.32,1.24,1.24,0,0,0,1.24-1.25,1.27,1.27,0,0,0-1.24-1.24c.3,0-.14-.06-.2-.07s-.13,0,0,0l-.19-.1-.18-.12h0a2.91,2.91,0,0,1-.3-.31,1.25,1.25,0,0,0-1.76,0,1.27,1.27,0,0,0,0,1.76Z"/><path d="M28.71,217.54l2.22-1a1.25,1.25,0,0,0,.44-1.7,1.27,1.27,0,0,0-1.7-.45l-2.21,1a1.25,1.25,0,0,0-.45,1.7,1.27,1.27,0,0,0,1.7.45Z"/><path d="M40.61,221.15a2.2,2.2,0,0,0,.53,2.21,1.26,1.26,0,0,0,1.76,0,1.27,1.27,0,0,0,0-1.76c-.18-.18.15.24,0,0l.07.16q0-.15,0,0c0,.24,0,0,0-.05l0,.19s0-.09,0-.14a1.25,1.25,0,0,0-.87-1.53,1.27,1.27,0,0,0-1.53.87Z"/><path d="M51,217.74q.21,0-.15-.06a.48.48,0,0,1-.37-.17.75.75,0,0,1-.23-.52,1.25,1.25,0,0,0,1.24,1.24A1.27,1.27,0,0,0,52.73,217,1.71,1.71,0,0,0,51,215.26a1.24,1.24,0,1,0,0,2.48Z"/><path d="M36.46,194.61l.74.25a1.25,1.25,0,0,0,.67-2.4l-.75-.25a1.24,1.24,0,0,0-1.53.87,1.27,1.27,0,0,0,.87,1.53Z"/><path d="M261.66,317.74l14.22-3,6.64-1.39c2.31-.48,6.62-2.22,7.05,1.7.33,3.11-3.3,3.38-5.44,4-2.4.68-4.79,1.33-7.2,2q-7,1.83-14,3.43l1.07,1.06c.37-2-.22-4-2.57-3.84l.89,1.51a4.28,4.28,0,0,0-1.62-6.78,1,1,0,0,0-.74,1.75,2.39,2.39,0,0,1,.86,3.88c-.6.67.12,1.56.88,1.51a1.49,1.49,0,0,1,.42,1.73,1,1,0,0,0,1.07,1.06c6.31-1.44,12.57-3,18.8-4.72,4-1.1,10-1.48,9.48-6.81-.16-1.72-.69-3.61-2.54-4.17-2.27-.69-5.36.58-7.59,1.05l-19.92,4.16c-1.18.25-.93,2.13.27,1.88Z"/><path d="M259.88,316.18q-4.8,4-9.89,7.69a1,1,0,0,0,.46,1.69q6.11.57,12.24.77c1.2,0,1.46-1.84.24-1.88q-6.14-.19-12.24-.77c.15.56.3,1.13.46,1.69q5.09-3.64,9.88-7.69c.93-.79-.22-2.29-1.15-1.5Z"/><path d="M253.79,322.77a8.28,8.28,0,0,0-2.65.88,1,1,0,0,0,.25,1.81,5.47,5.47,0,0,0,4.55-1.66.94.94,0,0,0-.17-1.33,2.42,2.42,0,0,0-3.71,1.48c-.16.64.53,1.09,1.07,1.06l1.33-.08c1.21-.07.94-1.95-.27-1.88l-1.32.08c.35.36.71.71,1.07,1.06a.52.52,0,0,1,.67-.22l-.17-1.33a3.47,3.47,0,0,1-2.81.95c.08.6.17,1.2.25,1.81a6.51,6.51,0,0,1,2.17-.75,1,1,0,0,0-.26-1.88Z"/><path d="M262.3,323.07q11.13-3.35,22.48-5.88l2.76-.6a10.1,10.1,0,0,0,2.76-.57,1.67,1.67,0,0,0,1-1.4,4,4,0,0,0-2.53-4.41l-.24,1.81,5.8-1.26c1.19-.25,2.72-1,3.77.14a5.75,5.75,0,0,1,.81,2.58c-.13,2.26-3.05,2.46-4.65,3l-6.1,1.88c-1.17.36-.42,2.1.74,1.75,3.13-1,6.56-1.67,9.56-3,2-.87,2.62-2.55,2.19-4.63-.31-1.52-1.06-3.68-2.77-4.11-1.34-.34-3,.36-4.26.64l-5.35,1.17A1,1,0,0,0,288,312c.73.31,1.81,1.55,1.07,2.37-.22.25-1.49.31-1.84.38-1.22.26-2.45.53-3.67.81q-3.9.87-7.77,1.85-7.18,1.81-14.27,3.95c-1.17.35-.42,2.1.74,1.75Z"/><path d="M298.16,309.88c.78-.27,1.74-.65,2.48-.13a3.39,3.39,0,0,1,.89,1.95c.21.87.25,1.71-.62,2.22a5.36,5.36,0,0,1-1.77.49,1,1,0,0,0,.27,1.87c2.83-.48,4.76-2,3.94-5.09a5,5,0,0,0-1.74-3.12c-1.28-.85-2.85-.41-4.18.07-1.15.4-.41,2.15.73,1.74Z"/><path d="M42.23,178.48l-6.66.47-3.11.22c-1.08.07-3.15.59-3.1-1.22,0-1.44,1.71-1.33,2.72-1.47l3.4-.45q3.3-.41,6.6-.69l-.42-.55c-.29.9-.15,1.83.93,1.91l-.3-.74a2,2,0,0,0,.31,3.18c.49.28.93-.47.44-.74a1.1,1.1,0,0,1-.14-1.82c.31-.27,0-.72-.31-.75a.69.69,0,0,1-.09-.81.43.43,0,0,0-.42-.55c-3,.26-5.91.58-8.85,1-1.87.25-4.64,0-4.74,2.5a2,2,0,0,0,.9,2.06c1,.46,2.47.07,3.52,0l9.32-.66c.56,0,.56-.91,0-.87Z"/><path d="M42.94,179.31q2.45-1.55,5-2.89a.44.44,0,0,0-.11-.8c-1.83-.42-3.67-.8-5.52-1.11-.55-.1-.78.74-.23.84,1.85.31,3.69.69,5.52,1.11l-.1-.79q-2.55,1.34-5,2.88c-.47.3,0,1.06.43.76Z"/><path d="M46.13,176.69a3.91,3.91,0,0,0,1.26-.24.44.44,0,0,0,0-.84,2.54,2.54,0,0,0-2.18.47.44.44,0,0,0,0,.62,1.11,1.11,0,0,0,1.78-.44c.11-.29-.17-.53-.42-.55l-.61-.05c-.56,0-.56.83,0,.87l.61.05-.42-.55c0,.1-.25.12-.32.06v.61a1.59,1.59,0,0,1,1.34-.25v-.84a3.1,3.1,0,0,1-1,.2.44.44,0,0,0,0,.88Z"/><path d="M42.27,176c-3.52.55-7.05,1-10.6,1.27l-1.29.1a4.55,4.55,0,0,0-1.29.09.75.75,0,0,0-.55.57,1.83,1.83,0,0,0,.87,2.17l.22-.81-2.71.21c-.56,0-1.3.28-1.71-.3A2.56,2.56,0,0,1,25,178.1c.2-1,1.54-.93,2.3-1.06l2.9-.47c.55-.1.32-.94-.23-.85a41,41,0,0,0-4.54.77,1.73,1.73,0,0,0-1.29,2c.05.71.26,1.74,1,2a4.57,4.57,0,0,0,2,0l2.51-.19a.44.44,0,0,0,.22-.81c-.31-.19-.73-.82-.34-1.15.12-.1.7,0,.86-.06l1.72-.13q1.83-.16,3.66-.36c2.25-.25,4.5-.56,6.74-.91.55-.09.32-.93-.23-.84Z"/><path d="M25.12,179.78c-.37.08-.83.19-1.13-.09a1.56,1.56,0,0,1-.29-.94c0-.42,0-.8.42-1a2.62,2.62,0,0,1,.84-.11.44.44,0,0,0,0-.87c-1.32,0-2.29.61-2.11,2.07a2.29,2.29,0,0,0,.6,1.53,2.11,2.11,0,0,0,1.91.23c.55-.11.32-1-.23-.84Z"/><path d="M257.58,232c.45,1.66.94,3.3,1.47,4.94s2.89.86,2.4-.67-1-3.27-1.47-4.93a1.25,1.25,0,0,0-2.4.66Z"/><path d="M263.4,232.34a6.51,6.51,0,0,0,1.18,3.11,1.29,1.29,0,0,0,1.7.44,1.25,1.25,0,0,0,.45-1.7,4,4,0,0,1-.84-1.85,1.29,1.29,0,0,0-1.25-1.25,1.25,1.25,0,0,0-1.24,1.25Z"/><path d="M267.28,232.83a4.17,4.17,0,0,0,1,1.9,1.26,1.26,0,0,0,1.76,0,1.27,1.27,0,0,0,0-1.76l0,0-.09-.15c-.06-.09-.1-.18-.15-.27l0,.09-.06-.17a1.87,1.87,0,0,1-.08-.34,1.25,1.25,0,0,0-1.53-.87,1.27,1.27,0,0,0-.87,1.53Z"/><path d="M271.21,231l.69,1.48a1.26,1.26,0,0,0,1.71.45,1.28,1.28,0,0,0,.44-1.7l-.69-1.48a1.25,1.25,0,0,0-1.7-.45,1.28,1.28,0,0,0-.45,1.7Z"/><path d="M273.88,226.37l2.19,6.13c.54,1.49,2.94.85,2.4-.66l-2.19-6.13c-.54-1.5-2.95-.85-2.4.66Z"/><path d="M321.81,265c2.57-1.43,5.72-1.1,8.43-2.25,1.46-.62.2-2.76-1.26-2.14-2.73,1.15-5.79.77-8.43,2.24-1.4.78-.15,2.93,1.26,2.15Z"/><path d="M325.05,267.08l2.13-.59a1.25,1.25,0,0,0-.66-2.4l-2.13.59a1.25,1.25,0,0,0,.66,2.4Z"/><path d="M239.32,224.14l16.5,67.61c.48,2,3.5,1.13,3-.83l-16.5-67.61c-.48-2-3.5-1.13-3,.83Z"/><path d="M241.17,224.48c12.76-4.9,26.22-7.29,39.66-9.47q21.44-3.47,42.87-6.89c2-.32,1.14-3.34-.83-3Q301.43,208.55,280,212c-13.44,2.18-26.89,4.57-39.65,9.47-1.86.71-1.05,3.74.83,3Z"/><path d="M258.66,293.16c13.34-.13,26.62-4.67,39.47-7.83l41.28-10.15c2-.48,1.13-3.51-.83-3L298.49,282c-12.93,3.18-26.41,7.87-39.83,8a1.57,1.57,0,0,0,0,3.13Z"/><path d="M335.41,256q2.54,8.78,4.43,17.7c.42,2,3.44,1.14,3-.83q-1.89-8.94-4.43-17.7c-.56-1.93-3.58-1.11-3,.83Z"/><path d="M322.88,206.68a293.88,293.88,0,0,0,11.8,46.84c.65,1.9,3.68,1.08,3-.83a293.88,293.88,0,0,1-11.8-46.84c-.33-2-3.34-1.14-3,.83Z"/><path d="M248,227.3q7.92,29,15.82,58a1.57,1.57,0,0,0,3-.83q-7.9-29-15.82-58a1.57,1.57,0,0,0-3,.84Z"/><path d="M251,228.24a426.54,426.54,0,0,1,68.85-13.51l-1.51-1.15q6.62,27.12,15.3,53.66c.63,1.91,3.65,1.09,3-.83q-8.67-26.54-15.3-53.67a1.58,1.58,0,0,0-1.51-1.15,433.58,433.58,0,0,0-69.69,13.63,1.57,1.57,0,0,0,.84,3Z"/><path d="M266.8,286.91q33.9-8.48,68-16.31c2-.45,1.13-3.47-.83-3q-34.06,7.83-68,16.31c-1.95.49-1.12,3.51.84,3Z"/><path d="M287.19,287.29c-.29,1.69-1.68,5.06.15,6.34,1.07.76,3.1.35,4.25.27a51.09,51.09,0,0,0,5.5-.72,43.71,43.71,0,0,0,5.51-1.43c1.47-.48,3.84-1,5-2.05,2-1.79,1-6,.64-8.37a1.59,1.59,0,0,0-1.51-1.15l-1,0c-2-.1-2,3,0,3.13l1,0-1.52-1.15c.15,1.06.22,2.12.28,3.18.08,1.57.39,1.57-.74,2.27a20.36,20.36,0,0,1-5.2,1.78c-3.16.86-7.8,2.26-11,1.38l1.09,1.1c-.33-.85.42-2.87.57-3.75.35-2-2.67-2.82-3-.83Z"/><path d="M285.91,287.92a135.66,135.66,0,0,0-14.49,10.51,1.58,1.58,0,0,0,1.11,2.67,153.17,153.17,0,0,0,27.74-4.29c4.56-1.15,9.08-2.52,13.52-4.11,3.31-1.19,6.3-2.5,8.4-5.43.78-1.08-.31-2.23-1.35-2.36q-6.87-.84-13.8-1c-2-.05-2,3.08,0,3.13q6.93.16,13.8,1l-1.35-2.36c-2.3,3.19-6.9,4.17-10.44,5.32q-5.88,1.92-11.91,3.34A148,148,0,0,1,272.53,298l1.11,2.68a128.27,128.27,0,0,1,13.85-10c1.71-1.07.14-3.78-1.58-2.71Z"/><path class="cls-1" d="M8.88,291.74c-3.89-4.22.61-10.81,6-8.43a1.26,1.26,0,0,0,1.87-1.07,6.92,6.92,0,0,1,8.59-6.53,1.26,1.26,0,0,0,1.53-1.53c-.91-6,.14-12.69,6.47-15.24,5.49-2.2,11.34.8,13.57,6.09a1.23,1.23,0,0,0,1.4.57c4.42-1.59,9.49-3.26,14.18-1.87,3.91,1.17,7.19,4.58,6.82,8.83a1.27,1.27,0,0,0,1.24,1.25A7.42,7.42,0,0,1,77.18,279a9.33,9.33,0,0,1-1.8,8.67c-4.32,5.62-11.82,6.32-18.39,6a1.28,1.28,0,0,0-1.25,1.25,9.87,9.87,0,0,1-17.81,5.12,1.26,1.26,0,0,0-2-.25,8,8,0,0,1-13.68-3.62,1.26,1.26,0,0,0-1.83-.75,11.91,11.91,0,0,1-4.06,1.49c-1.6.17-4.15-.57-3.71-2.78.31-1.57-2.08-2.24-2.4-.67a4.89,4.89,0,0,0,3,5.52c2.84,1.28,5.9-.13,8.46-1.41l-1.83-.74a10.54,10.54,0,0,0,17.84,4.72l-2-.25a12.7,12.7,0,0,0,13.56,5,12.71,12.71,0,0,0,8.89-11.37L57,296.17c8.31.42,18.3-1.28,22.06-9.79,2.84-6.45-1-14.87-8.54-15.06l1.25,1.24c.4-4.73-2.85-8.77-7-10.63-5.5-2.44-11.76-.66-17.12,1.27l1.41.57a13,13,0,0,0-16.69-7.12c-7.56,3.07-9,10.9-7.9,18.19L26,273.31a9.44,9.44,0,0,0-11.74,8.93l1.87-1.08a8,8,0,0,0-9.82,2.29,8,8,0,0,0,.85,10.05c1.09,1.18,2.85-.58,1.76-1.76Z"/><path class="cls-1" d="M33.2,285.25a.55.55,0,0,1-.36,0c.13,0,.1,0-.09-.05.21.11-.18-.19,0,0s-.14-.24,0,.05-.12-.22,0,0a.83.83,0,0,1,0,.15c0-.2,0-.24,0-.1s0,.2,0,0c0,.19.17-.23,0,0A.56.56,0,0,1,33,285c-.09.05-.08.05,0,0s.1,0,0,0a.52.52,0,0,1,.35,0c-.12,0-.1,0,.09.05-.09-.06-.09-.05,0,0h0c-.09-.09-.07-.07,0,.07,0,0-.17-.33-.09-.13s0-.13,0-.17c0,.2,0,.23,0,.09s0-.1,0,0-.1.25,0,.11c-.12.15-.14.17-.05.08-.15.11-.16.13,0,.06l-1.88-1.07c0,.42,0,.85,0,1.28a1.25,1.25,0,0,0,2.49,0c0-.43,0-.86,0-1.28A1.26,1.26,0,0,0,32,283.06c-2.37,1.22-.51,5.3,2,4.25a2.27,2.27,0,0,0,1.17-2.76,2.4,2.4,0,0,0-.76-1.23,2.18,2.18,0,0,0-1.84-.47,1.24,1.24,0,1,0,.66,2.4Z"/><path class="cls-1" d="M46.07,280.47c-2.19-1.35-4.35,2.26-2.19,3.64a1.26,1.26,0,0,0,1.26,0,3.26,3.26,0,0,0,1.55-3.41,1.23,1.23,0,0,0-.87-.87,3.67,3.67,0,0,0-3,.24A2.27,2.27,0,0,0,42,283a1.23,1.23,0,0,0,1.07.61l1.93.08a1.25,1.25,0,0,0,0-2.49l-1.93-.07,1.08.61a.55.55,0,0,1,0,.38c-.07.1-.06.09,0-.05-.19.12.07,0,0,.05a3.25,3.25,0,0,1,.93.12l-.87-.87c0-.22,0,.21,0,0a1,1,0,0,1-.06.25c0-.07,0-.07,0,0a.65.65,0,0,1-.33.34h1.26c.24.16.23.37.28.61s0,0,0-.05-.09.27,0,0c0,.07-.14.14,0,0s0,0-.05,0l-.15.05c.11,0,.1,0,0,0s-.58-.15-.39,0c1.37.84,2.62-1.31,1.25-2.14Z"/><path class="cls-1" d="M52.78,278.24a2.38,2.38,0,0,0-.34,2.73A2.2,2.2,0,0,0,55,282.08a2.42,2.42,0,0,0,1.73-2.25,1.51,1.51,0,0,0-1.2-1.59,3.25,3.25,0,0,0-1.8.08,1.3,1.3,0,0,0-.91,1.2l-.08,1.42a1.25,1.25,0,0,0,2.49,0l.08-1.42-.91,1.2.24-.07.13,0c-.1,0-.11,0,0,0s.26,0,.16,0,.21.08.2.08l-.87-.87c0,.15,0,0,0-.07,0,.27,0-.16,0,0s.09-.19,0,0,.07-.18,0,0-.16.11,0,0c-.13.08,0,0,0,0-.15.06,0,0,.07,0l.14,0c-.1,0-.1,0,0,0s.1,0,0,0l0,0c.07.06.08.07,0,0s0,0,0,0,0-.06,0-.08l.07.15,0-.08,0-.08,0,.16s0-.16,0-.16c0,.18,0,.23,0,.13s0-.05,0,0,0,.1,0,0,0-.05-.07.09a1.24,1.24,0,0,0-1.76-1.76Z"/><path class="cls-1" d="M483.7,274.86c-2-7.55,7.62-12.62,12.52-6.35a1.71,1.71,0,0,0,2.93-.1A9.4,9.4,0,0,1,513.63,266a1.72,1.72,0,0,0,2.82-.87c2.75-7.84,8.25-15.17,17.47-14.2,8,.84,13.12,8.18,12.44,16a1.68,1.68,0,0,0,1.33,1.58c6.32.9,13.47,2.11,18.23,6.78,4,3.89,5.72,10.07,2.57,15a1.71,1.71,0,0,0,.71,2.29A10.11,10.11,0,0,1,573.89,303c-.66,4.3-3.86,7.52-7.68,9.27-8.78,4-18.24.08-25.92-4.51a1.72,1.72,0,0,0-2.29.71c-6.62,10.56-22.89,7.23-24.67-5.18a1.72,1.72,0,0,0-2.19-1.54A10.92,10.92,0,0,1,497,288.73a1.71,1.71,0,0,0-1.72-2.06,16.42,16.42,0,0,1-5.83-.79c-2-.82-4.62-3.34-2.68-5.71,1.37-1.69-1.09-4-2.47-2.33a6.65,6.65,0,0,0,.07,8.52c2.59,3.36,7.16,3.6,11.05,3.69L493.7,288a14.32,14.32,0,0,0,18.43,17L510,303.48c1,7,6,13.15,13.11,14.62a17.27,17.27,0,0,0,17.93-8l-2.29.7c9.72,5.8,22.82,10.12,32.76,2.27,7.52-5.94,8.29-18.49-.68-23.53.24.76.47,1.52.7,2.29,3.5-5.43,2.17-12.36-1.68-17.26-5-6.43-13.72-8.27-21.38-9.36l1.32,1.58a17.67,17.67,0,0,0-15.52-19.18c-11.05-1.12-17.75,7.37-21.08,16.84l2.82-.86a12.84,12.84,0,0,0-19.8,3.25l2.94-.1c-3.11-4-8.55-5.8-13.27-3.5s-6.65,7.75-5.37,12.62c.56,2.11,3.79,1.11,3.24-1Z"/><path class="cls-1" d="M517.06,282.54a.79.79,0,0,1-.43-.23c.13.12.11.08-.08-.13.18.27-.09-.34,0,0s0-.39,0,.07,0-.34,0,0a1.17,1.17,0,0,1,0,.2c.1-.25.11-.3,0-.13s-.17.22,0,0c-.17.2.35-.16,0,0a.77.77,0,0,1,.45-.14c-.14,0-.14,0,0,0s.15,0,0,0a.8.8,0,0,1,.42.23c-.13-.13-.11-.09.07.12-.07-.12-.08-.12,0,0s.06.14,0,0,0-.14,0,.11c0-.06,0-.51,0-.23s0-.18.07-.22c-.1.25-.11.29,0,.13s.07-.13,0,0-.28.24-.1.11c-.25.1-.28.12-.11.07-.25,0-.28,0-.1,0L515.58,280l-.87,1.51a1.69,1.69,0,0,0,3,1.59l.87-1.52a1.71,1.71,0,0,0-1.57-2.48c-3.62,0-4,6-.33,6.36a3.09,3.09,0,0,0,3.17-2.56,3.4,3.4,0,0,0-.13-2,2.93,2.93,0,0,0-1.92-1.73,1.71,1.71,0,0,0-2,1.29,1.75,1.75,0,0,0,1.29,2Z"/><path class="cls-1" d="M535.58,285c-1.78-3-6.68-.05-5,3a1.72,1.72,0,0,0,1.51.8,4.44,4.44,0,0,0,4-3.11,1.66,1.66,0,0,0-.49-1.6c-1-.93-2.32-1.85-3.8-1.64a3.06,3.06,0,0,0-2.78,3,1.69,1.69,0,0,0,.9,1.43l2.27,1.31a1.69,1.69,0,1,0,1.58-3l-2.27-1.31.9,1.42a.64.64,0,0,1-.19.48c-.14.08-.12.07.06,0-.31,0,.06.09,0,0a4.63,4.63,0,0,1,1,.74l-.49-1.59c.11-.29-.16.22,0,0a2,2,0,0,1-.24.26c.09-.06.08-.06,0,0a.87.87,0,0,1-.62.2l1.51.8c.2.34,0,.59,0,.91s-.06,0,0,0-.28.26,0,0c-.08.07-.27.09-.06,0s0,0-.08,0l-.21,0c.14,0,.14,0,0,0s-.6-.56-.45-.3c1.11,1.88,4,.1,2.88-1.78Z"/><path class="cls-1" d="M545.06,286.57a3.22,3.22,0,0,0-2.14,3.06,3,3,0,0,0,2.31,2.93,3.29,3.29,0,0,0,3.52-1.59,2.06,2.06,0,0,0-.44-2.68,4.46,4.46,0,0,0-2.21-1.05,1.77,1.77,0,0,0-1.86.87l-1,1.65a1.71,1.71,0,0,0,.7,2.29,1.74,1.74,0,0,0,2.29-.71l1-1.65-1.86.86.35.06.16.05c-.13,0-.13,0,0,0s.28.19.18.1.2.23.2.22l-.49-1.6c0,.22,0,0,0-.07-.13.34.14-.18,0,0s.23-.17.05-.05.2-.17,0,0-.26,0,0,0c-.2,0,0,0,.07,0-.22,0,0,0,.08,0l.16.12c-.1-.1-.1-.1,0,0s.09.11,0,0,0-.06,0,.05.06.13,0,0,0-.07,0,.05c.07.29,0-.11,0-.11l0,.21,0-.11,0-.11-.08.22a1.86,1.86,0,0,1,.11-.19q-.23.3-.09.15c.06-.06.05-.05,0,0s-.11.1,0,.05.06,0-.14.06a1.69,1.69,0,0,0-1-3.23Z"/><path class="cls-1" d="M528.23,70.63a3.44,3.44,0,0,1,3.89-5.52.82.82,0,0,0,1.23-.7A4.52,4.52,0,0,1,539,60.14a.82.82,0,0,0,1-1c-.59-4,.1-8.31,4.24-10a6.91,6.91,0,0,1,8.88,4,.82.82,0,0,0,.92.37c2.89-1,6.21-2.14,9.28-1.22,2.56.76,4.7,3,4.46,5.78a.83.83,0,0,0,.82.81,4.86,4.86,0,0,1,4.36,3.42A6.06,6.06,0,0,1,571.75,68c-2.83,3.69-7.74,4.14-12,3.92a.83.83,0,0,0-.81.82,6.46,6.46,0,0,1-11.66,3.35A.83.83,0,0,0,546,75.9a5.25,5.25,0,0,1-9-2.37.83.83,0,0,0-1.2-.48,8,8,0,0,1-2.65,1c-1.06.11-2.72-.38-2.43-1.82.2-1-1.37-1.46-1.57-.44a3.2,3.2,0,0,0,1.94,3.61c1.86.85,3.86-.08,5.54-.92l-1.2-.48a6.9,6.9,0,0,0,11.67,3.09l-1.28-.17a8,8,0,0,0,14.7-4.17l-.82.81c5.44.28,12-.84,14.45-6.41,1.86-4.22-.64-9.73-5.59-9.86l.81.82c.27-3.1-1.86-5.75-4.6-7-3.6-1.6-7.7-.43-11.2.83l.92.37a8.51,8.51,0,0,0-10.92-4.66c-5,2-5.89,7.13-5.18,11.91l1-1a6.18,6.18,0,0,0-7.69,5.84L533,63.7a5,5,0,0,0-5.87,8.08c.71.77,1.86-.38,1.15-1.15Z"/><path class="cls-1" d="M544.29,68.2a.43.43,0,0,1-.25,0c.09,0,.07,0-.07,0,.15.08-.13-.13,0,0s-.1-.17,0,0-.09-.16,0,0a.26.26,0,0,1,0,.11c0-.14,0-.16,0-.07s0,.15,0,0c0,.14.12-.17,0,0a.42.42,0,0,1,.17-.18c-.06,0-.06,0,0,0s.07,0,0,0a.43.43,0,0,1,.25,0c-.09,0-.07,0,.07,0-.07,0-.07,0,0,0h0c-.07-.07-.06,0,0,0s-.13-.23-.07-.1,0-.09,0-.12c0,.14,0,.16,0,.07h0s-.07.19,0,.08q-.14.16,0,.06c-.11.08-.12.1,0,0L543,67.45v.92a.89.89,0,0,0,1.78-.07v-.92a.89.89,0,0,0-1.36-.71c-1.66.93-.22,3.8,1.53,3a1.61,1.61,0,0,0,.76-2,1.81,1.81,0,0,0-.58-.86,1.55,1.55,0,0,0-1.33-.28.89.89,0,0,0,.54,1.7Z"/><path class="cls-1" d="M553.35,64.41c-1.61-.89-3.05,1.74-1.46,2.67a.88.88,0,0,0,.9,0,2.33,2.33,0,0,0,1-2.48.88.88,0,0,0-.65-.59,2.56,2.56,0,0,0-2.16.26,1.6,1.6,0,0,0-.46,2.1.87.87,0,0,0,.78.41h1.38a.89.89,0,0,0-.07-1.78h-1.38l.78.41a.32.32,0,0,1,0,.27c0,.07,0,.06,0,0-.14.09,0,0,0,0a2.31,2.31,0,0,1,.67.06l-.65-.59c0-.16,0,.14,0,0a1.29,1.29,0,0,1,0,.19c0-.06,0-.06,0,0a.46.46,0,0,1-.22.25l.89,0c.18.1.18.25.22.42s0,0,0,0-.05.19,0,0c0,0-.1.11,0,0s0,0,0,0l-.11.05c.08,0,.08,0,0,0s-.43-.09-.29,0a.89.89,0,0,0,.84-1.57Z"/><path class="cls-1" d="M558.08,62.63a1.7,1.7,0,0,0-.17,2,1.57,1.57,0,0,0,1.83.72,1.74,1.74,0,0,0,1.18-1.65,1.08,1.08,0,0,0-.91-1.1,2.24,2.24,0,0,0-1.28.11.93.93,0,0,0-.62.88v1a.88.88,0,0,0,.92.85.91.91,0,0,0,.86-.92v-1l-.62.88.18-.06.08,0c-.07,0-.07,0,0,0h.11c-.09,0,.15,0,.14,0l-.64-.59c0,.11,0,0,0,0,0,.19,0-.12,0,0s.06-.14,0,0,0-.13,0,0-.11.09,0,0c-.09.06,0,0,0,0-.11,0,0,0,0,0h.11c-.07,0-.08,0,0,0h0s0,0,0,0,.06.05,0,0,0,0,0,0-.05,0,0-.06l.05.1,0,0v-.06l0,.12v-.12c0,.13,0,.17,0,.1s0,0,0,0,0,.08,0,0l0,.07a.91.91,0,0,0,0-1.26.89.89,0,0,0-1.25.05Z"/><path d="M178.3,306.31a41.56,41.56,0,0,0-3.47-13.13l-.45,1.71a60.31,60.31,0,0,1,12.74-4.3,1.25,1.25,0,0,0,.3-2.27c-3-1.43-6.86-3.48-5.63-7.42.94-3,4.05-5.26,7-5.87a7.2,7.2,0,0,1,7.81,3.18,7,7,0,0,1-.22,8,1.25,1.25,0,0,0,1.21,2.08q6.85-1.56,13.8-2.72l-1.58-1.2a72.54,72.54,0,0,0,2.65,13.54l1.53-1.53c-6-2.1-12,3.5-9.79,9.58s10,6.38,13.49,1.38l-2.28-.3,3.17,12.62,1.2-1.57a68.83,68.83,0,0,0-22.15,1.89,96.31,96.31,0,0,0-10.5,3.61,7.35,7.35,0,0,1-2.73.7c-1.93-.16-2.06-1.41-2.24-2.79a25.88,25.88,0,0,0-.57-4.38l-1.2,1.58c3.08-.1,6.35-.65,8.63-2.9a6.86,6.86,0,0,0,1.91-7.19c-2.28-6.15-9.82-5.14-14.35-2.56a1.24,1.24,0,0,0,1.25,2.15c3.11-1.77,8.39-3.25,10.55.79,2.66,5-4.56,7.11-8,7.22a1.25,1.25,0,0,0-1.2,1.57c.81,2.7-.14,6.31,2.51,8.2,3.15,2.24,7.55-.68,10.58-1.77a66.77,66.77,0,0,1,27.5-3.63A1.26,1.26,0,0,0,221,319l-3.17-12.62a1.26,1.26,0,0,0-2.27-.3,5.09,5.09,0,0,1-9.14-1.39c-1.14-4.2,3.08-7.26,6.92-5.91a1.26,1.26,0,0,0,1.54-1.53,69,69,0,0,1-2.56-12.88,1.28,1.28,0,0,0-1.58-1.2q-6.93,1.15-13.79,2.72c.4.69.81,1.38,1.21,2.08,5.63-6.87-.95-16.76-9.37-15.4a12,12,0,0,0-9.41,7.72c-1.63,5.11,2.71,8.28,6.77,10.22l.3-2.27a63.08,63.08,0,0,0-13.34,4.55,1.26,1.26,0,0,0-.44,1.7,37.92,37.92,0,0,1,3.14,11.87c.15,1.58,2.64,1.59,2.48,0Z"/><path d="M267,244.26c-.57,1.55-.88,3.4.41,4.69s3.19.77,4.36-.41,2.09-3,1.43-4.62a2.7,2.7,0,0,0-3.81-1.43,1.24,1.24,0,0,0,1.25,2.15c.28-.17.27.6.24.72a3.26,3.26,0,0,1-1.08,1.62c-1.32,1-.56-1.61-.4-2.06.55-1.51-1.85-2.15-2.4-.66Z"/><path d="M284.7,233.55a2.37,2.37,0,0,0-2.1,3.76c1.2,1.8,4,1.72,5.85,1.25a6.57,6.57,0,0,0,4.57-4.09c.76-2.74-2.7-2.82-4.48-2.7-1.59.1-1.6,2.59,0,2.49a6.29,6.29,0,0,1,2.83.27l-.75-.57c.16.32-1.67,1.76-2.1,2-1.35.63-2.5.28-3.82.12,1.58.2,1.57-2.29,0-2.49Z"/><path d="M305.86,231.37l-.07-.13a1.2,1.2,0,0,0-1.07-.61h-.16a1.25,1.25,0,0,0-1.08.62c-1.86,4.18,4.57,5.22,7.29,4.7,1.4-.27,3.5-1.38,3-3.15-.45-1.59-3.32-2.14-4.65-2.32-1.56-.21-2.24,2.18-.66,2.4.92.13,2.62.35,3.24,1.13l-.37-.88c-.05,1.09-6.12.34-5.69-.63l-1.07.62h.16l-1.08-.61.07.13c.71,1.43,2.86.17,2.15-1.26Z"/><path d="M272.66,261.67a5.54,5.54,0,0,0,3.3,3.47c1.36.59,3.14,1.08,4.43.08a2.87,2.87,0,0,0,.2-4.1,5.74,5.74,0,0,0-5-1.81c-1.57.18-1.59,2.67,0,2.49a3.77,3.77,0,0,1,2.4.39c.56.32,1.4,1.22.21,1.09a3.83,3.83,0,0,1-3.16-2.27,1.25,1.25,0,0,0-2.4.66Z"/><path d="M293.18,262c-2.26.58-1.78,3.52.18,4.16,2.76.91,6.56-.71,8.89-2.09a1.25,1.25,0,0,0-.63-2.31l-5-.66c-1.58-.21-1.57,2.28,0,2.49l5,.65-.63-2.31a14.44,14.44,0,0,1-3.52,1.51,13.67,13.67,0,0,1-2,.37l-.6,0a.82.82,0,0,0-1,.55,1.25,1.25,0,0,0-.66-2.4Z"/><path d="M311.84,253.75c-.73,1.42-1.17,3.21.11,4.48s3.18.44,4.46-.59a4.25,4.25,0,0,0,1.72-4.39,2.87,2.87,0,0,0-3.51-1.95,1.25,1.25,0,0,0,.67,2.4c.36-.1.48.23.48.54a2,2,0,0,1-.86,1.42c-.16.14-1,.9-1.2.81-.41-.2.16-1.24.28-1.46.73-1.43-1.42-2.69-2.15-1.26Z"/><path d="M286.27,245.57a4,4,0,0,0-.39,7c3.06,1.81,8,1.12,11.15-.19,2.33-1,6.73-3.82,4.26-6.72s-8.77-1.83-12.08-1.23c-1.57.29-.9,2.69.66,2.4a26.24,26.24,0,0,1,6.68-.42c.93.07,3,0,2.67,1.53-.14.62-1.52,1.3-2,1.58A12,12,0,0,1,292.3,251a14.83,14.83,0,0,1-2.21,0,11.8,11.8,0,0,1-1.87-.23c-1.64-.17-1.87-1.21-.7-3.09,1.43-.74.17-2.89-1.25-2.15Z"/><path d="M288.47,240.15l1.75,4.27a1.3,1.3,0,0,0,1.53.87,1.25,1.25,0,0,0,.87-1.53q-.87-2.14-1.76-4.27a1.27,1.27,0,0,0-1.53-.87,1.24,1.24,0,0,0-.86,1.53Z"/><path d="M302.67,244a36.48,36.48,0,0,1,4.68-4.62c1.23-1-.54-2.77-1.76-1.76a37.14,37.14,0,0,0-4.68,4.62c-1,1.21.73,3,1.76,1.76Z"/><path d="M303.13,253.33q3,.87,6,1.57c1.56.36,2.23-2,.67-2.4q-3-.7-6-1.57a1.25,1.25,0,0,0-.66,2.4Z"/><path d="M292.42,257.4l.78,2.29a1.29,1.29,0,0,0,1.53.87,1.25,1.25,0,0,0,.87-1.53l-.78-2.29a1.24,1.24,0,0,0-2.4.66Z"/><path d="M281.75,260.2l3.63-3.16c1.21-1.06-.55-2.81-1.75-1.76L280,258.44c-1.21,1.05.55,2.81,1.76,1.76Z"/><path d="M275,249.37a24.57,24.57,0,0,0,3.66,1.84,1.24,1.24,0,0,0,1.53-.87,1.27,1.27,0,0,0-.87-1.53,19.84,19.84,0,0,1-3.07-1.59c-1.36-.85-2.61,1.3-1.25,2.15Z"/><path d="M432.75,286.07c-2.79-1.5-6.17-3.61-6.16-7.2s3.19-6.32,6.39-7.44c5.73-2,13.6-1.91,18.49,2.09s5.59,11.68-.19,15c-5.5,3.15-13.46,2.71-19.56,2.44a1.26,1.26,0,0,0-1.07,1.87c3.59,6.81,12.3,3.78,17.5,8,.08-.66.17-1.31.25-2-5.32,4.11-12.74,0-18.82,1.06-1.29.21-1.07,2.06,0,2.4l12.07,3.83L441.1,304a2.34,2.34,0,0,1-3.24.46c-.38-1.55-2.78-.9-2.4.66,1,3.94,5.19,2.38,7.4.64.79-.61.25-1.82-.55-2.08l-12.06-3.83v2.4c6.47-1.09,13.57,3.2,19.41-1.31.56-.43.94-1.39.25-2-2.43-1.95-5.2-2.6-8.22-3.08-3.33-.54-7.16-1.09-8.89-4.37l-1.08,1.87c6.52.29,14.56.54,20.51-2.62,5.07-2.7,6.81-8.4,4.8-13.66-2.14-5.61-7.6-8.56-13.33-9.25s-13.53.25-17.44,5.16a9,9,0,0,0-1.79,8.21c1.08,3.31,4.1,5.36,7,6.93,1.41.76,2.67-1.39,1.26-2.15Z"/><path d="M446.67,276.86c1.43.48,3.62,1.13,4.17,2.72.85,2.43-1.82,4.14-3.56,5.19a1.25,1.25,0,0,0,1.26,2.15c2.61-1.58,5.52-4,4.88-7.4-.56-2.94-3.54-4.22-6.09-5.06-1.53-.5-2.18,1.9-.66,2.4Z"/><path d="M419.31,266.32a5.21,5.21,0,0,0,4.09,3.62,1.31,1.31,0,0,0,1.54-.87,1.25,1.25,0,0,0-.87-1.53,2.77,2.77,0,0,1-2.36-1.89c-.48-1.52-2.88-.87-2.4.67Z"/><path d="M437,258.43l1.5,5.26a1.25,1.25,0,0,0,2.4-.66l-1.5-5.26a1.25,1.25,0,0,0-2.4.66Z"/><path d="M451,260.69c-.35,1-.71,2-1.07,3a1.24,1.24,0,1,0,2.4.66c.36-1,.72-2,1.07-3a1.25,1.25,0,0,0-.87-1.53,1.27,1.27,0,0,0-1.53.87Z"/><path d="M459.91,272.89h5.31a1.24,1.24,0,0,0,0-2.48h-5.31a1.24,1.24,0,0,0,0,2.48Z"/><path d="M463.91,286.41l2,.68a1.25,1.25,0,0,0,1.53-.87,1.27,1.27,0,0,0-.87-1.53l-2-.68a1.25,1.25,0,0,0-1.53.87,1.27,1.27,0,0,0,.87,1.53Z"/><path d="M549.24,110c-1.19-2.94-2.44-6.72-.13-9.47s6.49-2.83,9.68-1.64c5.69,2.11,11.67,7.23,12.87,13.42,1.17,6-3.17,12.56-9.73,11.42-6.25-1.09-12.09-6.52-16.6-10.63a1.27,1.27,0,0,0-2,.76c-1.59,7.53,7.05,10.76,8.38,17.3l1.44-1.34c-6.73-.25-9.82-8.12-15.15-11.22-1.13-.66-2.14.9-1.53,1.84l6.83,10.67.9-1.95a2.35,2.35,0,0,1-2.78-1.72c.7-1.44-1.57-2.47-2.26-1-1.77,3.66,2.47,5.15,5.27,5.23,1,0,1.36-1.25.91-1.95l-6.83-10.67L537,120.9c5.67,3.3,8.39,11.14,15.76,11.4.71,0,1.62-.46,1.44-1.34-.62-3.05-2.33-5.32-4.35-7.62-2.21-2.54-4.81-5.41-4-9l-2,.76c4.83,4.39,10.85,9.72,17.45,11.09,5.62,1.17,10.6-2.1,12.42-7.43,1.95-5.69-.37-11.44-4.34-15.64s-10.56-8.45-16.7-7.18a9,9,0,0,0-6.62,5.17c-1.3,3.24-.28,6.74,1,9.82.6,1.49,2.94.64,2.34-.85Z"/><path d="M565.83,111.85c.8,1.27,2.07,3.18,1.47,4.76-.9,2.4-4,2-6,1.71a1.24,1.24,0,0,0-.41,2.45c3,.46,6.78.49,8.48-2.56,1.46-2.62,0-5.51-1.45-7.79-.85-1.36-2.89.07-2,1.43Z"/><path d="M551.54,86.25a5.21,5.21,0,0,0,.83,5.4,1.29,1.29,0,0,0,1.73.31,1.26,1.26,0,0,0,.32-1.74,2.76,2.76,0,0,1-.61-3c.6-1.47-1.66-2.51-2.27-1Z"/><path d="M570.15,91.47l-2.21,5a1.25,1.25,0,0,0,2.27,1l2.21-5a1.25,1.25,0,0,0-2.27-1Z"/><path d="M579.53,102.2l-2.71,1.59a1.24,1.24,0,0,0,1.42,2l2.71-1.59a1.25,1.25,0,0,0,.31-1.73,1.27,1.27,0,0,0-1.73-.31Z"/><path d="M578.55,117.26l4.08,3.39a1.24,1.24,0,0,0,1.59-1.91l-4.08-3.39a1.24,1.24,0,0,0-1.59,1.91Z"/><path d="M573,130.21c.37.59.73,1.19,1.09,1.79a1.26,1.26,0,0,0,1.74.31,1.28,1.28,0,0,0,.31-1.73c-.37-.6-.73-1.2-1.09-1.8a1.27,1.27,0,0,0-1.74-.31,1.29,1.29,0,0,0-.31,1.74Z"/><path d="M545.83,208.71q10.81,23,21.26,46.18c.66,1.46,2.81.19,2.15-1.26Q558.8,230.46,548,207.45c-.68-1.45-2.83-.18-2.15,1.26Z"/><path d="M548.79,207.4q11.6-4.18,22.86-9.24c1.45-.65.19-2.8-1.26-2.15q-11,4.92-22.26,9c-1.49.54-.85,2.95.66,2.4Z"/><path d="M572,196.53a71.49,71.49,0,0,1,5.53,11.37c1.43,3.51,3.15,6.87,4.84,10.26q5.94,11.93,11.89,23.84c.71,1.43,2.86.17,2.15-1.26q-6-11.91-11.89-23.83c-1.86-3.73-3.69-7.42-5.24-11.28a62.44,62.44,0,0,0-5.14-10.36c-.85-1.34-3-.1-2.14,1.26Z"/><path d="M569.44,255.43c4.29-2.48,8.87-3.56,13.38-5.44,4.16-1.73,7.94-4.61,11.74-7,1.35-.85.1-3-1.26-2.15-4.06,2.55-8.15,5.74-12.71,7.33-4.3,1.5-8.42,2.8-12.4,5.1a1.24,1.24,0,0,0,1.25,2.15Z"/><path d="M550.15,212.08q12.23-5.51,24.9-9.9c1.5-.52.86-2.93-.66-2.4q-13,4.5-25.49,10.15c-1.46.66-.2,2.8,1.25,2.15Z"/><path d="M567.32,251.38,594,239.22c1.46-.66.2-2.81-1.25-2.15l-26.64,12.17c-1.45.66-.19,2.8,1.26,2.14Z"/><path d="M325.42,321.61q8.52-19,18.38-37.38l2.51-4.63c.39-.69.77-1.39,1.16-2.09.66-1.19,1-1.55,2.48-1.19a32.27,32.27,0,0,1,4.94,2.18l4.94,2.18,19.77,8.72-.44-1.71q-12,22.32-23.92,44.62l1.71-.44a176.36,176.36,0,0,0-31.62-12.6,1.25,1.25,0,0,0-.66,2.4,171.88,171.88,0,0,1,31,12.35,1.26,1.26,0,0,0,1.7-.45L381.31,289a1.26,1.26,0,0,0-.45-1.7l-21.57-9.51-5.39-2.38c-1.45-.64-3.16-1.73-4.73-2-3-.52-4.12,3.38-5.24,5.41q-11.16,20.37-20.66,41.59c-.65,1.45,1.49,2.71,2.15,1.25Z"/><path d="M369.66,281.81c-1.1-2.69,2.94-2.42,4.41-1.9,1.18.42,2.33.94,3.49,1.42l8.15,3.39,15.87,6.58-.75-1.83A272.18,272.18,0,0,0,377,331.89l1.41-.57-18-6.79c-1.5-.56-2.15,1.84-.66,2.4l18,6.79a1.25,1.25,0,0,0,1.41-.58A272.54,272.54,0,0,1,403,290.73a1.26,1.26,0,0,0-.74-1.83l-23.12-9.59c-2.78-1.16-6.36-3.33-9.45-2a4.09,4.09,0,0,0-2.41,5.2c.59,1.46,3,.82,2.4-.66Z"/><path d="M457.33,335.77l-1.74-11.6c-.14-1-.29-1.93-.43-2.9-.1-.66-.72-2.53-.43-3s4.27-.72,4.81-.8q11.59-1.81,23.25-3.16,5.55-.63,11.11-1.17c3.66-.35,7.45-.95,11.13-1,1.5,0,1.17-.18,1.41,1.06a18.92,18.92,0,0,1,.11,2.92l.21,5.85q.19,5.85.41,11.69c.06,1.6,2.55,1.61,2.49,0q-.26-7.31-.52-14.62c-.08-2.25,0-4.58-.24-6.82-.13-1.13-.37-2-1.55-2.46-1.5-.56-3.68,0-5.23.12-2.26.19-4.51.39-6.77.6-4.68.43-9.34.92-14,1.47q-6.68.79-13.33,1.72c-4.41.62-9.14.92-13.45,2.05-3.15.83-2.19,3.6-1.8,6.18q1.08,7.26,2.17,14.5c.24,1.58,2.63.91,2.4-.66Z"/><path d="M111.29,266c-2.4-2.15-5.48-4.84-5.76-8.29-.3-3.68,3.13-6.34,6.51-6.67,6.81-.68,17.29,6.23,10.89,13.32-2.45,2.72-6.15,3.81-9.45,5.12-1.75.69-4.18,1.79-3.66,4.14.41,1.83,2.48,2.52,4.12,2.67,3.7.34,7.77-.42,11.44-.87l-1.2-1.57c-1.08,4.82-11.58,2.18-11.11,7,.16,1.69,1.91,2.14,3.34,2.22,1.18.06,3.77-.63,4.78-.1.44-.15.56,0,.36.35a1.1,1.1,0,0,1-.88,1,4.62,4.62,0,0,1-2.62.63l1.25,1.25-.07-2.95a1.25,1.25,0,0,0-2.49,0l.07,2.95a1.27,1.27,0,0,0,1.24,1.24c2.34,0,5-1,6.09-3.28,1-2.1-.39-3.64-2.51-3.71-.7,0-5.07-.23-5.22.11.34-.75,4.39-1,5.16-1.25,2.39-.75,4.44-2.27,5-4.8.16-.7-.35-1.68-1.2-1.58q-3.81.48-7.65.75c-.87.06-6.63.63-4.72-1.32,1-1,4.07-1.59,5.38-2.16a20.73,20.73,0,0,0,4.67-2.6c5.44-4.2,5.91-11.18.26-15.38-5.14-3.81-13.36-5.73-18.18-.36-5,5.59,0,12,4.39,15.9,1.19,1.07,3-.69,1.76-1.76Z"/><path d="M88.87,254.56a7.94,7.94,0,0,1,5.07,1.94c1.21,1,3-.71,1.76-1.76a10.69,10.69,0,0,0-6.83-2.67,1.25,1.25,0,0,0,0,2.49Z"/><path d="M97.73,245.25a9.07,9.07,0,0,0,4.23,2.63,1.25,1.25,0,0,0,.66-2.4,6.64,6.64,0,0,1-3.13-2c-1.07-1.19-2.83.57-1.76,1.76Z"/><path d="M111.53,238.43a11.27,11.27,0,0,0,.92,5.84c.63,1.47,2.78.2,2.15-1.26a8.84,8.84,0,0,1-.58-4.58c.18-1.59-2.31-1.57-2.49,0Z"/><path d="M128.71,242.91a4.36,4.36,0,0,1-1.17,2.84c-1.09,1.17.67,2.94,1.76,1.76a7,7,0,0,0,1.9-4.6c.05-1.6-2.44-1.6-2.49,0Z"/><path d="M116.48,256a2.59,2.59,0,0,1,2.38,4c-.93,1.31,1.23,2.55,2.15,1.26,2.23-3.14-.69-8.16-4.53-7.7-1.57.19-1.59,2.68,0,2.49Z"/><path d="M51.42,166.28c-.53.12-1.06.21-1.57.35a6.8,6.8,0,0,1-5-.46,1.73,1.73,0,0,1-1-1,5.65,5.65,0,0,1-.23-3.2,3.06,3.06,0,0,1,2-2.27,7.32,7.32,0,0,1,2.23-.4c1.46-.06,2.92-.21,4.43-.33.08-.34.15-.68.22-1a15.6,15.6,0,0,1,3.54-7,15.32,15.32,0,0,1,3.57-3.06,7.72,7.72,0,0,1,2-.78,27.63,27.63,0,0,1,5.63-1.25,22,22,0,0,1,4.13.3,20.72,20.72,0,0,1,4.4,1.11,5.48,5.48,0,0,1,1.4.81c1,.72,2,1.42,2.91,2.23a8.47,8.47,0,0,1,1.61,1.92,33.69,33.69,0,0,1,1.73,3.32,10.58,10.58,0,0,1,.79,4.69c0,1.09,0,2.17,0,3.32.17,0,.37.1.58.13,1.82.24,3.65.49,5.48.7,1.1.12,2.21.16,3.32.22a.8.8,0,0,1,.72.88c-.08,1.66-.14,3.31-.26,5-.21,2.71-.48,5.41-.95,8.08-.54,3.05-1.15,6.08-1.94,9.07-.25,1-.35,2-.51,3s-.24,1-1.15,1c-.22,0-.44,0-.66,0a70.54,70.54,0,0,1-8-.33c-2-.18-3.94-.4-5.91-.59-.62-.05-1.25-.08-1.87-.11-1.85-.08-3.69-.17-5.54-.21-1.08,0-2.17,0-3.25.06-.54,0-1.09,0-1.63,0-.79-.07-.94-.35-.62-1.08a4,4,0,0,1,.34-.65,11.63,11.63,0,0,0,1.63-4.13c.21-1,.53-1.94.8-2.91.09-.31.17-.62.26-.94-.1-.06-.15-.13-.22-.15a23.42,23.42,0,0,1-7.8-3.57,11,11,0,0,1-4.23-5.63C52.32,169.68,51.92,168,51.42,166.28ZM66,180.56a24.57,24.57,0,0,1-.45,2.58c-.25.91-.65,1.78-1,2.68s-.69,2.08-1,3.19c.33,0,.54.06.75.06,1.42,0,2.83,0,4.24,0a116.34,116.34,0,0,1,12,.61c3,.22,6,.4,9.15.6.13-.52.26-1,.34-1.4.49-2.75,1-5.5,1.44-8.26.3-1.9.53-3.82.75-5.73s.41-3.55.57-5.33c.12-1.3.18-2.59.27-3.88l-8.79-1.21c-.11,1-.63,1.75-.43,2.69,0,.16-.09.36-.15.54-.31,1-.68,1.95-.93,2.94a10.42,10.42,0,0,1-2.36,4.67,2.46,2.46,0,0,0-.37.54,5.7,5.7,0,0,1-2.26,2.28,11.72,11.72,0,0,1-3.21,1.38,11.38,11.38,0,0,0-1.64.46,9.89,9.89,0,0,1-4.87.66c-.43,0-.87-.06-1.3-.08ZM53.55,161.82c0,.73.05,1.47.12,2.19,0,.4.2.78.28,1.17s.07.64.15,1a10.61,10.61,0,0,0,3.57,5.69,12.77,12.77,0,0,0,2.88,1.94,27.59,27.59,0,0,0,6.37,1.95,12.19,12.19,0,0,0,4.13.11,12.65,12.65,0,0,0,5.6-2.29c.66-.48,1.33-.95,2-1.37a7,7,0,0,0,3-4.19c.13-.44.23-.9.4-1.32a15.08,15.08,0,0,0,.93-5.91,12.67,12.67,0,0,0-1.47-5.62c-.58-1.14-1.23-2.24-1.89-3.33a7.15,7.15,0,0,0-1.15-1.56,11.7,11.7,0,0,0-5.19-2.91,18.19,18.19,0,0,0-4.74-.71A26.06,26.06,0,0,0,61.32,148a2.63,2.63,0,0,0-.57.31c-.73.51-1.47,1-2.19,1.55A6,6,0,0,0,57.24,151a20.87,20.87,0,0,0-2.84,5.56A23.61,23.61,0,0,0,53.55,161.82ZM79.92,173.2l-.11-.1c-.17.12-.33.25-.51.36-.89.57-1.81,1.09-2.67,1.7A8.83,8.83,0,0,1,72.29,177a1.65,1.65,0,0,0-.85.22,2.55,2.55,0,0,1-1.68.47c-.57,0-1.14.06-1.71.11A10.32,10.32,0,0,1,63,177c-1.07-.46-2.13-1-3.21-1.38a3.52,3.52,0,0,1-1.43-.88c-1-1.14-2-2.28-3-3.43-.19-.22-.36-.46-.65-.83a2.79,2.79,0,0,0,0,.49,12.35,12.35,0,0,0,2.4,4.21,3.53,3.53,0,0,0,1,.73c1.6.91,3.21,1.8,4.82,2.7a5.92,5.92,0,0,0,2.32.71,16.74,16.74,0,0,0,7.07-.6,13.41,13.41,0,0,0,6.86-4.57C79.4,173.85,79.66,173.53,79.92,173.2ZM52.24,160.09c-.56,0-1,0-1.41.11-.78.11-1.56.22-2.32.39s-1.56.42-2.34.63a.73.73,0,0,0-.59.78c0,.86.06,1.73.14,2.58a.9.9,0,0,0,.42.55,2.76,2.76,0,0,0,2.18.31c1-.21,1.92-.33,2.87-.49l.86-.12C52.11,163.25,52.17,161.74,52.24,160.09Z"/><path class="cls-2" d="M53.55,161.82a23.61,23.61,0,0,1,.85-5.22A20.87,20.87,0,0,1,57.24,151a6,6,0,0,1,1.32-1.18c.72-.54,1.46-1,2.19-1.55a2.63,2.63,0,0,1,.57-.31,26.06,26.06,0,0,1,7.25-1.38,18.19,18.19,0,0,1,4.74.71,11.7,11.7,0,0,1,5.19,2.91,7.15,7.15,0,0,1,1.15,1.56c.66,1.09,1.31,2.19,1.89,3.33A12.67,12.67,0,0,1,83,160.75a15.08,15.08,0,0,1-.93,5.91c-.17.42-.27.88-.4,1.32a7,7,0,0,1-3,4.19c-.69.42-1.36.89-2,1.37a12.65,12.65,0,0,1-5.6,2.29,12.19,12.19,0,0,1-4.13-.11,27.59,27.59,0,0,1-6.37-1.95,12.77,12.77,0,0,1-2.88-1.94,10.61,10.61,0,0,1-3.57-5.69c-.08-.32-.09-.65-.15-1s-.23-.77-.28-1.17C53.6,163.29,53.59,162.55,53.55,161.82Zm15.89,12.1c1.33-.08,2.29-.06,3.22-.2,2.55-.39,4.42-1.95,6.13-3.74a7.09,7.09,0,0,0,1.62-3.06c.34-1.2.56-2.43.88-3.63a11.58,11.58,0,0,0-.6-7.26,11.34,11.34,0,0,0-3.35-4.64c-.43-.37-.91-.69-1.3-1.09a3.53,3.53,0,0,0-2.79-1.11,2.24,2.24,0,0,1-1-.2,4.2,4.2,0,0,0-1.81-.37,21.62,21.62,0,0,1-2.27.08,10.89,10.89,0,0,0-3.94.48,9.68,9.68,0,0,0-5,2.89A13.92,13.92,0,0,0,56.45,157c-.25.87-.41,1.77-.71,2.63a2.43,2.43,0,0,0-.17,1.18,7,7,0,0,1,.06,1.88,2,2,0,0,0,.22.75c.1.31.33.62.3.91a6.16,6.16,0,0,0,.6,2.48,9.43,9.43,0,0,0,2.34,3.48A11.1,11.1,0,0,0,63.76,173C65.68,173.73,67.71,174.29,69.44,173.92Z"/><path d="M80.47,180.38c.07-.56.13-1.13.2-1.69,0-.26.12-.53.44-.47s.27.35.25.6c0,.67-.13,1.35-.14,2a3.42,3.42,0,0,0,.53,1.94,1.12,1.12,0,0,0,1.73.44A5.76,5.76,0,0,0,85,182c1-1.27,1.93-2.61,2.88-3.93.08-.11.09-.28.19-.35a.53.53,0,0,1,.43-.08.56.56,0,0,1,.19.39.81.81,0,0,1-.16.37c-1,1.32-1.86,2.68-2.87,3.94a6.89,6.89,0,0,1-1.8,1.51,1.83,1.83,0,0,1-2.75-.77A5.41,5.41,0,0,1,80.47,180.38Z"/><path d="M84.19,174.86c-.17.59-.3,1.06-.42,1.53s-.18.84-.28,1.26a.85.85,0,0,1-.19.43,1.81,1.81,0,0,1-.53.23c0-.17-.17-.36-.13-.5.26-1,.55-2,.86-3,0-.14.27-.21.4-.32Z"/><path d="M85.56,178.54c-.07-.15-.25-.32-.22-.44.23-.91.48-1.82.76-2.73,0-.12.28-.17.43-.26.07.16.21.31.2.46a5.72,5.72,0,0,1-.2.79c-.12.52-.23,1-.31,1.57C86.16,178.29,86,178.43,85.56,178.54Z"/><path d="M69.44,173.92c-1.73.37-3.76-.19-5.68-.88a11.1,11.1,0,0,1-4.67-2.72,9.43,9.43,0,0,1-2.34-3.48,6.16,6.16,0,0,1-.6-2.48c0-.29-.2-.6-.3-.91a2,2,0,0,1-.22-.75,7,7,0,0,0-.06-1.88,2.43,2.43,0,0,1,.17-1.18c.3-.86.46-1.76.71-2.63a13.92,13.92,0,0,1,2.76-4.94,9.68,9.68,0,0,1,5-2.89,10.89,10.89,0,0,1,3.94-.48,21.62,21.62,0,0,0,2.27-.08,4.2,4.2,0,0,1,1.81.37,2.24,2.24,0,0,0,1,.2A3.53,3.53,0,0,1,76,150.3c.39.4.87.72,1.3,1.09A11.34,11.34,0,0,1,80.69,156a11.58,11.58,0,0,1,.6,7.26c-.32,1.2-.54,2.43-.88,3.63A7.09,7.09,0,0,1,78.79,170c-1.71,1.79-3.58,3.35-6.13,3.74C71.73,173.86,70.77,173.84,69.44,173.92Zm10.24-16.56A13.54,13.54,0,0,1,79.9,161c-.09.53-.27,1-.41,1.56-.07.27-.17.54-.24.82s0,.32-.06.47c-.36,1.24-.68,2.48-1.09,3.7a2.89,2.89,0,0,1-1.29,1.84,5.49,5.49,0,0,1-.78,1.26,7.13,7.13,0,0,1-2.71,1.56c-.22.06-.55,0-.63.39a5.08,5.08,0,0,0,2.71-.75,9.75,9.75,0,0,0,4-5.73,20.17,20.17,0,0,0,.84-5.94A6.52,6.52,0,0,0,79.68,157.36Z"/><path class="cls-2" d="M79.68,157.36a6.52,6.52,0,0,1,.59,2.82,20.17,20.17,0,0,1-.84,5.94,9.75,9.75,0,0,1-4,5.73,5.08,5.08,0,0,1-2.71.75c.08-.36.41-.33.63-.39A7.13,7.13,0,0,0,76,170.65a5.49,5.49,0,0,0,.78-1.26,2.89,2.89,0,0,0,1.29-1.84c.41-1.22.73-2.46,1.09-3.7,0-.15,0-.32.06-.47s.17-.55.24-.82c.14-.52.32-1,.41-1.56A13.54,13.54,0,0,0,79.68,157.36Z"/><path d="M554.15,148.83a27.85,27.85,0,0,0-.61,3.24,11.24,11.24,0,0,0,2.73,8.43,4.86,4.86,0,0,0,4.35,1.88,5,5,0,0,0,2.59-1.12,7.61,7.61,0,0,0,1.16-10.56,8.15,8.15,0,0,0-3.73-2.56,32.63,32.63,0,0,0-3.58-.82l-.42,0c.28-.39.52-.75.78-1.09a12.66,12.66,0,0,1,11.06-5.07,17.38,17.38,0,0,1,7.56,2.07,32.38,32.38,0,0,1,9.08,7,11.11,11.11,0,0,1,2.29,3.69,3,3,0,0,1,.15.9.65.65,0,0,0,.56.7.62.62,0,0,0,.79-.43,2,2,0,0,0,0-1,11.92,11.92,0,0,0-2.86-4.89,30.06,30.06,0,0,0-12.85-8.61,16.5,16.5,0,0,0-8.73-.47,14.1,14.1,0,0,0-9.17,6.79.94.94,0,0,1-.76.51,15.76,15.76,0,0,0-5.75,2,36.19,36.19,0,0,0-9.78,8.38l-.34.39a.91.91,0,0,1-.17.08c.18-.83.36-1.6.52-2.38s.28-1.4.39-2.1c.09-.54-.13-.87-.56-.94s-.67.22-.78.73q-.81,3.67-1.64,7.35a6.92,6.92,0,0,0-.14.77c-.09.83.45,1.31,1.25,1a20.1,20.1,0,0,0,2.5-1c1.57-.77,3.1-1.63,4.68-2.39.64-.31,1.37-.43,2-.7a1.1,1.1,0,0,0,.56-.58.52.52,0,0,0-.44-.7,2.08,2.08,0,0,0-1.11.06c-1.19.51-2.36,1.08-3.52,1.66-1.31.64-2.59,1.32-4,2a2.4,2.4,0,0,1,.1-.33,41.86,41.86,0,0,1,8.92-8.81,19,19,0,0,1,6.33-3.05Zm.74,2.65c.2-.63.48-1.56.81-2.47a.66.66,0,0,1,.46-.35,9.75,9.75,0,0,1,5.58,1.54,6.07,6.07,0,0,1,1.1,9.55,3.42,3.42,0,0,1-5.33.06C555.39,157.56,554.71,154.81,554.89,151.48Z"/><path d="M37,70.62a28.08,28.08,0,0,1-.85,3.19,11.29,11.29,0,0,1-6.08,6.44,4.88,4.88,0,0,1-4.74-.17A5,5,0,0,1,23.5,78a7.6,7.6,0,0,1,3.49-10,8.19,8.19,0,0,1,4.46-.71A31.84,31.84,0,0,1,35,68l.41.13c-.09-.47-.15-.9-.24-1.32a12.64,12.64,0,0,0-7.81-9.33,17.32,17.32,0,0,0-7.72-1.37A32.26,32.26,0,0,0,8.46,58.56a11.26,11.26,0,0,0-3.65,2.35,2.83,2.83,0,0,0-.53.75.66.66,0,0,1-.81.39.62.62,0,0,1-.53-.72,2.07,2.07,0,0,1,.45-.9,11.87,11.87,0,0,1,4.69-3.18A30,30,0,0,1,23.38,55a16.45,16.45,0,0,1,8.08,3.32,14.12,14.12,0,0,1,5.37,10.08.92.92,0,0,0,.47.78,15.61,15.61,0,0,1,4.31,4.3,36.21,36.21,0,0,1,5.24,11.77c0,.16.09.33.14.5a1.43,1.43,0,0,0,.11.15c.2-.83.37-1.61.56-2.38s.35-1.38.54-2.06.5-.74.92-.61.51.49.39,1l-1.68,7.35a6.37,6.37,0,0,1-.2.75.89.89,0,0,1-1.58.41,21.35,21.35,0,0,1-1.82-2C43.14,87,42.13,85.54,41,84.18c-.45-.56-1.06-1-1.54-1.5a1.14,1.14,0,0,1-.26-.77.52.52,0,0,1,.7-.44,2.09,2.09,0,0,1,1,.53c.86,1,1.68,2,2.48,3s1.76,2.3,2.73,3.58a1.47,1.47,0,0,0,.05-.35A41.6,41.6,0,0,0,41.9,76.46,19,19,0,0,0,37.49,71ZM35.21,72.7c.09-.66.23-1.62.33-2.58a.69.69,0,0,0-.27-.52,9.69,9.69,0,0,0-5.7-1,6.07,6.07,0,0,0-5.09,8.15,3.41,3.41,0,0,0,4.79,2.34C32.15,78,33.94,75.78,35.21,72.7Z"/><path d="M535.26,33c.54-1.78,1-3.58,1.64-5.33a35.38,35.38,0,0,1,1.65-3.53c.36-.73.9-1,1.44-.69s.69.86.34,1.65c-.71,1.6-1.5,3.17-2.1,4.81a39.5,39.5,0,0,0-1,3.88l.18.07a5.51,5.51,0,0,0,.43-.41A45.56,45.56,0,0,1,546.9,26a1,1,0,0,1,1.4.16,1.07,1.07,0,0,1-.22,1.55,10.7,10.7,0,0,1-1.06.69,44,44,0,0,0-10.65,10,1.79,1.79,0,0,1-1.2.66c-.58,0-.8-.53-.94-1.09a57.47,57.47,0,0,0-4.51-13.48c-.43-.81-.24-1.5.38-1.76s1,0,1.42.75a43.4,43.4,0,0,1,3.33,8.7c.09.3.17.59.26.88Z"/><path d="M549.8,10.6c.26.34.61.6.64.89a1.3,1.3,0,0,1-.36,1,21.28,21.28,0,0,0-4,4.47c-.64.81-1.31,1.59-2,2.35a.9.9,0,0,1-1.27.16,1,1,0,0,1-.39-1.24,4,4,0,0,1,.56-.86c1.27-1.55,2.52-3.13,3.84-4.64a15.39,15.39,0,0,1,2-1.8A3.82,3.82,0,0,1,549.8,10.6Z"/><path d="M554,5.92a9,9,0,0,1,.94-.47c.23-.09.52,0,.74-.13,1.37-.64,2.72-1.34,4.1-2,.85-.39,1.75-.69,2.63-1a1,1,0,0,1,1.37.52,1,1,0,0,1-.58,1.37c-1.13.49-2.3.88-3.43,1.37a32.24,32.24,0,0,0-2.93,1.49,2.61,2.61,0,0,1-2.15.42A1.09,1.09,0,0,1,554,5.92Z"/><path d="M567.6.69a2.3,2.3,0,0,1,.86-.43c1.55-.13,3.11-.2,4.66-.24,1.17,0,2.34,0,3.51,0a1,1,0,0,1,1.12,1.05c0,.59-.45,1-1.15,1l-7.79.33A1.23,1.23,0,0,1,567.6.69Z"/><path d="M583.81,3.25a11.09,11.09,0,0,1-1.35-1.09.92.92,0,0,1,.14-1.3,1,1,0,0,1,1.29-.12,5.64,5.64,0,0,0,1.42.52c1.94.39,3.89.72,5.83,1.08a2.86,2.86,0,0,1,.66.23.93.93,0,0,1,.49,1.2.92.92,0,0,1-1.09.71l-7.29-1.37Z"/><path d="M527.89,112.58c-3.09,8.08,1.39,16.34,3.27,24.14A25.94,25.94,0,0,1,527,158.17a25,25,0,0,1-9.6,8c-1,.49-.13,2,.9,1.53a27.68,27.68,0,0,0,14.13-16.4,26,26,0,0,0,1.18-11c-.5-4.35-2-8.47-3.28-12.64-1.45-4.77-2.57-9.78-.72-14.61.4-1.06-1.31-1.53-1.71-.47Z"/><path d="M66.34,103.93c14.74,5.44,25.39,19.4,25.31,35.31a36.83,36.83,0,0,1-2.79,13.82.89.89,0,0,0,1.08,1.09,18.48,18.48,0,0,1,15.28,1.09c5,2.73,7.68,7.7,9.27,12.95.79,2.62,1.35,5.3,1.91,8,.69,3.31,1.37,6.63,1.75,10,.69,5.94.53,12.19-2.15,17.65-2.55,5.2-7,9.42-12.79,10.6-1.11.23-.64,1.93.48,1.71a19.94,19.94,0,0,0,12.62-9.21c3.35-5.34,4.26-11.67,3.87-17.88a79.47,79.47,0,0,0-1.55-10.73c-.62-3.15-1.25-6.33-2.11-9.43-1.53-5.54-4.11-11-9-14.28a20.14,20.14,0,0,0-18-2.14l1.09,1.09a38.33,38.33,0,0,0,1.16-25.76A39.34,39.34,0,0,0,78.29,108.6a42.51,42.51,0,0,0-11.48-6.38c-1.07-.39-1.53,1.32-.47,1.71Z"/></g></g></svg>