<svg width="635" height="360" viewBox="0 0 635 360" fill="none" xmlns="http://www.w3.org/2000/svg">
<path d="M181.259 17.7329V134.418C187.564 134.418 192.22 135.824 195.227 138.637C198.233 141.353 199.737 144.893 199.737 149.258C199.737 153.623 198.185 157.212 195.081 160.024C192.074 162.837 187.467 164.244 181.259 164.244V176.174C187.564 176.174 192.22 177.581 195.227 180.393C198.233 183.206 199.737 186.795 199.737 191.16C199.737 195.525 198.185 199.113 195.081 201.926C192.074 204.642 186.982 206 179.804 206H139.794C132.616 206 127.476 204.642 124.372 201.926C121.365 199.113 119.862 195.476 119.862 191.014C119.862 186.65 121.365 183.109 124.372 180.393C127.476 177.581 132.616 176.174 139.794 176.174H151.433V164.244H70.3941V139.365L141.831 17.7329H181.259ZM151.433 134.418V61.0897L108.222 134.418H151.433ZM381.602 95.2803V128.016C381.602 147.415 375.976 165.99 364.725 183.74C353.571 201.49 337.567 210.365 316.713 210.365C304.685 210.365 294.501 207.746 286.159 202.508C277.915 197.173 270.058 187.425 262.589 173.264C255.218 159.006 251.532 143.923 251.532 128.016V95.2803C251.532 75.9784 257.109 57.4523 268.264 39.7023C279.418 21.8552 295.422 12.9317 316.276 12.9317C328.206 12.9317 338.294 15.5506 346.539 20.7883C354.88 26.026 362.785 35.774 370.254 50.0322C377.819 64.1935 381.602 79.2762 381.602 95.2803ZM351.631 95.2803C351.631 79.0822 347.121 64.921 338.1 52.7966C332.959 46.1039 325.733 42.7576 316.422 42.7576C307.401 42.7576 300.029 46.4434 294.307 53.815C285.674 64.9694 281.358 78.7912 281.358 95.2803V128.016C281.358 144.311 285.917 158.473 295.034 170.5C300.078 177.193 307.304 180.539 316.713 180.539C325.636 180.539 332.959 176.853 338.682 169.481C347.314 158.327 351.631 144.505 351.631 128.016V95.2803ZM539.17 17.7329V134.418C545.475 134.418 550.131 135.824 553.138 138.637C556.144 141.353 557.648 144.893 557.648 149.258C557.648 153.623 556.096 157.212 552.992 160.024C549.985 162.837 545.378 164.244 539.17 164.244V176.174C545.475 176.174 550.131 177.581 553.138 180.393C556.144 183.206 557.648 186.795 557.648 191.16C557.648 195.525 556.096 199.113 552.992 201.926C549.985 204.642 544.893 206 537.715 206H497.705C490.527 206 485.387 204.642 482.283 201.926C479.276 199.113 477.773 195.476 477.773 191.014C477.773 186.65 479.276 183.109 482.283 180.393C485.387 177.581 490.527 176.174 497.705 176.174H509.344V164.244H428.305V139.365L499.742 17.7329H539.17ZM509.344 134.418V61.0897L466.133 134.418H509.344Z" fill="white"/>
<path d="M13.449 252.843V280.878H29.0615V271.533C29.0615 270.974 29.1734 270.573 29.3972 270.33C29.6211 270.088 29.9102 269.966 30.2646 269.966C30.6003 269.966 30.8801 270.088 31.104 270.33C31.3278 270.554 31.4397 270.955 31.4397 271.533V283.229H5.47494C4.91536 283.229 4.51432 283.117 4.27183 282.893C4.02934 282.669 3.9081 282.389 3.9081 282.053C3.9081 281.699 4.02934 281.419 4.27183 281.214C4.51432 280.99 4.91536 280.878 5.47494 280.878H11.0708V252.843H5.47494C4.91536 252.843 4.51432 252.74 4.27183 252.535C4.02934 252.311 3.9081 252.022 3.9081 251.668C3.9081 251.313 4.02934 251.034 4.27183 250.828C4.51432 250.605 4.91536 250.493 5.47494 250.493H19.0449C19.6045 250.493 20.0055 250.605 20.248 250.828C20.4905 251.034 20.6117 251.313 20.6117 251.668C20.6117 252.022 20.4905 252.311 20.248 252.535C20.0055 252.74 19.6045 252.843 19.0449 252.843H13.449ZM66.3019 266.945C66.3019 270.078 65.6677 272.988 64.3993 275.674C63.1309 278.341 61.3776 280.421 59.1392 281.913C56.9195 283.406 54.532 284.152 51.9765 284.152C48.19 284.152 44.8511 282.548 41.9599 279.339C39.0874 276.112 37.6511 271.981 37.6511 266.945C37.6511 261.89 39.0874 257.758 41.9599 254.55C44.8511 251.341 48.19 249.737 51.9765 249.737C54.532 249.737 56.9195 250.483 59.1392 251.976C61.3589 253.468 63.103 255.548 64.3713 258.215C65.6584 260.882 66.3019 263.792 66.3019 266.945ZM63.9237 266.945C63.9237 263.121 62.8138 259.689 60.5941 256.648C58.3745 253.608 55.5019 252.088 51.9765 252.088C48.675 252.088 45.8491 253.542 43.4988 256.452C41.1672 259.344 40.0014 262.841 40.0014 266.945C40.0014 271.309 41.2231 274.881 43.6667 277.661C46.1289 280.421 48.8988 281.802 51.9765 281.802C55.5019 281.802 58.3745 280.291 60.5941 277.269C62.8138 274.229 63.9237 270.787 63.9237 266.945ZM100.716 266.945C100.716 270.078 100.082 272.988 98.8139 275.674C97.5455 278.341 95.7921 280.421 93.5537 281.913C91.3341 283.406 88.9465 284.152 86.3911 284.152C82.6045 284.152 79.2657 282.548 76.3745 279.339C73.5019 276.112 72.0657 271.981 72.0657 266.945C72.0657 261.89 73.5019 257.758 76.3745 254.55C79.2657 251.341 82.6045 249.737 86.3911 249.737C88.9465 249.737 91.3341 250.483 93.5537 251.976C95.7734 253.468 97.5175 255.548 98.7859 258.215C100.073 260.882 100.716 263.792 100.716 266.945ZM98.3382 266.945C98.3382 263.121 97.2284 259.689 95.0087 256.648C92.789 253.608 89.9164 252.088 86.3911 252.088C83.0895 252.088 80.2636 253.542 77.9133 256.452C75.5817 259.344 74.4159 262.841 74.4159 266.945C74.4159 271.309 75.6377 274.881 78.0812 277.661C80.5434 280.421 83.3133 281.802 86.3911 281.802C89.9164 281.802 92.789 280.291 95.0087 277.269C97.2284 274.229 98.3382 270.787 98.3382 266.945ZM113.139 270.414V280.878H117.476C118.054 280.878 118.465 280.99 118.707 281.214C118.95 281.419 119.071 281.699 119.071 282.053C119.071 282.389 118.95 282.669 118.707 282.893C118.465 283.117 118.054 283.229 117.476 283.229H107.627C107.068 283.229 106.667 283.117 106.424 282.893C106.182 282.669 106.06 282.389 106.06 282.053C106.06 281.699 106.182 281.419 106.424 281.214C106.667 280.99 107.068 280.878 107.627 280.878H110.789V252.843H107.627C107.068 252.843 106.667 252.74 106.424 252.535C106.182 252.311 106.06 252.022 106.06 251.668C106.06 251.313 106.182 251.034 106.424 250.828C106.667 250.605 107.068 250.493 107.627 250.493H117.476C118.054 250.493 118.465 250.605 118.707 250.828C118.95 251.034 119.071 251.313 119.071 251.668C119.071 252.022 118.95 252.311 118.707 252.535C118.465 252.74 118.054 252.843 117.476 252.843H113.139V267.308L129.367 252.843H126.793C126.215 252.843 125.805 252.74 125.562 252.535C125.32 252.311 125.198 252.022 125.198 251.668C125.198 251.313 125.32 251.034 125.562 250.828C125.805 250.605 126.215 250.493 126.793 250.493H133.704C134.264 250.493 134.665 250.605 134.907 250.828C135.15 251.034 135.271 251.313 135.271 251.668C135.271 252.022 135.15 252.311 134.907 252.535C134.665 252.74 134.264 252.843 133.704 252.843H132.753L119.826 264.398C121.748 265.182 123.342 266.161 124.611 267.336C125.879 268.511 127.101 270.181 128.276 272.345C128.948 273.557 130.179 276.402 131.969 280.878H134.907C135.485 280.878 135.896 280.99 136.138 281.214C136.381 281.419 136.502 281.699 136.502 282.053C136.502 282.389 136.381 282.669 136.138 282.893C135.896 283.117 135.485 283.229 134.907 283.229H130.374C127.912 276.495 125.842 272.167 124.163 270.246C122.484 268.306 120.386 266.945 117.868 266.161L113.139 270.414ZM163.586 252.843V252.06C163.586 251.5 163.689 251.099 163.894 250.856C164.118 250.614 164.407 250.493 164.761 250.493C165.115 250.493 165.395 250.614 165.6 250.856C165.824 251.099 165.936 251.5 165.936 252.06V258.047C165.936 258.607 165.824 259.008 165.6 259.25C165.395 259.493 165.115 259.614 164.761 259.614C164.425 259.614 164.145 259.502 163.922 259.278C163.716 259.054 163.605 258.691 163.586 258.187C163.493 256.62 162.681 255.212 161.152 253.962C159.641 252.712 157.654 252.088 155.192 252.088C152.599 252.088 150.538 252.759 149.009 254.102C147.479 255.426 146.714 256.993 146.714 258.803C146.714 259.735 146.929 260.584 147.358 261.349C147.787 262.113 148.356 262.738 149.065 263.223C149.773 263.69 150.576 264.072 151.471 264.37C152.366 264.65 153.765 264.949 155.668 265.266C158.857 265.788 161.058 266.32 162.271 266.861C163.894 267.588 165.115 268.595 165.936 269.882C166.776 271.169 167.195 272.69 167.195 274.443C167.195 277.129 166.123 279.423 163.978 281.326C161.833 283.21 158.941 284.152 155.304 284.152C151.219 284.152 147.955 282.874 145.511 280.319V281.662C145.511 282.221 145.399 282.622 145.176 282.865C144.97 283.107 144.691 283.229 144.336 283.229C144 283.229 143.721 283.107 143.497 282.865C143.273 282.622 143.161 282.221 143.161 281.662V275.17C143.161 274.592 143.264 274.182 143.469 273.939C143.693 273.697 143.982 273.576 144.336 273.576C144.672 273.576 144.942 273.688 145.148 273.911C145.371 274.135 145.493 274.499 145.511 275.003C145.605 276.719 146.519 278.286 148.253 279.703C150.007 281.102 152.357 281.802 155.304 281.802C158.251 281.802 160.573 281.065 162.271 279.591C163.987 278.118 164.845 276.374 164.845 274.359C164.845 273.128 164.519 272.037 163.866 271.086C163.213 270.116 162.243 269.351 160.956 268.791C160.061 268.399 158.195 267.961 155.36 267.476C151.462 266.823 148.654 265.825 146.938 264.482C145.222 263.139 144.364 261.227 144.364 258.747C144.364 256.284 145.343 254.167 147.302 252.395C149.279 250.623 151.881 249.737 155.108 249.737C158.391 249.737 161.217 250.773 163.586 252.843ZM219.936 252.843V280.878H235.549V271.533C235.549 270.974 235.661 270.573 235.884 270.33C236.108 270.088 236.397 269.966 236.752 269.966C237.088 269.966 237.367 270.088 237.591 270.33C237.815 270.554 237.927 270.955 237.927 271.533V283.229H211.962C211.403 283.229 211.001 283.117 210.759 282.893C210.517 282.669 210.395 282.389 210.395 282.053C210.395 281.699 210.517 281.419 210.759 281.214C211.001 280.99 211.403 280.878 211.962 280.878H217.558V252.843H211.962C211.403 252.843 211.001 252.74 210.759 252.535C210.517 252.311 210.395 252.022 210.395 251.668C210.395 251.313 210.517 251.034 210.759 250.828C211.001 250.605 211.403 250.493 211.962 250.493H225.532C226.092 250.493 226.493 250.605 226.735 250.828C226.978 251.034 227.099 251.313 227.099 251.668C227.099 252.022 226.978 252.311 226.735 252.535C226.493 252.74 226.092 252.843 225.532 252.843H219.936ZM259.611 252.843V280.878H267.669C268.228 280.878 268.63 280.99 268.872 281.214C269.114 281.419 269.236 281.699 269.236 282.053C269.236 282.389 269.114 282.669 268.872 282.893C268.63 283.117 268.228 283.229 267.669 283.229H249.203C248.643 283.229 248.242 283.117 247.999 282.893C247.757 282.669 247.636 282.389 247.636 282.053C247.636 281.699 247.757 281.419 247.999 281.214C248.242 280.99 248.643 280.878 249.203 280.878H257.261V252.843H249.203C248.643 252.843 248.242 252.74 247.999 252.535C247.757 252.311 247.636 252.022 247.636 251.668C247.636 251.313 247.757 251.034 247.999 250.828C248.242 250.605 248.643 250.493 249.203 250.493H267.669C268.228 250.493 268.63 250.605 268.872 250.828C269.114 251.034 269.236 251.313 269.236 251.668C269.236 252.022 269.114 252.311 268.872 252.535C268.63 252.74 268.228 252.843 267.669 252.843H259.611ZM285.212 270.414V280.878H289.549C290.127 280.878 290.537 280.99 290.78 281.214C291.022 281.419 291.144 281.699 291.144 282.053C291.144 282.389 291.022 282.669 290.78 282.893C290.537 283.117 290.127 283.229 289.549 283.229H279.7C279.14 283.229 278.739 283.117 278.497 282.893C278.254 282.669 278.133 282.389 278.133 282.053C278.133 281.699 278.254 281.419 278.497 281.214C278.739 280.99 279.14 280.878 279.7 280.878H282.862V252.843H279.7C279.14 252.843 278.739 252.74 278.497 252.535C278.254 252.311 278.133 252.022 278.133 251.668C278.133 251.313 278.254 251.034 278.497 250.828C278.739 250.605 279.14 250.493 279.7 250.493H289.549C290.127 250.493 290.537 250.605 290.78 250.828C291.022 251.034 291.144 251.313 291.144 251.668C291.144 252.022 291.022 252.311 290.78 252.535C290.537 252.74 290.127 252.843 289.549 252.843H285.212V267.308L301.44 252.843H298.866C298.288 252.843 297.877 252.74 297.635 252.535C297.392 252.311 297.271 252.022 297.271 251.668C297.271 251.313 297.392 251.034 297.635 250.828C297.877 250.605 298.288 250.493 298.866 250.493H305.777C306.336 250.493 306.737 250.605 306.98 250.828C307.222 251.034 307.344 251.313 307.344 251.668C307.344 252.022 307.222 252.311 306.98 252.535C306.737 252.74 306.336 252.843 305.777 252.843H304.825L291.899 264.398C293.82 265.182 295.415 266.161 296.683 267.336C297.952 268.511 299.174 270.181 300.349 272.345C301.02 273.557 302.251 276.402 304.042 280.878H306.98C307.558 280.878 307.968 280.99 308.211 281.214C308.453 281.419 308.575 281.699 308.575 282.053C308.575 282.389 308.453 282.669 308.211 282.893C307.968 283.117 307.558 283.229 306.98 283.229H302.447C299.985 276.495 297.914 272.167 296.236 270.246C294.557 268.306 292.459 266.945 289.94 266.161L285.212 270.414ZM319.598 267.42V280.878H337.673V273.939C337.673 273.38 337.776 272.979 337.981 272.736C338.205 272.494 338.494 272.373 338.848 272.373C339.203 272.373 339.482 272.494 339.688 272.736C339.911 272.979 340.023 273.38 340.023 273.939V283.229H314.087C313.527 283.229 313.126 283.117 312.883 282.893C312.641 282.669 312.52 282.389 312.52 282.053C312.52 281.699 312.641 281.419 312.883 281.214C313.126 280.99 313.527 280.878 314.087 280.878H317.248V252.843H314.087C313.527 252.843 313.126 252.74 312.883 252.535C312.641 252.311 312.52 252.022 312.52 251.668C312.52 251.313 312.641 251.034 312.883 250.828C313.126 250.605 313.527 250.493 314.087 250.493H338.792V258.579C338.792 259.138 338.68 259.539 338.456 259.782C338.251 260.024 337.972 260.146 337.617 260.146C337.263 260.146 336.974 260.024 336.75 259.782C336.545 259.539 336.442 259.138 336.442 258.579V252.843H319.598V265.07H328.02V262.412C328.02 261.852 328.132 261.451 328.356 261.209C328.58 260.966 328.869 260.845 329.223 260.845C329.559 260.845 329.839 260.966 330.063 261.209C330.287 261.451 330.398 261.852 330.398 262.412V270.078C330.398 270.638 330.287 271.039 330.063 271.281C329.839 271.524 329.559 271.645 329.223 271.645C328.869 271.645 328.58 271.524 328.356 271.281C328.132 271.039 328.02 270.638 328.02 270.078V267.42H319.598ZM397.325 268.455V280.878H403.424C403.984 280.878 404.385 280.99 404.628 281.214C404.87 281.419 404.991 281.699 404.991 282.053C404.991 282.389 404.87 282.669 404.628 282.893C404.385 283.117 403.984 283.229 403.424 283.229H388.847C388.288 283.229 387.887 283.117 387.644 282.893C387.402 282.669 387.28 282.389 387.28 282.053C387.28 281.699 387.392 281.419 387.616 281.214C387.859 280.99 388.269 280.878 388.847 280.878H394.947V268.455L384.622 252.843H383.223C382.664 252.843 382.263 252.74 382.02 252.535C381.778 252.311 381.657 252.022 381.657 251.668C381.657 251.313 381.778 251.034 382.02 250.828C382.263 250.605 382.664 250.493 383.223 250.493H389.687C390.246 250.493 390.647 250.605 390.89 250.828C391.132 251.034 391.253 251.313 391.253 251.668C391.253 252.022 391.132 252.311 390.89 252.535C390.647 252.74 390.246 252.843 389.687 252.843H387.364L396.15 266.077L404.739 252.843H402.445C401.867 252.843 401.457 252.74 401.214 252.535C400.972 252.311 400.85 252.022 400.85 251.668C400.85 251.313 400.972 251.034 401.214 250.828C401.457 250.605 401.867 250.493 402.445 250.493H408.88C409.44 250.493 409.841 250.605 410.083 250.828C410.326 251.034 410.447 251.313 410.447 251.668C410.447 252.022 410.326 252.311 410.083 252.535C409.841 252.74 409.44 252.843 408.88 252.843H407.481L397.325 268.455ZM444.862 266.945C444.862 270.078 444.228 272.988 442.959 275.674C441.691 278.341 439.937 280.421 437.699 281.913C435.479 283.406 433.092 284.152 430.536 284.152C426.75 284.152 423.411 282.548 420.52 279.339C417.647 276.112 416.211 271.981 416.211 266.945C416.211 261.89 417.647 257.758 420.52 254.55C423.411 251.341 426.75 249.737 430.536 249.737C433.092 249.737 435.479 250.483 437.699 251.976C439.919 253.468 441.663 255.548 442.931 258.215C444.218 260.882 444.862 263.792 444.862 266.945ZM442.483 266.945C442.483 263.121 441.374 259.689 439.154 256.648C436.934 253.608 434.062 252.088 430.536 252.088C427.235 252.088 424.409 253.542 422.059 256.452C419.727 259.344 418.561 262.841 418.561 266.945C418.561 271.309 419.783 274.881 422.226 277.661C424.689 280.421 427.459 281.802 430.536 281.802C434.062 281.802 436.934 280.291 439.154 277.269C441.374 274.229 442.483 270.787 442.483 266.945ZM476.282 252.843V272.484C476.282 275.786 475.182 278.556 472.981 280.794C470.78 283.033 468.122 284.152 465.007 284.152C462.918 284.152 461.062 283.695 459.439 282.781C457.816 281.867 456.436 280.487 455.298 278.64C454.16 276.775 453.591 274.723 453.591 272.484V252.843H451.605C451.045 252.843 450.644 252.74 450.402 252.535C450.159 252.311 450.038 252.022 450.038 251.668C450.038 251.313 450.168 251.015 450.43 250.773C450.653 250.586 451.045 250.493 451.605 250.493H460.278C460.838 250.493 461.239 250.605 461.481 250.828C461.724 251.034 461.845 251.313 461.845 251.668C461.845 252.022 461.724 252.311 461.481 252.535C461.239 252.74 460.838 252.843 460.278 252.843H455.942V272.484C455.942 275.077 456.828 277.278 458.6 279.088C460.372 280.897 462.47 281.802 464.895 281.802C466.443 281.802 467.851 281.447 469.12 280.738C470.407 280.03 471.526 278.938 472.477 277.465C473.447 275.991 473.932 274.331 473.932 272.484V252.843H469.595C469.036 252.843 468.635 252.74 468.392 252.535C468.15 252.311 468.029 252.022 468.029 251.668C468.029 251.313 468.15 251.034 468.392 250.828C468.635 250.605 469.036 250.493 469.595 250.493H478.269C478.829 250.493 479.23 250.605 479.472 250.828C479.715 251.034 479.836 251.313 479.836 251.668C479.836 252.022 479.715 252.311 479.472 252.535C479.23 252.74 478.829 252.843 478.269 252.843H476.282ZM541.474 272.289H526.03L522.868 280.878H527.373C527.932 280.878 528.333 280.99 528.576 281.214C528.818 281.419 528.94 281.699 528.94 282.053C528.94 282.389 528.818 282.669 528.576 282.893C528.333 283.117 527.932 283.229 527.373 283.229H518.587C518.028 283.229 517.627 283.117 517.384 282.893C517.142 282.669 517.02 282.389 517.02 282.053C517.02 281.699 517.142 281.419 517.384 281.214C517.627 280.99 518.028 280.878 518.587 280.878H520.406L530.786 252.843H523.847C523.288 252.843 522.887 252.74 522.644 252.535C522.402 252.311 522.28 252.022 522.28 251.668C522.28 251.313 522.402 251.034 522.644 250.828C522.887 250.605 523.288 250.493 523.847 250.493H535.683L547.154 280.878H548.973C549.532 280.878 549.933 280.99 550.176 281.214C550.418 281.419 550.54 281.699 550.54 282.053C550.54 282.389 550.418 282.669 550.176 282.893C549.933 283.117 549.532 283.229 548.973 283.229H540.215C539.637 283.229 539.227 283.117 538.984 282.893C538.742 282.669 538.62 282.389 538.62 282.053C538.62 281.699 538.742 281.419 538.984 281.214C539.227 280.99 539.637 280.878 540.215 280.878H544.692L541.474 272.289ZM540.579 269.938L534.088 252.843H533.22L526.925 269.938H540.579ZM560.5 268.623V280.878H564.837C565.415 280.878 565.826 280.99 566.068 281.214C566.311 281.419 566.432 281.699 566.432 282.053C566.432 282.389 566.311 282.669 566.068 282.893C565.826 283.117 565.415 283.229 564.837 283.229H554.988C554.429 283.229 554.028 283.117 553.785 282.893C553.543 282.669 553.421 282.389 553.421 282.053C553.421 281.699 553.543 281.419 553.785 281.214C554.028 280.99 554.429 280.878 554.988 280.878H558.15V252.843H554.988C554.429 252.843 554.028 252.74 553.785 252.535C553.543 252.311 553.421 252.022 553.421 251.668C553.421 251.313 553.543 251.034 553.785 250.828C554.028 250.605 554.429 250.493 554.988 250.493H569.202C572.13 250.493 574.592 251.425 576.588 253.291C578.603 255.137 579.61 257.226 579.61 259.558C579.61 261.237 578.985 262.822 577.735 264.315C576.504 265.788 574.434 267.019 571.524 268.008C573.203 269.164 574.639 270.47 575.833 271.925C577.027 273.38 578.939 276.364 581.569 280.878H583.359C583.919 280.878 584.32 280.99 584.562 281.214C584.805 281.419 584.926 281.699 584.926 282.053C584.926 282.389 584.805 282.669 584.562 282.893C584.32 283.117 583.919 283.229 583.359 283.229H580.226C577.316 278.024 575.059 274.536 573.455 272.764C571.869 270.992 570.041 269.612 567.971 268.623H560.5ZM560.5 266.273H566.907C568.959 266.273 570.815 265.9 572.475 265.154C574.154 264.408 575.366 263.531 576.113 262.524C576.877 261.517 577.26 260.491 577.26 259.446C577.26 257.879 576.467 256.387 574.882 254.969C573.315 253.552 571.403 252.843 569.146 252.843H560.5V266.273ZM594.915 267.42V280.878H612.989V273.939C612.989 273.38 613.092 272.979 613.297 272.736C613.521 272.494 613.81 272.373 614.164 272.373C614.519 272.373 614.799 272.494 615.004 272.736C615.228 272.979 615.34 273.38 615.34 273.939V283.229H589.403C588.843 283.229 588.442 283.117 588.2 282.893C587.957 282.669 587.836 282.389 587.836 282.053C587.836 281.699 587.957 281.419 588.2 281.214C588.442 280.99 588.843 280.878 589.403 280.878H592.564V252.843H589.403C588.843 252.843 588.442 252.74 588.2 252.535C587.957 252.311 587.836 252.022 587.836 251.668C587.836 251.313 587.957 251.034 588.2 250.828C588.442 250.605 588.843 250.493 589.403 250.493H614.109V258.579C614.109 259.138 613.997 259.539 613.773 259.782C613.568 260.024 613.288 260.146 612.933 260.146C612.579 260.146 612.29 260.024 612.066 259.782C611.861 259.539 611.758 259.138 611.758 258.579V252.843H594.915V265.07H603.336V262.412C603.336 261.852 603.448 261.451 603.672 261.209C603.896 260.966 604.185 260.845 604.54 260.845C604.875 260.845 605.155 260.966 605.379 261.209C605.603 261.451 605.715 261.852 605.715 262.412V270.078C605.715 270.638 605.603 271.039 605.379 271.281C605.155 271.524 604.875 271.645 604.54 271.645C604.185 271.645 603.896 271.524 603.672 271.281C603.448 271.039 603.336 270.638 603.336 270.078V267.42H594.915ZM106.928 313.843V341.878H122.54V332.533C122.54 331.974 122.652 331.573 122.876 331.33C123.1 331.088 123.389 330.966 123.743 330.966C124.079 330.966 124.359 331.088 124.583 331.33C124.807 331.554 124.919 331.955 124.919 332.533V344.229H98.9538C98.3942 344.229 97.9931 344.117 97.7507 343.893C97.5082 343.669 97.3869 343.389 97.3869 343.053C97.3869 342.699 97.5082 342.419 97.7507 342.214C97.9931 341.99 98.3942 341.878 98.9538 341.878H104.55V313.843H98.9538C98.3942 313.843 97.9931 313.74 97.7507 313.535C97.5082 313.311 97.3869 313.022 97.3869 312.668C97.3869 312.313 97.5082 312.034 97.7507 311.828C97.9931 311.605 98.3942 311.493 98.9538 311.493H112.524C113.083 311.493 113.484 311.605 113.727 311.828C113.969 312.034 114.091 312.313 114.091 312.668C114.091 313.022 113.969 313.311 113.727 313.535C113.484 313.74 113.083 313.843 112.524 313.843H106.928ZM159.781 327.945C159.781 331.078 159.147 333.988 157.878 336.674C156.61 339.341 154.856 341.421 152.618 342.913C150.398 344.406 148.011 345.152 145.455 345.152C141.669 345.152 138.33 343.548 135.439 340.339C132.566 337.112 131.13 332.981 131.13 327.945C131.13 322.89 132.566 318.758 135.439 315.55C138.33 312.341 141.669 310.737 145.455 310.737C148.011 310.737 150.398 311.483 152.618 312.976C154.838 314.468 156.582 316.548 157.85 319.215C159.137 321.882 159.781 324.792 159.781 327.945ZM157.402 327.945C157.402 324.121 156.293 320.689 154.073 317.648C151.853 314.608 148.981 313.088 145.455 313.088C142.154 313.088 139.328 314.542 136.978 317.452C134.646 320.344 133.48 323.841 133.48 327.945C133.48 332.309 134.702 335.881 137.145 338.661C139.608 341.421 142.378 342.802 145.455 342.802C148.981 342.802 151.853 341.291 154.073 338.269C156.293 335.229 157.402 331.787 157.402 327.945ZM188.236 313.843V313.06C188.236 312.5 188.338 312.099 188.543 311.856C188.767 311.614 189.056 311.493 189.411 311.493C189.765 311.493 190.045 311.614 190.25 311.856C190.474 312.099 190.586 312.5 190.586 313.06V319.047C190.586 319.607 190.474 320.008 190.25 320.25C190.045 320.493 189.765 320.614 189.411 320.614C189.075 320.614 188.795 320.502 188.571 320.278C188.366 320.054 188.254 319.691 188.236 319.187C188.142 317.62 187.331 316.212 185.801 314.962C184.291 313.712 182.304 313.088 179.842 313.088C177.249 313.088 175.188 313.759 173.658 315.102C172.129 316.426 171.364 317.993 171.364 319.803C171.364 320.735 171.579 321.584 172.008 322.349C172.437 323.113 173.006 323.738 173.714 324.223C174.423 324.69 175.225 325.072 176.121 325.37C177.016 325.65 178.415 325.949 180.318 326.266C183.507 326.788 185.708 327.32 186.921 327.861C188.543 328.588 189.765 329.595 190.586 330.882C191.425 332.169 191.845 333.69 191.845 335.443C191.845 338.129 190.772 340.423 188.627 342.326C186.482 344.21 183.591 345.152 179.954 345.152C175.869 345.152 172.605 343.874 170.161 341.319V342.662C170.161 343.221 170.049 343.622 169.825 343.865C169.62 344.107 169.34 344.229 168.986 344.229C168.65 344.229 168.37 344.107 168.147 343.865C167.923 343.622 167.811 343.221 167.811 342.662V336.17C167.811 335.592 167.913 335.182 168.119 334.939C168.342 334.697 168.632 334.576 168.986 334.576C169.322 334.576 169.592 334.688 169.797 334.911C170.021 335.135 170.142 335.499 170.161 336.003C170.254 337.719 171.168 339.286 172.903 340.703C174.656 342.102 177.007 342.802 179.954 342.802C182.901 342.802 185.223 342.065 186.921 340.591C188.637 339.118 189.495 337.374 189.495 335.359C189.495 334.128 189.168 333.037 188.515 332.086C187.863 331.116 186.893 330.351 185.606 329.791C184.71 329.399 182.845 328.961 180.01 328.476C176.111 327.823 173.304 326.825 171.588 325.482C169.872 324.139 169.014 322.227 169.014 319.747C169.014 317.284 169.993 315.167 171.952 313.395C173.929 311.623 176.531 310.737 179.758 310.737C183.041 310.737 185.867 311.773 188.236 313.843ZM215.404 313.843V341.878H221.503C222.063 341.878 222.464 341.99 222.706 342.214C222.949 342.419 223.07 342.699 223.07 343.053C223.07 343.389 222.949 343.669 222.706 343.893C222.464 344.117 222.063 344.229 221.503 344.229H206.926C206.366 344.229 205.965 344.117 205.723 343.893C205.48 343.669 205.359 343.389 205.359 343.053C205.359 342.699 205.48 342.419 205.723 342.214C205.965 341.99 206.366 341.878 206.926 341.878H213.025V313.843H203.4V321.985C203.4 322.563 203.289 322.974 203.065 323.216C202.86 323.459 202.58 323.58 202.225 323.58C201.89 323.58 201.61 323.459 201.386 323.216C201.162 322.974 201.05 322.563 201.05 321.985V311.493H227.379V321.985C227.379 322.563 227.267 322.974 227.043 323.216C226.838 323.459 226.558 323.58 226.204 323.58C225.849 323.58 225.56 323.459 225.336 323.216C225.131 322.974 225.028 322.563 225.028 321.985V313.843H215.404ZM284.261 313.843V341.878H292.319C292.878 341.878 293.279 341.99 293.522 342.214C293.764 342.419 293.885 342.699 293.885 343.053C293.885 343.389 293.764 343.669 293.522 343.893C293.279 344.117 292.878 344.229 292.319 344.229H273.852C273.293 344.229 272.892 344.117 272.649 343.893C272.407 343.669 272.285 343.389 272.285 343.053C272.285 342.699 272.407 342.419 272.649 342.214C272.892 341.99 273.293 341.878 273.852 341.878H281.91V313.843H273.852C273.293 313.843 272.892 313.74 272.649 313.535C272.407 313.311 272.285 313.022 272.285 312.668C272.285 312.313 272.407 312.034 272.649 311.828C272.892 311.605 273.293 311.493 273.852 311.493H292.319C292.878 311.493 293.279 311.605 293.522 311.828C293.764 312.034 293.885 312.313 293.885 312.668C293.885 313.022 293.764 313.311 293.522 313.535C293.279 313.74 292.878 313.843 292.319 313.843H284.261ZM328.999 344.229H325.978L308.659 314.934V341.878H312.995C313.574 341.878 313.984 341.99 314.226 342.214C314.469 342.419 314.59 342.699 314.59 343.053C314.59 343.389 314.469 343.669 314.226 343.893C313.984 344.117 313.574 344.229 312.995 344.229H304.35C303.771 344.229 303.361 344.117 303.119 343.893C302.876 343.669 302.755 343.389 302.755 343.053C302.755 342.699 302.876 342.419 303.119 342.214C303.361 341.99 303.771 341.878 304.35 341.878H306.308V313.843H303.147C302.587 313.843 302.186 313.74 301.944 313.535C301.701 313.311 301.58 313.022 301.58 312.668C301.58 312.313 301.701 312.034 301.944 311.828C302.186 311.605 302.587 311.493 303.147 311.493H309.302L326.649 340.843V313.843H322.312C321.753 313.843 321.352 313.74 321.109 313.535C320.867 313.311 320.746 313.022 320.746 312.668C320.746 312.313 320.858 312.034 321.081 311.828C321.324 311.605 321.734 311.493 322.312 311.493H330.986C331.546 311.493 331.947 311.605 332.189 311.828C332.432 312.034 332.553 312.313 332.553 312.668C332.553 313.022 332.432 313.311 332.189 313.535C331.947 313.74 331.546 313.843 330.986 313.843H328.999V344.229ZM394.723 313.843V313.06C394.723 312.5 394.825 312.099 395.031 311.856C395.254 311.614 395.544 311.493 395.898 311.493C396.252 311.493 396.532 311.614 396.737 311.856C396.961 312.099 397.073 312.5 397.073 313.06V319.047C397.073 319.607 396.961 320.008 396.737 320.25C396.532 320.493 396.252 320.614 395.898 320.614C395.562 320.614 395.282 320.502 395.059 320.278C394.853 320.054 394.741 319.691 394.723 319.187C394.63 317.62 393.818 316.212 392.289 314.962C390.778 313.712 388.791 313.088 386.329 313.088C383.736 313.088 381.675 313.759 380.146 315.102C378.616 316.426 377.851 317.993 377.851 319.803C377.851 320.735 378.066 321.584 378.495 322.349C378.924 323.113 379.493 323.738 380.202 324.223C380.91 324.69 381.712 325.072 382.608 325.37C383.503 325.65 384.902 325.949 386.805 326.266C389.994 326.788 392.195 327.32 393.408 327.861C395.031 328.588 396.252 329.595 397.073 330.882C397.912 332.169 398.332 333.69 398.332 335.443C398.332 338.129 397.26 340.423 395.115 342.326C392.969 344.21 390.078 345.152 386.441 345.152C382.356 345.152 379.092 343.874 376.648 341.319V342.662C376.648 343.221 376.536 343.622 376.312 343.865C376.107 344.107 375.827 344.229 375.473 344.229C375.137 344.229 374.858 344.107 374.634 343.865C374.41 343.622 374.298 343.221 374.298 342.662V336.17C374.298 335.592 374.401 335.182 374.606 334.939C374.83 334.697 375.119 334.576 375.473 334.576C375.809 334.576 376.079 334.688 376.284 334.911C376.508 335.135 376.63 335.499 376.648 336.003C376.741 337.719 377.655 339.286 379.39 340.703C381.144 342.102 383.494 342.802 386.441 342.802C389.388 342.802 391.71 342.065 393.408 340.591C395.124 339.118 395.982 337.374 395.982 335.359C395.982 334.128 395.655 333.037 395.003 332.086C394.35 331.116 393.38 330.351 392.093 329.791C391.197 329.399 389.332 328.961 386.497 328.476C382.598 327.823 379.791 326.825 378.075 325.482C376.359 324.139 375.501 322.227 375.501 319.747C375.501 317.284 376.48 315.167 378.439 313.395C380.416 311.623 383.018 310.737 386.245 310.737C389.528 310.737 392.354 311.773 394.723 313.843ZM415.623 330.798V341.878H423.681C424.241 341.878 424.642 341.99 424.885 342.214C425.127 342.419 425.248 342.699 425.248 343.053C425.248 343.389 425.127 343.669 424.885 343.893C424.642 344.117 424.241 344.229 423.681 344.229H410.111C409.552 344.229 409.151 344.117 408.908 343.893C408.666 343.669 408.545 343.389 408.545 343.053C408.545 342.699 408.666 342.419 408.908 342.214C409.151 341.99 409.552 341.878 410.111 341.878H413.273V313.843H410.111C409.552 313.843 409.151 313.74 408.908 313.535C408.666 313.311 408.545 313.022 408.545 312.668C408.545 312.313 408.666 312.034 408.908 311.828C409.151 311.605 409.552 311.493 410.111 311.493H423.765C426.992 311.493 429.622 312.444 431.656 314.347C433.707 316.249 434.733 318.478 434.733 321.034C434.733 322.545 434.397 323.906 433.726 325.119C433.073 326.331 432.28 327.282 431.348 327.973C429.949 329.017 428.503 329.782 427.011 330.267C425.929 330.621 424.586 330.798 422.982 330.798H415.623ZM415.623 328.448H423.122C424.857 328.448 426.479 328.066 427.99 327.301C429.52 326.518 430.63 325.566 431.32 324.447C432.029 323.328 432.383 322.19 432.383 321.034C432.383 319.187 431.59 317.527 430.005 316.053C428.419 314.58 426.414 313.843 423.989 313.843H415.623V328.448ZM462.88 333.289H447.436L444.274 341.878H448.779C449.338 341.878 449.739 341.99 449.982 342.214C450.224 342.419 450.346 342.699 450.346 343.053C450.346 343.389 450.224 343.669 449.982 343.893C449.739 344.117 449.338 344.229 448.779 344.229H439.993C439.434 344.229 439.033 344.117 438.79 343.893C438.548 343.669 438.426 343.389 438.426 343.053C438.426 342.699 438.548 342.419 438.79 342.214C439.033 341.99 439.434 341.878 439.993 341.878H441.812L452.192 313.843H445.253C444.694 313.843 444.293 313.74 444.05 313.535C443.808 313.311 443.687 313.022 443.687 312.668C443.687 312.313 443.808 312.034 444.05 311.828C444.293 311.605 444.694 311.493 445.253 311.493H457.089L468.56 341.878H470.379C470.938 341.878 471.339 341.99 471.582 342.214C471.824 342.419 471.946 342.699 471.946 343.053C471.946 343.389 471.824 343.669 471.582 343.893C471.339 344.117 470.938 344.229 470.379 344.229H461.621C461.043 344.229 460.633 344.117 460.39 343.893C460.148 343.669 460.026 343.389 460.026 343.053C460.026 342.699 460.148 342.419 460.39 342.214C460.633 341.99 461.043 341.878 461.621 341.878H466.098L462.88 333.289ZM461.985 330.938L455.494 313.843H454.626L448.331 330.938H461.985ZM499.897 314.71V313.06C499.897 312.5 500 312.099 500.205 311.856C500.429 311.614 500.718 311.493 501.072 311.493C501.427 311.493 501.706 311.614 501.912 311.856C502.135 312.099 502.247 312.5 502.247 313.06V319.579C502.247 320.157 502.135 320.567 501.912 320.81C501.706 321.052 501.427 321.174 501.072 321.174C500.755 321.174 500.485 321.062 500.261 320.838C500.056 320.614 499.934 320.25 499.897 319.747C499.804 318.18 498.955 316.79 497.351 315.578C495.187 313.918 492.725 313.088 489.964 313.088C488.155 313.088 486.448 313.489 484.844 314.291C483.65 314.869 482.699 315.578 481.99 316.417C480.759 317.872 479.78 319.485 479.052 321.258C478.53 322.563 478.269 324.037 478.269 325.678V329.791C478.269 333.298 479.537 336.348 482.074 338.94C484.611 341.515 487.558 342.802 490.916 342.802C492.93 342.802 494.73 342.363 496.316 341.487C497.92 340.61 499.468 339.286 500.96 337.513C501.277 337.122 501.632 336.926 502.023 336.926C502.359 336.926 502.63 337.029 502.835 337.234C503.04 337.439 503.143 337.7 503.143 338.017C503.143 338.446 502.742 339.099 501.939 339.976C500.41 341.692 498.685 342.988 496.763 343.865C494.861 344.723 492.93 345.152 490.972 345.152C489.274 345.152 487.549 344.825 485.795 344.173C484.452 343.669 483.343 343.081 482.466 342.41C481.589 341.738 480.507 340.61 479.22 339.024C477.952 337.42 477.085 335.947 476.618 334.604C476.152 333.242 475.919 331.75 475.919 330.127V325.342C475.919 323.03 476.534 320.67 477.765 318.264C479.015 315.839 480.713 313.983 482.858 312.696C485.021 311.39 487.362 310.737 489.88 310.737C493.76 310.737 497.099 312.062 499.897 314.71ZM516.321 328.42V341.878H534.395V334.939C534.395 334.38 534.498 333.979 534.703 333.736C534.927 333.494 535.216 333.373 535.571 333.373C535.925 333.373 536.205 333.494 536.41 333.736C536.634 333.979 536.746 334.38 536.746 334.939V344.229H510.809C510.249 344.229 509.848 344.117 509.606 343.893C509.363 343.669 509.242 343.389 509.242 343.053C509.242 342.699 509.363 342.419 509.606 342.214C509.848 341.99 510.249 341.878 510.809 341.878H513.971V313.843H510.809C510.249 313.843 509.848 313.74 509.606 313.535C509.363 313.311 509.242 313.022 509.242 312.668C509.242 312.313 509.363 312.034 509.606 311.828C509.848 311.605 510.249 311.493 510.809 311.493H535.515V319.579C535.515 320.138 535.403 320.539 535.179 320.782C534.974 321.024 534.694 321.146 534.34 321.146C533.985 321.146 533.696 321.024 533.472 320.782C533.267 320.539 533.164 320.138 533.164 319.579V313.843H516.321V326.07H524.743V323.412C524.743 322.852 524.855 322.451 525.078 322.209C525.302 321.966 525.591 321.845 525.946 321.845C526.281 321.845 526.561 321.966 526.785 322.209C527.009 322.451 527.121 322.852 527.121 323.412V331.078C527.121 331.638 527.009 332.039 526.785 332.281C526.561 332.524 526.281 332.645 525.946 332.645C525.591 332.645 525.302 332.524 525.078 332.281C524.855 332.039 524.743 331.638 524.743 331.078V328.42H516.321Z" fill="white"/>
</svg>
