<svg width="752" height="300" viewBox="0 0 752 300" fill="none" xmlns="http://www.w3.org/2000/svg">
<path d="M241.129 18.4646V134.076C247.376 134.076 251.989 135.47 254.968 138.257C257.947 140.948 259.437 144.455 259.437 148.78C259.437 153.105 257.899 156.66 254.824 159.447C251.845 162.234 247.28 163.628 241.129 163.628V175.448C247.376 175.448 251.989 176.842 254.968 179.629C257.947 182.416 259.437 185.972 259.437 190.296C259.437 194.621 257.899 198.177 254.824 200.964C251.845 203.655 246.8 205 239.688 205H200.046C192.934 205 187.841 203.655 184.765 200.964C181.786 198.177 180.296 194.573 180.296 190.152C180.296 185.828 181.786 182.32 184.765 179.629C187.841 176.842 192.934 175.448 200.046 175.448H211.578V163.628H131.284V138.977L202.064 18.4646H241.129ZM211.578 134.076V61.4225L168.764 134.076H211.578ZM439.63 95.2988V127.733C439.63 146.954 434.056 165.358 422.908 182.944C411.856 200.531 395.999 209.325 375.337 209.325C363.42 209.325 353.329 206.73 345.065 201.54C336.896 196.255 329.112 186.596 321.712 172.565C314.408 158.438 310.756 143.494 310.756 127.733V95.2988C310.756 76.1743 316.282 57.8187 327.334 40.2319C338.385 22.549 354.242 13.7075 374.904 13.7075C386.725 13.7075 396.72 16.3023 404.889 21.4919C413.153 26.6814 420.986 36.3397 428.386 50.4668C435.882 64.4978 439.63 79.4418 439.63 95.2988ZM409.934 95.2988C409.934 79.2496 405.465 65.2186 396.528 53.2058C391.434 46.5747 384.274 43.2591 375.049 43.2591C366.111 43.2591 358.807 46.911 353.137 54.2148C344.584 65.2667 340.307 78.9613 340.307 95.2988V127.733C340.307 143.879 344.824 157.91 353.858 169.826C358.855 176.457 366.015 179.773 375.337 179.773C384.178 179.773 391.434 176.121 397.104 168.817C405.657 157.766 409.934 144.071 409.934 127.733V95.2988ZM567.494 13.7075V175.448H597.334C604.446 175.448 609.491 176.842 612.47 179.629C615.546 182.32 617.083 185.876 617.083 190.296C617.083 194.621 615.546 198.177 612.47 200.964C609.491 203.655 604.446 205 597.334 205H508.103C500.991 205 495.898 203.655 492.823 200.964C489.843 198.177 488.354 194.573 488.354 190.152C488.354 185.828 489.843 182.32 492.823 179.629C495.898 176.842 500.991 175.448 508.103 175.448H537.943V52.1967L511.563 59.1161C507.334 60.2693 504.163 60.8459 502.048 60.8459C498.3 60.8459 495.033 59.3563 492.246 56.3772C489.555 53.398 488.21 49.7461 488.21 45.4214C488.21 41.4812 489.219 38.4059 491.237 36.1956C493.255 33.8891 497.483 31.871 503.922 30.1411L567.494 13.7075Z" fill="white"/>
<path d="M18.4895 267.553V279.862H24.5328C25.0873 279.862 25.4846 279.973 25.7249 280.195C25.9651 280.398 26.0853 280.675 26.0853 281.026C26.0853 281.359 25.9651 281.636 25.7249 281.858C25.4846 282.08 25.0873 282.191 24.5328 282.191H10.0897C9.53527 282.191 9.13793 282.08 8.89767 281.858C8.65741 281.636 8.53728 281.359 8.53728 281.026C8.53728 280.675 8.64817 280.398 8.86995 280.195C9.1102 279.973 9.51679 279.862 10.0897 279.862H16.1331V267.553L5.9037 252.085H4.5176C3.96316 252.085 3.56582 251.983 3.32556 251.78C3.0853 251.558 2.96517 251.271 2.96517 250.92C2.96517 250.569 3.0853 250.292 3.32556 250.089C3.56582 249.867 3.96316 249.756 4.5176 249.756H10.9214C11.4758 249.756 11.8732 249.867 12.1134 250.089C12.3537 250.292 12.4738 250.569 12.4738 250.92C12.4738 251.271 12.3537 251.558 12.1134 251.78C11.8732 251.983 11.4758 252.085 10.9214 252.085H8.62045L17.3251 265.197L25.8358 252.085H23.5626C22.9897 252.085 22.5831 251.983 22.3428 251.78C22.1026 251.558 21.9824 251.271 21.9824 250.92C21.9824 250.569 22.1026 250.292 22.3428 250.089C22.5831 249.867 22.9897 249.756 23.5626 249.756H29.9386C30.4931 249.756 30.8904 249.867 31.1307 250.089C31.3709 250.292 31.491 250.569 31.491 250.92C31.491 251.271 31.3709 251.558 31.1307 251.78C30.8904 251.983 30.4931 252.085 29.9386 252.085H28.5525L18.4895 267.553ZM64.3693 270.243C64.3693 273.791 63.0941 276.822 60.5436 279.335C58.0117 281.849 54.953 283.105 51.3677 283.105C47.7453 283.105 44.6682 281.849 42.1363 279.335C39.6043 276.803 38.3384 273.772 38.3384 270.243C38.3384 266.694 39.6043 263.663 42.1363 261.15C44.6682 258.618 47.7453 257.352 51.3677 257.352C54.953 257.352 58.0117 258.609 60.5436 261.122C63.0941 263.635 64.3693 266.676 64.3693 270.243ZM62.0129 270.243C62.0129 267.322 60.9687 264.837 58.8803 262.785C56.8104 260.734 54.297 259.708 51.34 259.708C48.3829 259.708 45.8602 260.743 43.7719 262.813C41.702 264.864 40.667 267.341 40.667 270.243C40.667 273.126 41.702 275.602 43.7719 277.672C45.8602 279.742 48.3829 280.777 51.34 280.777C54.297 280.777 56.8104 279.751 58.8803 277.7C60.9687 275.63 62.0129 273.144 62.0129 270.243ZM93.4219 282.191V278.781C90.2431 281.664 86.8055 283.105 83.1093 283.105C80.8361 283.105 79.1081 282.486 77.9253 281.248C76.3913 279.622 75.6244 277.727 75.6244 275.565V260.54H72.4918C71.9373 260.54 71.54 260.429 71.2997 260.207C71.0595 259.985 70.9394 259.699 70.9394 259.348C70.9394 259.015 71.0595 258.738 71.2997 258.516C71.54 258.294 71.9373 258.183 72.4918 258.183H77.953V275.565C77.953 277.081 78.4335 278.328 79.3946 279.308C80.3556 280.287 81.5569 280.777 82.9984 280.777C86.7871 280.777 90.2615 279.04 93.4219 275.565V260.54H89.125C88.5705 260.54 88.1732 260.429 87.9329 260.207C87.6927 259.985 87.5725 259.699 87.5725 259.348C87.5725 259.015 87.6927 258.738 87.9329 258.516C88.1732 258.294 88.5705 258.183 89.125 258.183H95.7505V279.862H97.7188C98.2732 279.862 98.6705 279.973 98.9108 280.195C99.1511 280.398 99.2712 280.675 99.2712 281.026C99.2712 281.359 99.1511 281.636 98.9108 281.858C98.6705 282.08 98.2732 282.191 97.7188 282.191H93.4219ZM160.343 282.191V278.836C156.961 281.682 153.347 283.105 149.503 283.105C146.713 283.105 144.532 282.403 142.961 280.999C141.39 279.576 140.605 277.838 140.605 275.787C140.605 273.532 141.64 271.564 143.709 269.882C145.779 268.2 148.801 267.359 152.775 267.359C153.846 267.359 155.011 267.433 156.267 267.581C157.524 267.711 158.883 267.923 160.343 268.219V264.449C160.343 263.173 159.751 262.065 158.568 261.122C157.386 260.179 155.611 259.708 153.246 259.708C151.435 259.708 148.893 260.235 145.622 261.288C145.031 261.473 144.652 261.566 144.486 261.566C144.19 261.566 143.931 261.455 143.709 261.233C143.506 261.011 143.404 260.734 143.404 260.401C143.404 260.087 143.497 259.838 143.682 259.653C143.94 259.376 144.985 258.997 146.814 258.516C149.697 257.74 151.878 257.352 153.357 257.352C156.295 257.352 158.587 258.082 160.232 259.542C161.877 260.983 162.699 262.619 162.699 264.449V279.862H165.804C166.377 279.862 166.783 279.973 167.024 280.195C167.264 280.398 167.384 280.675 167.384 281.026C167.384 281.359 167.264 281.636 167.024 281.858C166.783 282.08 166.377 282.191 165.804 282.191H160.343ZM160.343 270.603C159.252 270.289 158.097 270.058 156.877 269.91C155.658 269.762 154.373 269.688 153.024 269.688C149.642 269.688 146.999 270.418 145.096 271.878C143.654 272.969 142.933 274.271 142.933 275.787C142.933 277.191 143.478 278.374 144.569 279.335C145.678 280.296 147.286 280.777 149.392 280.777C151.407 280.777 153.274 280.38 154.992 279.585C156.73 278.772 158.513 277.487 160.343 275.731V270.603ZM184.96 258.183V264.061C187.991 261.325 190.255 259.57 191.752 258.793C193.267 257.999 194.662 257.601 195.938 257.601C197.324 257.601 198.608 258.073 199.791 259.015C200.992 259.939 201.593 260.641 201.593 261.122C201.593 261.473 201.473 261.769 201.232 262.009C201.011 262.231 200.724 262.342 200.373 262.342C200.188 262.342 200.031 262.314 199.902 262.259C199.772 262.185 199.532 261.972 199.181 261.621C198.534 260.974 197.971 260.531 197.49 260.29C197.009 260.05 196.538 259.93 196.076 259.93C195.06 259.93 193.831 260.337 192.389 261.15C190.966 261.963 188.49 263.95 184.96 267.11V279.862H195.272C195.845 279.862 196.252 279.973 196.492 280.195C196.732 280.398 196.852 280.675 196.852 281.026C196.852 281.359 196.732 281.636 196.492 281.858C196.252 282.08 195.845 282.191 195.272 282.191H177.003C176.449 282.191 176.052 282.089 175.811 281.886C175.571 281.664 175.451 281.387 175.451 281.054C175.451 280.74 175.562 280.481 175.784 280.278C176.024 280.056 176.431 279.945 177.003 279.945H182.631V260.54H178.334C177.78 260.54 177.382 260.429 177.142 260.207C176.902 259.985 176.782 259.699 176.782 259.348C176.782 259.015 176.893 258.738 177.114 258.516C177.355 258.294 177.761 258.183 178.334 258.183H184.96ZM234.443 270.742H210.713C211.12 273.754 212.377 276.184 214.484 278.032C216.609 279.862 219.233 280.777 222.357 280.777C224.094 280.777 225.914 280.49 227.818 279.917C229.721 279.345 231.274 278.587 232.475 277.644C232.826 277.367 233.131 277.228 233.39 277.228C233.686 277.228 233.944 277.349 234.166 277.589C234.388 277.811 234.499 278.079 234.499 278.393C234.499 278.707 234.351 279.012 234.055 279.308C233.168 280.232 231.588 281.1 229.315 281.913C227.06 282.708 224.741 283.105 222.357 283.105C218.365 283.105 215.029 281.803 212.349 279.197C209.688 276.572 208.357 273.403 208.357 269.688C208.357 266.306 209.604 263.404 212.099 260.983C214.613 258.562 217.718 257.352 221.414 257.352C225.221 257.352 228.354 258.599 230.812 261.094C233.27 263.571 234.48 266.787 234.443 270.742ZM232.087 268.385C231.625 265.816 230.405 263.728 228.428 262.12C226.469 260.512 224.131 259.708 221.414 259.708C218.697 259.708 216.359 260.503 214.4 262.092C212.441 263.682 211.222 265.779 210.741 268.385H232.087ZM282.513 258.183V261.704C284.14 260.059 285.609 258.923 286.921 258.294C288.233 257.666 289.712 257.352 291.356 257.352C293.131 257.352 294.748 257.731 296.208 258.488C297.243 259.043 298.176 259.967 299.008 261.261C299.858 262.536 300.283 263.848 300.283 265.197V279.862H302.251C302.806 279.862 303.203 279.973 303.443 280.195C303.683 280.398 303.804 280.675 303.804 281.026C303.804 281.359 303.683 281.636 303.443 281.858C303.203 282.08 302.806 282.191 302.251 282.191H296.014C295.441 282.191 295.034 282.08 294.794 281.858C294.554 281.636 294.434 281.359 294.434 281.026C294.434 280.675 294.554 280.398 294.794 280.195C295.034 279.973 295.441 279.862 296.014 279.862H297.954V265.585C297.954 263.94 297.354 262.554 296.152 261.427C294.951 260.281 293.343 259.708 291.329 259.708C289.795 259.708 288.464 260.022 287.337 260.651C286.209 261.261 284.602 262.795 282.513 265.253V279.862H285.147C285.701 279.862 286.099 279.973 286.339 280.195C286.579 280.398 286.699 280.675 286.699 281.026C286.699 281.359 286.579 281.636 286.339 281.858C286.099 282.08 285.701 282.191 285.147 282.191H277.551C276.997 282.191 276.599 282.08 276.359 281.858C276.119 281.636 275.999 281.359 275.999 281.026C275.999 280.675 276.119 280.398 276.359 280.195C276.599 279.973 276.997 279.862 277.551 279.862H280.185V260.54H278.216C277.662 260.54 277.264 260.429 277.024 260.207C276.784 259.985 276.664 259.699 276.664 259.348C276.664 259.015 276.784 258.738 277.024 258.516C277.264 258.294 277.662 258.183 278.216 258.183H282.513ZM337.153 270.243C337.153 273.791 335.878 276.822 333.327 279.335C330.796 281.849 327.737 283.105 324.152 283.105C320.529 283.105 317.452 281.849 314.92 279.335C312.388 276.803 311.122 273.772 311.122 270.243C311.122 266.694 312.388 263.663 314.92 261.15C317.452 258.618 320.529 257.352 324.152 257.352C327.737 257.352 330.796 258.609 333.327 261.122C335.878 263.635 337.153 266.676 337.153 270.243ZM334.797 270.243C334.797 267.322 333.753 264.837 331.664 262.785C329.594 260.734 327.081 259.708 324.124 259.708C321.167 259.708 318.644 260.743 316.556 262.813C314.486 264.864 313.451 267.341 313.451 270.243C313.451 273.126 314.486 275.602 316.556 277.672C318.644 279.742 321.167 280.777 324.124 280.777C327.081 280.777 329.594 279.751 331.664 277.7C333.753 275.63 334.797 273.144 334.797 270.243ZM353.454 258.183H366.095C366.649 258.183 367.047 258.294 367.287 258.516C367.527 258.738 367.647 259.024 367.647 259.376C367.647 259.708 367.527 259.985 367.287 260.207C367.047 260.429 366.649 260.54 366.095 260.54H353.454V276.036C353.454 277.386 353.99 278.513 355.061 279.418C356.152 280.324 357.741 280.777 359.83 280.777C361.401 280.777 363.101 280.546 364.93 280.084C366.76 279.603 368.183 279.067 369.2 278.476C369.569 278.236 369.874 278.116 370.114 278.116C370.41 278.116 370.669 278.236 370.891 278.476C371.112 278.698 371.223 278.966 371.223 279.28C371.223 279.557 371.103 279.816 370.863 280.056C370.272 280.666 368.83 281.331 366.538 282.052C364.265 282.754 362.084 283.105 359.996 283.105C357.279 283.105 355.117 282.468 353.509 281.193C351.901 279.917 351.097 278.199 351.097 276.036V260.54H346.8C346.246 260.54 345.849 260.429 345.608 260.207C345.368 259.985 345.248 259.699 345.248 259.348C345.248 259.015 345.368 258.738 345.608 258.516C345.849 258.294 346.246 258.183 346.8 258.183H351.097V251.308C351.097 250.754 351.208 250.357 351.43 250.116C351.652 249.876 351.929 249.756 352.262 249.756C352.613 249.756 352.899 249.876 353.121 250.116C353.343 250.357 353.454 250.754 353.454 251.308V258.183ZM433.126 282.191V278.836C429.744 281.682 426.131 283.105 422.287 283.105C419.497 283.105 417.316 282.403 415.745 280.999C414.174 279.576 413.388 277.838 413.388 275.787C413.388 273.532 414.423 271.564 416.493 269.882C418.563 268.2 421.585 267.359 425.558 267.359C426.63 267.359 427.795 267.433 429.051 267.581C430.308 267.711 431.666 267.923 433.126 268.219V264.449C433.126 263.173 432.535 262.065 431.352 261.122C430.169 260.179 428.395 259.708 426.03 259.708C424.218 259.708 421.677 260.235 418.406 261.288C417.815 261.473 417.436 261.566 417.27 261.566C416.974 261.566 416.715 261.455 416.493 261.233C416.29 261.011 416.188 260.734 416.188 260.401C416.188 260.087 416.281 259.838 416.466 259.653C416.724 259.376 417.769 258.997 419.598 258.516C422.481 257.74 424.662 257.352 426.141 257.352C429.079 257.352 431.371 258.082 433.016 259.542C434.66 260.983 435.483 262.619 435.483 264.449V279.862H438.588C439.161 279.862 439.567 279.973 439.807 280.195C440.048 280.398 440.168 280.675 440.168 281.026C440.168 281.359 440.048 281.636 439.807 281.858C439.567 282.08 439.161 282.191 438.588 282.191H433.126ZM433.126 270.603C432.036 270.289 430.881 270.058 429.661 269.91C428.441 269.762 427.157 269.688 425.808 269.688C422.426 269.688 419.783 270.418 417.879 271.878C416.438 272.969 415.717 274.271 415.717 275.787C415.717 277.191 416.262 278.374 417.353 279.335C418.462 280.296 420.069 280.777 422.176 280.777C424.191 280.777 426.057 280.38 427.776 279.585C429.513 278.772 431.297 277.487 433.126 275.731V270.603ZM468.5 282.191V278.781C465.321 281.664 461.883 283.105 458.187 283.105C455.914 283.105 454.186 282.486 453.003 281.248C451.469 279.622 450.702 277.727 450.702 275.565V260.54H447.57C447.015 260.54 446.618 260.429 446.378 260.207C446.137 259.985 446.017 259.699 446.017 259.348C446.017 259.015 446.137 258.738 446.378 258.516C446.618 258.294 447.015 258.183 447.57 258.183H453.031V275.565C453.031 277.081 453.511 278.328 454.472 279.308C455.433 280.287 456.635 280.777 458.076 280.777C461.865 280.777 465.339 279.04 468.5 275.565V260.54H464.203C463.648 260.54 463.251 260.429 463.011 260.207C462.77 259.985 462.65 259.699 462.65 259.348C462.65 259.015 462.77 258.738 463.011 258.516C463.251 258.294 463.648 258.183 464.203 258.183H470.828V279.862H472.797C473.351 279.862 473.748 279.973 473.989 280.195C474.229 280.398 474.349 280.675 474.349 281.026C474.349 281.359 474.229 281.636 473.989 281.858C473.748 282.08 473.351 282.191 472.797 282.191H468.5ZM489.846 258.183H502.487C503.041 258.183 503.439 258.294 503.679 258.516C503.919 258.738 504.039 259.024 504.039 259.376C504.039 259.708 503.919 259.985 503.679 260.207C503.439 260.429 503.041 260.54 502.487 260.54H489.846V276.036C489.846 277.386 490.381 278.513 491.453 279.418C492.544 280.324 494.133 280.777 496.222 280.777C497.792 280.777 499.493 280.546 501.322 280.084C503.152 279.603 504.575 279.067 505.592 278.476C505.961 278.236 506.266 278.116 506.506 278.116C506.802 278.116 507.061 278.236 507.283 278.476C507.504 278.698 507.615 278.966 507.615 279.28C507.615 279.557 507.495 279.816 507.255 280.056C506.664 280.666 505.222 281.331 502.93 282.052C500.657 282.754 498.476 283.105 496.388 283.105C493.671 283.105 491.509 282.468 489.901 281.193C488.293 279.917 487.489 278.199 487.489 276.036V260.54H483.192C482.638 260.54 482.24 260.429 482 260.207C481.76 259.985 481.64 259.699 481.64 259.348C481.64 259.015 481.76 258.738 482 258.516C482.24 258.294 482.638 258.183 483.192 258.183H487.489V251.308C487.489 250.754 487.6 250.357 487.822 250.116C488.044 249.876 488.321 249.756 488.653 249.756C489.005 249.756 489.291 249.876 489.513 250.116C489.735 250.357 489.846 250.754 489.846 251.308V258.183ZM521.06 247.4V261.732C522.539 260.124 523.953 258.997 525.302 258.35C526.669 257.684 528.194 257.352 529.876 257.352C531.687 257.352 533.221 257.675 534.478 258.322C535.753 258.95 536.816 259.93 537.666 261.261C538.516 262.573 538.941 263.959 538.941 265.419V279.862H541.547C542.12 279.862 542.517 279.973 542.739 280.195C542.979 280.398 543.099 280.675 543.099 281.026C543.099 281.359 542.979 281.636 542.739 281.858C542.517 282.08 542.12 282.191 541.547 282.191H533.979C533.406 282.191 532.999 282.08 532.759 281.858C532.519 281.636 532.399 281.359 532.399 281.026C532.399 280.675 532.519 280.398 532.759 280.195C532.999 279.973 533.406 279.862 533.979 279.862H536.585V265.585C536.585 263.903 535.975 262.499 534.755 261.371C533.554 260.244 531.872 259.68 529.71 259.68C528.009 259.68 526.559 260.096 525.357 260.928C524.489 261.519 523.056 262.915 521.06 265.114V279.862H523.694C524.248 279.862 524.646 279.973 524.886 280.195C525.126 280.398 525.246 280.675 525.246 281.026C525.246 281.359 525.126 281.636 524.886 281.858C524.646 282.08 524.248 282.191 523.694 282.191H516.098C515.544 282.191 515.146 282.08 514.906 281.858C514.666 281.636 514.546 281.359 514.546 281.026C514.546 280.675 514.666 280.398 514.906 280.195C515.146 279.973 515.544 279.862 516.098 279.862H518.732V249.756H515.599C515.045 249.756 514.647 249.645 514.407 249.423C514.167 249.202 514.047 248.915 514.047 248.564C514.047 248.231 514.167 247.954 514.407 247.732C514.647 247.511 515.045 247.4 515.599 247.4H521.06ZM575.839 270.243C575.839 273.791 574.564 276.822 572.013 279.335C569.481 281.849 566.423 283.105 562.837 283.105C559.215 283.105 556.138 281.849 553.606 279.335C551.074 276.803 549.808 273.772 549.808 270.243C549.808 266.694 551.074 263.663 553.606 261.15C556.138 258.618 559.215 257.352 562.837 257.352C566.423 257.352 569.481 258.609 572.013 261.122C574.564 263.635 575.839 266.676 575.839 270.243ZM573.483 270.243C573.483 267.322 572.438 264.837 570.35 262.785C568.28 260.734 565.767 259.708 562.81 259.708C559.853 259.708 557.33 260.743 555.242 262.813C553.172 264.864 552.137 267.341 552.137 270.243C552.137 273.126 553.172 275.602 555.242 277.672C557.33 279.742 559.853 280.777 562.81 280.777C565.767 280.777 568.28 279.751 570.35 277.7C572.438 275.63 573.483 273.144 573.483 270.243ZM594.135 258.183V264.061C597.166 261.325 599.43 259.57 600.927 258.793C602.443 257.999 603.838 257.601 605.113 257.601C606.499 257.601 607.784 258.073 608.967 259.015C610.168 259.939 610.769 260.641 610.769 261.122C610.769 261.473 610.648 261.769 610.408 262.009C610.186 262.231 609.9 262.342 609.549 262.342C609.364 262.342 609.207 262.314 609.078 262.259C608.948 262.185 608.708 261.972 608.357 261.621C607.71 260.974 607.146 260.531 606.666 260.29C606.185 260.05 605.714 259.93 605.252 259.93C604.235 259.93 603.006 260.337 601.565 261.15C600.142 261.963 597.665 263.95 594.135 267.11V279.862H604.448C605.021 279.862 605.427 279.973 605.668 280.195C605.908 280.398 606.028 280.675 606.028 281.026C606.028 281.359 605.908 281.636 605.668 281.858C605.427 282.08 605.021 282.191 604.448 282.191H586.179C585.625 282.191 585.227 282.089 584.987 281.886C584.747 281.664 584.627 281.387 584.627 281.054C584.627 280.74 584.738 280.481 584.959 280.278C585.2 280.056 585.606 279.945 586.179 279.945H591.807V260.54H587.51C586.955 260.54 586.558 260.429 586.318 260.207C586.078 259.985 585.957 259.699 585.957 259.348C585.957 259.015 586.068 258.738 586.29 258.516C586.53 258.294 586.937 258.183 587.51 258.183H594.135ZM632.17 246.235V252.251H628.732V246.235H632.17ZM632.253 258.183V279.862H641.401C641.974 279.862 642.381 279.973 642.621 280.195C642.861 280.398 642.982 280.675 642.982 281.026C642.982 281.359 642.861 281.636 642.621 281.858C642.381 282.08 641.974 282.191 641.401 282.191H620.776C620.222 282.191 619.824 282.08 619.584 281.858C619.344 281.636 619.224 281.359 619.224 281.026C619.224 280.675 619.344 280.398 619.584 280.195C619.824 279.973 620.222 279.862 620.776 279.862H629.924V260.54H623.133C622.578 260.54 622.172 260.429 621.913 260.207C621.673 259.985 621.552 259.708 621.552 259.376C621.552 259.024 621.673 258.738 621.913 258.516C622.153 258.294 622.56 258.183 623.133 258.183H632.253ZM675.305 258.183V260.263L657.868 279.862H673.614V276.646C673.614 276.092 673.716 275.695 673.919 275.454C674.141 275.214 674.427 275.094 674.779 275.094C675.13 275.094 675.416 275.214 675.638 275.454C675.86 275.695 675.971 276.092 675.971 276.646L675.943 282.191H654.652V280.112L672.006 260.54H657.536V263.7C657.536 264.255 657.425 264.652 657.203 264.892C656.981 265.132 656.704 265.253 656.371 265.253C656.02 265.253 655.734 265.132 655.512 264.892C655.29 264.652 655.179 264.255 655.179 263.7V258.183H675.305ZM711.815 270.742H688.085C688.492 273.754 689.748 276.184 691.855 278.032C693.981 279.862 696.605 280.777 699.728 280.777C701.466 280.777 703.286 280.49 705.19 279.917C707.093 279.345 708.646 278.587 709.847 277.644C710.198 277.367 710.503 277.228 710.762 277.228C711.057 277.228 711.316 277.349 711.538 277.589C711.76 277.811 711.87 278.079 711.87 278.393C711.87 278.707 711.723 279.012 711.427 279.308C710.54 280.232 708.96 281.1 706.686 281.913C704.432 282.708 702.112 283.105 699.728 283.105C695.736 283.105 692.4 281.803 689.721 279.197C687.059 276.572 685.729 273.403 685.729 269.688C685.729 266.306 686.976 263.404 689.471 260.983C691.985 258.562 695.089 257.352 698.786 257.352C702.593 257.352 705.725 258.599 708.183 261.094C710.641 263.571 711.852 266.787 711.815 270.742ZM709.459 268.385C708.997 265.816 707.777 263.728 705.799 262.12C703.84 260.512 701.502 259.708 698.786 259.708C696.069 259.708 693.731 260.503 691.772 262.092C689.813 263.682 688.593 265.779 688.113 268.385H709.459ZM744.721 247.4V279.862H747.826C748.399 279.862 748.805 279.973 749.046 280.195C749.286 280.398 749.406 280.675 749.406 281.026C749.406 281.359 749.286 281.636 749.046 281.858C748.805 282.08 748.399 282.191 747.826 282.191H742.365V277.561C739.666 281.257 736.238 283.105 732.08 283.105C729.973 283.105 727.949 282.551 726.009 281.442C724.087 280.315 722.562 278.716 721.435 276.646C720.326 274.576 719.771 272.442 719.771 270.243C719.771 268.025 720.326 265.89 721.435 263.839C722.562 261.769 724.087 260.17 726.009 259.043C727.949 257.915 729.982 257.352 732.108 257.352C736.173 257.352 739.592 259.2 742.365 262.896V249.756H739.26C738.687 249.756 738.28 249.645 738.04 249.423C737.8 249.202 737.68 248.915 737.68 248.564C737.68 248.231 737.8 247.954 738.04 247.732C738.28 247.511 738.687 247.4 739.26 247.4H744.721ZM742.365 270.243C742.365 267.286 741.367 264.791 739.371 262.758C737.375 260.725 735 259.708 732.246 259.708C729.474 259.708 727.09 260.725 725.094 262.758C723.098 264.791 722.1 267.286 722.1 270.243C722.1 273.181 723.098 275.676 725.094 277.727C727.09 279.76 729.474 280.777 732.246 280.777C735 280.777 737.375 279.76 739.371 277.727C741.367 275.676 742.365 273.181 742.365 270.243Z" fill="white"/>
</svg>
