<svg width="534" height="300" viewBox="0 0 534 300" fill="none" xmlns="http://www.w3.org/2000/svg">
<path d="M63.7875 47.8955V83.0962C74.7517 79.6338 84.706 77.9026 93.6504 77.9026C111.828 77.9026 126.927 84.106 138.95 96.5128C150.972 108.92 156.983 124.933 156.983 144.553C156.983 164.75 150.875 180.619 138.661 192.16C126.543 203.605 107.933 209.328 82.8305 209.328C60.7099 209.328 43.2058 205.144 30.3181 196.777C22.8163 191.968 19.0654 186.438 19.0654 180.186C19.0654 176.243 20.5081 172.829 23.3934 169.944C26.3749 166.962 29.8853 165.471 33.9247 165.471C37.2909 165.471 40.9456 167.106 44.8888 170.376C48.8321 173.55 52.9677 175.762 57.2956 177.013C63.4509 178.84 71.3374 179.754 80.9551 179.754C98.8439 179.754 111.058 176.916 117.598 171.242C124.138 165.471 127.408 156.671 127.408 144.842C127.408 133.204 124.235 124.067 117.887 117.431C111.635 110.795 103.557 107.477 93.6504 107.477C82.9748 107.477 70.8084 110.939 57.1514 117.864C54.0737 119.499 51.3808 120.316 49.0725 120.316C44.8408 120.316 41.2822 118.778 38.3969 115.7C35.6078 112.622 34.2132 108.631 34.2132 103.726V18.3212H124.667C131.784 18.3212 136.834 19.7158 139.815 22.5049C142.893 25.1978 144.432 28.7564 144.432 33.1805C144.432 37.5084 142.893 41.067 139.815 43.8561C136.834 46.549 131.784 47.8955 124.667 47.8955H63.7875ZM330.678 95.2144V127.674C330.678 146.909 325.099 165.327 313.943 182.927C302.883 200.528 287.013 209.328 266.335 209.328C254.41 209.328 244.311 206.731 236.04 201.538C227.865 196.248 220.075 186.582 212.669 172.54C205.36 158.402 201.705 143.447 201.705 127.674V95.2144C201.705 76.0753 207.235 57.7055 218.295 40.1052C229.356 22.4087 245.225 13.5605 265.903 13.5605C277.732 13.5605 287.735 16.1572 295.91 21.3508C304.181 26.5443 312.019 36.2101 319.425 50.348C326.927 64.3898 330.678 79.3453 330.678 95.2144ZM300.959 95.2144C300.959 79.1529 296.487 65.1111 287.542 53.0891C282.445 46.4529 275.28 43.1348 266.047 43.1348C257.103 43.1348 249.793 46.7895 244.119 54.0989C235.559 65.1592 231.279 78.8644 231.279 95.2144V127.674C231.279 143.832 235.799 157.873 244.84 169.799C249.841 176.436 257.006 179.754 266.335 179.754C275.184 179.754 282.445 176.099 288.119 168.79C296.679 157.729 300.959 144.024 300.959 127.674V95.2144ZM508.123 95.2144V127.674C508.123 146.909 502.545 165.327 491.389 182.927C480.328 200.528 464.459 209.328 443.781 209.328C431.855 209.328 421.757 206.731 413.486 201.538C405.311 196.248 397.52 186.582 390.115 172.54C382.805 158.402 379.151 143.447 379.151 127.674V95.2144C379.151 76.0753 384.681 57.7055 395.741 40.1052C406.801 22.4087 422.671 13.5605 443.349 13.5605C455.178 13.5605 465.181 16.1572 473.356 21.3508C481.627 26.5443 489.465 36.2101 496.871 50.348C504.373 64.3898 508.123 79.3453 508.123 95.2144ZM478.405 95.2144C478.405 79.1529 473.933 65.1111 464.988 53.0891C459.891 46.4529 452.726 43.1348 443.493 43.1348C434.548 43.1348 427.239 46.7895 421.565 54.0989C413.005 65.1592 408.725 78.8644 408.725 95.2144V127.674C408.725 143.832 413.245 157.873 422.286 169.799C427.287 176.436 434.452 179.754 443.781 179.754C452.63 179.754 459.891 176.099 465.565 168.79C474.125 157.729 478.405 144.024 478.405 127.674V95.2144Z" fill="white"/>
<path d="M105.759 282.227H102.763L85.5902 253.18V279.897H89.8904C90.4637 279.897 90.8706 280.008 91.1111 280.23C91.3515 280.433 91.4717 280.711 91.4717 281.062C91.4717 281.395 91.3515 281.672 91.1111 281.894C90.8706 282.116 90.4637 282.227 89.8904 282.227H81.3177C80.7443 282.227 80.3374 282.116 80.097 281.894C79.8565 281.672 79.7363 281.395 79.7363 281.062C79.7363 280.711 79.8565 280.433 80.097 280.23C80.3374 280.008 80.7443 279.897 81.3177 279.897H83.2597V252.098H80.1247C79.5699 252.098 79.1722 251.996 78.9318 251.793C78.6913 251.571 78.5711 251.284 78.5711 250.933C78.5711 250.581 78.6913 250.304 78.9318 250.101C79.1722 249.879 79.5699 249.768 80.1247 249.768H86.2282L103.429 278.87V252.098H99.1289C98.574 252.098 98.1763 251.996 97.9359 251.793C97.6955 251.571 97.5752 251.284 97.5752 250.933C97.5752 250.581 97.6862 250.304 97.9082 250.101C98.1486 249.879 98.5555 249.768 99.1289 249.768H107.729C108.284 249.768 108.682 249.879 108.922 250.101C109.163 250.304 109.283 250.581 109.283 250.933C109.283 251.284 109.163 251.571 108.922 251.793C108.682 251.996 108.284 252.098 107.729 252.098H105.759V282.227ZM141.777 270.27C141.777 273.821 140.501 276.854 137.948 279.37C135.414 281.885 132.353 283.143 128.765 283.143C125.14 283.143 122.061 281.885 119.527 279.37C116.993 276.836 115.726 273.803 115.726 270.27C115.726 266.719 116.993 263.686 119.527 261.17C122.061 258.636 125.14 257.369 128.765 257.369C132.353 257.369 135.414 258.627 137.948 261.142C140.501 263.658 141.777 266.7 141.777 270.27ZM139.419 270.27C139.419 267.348 138.374 264.86 136.284 262.807C134.212 260.754 131.697 259.728 128.738 259.728C125.778 259.728 123.254 260.763 121.164 262.835C119.092 264.888 118.056 267.366 118.056 270.27C118.056 273.155 119.092 275.634 121.164 277.705C123.254 279.777 125.778 280.812 128.738 280.812C131.697 280.812 134.212 279.786 136.284 277.733C138.374 275.661 139.419 273.174 139.419 270.27ZM198.719 246.244V252.265H195.279V246.244H198.719ZM198.803 258.202V279.897H207.958C208.531 279.897 208.938 280.008 209.179 280.23C209.419 280.433 209.539 280.711 209.539 281.062C209.539 281.395 209.419 281.672 209.179 281.894C208.938 282.116 208.531 282.227 207.958 282.227H187.317C186.762 282.227 186.364 282.116 186.124 281.894C185.883 281.672 185.763 281.395 185.763 281.062C185.763 280.711 185.883 280.433 186.124 280.23C186.364 280.008 186.762 279.897 187.317 279.897H196.472V260.56H189.675C189.12 260.56 188.713 260.449 188.454 260.227C188.214 260.005 188.094 259.728 188.094 259.395C188.094 259.043 188.214 258.757 188.454 258.535C188.695 258.313 189.102 258.202 189.675 258.202H198.803ZM224.444 258.202V261.725C226.072 260.079 227.542 258.941 228.855 258.313C230.168 257.684 231.648 257.369 233.294 257.369C235.07 257.369 236.688 257.748 238.149 258.507C239.185 259.062 240.119 259.986 240.951 261.281C241.802 262.557 242.227 263.871 242.227 265.221V279.897H244.197C244.752 279.897 245.15 280.008 245.39 280.23C245.631 280.433 245.751 280.711 245.751 281.062C245.751 281.395 245.631 281.672 245.39 281.894C245.15 282.116 244.752 282.227 244.197 282.227H237.955C237.382 282.227 236.975 282.116 236.734 281.894C236.494 281.672 236.374 281.395 236.374 281.062C236.374 280.711 236.494 280.433 236.734 280.23C236.975 280.008 237.382 279.897 237.955 279.897H239.897V265.609C239.897 263.963 239.296 262.576 238.094 261.448C236.891 260.301 235.282 259.728 233.266 259.728C231.731 259.728 230.4 260.042 229.271 260.671C228.143 261.281 226.534 262.816 224.444 265.276V279.897H227.08C227.634 279.897 228.032 280.008 228.273 280.23C228.513 280.433 228.633 280.711 228.633 281.062C228.633 281.395 228.513 281.672 228.273 281.894C228.032 282.116 227.634 282.227 227.08 282.227H219.478C218.923 282.227 218.525 282.116 218.285 281.894C218.045 281.672 217.924 281.395 217.924 281.062C217.924 280.711 218.045 280.433 218.285 280.23C218.525 280.008 218.923 279.897 219.478 279.897H222.114V260.56H220.144C219.589 260.56 219.191 260.449 218.951 260.227C218.71 260.005 218.59 259.718 218.59 259.367C218.59 259.034 218.71 258.757 218.951 258.535C219.191 258.313 219.589 258.202 220.144 258.202H224.444ZM261.599 258.202H274.25C274.805 258.202 275.202 258.313 275.443 258.535C275.683 258.757 275.803 259.043 275.803 259.395C275.803 259.728 275.683 260.005 275.443 260.227C275.202 260.449 274.805 260.56 274.25 260.56H261.599V276.068C261.599 277.418 262.135 278.547 263.208 279.453C264.299 280.359 265.89 280.812 267.98 280.812C269.552 280.812 271.254 280.581 273.085 280.119C274.916 279.638 276.34 279.102 277.357 278.51C277.727 278.269 278.032 278.149 278.273 278.149C278.569 278.149 278.827 278.269 279.049 278.51C279.271 278.732 279.382 279 279.382 279.314C279.382 279.592 279.262 279.851 279.022 280.091C278.43 280.701 276.987 281.367 274.694 282.089C272.419 282.791 270.236 283.143 268.146 283.143C265.427 283.143 263.263 282.505 261.654 281.229C260.045 279.952 259.241 278.232 259.241 276.068V260.56H254.941C254.386 260.56 253.988 260.449 253.748 260.227C253.507 260.005 253.387 259.718 253.387 259.367C253.387 259.034 253.507 258.757 253.748 258.535C253.988 258.313 254.386 258.202 254.941 258.202H259.241V251.321C259.241 250.766 259.352 250.369 259.574 250.128C259.796 249.888 260.073 249.768 260.406 249.768C260.757 249.768 261.044 249.888 261.266 250.128C261.488 250.369 261.599 250.766 261.599 251.321V258.202ZM313.402 270.769H289.654C290.061 273.784 291.319 276.216 293.427 278.066C295.554 279.897 298.18 280.812 301.306 280.812C303.045 280.812 304.867 280.526 306.772 279.952C308.677 279.379 310.23 278.621 311.432 277.677C311.784 277.4 312.089 277.261 312.348 277.261C312.644 277.261 312.903 277.381 313.125 277.622C313.347 277.844 313.458 278.112 313.458 278.426C313.458 278.741 313.31 279.046 313.014 279.342C312.126 280.267 310.545 281.136 308.27 281.95C306.013 282.745 303.692 283.143 301.306 283.143C297.311 283.143 293.973 281.839 291.291 279.231C288.627 276.605 287.296 273.433 287.296 269.715C287.296 266.33 288.544 263.427 291.041 261.004C293.557 258.581 296.664 257.369 300.363 257.369C304.173 257.369 307.308 258.618 309.768 261.115C312.228 263.593 313.439 266.811 313.402 270.769ZM311.044 268.411C310.582 265.84 309.361 263.75 307.382 262.141C305.421 260.532 303.082 259.728 300.363 259.728C297.644 259.728 295.304 260.523 293.344 262.113C291.383 263.704 290.163 265.803 289.682 268.411H311.044ZM332.413 258.202V264.083C335.446 261.346 337.712 259.589 339.21 258.812C340.727 258.017 342.123 257.619 343.399 257.619C344.786 257.619 346.072 258.091 347.256 259.034C348.458 259.959 349.059 260.662 349.059 261.142C349.059 261.494 348.939 261.79 348.698 262.03C348.476 262.252 348.19 262.363 347.838 262.363C347.653 262.363 347.496 262.335 347.367 262.28C347.237 262.206 346.997 261.993 346.645 261.642C345.998 260.994 345.434 260.551 344.953 260.31C344.472 260.07 344 259.949 343.538 259.949C342.521 259.949 341.291 260.356 339.848 261.17C338.424 261.984 335.946 263.972 332.413 267.135V279.897H342.733C343.307 279.897 343.714 280.008 343.954 280.23C344.195 280.433 344.315 280.711 344.315 281.062C344.315 281.395 344.195 281.672 343.954 281.894C343.714 282.116 343.307 282.227 342.733 282.227H324.451C323.896 282.227 323.498 282.126 323.258 281.922C323.017 281.7 322.897 281.423 322.897 281.09C322.897 280.775 323.008 280.516 323.23 280.313C323.47 280.091 323.877 279.98 324.451 279.98H330.083V260.56H325.782C325.227 260.56 324.83 260.449 324.589 260.227C324.349 260.005 324.229 259.718 324.229 259.367C324.229 259.034 324.34 258.757 324.562 258.535C324.802 258.313 325.209 258.202 325.782 258.202H332.413ZM362.077 258.202V261.725C363.705 260.079 365.175 258.941 366.488 258.313C367.802 257.684 369.281 257.369 370.927 257.369C372.703 257.369 374.321 257.748 375.782 258.507C376.818 259.062 377.752 259.986 378.584 261.281C379.435 262.557 379.861 263.871 379.861 265.221V279.897H381.83C382.385 279.897 382.783 280.008 383.023 280.23C383.264 280.433 383.384 280.711 383.384 281.062C383.384 281.395 383.264 281.672 383.023 281.894C382.783 282.116 382.385 282.227 381.83 282.227H375.588C375.015 282.227 374.608 282.116 374.367 281.894C374.127 281.672 374.007 281.395 374.007 281.062C374.007 280.711 374.127 280.433 374.367 280.23C374.608 280.008 375.015 279.897 375.588 279.897H377.53V265.609C377.53 263.963 376.929 262.576 375.727 261.448C374.525 260.301 372.916 259.728 370.9 259.728C369.364 259.728 368.033 260.042 366.905 260.671C365.776 261.281 364.167 262.816 362.077 265.276V279.897H364.713C365.268 279.897 365.665 280.008 365.906 280.23C366.146 280.433 366.266 280.711 366.266 281.062C366.266 281.395 366.146 281.672 365.906 281.894C365.665 282.116 365.268 282.227 364.713 282.227H357.111C356.556 282.227 356.159 282.116 355.918 281.894C355.678 281.672 355.558 281.395 355.558 281.062C355.558 280.711 355.678 280.433 355.918 280.23C356.159 280.008 356.556 279.897 357.111 279.897H359.747V260.56H357.777C357.222 260.56 356.824 260.449 356.584 260.227C356.344 260.005 356.223 259.718 356.223 259.367C356.223 259.034 356.344 258.757 356.584 258.535C356.824 258.313 357.222 258.202 357.777 258.202H362.077ZM416.627 270.769H392.879C393.286 273.784 394.543 276.216 396.652 278.066C398.779 279.897 401.405 280.812 404.531 280.812C406.27 280.812 408.091 280.526 409.996 279.952C411.901 279.379 413.455 278.621 414.657 277.677C415.009 277.4 415.314 277.261 415.573 277.261C415.869 277.261 416.128 277.381 416.35 277.622C416.572 277.844 416.683 278.112 416.683 278.426C416.683 278.741 416.535 279.046 416.239 279.342C415.351 280.267 413.77 281.136 411.495 281.95C409.238 282.745 406.917 283.143 404.531 283.143C400.536 283.143 397.198 281.839 394.516 279.231C391.852 276.605 390.521 273.433 390.521 269.715C390.521 266.33 391.769 263.427 394.266 261.004C396.781 258.581 399.889 257.369 403.588 257.369C407.398 257.369 410.533 258.618 412.993 261.115C415.453 263.593 416.664 266.811 416.627 270.769ZM414.269 268.411C413.807 265.84 412.586 263.75 410.607 262.141C408.646 260.532 406.307 259.728 403.588 259.728C400.869 259.728 398.529 260.523 396.569 262.113C394.608 263.704 393.387 265.803 392.907 268.411H414.269ZM433.64 258.202H446.291C446.846 258.202 447.244 258.313 447.484 258.535C447.725 258.757 447.845 259.043 447.845 259.395C447.845 259.728 447.725 260.005 447.484 260.227C447.244 260.449 446.846 260.56 446.291 260.56H433.64V276.068C433.64 277.418 434.177 278.547 435.249 279.453C436.341 280.359 437.931 280.812 440.021 280.812C441.593 280.812 443.295 280.581 445.126 280.119C446.957 279.638 448.381 279.102 449.398 278.51C449.768 278.269 450.074 278.149 450.314 278.149C450.61 278.149 450.869 278.269 451.091 278.51C451.313 278.732 451.424 279 451.424 279.314C451.424 279.592 451.304 279.851 451.063 280.091C450.471 280.701 449.029 281.367 446.735 282.089C444.46 282.791 442.278 283.143 440.188 283.143C437.469 283.143 435.305 282.505 433.696 281.229C432.087 279.952 431.282 278.232 431.282 276.068V260.56H426.982C426.427 260.56 426.029 260.449 425.789 260.227C425.549 260.005 425.428 259.718 425.428 259.367C425.428 259.034 425.549 258.757 425.789 258.535C426.029 258.313 426.427 258.202 426.982 258.202H431.282V251.321C431.282 250.766 431.393 250.369 431.615 250.128C431.837 249.888 432.114 249.768 432.447 249.768C432.799 249.768 433.085 249.888 433.307 250.128C433.529 250.369 433.64 250.766 433.64 251.321V258.202Z" fill="white"/>
</svg>
