<svg width="35" height="35" viewBox="0 0 35 35" fill="none" xmlns="http://www.w3.org/2000/svg">
<g clip-path="url(#clip0_94_20582)">
<path d="M24.6056 12.1243C24.4537 11.731 24.2212 11.3739 23.9229 11.0759C23.6246 10.778 23.2673 10.5458 22.8738 10.3944C22.332 10.1937 21.7598 10.0876 21.1821 10.0808C20.2215 10.0371 19.9334 10.0261 17.4998 10.0261C15.0662 10.0261 14.7782 10.0371 13.8175 10.0808C13.2392 10.0874 12.6664 10.1935 12.1241 10.3944C11.7308 10.5462 11.3736 10.7788 11.0757 11.077C10.7777 11.3753 10.5455 11.7327 10.3941 12.1261C10.1935 12.6679 10.0874 13.2401 10.0806 13.8178C10.0368 14.7785 10.0259 15.0665 10.0259 17.5001C10.0259 19.9337 10.0368 20.2217 10.0806 21.1824C10.0872 21.7607 10.1932 22.3335 10.3941 22.8759C10.546 23.2692 10.7785 23.6263 11.0768 23.9242C11.3751 24.2222 11.7324 24.4544 12.1259 24.6058C12.6676 24.8065 13.2399 24.9125 13.8175 24.9194C14.7782 24.9631 15.0662 24.974 17.4998 24.974C19.9334 24.974 20.2215 24.9631 21.1821 24.9194C21.7604 24.9127 22.3333 24.8067 22.8756 24.6058C23.2689 24.454 23.626 24.2214 23.924 23.9231C24.222 23.6249 24.4541 23.2675 24.6056 22.874C24.8062 22.3323 24.9123 21.7601 24.9191 21.1824C24.9629 20.2217 24.9738 19.9337 24.9738 17.5001C24.9738 15.0665 24.9629 14.7785 24.9191 13.8178C24.9125 13.2395 24.8064 12.6666 24.6056 12.1243ZM17.4998 22.1813C16.574 22.1813 15.6689 21.9068 14.8991 21.3924C14.1292 20.878 13.5292 20.1469 13.1749 19.2915C12.8206 18.4361 12.7279 17.4949 12.9085 16.5868C13.0892 15.6787 13.535 14.8446 14.1897 14.1899C14.8444 13.5353 15.6785 13.0894 16.5866 12.9088C17.4946 12.7282 18.4359 12.8209 19.2913 13.1752C20.1467 13.5295 20.8778 14.1295 21.3922 14.8993C21.9065 15.6691 22.1811 16.5742 22.1811 17.5001C22.1811 18.7416 21.6879 19.9323 20.81 20.8102C19.9321 21.6881 18.7414 22.1813 17.4998 22.1813ZM22.3652 13.7285C22.1489 13.7285 21.9374 13.6643 21.7575 13.5441C21.5777 13.424 21.4375 13.2531 21.3547 13.0533C21.2719 12.8534 21.2503 12.6335 21.2925 12.4213C21.3347 12.2092 21.4388 12.0143 21.5918 11.8613C21.7448 11.7084 21.9397 11.6042 22.1518 11.562C22.364 11.5198 22.5839 11.5414 22.7838 11.6242C22.9836 11.707 23.1544 11.8472 23.2746 12.0271C23.3948 12.2069 23.459 12.4184 23.459 12.6347C23.459 12.9248 23.3437 13.203 23.1386 13.4081C22.9335 13.6132 22.6553 13.7285 22.3652 13.7285Z" fill="black"/>
<path d="M17.5002 20.5388C19.1785 20.5388 20.539 19.1783 20.539 17.5C20.539 15.8217 19.1785 14.4612 17.5002 14.4612C15.8219 14.4612 14.4614 15.8217 14.4614 17.5C14.4614 19.1783 15.8219 20.5388 17.5002 20.5388Z" fill="black"/>
<path d="M17.5 0C14.0388 0 10.6554 1.02636 7.77753 2.94928C4.89967 4.87221 2.65665 7.60533 1.33212 10.803C0.00758244 14.0007 -0.338976 17.5194 0.336266 20.9141C1.01151 24.3087 2.67822 27.427 5.12564 29.8744C7.57306 32.3218 10.6913 33.9885 14.0859 34.6637C17.4806 35.339 20.9993 34.9924 24.197 33.6679C27.3947 32.3434 30.1278 30.1003 32.0507 27.2225C33.9736 24.3446 35 20.9612 35 17.5C35 12.8587 33.1563 8.40752 29.8744 5.12563C26.5925 1.84374 22.1413 0 17.5 0V0ZM26.5599 21.2589C26.5443 22.0146 26.4007 22.7623 26.1352 23.4701C25.9011 24.0754 25.5431 24.6252 25.0841 25.0841C24.6252 25.5431 24.0754 25.901 23.4701 26.1352C22.7623 26.4006 22.0146 26.5443 21.2589 26.5599C20.2854 26.6036 19.9755 26.6146 17.5 26.6146C15.0245 26.6146 14.7146 26.6036 13.7412 26.5599C12.9854 26.5443 12.2377 26.4006 11.53 26.1352C10.9246 25.901 10.3748 25.5431 9.9159 25.0841C9.45695 24.6252 9.09896 24.0754 8.86485 23.4701C8.59936 22.7623 8.45575 22.0146 8.44011 21.2589C8.39636 20.2854 8.38542 19.9755 8.38542 17.5C8.38542 15.0245 8.39636 14.7146 8.44011 13.7411C8.45575 12.9854 8.59936 12.2377 8.86485 11.5299C9.09896 10.9246 9.45695 10.3748 9.9159 9.91589C10.3748 9.45695 10.9246 9.09895 11.53 8.86484C12.2377 8.59936 12.9854 8.45574 13.7412 8.4401C14.7146 8.39635 15.0245 8.38542 17.5 8.38542C19.9755 8.38542 20.2854 8.39635 21.2589 8.4401C22.0146 8.45574 22.7623 8.59936 23.4701 8.86484C24.0754 9.09895 24.6252 9.45695 25.0841 9.91589C25.5431 10.3748 25.9011 10.9246 26.1352 11.5299C26.4007 12.2377 26.5443 12.9854 26.5599 13.7411C26.6037 14.7146 26.6146 15.0245 26.6146 17.5C26.6146 19.9755 26.6037 20.2854 26.5599 21.2589Z" fill="black"/>
</g>
<defs>
<clipPath id="clip0_94_20582">
<rect width="35" height="35" fill="white"/>
</clipPath>
</defs>
</svg>
