<svg width="44" height="45" viewBox="0 0 44 45" fill="none" xmlns="http://www.w3.org/2000/svg">
<rect y="0.5" width="44" height="44" rx="5" fill="white" fill-opacity="0.1"/>
<g clip-path="url(#clip0_872_162466)">
<path d="M31.995 32.4999V32.499H32V25.164C32 21.5757 31.2275 18.8115 27.0324 18.8115C25.0158 18.8115 23.6624 19.9182 23.1099 20.9674H23.0516V19.1465H19.0741V32.499H23.2158V25.8874C23.2158 24.1465 23.5458 22.4632 25.7016 22.4632C27.8258 22.4632 27.8574 24.4499 27.8574 25.999V32.4999H31.995Z" fill="white"/>
<path d="M12.33 19.1475H16.4766V32.5H12.33V19.1475Z" fill="white"/>
<path d="M14.4017 12.5C13.0758 12.5 12 13.5758 12 14.9017C12 16.2275 13.0758 17.3258 14.4017 17.3258C15.7275 17.3258 16.8033 16.2275 16.8033 14.9017C16.8025 13.5758 15.7267 12.5 14.4017 12.5V12.5Z" fill="white"/>
</g>
<defs>
<clipPath id="clip0_872_162466">
<rect width="20" height="20" fill="white" transform="translate(12 12.5)"/>
</clipPath>
</defs>
</svg>
