<svg width="24" height="24" viewBox="0 0 24 24" fill="none" xmlns="http://www.w3.org/2000/svg">
<path d="M14 8V6C14 4.89543 13.1046 4 12 4H5C3.89543 4 3 4.89543 3 6V18C3 19.1046 3.89543 20 5 20H12C13.1046 20 14 19.1046 14 18V16" stroke="white" stroke-width="1.2" stroke-linecap="round" stroke-linejoin="round"/>
<path d="M7 11.4C6.66863 11.4 6.4 11.6686 6.4 12C6.4 12.3314 6.66863 12.6 7 12.6V11.4ZM21 12V12.6C21.2427 12.6 21.4615 12.4538 21.5543 12.2296C21.6472 12.0054 21.5959 11.7473 21.4243 11.5757L21 12ZM18.4243 8.57574C18.1899 8.34142 17.8101 8.34142 17.5757 8.57574C17.3414 8.81005 17.3414 9.18995 17.5757 9.42426L18.4243 8.57574ZM17.5757 14.5757C17.3414 14.8101 17.3414 15.1899 17.5757 15.4243C17.8101 15.6586 18.1899 15.6586 18.4243 15.4243L17.5757 14.5757ZM21.4243 12.4243C21.6586 12.1899 21.6586 11.8101 21.4243 11.5757C21.1899 11.3414 20.8101 11.3414 20.5757 11.5757L21.4243 12.4243ZM7 12.6H21V11.4H7V12.6ZM21.4243 11.5757L18.4243 8.57574L17.5757 9.42426L20.5757 12.4243L21.4243 11.5757ZM18.4243 15.4243L21.4243 12.4243L20.5757 11.5757L17.5757 14.5757L18.4243 15.4243Z" fill="white"/>
</svg>
