<svg width="140" height="72" viewBox="0 0 140 72" fill="none" xmlns="http://www.w3.org/2000/svg">
<g clip-path="url(#clip0_1058_17995)">
<path d="M44.7303 27.2057L41.4254 29.0207L41.8793 32.3271L39.4323 30.5021L36.2161 32.21L37.5594 28.4187L34.8959 25.2609L38.1034 25.8505L39.5127 22.5658L40.5369 26.286L44.7303 27.2057ZM38.4729 26.5525L36.4883 26.1849L38.2517 28.2815L37.3129 30.9292L39.4917 29.7673L41.0817 30.9573L40.772 28.6727L42.9848 27.4593L40.0597 26.8239L39.3927 24.3927L38.4729 26.5525Z" fill="white" fill-opacity="0.44"/>
</g>
<g clip-path="url(#clip1_1058_17995)">
<path d="M67.7303 61.2057L64.4254 63.0207L64.8793 66.3271L62.4323 64.5021L59.2161 66.21L60.5594 62.4187L57.8959 59.2609L61.1034 59.8505L62.5127 56.5658L63.5369 60.286L67.7303 61.2057ZM61.4729 60.5525L59.4883 60.1849L61.2517 62.2815L60.3129 64.9292L62.4917 63.7673L64.0817 64.9573L63.772 62.6727L65.9848 61.4593L63.0597 60.8239L62.3927 58.3927L61.4729 60.5525Z" fill="white" fill-opacity="0.44"/>
</g>
<g clip-path="url(#clip2_1058_17995)">
<path d="M96.7303 5.20571L93.4254 7.02068L93.8793 10.3271L91.4323 8.50214L88.2161 10.21L89.5594 6.41875L86.8959 3.26091L90.1034 3.85053L91.5127 0.565813L92.5369 4.28602L96.7303 5.20571ZM90.4729 4.55246L88.4883 4.18492L90.2517 6.28147L89.3129 8.92924L91.4917 7.76733L93.0817 8.95732L92.772 6.67268L94.9848 5.45931L92.0597 4.82393L91.3927 2.39266L90.4729 4.55246Z" fill="white" fill-opacity="0.44"/>
</g>
<g clip-path="url(#clip3_1058_17995)">
<path d="M68.1153 12.2285C68.8406 11.8308 68.9978 10.7182 68.4689 9.75367C67.94 8.78915 66.9175 8.32344 66.1921 8.72119C65.4667 9.11894 65.3095 10.2315 65.8384 11.1961C66.3673 12.1606 67.3899 12.6263 68.1153 12.2285ZM66.4543 9.19946C66.9087 8.95033 67.6104 9.32242 67.9906 10.0159C68.3709 10.7094 68.3074 11.5011 67.853 11.7503C67.3986 11.9994 66.697 11.6273 66.3167 10.9338C65.9364 10.2403 66 9.4486 66.4543 9.19946Z" fill="white" fill-opacity="0.5"/>
</g>
<path fill-rule="evenodd" clip-rule="evenodd" d="M28.0791 32.6539C27.8879 32.8818 27.6359 33.0501 27.3527 33.1391C27.7403 34.574 28.2007 35.9289 28.6076 37.324C29.1167 37.4151 29.3052 37.0019 29.6761 36.8672C30.2608 36.7232 30.8572 36.6314 31.4583 36.5927C32.0144 36.5244 32.6104 36.4928 33.1305 36.4342C34.4049 36.2797 35.5204 36.0602 36.6299 35.9459C38.3228 35.7689 39.5696 36.8768 40.1205 38.4875C40.4381 39.4466 40.5596 40.4597 40.4778 41.466C40.3961 42.4724 40.1126 43.451 39.6446 44.3433C39.3101 44.8835 38.8498 45.3336 38.3032 45.6548C37.7567 45.976 37.1403 46.1587 36.507 46.1871C34.6973 46.2966 32.6988 45.6117 30.8993 45.5846C31.0855 46.5435 31.4269 47.6803 31.7321 48.8098C31.8618 49.136 31.9282 49.4841 31.9276 49.8351C31.8213 50.1398 30.6777 50.6041 30.3594 50.759C28.7738 51.6187 27.0054 52.6269 25.4588 53.3768C28.243 56.3033 31.2285 59.197 34.1009 62.1643C34.5639 62.5668 34.9577 63.0433 35.2665 63.5745C34.3253 64.3576 33.3367 65.0813 32.3062 65.7413C32.0067 66.0086 31.6842 66.2487 31.3425 66.4588C30.7093 66.7334 29.8743 66.7692 29.1573 66.9241C28.4877 67.1094 27.8008 67.2256 27.1073 67.2709C22.8181 63.3494 18.5792 59.3496 14.3905 55.2716C13.0377 55.3266 11.7489 55.2693 10.4281 55.2682C9.40456 54.2725 8.24166 53.142 7.12375 52.051C6.79792 51.7336 6.20776 51.3583 6.02213 51.0203C5.81923 50.5098 5.65449 49.9849 5.52929 49.45C4.51272 46.3219 3.56551 43.1967 2.57882 39.9571C2.38101 39.4166 2.23059 38.8598 2.12928 38.2931C2.07072 37.1877 2.80461 36.032 2.70271 35.0676C3.45179 33.5715 4.06407 31.9656 4.7914 30.4365C6.99481 29.4833 9.3336 28.6186 11.4045 27.5718C11.4263 27.5281 11.4592 27.4909 11.4998 27.4641C14.505 27.0188 18.0182 26.5656 21.1471 26.2292C21.5941 26.1347 22.0489 26.0811 22.5058 26.0691C22.8914 26.1159 23.3504 26.656 23.7415 26.9773C24.9805 27.9924 26.0713 28.9355 27.296 29.8984C27.5163 30.8566 27.8403 31.6748 28.0791 32.6539ZM11.654 28.0348C10.1149 28.8129 8.36031 29.4594 6.89641 30.2775C9.67812 29.9573 12.4063 29.7722 15.0422 29.7372C16.8836 28.7136 18.8977 27.79 20.7595 26.7781C17.686 27.272 14.6754 27.6498 11.6562 28.0429L11.654 28.0348ZM3.58567 34.5272C3.5398 34.6431 3.41616 34.8361 3.50246 34.9809C8.33809 34.6406 13.152 34.3363 17.9442 34.068C16.9507 32.7709 15.9154 31.5412 14.9277 30.2339C11.7096 30.3831 8.32858 30.8178 5.07558 31.0282C4.57852 32.1242 4.03769 33.4391 3.58892 34.5393L3.58567 34.5272ZM22.2729 26.5719C20.0773 27.7602 17.8929 28.9584 15.6309 30.0914C16.5307 31.4224 17.5138 32.6015 18.435 33.9009C21.1301 32.5776 23.8436 31.2695 26.5755 29.9766C25.2644 28.8688 23.6911 27.7111 22.2762 26.584L22.2729 26.5719ZM2.72399 38.0505C5.88326 37.8741 9.00361 37.7599 12.1094 37.6713C12.161 36.4498 13.859 35.3399 15.14 35.6062C16.0366 35.8486 16.8071 36.4279 17.2921 37.2242C17.8131 37.1522 18.3375 37.107 18.8632 37.0887L18.1748 34.5405C13.125 35.0034 8.15713 35.2932 3.1776 35.6035C2.98302 36.4103 2.8316 37.2272 2.72399 38.0505ZM27.1199 32.7535C27.2368 32.6701 27.3603 32.5964 27.4891 32.533L26.9016 30.3586C24.1994 31.7614 21.4608 33.151 18.6858 34.5275C18.922 35.0847 19.0452 35.8579 19.2771 36.399C19.3623 36.1905 19.3193 35.9046 19.6118 35.8126C19.627 35.8689 19.6931 35.8597 19.7192 35.9087C19.7112 36.2601 19.5225 36.5138 19.4768 36.8367C19.8609 36.5604 19.6657 35.949 20.1188 35.7058C20.134 35.7621 20.2012 35.7569 20.2262 35.8019C20.2743 36.0908 19.9915 36.3612 20.0607 36.5539C20.3805 36.2303 20.2979 35.6704 20.6929 35.3869C20.7221 35.3895 20.7504 35.3985 20.7758 35.4133C20.8013 35.428 20.8232 35.4481 20.8403 35.4721C20.8723 35.7653 20.5656 36.0423 20.6188 36.2392C21.0145 35.9425 20.9297 35.3746 21.2909 35.0614C21.3105 35.1337 21.4293 35.0499 21.4383 35.1467C21.4936 35.4465 21.2705 35.5888 21.2608 35.8544C21.7989 35.5926 21.5431 34.8682 22.0242 34.57C22.0384 34.6223 22.1059 34.5868 22.1248 34.6248C22.1876 35.0003 21.9547 35.2012 21.9108 35.515C22.4206 35.2436 22.2371 34.5643 22.684 34.2667C22.7639 34.2451 22.7922 34.3496 22.8422 34.3922C22.777 34.6383 22.6995 34.8809 22.6099 35.1191C23.226 34.8448 22.9682 34.0649 23.5691 33.7818C23.7881 34.1323 23.3663 34.38 23.3627 34.7001C23.9451 34.491 23.69 33.8009 24.2074 33.5576C24.2226 33.6139 24.2887 33.6046 24.3188 33.6526C24.3541 33.9104 24.0558 34.1549 24.1275 34.3253C24.5878 34.0931 24.4017 33.4835 24.8693 33.2623C25.1044 33.5136 24.8235 33.7275 24.8088 33.9428C25.467 33.7132 25.2109 32.9717 25.7886 32.6819C26.084 32.9816 25.4902 33.3706 25.6797 33.5005C26.1302 33.2796 25.9854 32.3786 26.5449 32.4344C26.6275 32.7399 26.2539 32.9443 26.3685 33.1462C26.8953 32.922 26.678 32.2605 27.1783 32.0175C27.1935 32.0738 27.2556 32.0656 27.2806 32.1106C27.3087 32.3575 27.0485 32.6003 27.1145 32.7334L27.1199 32.7535ZM2.68725 38.5176C2.6393 38.5306 2.65959 38.5898 2.67878 38.645C3.83204 42.025 4.99597 45.6351 6.07652 49.0951C6.19896 49.6374 6.35742 50.1709 6.55082 50.692C6.84657 51.0737 7.18971 51.4158 7.57183 51.71C8.65165 52.7552 9.74818 53.7829 10.7624 54.6647C13.1723 54.6821 15.6646 54.7506 18.0883 54.8031C18.444 54.8521 18.8046 54.8519 19.16 54.8025C19.456 54.5729 19.6703 54.2534 19.7712 53.8912C19.7745 53.5065 19.4638 52.8961 19.3172 52.3535C18.2411 48.3704 16.7063 44.1016 15.7001 40.3454C13.8428 41.2784 11.978 40.4539 11.9792 38.3318C8.84757 38.4361 5.7756 38.4595 2.68725 38.5176ZM16.155 38.9028C16.385 37.9135 15.5504 36.8236 14.9507 36.5716C14.5325 36.4442 14.0817 36.4878 13.6963 36.6929C13.3109 36.898 13.0221 37.2479 12.8928 37.6667C13.2933 37.2609 13.4981 36.9554 14.0385 36.8612C15.2695 36.6407 16.3862 38.2193 15.6444 39.2823C15.378 39.6005 14.9985 39.8016 14.5863 39.8429C14.1741 39.8842 13.7616 39.7625 13.4362 39.5037C13.1049 39.2136 12.9732 38.6627 12.6478 38.2676C12.2006 40.4844 15.7663 40.5906 16.155 38.9028ZM21.4422 36.4782C20.5095 36.9933 19.7082 37.6453 18.5359 37.6386C20.2729 42.862 21.9001 48.266 23.5294 53.6781C26.1417 52.3341 28.7257 50.9805 31.4023 49.6838C31.0244 48.2851 30.7692 46.9438 30.3597 45.5234C29.6815 45.4091 28.8708 45.5505 28.5333 44.8567C27.1556 44.7244 25.8288 44.5265 24.433 44.3429C23.99 44.2901 23.3464 44.3044 23.0557 44.1328C22.7862 43.9079 22.5653 43.63 22.4064 43.3163C21.183 41.1843 21.9529 38.8286 23.7967 37.8777C24.4667 37.5328 25.3906 37.5722 26.0534 37.5182C26.7162 37.4642 27.3151 37.4274 27.9928 37.3651L26.9275 33.4222L26.8516 33.4427C25.1493 34.4417 23.2254 35.5091 21.4422 36.4782ZM16.3852 39.7549C16.303 39.8634 15.989 40.0819 16.1103 40.1181C16.2333 40.2876 16.434 39.9832 16.5034 39.8912C17.1256 39.0201 17.1392 37.2138 16.0356 36.7788C16.4332 37.155 16.6863 37.6599 16.7503 38.2044C16.8142 38.7488 16.6849 39.298 16.3852 39.7549ZM15.1362 38.9883C15.6688 38.3571 14.8631 37.406 14.3293 37.3821C14.1391 37.3772 13.9518 37.4279 13.7899 37.5278C12.6334 38.1033 14.2514 40.0295 15.1362 38.9883ZM17.4978 37.8112C17.7765 39.2238 17.1852 40.1296 16.4019 40.9277C17.7949 45.084 19.0576 49.4566 20.3913 53.7108C21.2239 53.8093 22.1318 53.8055 22.954 53.881C21.3678 48.5176 19.512 42.9813 18.1208 37.6257C17.9221 37.7311 17.4741 37.533 17.5055 37.7919L17.4978 37.8112ZM24.1759 38.2496C24.1233 38.2676 24.074 38.294 24.0298 38.3279C22.2356 39.3991 21.7245 41.935 23.5216 43.7784C25.0435 43.889 26.5177 44.0773 28.0193 44.2236C26.6602 41.9385 27.0998 39.3443 28.2944 37.9262C26.9425 38.175 25.4633 37.8414 24.1835 38.2303L24.1759 38.2496ZM29.4891 37.6034C28.7458 38.145 28.2013 38.9181 27.9397 39.8031C27.4342 41.4707 28.1143 43.909 29.3947 44.8871C30.1431 44.9911 30.8863 45.0922 31.6537 45.1393C31.297 44.6032 30.9985 44.0304 30.7633 43.4306C29.8385 40.7694 30.516 38.5637 31.8203 37.1073C31.0604 37.3255 29.9598 37.1873 29.4968 37.5841L29.4891 37.6034ZM34.9418 45.424C34.9178 45.4305 34.8938 45.437 34.891 45.3946C33.8332 44.5674 33.105 43.3868 32.8389 42.0677C32.7481 41.6049 32.5478 39.8477 33.0842 39.8019C33.5654 39.7582 33.3573 40.6381 33.3557 40.8068C33.3465 42.1878 33.8258 43.5287 34.7079 44.5902C35.0701 45.0143 35.5271 45.3461 36.0413 45.5583C36.272 45.5703 36.5032 45.5499 36.7281 45.4978C37.2121 45.476 37.6827 45.3337 38.0979 45.0838C38.513 44.8339 38.8596 44.4842 39.1066 44.066C40.2636 42.1276 40.1596 37.7913 38.0267 36.7201C37.6289 36.5726 37.2055 36.5084 36.7826 36.5315C36.3597 36.5545 35.9462 36.6642 35.5676 36.854C35.2515 37.017 34.9809 37.4437 34.5449 37.3373C34.2792 37.1632 34.7719 36.8447 34.6281 36.8835C33.9209 37.0746 33.2329 36.8292 32.6215 37.0892C32.099 37.3296 31.4428 38.5505 31.2779 38.9875C30.5964 40.7975 31.1326 43.8138 32.5397 45.245C33.3404 45.2572 34.2307 45.4264 34.9494 45.4047L34.9418 45.424ZM18.2414 58.1946C20.7785 60.4762 23.305 62.8772 25.833 65.2519C26.2793 65.6661 27.0372 66.5352 27.3974 66.6147C27.7575 66.6942 28.4746 66.4918 28.9878 66.392C29.5991 66.2743 30.1799 66.1389 30.6695 66.0627C27.0521 62.4643 23.103 58.9555 19.417 55.2462C17.9647 55.2979 16.5513 55.2873 15.1379 55.2767C16.1121 56.2642 17.1801 57.1702 18.265 58.1709L18.2414 58.1946ZM23.3859 54.4802C22.9726 54.553 22.3326 54.3421 21.8445 54.2972C21.2769 54.2435 20.7613 54.2232 20.2463 54.1898C20.0408 54.412 19.8736 54.6671 19.7514 54.9446C23.6558 58.4309 27.4217 62.1661 31.3054 65.671C32.4366 64.9859 33.4417 64.2313 34.5878 63.5379C32.2011 61.0517 29.7335 58.5831 27.3803 56.1094C26.61 55.2495 25.7962 54.4301 24.9421 53.6544C24.3224 53.852 23.9555 54.3349 23.4096 54.4565L23.3859 54.4802ZM6.76638 39.5719C6.7805 39.6241 6.70823 39.6264 6.71109 39.6688C6.27666 40.584 5.92887 41.6612 5.56015 42.5975C5.47273 42.8928 5.14917 43.2821 5.41654 43.5894C5.72321 43.4073 5.83182 42.9683 5.94904 42.6563C6.21587 41.9459 6.42786 41.2547 6.67758 40.5921C6.80678 40.2769 7.0526 39.9172 6.93707 39.5689C6.85933 39.5985 6.83322 39.5495 6.76638 39.5719ZM7.27276 40.2243C6.89839 40.981 6.61288 41.8603 6.22826 42.7059C6.05941 43.0966 5.92321 43.5129 5.76851 43.9083C5.61382 44.3037 5.2837 44.7164 5.51541 45.098C5.88349 44.8735 6.01869 44.3582 6.15849 43.9711C6.47231 43.1015 6.78427 42.2883 7.08138 41.4361C7.22483 41.0308 7.53388 40.6195 7.44458 40.1779L7.27276 40.2243ZM7.73394 41.4711C7.25269 42.7526 6.69948 44.101 6.21388 45.3664C6.07374 45.7363 5.69202 46.1802 5.9306 46.603C6.23236 46.625 6.22106 46.2658 6.28152 46.077C6.72229 44.9789 7.17796 43.8725 7.59003 42.7952C7.80015 42.3742 7.92826 41.9166 7.96747 41.4469C7.8893 41.4248 7.80579 41.4335 7.73394 41.4711ZM8.20089 42.7552C7.69276 44.0483 7.20743 45.4257 6.75741 46.7117C6.61578 47.1079 6.21518 47.5612 6.48099 47.9896C6.89628 47.7653 6.93019 47.2084 7.06747 46.7962C7.37152 45.8903 7.74346 45.0135 8.05985 44.1216C8.20699 43.6506 8.48447 43.2177 8.46131 42.7194C8.41774 42.7069 8.3721 42.7036 8.32728 42.7098C8.28245 42.716 8.23942 42.7314 8.20089 42.7552ZM8.50103 44.5803C8.51515 44.6326 8.43888 44.6359 8.44175 44.6783C8.0293 45.7859 7.52624 47.0819 7.12287 48.1914C7.00018 48.5308 6.61555 48.9797 6.93482 49.3204C7.29422 49.0637 7.35458 48.573 7.48313 48.176C7.7686 47.3442 8.11357 46.5739 8.39864 45.7724C8.52789 45.4097 8.80033 44.9264 8.60492 44.5522L8.50103 44.5803ZM36.18 37.5338C36.8183 37.3096 37.4579 37.154 37.9567 37.3815C38.6878 37.7231 39.0697 38.724 39.2756 39.5179C39.5745 40.8119 39.4252 42.1683 38.8523 43.3627C38.5132 44.0754 37.9252 44.9933 36.9257 45.0865C35.4831 45.2217 34.3967 43.8506 34.0417 42.0446C33.7232 40.4056 34.4856 38.2287 35.7034 37.6582C35.8455 37.581 35.8974 37.6144 36.1767 37.5217L36.18 37.5338ZM36.7251 37.9644C38.4526 39.598 38.3622 43.659 35.7903 44.0261C35.9729 44.222 36.2084 44.3602 36.4677 44.4234C36.7271 44.4867 36.999 44.4724 37.2499 44.3822C37.6353 44.222 38.0975 43.5365 38.3056 43.1007C38.9329 41.7884 39.0809 39.1781 38.0189 38.072C37.827 37.9197 37.599 37.8201 37.3575 37.7833C37.116 37.7464 36.8692 37.7735 36.6416 37.8619C36.6488 37.8991 36.667 37.9333 36.6939 37.9599L36.7251 37.9644ZM35.0562 41.404C34.952 41.7167 34.6931 42.0756 34.8326 42.4174C35.1386 40.9633 35.9223 39.7856 36.2486 38.3433C36.1927 38.3584 36.1673 38.2962 36.1121 38.2982C35.6813 39.2901 35.3509 40.3842 35.025 41.3994L35.0562 41.404ZM34.7918 41.0441C34.9948 40.2087 35.4187 39.3179 35.6096 38.5806C35.252 39.3772 34.9691 40.2058 34.7649 41.0557L34.7918 41.0441ZM35.3241 41.9353C35.1555 42.278 35.0768 42.6585 35.0954 43.0408C35.6144 41.7879 36.187 40.2575 36.6923 38.8746C36.5968 38.8702 36.6326 38.6536 36.4843 38.7238C36.1202 39.7882 35.6228 40.867 35.2972 41.9469L35.3241 41.9353ZM34.7605 39.8493C34.7332 39.8912 34.9796 39.3589 34.9382 39.3011C34.8589 39.4993 34.7364 39.6489 34.7336 39.8609L34.7605 39.8493ZM35.4942 43.3427C35.6172 43.3797 35.747 43.3874 35.8733 43.3654C36.3737 42.1865 36.6291 40.8626 37.1012 39.6741C37.0105 39.6081 37.0154 39.3566 36.9167 39.2927C36.406 40.6555 35.8528 41.9564 35.4673 43.3543L35.4942 43.3427ZM36.3522 43.1541C37.1698 42.5623 37.3618 41.4323 37.1631 40.3474C36.9149 41.3331 36.6159 42.2419 36.3296 43.1817L36.3522 43.1541ZM26.6492 46.8967C26.9637 46.7926 27.3024 46.7859 27.6213 46.8773C27.9403 46.9687 28.2249 47.1541 28.4384 47.4096C29.2716 48.4783 28.8586 50.1553 27.5398 50.352C27.2399 50.3802 26.9373 50.3367 26.6568 50.2251C26.3764 50.1136 26.1259 49.937 25.9258 49.7099C25.7491 49.4896 25.626 49.2309 25.5664 48.9545C25.5068 48.6781 25.5124 48.3917 25.5827 48.1183C25.653 47.8448 25.7861 47.5919 25.9713 47.3798C26.1565 47.1677 26.3887 47.0023 26.6492 46.8967ZM26.2581 48.956C26.3366 48.4691 26.7002 47.9741 26.6995 47.543C26.4728 47.6888 26.3045 47.9101 26.2238 48.1684C26.1431 48.4266 26.1553 48.7053 26.2581 48.956ZM27.131 47.4264C26.9753 48.1197 26.5768 48.6758 26.5126 49.422C26.9088 48.9527 27.0676 48.0645 27.3337 47.4148C27.2392 47.4619 27.2222 47.3673 27.1241 47.4326L27.131 47.4264ZM26.9644 49.714C27.3924 49.124 27.522 48.3342 27.7663 47.6515C27.6904 47.672 27.7036 47.5305 27.619 47.5663C27.4589 48.2909 26.9865 49.018 26.9575 49.7201L26.9644 49.714ZM27.6762 48.905C27.5859 49.2054 27.3902 49.5601 27.4851 49.7846C27.6386 49.1782 27.98 48.6806 28.0409 48.0172C28.0333 47.9891 27.997 47.9817 27.9501 47.9986C27.8759 48.3057 27.7845 48.6083 27.6762 48.905ZM28.1855 48.8062C28.1508 49.0269 27.9479 49.3232 27.9993 49.4818C28.1084 49.3144 28.2769 48.8591 28.1935 48.804L28.1855 48.8062ZM31.2338 64.168C30.9845 64.3086 30.554 64.4767 30.727 64.7362C31.0401 64.7064 31.3368 64.5826 31.5786 64.381C31.8188 64.2385 32.2115 64.0893 32.2012 63.7816C31.9203 63.6462 31.5873 63.969 31.2338 64.168Z" fill="white" fill-opacity="0.5"/>
<path d="M47.2383 57.2285C47.9637 56.8308 48.1208 55.7182 47.592 54.7537C47.0631 53.7891 46.0405 53.3234 45.3151 53.7212C44.5897 54.1189 44.4326 55.2315 44.9615 56.1961C45.4903 57.1606 46.5129 57.6263 47.2383 57.2285ZM45.5774 54.1995C46.0317 53.9503 46.7334 54.3224 47.1137 55.0159C47.494 55.7094 47.4304 56.5011 46.976 56.7503C46.5217 56.9994 45.82 56.6273 45.4397 55.9338C45.0595 55.2403 45.123 54.4486 45.5774 54.1995Z" fill="white" fill-opacity="0.5"/>
<mask id="mask0_1058_17995" style="mask-type:alpha" maskUnits="userSpaceOnUse" x="56" y="16" width="84" height="46">
<path d="M62.7322 49.7911C66.1976 52.744 70.6105 54.3695 75.1498 54.3695C79.4183 54.3695 83.5064 52.9607 86.8183 50.4142C88.9842 49.2945 90.9244 47.8135 92.8466 46.3235C95.0666 44.5987 97.3137 42.9462 99.7502 41.5285C101.943 40.2462 104.235 39.1355 106.591 38.2053C108.946 37.2752 111.41 36.4264 113.9 35.9839C116.256 35.5685 118.602 35.8123 120.678 37.0495C122.672 38.2415 124.152 40.1559 124.775 42.3954C126.011 46.8473 124.297 51.5159 125.289 56.0039C125.704 57.8822 126.625 59.598 128.177 60.7719C129.44 61.7291 131.011 62.2258 132.572 61.9007C132.716 61.9548 133.014 61.8736 133.041 61.7201C133.709 58.2344 136.046 55.5073 139.403 54.3333C139.575 54.2701 139.539 54.0444 139.376 53.9992C138.158 53.6561 136.886 53.6109 135.649 53.349C134.296 53.0691 133.104 52.437 132.157 51.4166C130.235 49.3757 129.657 46.5402 129.459 43.8312C129.287 41.5014 129.359 39.1355 128.944 36.8237C128.592 34.8642 127.852 33.031 126.634 31.4507C124.396 28.5249 120.858 26.5834 117.167 26.4119C114.938 26.3125 112.727 26.9085 110.688 27.7664C108.495 28.6875 106.401 29.8975 104.47 31.2882C100.418 34.214 97.4129 38.3137 93.379 41.2485C94.1822 38.8375 94.4981 36.2638 94.2905 33.6541C93.8844 28.543 91.511 23.9015 87.6124 20.5783C84.129 17.6254 79.7161 16 75.1769 16C69.5366 16 64.2122 18.4562 60.5664 22.7456C53.7169 30.8005 54.6825 42.9372 62.7322 49.7911ZM132.545 61.5575C130.397 62.0361 128.249 60.79 126.986 59.0742C125.479 57.0424 125.262 54.3604 125.316 51.9132C125.416 47.5697 126.408 42.7566 123.484 39.0542C122.23 37.4649 120.479 36.2909 118.53 35.7491C116.337 35.1351 114.063 35.5143 111.897 36.0832C107.123 37.3565 102.53 39.3702 98.3334 41.98C96.2037 43.3074 94.2273 44.8245 92.251 46.3596C90.9515 47.362 89.6339 48.3553 88.2442 49.2222C88.7766 48.7256 89.282 48.1928 89.7603 47.6329C89.7873 47.6058 89.8144 47.5697 89.8324 47.5426C91.2222 46.6486 92.5398 45.6372 93.8483 44.6168C96.0683 42.892 98.3154 41.2395 100.752 39.8218C102.945 38.5395 105.237 37.4287 107.592 36.4986C109.948 35.5685 112.411 34.7197 114.902 34.2772C117.258 33.8618 119.604 34.1056 121.679 35.3428C123.674 36.5347 125.154 38.4492 125.777 40.6887C127.013 45.1406 125.298 49.8092 126.291 54.2972C126.706 56.1755 127.627 57.8912 129.179 59.0652C130.262 59.8869 131.579 60.3655 132.906 60.2843C132.761 60.6906 132.635 61.115 132.545 61.5575ZM110.2 29.8524C111.464 31.2611 112.673 32.5885 113.711 34.1688C113.485 34.223 113.26 34.2772 113.043 34.3314C112.023 32.8143 110.814 31.4507 109.596 30.0872C109.794 30.0059 110.002 29.9246 110.2 29.8524ZM129.26 58.6769C128.782 58.2976 128.349 57.8461 127.988 57.3585C127.807 57.1056 127.636 56.8528 127.491 56.5819C127.762 55.9949 128.168 55.4711 128.628 55.0016C129.116 54.5049 129.765 53.7735 130.46 53.5658C130.893 54.0444 131.381 54.4778 131.931 54.83C132.085 54.9293 132.229 55.0106 132.391 55.0919C131.715 55.3808 131.119 56.0581 130.632 56.5548C130.018 57.1779 129.54 57.8642 129.26 58.6769ZM129.801 58.2525C130.578 58.8214 131.435 59.4715 131.994 59.905C131.119 59.7876 130.28 59.4174 129.54 58.8936C129.612 58.6678 129.702 58.4511 129.801 58.2525ZM127.87 46.5854C127.861 46.5854 127.852 46.5764 127.843 46.5764V46.5673C127.609 46.1068 127.103 45.1677 126.553 44.1924C126.553 44.1472 126.553 44.1111 126.553 44.066C126.679 44.066 126.805 44.0569 126.923 44.0479C127.248 44.6349 127.518 45.1406 127.663 45.4386C127.69 45.4927 127.735 45.5198 127.789 45.5289C127.807 45.881 127.834 46.2332 127.87 46.5854ZM126.508 46.3777C126.553 46.459 126.589 46.5402 126.625 46.6035C126.58 46.6035 126.535 46.6035 126.489 46.6035C126.499 46.5402 126.508 46.459 126.508 46.3777ZM126.535 45.7095C126.544 45.4205 126.553 45.1315 126.553 44.8426C126.553 44.8606 126.553 44.8877 126.553 44.9058C126.932 45.583 127.266 46.1971 127.455 46.5764C127.302 46.5854 127.157 46.5854 127.004 46.5944C126.896 46.3777 126.733 46.0707 126.535 45.7095ZM126.327 51.7868C126.76 51.6604 127.193 51.5159 127.618 51.3624C128.619 52.1029 129.738 52.9427 130.18 53.3039C129.747 53.4755 129.341 53.8096 128.971 54.1618C128.971 54.1618 128.971 54.1618 128.962 54.1527C128.52 53.8005 127.338 52.8975 126.336 52.157C126.336 52.0306 126.336 51.9042 126.327 51.7868ZM128.737 54.4056C128.61 54.541 128.484 54.6675 128.367 54.7848C128.312 54.839 128.267 54.8932 128.213 54.9474C127.807 54.6313 127.401 54.3785 126.535 53.7373C126.471 53.3671 126.426 53.0059 126.39 52.6266C127.356 53.349 128.303 54.0624 128.737 54.4056ZM127.988 55.2002C127.834 55.3808 127.699 55.5614 127.572 55.7511C127.401 55.6156 127.175 55.4441 126.914 55.2454C126.805 54.9203 126.715 54.5952 126.643 54.2611C127.356 54.7758 127.618 54.9113 127.988 55.2002ZM127.383 56.0491C127.356 56.1033 127.32 56.1574 127.293 56.2116C127.239 56.0942 127.184 55.9768 127.13 55.8504C127.229 55.9227 127.311 55.9949 127.383 56.0491ZM127.988 51.2179C128.267 51.1095 128.538 50.9831 128.809 50.8567C129.025 51.3985 129.287 51.9223 129.594 52.4189C129.134 52.0577 128.565 51.6333 127.988 51.2179ZM126.318 51.4346C126.309 51.0192 126.309 50.6129 126.318 50.2065C126.345 49.15 126.417 48.0573 126.48 46.9647C126.932 46.9466 127.383 46.9376 127.825 46.9195C127.852 46.9195 127.879 46.9105 127.897 46.9015C127.997 47.8316 128.15 48.7527 128.403 49.6557C128.484 49.9537 128.583 50.2517 128.691 50.5406C127.915 50.8928 127.13 51.1908 126.318 51.4346ZM127.284 43.9937C127.428 43.9666 127.572 43.9305 127.708 43.8944C127.717 44.2195 127.735 44.5355 127.753 44.8606C127.618 44.6168 127.464 44.3188 127.284 43.9937ZM127.654 43.5512C127.293 43.6596 126.914 43.7228 126.535 43.7228C126.499 42.8288 126.408 41.9439 126.219 41.086C126.48 41.104 126.733 41.0679 126.995 40.9867C127.184 40.9325 127.392 40.9144 127.545 40.8151C127.627 41.7181 127.663 42.6302 127.699 43.5332C127.681 43.5422 127.672 43.5422 127.654 43.5512ZM127.509 40.3997C127.229 39.8669 126.733 38.9458 126.21 38.0157C126.336 37.9706 126.462 37.9254 126.58 37.8622C126.905 38.4492 127.175 38.9548 127.32 39.2528C127.329 39.2709 127.347 39.289 127.365 39.307C127.419 39.6682 127.464 40.0294 127.509 40.3997ZM127.22 40.5893C127.175 40.5984 127.13 40.5984 127.094 40.6074C126.995 40.6254 126.905 40.6616 126.805 40.6887C126.589 40.7519 126.372 40.7609 126.147 40.7338C125.921 39.8669 125.596 39.0361 125.118 38.2415C125.379 38.2234 125.632 38.1782 125.876 38.115C126.417 39.0993 126.95 40.0746 127.22 40.5893ZM126.878 37.7087C126.914 37.6906 126.959 37.6635 126.995 37.6364C127.049 37.817 127.094 37.9976 127.139 38.1782C127.058 38.0338 126.977 37.8712 126.878 37.7087ZM124.946 37.9164C124.928 37.9164 124.919 37.9164 124.901 37.9254C124.775 37.7267 124.63 37.5371 124.486 37.3475C124.197 36.9772 123.872 36.6341 123.529 36.309C123.539 36.3 123.548 36.2909 123.548 36.2909C123.872 35.8846 124.233 35.5505 124.567 35.1712C124.856 34.8461 125.055 34.4217 125.262 34.0334C125.749 34.7106 126.165 35.4511 126.499 36.2187C126.652 36.5799 126.778 36.9411 126.896 37.3113C126.309 37.6726 125.65 37.8803 124.946 37.9164ZM121.553 34.7468C121.391 34.4217 121.075 33.8437 120.714 33.1936C120.903 32.8414 121.075 32.4711 121.228 32.1009C121.255 32.0377 121.282 31.9745 121.309 31.9113C122.059 33.2297 123.069 35.0628 123.466 35.8394C123.403 35.9117 123.34 35.9929 123.277 36.0652C123.268 36.0742 123.268 36.0742 123.268 36.0832C122.744 35.6227 122.167 35.2163 121.553 34.8822C121.58 34.8371 121.58 34.7919 121.553 34.7468ZM121.111 34.6384C120.786 34.4849 120.461 34.3404 120.118 34.223C120.254 33.9973 120.389 33.7715 120.515 33.5457C120.759 33.9702 120.967 34.3494 121.111 34.6384ZM121.481 31.5139C121.562 31.3153 121.643 31.0985 121.689 30.8999C122.474 32.2815 123.647 34.3856 124.026 35.1441C124.035 35.1622 124.044 35.1712 124.053 35.1892C123.936 35.3066 123.818 35.424 123.71 35.5505C123.241 34.6384 122.212 32.7872 121.481 31.5139ZM125.019 33.7534C124.946 33.8799 124.874 34.0153 124.811 34.1417C124.612 33.7534 124.26 33.1033 123.863 32.3899C124.288 32.8053 124.685 33.2477 125.046 33.7173C125.037 33.7263 125.028 33.7354 125.019 33.7534ZM123.078 31.6945C123.683 32.7782 124.279 33.8708 124.531 34.3675C124.558 34.4126 124.585 34.4397 124.63 34.4578C124.531 34.6203 124.423 34.7829 124.306 34.9274C123.899 34.1417 122.889 32.3176 122.131 30.9812C122.456 31.1979 122.771 31.4327 123.078 31.6945ZM121.382 30.5026C121.445 30.8186 121.147 31.3604 121.039 31.6494C120.939 31.9203 120.822 32.1822 120.705 32.4441C120.434 33.022 120.127 33.5819 119.793 34.1146C119.703 34.0876 119.622 34.0605 119.532 34.0334C118.241 33.6722 116.933 33.6541 115.633 33.8166C116.066 32.1461 116.229 30.5658 116.111 28.85C116.617 28.8771 117.122 28.9494 117.628 29.0487C118.936 29.3196 120.218 29.8163 121.382 30.5026ZM115.705 28.832C115.723 29.13 115.741 29.428 115.741 29.7169C115.642 29.5905 115.534 29.4731 115.435 29.3467C115.299 29.1661 115.173 28.9945 115.029 28.832C115.263 28.8229 115.489 28.8229 115.705 28.832ZM114.559 28.859C114.568 28.8681 114.568 28.8771 114.577 28.8771C114.848 29.0848 115.029 29.3828 115.245 29.6447C115.408 29.8524 115.579 30.042 115.75 30.2407C115.741 31.0082 115.669 31.7758 115.543 32.5344C114.64 31.3875 113.738 30.2316 112.827 29.0848C113.404 28.9764 113.973 28.8952 114.559 28.859ZM112.457 29.1661C112.466 29.1751 112.466 29.1841 112.475 29.1932C113.467 30.4574 114.469 31.7216 115.462 32.9859C115.408 33.2477 115.353 33.5006 115.281 33.7625C115.272 33.7986 115.272 33.8257 115.281 33.8528C115.281 33.8437 115.272 33.8257 115.263 33.8166C114.189 32.1461 113.052 30.8096 111.735 29.3377C111.978 29.2835 112.213 29.2203 112.457 29.1661ZM111.374 29.455C111.374 29.4641 111.383 29.4641 111.383 29.4731C112.7 30.945 113.837 32.2725 114.911 33.925C114.613 33.9792 114.325 34.0334 114.027 34.0966C112.998 32.5163 111.798 31.1256 110.543 29.726C110.823 29.6266 111.094 29.5363 111.374 29.455ZM110.2 35.1712C109.957 34.8912 109.713 34.6203 109.46 34.3404C109.433 34.3043 109.388 34.2862 109.352 34.2772C109.37 34.0424 109.379 33.8076 109.397 33.5728C109.821 34.0514 110.246 34.53 110.661 35.0177C110.516 35.0718 110.363 35.126 110.2 35.1712ZM109.849 35.2976C109.659 35.3608 109.47 35.424 109.289 35.4872C109.298 35.2344 109.316 34.9725 109.334 34.7106C109.506 34.9003 109.677 35.0989 109.849 35.2976ZM111.022 34.9093C110.507 34.3043 109.984 33.7083 109.451 33.1213C109.442 33.1123 109.433 33.1033 109.424 33.0942C109.442 32.715 109.442 32.3357 109.433 31.9655C110.228 32.8594 111.013 33.7534 111.744 34.7016C111.5 34.7648 111.256 34.8371 111.022 34.9093ZM112.087 34.5932C111.247 33.4916 110.327 32.4531 109.397 31.4236C109.37 31.0263 109.316 30.629 109.226 30.2407C109.235 30.2407 109.244 30.2316 109.253 30.2316C110.462 31.5772 111.662 32.9407 112.682 34.4307C112.493 34.4849 112.294 34.5391 112.087 34.5932ZM108.91 30.3852C108.991 30.7554 109.036 31.1347 109.063 31.5139C109.063 31.523 109.063 31.523 109.063 31.532C109.154 32.8685 108.991 34.2411 108.937 35.5505C108.937 35.5685 108.937 35.5956 108.946 35.6046C107.52 36.1194 106.112 36.6973 104.741 37.3384C104.768 37.0314 104.777 36.7334 104.786 36.4264C104.795 36.3993 104.795 36.3722 104.786 36.3361C104.795 35.1983 104.641 34.0605 104.326 32.9497C104.434 32.8775 104.542 32.8053 104.66 32.733C105.986 31.8842 107.412 31.0534 108.91 30.3852ZM104.037 33.1665C104.109 33.4464 104.181 33.7263 104.235 34.0153C103.992 33.8618 103.748 33.6993 103.495 33.5457C103.676 33.4193 103.847 33.2929 104.037 33.1665ZM103.198 33.7625L104.308 34.4668C104.344 34.6835 104.371 34.9093 104.389 35.126C103.865 34.7558 103.351 34.3946 102.837 34.0243C102.954 33.9431 103.08 33.8528 103.198 33.7625ZM102.548 34.2501C103.17 34.6926 103.793 35.126 104.416 35.5685C104.416 35.5685 104.425 35.5685 104.425 35.5775C104.434 35.7491 104.443 35.9207 104.443 36.0832C103.676 35.5775 102.909 35.0718 102.142 34.5662C102.286 34.4668 102.412 34.3585 102.548 34.2501ZM101.871 34.8009C102.728 35.3698 103.586 35.9297 104.443 36.4986C104.443 36.7154 104.425 36.9411 104.416 37.1578C103.45 36.4715 102.494 35.7762 101.528 35.0899C101.645 34.9815 101.754 34.8912 101.871 34.8009ZM101.257 35.3066C102.277 36.0381 103.297 36.7695 104.317 37.501C104.326 37.51 104.335 37.519 104.353 37.519C104.19 37.5913 104.037 37.6726 103.883 37.7448C103.883 37.6996 103.865 37.6635 103.82 37.6274C102.837 36.896 101.916 36.2729 100.896 35.6227C101.014 35.5234 101.131 35.415 101.257 35.3066ZM100.635 35.8575C101.645 36.4986 102.629 37.1849 103.595 37.8983C103.387 37.9976 103.18 38.106 102.972 38.2144C102.963 38.1963 102.945 38.1873 102.927 38.1692C102.151 37.5913 101.375 37.0224 100.608 36.4444C100.608 36.4444 100.599 36.4444 100.599 36.4354C100.58 36.3271 100.562 36.2187 100.544 36.1103C100.535 36.0561 100.508 36.02 100.481 36.002C100.526 35.9568 100.58 35.9026 100.635 35.8575ZM101.555 38.9639L101.023 38.5214C100.923 38.4401 100.833 38.3498 100.725 38.2776C100.725 38.115 100.725 37.9435 100.716 37.7809C101.122 38.106 101.537 38.4221 101.952 38.7381C101.826 38.8194 101.69 38.8916 101.555 38.9639ZM101.23 39.1445C101.041 39.2528 100.842 39.3612 100.653 39.4786C100.68 39.2167 100.707 38.9639 100.716 38.702C100.788 38.7742 100.86 38.8465 100.905 38.8826C101.014 38.9639 101.122 39.0542 101.23 39.1445ZM102.295 38.5665C101.772 38.1782 101.248 37.7809 100.743 37.3655C100.725 37.3565 100.716 37.3475 100.698 37.3384C100.689 37.194 100.671 37.0495 100.662 36.905C101.32 37.3926 101.979 37.8893 102.638 38.3769C102.521 38.4401 102.403 38.5033 102.295 38.5665ZM100.21 36.2367C100.4 37.3204 100.427 38.4221 100.301 39.5147C100.292 39.5689 100.31 39.6231 100.346 39.6502C100.012 39.8488 99.669 40.0565 99.3351 40.2552C98.8298 40.5713 98.3424 40.8873 97.8551 41.2214C97.8822 40.3907 97.8461 39.5689 97.7198 38.7472C97.7107 38.7201 97.7017 38.693 97.6927 38.6749C97.8461 38.5214 97.9995 38.3679 98.1439 38.2144C98.8207 37.5461 99.5066 36.8779 100.21 36.2367ZM97.4039 38.9729C97.44 39.2528 97.4761 39.5328 97.4941 39.8218C97.3137 39.6953 97.1332 39.5599 96.9707 39.4154C97.1061 39.2619 97.2505 39.1174 97.4039 38.9729ZM96.7181 39.6592C96.9707 39.8759 97.2324 40.0656 97.5122 40.2462C97.5212 40.3816 97.5212 40.5171 97.5212 40.6616C97.1873 40.3907 96.8354 40.1378 96.4834 39.894C96.5646 39.8127 96.6368 39.7314 96.7181 39.6592ZM96.2398 40.1288C96.682 40.4268 97.1061 40.7338 97.5122 41.077C97.5212 41.077 97.5212 41.086 97.5302 41.086C97.5302 41.1763 97.5212 41.2756 97.5212 41.3659C97.5212 41.402 97.5302 41.4291 97.5393 41.4562C97.4941 41.4923 97.44 41.5194 97.3949 41.5556C97.3678 41.5285 97.3498 41.5014 97.3227 41.4833C97.2866 41.4472 97.2505 41.4291 97.2144 41.4382C96.7722 41.1221 96.33 40.806 95.8878 40.49C95.9961 40.3726 96.1134 40.2552 96.2398 40.1288ZM95.6261 40.7248C96.1134 41.077 96.6007 41.4201 97.0881 41.7723C96.9978 41.8355 96.9076 41.8987 96.8173 41.9619C96.8083 41.9529 96.7993 41.9439 96.7902 41.9258C96.3481 41.5736 95.8968 41.2395 95.4276 40.9144C95.4907 40.8512 95.5539 40.788 95.6261 40.7248ZM95.1659 41.1582C95.6261 41.4833 96.0863 41.8174 96.5285 42.1696C96.4293 42.2419 96.33 42.3051 96.2398 42.3773C95.8066 42.0342 95.3644 41.7091 94.9132 41.393C94.9944 41.3208 95.0846 41.2395 95.1659 41.1582ZM94.6334 43.5783C94.6334 43.488 94.6334 43.3977 94.6424 43.3074C94.6966 43.3526 94.7507 43.3977 94.8139 43.4429C94.7598 43.488 94.6966 43.5332 94.6334 43.5783ZM95.1027 43.2261C94.9673 43.1178 94.832 43.0185 94.6966 42.9101C94.7237 42.7475 94.7507 42.585 94.7688 42.4225L95.4276 42.9733C95.3283 43.0546 95.211 43.1358 95.1027 43.2261ZM95.7163 42.7566L94.9132 42.0793C94.8771 42.0522 94.85 42.0432 94.8139 42.0342C94.8229 41.9348 94.8229 41.8355 94.8229 41.7452C95.211 42.0161 95.581 42.296 95.951 42.585C95.8698 42.6482 95.7976 42.7024 95.7163 42.7566ZM94.48 41.7903C94.4981 42.4766 94.2454 43.1358 94.3085 43.8221V43.8312C93.9566 44.1021 93.6046 44.373 93.2617 44.6439C92.3683 45.3392 91.4659 46.0165 90.5364 46.6576C91.3034 45.6372 91.9532 44.5536 92.4946 43.4248C93.1805 42.9101 93.8393 42.3592 94.48 41.7903ZM133.041 59.923C132.897 59.9411 132.752 59.9411 132.608 59.9411C132.121 59.5528 130.957 58.6588 129.973 57.9364C130.063 57.7919 130.153 57.6474 130.262 57.5029C131.29 58.2615 132.698 59.3271 133.14 59.6883C133.104 59.7695 133.077 59.8508 133.041 59.923ZM133.285 59.3722C132.761 58.9568 131.408 57.9545 130.46 57.2501C130.587 57.0966 130.713 56.9521 130.848 56.8166C131.868 57.5662 133.05 58.4692 133.492 58.8304C133.51 58.8484 133.529 58.8575 133.547 58.8575C133.456 59.0291 133.366 59.2006 133.285 59.3722ZM133.718 58.5685C133.267 58.2073 132.094 57.3043 131.092 56.5728C131.236 56.4193 131.399 56.2568 131.561 56.1033C132.527 56.8166 133.583 57.6294 133.998 57.9545C134.025 57.9725 134.052 57.9906 134.088 57.9906C133.953 58.1802 133.835 58.3698 133.718 58.5685ZM134.269 57.7377C134.259 57.7287 134.25 57.7106 134.232 57.7016C133.817 57.3675 132.779 56.5728 131.832 55.8685C132.003 55.724 132.193 55.5885 132.373 55.4892C133.294 56.1755 134.259 56.916 134.648 57.223C134.648 57.223 134.648 57.223 134.657 57.223C134.521 57.3946 134.386 57.5662 134.269 57.7377ZM134.882 56.9702C134.503 56.6631 133.619 55.9859 132.743 55.3357C132.77 55.3267 132.798 55.3176 132.825 55.3176C132.834 55.3176 132.843 55.3086 132.843 55.3086C133.24 55.4711 133.646 55.5885 134.061 55.6879C134.566 56.0671 134.999 56.4103 135.234 56.5909C135.117 56.7173 134.99 56.8437 134.882 56.9702ZM135.478 56.3471C135.333 56.2297 135.099 56.0491 134.828 55.8324C135.171 55.8956 135.523 55.9407 135.866 55.9949C135.73 56.1123 135.604 56.2297 135.478 56.3471ZM99.4434 36.1645C101.465 34.1417 103.559 32.2364 105.968 30.6832C109.722 28.245 114.343 26.0506 118.927 26.9898C122.78 27.7845 126.255 30.5116 127.807 34.1508C129.621 38.404 128.484 43.2081 129.711 47.5968C130.28 49.6376 131.426 51.6152 133.24 52.7801C134.909 53.8547 136.895 53.8006 138.781 54.2159C137.851 54.5952 136.994 55.1099 136.227 55.715C135.604 55.6247 134.972 55.5524 134.359 55.426C133.005 55.1461 131.814 54.5139 130.866 53.4935C128.944 51.4527 128.367 48.6172 128.168 45.9081C127.997 43.5783 128.069 41.2124 127.654 38.9007C127.302 36.9411 126.562 35.108 125.343 33.5277C123.105 30.6019 119.568 28.6604 115.877 28.4888C113.964 28.3985 112.078 28.8229 110.291 29.4912C110.228 29.4821 110.164 29.5092 110.128 29.5544C109.885 29.6447 109.641 29.744 109.397 29.8433C107.204 30.7644 105.111 31.9745 103.18 33.3651C100.364 35.3969 98.0446 38.0067 95.5449 40.3816C95.5268 40.3997 95.5088 40.4177 95.4907 40.4268C94.6334 41.2485 93.749 42.0342 92.8105 42.7656C92.9459 42.4495 93.0722 42.1245 93.1895 41.7994C93.2076 41.7903 93.2166 41.7903 93.2346 41.7723C95.5178 40.1649 97.4671 38.1421 99.4434 36.1645ZM60.9815 23.0978C64.5281 18.9348 69.6991 16.5418 75.1769 16.5418C79.5898 16.5418 83.8764 18.1221 87.2515 20.9937C91.0417 24.2265 93.3429 28.7326 93.749 33.6993C94.0198 37.1127 93.37 40.4629 91.89 43.4519C91.8359 43.488 91.7907 43.5241 91.7366 43.5603C91.6373 43.6235 91.6464 43.7409 91.7095 43.8131C91.0688 45.0412 90.2837 46.2061 89.3632 47.2807C85.8166 51.4437 80.6456 53.8367 75.1678 53.8367C70.7549 53.8367 66.4683 52.2564 63.1022 49.3848C55.26 42.7205 54.3215 30.927 60.9815 23.0978Z" fill="white" fill-opacity="0.5"/>
<path d="M73.8325 27.0805C74.6267 27.7577 75.6464 28.137 76.6843 28.137C77.9838 28.137 79.2021 27.5681 80.0413 26.5838C81.6206 24.7326 81.395 21.9423 79.545 20.371C78.7508 19.6937 77.7311 19.3145 76.6933 19.3145C75.3938 19.3145 74.1755 19.8834 73.3362 20.8677C71.7569 22.7189 71.9825 25.5092 73.8325 27.0805ZM76.6933 27.5952C76.1518 27.5952 75.6103 27.4778 75.123 27.2611C75.2133 27.2881 75.3035 27.3062 75.3938 27.3243C75.9984 27.4958 76.6301 27.5591 77.2799 27.5049C77.334 27.5049 77.3701 27.4778 77.3972 27.4507C77.4964 27.4597 77.5957 27.4597 77.695 27.4597C77.3611 27.55 77.0272 27.5952 76.6933 27.5952ZM78.1011 27.3243C78.1011 27.3152 78.1011 27.3062 78.1011 27.2972C78.1282 27.2881 78.1643 27.2881 78.2003 27.2791C78.1733 27.2972 78.1372 27.3152 78.1011 27.3243ZM73.7513 21.2198C74.4913 20.3529 75.5562 19.8563 76.6933 19.8563C77.6138 19.8563 78.4982 20.1814 79.2021 20.7774C79.9872 21.4456 80.4655 22.3847 80.5467 23.4142C80.6008 24.0373 80.5016 24.6513 80.2669 25.2112C80.1677 25.1299 80.0594 25.0757 79.9421 25.0306C79.915 24.9945 79.8879 24.9764 79.8428 24.9583C78.7238 24.6694 77.5777 24.5339 76.4316 24.543C75.2945 24.5068 74.1574 24.6603 73.0565 25.0035C72.6052 23.7483 72.8308 22.3035 73.7513 21.2198Z" fill="white" fill-opacity="0.5"/>
<path d="M63.2199 30.8727C64.014 31.55 65.0338 31.9292 66.0716 31.9292C67.3711 31.9292 68.5894 31.3603 69.4286 30.376C70.1957 29.482 70.5567 28.3352 70.4664 27.1613C70.4484 26.9445 70.4123 26.7278 70.3672 26.5111C70.3672 26.5021 70.3762 26.493 70.3762 26.484C70.4935 26.3847 70.4213 26.177 70.2769 26.1679C70.0333 25.3913 69.573 24.696 68.9413 24.1542C68.1472 23.4769 67.1274 23.0977 66.0896 23.0977C64.7901 23.0977 63.5718 23.6666 62.7325 24.6509C61.9655 25.5448 61.6045 26.6917 61.6947 27.8656C61.776 29.0395 62.3174 30.1051 63.2199 30.8727ZM63.1296 25.003C63.8696 24.1361 64.9345 23.6395 66.0716 23.6395C66.992 23.6395 67.8764 23.9646 68.5803 24.5606C69.1038 25.003 69.4828 25.5629 69.7084 26.186C69.6723 26.195 69.6272 26.2131 69.5911 26.2311C69.555 26.2221 69.5098 26.2311 69.4647 26.2492C68.445 26.8001 67.5155 27.4863 66.6852 28.272C65.8008 29.0486 65.0518 29.9787 64.4742 31.0172C64.1494 30.8727 63.8425 30.674 63.5718 30.4392C62.7867 29.771 62.3084 28.8319 62.2272 27.8024C62.1369 26.791 62.4618 25.7977 63.1296 25.003Z" fill="white" fill-opacity="0.5"/>
<path d="M67.1451 41.5643C67.9121 40.6703 68.2731 39.5234 68.1829 38.3495C68.1378 37.7716 67.9753 37.2207 67.7226 36.715C67.7136 36.697 67.7046 36.6699 67.6956 36.6518C67.6595 36.5886 67.6234 36.5254 67.5873 36.4622L67.5782 36.4531C67.5512 36.408 67.5241 36.3628 67.497 36.3267C67.506 36.2725 67.488 36.2093 67.4158 36.1642C67.3978 36.1551 67.3797 36.1371 67.3526 36.1281C67.1451 35.8481 66.9104 35.5862 66.6397 35.3515C65.8456 34.6742 64.8258 34.2949 63.788 34.2949C62.4885 34.2949 61.2702 34.8638 60.4309 35.8481C58.8517 37.6993 59.0773 40.4897 60.9273 42.0609C61.7214 42.7382 62.7412 43.1175 63.779 43.1175C65.0875 43.1175 66.3058 42.5576 67.1451 41.5643ZM67.4609 39.8395C67.47 39.8395 67.47 39.8395 67.4609 39.8395C67.479 39.8395 67.479 39.8395 67.488 39.8395C67.479 39.8575 67.479 39.8756 67.47 39.8937C67.4609 39.8846 67.4429 39.8846 67.4339 39.8756C67.4519 39.8666 67.4519 39.8485 67.4609 39.8395ZM66.9646 40.8147C66.9736 40.7967 66.9826 40.7786 66.9917 40.7606C67.0007 40.7606 67.0097 40.7606 67.0187 40.7606C67.0368 40.7606 67.0548 40.7606 67.0729 40.7606C67.0368 40.8238 66.9917 40.878 66.9556 40.9412C66.9646 40.9051 66.9736 40.8599 66.9646 40.8147ZM66.8112 41.0134C66.8563 41.0134 66.9014 40.9954 66.9195 40.9683C66.8653 41.0495 66.8021 41.1308 66.739 41.203C66.748 41.176 66.748 41.1398 66.739 41.1127C66.7751 41.0857 66.8021 41.0495 66.8112 41.0134ZM64.0317 38.4037C64.0407 38.4308 64.0407 38.4669 64.0497 38.494C64.0407 38.5301 64.0407 38.5572 64.0317 38.5933C64.0317 38.5662 64.0226 38.5482 64.0226 38.5211C64.0136 38.4669 64.0136 38.4037 64.0046 38.3495C64.0136 38.3676 64.0226 38.3856 64.0317 38.4037ZM60.8461 36.2003C61.559 35.3605 62.5878 34.8729 63.6797 34.8458C63.6526 34.909 63.6346 34.9722 63.6256 35.0444C63.5985 35.0715 63.5804 35.1076 63.5714 35.1528C63.4541 36.3087 63.4902 37.4645 63.6707 38.5933C63.8151 39.8214 64.1851 41.0224 64.7626 42.1332C64.7717 42.1512 64.7807 42.1693 64.7987 42.1783C64.7987 42.2776 64.88 42.377 65.0063 42.3409C65.0785 42.3228 65.1507 42.3047 65.2319 42.2867C64.7807 42.4673 64.2843 42.5666 63.788 42.5666C62.8675 42.5666 61.9831 42.2415 61.2792 41.6455C59.6639 40.2729 59.4653 37.8257 60.8461 36.2003Z" fill="white" fill-opacity="0.5"/>
<path d="M72.6231 43.7587C71.829 43.0814 70.8092 42.7021 69.7714 42.7021C68.4719 42.7021 67.2536 43.2711 66.4143 44.2553C64.8351 46.1065 65.0607 48.8969 66.9107 50.4681C67.7048 51.1454 68.7246 51.5247 69.7624 51.5247C71.0619 51.5247 72.2802 50.9558 73.1194 49.9715C73.8865 49.0775 74.2475 47.9307 74.1573 46.7567C74.067 45.5918 73.5165 44.5263 72.6231 43.7587ZM68.9682 43.3343C68.9412 43.3433 68.9231 43.3523 68.896 43.3614C68.8329 43.3704 68.7787 43.3794 68.7155 43.3975C68.8058 43.3704 68.887 43.3523 68.9682 43.3343ZM72.7043 49.6283C71.9643 50.4952 70.8994 50.9919 69.7624 50.9919C68.8419 50.9919 67.9575 50.6668 67.2536 50.0708C65.6473 48.7073 65.4397 46.3052 66.7663 44.6798C66.8114 44.8152 66.8656 44.9326 66.9558 45.041C66.9558 45.0771 66.9738 45.1222 67.0009 45.1584C67.786 46.0162 68.6704 46.7567 69.636 47.3708C70.6468 48.0751 71.7929 48.5989 73.0112 48.9059C73.0292 48.9149 73.0473 48.9149 73.0653 48.9149C73.0924 48.942 73.1285 48.9601 73.1646 48.9601C73.0473 49.1859 72.8848 49.4116 72.7043 49.6283Z" fill="white" fill-opacity="0.5"/>
<path d="M83.7049 36.3452C82.1256 38.1964 82.3512 40.9867 84.2012 42.558C84.9953 43.2353 86.0151 43.6145 87.0529 43.6145C88.3524 43.6145 89.5707 43.0456 90.41 42.0613C91.9892 40.2101 91.7636 37.4198 89.9136 35.8485C89.1195 35.1713 88.0997 34.792 87.0619 34.792C85.7714 34.792 84.5441 35.3609 83.7049 36.3452ZM85.1578 35.8395C85.4917 35.6499 85.8617 35.5054 86.2407 35.4241C85.9158 35.5234 85.6 35.6318 85.3022 35.7763C85.2571 35.7943 85.2119 35.8214 85.1578 35.8395ZM88.0727 35.7763C88.1178 35.686 88.0997 35.5686 87.9734 35.5325C87.9463 35.5234 87.9283 35.5144 87.9012 35.5144C87.9102 35.4873 87.9192 35.4602 87.9192 35.4422C88.5239 35.5776 89.0924 35.8576 89.5707 36.2729C91.1951 37.6546 91.3936 40.1018 90.0039 41.7272C89.2639 42.5941 88.199 43.0908 87.0619 43.0908C86.5024 43.0908 85.9429 42.9644 85.4375 42.7296C85.4917 42.6844 85.5368 42.6393 85.5819 42.5851C85.618 42.5761 85.6541 42.549 85.6812 42.5128C86.349 41.5647 86.8905 40.5442 87.2875 39.4697C87.7658 38.3318 88.0366 37.1037 88.0727 35.8485C88.0817 35.8124 88.0727 35.7943 88.0727 35.7763Z" fill="white" fill-opacity="0.5"/>
<path d="M82.6223 32.0106C83.4165 32.6879 84.4362 33.0672 85.474 33.0672C86.7735 33.0672 87.9918 32.4983 88.8311 31.514C90.4103 29.6628 90.1847 26.8724 88.3347 25.3012C87.5406 24.6239 86.5208 24.2446 85.483 24.2446C84.1835 24.2446 82.9652 24.8135 82.126 25.7978C80.5557 27.64 80.7723 30.4303 82.6223 32.0106ZM85.483 24.7774C86.4035 24.7774 87.2879 25.1025 87.9918 25.6985C89.6162 27.0801 89.8147 29.5273 88.425 31.1528C88.1543 31.4688 87.8474 31.7307 87.5045 31.9474C87.5045 31.821 87.4864 31.7036 87.4504 31.5772C87.4594 31.5411 87.4594 31.4959 87.4413 31.4508C86.9901 30.3852 86.4035 29.3828 85.6996 28.4798C84.9777 27.4775 84.0843 26.6015 83.0374 25.9062C83.0194 25.8972 83.0013 25.8881 82.9833 25.8791C82.9562 25.8339 82.9201 25.8069 82.875 25.7888C83.5789 25.1477 84.5084 24.7774 85.483 24.7774Z" fill="white" fill-opacity="0.5"/>
<path d="M82.6762 44.1742C81.882 43.4969 80.8623 43.1177 79.8245 43.1177C78.525 43.1177 77.3067 43.6866 76.4674 44.6709C75.7003 45.5649 75.3394 46.7117 75.4296 47.8856C75.5198 49.0596 76.0703 50.1251 76.9637 50.8927C77.7579 51.57 78.7776 51.9492 79.8154 51.9492C81.115 51.9492 82.3333 51.3803 83.1725 50.396C83.9396 49.5021 84.3006 48.3552 84.2103 47.1813C84.1201 46.0073 83.5786 44.9418 82.6762 44.1742ZM81.9181 44.2916C81.7286 44.1832 81.5481 44.0839 81.3496 43.9936C81.5481 44.0749 81.7376 44.1742 81.9181 44.2916ZM82.7664 50.0439C82.0264 50.9108 80.9615 51.4074 79.8245 51.4074C78.904 51.4074 78.0196 51.0823 77.3157 50.4863C76.7201 49.9807 76.305 49.3214 76.0974 48.581C76.1786 48.599 76.2508 48.6081 76.332 48.599C76.3681 48.6171 76.4042 48.6351 76.4494 48.6261C77.6045 48.5178 78.7325 48.2649 79.8064 47.8676C80.9796 47.4883 82.0896 46.8923 83.0642 46.1067C83.0823 46.0977 83.0913 46.0796 83.1003 46.0615C83.1996 46.0435 83.2718 45.9441 83.2267 45.8267C83.2176 45.7997 83.2086 45.7816 83.1996 45.7545C83.2176 45.7545 83.2357 45.7455 83.2447 45.7364C83.4793 46.188 83.6328 46.6936 83.6689 47.2174C83.7591 48.2559 83.4342 49.2582 82.7664 50.0439Z" fill="white" fill-opacity="0.5"/>
<path d="M77.0179 37.5916C77.4601 37.0679 77.6767 36.3996 77.6226 35.7224C77.5684 35.0361 77.2526 34.413 76.7291 33.9705C76.2689 33.5732 75.6733 33.3564 75.0687 33.3564C74.3106 33.3564 73.5977 33.6815 73.1104 34.2595C72.6682 34.7832 72.4516 35.4515 72.5057 36.1287C72.5599 36.815 72.8757 37.4381 73.3991 37.8806C73.8594 38.2779 74.455 38.4946 75.0596 38.4946C75.8177 38.5037 76.5306 38.1696 77.0179 37.5916ZM75.0596 37.9619C74.5813 37.9619 74.1121 37.7903 73.7421 37.4742C73.3269 37.1221 73.0833 36.6344 73.0382 36.0926C72.993 35.5508 73.1645 35.027 73.5165 34.6116C73.9045 34.1601 74.464 33.8983 75.0596 33.8983C75.5379 33.8983 76.0072 34.0698 76.3772 34.3859C76.7923 34.7381 77.036 35.2257 77.0811 35.7675C77.1262 36.3093 76.9547 36.8331 76.6028 37.2485C76.2238 37.7 75.6552 37.9619 75.0596 37.9619Z" fill="white" fill-opacity="0.5"/>
</mask>
<g mask="url(#mask0_1058_17995)">
<rect x="55" y="13" width="59" height="43" fill="#D9D9D9"/>
</g>
<defs>
<clipPath id="clip0_1058_17995">
<rect width="10" height="10" fill="white" transform="matrix(0.134523 -0.990911 -0.990911 -0.134523 43.9092 33.2544)"/>
</clipPath>
<clipPath id="clip1_1058_17995">
<rect width="10" height="10" fill="white" transform="matrix(0.134523 -0.990911 -0.990911 -0.134523 66.9092 67.2544)"/>
</clipPath>
<clipPath id="clip2_1058_17995">
<rect width="10" height="10" fill="white" transform="matrix(0.134523 -0.990911 -0.990911 -0.134523 95.9092 11.2544)"/>
</clipPath>
<clipPath id="clip3_1058_17995">
<rect width="5" height="4" fill="white" transform="translate(67.5073 8) rotate(61.2627)"/>
</clipPath>
</defs>
</svg>
