<svg width="102" height="113" viewBox="0 0 102 113" fill="none" xmlns="http://www.w3.org/2000/svg">
<path d="M33.5151 95.5366C33.9767 96.3022 34.4278 97.0661 34.895 97.8209C35.2269 98.3595 35.5865 98.8816 35.9231 99.4189C36.2811 99.9921 36.5897 100.588 36.7236 101.262C36.9311 102.305 36.5283 103.204 35.5849 103.707C35.2056 103.909 34.8032 104.071 34.4005 104.224C33.1408 104.701 31.8777 105.17 30.6111 105.63C30.1561 105.794 29.6858 105.918 29.2211 106.056C29.1358 106.08 29.0443 106.074 28.9634 106.037C29.0303 105.99 29.0911 105.928 29.1653 105.899C30.5151 105.356 31.8658 104.816 33.2174 104.278C33.9302 103.994 34.6472 103.72 35.3556 103.426C35.5351 103.351 35.6891 103.216 35.903 103.078L34.7639 101.893C34.7866 101.868 34.809 101.843 34.8314 101.818C35.3586 101.978 35.6839 102.436 36.1134 102.79C36.0858 102.486 35.971 102.335 35.2137 101.747C34.8458 101.461 34.4375 101.227 34.0113 100.945C34.1017 100.922 34.1797 100.873 34.2326 100.893C34.5202 101 34.8226 101.091 35.0795 101.252C35.3973 101.451 35.6764 101.712 35.9715 101.947C36.0744 102.03 36.1748 102.114 36.3112 102.227C36.4304 101.902 36.3961 101.613 36.3422 101.328C36.2296 100.737 35.9619 100.207 35.6485 99.7013C34.9033 98.4988 34.1482 97.3027 33.3961 96.1043C33.3245 95.9904 33.2446 95.8815 33.1707 95.769C32.6211 94.9288 31.4929 94.6301 30.6404 94.9012C30.6783 95.0242 30.7203 95.1472 30.7543 95.2724C31.0445 96.337 31.359 97.3958 31.6146 98.4687C31.8029 99.2586 31.5897 99.9769 30.9764 100.527C30.5153 100.941 30.0326 101.33 29.5304 101.693C28.7877 102.23 28.0229 102.736 27.2623 103.249C27.1497 103.325 27.0133 103.366 26.8723 103.43C26.7688 103.177 26.9057 103.078 27.0341 102.986C27.2974 102.798 27.5676 102.62 27.8337 102.436C28.7432 101.808 29.6903 101.231 30.4988 100.469C30.7014 100.273 30.8808 100.055 31.0334 99.818C31.1324 99.6679 31.1673 99.4758 31.2215 99.3285C30.9551 98.9692 30.4811 98.922 30.2609 98.5043C30.6694 98.4715 30.8805 98.7807 31.2168 98.8747C31.2221 98.7752 31.2445 98.6865 31.2284 98.6055C30.9377 97.1352 30.5414 95.6952 29.9378 94.32C29.5193 93.3662 28.7861 92.8153 27.7408 92.7015C27.0554 92.6266 26.6643 92.9162 26.5365 93.5953C26.4258 94.1812 26.5345 94.7591 26.6933 95.3116C26.9182 96.099 27.2188 96.8649 27.4871 97.6393C27.5635 97.8587 27.7054 98.0638 27.6351 98.3606C27.309 98.1672 27.314 97.7802 27.0565 97.5732C26.7968 97.6512 26.526 97.7225 26.2624 97.8134C25.6951 98.0099 25.2594 98.3805 24.907 98.8587C24.4489 99.4767 24.0813 100.157 23.815 100.878C23.7575 101.043 23.6788 101.199 23.581 101.342C23.4455 101.079 23.5257 100.825 23.6087 100.585C23.8685 99.8315 24.2575 99.1293 24.7582 98.5093C24.8996 98.3335 25.0498 98.1647 25.2395 97.9414C23.6905 97.5666 22.2426 97.8432 20.8018 98.2586C20.7937 98.2277 20.7854 98.1967 20.7771 98.1658C21.0064 98.069 21.2285 97.9483 21.4659 97.8797C22.5482 97.5671 23.651 97.3955 24.7801 97.5088C25.0724 97.5381 25.3656 97.668 25.6491 97.6431C25.9188 97.6191 26.1747 97.4469 26.4394 97.3518C26.5777 97.3026 26.7248 97.28 26.9021 97.2371C26.745 96.7618 26.5957 96.2933 26.4319 95.8298C26.4101 95.7674 26.3265 95.7052 26.2588 95.6833C25.2022 95.3431 24.4728 94.5864 23.8427 93.734C23.1144 92.7485 22.3986 91.7494 21.7488 90.7115C21.1179 89.7041 20.329 88.9264 19.2041 88.5094C19.0545 88.4541 18.9256 88.3435 18.7303 88.2222C19.0548 88.0746 19.2835 88.1608 19.5012 88.2498C20.4101 88.6119 21.1875 89.2414 21.7303 90.0549C22.0016 90.4564 22.2464 90.876 22.5048 91.2867C22.5528 91.3693 22.6158 91.4423 22.6904 91.502C22.5839 91.0695 22.3742 90.6789 22.1853 90.2821C21.9828 89.8564 21.7831 89.4269 21.5428 89.0226C21.3107 88.6323 21.0286 88.2714 20.713 87.8165C20.8513 87.9046 20.9268 87.9359 20.9793 87.9909C21.4664 88.5 21.8951 89.0547 22.206 89.6881C22.5795 90.4495 22.9506 91.2135 23.2848 91.9928C23.8518 93.3145 24.7366 94.3448 25.9838 95.0634C26.0306 95.0911 26.0768 95.1187 26.1255 95.1414C26.1479 95.1519 26.1763 95.1502 26.2474 95.161C26.2397 95.0441 26.2306 94.9332 26.2256 94.8227C26.2065 94.42 26.1501 94.0148 26.1788 93.6155C26.2355 92.8192 26.7655 92.3416 27.5665 92.3391C28.8527 92.335 29.7185 92.995 30.2877 94.1027C30.3488 94.2218 30.4014 94.3448 30.4681 94.4872C31.5047 94.3316 32.4731 94.428 33.2506 95.2221C33.3234 95.1803 33.3837 95.1513 33.4379 95.114C33.8251 94.8476 34.224 94.857 34.6181 95.0864C34.9672 95.2895 35.3047 95.5131 35.6485 95.7253C35.784 95.8083 35.9229 95.8867 36.1015 95.9915C36.0764 95.2942 36.0526 94.6444 36.0299 94.0148C34.8707 93.4242 33.748 92.8189 32.667 92.1258C30.4119 90.6795 28.3822 88.9474 26.308 87.2668C25.9208 86.9542 25.5059 86.6734 25.0865 86.4056C24.0794 85.763 22.9634 85.6339 21.7895 85.6624C19.4326 85.7193 17.1219 86.093 14.8178 86.5451C13.6677 86.7709 12.5165 86.9923 11.3628 87.2001C10.9927 87.2668 10.6141 87.2938 10.2379 87.3176C10.107 87.3256 9.97207 87.2701 9.83903 87.2438C9.83737 87.2148 9.83736 87.1858 9.83681 87.157C9.88881 87.1294 9.94026 87.081 9.99309 87.0799C11.3 87.0501 12.542 86.6593 13.8079 86.402C15.5248 86.0529 17.2378 85.6696 18.9842 85.5079C20.2314 85.3921 21.4869 85.3357 22.7393 85.3244C23.8847 85.3139 24.9034 85.774 25.8013 86.4512C26.9846 87.3441 28.1333 88.283 29.29 89.2105C31.2815 90.8088 33.3837 92.2421 35.6612 93.4074C35.7652 93.4607 35.8775 93.4975 36.0208 93.5563C36.0285 93.4015 36.0404 93.286 36.0388 93.1694C36.0072 91.1352 36.015 89.0989 35.9303 87.0667C35.833 84.7384 35.6587 82.413 35.5069 80.087C35.3962 78.4071 35.269 76.7281 35.1473 75.0491C35.0718 74.0014 35.0029 72.9533 34.9119 71.907C34.8806 71.5493 34.791 71.197 34.721 70.8015C34.3983 70.8448 34.1089 70.8844 33.8193 70.9225C33.3881 70.9778 33.3383 70.9181 33.2938 70.5005C33.0753 68.5136 33.1591 66.5165 33.0725 64.5252C33.0675 64.408 33.0534 64.2911 33.0407 64.1421C32.5456 64.2847 32.0845 64.4298 31.6168 64.5492C30.9776 64.7125 30.3334 64.856 29.6914 65.0094C29.5868 65.0345 29.4853 65.0749 29.3796 65.0923C29.0754 65.1456 28.9614 65.3173 28.8842 65.6251C28.7883 66.0082 28.6046 66.3871 28.3839 66.7179C27.7024 67.7375 27.1012 68.8085 26.586 69.9212C26.4547 70.2015 26.2755 70.4568 26.0566 70.6757C25.5178 71.2127 24.6614 71.1815 24.1367 70.6298C23.5973 70.063 23.482 69.3737 23.6319 68.6377C23.7085 68.261 23.8573 67.8995 23.9854 67.4932C23.6535 67.5808 23.3492 67.6753 23.04 67.7419C21.7621 68.012 20.4886 67.9003 19.2279 67.638C18.6905 67.5275 18.1641 67.3431 17.6474 67.1519C16.5986 66.7649 15.5572 66.3562 14.5177 65.9433C13.4943 65.5364 12.4504 65.3822 11.3495 65.566C10.2202 65.7548 9.08142 65.8805 7.94737 66.0455C6.93944 66.1925 5.98158 66.5071 5.06188 66.9413C4.56235 67.1773 4.06189 67.4115 3.5605 67.6438C3.45678 67.6916 3.34669 67.7267 3.23937 67.7665C3.22527 67.7419 3.21171 67.7173 3.19678 67.693C3.28474 67.622 3.3691 67.5457 3.46093 67.4808C5.08346 66.3313 6.9021 65.7271 8.86678 65.4939C10.7004 65.2761 12.5337 65.0472 14.3575 64.7634C15.836 64.5334 17.2964 64.2023 18.6653 63.5578C19.5208 63.1549 20.3503 62.7096 21.1157 62.1511C21.2559 62.0485 21.3923 61.9382 21.576 61.7951C20.5401 61.2199 19.7131 60.4508 18.8614 59.6189C19.0863 59.5517 19.1825 59.6482 19.2827 59.7255C19.7628 60.0962 20.2408 60.4696 20.721 60.8394C20.8593 60.9447 21.0026 61.0411 21.1976 61.105C21.1621 61.0317 21.1228 60.9603 21.08 60.891C20.7287 60.3731 20.4914 59.8002 20.2936 59.2126C20.2026 58.9417 20.1161 58.6524 20.2845 58.3207C20.7074 59.649 21.067 60.9701 22.408 61.6773C22.2343 60.4568 22.242 59.2665 22.6846 58.1071C22.8013 58.3005 22.7642 58.5031 22.7283 58.7046C22.5719 59.5958 22.5782 60.5079 22.7468 61.3968C22.9014 62.2389 23.2408 62.9973 23.8338 63.6153C24.3317 64.136 24.5013 64.7631 24.5574 65.4469C24.5967 65.9275 24.6506 66.407 24.6739 66.8882C24.6797 67.0104 24.6055 67.1433 24.5463 67.2602C24.2717 67.8027 24.0026 68.3478 23.9439 68.9638C23.8977 69.4489 23.9992 69.9035 24.3035 70.2948C24.3918 70.4103 24.5037 70.5056 24.6318 70.5744C24.7599 70.6432 24.9011 70.684 25.0462 70.694C25.1913 70.704 25.3368 70.683 25.4731 70.6323C25.6094 70.5817 25.7334 70.5027 25.8367 70.4004C25.9798 70.2585 26.0954 70.0913 26.1777 69.9074C26.6948 68.7207 27.3259 67.587 28.0622 66.5223C28.4099 66.0217 28.58 65.4648 28.6121 64.8568C28.6361 64.4 28.6987 63.9448 28.7269 63.4882C28.7642 62.889 28.6992 62.3042 28.4151 61.7608C28.2409 61.4264 28.0651 61.0927 27.8879 60.7598C27.3566 59.7665 27.0214 58.701 26.7412 57.6168C26.5592 56.9131 26.3838 56.2072 26.2314 55.4972C26.1761 55.2374 26.1885 54.9619 26.1824 54.6932C26.1808 54.6241 26.2264 54.555 26.3047 54.4898C26.3633 54.814 26.3943 55.1465 26.4856 55.4616C26.875 56.8056 27.2601 58.1518 27.6946 59.4815C27.8669 60.0072 28.1077 60.508 28.4107 60.9709C29.0994 62.0187 29.1904 63.156 29.0519 64.3483C29.0369 64.4773 29.0306 64.607 29.0176 64.7653C29.1282 64.7476 29.196 64.7468 29.2566 64.7258C30.1644 64.4127 31.0384 64.0271 31.8397 63.492C32.9561 62.7458 33.3477 61.9816 32.9018 60.4242C32.7951 60.0511 32.6305 59.6913 32.4634 59.3392C31.8273 58.0004 31.1513 56.6859 30.3746 55.4182C29.467 53.9368 28.6129 52.4217 27.9175 50.8242C27.8232 50.6075 27.6777 50.4135 27.5223 50.1529C27.7989 50.1894 27.9579 50.3187 28.065 50.5196C28.2116 50.7927 28.3371 51.0768 28.4887 51.3466C29.274 52.7437 30.0653 54.138 30.8523 55.5343C30.9695 55.7432 31.1374 55.8706 31.3501 55.9828C32.04 56.3493 32.7196 56.736 33.397 57.127C33.5906 57.2392 33.7532 57.2594 33.9557 57.1425C34.1283 57.0433 34.3269 56.9811 34.5216 56.933C34.5855 56.917 34.6732 56.9963 34.7501 57.0322C34.7127 57.0977 34.6914 57.1945 34.6356 57.2229C34.4561 57.3144 34.2633 57.3791 34.0768 57.457C33.5408 57.6803 33.0103 57.9142 32.5699 58.3066C32.5307 58.3417 32.4966 58.3826 32.4452 58.4368C32.6269 58.8135 32.8128 59.1849 32.9868 59.5622C33.2714 60.1788 33.4656 60.8148 33.4694 61.5068C33.473 62.1654 33.2553 62.7229 32.7956 63.1828C32.5774 63.4006 32.3254 63.5863 32.0889 63.7845C32.0018 63.8571 31.9097 63.9226 31.7805 64.0232C32.4493 63.9495 33.5355 63.5352 33.9806 63.1911L33.5228 62.9678C33.6794 62.7768 33.8503 62.8417 33.993 62.8732C34.2304 62.9257 34.3977 62.8732 34.5482 62.674C35.7458 61.09 37.1167 59.6587 38.4817 58.2215C38.7583 57.9296 39 57.601 39.236 57.2738C39.5565 56.8294 39.6741 56.3275 39.5939 55.757C39.2916 55.9228 39.013 56.1017 38.7113 56.2307C38.4095 56.3598 38.121 56.5657 37.7581 56.4914C37.7028 56.2902 37.8638 56.2512 37.9719 56.1992C38.2145 56.0829 38.4717 55.9961 38.7135 55.8783C38.9428 55.7678 39.1591 55.6296 39.3828 55.5058C39.572 55.4016 39.5781 55.2706 39.4382 55.1006C39.2274 55.073 39.0305 55.3297 38.7887 55.1559C38.805 54.8646 39.1311 54.9422 39.2714 54.7386C39.1071 54.5769 38.9453 54.3986 38.7646 54.243C38.2496 53.8008 37.6652 53.462 37.0472 53.1878C35.9265 52.6903 34.7974 52.2116 33.6744 51.7194C33.3959 51.5972 33.1032 51.49 32.8999 51.2537C32.9037 51.2354 32.9097 51.2177 32.9179 51.2009C32.9261 51.19 32.9382 51.1825 32.9516 51.1799C32.9916 51.1761 33.0319 51.1796 33.0706 51.1901C34.5053 51.7736 35.9417 52.3531 37.3717 52.9482C37.6809 53.0767 37.9672 53.261 38.3002 53.439C39.2567 52.923 40.219 52.3794 41.2031 51.8783C42.9203 51.0038 44.6482 50.1501 46.3755 49.2975C47.3464 48.8182 48.2802 48.2821 49.1053 47.577C49.3588 47.356 49.5914 47.1121 49.8001 46.8485C50.0076 46.5953 50.121 46.2781 50.121 45.9508C50.121 45.5246 49.9063 45.3237 49.4862 45.3676C49.2984 45.3865 49.1133 45.4267 48.9346 45.4876C47.8927 45.8527 46.8427 46.1987 45.816 46.6031C43.0079 47.7086 40.1086 48.4708 37.1402 48.9918C35.49 49.2814 33.8343 49.4893 32.1567 49.4956C31.6995 49.4976 31.2425 49.4956 30.746 49.4956C30.8061 49.5805 30.8448 49.6615 30.9056 49.7167C31.1822 49.9743 31.4627 50.2256 31.7429 50.4782C31.793 50.5235 31.848 50.5627 31.8981 50.6078C32.0068 50.7056 32.1658 50.8073 32.0231 50.9671C31.905 51.1 31.7706 50.9947 31.6707 50.9052C31.2326 50.5061 30.7897 50.1114 30.3679 49.6957C30.119 49.4503 29.9121 49.1634 29.6764 48.905C29.5052 48.7147 29.3227 48.5348 29.1299 48.3664C28.5418 47.8611 27.8622 47.703 27.1295 47.954C26.3404 48.2254 25.5742 48.562 24.7878 48.8437C24.257 49.033 23.7091 49.1753 23.1678 49.3331C23.1097 49.3503 23.0422 49.3356 22.8975 49.3356C23.0002 49.2527 23.0397 49.2038 23.0912 49.1833C24.2916 48.7022 25.4915 48.2196 26.6958 47.7484C26.9349 47.6569 27.1824 47.5887 27.4346 47.5447C28.2572 47.396 28.9506 47.6812 29.5423 48.2331C29.8073 48.4805 30.0308 48.7718 30.2858 49.0308C30.3618 49.1079 30.4816 49.1911 30.5798 49.1891C31.4693 49.1726 32.3586 49.1386 33.2482 49.1062C34.6264 49.0581 35.9845 48.8439 37.3374 48.5949C39.4597 48.2044 41.5694 47.7567 43.6035 47.0229C44.9085 46.553 46.1974 46.0368 47.4996 45.5581C47.9923 45.377 48.5001 45.2366 49.0054 45.0935C49.1875 45.0442 49.375 45.0176 49.5636 45.0141C50.1024 44.9989 50.384 45.2402 50.472 45.7794C50.4949 45.9207 50.4996 46.0649 50.5171 46.2534C50.6554 46.1506 50.7646 46.0774 50.8656 45.9945C52.1675 44.9254 53.4628 43.8511 54.8298 42.8609C55.7113 42.2222 56.5043 41.4607 57.3427 40.7604C58.2538 40.0009 59.1176 39.1687 60.0996 38.514C61.6344 37.4914 62.909 36.1592 64.3938 35.0869C65.1346 34.548 65.8341 33.9544 66.4862 33.3111C66.7352 33.0674 67.0275 32.8689 67.2961 32.6434C67.74 32.2714 68.1939 31.9102 68.6196 31.5185C69.4865 30.7217 70.4421 30.0432 71.4028 29.3694C71.6904 29.1674 71.7673 29.1599 72.0351 29.4169C72.3471 29.7137 72.6383 30.0316 72.9066 30.3682C73.415 31.0131 73.9089 31.6699 74.3881 32.3386C75.0542 33.2702 75.7017 34.2152 76.352 35.1576C76.5658 35.468 76.5495 35.5128 76.2397 35.7325C74.9872 36.6205 73.7268 37.498 72.4854 38.4012C71.3273 39.2439 70.2928 40.232 69.253 41.2131C67.1644 43.184 64.8396 44.8384 62.3854 46.3189C60.7009 47.3415 59.0045 48.3476 57.4757 49.5965C56.348 50.5171 55.2441 51.4668 54.1386 52.4137C50.9125 55.1754 47.689 57.9399 44.4681 60.707C44.1229 61.0033 43.7744 61.2954 43.4054 61.6082C43.523 61.7086 43.599 61.779 43.682 61.8432C44.7054 62.6474 45.8301 63.2823 46.9877 63.8657C47.1418 63.9455 47.3153 63.9801 47.4883 63.9655C48.0373 63.9304 48.5897 63.9044 49.1393 63.9229C50.9596 63.984 52.7769 64.015 54.5883 63.7615C55.1609 63.6811 55.7434 63.6678 56.3212 63.628C57.6389 63.5376 58.9578 63.4622 60.2741 63.358C62.4382 63.1866 64.6015 63.0194 66.7742 62.9946C67.7846 62.9832 68.7933 62.9205 69.8049 62.8824C70.8424 62.8431 71.8793 62.8108 72.9177 62.7668C74.3322 62.7071 75.7459 62.6242 77.1607 62.5803C77.9958 62.5546 78.8325 62.5955 79.6681 62.5855C80.7192 62.5728 81.7703 62.5391 82.8213 62.5137C82.9696 62.5101 83.1176 62.5001 83.2661 62.4971C83.6569 62.4893 83.777 62.5877 83.7955 62.9835C83.8398 63.9254 83.8804 64.8676 83.9039 65.8103C83.9261 66.6992 83.9252 67.5888 83.933 68.4779C83.9369 68.9116 83.9053 68.9522 83.4854 69.05C83.382 69.0744 83.2774 69.0956 83.1378 69.126C83.127 69.5857 83.1001 70.0395 83.1082 70.4927C83.1452 72.5808 83.2014 74.6686 83.2324 76.7566C83.2722 79.4098 83.307 82.0653 83.32 84.7199C83.3292 86.6057 83.32 88.4922 83.2808 90.3774C83.2329 92.7344 83.1328 95.0908 83.0819 97.448C83.0443 99.1992 83.0498 100.951 83.0346 102.703C83.0329 102.823 83.0418 102.948 83.0133 103.063C82.9516 103.312 82.7038 103.403 82.5658 103.205C82.4277 103.007 82.2654 103.019 82.0784 103.022C79.6349 103.062 77.208 103.317 74.7762 103.541C73.2734 103.679 71.7612 103.718 70.2543 103.814C68.4244 103.931 66.5941 104.051 64.7658 104.189C62.9375 104.328 61.113 104.507 59.2847 104.639C57.8599 104.743 56.4321 104.807 55.0052 104.88C53.888 104.938 52.7702 105.012 51.6522 105.029C50.3315 105.048 49.0096 105.014 47.6883 105.003C47.5829 105.001 47.4775 105.003 47.3328 105.003C47.376 105.121 47.4059 105.205 47.4369 105.288C47.5876 105.691 47.5273 105.985 47.1945 106.264C47.0381 106.391 46.8627 106.493 46.6748 106.565C45.7916 106.918 44.8609 107.075 43.924 107.201C42.7623 107.356 41.6006 107.518 40.4367 107.653C39.6207 107.748 38.7992 107.795 37.9813 107.877C37.5664 107.918 37.1557 107.998 36.7416 108.047C36.0335 108.13 35.3376 108.025 34.6602 107.839C32.383 107.215 30.0822 107.192 27.7607 107.505C27.3237 107.564 26.8725 107.647 26.4458 107.446C26.2555 107.356 26.0787 107.237 25.8397 107.099C25.1742 107.231 24.4769 107.107 23.8521 106.712C23.5307 106.508 23.1523 106.344 22.9014 105.926C23.2444 105.93 23.427 106.095 23.6167 106.23C23.9454 106.466 24.3148 106.641 24.7065 106.744C25.2943 106.897 25.8544 106.789 26.4128 106.599C26.5788 106.544 26.7566 106.419 26.9555 106.59C26.8725 106.93 26.4997 106.861 26.285 107.049C26.5893 107.256 26.9102 107.26 27.2316 107.229C27.8489 107.169 28.4638 107.084 29.082 107.037C30.9471 106.896 32.8009 106.938 34.6212 107.432C35.5713 107.69 36.5245 107.774 37.4995 107.556C38.4952 107.333 39.109 106.663 39.1394 105.724C39.1533 105.307 39.1837 104.89 39.1671 104.474C39.1394 103.787 39.0623 103.103 39.0313 102.417C38.9926 101.555 38.9392 100.691 38.9643 99.8299C38.9903 98.9427 38.6601 98.26 37.981 97.7244C37.7598 97.5492 37.5266 97.3861 37.2895 97.2338C36.449 96.6967 35.606 96.1638 34.7603 95.635C34.6143 95.5384 34.4604 95.4544 34.3001 95.384C34.0199 95.2674 33.7524 95.2782 33.5173 95.5402L33.5151 95.5366ZM54.9219 70.0544C55.0419 69.8684 55.1105 69.7366 55.2024 69.6235C56.5284 67.9923 57.8561 66.3626 59.1854 64.7344C59.3727 64.5047 59.5682 64.2811 59.7524 64.0492C59.8039 63.9848 59.8285 63.8991 59.8852 63.7831C59.6728 63.798 59.5126 63.8071 59.353 63.8212C58.8698 63.8632 58.3869 63.9381 57.9034 63.945C56.1624 63.9691 54.4351 64.1747 52.7008 64.2902C52.5102 64.3027 52.3885 64.3831 52.2674 64.5337C51.5759 65.3949 50.8757 66.2492 50.1669 67.0966C49.3426 68.0761 48.5018 69.0417 47.6703 70.0154C47.5801 70.121 47.5043 70.2396 47.3837 70.4057C48.0996 70.4057 48.7302 70.4212 49.3598 70.4018C50.1005 70.3786 50.8404 70.3228 51.5809 70.2882C51.6705 70.2841 51.762 70.3244 51.8893 70.3521C51.6887 70.5549 51.689 70.558 51.5598 70.5732C50.0446 70.7559 48.525 70.8153 46.9987 70.7846C45.7587 70.7597 44.5151 70.721 43.2782 70.7846C41.1921 70.8913 39.1098 71.0734 37.027 71.2249C36.465 71.2658 35.9032 71.3114 35.3033 71.3578C35.3348 71.6278 35.3741 71.8774 35.3918 72.1284C35.527 74.0492 35.6596 75.9704 35.7898 77.892C35.9079 79.6392 36.0388 81.3857 36.1317 83.1346C36.2423 85.26 36.3427 87.387 36.4044 89.5143C36.4465 90.968 36.4147 92.424 36.4155 93.8789V96.2201C36.6747 96.3804 36.9687 96.5423 37.2428 96.7366C37.7028 97.0636 38.1788 97.3778 38.5915 97.7592C39.0576 98.1895 39.3339 98.7409 39.3571 99.4012C39.4055 100.788 39.4644 102.174 39.5247 103.56C39.5416 103.943 39.5781 104.326 39.6091 104.758C40.157 104.758 40.6546 104.744 41.1511 104.765C41.3724 104.775 41.5727 104.762 41.7763 104.666C42.502 104.325 43.2699 104.123 44.0637 104.024C45.023 103.905 45.9465 103.996 46.7841 104.547C46.8947 104.62 47.0607 104.634 47.2034 104.635C47.9989 104.643 48.7945 104.644 49.5902 104.638C50.5879 104.631 51.5872 104.646 52.583 104.597C54.4677 104.502 56.3511 104.385 58.2331 104.246C60.0747 104.113 61.9135 103.94 63.7545 103.795C65.7436 103.638 67.7331 103.484 69.7238 103.348C71.0822 103.254 72.4442 103.212 73.8023 103.115C75.0392 103.026 76.2715 102.871 77.5087 102.787C79.0554 102.68 80.6047 102.617 82.1528 102.533C82.243 102.528 82.3323 102.511 82.449 102.496C82.4565 102.332 82.467 102.187 82.4687 102.041C82.4886 100.317 82.4947 98.5922 82.5301 96.8685C82.5655 95.1447 82.6194 93.4206 82.6852 91.6974C82.7696 89.4891 82.8377 87.2809 82.8092 85.0706C82.7834 83.0766 82.7793 81.0822 82.7616 79.0881C82.7535 78.2126 82.7401 77.3368 82.7215 76.4609C82.6703 74.1448 82.5373 71.8288 82.7251 69.5127C82.7345 69.3983 82.7151 69.2814 82.7079 69.1399C82.4866 69.1399 82.2997 69.1249 82.1152 69.1423C81.216 69.2272 80.3192 69.3441 79.4186 69.4057C77.8453 69.5135 76.2706 69.6232 74.6946 69.6691C72.6464 69.7288 70.5954 69.6968 68.5469 69.7598C65.8929 69.8427 63.2398 69.972 60.5872 70.097C59.5361 70.1462 58.4895 70.2376 57.4409 70.3101C56.0157 70.4083 54.5903 70.5058 53.1647 70.6027C53.0593 70.6096 52.945 70.6069 52.8488 70.5715C52.7888 70.5497 52.7293 70.4623 52.7169 70.3957C52.7086 70.3521 52.7747 70.2639 52.8253 70.2457C52.9389 70.2074 53.0571 70.1847 53.1768 70.1779C53.7671 70.1332 54.3579 70.095 54.9227 70.0552L54.9219 70.0544ZM35.3741 62.2826C34.8566 62.9459 34.3449 63.6289 33.5165 63.9472C33.6188 66.1442 33.5419 68.3077 33.6824 70.4811C33.7864 70.4709 33.8384 70.4673 33.8899 70.4604C35.1177 70.2929 36.3441 70.1127 37.5742 69.9607C39.4459 69.7294 41.3221 69.5334 43.1924 69.2919C44.3691 69.1404 45.5383 68.9235 46.648 68.4851C47.0192 68.3384 47.3884 68.1493 47.7049 67.9089C48.3812 67.3945 48.6627 66.3705 48.3897 65.618C48.2454 65.2062 47.9552 64.8616 47.5738 64.6492C47.082 64.3698 46.5761 64.1156 46.0818 63.8406C45.658 63.6048 45.2343 63.3677 44.8258 63.1073C44.4283 62.8539 44.03 62.5944 43.6696 62.2928C43.3092 61.9913 42.8204 61.8802 42.5173 61.4781C42.3618 61.2722 42.0952 61.1483 41.8755 60.9922C40.7921 60.2203 39.7529 59.3845 38.584 58.6982L36.7402 60.6569C37.3955 61.2288 37.487 61.6975 37.0785 62.216C36.66 62.7469 36.0971 62.7768 35.376 62.2834L35.3741 62.2826ZM75.0525 36.1681C75.0467 36.1363 75.0409 36.1045 75.0348 36.0724C74.5975 35.9431 74.1591 35.8179 73.7232 35.6836C71.5864 35.0247 69.4486 34.368 67.3157 33.697C67.0646 33.6179 66.8995 33.6461 66.7025 33.8249C66.2641 34.2235 65.8174 34.6159 65.3389 34.965C64.4895 35.5855 63.6563 36.2214 62.8772 36.9298C62.4393 37.3275 61.9602 37.6799 61.5005 38.0535C61.4339 38.1088 61.3705 38.1668 61.2566 38.2672L69.0973 40.7438C70.8753 38.9349 72.9122 37.4825 75.053 36.1681H75.0525ZM56.2499 49.9799C56.228 49.95 56.2067 49.9199 56.1848 49.8898C56.0974 49.8621 56.0117 49.8287 55.9224 49.8068C54.6237 49.5072 53.3196 49.2292 52.0273 48.9042C51.1928 48.6941 50.3718 48.428 49.5528 48.1624C49.2884 48.0767 49.0868 48.0535 48.8566 48.2541C48.601 48.4736 48.3229 48.6653 48.0268 48.8262C47.3196 49.2154 46.5979 49.5788 45.884 49.9564C45.7316 50.0371 45.5751 50.1183 45.4415 50.2269C45.2451 50.3881 45.0791 50.5862 44.8819 50.746C44.2228 51.2802 43.5542 51.8034 42.8904 52.3335C42.8129 52.3957 42.7488 52.4747 42.6312 52.5933C43.4569 52.8097 44.2153 53.0355 44.9862 53.2055C46.8671 53.6178 48.7543 53.9976 50.6352 54.4072C50.8871 54.4625 51.0526 54.4265 51.2464 54.2563C52.8256 52.8701 54.4115 51.4916 56.004 50.1205C56.0742 50.06 56.1666 50.0255 56.2487 49.9785L56.2499 49.9799ZM70.4408 69.251C70.662 69.2609 70.8034 69.2736 70.9453 69.2722C72.2525 69.2593 73.56 69.2521 74.8674 69.2261C75.7163 69.2092 76.5644 69.1639 77.4122 69.1313C77.6027 69.1241 77.7717 69.1014 77.9172 68.9378C78.5789 68.1916 79.2853 67.4841 79.9182 66.7155C80.8862 65.5406 81.8068 64.3273 82.7455 63.1286C82.7732 63.0935 82.7782 63.041 82.7992 62.9813C82.6623 62.9813 82.5547 62.973 82.4488 62.9813C81.3042 63.0827 80.1599 63.0228 79.0139 63.0042C77.8022 62.9849 76.5887 63.0462 75.3764 63.0772C75.1623 63.0825 74.9549 63.0932 74.8287 63.3326C74.3308 64.2817 73.6217 65.0807 72.9622 65.9153C72.1944 66.8876 71.4476 67.8763 70.6941 68.8596C70.6161 68.9613 70.5539 69.0755 70.4408 69.251ZM65.8866 43.3785L64.4646 42.9916C62.3071 42.4065 60.1167 41.9444 58.0198 41.1487C57.7294 41.0382 57.5247 41.0885 57.2918 41.2869C56.2327 42.1818 55.2018 43.111 54.0495 43.8932C53.5265 44.248 53.038 44.6537 52.5357 45.039C52.4635 45.0943 52.4026 45.1639 52.297 45.2651C52.5459 45.3331 52.7487 45.3884 52.9514 45.4453C55.0773 46.0406 57.2177 46.589 59.2911 47.357C59.4899 47.4308 59.6432 47.4209 59.8166 47.3017C60.0606 47.1359 60.3194 46.9886 60.5731 46.8358C62.2343 45.8342 63.8981 44.837 65.4664 43.6914C65.5829 43.6063 65.6976 43.5189 65.8854 43.3785H65.8866ZM59.0709 69.7219L66.3712 69.3988C66.5294 69.1689 66.6428 69.0025 66.7584 68.8369C67.6897 67.4943 68.7776 66.2774 69.8206 65.0229C70.2159 64.5481 70.555 64.0263 70.9143 63.5219C70.9619 63.4553 70.9754 63.3646 71.0144 63.2588C70.8092 63.2588 70.6485 63.2533 70.4889 63.2588C69.5189 63.2961 68.5491 63.3417 67.5791 63.374C66.5003 63.4083 65.4216 63.4373 64.3442 63.4498C64.0798 63.4528 63.928 63.5487 63.7977 63.772C63.6491 64.026 63.4613 64.259 63.2763 64.4906C62.0867 65.9716 60.895 67.4512 59.701 68.9293C59.5096 69.1669 59.3215 69.4077 59.0728 69.7208L59.0709 69.7219ZM13.7568 65.2998C13.754 65.3261 13.7507 65.3524 13.7476 65.3786C13.993 65.4472 14.2455 65.4999 14.4823 65.5878C15.5693 65.988 16.6543 66.3934 17.7373 66.8039C19.2766 67.3843 20.8629 67.6137 22.5006 67.4352C23.1031 67.3694 23.69 67.2265 24.2183 66.8893C24.2509 66.0806 24.2117 65.2896 24.059 64.5066C24.04 64.417 23.9935 64.3356 23.9259 64.2736C23.3055 63.7388 22.9116 63.0595 22.6328 62.302C22.4896 61.9131 22.0702 61.8291 21.7322 62.0839C21.2164 62.473 20.7 62.8658 20.1534 63.209C18.6728 64.1388 17.0425 64.6816 15.3306 64.998C14.8051 65.095 14.2815 65.1987 13.757 65.2993L13.7568 65.2998ZM38.6369 107.468C38.8305 107.468 38.9046 107.475 38.9779 107.466C39.3389 107.429 39.7009 107.395 40.0605 107.345C41.3932 107.163 42.7278 106.993 44.056 106.784C44.7718 106.671 45.4783 106.496 46.1839 106.327C46.4024 106.275 46.6162 106.173 46.8112 106.057C47.1517 105.855 47.2134 105.554 46.9647 105.242C46.8195 105.067 46.6453 104.917 46.4497 104.8C45.6846 104.332 44.8418 104.308 43.9866 104.426C43.2389 104.53 42.5105 104.743 41.8244 105.058C41.6822 105.123 41.4615 105.224 41.3755 105.166C41.0922 104.972 40.8059 105.073 40.5219 105.074C40.2176 105.076 39.9134 105.1 39.6063 105.115C39.5662 106.011 39.4279 106.823 38.6369 107.467V107.468ZM43.0378 53.1336C42.8027 53.0634 42.5953 53.0106 42.3928 52.9377C42.2628 52.8907 42.1682 52.9186 42.0584 52.9929C41.8139 53.1588 41.6612 53.363 41.6095 53.6704C41.4822 54.4262 41.3107 55.1744 41.1785 55.9298C40.9816 57.0557 40.8098 58.1864 40.6112 59.3118C40.5714 59.536 40.6239 59.66 40.8176 59.7709C41.0269 59.8908 41.2125 60.0514 41.4147 60.1854C41.553 60.2766 41.6651 60.4212 41.8869 60.4389C42.1535 57.9888 42.8752 55.6293 43.0378 53.1339V53.1336ZM42.941 61.2943C43.2992 61.1414 43.4024 60.8866 43.4411 60.5273C43.6804 58.321 43.9487 56.118 44.2059 53.9133C44.2225 53.7693 44.2253 53.6236 44.2363 53.4479L43.2865 53.2024C43.2674 53.3207 43.2516 53.386 43.2472 53.4512C43.1722 54.5807 42.9814 55.6926 42.7728 56.8039C42.5494 57.9924 42.3651 59.1896 42.1488 60.3803C42.106 60.6166 42.1649 60.7598 42.3632 60.8825C42.5676 61.0091 42.7565 61.1608 42.941 61.2937V61.2943ZM43.7039 60.5879C43.7315 60.6017 43.7592 60.6155 43.7868 60.6299C44.1224 60.3482 44.4601 60.0691 44.7912 59.7822C44.8354 59.7438 44.8628 59.6717 44.8714 59.6092C44.982 58.8106 45.0906 58.0118 45.1972 57.2127C45.3263 56.2262 45.4524 55.2395 45.5756 54.2527C45.595 54.0971 45.5997 53.9398 45.6124 53.7687L44.4847 53.5266C44.2391 55.9068 43.8826 58.2378 43.7047 60.5879H43.7039ZM45.8909 53.8166C45.6558 55.6984 45.4282 57.5247 45.1875 59.4505C45.6647 59.0501 46.0605 58.7107 46.4646 58.3812C46.6306 58.2461 46.7254 58.0921 46.7487 57.8733C46.8449 56.964 46.9553 56.0561 47.0585 55.1476C47.0977 54.8038 47.1326 54.4594 47.1738 54.0769L45.8909 53.8166ZM40.2821 59.3657L41.3503 53.5562C40.9877 53.8088 40.6458 54.0407 40.3125 54.2847C40.2509 54.3365 40.2102 54.4089 40.198 54.4884C40.1346 54.9403 40.0851 55.3936 40.0268 55.846C39.9806 56.2036 39.9897 56.5842 39.8644 56.9128C39.6556 57.4603 39.5825 58.0322 39.4556 58.594C39.4365 58.6792 39.4736 58.8237 39.5386 58.8724C39.7681 59.0509 40.0215 59.1982 40.2821 59.3674V59.3657ZM44.0549 50.9546L44.0115 50.8869C42.2019 51.7437 40.4751 52.7544 38.6839 53.6944L39.6052 54.5039C41.0989 53.3133 42.5767 52.134 44.0549 50.9546ZM71.7164 34.638C71.7317 34.4244 71.7441 34.2787 71.7518 34.1312C71.7914 33.2832 71.8271 32.4353 71.8694 31.5885C71.893 31.1179 71.9225 30.6474 71.9579 30.177C71.972 29.9835 71.9341 29.8332 71.7225 29.7475C71.66 29.7851 71.5942 29.8304 71.5236 29.8655C71.2697 29.991 71.1746 30.1737 71.1746 30.4736C71.1746 31.2676 71.1193 32.0616 71.0977 32.8557C71.0847 33.378 71.0952 33.9007 71.0952 34.4457L71.7164 34.6391V34.638ZM47.4255 54.128L47.0535 57.7782L47.1201 57.8249C47.4006 57.5828 47.6886 57.3484 47.9569 57.0936C48.0246 57.0292 48.0492 56.9015 48.0609 56.7987C48.1532 55.9867 48.2376 55.1736 48.3303 54.3055L47.4255 54.128ZM54.3239 46.2236C54.3515 47.1818 54.2877 48.0927 54.4102 49.0355L55.3539 49.2411V46.5204L54.3239 46.2236ZM83.5433 68.6819C83.4713 68.4788 83.4545 68.3406 83.3828 68.2422C82.7497 67.3724 82.1069 66.5096 81.4657 65.6442C81.4436 65.6149 81.4065 65.597 81.344 65.5486L80.9244 66.0928C81.2967 66.6839 81.6458 67.2403 81.9968 67.7956C82.1481 68.0343 82.2944 68.2773 82.4615 68.5045C82.5259 68.5921 82.6368 68.6902 82.7345 68.6979C82.9704 68.7192 83.2113 68.691 83.5433 68.6794V68.6819ZM70.9696 30.3757L70.8706 30.3285C70.6872 30.4578 70.5066 30.5907 70.3199 30.7154C70.1716 30.8141 70.1177 30.9404 70.1169 31.1214C70.1146 31.6189 70.0851 32.1164 70.0776 32.6119C70.0701 33.1074 70.0759 33.5986 70.0759 34.1115L70.7547 34.3161C70.8283 32.9701 70.8991 31.6728 70.9696 30.376V30.3757ZM53.1367 45.893V48.7563L54.065 48.9498V46.1421C53.7563 46.0591 53.4634 45.9804 53.1367 45.8933V45.893ZM61.2173 41.6921C61.2173 41.1946 61.2217 40.7129 61.2156 40.2306C61.2101 39.7734 61.1999 39.316 61.1766 38.8597C61.1728 38.784 61.1078 38.6864 61.0417 38.6436C60.7733 38.4692 60.3313 38.7238 60.3255 39.0626C60.3153 39.6405 60.3203 40.219 60.3272 40.7971C60.3366 41.5834 60.3402 41.5834 61.1332 41.7109C61.1456 41.7128 61.1595 41.7053 61.2162 41.6921H61.2173ZM51.9977 48.4852L52.8413 48.68V45.8394L51.9302 45.5473C51.9526 46.5243 51.9745 47.4772 51.9977 48.4846V48.4852ZM58.9957 65.5585L58.3479 66.3379L59.9228 68.0001L60.5908 67.1234L58.9957 65.5585ZM81.4881 65.3609L83.4025 67.8796C83.4791 67.3804 83.4807 66.9037 83.4766 66.4269C83.4725 66.3734 83.4533 66.3221 83.4213 66.2791C83.0189 65.6846 82.5103 65.1693 81.921 64.759L81.4878 65.3615L81.4881 65.3609ZM62.5342 39.088V42.0779C62.6907 42.1229 62.818 42.1641 62.9474 42.1956C63.0838 42.2288 63.2226 42.2526 63.408 42.2899C63.3789 41.2814 63.3513 40.3312 63.3228 39.3547C63.0589 39.2646 62.8108 39.1809 62.5339 39.0875L62.5342 39.088ZM72.2807 30.3392L72.175 30.3553C72.1225 31.8126 72.0705 33.27 72.0174 34.7392L72.5722 34.913C72.5905 34.7577 72.611 34.6425 72.617 34.5261C72.674 33.4383 72.7321 32.3507 72.7786 31.2626C72.7821 31.1305 72.749 31.0001 72.6829 30.8856C72.567 30.6922 72.4165 30.52 72.2804 30.3387L72.2807 30.3392ZM56.4933 49.5694C56.5193 48.6955 56.5486 47.8766 56.5624 47.0574C56.5641 46.9845 56.491 46.867 56.4266 46.8441C56.1777 46.7545 55.9157 46.6948 55.6433 46.6196V49.3226L56.4933 49.5694ZM65.6586 42.8963C65.6183 41.9159 65.5804 40.9948 65.5419 40.0647C65.2946 39.9882 65.0908 39.9224 64.8847 39.8641C64.836 39.8503 64.7802 39.8622 64.7008 39.8622C64.6502 40.8135 64.7821 41.7435 64.8427 42.6964L65.6586 42.8963ZM51.0124 65.5759C50.5002 65.1614 50.0424 64.7899 49.583 64.4207C49.5221 64.3718 49.4544 64.3027 49.3858 64.2977C48.98 64.2676 48.5731 64.2537 48.1665 64.2347C48.8492 64.9903 49.5542 65.6754 50.4119 66.2564L51.0124 65.5757V65.5759ZM64.3891 39.7135C64.2701 39.6748 64.1443 39.6306 64.0159 39.5935C63.8948 39.5584 63.7711 39.5319 63.6118 39.4924C63.6345 40.4815 63.6558 41.4138 63.6779 42.375L64.5307 42.5892C64.4823 41.6056 64.4369 40.6858 64.3891 39.7148V39.7135ZM62.2349 41.9925V39.0076C61.9909 38.899 61.7553 38.7865 61.4433 38.8194C61.4731 39.8287 61.5025 40.8173 61.5323 41.8319L62.2349 41.9928V41.9925ZM59.9195 64.4132L61.5428 65.9549L62.1956 65.1489C61.7083 64.6772 61.2579 64.2333 60.7974 63.801C60.6483 63.6612 60.4309 63.6905 60.3034 63.8563C60.1723 64.0263 60.0583 64.2098 59.9195 64.4127V64.4132ZM57.5634 67.3127L59.1998 68.9585L59.7627 68.2082C59.2178 67.659 58.734 67.0877 58.1163 66.6082C57.9034 66.8816 57.7136 67.1209 57.5634 67.3133V67.3127ZM58.981 69.1954C58.4718 68.5907 57.9639 68.0518 57.3618 67.5678L56.7275 68.3842C57.2207 68.8392 57.692 69.2745 58.1642 69.7089C58.3102 69.8432 58.4566 69.8291 58.5827 69.6871C58.7149 69.5387 58.8336 69.3787 58.981 69.1954ZM73.1005 31.5224L72.9935 31.5487C72.9523 32.6984 72.9105 33.8484 72.869 35.0205L73.5544 35.2099C73.5746 35.1347 73.5932 35.0965 73.594 35.0581C73.6111 34.1834 73.6291 33.3084 73.6374 32.4325C73.6373 32.3258 73.6069 32.2214 73.5497 32.1313C73.4114 31.9207 73.2518 31.7239 73.1005 31.5216V31.5224ZM61.3954 66.1326L59.8019 64.6086L59.1597 65.3825L60.7473 66.9189L61.3954 66.1326ZM48.3139 56.6804L48.4177 56.7216C48.728 56.4499 49.042 56.1821 49.3459 55.9038C49.415 55.8417 49.4619 55.7587 49.4793 55.6675C49.5249 55.3123 49.5512 54.9544 49.5874 54.5686L48.5582 54.3616C48.4724 55.1741 48.3922 55.9281 48.3139 56.6832V56.6804ZM70.6786 64.5199C71.2387 65.0746 71.7682 65.5978 72.3142 66.1387L72.8159 65.5525C72.2879 64.94 71.7662 64.3707 71.0637 63.9589L70.6786 64.5199ZM70.5771 64.6957L70.1052 65.299C70.555 65.9129 71.1206 66.3819 71.6976 66.8744L72.1717 66.3034L70.5777 64.6954L70.5771 64.6957ZM65.8196 40.1507C65.8622 41.1335 65.9012 42.0392 65.9405 42.9374C66.3944 43.1364 66.5673 43.035 66.5521 42.5873C66.5305 41.9447 66.5034 41.3021 66.4771 40.6595C66.4729 40.5556 66.4599 40.4522 66.4494 40.3259L65.8196 40.1507ZM70.3835 68.6341L68.7751 66.8539L68.3259 67.4067C68.808 68.0764 69.3911 68.6164 70.0408 69.1338L70.3824 68.6363L70.3835 68.6341ZM71.4741 67.1416L69.856 65.5798L69.4688 66.0422L71.059 67.6662L71.4739 67.1411L71.4741 67.1416ZM56.7748 49.4697C57.096 49.2237 57.333 49.049 57.5595 48.8616C57.6149 48.8163 57.668 48.7298 57.668 48.6621C57.668 48.1704 57.6539 47.6784 57.6439 47.1796L56.8476 46.9543C56.8232 47.797 56.8006 48.5814 56.7748 49.4694V49.4697ZM70.9303 67.8519C70.3948 67.2743 69.9714 66.6588 69.2934 66.2417C69.1551 66.4076 69.0257 66.5635 68.9029 66.7116L70.5 68.4423C70.6479 68.2391 70.7799 68.0589 70.9303 67.8528V67.8519ZM82.3334 68.7148C81.7011 67.9147 81.4154 67.0117 80.7609 66.2976L80.392 66.7652C80.7958 67.4454 81.1767 68.0874 81.5694 68.7488L82.3334 68.7148ZM45.2194 69.4057C45.4821 69.7241 45.7098 70.0008 45.9385 70.2758C45.9631 70.3054 45.9999 70.3421 46.0334 70.3443C46.2865 70.3615 46.5504 70.4184 46.7888 70.365C46.9428 70.3305 47.0596 70.1304 47.2134 69.9853L46.479 69.0282L45.2183 69.4057H45.2194ZM51.0664 46.1725V48.2359L51.6813 48.389V45.7507L51.0664 46.1725ZM69.7628 34.006C69.7991 33.0207 69.8331 32.092 69.8704 31.0783C69.6798 31.2278 69.559 31.3287 69.4323 31.421C69.2436 31.5592 69.1659 31.72 69.1811 31.9696C69.2107 32.4671 69.1897 32.9646 69.193 33.462C69.195 33.5919 69.2088 33.7216 69.2171 33.8531L69.7628 34.006ZM72.996 65.3559L73.4203 64.8062L71.5236 63.2502C71.421 63.4078 71.3143 63.5719 71.2224 63.7134L72.996 65.3559ZM74.5386 35.4757C74.5386 34.9266 74.5004 34.402 74.5494 33.8857C74.6008 33.341 74.2692 33.0447 73.9096 32.6315V35.3232C74.0578 35.3768 74.1953 35.429 74.335 35.4744C74.3707 35.4849 74.4133 35.4749 74.5386 35.4749V35.4757ZM60.0254 39.0933C59.7936 39.2914 59.608 39.4437 59.4318 39.6057C59.3829 39.6503 59.3522 39.7114 59.3455 39.7773C59.3384 40.2447 59.3417 40.7123 59.3417 41.196L60.0257 41.3963V39.0933H60.0254ZM69.8408 69.2861C69.2467 68.6811 68.7247 68.1501 68.1812 67.5985C68.0562 67.7643 67.9221 67.9409 67.7743 68.1366C68.1751 68.5078 68.5552 68.8627 68.9402 69.2123C68.9908 69.2547 69.0538 69.2795 69.1197 69.283C69.3297 69.2913 69.5402 69.2861 69.8389 69.2861H69.8408ZM33.2545 57.457L31.4566 56.3847L31.416 56.4372C31.7202 57.0281 32.0245 57.619 32.3354 58.2265L33.2551 57.457H33.2545ZM56.5926 68.5288C56.3928 68.7844 56.2216 69.0028 56.0546 69.2167C56.5641 69.7728 57.1294 70.0389 57.9011 69.7744L56.5926 68.5288ZM71.961 63.2223C71.9493 63.2588 71.9372 63.2953 71.9255 63.3315L73.5708 64.6398C73.6974 64.474 73.8003 64.3391 73.9256 64.1755C73.5829 63.8571 73.2618 63.5553 72.9357 63.2607C72.8838 63.2187 72.8191 63.1957 72.7523 63.1955C72.4884 63.1985 72.2248 63.2129 71.961 63.2231V63.2223ZM67.4341 42.192V40.6211L66.7736 40.4276C66.7631 41.1722 66.8275 41.8648 66.8912 42.626C67.1271 42.4386 67.3019 42.2984 67.4341 42.1929V42.192ZM62.3555 64.969C62.5439 64.7526 62.6979 64.5755 62.8495 64.4019C62.6061 64.1504 62.3942 63.929 62.1785 63.7109C62.1428 63.675 62.0902 63.6311 62.0463 63.6319C61.7257 63.6377 61.3971 63.6023 61.0488 63.7541L62.3555 64.9685V64.969ZM81.2544 68.7701C81.138 68.3245 80.4647 67.2223 80.174 67.0153L79.8092 67.4539C79.9414 67.6341 80.0534 67.7682 80.1444 67.9155C80.2426 68.075 80.3203 68.2472 80.4094 68.413C80.6617 68.8801 80.6622 68.8801 81.1811 68.8016C81.2068 68.7943 81.2314 68.7837 81.2544 68.7701ZM51.1427 65.4259C51.4332 65.0666 51.6976 64.7404 51.9615 64.414L51.9189 64.3339C51.2785 64.3615 50.6374 64.2982 49.8997 64.3568L51.1424 65.4259H51.1427ZM83.4813 65.8988C83.4813 65.6461 83.4877 65.446 83.478 65.2465C83.4738 65.1564 83.4644 65.0442 83.4108 64.9826C83.1253 64.6537 82.8247 64.3375 82.5052 63.9906C82.3392 64.2098 82.2059 64.387 82.0665 64.571L83.4813 65.8976V65.8988ZM35.6192 61.9786C35.9005 62.2876 36.2451 62.3669 36.5447 62.2179C36.9958 61.9935 37.0912 61.386 36.7175 61.1124C36.5864 61.0168 36.4481 60.9704 36.3242 61.1185C36.0836 61.4054 35.8507 61.6956 35.6192 61.9786ZM68.9106 33.7105C68.9908 33.2832 68.9781 32.2418 68.8935 31.9577C68.4581 32.1987 68.1884 32.5063 68.2518 33.0663C68.3112 33.5944 68.2686 33.5997 68.803 33.7191C68.8274 33.7243 68.8547 33.716 68.9106 33.7105ZM48.7095 65.1956C48.7952 65.5403 48.8754 65.8617 48.9559 66.182C48.962 66.2222 48.9781 66.2602 49.0027 66.2926C49.243 66.5366 49.4867 66.7771 49.7467 67.0361C49.9304 66.8224 50.0856 66.6422 50.2485 66.4532L48.7095 65.1956ZM43.879 69.6454C44.1049 69.8916 44.2894 70.0972 44.4808 70.2962C44.5205 70.3312 44.5715 70.3508 44.6244 70.3515C44.9513 70.3562 45.2788 70.3543 45.6705 70.3543C45.4282 70.0129 45.231 69.7344 45.0166 69.4323L43.879 69.6451V69.6454ZM50.7663 48.1323V46.4217C50.202 46.6456 50.0471 47.0447 50.1644 47.9418L50.7663 48.1323ZM75.2696 35.7939C75.4812 34.8854 75.3728 34.4518 74.8199 33.9662V35.6278C74.9684 35.6825 75.1062 35.7336 75.2691 35.7936L75.2696 35.7939ZM57.9733 48.5482L59.1826 47.6881L57.9454 47.281C57.9352 47.3888 57.9241 47.441 57.9263 47.4924C57.9382 47.8139 57.954 48.1356 57.9728 48.5479L57.9733 48.5482ZM79.6675 67.6554C79.6123 67.6986 79.5594 67.7448 79.5091 67.7936C79.42 67.8906 79.3362 67.9921 79.2446 68.0976C79.3697 68.2729 79.4902 68.4293 79.5987 68.5951C79.8545 68.9848 79.9129 69.0042 80.3914 68.8074C80.1356 68.437 80.0318 67.9804 79.6675 67.6532V67.6554ZM44.1489 70.3443C43.9528 70.1122 43.8142 69.9383 43.6635 69.7758C43.6406 69.7527 43.6133 69.7346 43.5831 69.7225C43.5529 69.7104 43.5206 69.7047 43.4881 69.7056C43.1902 69.7457 42.8943 69.8004 42.5831 69.8524C42.7587 70.2868 43.0008 70.4999 43.4569 70.3847C43.6461 70.3366 43.8527 70.3587 44.1484 70.3443H44.1489ZM59.0944 41.1128C59.1099 40.6775 59.124 40.3174 59.0922 39.8818L58.0231 40.7386L59.0944 41.1125V41.1128ZM49.5656 67.2262L48.9507 66.6212C48.8165 66.9764 48.7045 67.2737 48.5939 67.5664L48.9258 67.9337L49.5656 67.2262ZM46.6975 68.9644C46.9406 69.2457 47.1453 69.4831 47.3829 69.7578C47.5489 69.5514 47.685 69.3803 47.8241 69.2065L47.4734 68.6399C47.2194 68.7457 46.9901 68.8419 46.6975 68.9644ZM74.59 63.1504C74.0866 63.1535 73.6772 63.1358 73.1877 63.1983L74.0706 64.0216C74.2468 63.7253 74.3981 63.471 74.59 63.1504ZM68.662 69.2333C68.3002 68.9033 67.9818 68.6134 67.6435 68.3055L67.3589 68.7057C67.6311 69.2383 68.0172 69.4483 68.662 69.2324V69.2333ZM82.9884 63.3873C82.8758 63.5327 82.7671 63.675 82.6457 63.8312C82.9109 64.1205 83.1391 64.4052 83.4478 64.6667C83.5275 63.8967 83.5275 63.8967 82.9884 63.3862V63.3873ZM42.6113 70.4145L42.2465 69.8963L41.1865 70.0359C41.5279 70.7075 42.0625 70.4278 42.6113 70.4145ZM48.4475 67.8213L47.6814 68.5332L48.0069 68.9879L48.741 68.1474L48.4475 67.8213ZM41.238 70.5021C41.0211 70.323 41.0023 70.0663 40.7368 70.0876C40.4854 70.108 40.2348 70.1406 39.9662 70.1705C40.0973 70.4958 40.2981 70.6102 40.6093 70.5552C40.7794 70.5237 40.9542 70.5231 41.2383 70.5005L41.238 70.5021ZM63.0155 64.2347L63.5454 63.5081L62.4412 63.5852C62.4346 63.6128 62.4282 63.6405 62.4219 63.6681C62.6019 63.8392 62.7823 64.0111 63.0157 64.233L63.0155 64.2347ZM68.1348 40.8452L67.6905 40.7134C67.7232 41.1178 67.7514 41.4641 67.781 41.8314C68.2504 41.5555 68.2584 41.5323 68.135 40.8436L68.1348 40.8452ZM39.8027 70.5701C39.8152 70.54 39.8276 70.5101 39.8403 70.4803C39.7333 70.3894 39.6274 70.2233 39.5187 70.2213C39.2066 70.2158 38.8935 70.2766 38.5561 70.3147C38.6493 70.5218 38.7528 70.6414 38.9359 70.634C39.2252 70.6215 39.5137 70.592 39.8027 70.5701ZM49.8101 54.6103C49.7924 54.9348 49.7785 55.1885 49.7595 55.539C50.0878 55.2526 50.3403 55.034 50.6512 54.762C50.3284 54.7037 50.098 54.6623 49.8101 54.6103ZM68.0435 32.6536L67.3337 33.2846L68.0435 33.49V32.6536ZM55.9027 69.4005L55.4272 70.0207L56.5497 69.9129L55.9027 69.4005ZM36.1607 70.5712C36.4589 70.8902 36.8298 70.917 37.2948 70.7116C36.9687 70.286 36.5903 70.5795 36.1607 70.5712ZM37.4392 70.4507C37.6845 70.8053 37.8875 70.8377 38.4134 70.6232C38.2651 70.2702 38.1796 70.3164 37.4389 70.4507H37.4392ZM78.7965 68.5783C79.009 69.0373 79.0455 69.0542 79.5157 68.8997C79.3774 68.6883 79.2432 68.4851 79.0884 68.2513C78.9622 68.3931 78.8762 68.4895 78.7968 68.5783H78.7965ZM35.1323 70.8197C35.4781 70.9394 35.6449 70.9424 36.0811 70.8399C35.9821 70.7553 35.9088 70.6412 35.8418 70.6464C35.615 70.6591 35.3655 70.6138 35.1323 70.8211V70.8197ZM67.2256 68.9337C67.0845 69.0531 66.9634 69.1562 66.9553 69.3864L67.5445 69.2993C67.4065 69.141 67.3227 69.0445 67.2256 68.9337ZM39.1726 58.633C39.2172 58.4064 39.2556 58.2143 39.2929 58.0222L39.2224 57.986C39.0941 58.1424 38.9657 58.2986 38.8119 58.4854L39.1726 58.633ZM83.4625 63.5006C83.4506 63.2853 83.4406 63.1048 83.429 62.8868C83.0537 63.1596 83.06 63.2427 83.4625 63.5006ZM75.9556 35.5034L75.6328 35.0761V35.7571L75.9556 35.5034ZM49.5091 47.7373L49.8748 47.8374C49.942 47.6784 49.9788 47.5516 49.8673 47.3692L49.5091 47.7373ZM78.4004 69.0246H78.7755C78.7091 68.9218 78.6676 68.8588 78.6096 68.7676C78.5302 68.8651 78.4768 68.9312 78.4004 69.0246ZM68.4805 40.9047C68.493 41.0246 68.5013 41.1039 68.5212 41.2977L68.8254 40.9989L68.4805 40.9047Z" fill="white"/>
<path d="M82.9686 60.7912C83.6576 60.1874 86.0524 60.2996 87.4653 60.9264C88.9285 61.5756 90.0653 62.5866 90.8802 63.9975C90.8763 63.9174 90.8738 63.837 90.8677 63.7574C90.7939 62.8143 90.7466 61.87 90.9961 60.9452C91.5681 58.8223 92.877 57.4139 95.0344 56.8457C95.2031 56.8012 95.3716 56.7561 95.5398 56.7094C95.5483 56.7069 95.5525 56.6876 95.576 56.6442C95.4778 56.5933 95.3799 56.5375 95.2778 56.4905C92.4311 55.1763 90.3596 53.0698 89.0289 50.2559C88.3026 48.7207 88.2176 47.1135 88.8759 45.5108C89.352 44.3522 90.1986 43.5645 91.3465 43.0867C91.5056 43.0203 91.6655 42.9557 91.8262 42.8122C91.6901 42.797 91.554 42.7785 91.4173 42.7669C90.1757 42.661 88.9556 42.4474 87.8063 41.9483C87.3146 41.7346 86.8269 41.4875 86.3857 41.1854C85.1092 40.3115 84.4495 39.0463 84.21 37.5469C84.0324 36.437 84.1915 35.3743 84.717 34.373C84.7339 34.3367 84.747 34.2987 84.756 34.2597C84.7585 34.2497 84.7472 34.2362 84.7283 34.1872C84.6349 34.2599 84.545 34.3254 84.4603 34.3965C83.7179 35.0233 82.9667 35.6415 82.0943 36.0824C81.2587 36.5036 80.3855 36.8175 79.4243 36.7761C79.1513 36.7642 78.8988 36.7114 78.7234 36.4538C79.224 36.6152 79.7277 36.5823 80.209 36.4505C81.0017 36.233 81.7768 35.9547 82.4741 35.5006C83.3194 34.9448 84.1083 34.3077 84.8296 33.5986C85.0323 33.4012 85.2376 33.2061 85.4508 33.0204C85.5598 32.9253 85.6956 32.8023 85.8397 32.9399C85.9667 33.0613 85.85 33.1903 85.7827 33.3006C85.6287 33.5535 85.4561 33.7956 85.3081 34.0518C84.1539 36.0489 84.322 37.9927 85.593 39.8632C86.1324 40.6573 86.9439 41.1252 87.8091 41.4991C89.0237 42.0243 90.3074 42.2572 91.6148 42.3686C92.2051 42.4186 92.8001 42.4087 93.3928 42.4294C93.5496 42.4352 93.7344 42.4054 93.798 42.6088C93.8404 42.7437 93.7054 42.8443 93.4368 42.9084C92.9522 43.0242 92.4629 43.1234 91.9863 43.2677C90.0532 43.8481 89.0118 45.264 88.8801 47.336C88.8079 48.4669 89.0618 49.5335 89.5946 50.5282C91.1051 53.3472 93.3115 55.3855 96.3436 56.4855C96.5452 56.5591 96.7585 56.6041 96.9659 56.6594C97.0898 56.6923 97.2149 56.737 97.1847 56.8924C97.1571 57.0306 97.0359 57.0831 96.9015 57.0582C96.2567 56.9341 95.6377 57.0858 95.0286 57.2541C92.9633 57.8229 91.7706 59.2164 91.3258 61.2727C91.0973 62.3274 91.1875 63.3923 91.3615 64.4466C91.4536 65.0041 91.5902 65.5538 91.6998 66.1085C91.7321 66.2721 91.8248 66.4626 91.6193 66.5806C91.4973 66.6508 91.393 66.5217 91.3006 66.205C91.0503 65.3468 90.7021 64.5307 90.2241 63.7748C89.0604 61.9344 87.3643 60.9692 85.2113 60.8004C84.623 60.7542 84.0277 60.7943 83.4358 60.7946L82.9686 60.7912Z" fill="white"/>
<path d="M80.0169 48.6053C79.943 48.4845 79.8747 48.3596 79.7939 48.2435C79.072 47.2038 78.341 46.1706 77.6262 45.1254C76.9942 44.2012 76.4266 43.2388 75.9996 42.2002C75.9381 42.0509 75.8657 41.9006 75.8422 41.7442C75.83 41.6612 75.8939 41.5161 75.9594 41.4899C76.025 41.4636 76.165 41.5214 76.2266 41.5855C76.3066 41.6684 76.3489 41.7928 76.3951 41.9045C76.9657 43.2828 77.7811 44.5187 78.6201 45.7412C79.1077 46.4517 79.6009 47.159 80.0772 47.8776C80.2473 48.1343 80.3704 48.4218 80.5233 48.6904C80.632 48.8822 80.5869 49.0461 80.4727 49.2155C80.3817 49.3512 80.2711 49.3877 80.1283 49.3208C80.0313 49.2752 79.9391 49.218 79.8468 49.163C78.6675 48.4577 77.4884 47.7523 76.3093 47.0468C76.264 47.0191 76.215 46.9984 76.0986 46.9393C76.1611 47.0714 76.1854 47.1518 76.2316 47.2156C76.9342 48.1868 77.6385 49.1567 78.3446 50.1254C78.3999 50.2014 78.4829 50.2721 78.5006 50.3564C78.5172 50.4327 78.4898 50.5554 78.4347 50.6005C78.3838 50.6422 78.2533 50.638 78.1891 50.6005C78.1012 50.5488 78.0348 50.4523 77.9728 50.3655C77.3449 49.49 76.7188 48.6133 76.0944 47.7355C75.7589 47.264 75.4262 46.7906 75.0912 46.3185C75.068 46.2859 75.0193 46.2599 75.0157 46.2273C75.0077 46.1546 74.9944 46.0554 75.0331 46.0126C75.0718 45.9697 75.1861 45.965 75.24 45.994C75.6787 46.2298 76.1119 46.4749 76.5439 46.7226C77.6765 47.3715 78.8083 48.0217 79.9394 48.6733L80.0166 48.6044L80.0169 48.6053Z" fill="white"/>
<path d="M72.9679 56.9455C72.7563 57.0207 72.5386 57.0837 72.3334 57.1727C70.7291 57.8788 69.1801 58.6991 67.6694 59.5877C66.9029 60.0385 66.1553 60.5202 65.3974 60.9851C65.3122 61.0373 65.2165 61.0716 65.1144 61.1194C65.0757 60.9259 65.2065 60.8745 65.2959 60.8112C65.7567 60.4835 66.2086 60.1383 66.6905 59.8439C68.5672 58.7019 70.4522 57.5757 72.4844 56.7181C72.6448 56.6503 72.8116 56.5854 72.9823 56.5569C73.3324 56.4983 73.5274 56.7211 73.4298 57.0646C73.39 57.2045 73.312 57.3358 73.2381 57.4632C73.1302 57.6486 73.0102 57.8274 72.9289 58.053C73.0102 57.9999 73.1018 57.9576 73.1715 57.8924C74.0082 57.1097 74.8385 56.3206 75.6766 55.5396C76.8303 54.4645 77.9826 53.3871 79.149 52.3258C79.8486 51.6902 80.6222 51.1471 81.4404 50.6714C81.6318 50.5609 81.8204 50.4147 82.1211 50.4558C82.0876 50.5606 82.0815 50.6537 82.0334 50.7121C81.9616 50.7926 81.8768 50.8606 81.7825 50.9133C80.3265 51.7863 79.0749 52.9123 77.8482 54.0706C76.5646 55.2828 75.2762 56.4902 73.983 57.6928C73.796 57.8675 73.6057 58.0394 73.4088 58.203C73.2642 58.3243 73.1117 58.4358 72.9524 58.5369C72.6871 58.7027 72.5195 58.7141 72.3992 58.5836C72.2332 58.4023 72.3469 58.2224 72.431 58.0613C72.5555 57.823 72.7076 57.6 72.8459 57.3687C72.9128 57.2562 72.9737 57.1395 73.037 57.0246C73.0138 56.9986 72.9906 56.9715 72.9668 56.9444L72.9679 56.9455Z" fill="white"/>
<path d="M63.5034 55.8815C63.463 56.712 63.4257 57.4781 63.3878 58.244C63.3831 58.3379 63.3897 58.4355 63.3659 58.5248C63.3258 58.677 63.2423 58.8086 63.0575 58.7782C62.9018 58.7525 62.8362 58.6301 62.8404 58.4811C62.8481 58.1851 62.8628 57.8891 62.8786 57.5931C62.9062 57.0856 62.9353 56.5788 62.9668 56.0191C62.6487 56.1147 62.3812 56.1952 62.1138 56.2761C61.9464 56.327 61.7818 56.3977 61.6106 56.4243C61.5227 56.4378 61.4225 56.3745 61.3274 56.3461C61.3794 56.2654 61.4126 56.1526 61.4862 56.1103C61.648 56.0161 61.8275 55.9511 62.0042 55.8848C62.3193 55.7668 62.6374 55.6565 62.9925 55.5294C63.0478 54.9374 63.1054 54.3376 63.1585 53.7376C63.1861 53.4159 63.1991 53.0922 63.2398 52.7722C63.2536 52.6658 63.3114 52.5124 63.3892 52.4814C63.4669 52.4505 63.6259 52.5165 63.6956 52.592C63.8137 52.7189 63.9074 52.8663 63.9722 53.027C64.2192 53.6381 64.4499 54.2555 64.6914 54.8843C64.7896 54.8843 64.885 54.8663 64.968 54.889C65.0634 54.915 65.1843 54.9553 65.2302 55.0291C65.303 55.146 65.2319 55.2596 65.1154 55.3331C65.0501 55.3746 64.9854 55.416 64.8941 55.4749C65.0878 55.9915 65.2734 56.4945 65.4634 56.995C65.6017 57.3601 65.7491 57.7219 65.8863 58.0875C65.9236 58.187 65.9723 58.3017 65.953 58.3968C65.939 58.4457 65.9149 58.4912 65.8822 58.5302C65.8495 58.5693 65.809 58.601 65.7632 58.6234C65.7021 58.6491 65.5724 58.5988 65.5209 58.5405C65.4437 58.4534 65.4 58.3329 65.3569 58.2207C65.0714 57.4795 64.7907 56.7363 64.5069 55.9942C64.464 55.8837 64.414 55.7731 64.3481 55.617C64.061 55.7068 63.7855 55.793 63.5012 55.8826L63.5034 55.8815ZM64.1896 55.1236C64.0237 54.6643 63.8768 54.2563 63.7294 53.8484L63.6414 53.8667C63.6082 54.3393 63.5748 54.8121 63.5369 55.3478L64.1896 55.1236Z" fill="white"/>
<path d="M8.80249 97.4961C8.89211 97.3145 9.06719 97.2919 9.2373 97.2634C9.94149 97.1421 10.6581 97.1092 11.3704 97.1653C12.0254 97.2206 12.6787 97.2886 13.3691 97.3546C13.2754 96.8157 13.0065 96.3243 13.0718 95.7314C13.1398 95.7942 13.2378 95.8442 13.2712 95.9221C13.3683 96.1439 13.4514 96.3716 13.5202 96.6037C13.6949 97.1996 13.9943 97.7516 14.3984 98.2233C15.1609 99.1204 16.0026 99.9352 16.9525 100.628C18.7623 101.946 20.4456 103.419 22.165 104.847C22.3309 104.985 22.4842 105.136 22.6374 105.289C22.7331 105.384 22.8476 105.502 22.7251 105.634C22.6026 105.767 22.4831 105.665 22.3771 105.573C21.9589 105.214 21.5371 104.857 21.1211 104.495C19.6889 103.247 18.1997 102.069 16.693 100.912C15.5775 100.055 14.5477 99.1099 13.7414 97.9455C13.6474 97.8101 13.5404 97.7545 13.3819 97.7341C12.3255 97.5981 11.2689 97.4699 10.201 97.5301C9.86518 97.5492 9.5305 97.5904 9.19664 97.631C9.00302 97.6545 9.00302 97.6586 8.8047 97.4997L8.80249 97.4961Z" fill="white"/>
<path d="M68.7776 50.4737C68.5286 50.5787 68.2927 50.6752 68.0598 50.7777C67.5661 50.9936 67.0737 51.2122 66.5811 51.4294C66.5319 51.4513 66.4826 51.4933 66.4342 51.4922C66.3482 51.49 66.2627 51.462 66.177 51.4452C66.2066 51.3515 66.2088 51.2285 66.2716 51.1688C66.377 51.0704 66.5153 51.003 66.6486 50.9397C67.1241 50.7169 67.6045 50.5047 68.0806 50.2833C68.3884 50.1398 68.7521 50.0586 68.8072 49.5957L69.1275 49.7844C70.2256 49.2806 71.337 48.7665 72.253 47.9202C72.4508 47.7378 72.6641 47.572 72.8737 47.4026C72.9977 47.3025 73.1354 47.2415 73.2676 47.3832C73.4128 47.5388 73.3003 47.6563 73.1846 47.7572C72.3438 48.4976 71.4725 49.1944 70.4463 49.6722C70.0452 49.8588 69.6519 50.0616 69.237 50.2656C69.2785 50.3864 69.3023 50.4903 69.3477 50.5829C70.0255 51.9441 70.7059 53.3042 71.389 54.6631C71.5098 54.9032 71.6561 55.1304 71.79 55.364C71.8368 55.4469 71.8874 55.5259 71.9283 55.6108C71.9861 55.7338 71.9814 55.8756 71.852 55.9228C71.7604 55.956 71.6102 55.9286 71.5303 55.8692C71.428 55.7932 71.3558 55.665 71.2944 55.5469C70.8587 54.712 70.4192 53.879 70.0007 53.0352C69.5886 52.2061 69.2002 51.3626 68.7768 50.4732L68.7776 50.4737Z" fill="white"/>
<path d="M7.68457 54.5734C7.80212 54.3442 8.01455 54.318 8.19655 54.2693C8.75639 54.1198 9.32425 54.0015 9.88381 53.8487C11.9373 53.2871 13.9985 52.7465 15.9767 51.9472C17.7879 51.2159 19.5877 50.4564 21.3936 49.7127C21.6426 49.6104 21.8971 49.5217 22.1535 49.4396C22.2483 49.4095 22.3551 49.4175 22.4909 49.4048C22.4287 49.6118 22.2807 49.6599 22.1554 49.7207C21.6465 49.9694 21.1436 50.2312 20.6211 50.4465C18.7281 51.2272 16.8453 52.0365 14.9268 52.749C12.8039 53.5375 10.6171 54.1309 8.40151 54.6074C8.17277 54.6568 7.93296 54.7055 7.6854 54.5734H7.68457Z" fill="white"/>
<path d="M77.1945 50.8897C77.1522 51.1492 77.1375 51.3659 77.0803 51.5704C76.8208 52.4952 76.0989 52.8796 75.1767 52.593C75.0999 52.5684 75.0245 52.5394 74.951 52.506C73.8867 52.0286 73.1255 50.5202 73.4416 49.3989C73.7224 48.4014 74.4609 48.1502 75.2838 48.4177C76.126 48.6916 76.7285 49.2922 77.0313 50.1443C77.1198 50.393 77.147 50.6639 77.1945 50.8886V50.8897ZM73.8438 49.7737C73.8612 50.397 74.081 50.9977 74.47 51.4853C74.719 51.8006 75.0357 52.0204 75.4282 52.1182C75.9446 52.2473 76.326 52.0444 76.5174 51.5483C76.7005 51.0732 76.6908 50.6064 76.4707 50.1426C76.2569 49.693 75.9476 49.3306 75.5153 49.0811C75.2854 48.9442 75.0479 48.8203 74.8042 48.7099C74.7181 48.6726 74.5926 48.6908 74.4966 48.7204C74.0997 48.8425 73.8308 49.2861 73.8438 49.7737Z" fill="white"/>
<path d="M68.8372 55.1468C68.8535 55.2695 68.8966 55.3955 68.8814 55.5138C68.8314 55.9308 68.6616 56.3244 68.3924 56.6469C68.0657 57.0364 67.6401 57.1419 67.1516 57.0087C66.9354 56.9519 66.7326 56.853 66.5549 56.7176C66.3771 56.5823 66.2279 56.4131 66.1157 56.2199C65.5553 55.2802 65.4317 54.2745 65.7484 53.2276C65.9365 52.6046 66.3539 52.2602 66.9392 52.2506C67.1425 52.2473 67.351 52.3398 67.5491 52.4106C67.6044 52.4308 67.6354 52.5281 67.7186 52.6513C67.5493 52.6165 67.4509 52.5927 67.3516 52.5762C66.7549 52.4772 66.306 52.7395 66.1464 53.3191C65.9038 54.1999 65.9849 55.0547 66.4449 55.854C66.5412 56.0155 66.667 56.1574 66.8158 56.2724C67.3673 56.7061 67.8262 56.6143 68.1819 56.0093C68.2909 55.8242 68.3717 55.6224 68.4815 55.4381C68.5506 55.3214 68.6502 55.223 68.7359 55.1164C68.7697 55.1263 68.8034 55.136 68.8372 55.1454V55.1468Z" fill="white"/>
<path d="M71.5081 50.4049C71.5703 50.4563 71.6765 50.5199 71.7504 50.61C71.9553 50.8587 72.1561 51.1133 72.3412 51.3775C72.9038 52.1823 73.4589 52.9918 74.014 53.8016C74.0741 53.8892 74.1468 53.9876 74.1551 54.086C74.1623 54.1756 74.115 54.3104 74.0461 54.3544C73.9773 54.3983 73.8461 54.3701 73.7585 54.3342C73.6926 54.3066 73.6478 54.222 73.6016 54.1559C72.9586 53.2109 72.3168 52.2648 71.6762 51.3175C71.5413 51.1164 71.4189 50.9073 71.3095 50.6912C71.2353 50.5459 71.3272 50.3933 71.5081 50.4049Z" fill="white"/>
<path d="M29.611 62.0602C30.113 62.0005 30.6184 61.9574 31.1171 61.8767C31.514 61.8126 31.9037 61.7032 32.2965 61.6128C32.3745 61.5948 32.4553 61.5476 32.528 61.5575C32.5644 61.566 32.5987 61.5817 32.6289 61.6038C32.659 61.6259 32.6844 61.6539 32.7034 61.686C32.7214 61.7184 32.6685 61.8043 32.629 61.8496C32.5966 61.8864 32.5382 61.9074 32.4876 61.9204C31.6105 62.1476 30.724 62.2816 29.8151 62.1769C29.7424 62.1686 29.6724 62.1357 29.6013 62.1144C29.6046 62.097 29.608 62.0785 29.611 62.0602Z" fill="white"/>
<path d="M26.53 63.4592C26.5961 63.4246 26.6614 63.389 26.7286 63.3561C27.1007 63.1756 27.4735 62.9968 27.845 62.8147C27.9166 62.7796 27.9786 62.7185 28.053 62.6964C28.1069 62.6801 28.1741 62.7083 28.2355 62.7168C28.2162 62.7843 28.2165 62.8923 28.1744 62.9128C27.7542 63.1155 27.33 63.308 26.9021 63.4904C26.7969 63.5349 26.6714 63.5305 26.5552 63.5485C26.5458 63.5189 26.5378 63.489 26.53 63.4592Z" fill="white"/>
<path d="M26.1062 66.4097C26.164 66.3834 26.2196 66.3439 26.2802 66.3337C26.6766 66.2665 27.0735 66.2018 27.4715 66.1471C27.5227 66.1399 27.5822 66.1949 27.6375 66.2209C27.6118 66.2745 27.5965 66.366 27.5592 66.3765C27.0871 66.5064 26.6099 66.5938 26.1234 66.5147L26.106 66.4105L26.1062 66.4097Z" fill="white"/>
<path d="M31.1173 99.5033C30.8545 99.5862 30.4811 99.471 29.8909 99.1412C30.1771 98.9826 30.8227 99.1628 31.1173 99.5033Z" fill="white"/>
<path d="M30.7764 62.5683C31.0687 62.4044 31.3849 62.3588 31.7063 62.3491C31.7439 62.3491 31.8211 62.4224 31.8169 62.4367C31.7915 62.5022 31.7544 62.5951 31.7008 62.6122C31.3924 62.7106 31.0845 62.6891 30.7764 62.5683Z" fill="white"/>
<path d="M66.6581 75.1227C66.6501 75.2333 66.6349 75.3112 66.6399 75.3889C66.8808 79.2101 66.6888 83.0352 66.6927 86.9139C66.896 86.9139 67.0523 86.9214 67.2086 86.9122C68.5542 86.8376 69.9007 86.774 71.2447 86.6784C72.1987 86.6104 73.1483 86.4869 74.1009 86.402C76.156 86.2218 78.2133 86.0704 80.2787 86.0928C80.4289 86.0944 80.664 86.0422 80.6687 86.263C80.6742 86.522 80.4225 86.4565 80.2632 86.4565C77.8217 86.4866 75.3906 86.6795 72.9591 86.8887C71.0934 87.0493 69.2219 87.1579 67.351 87.2431C65.7354 87.3163 64.1167 87.3232 62.4995 87.3608C62.4065 87.363 62.3144 87.379 62.1675 87.3945C62.1675 87.5454 62.1617 87.6878 62.1675 87.8298C62.2179 88.9063 62.2782 89.9823 62.318 91.0593C62.333 91.4529 62.424 91.8365 62.3686 92.2436C62.3155 92.6377 62.3916 93.049 62.404 93.453C62.4157 93.8435 62.4212 94.2344 62.4256 94.6252C62.4303 95.0292 62.4306 95.4336 62.4325 95.8379V96.2961C62.7205 96.2961 62.973 96.3194 63.2203 96.2928C65.3009 96.0679 67.3897 96.0256 69.4797 95.9783C71.9735 95.923 74.4668 95.8332 76.9598 95.7486C77.9555 95.7146 78.9513 95.6544 79.949 95.6066C80.0162 95.6033 80.0939 95.5825 80.1481 95.6091C80.2253 95.6464 80.3285 95.713 80.3387 95.7796C80.3484 95.8409 80.2635 95.9573 80.1954 95.9816C80.0594 96.0311 79.9075 96.0474 79.7609 96.0543C78.6567 96.1077 77.5523 96.161 76.4475 96.2033C74.8709 96.2635 73.2943 96.3232 71.7177 96.3672C70.2348 96.4084 68.7509 96.4064 67.2689 96.465C65.9492 96.5172 64.632 96.6325 63.3135 96.7071C62.1962 96.7703 61.0787 96.8232 59.9608 96.8658C58.0338 96.9371 56.107 97.0084 54.1799 97.0537C52.6434 97.0899 51.1061 97.0921 49.5687 97.1015C47.7349 97.1123 45.9005 97.0999 44.0666 97.1267C42.9619 97.143 41.8585 97.2212 40.7538 97.2577C40.3503 97.2712 39.9453 97.2483 39.5412 97.2331C39.4156 97.2284 39.2923 97.1947 39.1144 97.1659C39.2912 96.9448 39.4823 96.952 39.6632 96.9448C40.3367 96.9172 41.0116 96.9097 41.6823 96.8619C45.0085 96.6297 48.3401 96.7218 51.6695 96.6798C53.7457 96.6535 55.821 96.5642 57.8966 96.5026C59.1505 96.4657 60.404 96.4274 61.6569 96.3876C61.7504 96.3846 61.8437 96.3752 61.9955 96.365C61.9814 94.9408 61.9548 93.5238 61.9283 92.0548C61.4028 92.1032 60.9226 92.1339 60.4454 92.193C58.0708 92.4937 55.6879 92.5504 53.299 92.4481C51.5346 92.3728 49.77 92.3031 48.0051 92.2392C46.7391 92.1925 45.4729 92.1399 44.206 92.1212C43.2357 92.1065 42.2646 92.1612 41.2943 92.1458C40.6221 92.135 39.9506 92.0595 39.2795 92.0059C39.1789 91.9979 39.0809 91.9506 38.9612 91.9169C39.0472 91.7279 39.1921 91.7511 39.3138 91.7511C41.889 91.7621 44.4647 91.7577 47.0392 91.7983C48.4134 91.8199 49.7859 91.931 51.1606 91.9821C52.3732 92.0272 53.5874 92.033 54.8001 92.0772C57.0726 92.1601 59.3236 91.9036 61.5767 91.6684C61.6686 91.6588 61.7593 91.6347 61.8957 91.6087C61.8542 90.2205 61.8127 88.8397 61.7698 87.3992C61.637 87.3992 61.4949 87.3951 61.3549 87.3992C59.2389 87.4708 57.1229 87.5476 55.0075 87.6145C54.3204 87.6361 53.6323 87.6314 52.9446 87.6402C52.694 87.6435 52.4299 87.5921 52.2296 87.8467C52.031 87.6256 51.792 87.6361 51.5492 87.6383C47.3958 87.6729 43.2425 87.7054 39.0892 87.7358C38.7814 87.7383 38.4735 87.7358 38.1264 87.7358C38.2354 87.5006 38.4141 87.4896 38.5808 87.4805C39.1186 87.4528 39.6568 87.4139 40.1954 87.4117C42.7846 87.4009 45.3741 87.4086 47.9636 87.3934C49.231 87.3857 50.4978 87.3423 51.7652 87.3138C51.8299 87.3119 51.8944 87.2983 51.9514 87.2911C52.0816 86.6986 52.0816 78.0048 51.9547 75.7849C51.6864 75.6868 51.4054 75.7631 51.1321 75.7783C49.423 75.8723 47.7155 76.0069 46.0053 76.0724C43.7693 76.158 41.5316 76.2014 39.2942 76.2429C38.6757 76.2542 38.0556 76.1978 37.4366 76.1655C37.3536 76.1611 37.2742 76.1152 37.1929 76.0887C37.2418 75.8792 37.3901 75.8742 37.5184 75.8645C37.7198 75.8493 37.9225 75.8532 38.125 75.8529C39.2975 75.8529 40.4703 75.8775 41.642 75.849C43.4343 75.8045 45.2267 75.7454 47.0171 75.6525C48.7934 75.5602 50.567 75.4146 52.3422 75.2996C53.4721 75.2261 54.6023 75.1412 55.7336 75.1061C57.9975 75.0343 60.2626 75.0075 62.5263 74.9315C63.7652 74.89 65.001 74.7656 66.2396 74.7153C68.2334 74.6357 70.2279 74.5556 72.2228 74.5346C74.8657 74.5069 77.5091 74.5346 80.1523 74.5393C80.4579 74.5393 80.5888 74.6004 80.5575 74.7399C80.5044 74.9757 80.3008 74.9409 80.1313 74.942C79.6187 74.9453 79.1062 74.9378 78.5937 74.94C75.4782 74.9546 72.363 74.971 69.2479 74.9892C68.5606 74.9945 67.8738 75.0381 67.1864 75.0683C67.0147 75.0755 66.8443 75.0998 66.6592 75.1177L66.6581 75.1227ZM52.387 87.3188C57.0635 87.3356 61.6415 86.9595 66.2269 86.9319C66.2864 82.9669 66.3967 79.0578 66.225 75.1271C65.976 75.1421 65.7617 75.1548 65.5476 75.1672C64.431 75.2255 63.3149 75.3145 62.1971 75.333C59.3003 75.3844 56.403 75.416 53.5119 75.6163C53.1123 75.644 52.7134 75.681 52.2852 75.7158C52.4733 79.5851 52.4661 83.4169 52.3873 87.3188H52.387Z" fill="white"/>
<path d="M40.3154 101.197C40.4952 101.001 40.7547 101.028 40.9809 101.012C42.0298 100.942 43.0796 100.885 44.1303 100.84C47.0523 100.717 49.9754 100.623 52.8965 100.48C54.646 100.396 56.3916 100.232 58.1408 100.127C60.334 99.9983 62.528 99.8756 64.7239 99.7878C67.1484 99.6908 69.5737 99.6178 71.9998 99.5686C73.725 99.5313 75.451 99.544 77.1767 99.5299C78.2554 99.5208 79.3341 99.5022 80.4129 99.4912C80.6342 99.489 80.8659 99.4865 81.0432 99.6899C80.9113 99.9152 80.7182 99.9403 80.5125 99.9409C79.9593 99.9425 79.4061 99.9431 78.8529 99.9478C75.995 99.9732 73.1367 99.9691 70.2783 100.035C67.1527 100.107 64.0258 100.222 60.9016 100.361C59.1654 100.439 57.4347 100.632 55.6985 100.724C53.4376 100.845 51.1742 100.918 48.9116 101.01C47.2151 101.079 45.5186 101.147 43.8222 101.213C42.8527 101.252 41.8829 101.296 40.9132 101.332C40.7195 101.339 40.5237 101.313 40.3287 101.303L40.3171 101.196L40.3154 101.197Z" fill="white"/>
<path d="M37.6685 67.4C37.6597 67.9909 37.239 68.416 36.6844 68.395C36.2418 68.3773 35.8574 67.9434 35.8715 67.4608C35.8889 66.8528 36.2767 66.5178 36.826 66.4711C37.231 66.4366 37.7277 66.8821 37.6685 67.4011V67.4ZM37.2445 67.3851C37.25 67.0786 37.0597 66.8796 36.7516 66.8702C36.4214 66.8597 36.2764 67.0222 36.2678 67.4108C36.2606 67.7425 36.4432 67.9575 36.7262 67.9525C37.003 67.9481 37.239 67.69 37.2453 67.3851H37.2445Z" fill="white"/>
<path d="M45.345 66.3242C45.345 65.7941 45.6559 65.4567 46.143 65.46C46.6132 65.4627 47.09 65.9746 47.0989 66.4865C47.1072 66.9524 46.7305 67.3598 46.2862 67.3651C45.7568 67.3714 45.3458 66.9171 45.345 66.3242ZM46.6829 66.4851C46.6762 66.1382 46.3869 65.8558 46.0301 65.8494C45.8196 65.8447 45.6943 66.013 45.6918 66.3043C45.6882 66.6581 45.9538 66.969 46.2583 66.9676C46.5119 66.9676 46.6884 66.7667 46.6829 66.4851Z" fill="white"/>
<g clip-path="url(#clip0_1058_17996)">
<path d="M35.7595 13.5427C35.789 13.569 35.8154 13.6088 35.8247 13.6523C35.8366 13.7083 35.8199 13.7703 35.7808 13.8112L35.7764 13.8186L34.1585 15.5219C33.7029 15.9959 33.272 16.4453 32.9756 17.0479C32.5318 17.942 32.1369 18.8971 31.7525 19.8175C31.5788 20.238 31.3976 20.6796 31.2125 21.1025C31.1843 21.167 31.1381 21.2029 31.0738 21.2101C28.2434 23.6267 26.246 26.9188 23.4434 29.3815C22.137 30.5244 20.7102 31.524 19.1913 32.3157C17.7802 33.0519 16.2369 33.5888 14.6325 33.5862C11.9812 33.5858 9.34102 32.2051 7.57671 30.0202C6.61897 28.8399 5.98128 27.4483 5.61922 25.9461C5.19313 24.1715 5.1101 22.3497 4.85267 20.5522C4.55852 18.47 3.98201 16.2984 2.49337 14.7893C1.7539 14.0434 0.874127 13.5939 -0.114262 13.4211C-1.01455 13.2685 -1.92444 13.2674 -2.81509 13.0477C-2.92873 13.02 -2.97156 12.8471 -2.85224 12.7892C-0.520897 11.7658 0.999376 9.57641 1.28177 6.85783C1.29666 6.73116 1.5045 6.66738 1.60802 6.70381C2.70401 6.39873 3.85677 6.72503 4.81377 7.42453C5.98931 8.27895 6.74981 9.5728 7.15147 11.0081C8.11104 14.4435 7.14439 18.1073 8.28714 21.5036C8.86116 23.2142 10.0203 24.6376 11.5182 25.4883C13.0783 26.3778 14.7638 26.48 16.4318 26.0791C18.1901 25.6523 19.9051 24.9098 21.5354 24.1074C23.1715 23.3037 24.7427 22.3644 26.2404 21.3042C27.8982 20.1254 29.4164 18.7684 30.9054 17.3591C32.3495 15.9919 33.795 14.5464 35.5023 13.5716L35.5225 13.5542C35.5516 13.5221 35.5846 13.5085 35.626 13.5062L35.6317 13.505C35.6766 13.4629 35.7246 13.4917 35.7595 13.5427ZM31.7942 18.8337C31.8786 18.6402 31.9573 18.4479 32.0418 18.2544C32.2199 17.8265 32.4068 17.3836 32.6148 16.9558C31.9585 17.4987 31.3286 18.0814 30.7058 18.6691C30.4712 18.8881 30.2379 19.1133 30.0033 19.3323L30.0047 19.3385C30.0873 19.8669 29.9419 20.3919 29.9946 20.9201C30.4955 20.3779 31.0118 19.8519 31.5673 19.3695L31.7942 18.8337ZM2.12512 8.23153C2.55207 8.55002 3.20329 9.0222 3.78841 9.43698C3.84953 9.27446 3.90359 9.10694 3.93784 8.93065C3.38357 8.5483 2.76023 8.29117 2.12512 8.23153ZM3.29465 10.7707C2.97296 11.1707 2.58484 11.7084 2.11728 11.9575C2.2305 12.0114 2.34637 12.0777 2.45651 12.1452C2.87021 12.4016 3.243 12.7186 3.58233 13.0753C4.06887 12.8871 4.49483 12.3023 4.8108 11.9035C5.11224 11.5207 5.37139 11.108 5.53582 10.644C5.41502 10.4423 5.2841 10.2492 5.13733 10.066C4.85084 9.70453 4.52253 9.37152 4.15198 9.09301C4.00483 9.72234 3.69644 10.269 3.29465 10.7707ZM5.64045 11.0507C5.69684 11.0907 5.76162 11.1418 5.83211 11.1918C5.78934 11.1034 5.74524 11.0088 5.69674 10.9217C5.68179 10.9639 5.66112 11.0073 5.64045 11.0507ZM6.03146 11.6498C5.83274 11.5037 5.6565 11.3787 5.52829 11.2826C5.44734 11.4363 5.35803 11.5789 5.26299 11.7226C5.54058 11.9299 5.74146 12.0301 6.28164 12.4025C6.21014 12.1512 6.12586 11.8962 6.03146 11.6498ZM6.38626 12.8092C5.72492 12.3456 5.42401 12.1693 5.1169 11.9357C5.08478 11.9816 5.05133 12.0212 5.01921 12.067C4.94352 12.1612 4.86475 12.269 4.77894 12.3717C5.10147 12.6215 5.82891 13.1424 6.56075 13.6559C6.50552 13.3687 6.45162 13.0877 6.38626 12.8092ZM6.60325 14.0239C5.84322 13.4904 4.94833 12.8296 4.6117 12.5699C4.6117 12.5699 4.61038 12.5637 4.60465 12.5649C4.36613 12.8497 4.095 13.122 3.79165 13.2711C4.12828 13.5309 4.97689 14.143 5.73693 14.6765C6.03015 14.536 6.33308 14.4129 6.63866 14.3023C6.63155 14.2128 6.6174 14.1183 6.60325 14.0239ZM4.26286 13.9377C4.50927 14.3076 4.73104 14.7024 4.91407 15.1118C5.10118 15.007 5.28829 14.9021 5.48377 14.8084C5.05242 14.4974 4.61666 14.1938 4.26286 13.9377ZM5.02564 15.3545C5.12046 15.5748 5.20517 15.8038 5.28281 16.0277C5.51269 16.7132 5.67519 17.4195 5.79763 18.1344C5.81348 18.1245 5.83065 18.1208 5.84782 18.1172C6.17063 18.0874 6.48903 18.065 6.81183 18.0352C6.79281 17.1878 6.78657 16.3442 6.74423 15.5277C6.7251 15.2133 6.70597 14.8989 6.67406 14.5807C6.10298 14.7934 5.55394 15.0534 5.02564 15.3545ZM5.95021 19.1873C5.98721 19.1924 6.02114 19.2112 6.04319 19.2585C6.16928 19.4851 6.38708 19.8612 6.65512 20.3045C6.74231 20.2924 6.82951 20.2804 6.91803 20.2745C6.91712 20.2422 6.9105 20.2111 6.9096 20.1788C6.46521 19.4415 6.04595 18.7379 5.85195 18.3893L5.85063 18.3831C5.8449 18.3843 5.83786 18.3793 5.83213 18.3805C5.87633 18.6441 5.91614 18.9151 5.95021 19.1873ZM6.01307 19.7069C6.04185 19.9543 6.07063 20.2016 6.09501 20.4564C6.1954 20.422 6.2958 20.3876 6.39179 20.3606C6.24894 20.1116 6.11845 19.8924 6.01307 19.7069ZM6.81024 18.3086C6.78029 18.3084 6.74594 18.3158 6.71599 18.3156C6.74509 18.3679 6.78124 18.4252 6.81299 18.49C6.81691 18.4241 6.81072 18.367 6.81024 18.3086ZM6.83313 19.0056C6.67353 18.7342 6.54039 18.5026 6.44471 18.3345C6.33902 18.344 6.22761 18.3547 6.12059 18.358C6.28283 18.6419 6.55617 19.1102 6.86302 19.6233C6.86699 19.6419 6.86392 19.6556 6.86789 19.6742C6.85719 19.4555 6.84516 19.2306 6.83313 19.0056ZM6.94506 20.5417C6.67377 20.5605 6.41044 20.6167 6.15639 20.7163C6.14494 20.7188 6.13349 20.7212 6.12776 20.7224C6.20615 21.4272 6.28321 22.1257 6.3889 22.8182C6.49014 22.7316 6.63723 22.7197 6.76932 22.6656C6.95161 22.5942 7.12907 22.5564 7.3158 22.5621C7.13395 21.9054 7.01947 21.2278 6.94506 20.5417ZM6.60673 23.9807C6.62083 23.9907 6.62921 24.0019 6.63891 24.0193C6.76368 24.2397 6.9828 24.622 7.25084 25.0654C7.33581 25.0148 7.42343 24.9766 7.50972 24.9322C7.08473 24.2298 6.67384 23.5374 6.44502 23.1377C6.4888 23.4273 6.54138 23.7021 6.60673 23.9807ZM6.82659 24.8438C6.86851 24.9843 6.90911 25.1187 6.95676 25.258C6.98274 25.2395 7.00871 25.221 7.03468 25.2024C6.96546 25.0742 6.89184 24.9534 6.82659 24.8438ZM6.63431 22.9869C6.85608 23.3816 7.29342 24.1138 7.7378 24.8511C7.83247 24.8179 7.92847 24.791 8.02578 24.7702C7.56465 24.0105 7.12598 23.272 6.91964 22.8935C6.85359 22.9206 6.78755 22.9477 6.72018 22.9686C6.703 22.9722 6.66866 22.9795 6.63431 22.9869ZM7.40273 22.8296C7.397 22.8308 7.397 22.8308 7.40273 22.8296C7.32301 22.8206 7.25166 22.8228 7.17592 22.8324C7.33816 23.1163 7.61018 23.5783 7.91702 24.0914C7.70538 23.688 7.53688 23.2625 7.40273 22.8296ZM7.04809 25.5181C7.14912 25.7955 7.26291 26.0767 7.39256 26.3481C7.67258 26.9319 8.0116 27.4836 8.40123 27.992C8.52744 27.6857 8.64835 27.3544 8.83096 27.088C9.04701 26.782 9.29391 26.5084 9.50027 26.1849C9.50467 26.1775 9.50906 26.17 9.51479 26.1688C9.24908 25.9329 9.00229 25.6735 8.77002 25.3981C8.6497 25.2547 8.54215 25.1151 8.43901 24.9681C8.42756 24.9706 8.42183 24.9718 8.41039 24.9742C7.91187 25.022 7.45396 25.2041 7.04809 25.5181ZM11.1394 30.2814C11.1591 30.1212 11.2017 29.9561 11.2514 29.796C10.6637 28.8358 9.81637 27.4435 9.43103 26.7586C9.36239 26.8577 9.2867 26.9519 9.20661 27.0534C9.21498 27.0647 9.22203 27.0697 9.23173 27.0871C9.54345 27.6511 10.4988 29.2414 11.1394 30.2814ZM9.04202 27.264C8.95886 27.3792 8.89684 27.5094 8.83482 27.6397C8.86037 27.6472 8.88857 27.6672 8.90797 27.7021C9.11431 28.0806 9.6072 28.905 10.0974 29.717C10.3283 29.9017 10.5751 30.0766 10.8191 30.2391C10.2024 29.2266 9.37181 27.8567 9.04202 27.264ZM8.72531 27.884C8.68089 27.9844 8.63779 28.0911 8.59338 28.1916C8.58898 28.199 8.58457 28.2065 8.58017 28.2139C8.86401 28.5629 9.17383 28.8933 9.49551 29.1953C9.17897 28.6648 8.8902 28.1803 8.72531 27.884ZM9.70295 26.3497C9.66204 26.4104 9.62111 26.4711 9.58019 26.5318C9.90866 27.1183 10.7406 28.4944 11.3476 29.4895C11.3656 29.4337 11.3793 29.3853 11.3986 29.3357C11.4092 29.3009 11.4197 29.2662 11.4303 29.2314C10.8232 28.2363 10.0997 27.0321 9.82815 26.544C9.80743 26.5029 9.8052 26.4644 9.82147 26.4284C9.7849 26.3972 9.74833 26.366 9.70603 26.336C9.70736 26.3422 9.70868 26.3485 9.70295 26.3497ZM11.5336 28.9299C11.5859 28.7823 11.6426 28.6272 11.702 28.4845C11.4048 27.9889 11.1522 27.5617 11.0151 27.3115C10.9957 27.2766 10.9948 27.2443 11.0009 27.217C10.7322 27.0793 10.4709 26.9205 10.2172 26.7406C10.5337 27.2711 11.0614 28.1466 11.5336 28.9299ZM11.8194 28.193C11.9007 28.0132 11.9821 27.8334 12.0692 27.6523C11.8194 27.5755 11.5772 27.4777 11.3379 27.3662C11.4627 27.5866 11.6307 27.8693 11.8194 28.193ZM11.7569 29.0513C11.6866 29.2548 11.6233 29.4633 11.56 29.6717C11.495 29.9001 11.3169 30.328 11.38 30.5681C12.2563 31.0573 13.1963 31.3964 14.1534 31.5629C14.5203 31.6277 14.885 31.654 15.2457 31.6616C15.0661 30.3415 15.0975 29.1128 15.3098 27.8066C14.3886 27.977 13.4497 28.0081 12.5079 27.7733C12.4441 27.7544 12.3815 27.7417 12.3176 27.7229C12.1052 28.1581 11.917 28.5947 11.7569 29.0513ZM17.3785 27.2357C18.1975 28.3546 19.1296 29.3584 20.0731 30.3598C20.0789 30.3586 20.0833 30.3511 20.089 30.3499C20.0069 30.0489 19.9433 29.7505 19.9012 29.441C19.182 28.6778 18.4615 27.9084 17.8004 27.0808C17.6568 27.1374 17.5177 27.1866 17.3785 27.2357ZM17.5766 31.3663C16.8675 30.51 16.1526 29.6549 15.4421 28.7924C15.3954 29.3873 15.39 29.9799 15.426 30.5702C15.5591 30.7174 15.6922 30.8645 15.8196 31.0128C15.9875 31.211 16.1308 31.434 16.3366 31.5851C16.3436 31.5901 16.3507 31.5951 16.352 31.6013C16.7677 31.5582 17.1755 31.4778 17.5766 31.3663ZM17.8263 31.2741C17.8333 31.2791 17.8347 31.2853 17.8417 31.2903C18.0108 31.2413 18.1786 31.1861 18.345 31.1246C17.323 30.0359 16.4279 29.0373 15.5697 27.7902C15.5613 27.779 15.56 27.7728 15.5516 27.7616C15.5613 27.779 15.5609 27.8051 15.5604 27.8312C15.5258 28.0336 15.4968 28.2347 15.4807 28.4397C16.2581 29.3919 17.0444 30.3293 17.8263 31.2741ZM15.8149 27.7055C16.6762 28.9388 17.57 29.9313 18.592 31.0199C18.5933 31.0262 18.599 31.0249 18.6004 31.0312C18.7941 30.9574 18.9865 30.8774 19.1719 30.7924C18.1962 29.7524 17.2575 28.7175 16.431 27.5352C16.2302 27.604 16.021 27.6615 15.8149 27.7055ZM15.6929 31.2608C15.6131 31.1673 15.5334 31.0738 15.4549 30.9866C15.474 31.2165 15.4975 31.439 15.5351 31.6714C15.6963 31.6696 15.8561 31.6615 16.0147 31.6472C15.8996 31.5288 15.8049 31.393 15.6929 31.2608ZM16.6573 27.4739C17.4895 28.655 18.4304 29.6439 19.4132 30.6889C19.554 30.6199 19.6963 30.5571 19.8358 30.4819C18.8852 29.4755 17.9435 28.4543 17.1276 27.3217C16.9712 27.3745 16.8149 27.4273 16.6573 27.4739ZM18.0456 26.9961C18.6203 27.699 19.2298 28.3686 19.8495 29.0295C19.8171 28.7374 19.8033 28.4479 19.7895 28.1583C19.7824 28.1533 19.7754 28.1483 19.767 28.1371C19.3563 27.6982 18.9455 27.2592 18.5449 26.8116C18.3785 26.8731 18.212 26.9346 18.0456 26.9961ZM18.7919 26.707C19.1141 27.0673 19.4477 27.4252 19.78 27.7769C19.7696 27.2786 19.7662 26.7854 19.7527 26.3008C19.4295 26.4411 19.1107 26.5741 18.7919 26.707ZM19.9825 26.1998C19.9851 26.2122 19.9891 26.2309 19.9918 26.2433C20.0223 27.2572 19.9864 28.3244 20.128 29.3536C20.1293 29.3599 20.1307 29.3661 20.1307 29.3661C20.17 29.6632 20.231 29.9492 20.3091 30.2315C21.3424 29.6603 22.3148 28.9721 23.2164 28.26C23.293 28.1981 23.3638 28.1375 23.4418 28.0819C23.1589 27.2322 22.9862 26.3656 22.9235 25.482C22.9125 25.4583 22.9143 25.4385 22.9217 25.4174C22.9084 25.1862 22.8994 24.9476 22.9033 24.7128C21.9475 25.2545 20.9767 25.7539 19.9825 26.1998ZM25.3212 26.3424C24.592 25.8414 23.8629 25.3403 23.1407 24.8442C23.1408 25.0132 23.148 25.1872 23.1538 25.3549C23.7975 25.7637 24.4456 26.1651 25.0893 26.5738C25.1747 26.4972 25.2486 26.4229 25.3212 26.3424ZM24.9079 26.762C24.3334 26.397 23.7545 26.0394 23.18 25.6743C23.1906 25.8085 23.2057 25.9353 23.2221 26.0683C23.2221 26.0683 23.2278 26.0671 23.2291 26.0733C23.6975 26.3895 24.1729 26.7107 24.6412 27.0268C24.7297 26.9365 24.8182 26.8461 24.9079 26.762ZM24.4502 27.1975C24.0581 26.9301 23.6673 26.6689 23.2751 26.4015C23.3052 26.5706 23.3352 26.7397 23.371 26.9076L24.2085 27.4115C24.2851 27.3497 24.3705 27.273 24.4502 27.1975ZM24.003 27.5983C23.8179 27.4883 23.6329 27.3782 23.4523 27.2607C23.5101 27.4759 23.5692 27.6973 23.6442 27.9088C23.767 27.8111 23.8885 27.7072 24.003 27.5983ZM23.1683 24.5524C23.1753 24.5574 23.1824 24.5624 23.1952 24.5661C23.9666 25.0972 24.7381 25.6282 25.5083 26.1531C25.591 26.0639 25.6751 25.981 25.7521 25.8931C24.9824 25.4267 24.2881 24.9767 23.5465 24.4457C23.5113 24.4208 23.4989 24.3909 23.4923 24.3598C23.3871 24.4277 23.2748 24.4907 23.1683 24.5524ZM23.6939 24.2388C24.4201 24.7536 25.1651 25.2447 25.922 25.7074C25.9554 25.6678 25.9902 25.6344 26.0237 25.5947C25.9955 25.5748 25.9787 25.5523 25.9694 25.5088C25.9522 25.428 25.9337 25.3409 25.9164 25.2601L25.9094 25.2551C25.3243 24.8403 24.7378 24.4193 24.1527 24.0046C24.1386 23.9946 24.1302 23.9834 24.1219 23.9722C23.9805 24.0673 23.8379 24.1562 23.6939 24.2388ZM24.3437 23.8339C24.8443 24.1887 25.3448 24.5435 25.8453 24.8983C25.8272 24.7852 25.8104 24.6782 25.7923 24.5651C25.7795 24.5613 25.7724 24.5563 25.7583 24.5463C25.371 24.2454 24.9793 23.9519 24.5845 23.672C24.5022 23.7351 24.423 23.7845 24.3437 23.8339ZM24.8122 23.5325C25.1294 23.7574 25.4422 23.9897 25.7507 24.2295C25.7356 24.1027 25.7263 23.9747 25.7169 23.8467C25.635 23.7992 25.5663 23.7293 25.4931 23.6669L25.0891 23.3435C24.9953 23.409 24.9059 23.4671 24.8122 23.5325ZM25.3083 23.1928C25.3885 23.2602 25.4744 23.3264 25.5533 23.3876C25.5885 23.4126 25.6432 23.4724 25.7009 23.5186C25.6942 23.3186 25.6932 23.1173 25.7036 22.9136C25.5751 23.0125 25.4381 23.1001 25.3083 23.1928ZM25.9127 22.7715C25.9365 22.7989 25.9559 22.8338 25.9537 22.8798C25.9199 23.7319 26.0045 24.5784 26.2006 25.414C26.6698 24.8916 27.1235 24.3529 27.5688 23.803C27.6679 23.6779 27.7682 23.559 27.8672 23.4339C27.8575 23.4165 27.8478 23.3991 27.8425 23.3742C27.7087 22.7462 27.6264 22.1073 27.604 21.4686C27.2729 21.7406 26.9406 22.0065 26.5955 22.2685C26.3732 22.4329 26.1407 22.6059 25.9127 22.7715ZM28.6646 22.458C28.395 22.288 28.1328 22.0969 27.8764 21.9045C27.8875 22.0127 27.8972 22.1146 27.9083 22.2227C28.1202 22.3465 28.3176 22.4865 28.5133 22.6463C28.5586 22.5781 28.6109 22.5149 28.6646 22.458ZM29.0634 21.97C28.7276 21.7426 28.3976 21.514 28.0606 21.2803C28.0363 21.279 28.0051 21.2726 27.9813 21.2452C27.9658 21.229 27.9434 21.2078 27.9279 21.1916C27.8976 21.2175 27.8615 21.2447 27.8311 21.2707C27.8408 21.2881 27.8461 21.313 27.8514 21.3379C27.8545 21.4087 27.8576 21.4795 27.8621 21.5566C27.8692 21.5616 27.8692 21.5616 27.8762 21.5666C28.186 21.8125 28.5045 22.0436 28.8363 22.2524C28.9062 22.1595 28.9877 22.0642 29.0634 21.97ZM28.3447 22.8382C28.2138 22.7296 28.0856 22.6334 27.9459 22.5397C27.9738 22.7547 28.0145 22.9735 28.0608 23.1912C28.1555 23.0735 28.2501 22.9558 28.3447 22.8382ZM28.1304 21.0184C28.4957 21.2721 28.8667 21.5245 29.2306 21.7719C29.2742 21.7236 29.3164 21.6691 29.3657 21.6196C29.0172 21.3884 28.6718 21.1435 28.3351 20.8838C28.3281 20.8788 28.3197 20.8676 28.3127 20.8626C28.2519 20.9145 28.1912 20.9665 28.1304 21.0184ZM28.505 20.6981C28.8403 20.9516 29.1858 21.1965 29.5343 21.4277C29.5924 21.3633 29.6504 21.2989 29.7028 21.2358C29.3614 21.0096 29.03 20.7747 28.7018 20.5262C28.6353 20.5793 28.5702 20.6387 28.505 20.6981ZM28.8915 20.3492C29.1704 20.5628 29.4581 20.7615 29.7445 20.9539C29.7343 20.8781 29.7356 20.7998 29.7325 20.729C29.7082 20.7277 29.6827 20.7201 29.6602 20.6989L29.0464 20.2057C28.9971 20.2552 28.9478 20.3047 28.8915 20.3492ZM29.2374 20.035L29.7428 20.4408C29.752 20.3153 29.7599 20.1837 29.769 20.0582C29.6633 19.9833 29.5633 19.9071 29.4633 19.8309C29.388 19.8989 29.3127 19.967 29.2374 20.035ZM29.653 19.654C29.6953 19.684 29.7389 19.7202 29.7812 19.7501C29.7838 19.6781 29.782 19.6135 29.7731 19.5439C29.7326 19.5785 29.6935 19.6193 29.653 19.654ZM-2.39857 12.868C-1.03491 13.1168 0.384473 13.0093 1.64408 13.7808C3.00811 14.6211 3.94093 16.1057 4.45893 17.6657C5.58536 21.0135 5.04243 24.7561 6.58013 27.9837C7.89161 30.7396 10.5348 32.7241 13.3366 33.2059C16.6717 33.7756 19.8482 31.9157 22.3938 29.9042C24.0221 28.6147 25.4177 27.0758 26.7507 25.4398C28.0489 23.8372 29.3304 22.2121 30.8851 20.8863C30.8952 20.8777 30.901 20.8764 30.9111 20.8678L31.3557 19.8371C30.7492 20.3888 30.1876 20.983 29.644 21.6058C29.6348 21.6468 29.6014 21.6864 29.5569 21.7024C29.4944 21.7742 29.4319 21.846 29.3707 21.924C29.3866 21.9986 29.3211 22.0841 29.2369 22.0825C29.1467 22.1928 29.0552 22.2968 28.965 22.407C28.9738 22.4766 28.9171 22.5472 28.8413 22.5568C27.3719 24.3389 25.9893 26.2196 24.2501 27.7472C22.9494 28.8888 21.5169 29.8896 19.998 30.6813C19.8312 30.7688 19.663 30.8502 19.4948 30.9315C19.4657 30.9637 19.4226 30.9859 19.3812 30.9882C18.1396 31.5648 16.8111 31.9585 15.4406 31.9581C12.7893 31.9576 10.149 30.5769 8.38474 28.392C7.427 27.2117 6.78931 25.8202 6.42725 24.3179C6.00117 22.5433 5.91813 20.7216 5.66071 18.924C5.36655 16.8418 4.79004 14.6703 3.3014 13.1611C2.56193 12.4153 1.68216 11.9658 0.69377 11.7929C0.245825 11.7129 -0.210022 11.6801 -0.662792 11.6336C-1.16985 12.1186 -1.75577 12.5425 -2.39857 12.868ZM-0.422035 11.3873C-0.171427 11.4119 0.0805075 11.4427 0.332441 11.4735C0.119627 11.3173 -0.0508913 11.1912 -0.165011 11.105C-0.246427 11.2004 -0.334895 11.2907 -0.422035 11.3873ZM-0.00482822 10.9019C0.174062 11.0392 0.500996 11.2816 0.884327 11.5638C1.18428 11.6234 1.48249 11.7028 1.77587 11.8158C1.7816 11.8146 1.78732 11.8134 1.79305 11.8122C1.81023 11.8085 1.8318 11.7974 1.84897 11.7937C1.19203 11.3228 0.518335 10.8294 0.231049 10.6046C0.15668 10.705 0.0765883 10.8065 -0.00482822 10.9019ZM0.377134 10.3915C0.677196 10.62 1.40861 11.1596 2.10653 11.6543C2.23771 11.5679 2.3592 11.464 2.47672 11.3415C1.75765 10.8317 0.968518 10.246 0.654356 10.0074C0.645982 9.99621 0.638934 9.99121 0.630561 9.98C0.54697 10.1213 0.46205 10.2564 0.377134 10.3915ZM0.743622 9.78041C0.76212 9.78297 0.787667 9.79052 0.808815 9.80551C1.12298 10.044 1.91916 10.6348 2.65232 11.1545C2.76279 11.027 2.86753 10.9007 2.96082 10.7768C2.20651 10.2421 1.31428 9.59379 0.970596 9.32905C0.901105 9.48035 0.825888 9.63288 0.743622 9.78041ZM1.07571 9.09216C1.08848 9.09594 1.10258 9.10593 1.11668 9.11593C1.45331 9.37567 2.3526 10.029 3.12101 10.5737C3.2099 10.4572 3.29306 10.342 3.37623 10.2268C2.65717 9.71708 1.63365 8.98625 1.23489 8.68775C1.18564 8.82174 1.13067 8.95695 1.07571 9.09216ZM1.31753 8.42965C1.65416 8.68939 2.72263 9.46263 3.50514 10.0173C3.57114 9.90577 3.6314 9.79543 3.6833 9.67387C2.93736 9.15038 2.05658 8.49963 1.68602 8.22112C1.58473 8.22321 1.48036 8.23895 1.37599 8.25469C1.35797 8.31053 1.34127 8.37259 1.31753 8.42965ZM31.3255 17.3086C29.9945 18.5607 28.6679 19.8054 27.2196 20.9006C24.3648 23.0624 21.1993 24.777 17.8534 25.9256C16.3418 26.4427 14.7327 26.8117 13.129 26.419C11.7071 26.0655 10.3845 25.223 9.39545 24.0363C7.09569 21.2766 7.53467 17.5237 7.35821 14.1684C7.25927 12.2721 6.95191 10.2122 5.76011 8.69178C4.75827 7.41686 3.15551 6.52349 1.64077 6.96982C1.59958 7.31008 1.53285 7.64279 1.44761 7.97295C2.39927 7.86112 3.36088 8.18915 4.18129 8.78127C5.35683 9.63569 6.11734 10.9295 6.51899 12.3649C7.47856 15.8002 6.51191 19.4641 7.65466 22.8604C8.22869 24.571 9.38784 25.9944 10.8858 26.8451C12.4458 27.7345 14.1313 27.8368 15.7993 27.4358C17.5576 27.0091 19.2726 26.2666 20.9029 25.4641C22.539 24.6605 24.1103 23.7211 25.6079 22.661C27.2657 21.4822 28.7839 20.1252 30.2729 18.7159C31.1449 17.8931 32.0225 17.0691 32.9615 16.336C33.2229 15.9618 33.5248 15.6374 33.8483 15.302L34.4781 14.6348C33.3599 15.4256 32.3322 16.3596 31.3255 17.3086Z" fill="white"/>
</g>
<defs>
<clipPath id="clip0_1058_17996">
<rect width="36" height="36" fill="white" transform="translate(3)"/>
</clipPath>
</defs>
</svg>
