<svg width="135" height="84" viewBox="0 0 135 84" fill="none" xmlns="http://www.w3.org/2000/svg">
<path d="M34.3633 15.961L25.1349 22.5602C25.0982 22.5853 25.0683 22.6192 25.048 22.6587C25.0278 22.6982 25.0177 22.7422 25.0187 22.7866L25.2277 34.1335C25.228 34.1842 25.2142 34.2339 25.1877 34.2772C25.1613 34.3204 25.1234 34.3554 25.0782 34.3783C25.033 34.4012 24.9823 34.4111 24.9318 34.4068C24.8814 34.4025 24.8331 34.3843 24.7924 34.3541L15.6626 27.6156C15.6269 27.5901 15.5855 27.5737 15.542 27.5676C15.4986 27.5615 15.4544 27.566 15.4131 27.5807L4.68703 31.2837C4.63906 31.3003 4.58745 31.3031 4.53796 31.2919C4.48847 31.2807 4.44306 31.2559 4.40688 31.2203C4.37071 31.1847 4.34523 31.1398 4.3332 31.0905C4.32117 31.0412 4.32314 30.9895 4.33887 30.9413L7.92574 20.1747C7.94122 20.1332 7.94562 20.0883 7.9385 20.0446C7.93137 20.0008 7.91293 19.9597 7.88507 19.9252L1.05367 10.865C1.02378 10.8247 1.00561 10.777 1.0011 10.727C0.996593 10.677 1.00597 10.6268 1.02817 10.5818C1.05037 10.5368 1.08454 10.4988 1.12693 10.4719C1.16933 10.4451 1.21833 10.4305 1.26849 10.4297L12.6155 10.5168C12.6596 10.5163 12.703 10.5056 12.7423 10.4854C12.7816 10.4653 12.8156 10.4363 12.8418 10.4007L19.3423 1.1142C19.3717 1.07304 19.4121 1.04086 19.4588 1.02128C19.5054 1.0017 19.5566 0.995454 19.6066 1.00328C19.6566 1.01111 19.7033 1.03269 19.7418 1.0656C19.7802 1.0985 19.8087 1.14147 19.8241 1.18965L23.2542 12.0084C23.2657 12.05 23.2879 12.0879 23.3184 12.1184C23.3489 12.149 23.3868 12.171 23.4284 12.1825L34.2878 15.4967C34.3321 15.5139 34.3712 15.5423 34.4011 15.5793C34.4311 15.6162 34.4508 15.6603 34.4584 15.7072C34.466 15.7542 34.4613 15.8023 34.4446 15.8468C34.428 15.8913 34.3999 15.9306 34.3633 15.961Z" stroke="black" stroke-width="2" stroke-miterlimit="10" stroke-linecap="round"/>
<path d="M126.265 49.7175L125.105 61.0064C125.102 61.051 125.109 61.0956 125.126 61.1369C125.143 61.1782 125.169 61.215 125.203 61.2443L133.845 68.5923C133.885 68.6242 133.915 68.6667 133.931 68.7149C133.947 68.7631 133.949 68.815 133.937 68.8644C133.925 68.9138 133.899 68.9587 133.862 68.9938C133.825 69.0288 133.779 69.0527 133.729 69.0624L122.638 71.4537C122.595 71.4643 122.555 71.4844 122.521 71.5126C122.486 71.5407 122.459 71.5761 122.44 71.6162L118.122 82.11C118.104 82.1572 118.073 82.1983 118.032 82.2284C117.991 82.2585 117.943 82.2765 117.892 82.2801C117.842 82.2838 117.791 82.273 117.747 82.249C117.702 82.2251 117.665 82.1889 117.64 82.1448L111.935 72.3359C111.914 72.2969 111.883 72.2641 111.845 72.2407C111.808 72.2173 111.765 72.2041 111.72 72.2024L100.408 71.3376C100.358 71.3332 100.31 71.3148 100.269 71.2846C100.229 71.2544 100.197 71.2136 100.179 71.1667C100.16 71.1197 100.155 71.0685 100.164 71.0188C100.172 70.969 100.195 70.9227 100.228 70.8849L107.773 62.4284C107.805 62.397 107.827 62.358 107.838 62.3151C107.85 62.2723 107.849 62.2272 107.837 62.1846L105.162 51.1569C105.15 51.1079 105.153 51.0567 105.168 51.009C105.184 50.9612 105.213 50.9188 105.251 50.8864C105.29 50.854 105.337 50.8328 105.386 50.8252C105.436 50.8176 105.487 50.824 105.533 50.8435L115.917 55.4287C115.955 55.4485 115.998 55.4589 116.041 55.4589C116.085 55.4589 116.128 55.4485 116.166 55.4287L125.853 49.4911C125.894 49.4649 125.94 49.4502 125.989 49.4484C126.037 49.4467 126.085 49.458 126.127 49.4812C126.169 49.5044 126.204 49.5386 126.229 49.5802C126.253 49.6218 126.266 49.6693 126.265 49.7175Z" stroke="black" stroke-width="2" stroke-miterlimit="10" stroke-linecap="round"/>
<path d="M101.389 60.159C101.19 60.1887 100.987 60.1541 100.809 60.0603L89.0844 53.8848C88.8535 53.7647 88.6797 53.5578 88.6014 53.3097C88.523 53.0615 88.5465 52.7923 88.6666 52.5614C88.7866 52.3305 88.9934 52.1568 89.2416 52.0785C89.4898 52.0001 89.759 52.0235 89.9899 52.1436L101.714 58.3191C101.895 58.4149 102.041 58.5657 102.131 58.7498C102.221 58.9339 102.251 59.1417 102.215 59.3436C102.18 59.5454 102.081 59.7308 101.934 59.8731C101.787 60.0155 101.598 60.1074 101.395 60.1358L101.389 60.159Z" fill="black"/>
<path d="M78.8398 48.0749C78.642 48.1054 78.4395 48.0751 78.2594 47.9878L67.0807 42.5785C66.9573 42.529 66.8456 42.4547 66.7521 42.3602C66.6587 42.2657 66.5856 42.1529 66.5376 42.029C66.4896 41.9051 66.4675 41.7726 66.4728 41.6398C66.4782 41.5069 66.5108 41.3766 66.5686 41.2569C66.6265 41.1373 66.7083 41.0308 66.8091 40.9441C66.9098 40.8574 67.0273 40.7923 67.1543 40.753C67.2812 40.7136 67.4149 40.7008 67.5471 40.7153C67.6792 40.7298 67.807 40.7713 67.9224 40.8373L79.1011 46.2408C79.2889 46.3308 79.4427 46.4788 79.5398 46.663C79.6369 46.8472 79.672 47.0577 79.6401 47.2635C79.6082 47.4693 79.5108 47.6593 79.3625 47.8054C79.2142 47.9516 79.0229 48.0461 78.8167 48.0749H78.8398Z" fill="black"/>
<path d="M55.0781 36.5887C54.8784 36.617 54.675 36.5804 54.4977 36.4842L41.3748 29.6122C41.2604 29.5531 41.1588 29.4721 41.0758 29.3738C40.9928 29.2755 40.9299 29.1617 40.8909 29.0391C40.8518 28.9165 40.8373 28.7874 40.8481 28.6592C40.8589 28.531 40.8949 28.4061 40.9539 28.2918C41.013 28.1774 41.0939 28.0759 41.1923 27.9928C41.2906 27.9098 41.4044 27.847 41.527 27.8079C41.6496 27.7688 41.7788 27.7543 41.907 27.7651C42.0352 27.776 42.16 27.8119 42.2743 27.871L55.3974 34.7488C55.5101 34.8075 55.6101 34.888 55.6917 34.9855C55.7732 35.083 55.8346 35.1958 55.8723 35.3172C55.9101 35.4386 55.9235 35.5662 55.9117 35.6928C55.8999 35.8194 55.8632 35.9424 55.8036 36.0547C55.7366 36.197 55.6351 36.3204 55.5085 36.4136C55.3818 36.5068 55.2339 36.567 55.0781 36.5887Z" fill="black"/>
</svg>
