<svg width="235" height="147" viewBox="0 0 235 147" fill="none" xmlns="http://www.w3.org/2000/svg">
<path d="M213.342 110.876L210.698 122.436C210.687 122.481 210.665 122.523 210.634 122.557C210.604 122.592 210.565 122.619 210.522 122.636L199.501 127.003C199.452 127.023 199.409 127.056 199.377 127.098C199.345 127.141 199.326 127.192 199.322 127.245C199.317 127.298 199.328 127.351 199.352 127.398C199.376 127.446 199.413 127.485 199.459 127.513L209.631 133.578C209.67 133.602 209.703 133.634 209.727 133.673C209.751 133.712 209.766 133.757 209.77 133.802L210.516 145.636C210.521 145.688 210.54 145.739 210.571 145.781C210.602 145.824 210.644 145.857 210.693 145.878C210.741 145.898 210.794 145.905 210.847 145.898C210.899 145.891 210.948 145.869 210.989 145.836L219.923 138.042C219.959 138.012 220.001 137.991 220.046 137.98C220.092 137.969 220.139 137.97 220.184 137.981L231.672 140.923C231.723 140.937 231.776 140.936 231.827 140.92C231.877 140.905 231.922 140.875 231.956 140.835C231.99 140.795 232.012 140.746 232.02 140.694C232.028 140.642 232.021 140.589 231.999 140.541L227.353 129.623C227.333 129.583 227.322 129.538 227.322 129.493C227.322 129.448 227.333 129.403 227.353 129.363L233.704 119.343C233.733 119.299 233.748 119.247 233.749 119.195C233.75 119.142 233.736 119.09 233.709 119.045C233.682 119 233.642 118.964 233.595 118.94C233.548 118.917 233.495 118.907 233.443 118.912L221.628 119.961C221.582 119.966 221.536 119.959 221.493 119.941C221.451 119.923 221.413 119.895 221.385 119.858L213.822 110.754C213.787 110.718 213.743 110.692 213.695 110.678C213.646 110.665 213.596 110.664 213.547 110.676C213.498 110.689 213.454 110.713 213.418 110.748C213.382 110.783 213.356 110.827 213.342 110.876Z" stroke="black" stroke-width="2" stroke-miterlimit="10" stroke-linecap="round"/>
<path d="M116.364 35.6232L119.342 47.1049C119.353 47.1491 119.354 47.1953 119.343 47.2396C119.332 47.284 119.311 47.3251 119.282 47.3596L111.512 56.3181C111.476 56.3584 111.453 56.4078 111.444 56.4608C111.436 56.5138 111.442 56.5681 111.463 56.6175C111.484 56.667 111.519 56.7095 111.563 56.7402C111.607 56.7709 111.658 56.7886 111.712 56.7912L123.552 57.5008C123.597 57.5047 123.641 57.5194 123.68 57.5437C123.719 57.5679 123.752 57.601 123.776 57.6403L129.896 67.7937C129.923 67.8392 129.963 67.8762 130.01 67.9005C130.058 67.9247 130.111 67.9352 130.164 67.9308C130.217 67.9264 130.268 67.9072 130.31 67.8755C130.353 67.8437 130.386 67.8007 130.405 67.7512L134.742 56.7123C134.759 56.6695 134.785 56.6315 134.82 56.6018C134.855 56.5721 134.897 56.5517 134.942 56.5425L146.466 53.8556C146.518 53.8445 146.565 53.819 146.603 53.782C146.641 53.7449 146.668 53.6979 146.68 53.6464C146.692 53.595 146.689 53.5411 146.672 53.4911C146.654 53.4412 146.623 53.3972 146.581 53.3643L137.423 45.8251C137.388 45.796 137.36 45.7585 137.343 45.7162C137.326 45.6738 137.32 45.6278 137.326 45.5825L138.339 33.7673C138.342 33.7147 138.332 33.6621 138.307 33.6154C138.283 33.5687 138.246 33.5297 138.201 33.5027C138.155 33.4756 138.103 33.4617 138.051 33.4624C137.998 33.463 137.947 33.4783 137.902 33.5065L127.907 39.8872C127.866 39.9079 127.821 39.9187 127.776 39.9187C127.731 39.9187 127.686 39.9079 127.646 39.8872L116.728 35.2654C116.678 35.2481 116.624 35.2452 116.572 35.2569C116.521 35.2686 116.473 35.2945 116.435 35.3316C116.397 35.3688 116.371 35.4158 116.358 35.4673C116.346 35.5188 116.348 35.5728 116.364 35.6232Z" stroke="black" stroke-width="2" stroke-miterlimit="10" stroke-linecap="round"/>
<path d="M20.0409 1.12982L13.369 10.9556C13.3446 10.9943 13.3104 11.0258 13.27 11.0471C13.2295 11.0684 13.1842 11.0787 13.1385 11.0769L1.28092 11.18C1.22804 11.1797 1.17606 11.1944 1.13121 11.2224C1.08636 11.2504 1.05044 11.2906 1.02755 11.3383C1.00467 11.386 0.995748 11.4392 1.00194 11.4917C1.00813 11.5442 1.02916 11.5939 1.0625 11.6349L8.34088 20.9876C8.3695 21.0239 8.38884 21.0666 8.3973 21.1121C8.40575 21.1575 8.40311 21.2043 8.38945 21.2485L4.81689 32.5603C4.80128 32.611 4.80021 32.665 4.81364 32.7163C4.82706 32.7677 4.85456 32.8142 4.89301 32.8508C4.93145 32.8873 4.97923 32.9124 5.03117 32.9233C5.0831 32.9341 5.13709 32.9302 5.18694 32.9121L16.3349 28.8604C16.3781 28.8451 16.4244 28.8404 16.4698 28.8467C16.5152 28.853 16.5585 28.8702 16.5958 28.8968L26.2882 35.7688C26.3315 35.7993 26.3825 35.8171 26.4354 35.8202C26.4883 35.8233 26.541 35.8116 26.5876 35.7864C26.6342 35.7612 26.6729 35.7235 26.6993 35.6775C26.7256 35.6316 26.7388 35.5792 26.737 35.5262L26.3366 23.6746C26.3342 23.6292 26.3429 23.584 26.3619 23.5428C26.381 23.5016 26.4098 23.4656 26.4459 23.438L35.9806 16.3841C36.0239 16.3538 36.0576 16.3118 36.078 16.263C36.0984 16.2142 36.1045 16.1606 36.0956 16.1085C36.0867 16.0564 36.0632 16.0079 36.0278 15.9686C35.9924 15.9293 35.9465 15.9009 35.8956 15.8867L24.499 12.6115C24.454 12.5977 24.413 12.5735 24.3793 12.5408C24.3456 12.5081 24.32 12.4679 24.3048 12.4234L20.5444 1.17834C20.5248 1.12998 20.4924 1.0879 20.4506 1.05669C20.4088 1.02547 20.3592 1.00632 20.3073 1.00132C20.2554 0.996311 20.2031 1.00565 20.1561 1.0283C20.1091 1.05096 20.0693 1.08607 20.0409 1.12982Z" stroke="black" stroke-width="2" stroke-miterlimit="10" stroke-linecap="round"/>
<path d="M47.2985 29.4124C47.5468 29.4091 47.7852 29.3146 47.9684 29.147C48.1516 28.9795 48.267 28.7504 48.2924 28.5034C48.3179 28.2564 48.2516 28.0087 48.1064 27.8073C47.9612 27.6059 47.7472 27.4648 47.5048 27.4109L33.967 24.5117C33.834 24.4749 33.6948 24.4656 33.5581 24.4845C33.4214 24.5034 33.2901 24.5501 33.1721 24.6216C33.054 24.6931 32.9518 24.7879 32.8718 24.9003C32.7917 25.0127 32.7355 25.1403 32.7065 25.2752C32.6775 25.4102 32.6766 25.5496 32.7034 25.6849C32.7303 25.8203 32.7845 25.9487 32.8627 26.0624C32.941 26.176 33.0416 26.2725 33.1585 26.3459C33.2753 26.4192 33.406 26.4679 33.5424 26.4889L47.0802 29.3882C47.1517 29.4052 47.225 29.4134 47.2985 29.4124Z" fill="black"/>
<path d="M72.4998 35.0713C72.7462 35.0691 72.9833 34.9771 73.1668 34.8126C73.3502 34.6481 73.4674 34.4224 73.4964 34.1777C73.5254 33.933 73.4642 33.6862 73.3243 33.4834C73.1844 33.2805 72.9753 33.1357 72.7363 33.0759L60.1508 29.9219C60.0211 29.8877 59.8859 29.8795 59.753 29.898C59.6202 29.9164 59.4924 29.9611 59.3769 30.0293C59.2615 30.0976 59.1607 30.1881 59.0805 30.2956C59.0003 30.4031 58.9423 30.5255 58.9097 30.6556C58.8772 30.7857 58.8707 30.921 58.8909 31.0536C58.9111 31.1862 58.9575 31.3135 59.0273 31.4281C59.0971 31.5426 59.1888 31.6422 59.2974 31.721C59.4059 31.7998 59.5291 31.8562 59.6596 31.8871L72.2451 35.041C72.3287 35.0601 72.4141 35.0703 72.4998 35.0713Z" fill="black"/>
<path d="M101.814 41.9008C102.062 41.8974 102.3 41.803 102.483 41.6354C102.667 41.4678 102.782 41.2388 102.807 40.9918C102.833 40.7448 102.767 40.4971 102.621 40.2957C102.476 40.0942 102.262 39.9532 102.02 39.8992L86.8928 36.6179C86.7605 36.5826 86.6224 36.5745 86.4868 36.5941C86.3513 36.6137 86.2211 36.6606 86.1042 36.7319C85.9872 36.8032 85.886 36.8975 85.8065 37.0091C85.7271 37.1207 85.6712 37.2472 85.642 37.381C85.6129 37.5149 85.6111 37.6532 85.637 37.7877C85.6628 37.9222 85.7156 38.0501 85.7923 38.1636C85.869 38.2771 85.9679 38.3738 86.083 38.448C86.1981 38.5222 86.3272 38.5723 86.4622 38.5952L101.613 41.8765C101.679 41.8918 101.746 41.8999 101.814 41.9008Z" fill="black"/>
<path d="M157.924 73.5921C158.076 73.5904 158.227 73.5547 158.364 73.4875C158.502 73.4204 158.623 73.3235 158.718 73.2039C158.882 72.9922 158.956 72.724 158.923 72.4579C158.89 72.1919 158.753 71.9498 158.542 71.7846L145.271 61.3523C145.06 61.1858 144.791 61.1102 144.523 61.142C144.256 61.1739 144.012 61.3106 143.846 61.5221C143.679 61.7337 143.604 62.0027 143.636 62.27C143.667 62.5373 143.804 62.781 144.016 62.9475L157.293 73.3738C157.473 73.5141 157.695 73.5908 157.924 73.5921Z" fill="black"/>
<path d="M179.067 90.854C179.273 90.855 179.473 90.7931 179.642 90.6768C179.812 90.5605 179.941 90.3952 180.014 90.2032C180.086 90.0111 180.098 89.8015 180.049 89.6023C179.999 89.4032 179.889 89.2241 179.734 89.089L166.912 77.6195C166.815 77.5232 166.698 77.4479 166.57 77.3979C166.443 77.348 166.306 77.3246 166.169 77.329C166.032 77.3335 165.897 77.3658 165.773 77.4239C165.648 77.4821 165.537 77.5649 165.446 77.6673C165.354 77.7697 165.285 77.8897 165.241 78.0198C165.198 78.1499 165.181 78.2875 165.192 78.4243C165.204 78.561 165.242 78.6941 165.307 78.8154C165.371 78.9366 165.459 79.0436 165.566 79.1298L178.388 90.5811C178.573 90.7521 178.815 90.8492 179.067 90.854Z" fill="black"/>
<path d="M198.925 108.492C199.069 108.491 199.211 108.46 199.341 108.4C199.472 108.34 199.589 108.254 199.683 108.146C199.772 108.047 199.84 107.931 199.883 107.805C199.926 107.679 199.943 107.546 199.934 107.413C199.925 107.28 199.89 107.151 199.83 107.032C199.77 106.913 199.688 106.807 199.586 106.721L187.456 96.1004C187.252 95.9351 186.993 95.8551 186.732 95.8771C186.471 95.8992 186.228 96.0217 186.055 96.2188C185.883 96.4159 185.793 96.6723 185.805 96.9341C185.818 97.1959 185.931 97.4428 186.121 97.6227L198.252 108.243C198.439 108.405 198.678 108.493 198.925 108.492Z" fill="black"/>
</svg>
