<svg width="214" height="98" viewBox="0 0 214 98" fill="none" xmlns="http://www.w3.org/2000/svg">
<path d="M192.519 55.656L197.286 50.692C197.303 50.6721 197.316 50.6485 197.324 50.6229C197.331 50.5973 197.332 50.5703 197.328 50.5441L195.92 43.8021C195.913 43.772 195.916 43.7408 195.926 43.712C195.937 43.6832 195.955 43.6578 195.979 43.6388C196.003 43.6199 196.032 43.6079 196.063 43.6044C196.093 43.6009 196.124 43.606 196.152 43.619L202.348 46.6186C202.372 46.6307 202.399 46.637 202.426 46.637C202.453 46.637 202.479 46.6307 202.503 46.6186L208.488 43.2141C208.515 43.1983 208.545 43.1903 208.576 43.1912C208.607 43.1921 208.637 43.2019 208.663 43.2193C208.688 43.2367 208.708 43.261 208.72 43.2894C208.732 43.3178 208.736 43.3491 208.731 43.3796L207.795 50.1991C207.791 50.2251 207.795 50.2515 207.804 50.276C207.813 50.3005 207.828 50.3224 207.847 50.3399L212.949 54.9519C212.971 54.9728 212.986 54.9992 212.994 55.0283C213.002 55.0575 213.002 55.0882 212.994 55.1172C212.985 55.1462 212.969 55.1724 212.947 55.1929C212.925 55.2134 212.897 55.2275 212.868 55.2336L206.091 56.4517C206.065 56.4555 206.04 56.4659 206.019 56.4819C205.998 56.498 205.982 56.5191 205.971 56.5432L203.126 62.824C203.113 62.8516 203.092 62.8749 203.067 62.8912C203.041 62.9075 203.011 62.9161 202.98 62.9161C202.95 62.9161 202.92 62.9075 202.894 62.8912C202.868 62.8749 202.847 62.8516 202.834 62.824L199.581 56.758C199.57 56.7337 199.552 56.7131 199.529 56.6982C199.507 56.6833 199.481 56.6748 199.454 56.6735L192.614 55.9095C192.588 55.9029 192.564 55.8901 192.545 55.8723C192.525 55.8546 192.51 55.8323 192.5 55.8075C192.491 55.7826 192.488 55.7559 192.491 55.7295C192.494 55.7032 192.504 55.678 192.519 55.656Z" stroke="black" stroke-width="2" stroke-miterlimit="10" stroke-linecap="round"/>
<path d="M136.791 88.7958L141.558 83.8317C141.577 83.8125 141.59 83.7889 141.598 83.7631C141.605 83.7373 141.606 83.7101 141.6 83.6839L140.213 76.9419C140.207 76.9118 140.209 76.8806 140.22 76.8518C140.23 76.8229 140.248 76.7976 140.273 76.7786C140.297 76.7596 140.326 76.7477 140.356 76.7442C140.387 76.7407 140.417 76.7458 140.445 76.7588L146.642 79.7584C146.665 79.7704 146.691 79.7767 146.717 79.7767C146.744 79.7767 146.77 79.7704 146.793 79.7584L152.778 76.3539C152.805 76.3385 152.835 76.3309 152.866 76.332C152.897 76.3331 152.927 76.3428 152.953 76.36C152.978 76.3772 152.999 76.4013 153.011 76.4294C153.024 76.4576 153.029 76.4888 153.024 76.5194L152.077 83.3353C152.074 83.3615 152.077 83.3882 152.085 83.4132C152.094 83.4383 152.108 83.461 152.127 83.4797L157.214 88.1163C157.237 88.1366 157.254 88.163 157.263 88.1925C157.271 88.222 157.271 88.2533 157.263 88.2829C157.254 88.3124 157.238 88.3389 157.215 88.3593C157.192 88.3797 157.163 88.3931 157.133 88.398L150.359 89.6161C150.333 89.6212 150.308 89.6325 150.286 89.649C150.265 89.6655 150.248 89.6868 150.236 89.7112L147.398 95.9814C147.385 96.0088 147.364 96.0319 147.337 96.048C147.311 96.0641 147.281 96.0726 147.251 96.0726C147.22 96.0726 147.19 96.0641 147.164 96.048C147.138 96.0319 147.117 96.0088 147.103 95.9814L143.853 89.9119C143.841 89.888 143.823 89.8678 143.801 89.853C143.779 89.8381 143.753 89.8293 143.726 89.8274L136.886 89.0634C136.858 89.0578 136.832 89.045 136.81 89.0262C136.788 89.0075 136.772 88.9835 136.762 88.9565C136.753 88.9296 136.75 88.9006 136.755 88.8724C136.76 88.8443 136.773 88.8179 136.791 88.7958Z" stroke="black" stroke-width="2" stroke-miterlimit="10" stroke-linecap="round"/>
<path d="M97.9264 44.3337L102.693 39.3661C102.712 39.3469 102.726 39.3233 102.733 39.2975C102.741 39.2717 102.741 39.2445 102.736 39.2182L101.349 32.4762C101.342 32.4462 101.344 32.4147 101.354 32.3857C101.364 32.3567 101.383 32.3313 101.407 32.3124C101.432 32.2935 101.461 32.282 101.492 32.2792C101.523 32.2765 101.553 32.2825 101.581 32.2967L107.777 35.2927C107.8 35.3057 107.826 35.3125 107.853 35.3125C107.879 35.3125 107.905 35.3057 107.929 35.2927L113.914 31.8883C113.94 31.8739 113.97 31.8671 114.001 31.8686C114.031 31.8702 114.06 31.88 114.085 31.8971C114.111 31.9142 114.13 31.9378 114.143 31.9655C114.155 31.9931 114.16 32.0236 114.157 32.0538L113.22 38.8732C113.216 38.8998 113.219 38.9269 113.228 38.9521C113.237 38.9773 113.253 38.9998 113.273 39.0176L118.357 43.6542C118.379 43.675 118.396 43.7016 118.405 43.7313C118.413 43.7609 118.413 43.7923 118.405 43.8219C118.396 43.8516 118.38 43.8783 118.357 43.899C118.334 43.9198 118.306 43.9338 118.276 43.9394L111.502 45.154C111.476 45.1594 111.451 45.1707 111.429 45.1872C111.408 45.2037 111.391 45.2249 111.379 45.2491L108.541 51.5193C108.527 51.5467 108.506 51.5698 108.48 51.5859C108.454 51.602 108.424 51.6105 108.393 51.6105C108.363 51.6105 108.333 51.602 108.306 51.5859C108.28 51.5698 108.259 51.5467 108.245 51.5193L104.996 45.4462C104.983 45.4232 104.965 45.4036 104.943 45.3889C104.921 45.3742 104.895 45.3649 104.869 45.3617L98.0285 44.5978C97.9999 44.5938 97.9729 44.5822 97.9503 44.5643C97.9277 44.5464 97.9102 44.5227 97.8998 44.4958C97.8894 44.4688 97.8864 44.4396 97.8911 44.4111C97.8957 44.3826 97.9079 44.3559 97.9264 44.3337Z" stroke="black" stroke-width="2" stroke-miterlimit="10" stroke-linecap="round"/>
<path d="M39.0264 57.6418L43.7933 52.6777C43.812 52.6585 43.8257 52.6349 43.8331 52.6091C43.8405 52.5833 43.8413 52.556 43.8355 52.5298L42.4484 45.7984C42.4416 45.7683 42.4435 45.7369 42.454 45.7079C42.4644 45.6788 42.483 45.6534 42.5074 45.6345C42.5318 45.6157 42.561 45.6042 42.5918 45.6014C42.6225 45.5986 42.6534 45.6047 42.6808 45.6188L48.8771 48.6149C48.9005 48.6269 48.9264 48.6332 48.9527 48.6332C48.9791 48.6332 49.0051 48.6269 49.0285 48.6149L55.0135 45.2104C55.0402 45.196 55.0704 45.1892 55.1007 45.1908C55.131 45.1923 55.1602 45.2022 55.1853 45.2193C55.2104 45.2363 55.2303 45.26 55.2429 45.2876C55.2554 45.3152 55.2601 45.3458 55.2564 45.3759L54.3199 52.1954C54.3161 52.2219 54.3189 52.249 54.3282 52.2742C54.3374 52.2994 54.3527 52.3219 54.3728 52.3397L59.4566 56.9764C59.4794 56.9971 59.4959 57.0238 59.5044 57.0534C59.5129 57.083 59.5129 57.1144 59.5045 57.1441C59.4961 57.1737 59.4796 57.2004 59.4568 57.2212C59.434 57.2419 59.4059 57.2559 59.3756 57.2616L52.6019 58.4727C52.5754 58.478 52.5506 58.4893 52.5292 58.5058C52.5078 58.5223 52.4905 58.5435 52.4787 58.5677L49.627 64.8274C49.6132 64.8548 49.5921 64.8778 49.566 64.894C49.5399 64.9101 49.5098 64.9186 49.4791 64.9186C49.4484 64.9186 49.4183 64.9101 49.3922 64.894C49.3661 64.8778 49.345 64.8548 49.3312 64.8274L46.1063 58.7684C46.0938 58.745 46.0756 58.725 46.0535 58.7103C46.0314 58.6956 46.006 58.6865 45.9796 58.6839L39.139 57.9199C39.1075 57.9183 39.0771 57.9078 39.0515 57.8895C39.0258 57.8712 39.0058 57.846 38.994 57.8168C38.9822 57.7876 38.9789 57.7556 38.9846 57.7246C38.9904 57.6936 39.0049 57.6648 39.0264 57.6418Z" stroke="black" stroke-width="2" stroke-miterlimit="10" stroke-linecap="round"/>
<path d="M1.06346 13.4649L5.83036 8.5008C5.84885 8.48141 5.86237 8.45782 5.86973 8.43207C5.87709 8.40631 5.87806 8.37916 5.87261 8.35293L4.4855 1.61093C4.47933 1.58086 4.48162 1.54967 4.49216 1.52084C4.5027 1.49201 4.52108 1.46668 4.54519 1.44769C4.5693 1.42869 4.5982 1.41677 4.6287 1.41327C4.65919 1.40977 4.69004 1.41482 4.71783 1.42785L10.9142 4.42743C10.9376 4.43947 10.9635 4.44576 10.9899 4.44576C11.0162 4.44576 11.0421 4.43947 11.0655 4.42743L17.0506 1.02298C17.0771 1.00711 17.1076 0.999162 17.1385 1.00007C17.1694 1.00098 17.1994 1.0107 17.225 1.0281C17.2505 1.0455 17.2705 1.06984 17.2827 1.09825C17.2948 1.12667 17.2986 1.15796 17.2936 1.18845L16.3571 8.00791C16.3532 8.03394 16.356 8.06052 16.3652 8.08516C16.3745 8.1098 16.3898 8.13168 16.4099 8.14873L21.4936 12.7889C21.5167 12.8092 21.5336 12.8356 21.5423 12.8651C21.5509 12.8946 21.551 12.9259 21.5425 12.9554C21.5341 12.985 21.5173 13.0115 21.4943 13.0319C21.4713 13.0523 21.443 13.0657 21.4127 13.0706L14.639 14.2887C14.6126 14.2929 14.5876 14.3034 14.5661 14.3193C14.5447 14.3353 14.5274 14.3562 14.5158 14.3802L11.6781 20.654C11.6644 20.6814 11.6432 20.7045 11.6171 20.7206C11.591 20.7367 11.561 20.7452 11.5303 20.7452C11.4996 20.7452 11.4695 20.7367 11.4434 20.7206C11.4173 20.7045 11.3962 20.6814 11.3824 20.654L8.13287 14.588C8.12081 14.5642 8.10281 14.5439 8.08061 14.5291C8.0584 14.5143 8.03274 14.5054 8.00613 14.5035L1.16553 13.7606C1.13109 13.7606 1.09752 13.7499 1.06948 13.7299C1.04143 13.7099 1.02029 13.6817 1.00905 13.6491C0.997812 13.6166 0.997026 13.5813 1.00677 13.5483C1.01652 13.5153 1.03635 13.4861 1.06346 13.4649Z" stroke="black" stroke-width="2" stroke-miterlimit="10" stroke-linecap="round"/>
<path d="M182.221 64.3415C182.275 64.2417 182.357 64.1597 182.457 64.1057L188.889 60.7012C189.026 60.636 189.183 60.6262 189.327 60.6739C189.471 60.7216 189.591 60.8231 189.662 60.9571C189.733 61.0912 189.749 61.2475 189.707 61.3934C189.666 61.5392 189.569 61.6633 189.438 61.7398L183.01 65.1618C182.941 65.1982 182.867 65.2207 182.79 65.2282C182.713 65.2356 182.635 65.2279 182.561 65.2053C182.487 65.1827 182.419 65.1458 182.359 65.0967C182.299 65.0476 182.25 64.9871 182.214 64.9189C182.164 64.8306 182.138 64.7307 182.139 64.6293C182.141 64.5279 182.169 64.4286 182.221 64.3415Z" fill="black"/>
<path d="M170.385 71.4109C170.441 71.3127 170.524 71.2322 170.624 71.1785L177.053 67.7741C177.121 67.7317 177.197 67.7037 177.277 67.692C177.356 67.6802 177.437 67.6849 177.515 67.7058C177.593 67.7267 177.665 67.7632 177.728 67.8133C177.791 67.8633 177.843 67.9257 177.881 67.9967C177.919 68.0676 177.942 68.1456 177.949 68.2257C177.955 68.3059 177.945 68.3865 177.919 68.4627C177.894 68.5389 177.852 68.6089 177.798 68.6685C177.744 68.7281 177.679 68.7759 177.605 68.8091L171.163 72.203C171.05 72.2625 170.922 72.284 170.797 72.2645C170.671 72.2449 170.556 72.1854 170.467 72.0947C170.378 72.004 170.321 71.887 170.304 71.7612C170.288 71.6354 170.312 71.5076 170.374 71.3968L170.385 71.4109Z" fill="black"/>
<path d="M157.474 78.5085C157.528 78.408 157.612 78.3267 157.714 78.2762L164.143 74.8682C164.279 74.803 164.436 74.7932 164.58 74.8409C164.724 74.8886 164.844 74.99 164.915 75.1241C164.986 75.2582 165.002 75.4145 164.961 75.5604C164.919 75.7062 164.823 75.8303 164.692 75.9068L158.263 79.3148C158.151 79.3742 158.023 79.3957 157.897 79.3762C157.772 79.3567 157.656 79.2971 157.567 79.2064C157.479 79.1157 157.422 78.9987 157.405 78.8729C157.388 78.7471 157.413 78.6193 157.474 78.5085Z" fill="black"/>
<path d="M131.277 75.1357C131.327 75.0488 131.397 74.9752 131.482 74.921C131.614 74.8397 131.774 74.8141 131.925 74.8496C132.077 74.8852 132.209 74.9792 132.291 75.1111L136.125 81.2933C136.172 81.3587 136.205 81.433 136.222 81.5117C136.239 81.5904 136.24 81.6717 136.224 81.7506C136.209 81.8296 136.177 81.9045 136.131 81.9707C136.085 82.0369 136.026 82.093 135.958 82.1355C135.89 82.178 135.813 82.206 135.734 82.2178C135.654 82.2296 135.573 82.2249 135.495 82.2041C135.418 82.1832 135.345 82.1466 135.282 82.0965C135.219 82.0465 135.167 81.984 135.129 81.9129L131.305 75.7237C131.25 75.6367 131.218 75.5366 131.213 75.4334C131.208 75.3303 131.23 75.2277 131.277 75.1357Z" fill="black"/>
<path d="M121.979 61.3947C122.03 61.3061 122.103 61.2321 122.191 61.18C122.279 61.1278 122.378 61.0993 122.48 61.0972C122.583 61.095 122.683 61.1194 122.773 61.1678C122.863 61.2162 122.939 61.2871 122.993 61.3736L126.827 67.5558C126.874 67.6212 126.907 67.6955 126.924 67.7742C126.941 67.8528 126.942 67.9342 126.926 68.0131C126.911 68.0921 126.879 68.167 126.833 68.2332C126.787 68.2994 126.729 68.3555 126.66 68.398C126.592 68.4405 126.516 68.4685 126.436 68.4803C126.356 68.4921 126.275 68.4874 126.197 68.4666C126.12 68.4457 126.047 68.4091 125.984 68.359C125.921 68.3089 125.869 68.2464 125.831 68.1754L121.994 61.9932C121.939 61.9034 121.909 61.8009 121.906 61.6958C121.904 61.5908 121.929 61.4869 121.979 61.3947Z" fill="black"/>
<path d="M113.46 49.6992C113.509 49.6123 113.579 49.5387 113.664 49.4844C113.797 49.4032 113.956 49.3775 114.108 49.4131C114.259 49.4487 114.391 49.5426 114.473 49.6746L118.307 55.8568C118.354 55.9222 118.387 55.9965 118.404 56.0752C118.422 56.1538 118.422 56.2352 118.407 56.3141C118.391 56.3931 118.359 56.468 118.313 56.5342C118.268 56.6004 118.209 56.6565 118.14 56.699C118.072 56.7415 117.996 56.7695 117.916 56.7813C117.836 56.7931 117.755 56.7884 117.677 56.7676C117.6 56.7467 117.527 56.7101 117.464 56.66C117.401 56.6099 117.349 56.5474 117.311 56.4764L113.474 50.2942C113.419 50.2051 113.389 50.1031 113.386 49.9986C113.384 49.8941 113.409 49.7908 113.46 49.6992Z" fill="black"/>
<path d="M87.5477 42.4995C87.5873 42.4292 87.6408 42.3676 87.705 42.3186C87.7691 42.2695 87.8426 42.2341 87.9209 42.2143L94.9832 40.454C95.0585 40.4342 95.137 40.4294 95.2141 40.4402C95.2912 40.4509 95.3654 40.4768 95.4325 40.5164C95.4995 40.556 95.558 40.6085 95.6045 40.671C95.6511 40.7334 95.6848 40.8044 95.7037 40.8799C95.7226 40.9554 95.7262 41.034 95.7145 41.1109C95.7028 41.1879 95.6759 41.2618 95.6354 41.3283C95.595 41.3948 95.5417 41.4526 95.4787 41.4983C95.4157 41.5441 95.3442 41.5768 95.2684 41.5947L88.2025 43.355C88.0523 43.3902 87.8942 43.3648 87.7625 43.2845C87.6308 43.2041 87.5359 43.0752 87.4984 42.9255C87.4629 42.7822 87.4805 42.6309 87.5477 42.4995Z" fill="black"/>
<path d="M74.3453 46.5025C74.3849 46.4321 74.4385 46.3705 74.5026 46.3215C74.5668 46.2725 74.6402 46.237 74.7185 46.2173L81.7809 44.457C81.857 44.4349 81.9367 44.4285 82.0153 44.438C82.0939 44.4475 82.1699 44.4728 82.2385 44.5124C82.3071 44.552 82.3669 44.605 82.4145 44.6683C82.4621 44.7316 82.4965 44.8038 82.5154 44.8807C82.5344 44.9576 82.5377 45.0375 82.525 45.1157C82.5124 45.1939 82.484 45.2687 82.4417 45.3357C82.3994 45.4026 82.3441 45.4603 82.2789 45.5054C82.2137 45.5504 82.1401 45.5818 82.0626 45.5977L75.0002 47.358C74.8499 47.3931 74.6919 47.3677 74.5602 47.2874C74.4284 47.207 74.3336 47.0781 74.296 46.9285C74.2564 46.7855 74.2741 46.6326 74.3453 46.5025Z" fill="black"/>
<path d="M60.1115 50.259C60.1482 50.1904 60.1983 50.1298 60.2588 50.0809C60.3192 50.0319 60.3888 49.9955 60.4635 49.9738L67.5294 48.2135C67.6782 48.183 67.833 48.2113 67.9613 48.2924C68.0897 48.3735 68.1817 48.5011 68.2181 48.6485C68.2545 48.796 68.2325 48.9517 68.1566 49.0833C68.0807 49.2148 67.9569 49.3119 67.8111 49.3542L60.7487 51.1145C60.5984 51.1506 60.4399 51.1256 60.3079 51.0451C60.176 50.9646 60.0813 50.8351 60.0446 50.685C60.0103 50.5397 60.0343 50.3867 60.1115 50.259Z" fill="black"/>
<path d="M34.8403 43.5099C34.8892 43.4222 34.9594 43.3483 35.0445 43.2951C35.1768 43.214 35.3357 43.1885 35.4868 43.2241C35.6378 43.2597 35.7686 43.3535 35.8507 43.4852L39.6882 49.671C39.7704 49.8035 39.7965 49.9633 39.7609 50.1152C39.7252 50.2671 39.6307 50.3985 39.4981 50.4807C39.3655 50.5629 39.2057 50.589 39.0538 50.5534C38.902 50.5177 38.7705 50.4232 38.6884 50.2906L34.8544 44.1048C34.7986 44.0162 34.7678 43.914 34.7654 43.8093C34.7629 43.7045 34.7888 43.6011 34.8403 43.5099Z" fill="black"/>
<path d="M25.5494 29.7725C25.5991 29.6828 25.6714 29.6077 25.7591 29.5546C25.8468 29.5015 25.9468 29.4723 26.0493 29.4698C26.1518 29.4673 26.2532 29.4916 26.3433 29.5404C26.4335 29.5892 26.5094 29.6607 26.5634 29.7478L30.3973 35.9406C30.4443 36.006 30.4773 36.0803 30.4944 36.159C30.5114 36.2377 30.5121 36.319 30.4965 36.3979C30.4808 36.4769 30.4491 36.5518 30.4033 36.618C30.3575 36.6842 30.2986 36.7403 30.2302 36.7828C30.1619 36.8253 30.0855 36.8533 30.0059 36.8651C29.9263 36.8769 29.8451 36.8722 29.7673 36.8514C29.6896 36.8305 29.617 36.7939 29.554 36.7438C29.4909 36.6937 29.4389 36.6313 29.401 36.5602L25.5635 30.378C25.5057 30.2881 25.4738 30.1841 25.4713 30.0772C25.4688 29.9704 25.4958 29.8649 25.5494 29.7725Z" fill="black"/>
<path d="M17.0294 18.0733C17.0793 17.9865 17.1493 17.9128 17.2336 17.8586C17.3664 17.7773 17.5259 17.7517 17.6775 17.7873C17.8291 17.8229 17.9605 17.9168 18.0433 18.0487L21.8773 24.2344C21.9475 24.3661 21.965 24.5195 21.9264 24.6635C21.8877 24.8076 21.7957 24.9316 21.669 25.0104C21.5423 25.0892 21.3904 25.1169 21.2441 25.0878C21.0978 25.0588 20.9679 24.9752 20.8809 24.8541L17.0434 18.6683C16.9887 18.5792 16.9586 18.4773 16.9561 18.3727C16.9536 18.2682 16.9789 18.1649 17.0294 18.0733Z" fill="black"/>
</svg>
