<svg width="84" height="83" viewBox="0 0 84 83" fill="none" xmlns="http://www.w3.org/2000/svg">
<path d="M82.9586 41.5127C82.9586 51.0567 79.8757 59.0592 74.9846 65.3648C71.4985 69.8051 67.1506 73.4947 62.2023 76.2118C56.0001 79.6615 49.0844 81.6307 41.9953 81.9657C25.182 82.6755 11.1666 72.3026 4.75213 57.7509C2.69972 53.095 1.46748 48.1194 1.10973 43.0438C1.06828 42.5257 1.04236 42.0257 1.02422 41.5127C0.195216 18.8653 20.7805 2.45617 41.9953 1.05981C46.8218 0.771937 51.6539 1.52559 56.1635 3.26963C61.9207 5.49879 67.1054 8.98921 71.3369 13.4845C78.3731 20.8808 82.9586 30.8704 82.9586 41.5127Z" stroke="black" stroke-width="2" stroke-miterlimit="10" stroke-linecap="round"/>
<path d="M71.3265 13.4846C69.0274 14.0421 66.6141 13.8995 64.3966 13.0752C57.1738 10.5001 55.8215 6.48464 56.1531 3.26965C61.9103 5.49882 67.095 8.98923 71.3265 13.4846Z" stroke="black" stroke-width="2" stroke-miterlimit="10" stroke-linecap="round"/>
<path d="M4.74189 57.7509C2.68947 53.095 1.45717 48.1195 1.09943 43.0438C4.53721 42.9324 8.21074 43.777 9.96979 47.2951C11.6667 50.6966 8.56568 54.5644 4.74189 57.7509Z" stroke="black" stroke-width="2" stroke-miterlimit="10" stroke-linecap="round"/>
<path d="M74.9873 65.3648C71.5012 69.8051 67.1533 73.4947 62.205 76.2118C62.5081 72.5357 63.775 68.6135 67.2387 66.0746C70.0651 64.0047 72.7101 64.1964 74.9873 65.3648Z" stroke="black" stroke-width="2" stroke-miterlimit="10" stroke-linecap="round"/>
<path d="M19.5474 24.0621C22.607 27.5284 30.5551 26.2823 32.7986 22.1269C35.0421 17.9715 33.6146 7.25144 24.4411 13.8213C15.2677 20.3912 19.5474 24.0621 19.5474 24.0621Z" stroke="black" stroke-width="2" stroke-miterlimit="10" stroke-linecap="round"/>
<path d="M29.9437 55.0489C33.6768 48.0541 47.2752 63.4581 41.9747 66.8959C36.6742 70.3337 26.6821 61.1628 29.9437 55.0489Z" stroke="black" stroke-width="2" stroke-miterlimit="10" stroke-linecap="round"/>
<path d="M61.9305 32.6242C64.7802 30.9947 70.306 33.645 70.306 39.9635C70.306 46.2821 55.8321 47.5127 54.2026 41.4946C52.573 35.4765 59.0756 34.2563 61.9305 32.6242Z" stroke="black" stroke-width="2" stroke-miterlimit="10" stroke-linecap="round"/>
<path d="M22.278 26.1528C22.1779 26.1526 22.0808 26.1178 22.0034 26.0544C20.8997 25.1425 20.6148 21.7565 20.5707 21.0855C20.5668 21.029 20.5741 20.9723 20.5921 20.9187C20.6101 20.865 20.6385 20.8154 20.6757 20.7727C20.7128 20.73 20.758 20.695 20.8087 20.6698C20.8593 20.6446 20.9146 20.6296 20.971 20.6257C21.0275 20.6218 21.0841 20.629 21.1378 20.647C21.1915 20.665 21.2411 20.6934 21.2838 20.7306C21.3265 20.7677 21.3615 20.8129 21.3867 20.8636C21.4119 20.9143 21.4269 20.9694 21.4308 21.0259C21.5293 22.4352 21.9179 24.8627 22.5526 25.386C22.6257 25.4414 22.6793 25.5186 22.7056 25.6065C22.732 25.6944 22.7297 25.7884 22.6992 25.8749C22.6686 25.9614 22.6113 26.0359 22.5356 26.0877C22.4599 26.1396 22.3697 26.166 22.278 26.1632V26.1528Z" fill="black"/>
<path d="M24.7468 26.1528C24.6829 26.1528 24.6198 26.1386 24.562 26.1113C24.5042 26.0839 24.4532 26.0442 24.4126 25.9948C23.6769 25.0984 23.2468 20.9301 23.1691 20.1036C23.1583 19.9896 23.1931 19.8759 23.2659 19.7876C23.3388 19.6992 23.4437 19.6433 23.5577 19.6321C23.6143 19.6261 23.6715 19.6314 23.726 19.6477C23.7805 19.664 23.8312 19.6911 23.8752 19.7273C23.9191 19.7635 23.9553 19.8081 23.9818 19.8585C24.0082 19.9089 24.0244 19.964 24.0292 20.0207C24.2158 21.9689 24.664 24.943 25.081 25.4455C25.1532 25.5345 25.1874 25.6482 25.1762 25.7622C25.1651 25.8761 25.1094 25.9811 25.0214 26.0544C24.9444 26.1185 24.8471 26.1534 24.7468 26.1528Z" fill="black"/>
<path d="M27.2883 25.7176C27.2243 25.7175 27.1612 25.7034 27.1034 25.676C27.0457 25.6487 26.9947 25.6089 26.9541 25.5595C26.2184 24.6632 25.7909 20.4948 25.7106 19.6684C25.7017 19.6102 25.7049 19.5507 25.7198 19.4937C25.7348 19.4367 25.7612 19.3834 25.7974 19.337C25.8337 19.2906 25.8791 19.252 25.9308 19.2238C25.9825 19.1955 26.0395 19.1781 26.0981 19.1727C26.1568 19.1672 26.2159 19.1737 26.2719 19.1919C26.328 19.2101 26.3797 19.2396 26.424 19.2785C26.4682 19.3174 26.5041 19.3649 26.5293 19.4181C26.5545 19.4714 26.5686 19.5292 26.5707 19.5881C26.7572 21.5337 27.2054 24.5103 27.6225 25.0103C27.6946 25.0992 27.7288 25.213 27.7177 25.327C27.7065 25.4409 27.6509 25.5459 27.5629 25.6191C27.4858 25.6833 27.3885 25.7182 27.2883 25.7176Z" fill="black"/>
<path d="M29.879 24.7254C29.8146 24.7256 29.7511 24.7115 29.6929 24.6842C29.6346 24.6568 29.5832 24.6169 29.5422 24.5674C28.8091 23.671 28.379 19.5026 28.3013 18.6762C28.2974 18.5659 28.3358 18.4582 28.4087 18.3753C28.4816 18.2923 28.5835 18.2404 28.6934 18.2301C28.8034 18.2199 28.9131 18.252 29.0001 18.32C29.0871 18.388 29.1448 18.4867 29.1614 18.5959C29.3453 20.5415 29.7961 23.5181 30.1977 24.0207C30.2498 24.0836 30.283 24.1601 30.2933 24.2411C30.3036 24.3222 30.2906 24.4045 30.2558 24.4784C30.221 24.5524 30.1659 24.6149 30.0968 24.6586C30.0278 24.7023 29.9478 24.7255 29.8661 24.7254H29.879Z" fill="black"/>
<path d="M32.3997 23.3238C32.3357 23.3238 32.2726 23.3096 32.2148 23.2823C32.157 23.255 32.106 23.2152 32.0655 23.1658C31.3323 22.2694 30.9022 18.1011 30.8219 17.2746C30.8109 17.1603 30.8458 17.0462 30.919 16.9575C30.9921 16.8688 31.0974 16.8128 31.2118 16.8019C31.3262 16.7909 31.4403 16.8258 31.529 16.8989C31.6177 16.972 31.6736 17.0773 31.6846 17.1917C31.8686 19.1399 32.3167 22.114 32.7338 22.6166C32.8066 22.7052 32.8412 22.8191 32.8301 22.9333C32.8189 23.0475 32.7628 23.1525 32.6742 23.2254C32.5972 23.2896 32.4999 23.3244 32.3997 23.3238Z" fill="black"/>
<path d="M30.3375 61.8545C30.2318 61.8541 30.1298 61.8152 30.0507 61.7451C29.9716 61.6751 29.9207 61.5786 29.9074 61.4737C29.6769 59.5255 31.3789 56.5152 31.4618 56.3883C31.5212 56.2941 31.6147 56.2265 31.7227 56.1994C31.8307 56.1724 31.9449 56.188 32.0417 56.2431C32.1385 56.2981 32.2103 56.3884 32.2422 56.495C32.2741 56.6017 32.2637 56.7165 32.2131 56.8157C32.195 56.8442 30.5784 59.7069 30.7779 61.3727C30.7911 61.4863 30.7586 61.6006 30.6877 61.6904C30.6168 61.7802 30.5132 61.8383 30.3996 61.8519L30.3375 61.8545Z" fill="black"/>
<path d="M31.8452 63.7146C31.7397 63.7147 31.6377 63.6759 31.5589 63.6057C31.4801 63.5354 31.4299 63.4387 31.4178 63.3338C31.1846 61.3856 32.8867 58.3753 32.9592 58.2483C32.9858 58.1963 33.0226 58.1501 33.0676 58.1127C33.1125 58.0752 33.1645 58.0473 33.2205 58.0305C33.2765 58.0137 33.3354 58.0085 33.3935 58.0151C33.4516 58.0217 33.5077 58.04 33.5586 58.0689C33.6094 58.0979 33.6538 58.1368 33.6892 58.1833C33.7245 58.2299 33.7501 58.2832 33.7643 58.3399C33.7785 58.3966 33.781 58.4556 33.7718 58.5134C33.7625 58.5711 33.7417 58.6264 33.7105 58.6758C33.6923 58.7043 32.0758 61.567 32.2753 63.2302C32.2884 63.3441 32.2561 63.4587 32.1853 63.5489C32.1145 63.6391 32.0109 63.6978 31.897 63.712L31.8452 63.7146Z" fill="black"/>
<path d="M33.7518 65.6989C33.6459 65.6991 33.5437 65.6604 33.4644 65.5902C33.3852 65.52 33.3343 65.4232 33.3217 65.3181C33.0885 63.37 34.7906 60.3596 34.8631 60.2327C34.9226 60.1385 35.0159 60.0709 35.1239 60.0438C35.2319 60.0168 35.3462 60.0324 35.4429 60.0875C35.5397 60.1425 35.6116 60.2328 35.6435 60.3394C35.6754 60.4461 35.665 60.561 35.6144 60.6601C35.5989 60.6886 33.9823 63.5513 34.1792 65.2171C34.1861 65.2732 34.1818 65.3302 34.1667 65.3847C34.1515 65.4392 34.1257 65.4901 34.0908 65.5347C34.0559 65.5792 34.0125 65.6164 33.9633 65.6441C33.914 65.6719 33.8597 65.6896 33.8036 65.6964L33.7518 65.6989Z" fill="black"/>
<path d="M36.2622 67.3414C36.1566 67.3415 36.0547 67.3027 35.9759 67.2325C35.8971 67.1623 35.8469 67.0655 35.8348 66.9606C35.6016 65.0125 37.3037 61.9995 37.3892 61.8726C37.4462 61.773 37.5404 61.7001 37.6512 61.67C37.762 61.6398 37.8802 61.6549 37.9798 61.712C38.0794 61.769 38.1523 61.8633 38.1824 61.974C38.2126 62.0848 38.1975 62.203 38.1404 62.3026C38.1249 62.3311 36.5083 65.1912 36.7052 66.857C36.7121 66.9135 36.7077 66.9708 36.6924 67.0256C36.6771 67.0804 36.6512 67.1316 36.6161 67.1764C36.581 67.2212 36.5373 67.2585 36.4877 67.2864C36.4381 67.3143 36.3835 67.3321 36.327 67.3389L36.2622 67.3414Z" fill="black"/>
<path d="M38.9954 68.1109C38.8897 68.1105 38.7877 68.0716 38.7086 68.0015C38.6295 67.9314 38.5785 67.8349 38.5653 67.7301C38.3347 65.7819 40.0368 62.769 40.1197 62.642C40.1476 62.5928 40.1851 62.5495 40.2298 62.5148C40.2746 62.48 40.3257 62.4544 40.3804 62.4395C40.435 62.4246 40.492 62.4206 40.5482 62.4278C40.6044 62.435 40.6586 62.4532 40.7077 62.4814C40.8073 62.5385 40.8804 62.6325 40.911 62.7431C40.9415 62.8538 40.9272 62.972 40.871 63.0721C40.8529 63.1006 39.2363 65.9606 39.4358 67.6264C39.4489 67.7404 39.4166 67.8549 39.3458 67.9452C39.2749 68.0354 39.1714 68.094 39.0575 68.1083L38.9954 68.1109Z" fill="black"/>
<path d="M57.3448 45.0904C57.2855 45.0904 57.2269 45.0782 57.1725 45.0546C57.1182 45.0309 57.0692 44.9964 57.0288 44.9531C56.0599 43.9168 56.3526 39.9272 56.4226 39.1371C56.4394 39.0289 56.4966 38.9311 56.5827 38.8634C56.6688 38.7958 56.7773 38.7633 56.8865 38.7725C56.9956 38.7817 57.0971 38.8319 57.1706 38.913C57.2442 38.9942 57.2842 39.1001 57.2826 39.2096C57.1272 41.0231 57.1402 43.8132 57.6583 44.3598C57.737 44.4433 57.7792 44.5546 57.7758 44.6693C57.7724 44.7839 57.7236 44.8925 57.6402 44.9712C57.5611 45.048 57.455 45.0907 57.3448 45.0904Z" fill="black"/>
<path d="M60.1013 45.3987C60.0426 45.3991 59.9845 45.3874 59.9305 45.3642C59.8766 45.341 59.828 45.3069 59.7879 45.264C58.819 44.2277 59.1091 40.2381 59.1791 39.4454C59.1803 39.3862 59.1936 39.3278 59.2183 39.274C59.243 39.2202 59.2785 39.172 59.3226 39.1324C59.3667 39.0928 59.4184 39.0627 59.4746 39.044C59.5308 39.0252 59.5902 39.0182 59.6492 39.0234C59.7082 39.0285 59.7656 39.0457 59.8177 39.074C59.8698 39.1022 59.9155 39.1408 59.952 39.1874C59.9886 39.234 60.0152 39.2876 60.0302 39.3449C60.0452 39.4022 60.0482 39.462 60.0392 39.5205C59.8837 41.334 59.8967 44.1215 60.4148 44.6707C60.4734 44.7317 60.5127 44.8087 60.5278 44.8919C60.5429 44.9752 60.5331 45.061 60.4997 45.1387C60.4662 45.2165 60.4106 45.2826 60.3397 45.3288C60.2689 45.375 60.1859 45.3994 60.1013 45.3987Z" fill="black"/>
<path d="M63.1583 45.3987C63.0996 45.399 63.0415 45.3872 62.9876 45.364C62.9336 45.3408 62.885 45.3068 62.8448 45.264C61.8759 44.2277 62.1687 40.2381 62.236 39.4454C62.246 39.331 62.301 39.2253 62.3889 39.1514C62.4769 39.0776 62.5906 39.0417 62.705 39.0516C62.8194 39.0616 62.9251 39.1166 62.9989 39.2045C63.0728 39.2925 63.1087 39.4061 63.0988 39.5205C62.9433 41.334 62.9563 44.1215 63.4744 44.6707C63.5332 44.7319 63.5725 44.8091 63.5875 44.8926C63.6025 44.9761 63.5925 45.0621 63.5588 45.14C63.525 45.2178 63.4689 45.2839 63.3977 45.3299C63.3264 45.3759 63.2432 45.3999 63.1583 45.3987Z" fill="black"/>
<path d="M66.1402 44.6707C66.0813 44.6707 66.023 44.6585 65.9691 44.6348C65.9151 44.6112 65.8666 44.5767 65.8267 44.5334C64.8577 43.4972 65.1505 39.5076 65.2179 38.7174C65.2284 38.6033 65.2836 38.4979 65.3714 38.4241C65.4592 38.3504 65.5725 38.3143 65.6868 38.3237C65.7431 38.3285 65.7979 38.3445 65.8481 38.3706C65.8982 38.3967 65.9427 38.4324 65.9791 38.4757C66.0154 38.519 66.0428 38.5691 66.0598 38.623C66.0768 38.6769 66.083 38.7337 66.078 38.79C65.9226 40.6034 65.9355 43.3936 66.4536 43.9402C66.4929 43.9814 66.5236 44.0299 66.5439 44.083C66.5643 44.1362 66.5739 44.1928 66.5722 44.2497C66.5705 44.3065 66.5576 44.3625 66.5341 44.4143C66.5106 44.4661 66.4771 44.5128 66.4355 44.5516C66.3564 44.6283 66.2504 44.6711 66.1402 44.6707Z" fill="black"/>
<path d="M68.8836 43.2174C68.8243 43.2174 68.7657 43.2052 68.7113 43.1815C68.657 43.1579 68.608 43.1234 68.5676 43.0801C67.6013 42.0438 67.8914 38.0542 67.9613 37.2615C67.9719 37.148 68.0268 37.0433 68.1141 36.97C68.2014 36.8968 68.3141 36.8609 68.4277 36.8703C68.4842 36.8749 68.5393 36.8906 68.5898 36.9165C68.6402 36.9425 68.685 36.9781 68.7216 37.0215C68.7582 37.0648 68.7859 37.115 68.803 37.1691C68.8202 37.2232 68.8264 37.2801 68.8215 37.3366C68.666 39.1501 68.679 41.9376 69.1971 42.4868C69.2757 42.5703 69.318 42.6816 69.3146 42.7963C69.3112 42.9109 69.2624 43.0195 69.179 43.0982C69.0999 43.175 68.9939 43.2177 68.8836 43.2174Z" fill="black"/>
<path d="M57.2983 8.62712C57.2322 8.62743 57.1669 8.61238 57.1075 8.58316C57.0482 8.55394 56.9964 8.51135 56.9563 8.45873C56.8866 8.36767 56.856 8.25267 56.8711 8.13901C56.8861 8.02534 56.9457 7.9223 57.0366 7.85252C57.0574 7.83698 59.0418 6.29813 58.9252 4.68675C58.9204 4.57425 58.9595 4.46429 59.0344 4.38021C59.1093 4.29613 59.214 4.24457 59.3264 4.23647C59.4387 4.22838 59.5497 4.26439 59.6359 4.33686C59.7221 4.40933 59.7766 4.51254 59.7879 4.62458C59.9382 6.69709 57.6584 8.46651 57.56 8.53904C57.485 8.59671 57.3929 8.62771 57.2983 8.62712Z" fill="black"/>
<path d="M59.3631 10.0416C59.2728 10.041 59.1849 10.0122 59.1117 9.95917C59.0386 9.90611 58.9839 9.83148 58.9553 9.74576C58.9267 9.66003 58.9257 9.56751 58.9524 9.48117C58.9791 9.39484 59.0321 9.31903 59.1041 9.26438C59.1248 9.24884 61.1092 7.70999 60.9953 6.09861C60.9912 6.04214 60.9983 5.98541 61.0161 5.93167C61.034 5.87794 61.0622 5.82824 61.0992 5.78542C61.1363 5.7426 61.1814 5.70749 61.232 5.68211C61.2826 5.65672 61.3377 5.64156 61.3942 5.63747C61.4507 5.63339 61.5074 5.64047 61.5611 5.65831C61.6149 5.67616 61.6646 5.7044 61.7074 5.74145C61.7502 5.7785 61.7853 5.82362 61.8107 5.87423C61.8361 5.92485 61.8513 5.97996 61.8554 6.03644C62.0056 8.10895 59.7258 9.87836 59.63 9.95349C59.5534 10.0119 59.4594 10.0429 59.3631 10.0416Z" fill="black"/>
<path d="M61.4253 11.811C61.3349 11.8104 61.247 11.7816 61.1739 11.7286C61.1007 11.6755 61.046 11.6009 61.0174 11.5151C60.9889 11.4294 60.9878 11.3369 61.0145 11.2506C61.0412 11.1642 61.0942 11.0884 61.1662 11.0338C61.1869 11.0182 63.1714 9.47938 63.0548 7.868C63.0469 7.75376 63.0844 7.64103 63.1591 7.55422C63.2338 7.46742 63.3396 7.41354 63.4538 7.40427C63.5681 7.39778 63.6805 7.43608 63.767 7.51104C63.8536 7.586 63.9076 7.69174 63.9175 7.80582C64.0678 9.87834 61.788 11.6452 61.6895 11.7203C61.6142 11.7794 61.5211 11.8114 61.4253 11.811Z" fill="black"/>
<path d="M64.5987 13.5804C64.5075 13.5815 64.4184 13.5537 64.3441 13.5008C64.2698 13.448 64.2143 13.3729 64.1855 13.2864C64.1567 13.1999 64.156 13.1065 64.1837 13.0197C64.2114 12.9328 64.266 12.857 64.3396 12.8032C64.3578 12.7877 66.3422 11.2488 66.2282 9.63747C66.2196 9.52307 66.2569 9.40996 66.3317 9.323C66.4065 9.23604 66.5128 9.18235 66.6272 9.17374C66.7415 9.16725 66.8539 9.20555 66.9405 9.28051C67.027 9.35547 67.081 9.46121 67.0909 9.57529C67.2386 11.6478 64.9614 13.4172 64.8629 13.4898C64.7874 13.5485 64.6944 13.5805 64.5987 13.5804Z" fill="black"/>
<path d="M7.27296 55.8286C7.22061 55.8295 7.16862 55.8198 7.12009 55.8001C5.65896 55.2406 4.33255 53.1758 4.27038 53.0877C4.23502 53.04 4.20989 52.9855 4.1965 52.9277C4.18312 52.8698 4.18178 52.8098 4.19258 52.7514C4.20338 52.6931 4.22605 52.6375 4.25925 52.5883C4.29245 52.539 4.33547 52.4972 4.38555 52.4653C4.43564 52.4334 4.49172 52.4121 4.55038 52.4028C4.60903 52.3936 4.66897 52.3965 4.72646 52.4113C4.78395 52.4262 4.83774 52.4528 4.88452 52.4894C4.93129 52.526 4.97007 52.5718 4.99836 52.624C5.01132 52.6421 6.22888 54.5359 7.42058 54.9945C7.51634 55.0292 7.59665 55.0969 7.6472 55.1853C7.69774 55.2738 7.71526 55.3773 7.69659 55.4775C7.67793 55.5776 7.62432 55.6679 7.5453 55.7322C7.46629 55.7965 7.36704 55.8307 7.26518 55.8286H7.27296Z" fill="black"/>
<path d="M8.58891 53.3675C8.53558 53.3672 8.48285 53.3566 8.4335 53.3364C6.97497 52.7768 5.64856 50.7121 5.58379 50.624C5.54844 50.5763 5.52324 50.5218 5.50986 50.4639C5.49647 50.4061 5.49513 50.3461 5.50594 50.2877C5.51674 50.2293 5.53946 50.1738 5.57266 50.1245C5.60586 50.0753 5.64882 50.0334 5.69891 50.0015C5.74899 49.9696 5.80514 49.9484 5.86379 49.9391C5.92245 49.9298 5.98239 49.9327 6.03988 49.9476C6.09736 49.9625 6.15116 49.9891 6.19793 50.0257C6.24471 50.0622 6.28342 50.1081 6.31172 50.1603C6.32467 50.181 7.5423 52.0722 8.734 52.5307C8.82854 52.5668 8.90744 52.635 8.95695 52.7232C9.00645 52.8115 9.02344 52.9144 9.00495 53.0139C8.98647 53.1134 8.93365 53.2033 8.85575 53.2679C8.77784 53.3325 8.67974 53.3677 8.57853 53.3675H8.58891Z" fill="black"/>
<path d="M9.90502 50.8261C9.85197 50.8255 9.79938 50.8158 9.74956 50.7976C8.29102 50.2354 6.96461 48.1733 6.89985 48.0852C6.86635 48.0374 6.84291 47.9834 6.83084 47.9263C6.81877 47.8692 6.81835 47.8103 6.82964 47.7531C6.84093 47.6958 6.86366 47.6415 6.8965 47.5933C6.92933 47.545 6.97159 47.504 7.02071 47.4725C7.06984 47.441 7.12485 47.4198 7.18238 47.4102C7.23991 47.4005 7.29877 47.4026 7.35549 47.4162C7.4122 47.4299 7.4656 47.4549 7.51241 47.4897C7.55921 47.5246 7.59845 47.5685 7.62783 47.6189C7.62783 47.6396 8.85842 49.5308 10.0501 49.9893C10.1447 50.0254 10.2235 50.0936 10.273 50.1819C10.3225 50.2701 10.3395 50.373 10.321 50.4725C10.3025 50.572 10.2498 50.6619 10.1719 50.7265C10.094 50.7911 9.99586 50.8263 9.89465 50.8261H9.90502Z" fill="black"/>
<path d="M71.8913 69.3233C71.7972 69.3211 71.7063 69.2883 71.6323 69.23C70.596 68.4218 70.0183 66.7352 69.6349 65.6213C69.549 65.3464 69.4478 65.0765 69.3318 64.813C69.2431 64.7412 69.1867 64.6371 69.1748 64.5237C69.1629 64.4102 69.1965 64.2967 69.2683 64.2081C69.3401 64.1194 69.4442 64.063 69.5576 64.0511C69.6711 64.0392 69.7846 64.0728 69.8732 64.1446C70.0857 64.2923 70.1893 64.5669 70.4535 65.3389C70.8033 66.3596 71.3318 67.8984 72.166 68.5487C72.2556 68.6196 72.3136 68.723 72.3277 68.8364C72.3418 68.9498 72.3106 69.0642 72.241 69.1549C72.2002 69.2086 72.1472 69.2518 72.0864 69.2811C72.0256 69.3104 71.9588 69.3248 71.8913 69.3233Z" fill="black"/>
<path d="M69.4407 71.5176C69.3466 71.5172 69.2554 71.4853 69.1816 71.4269C68.1453 70.6186 67.5651 68.9321 67.1816 67.8155C67.0959 67.5415 66.9946 67.2725 66.8785 67.0099C66.8002 66.9349 66.7528 66.8332 66.7459 66.725C66.7389 66.6168 66.7728 66.51 66.8409 66.4256C66.909 66.3412 67.0063 66.2855 67.1135 66.2694C67.2207 66.2534 67.3301 66.2781 67.42 66.3389C67.6324 66.4891 67.736 66.7637 68.0003 67.5358C68.35 68.5539 68.8785 70.0927 69.7126 70.7456C69.7846 70.8002 69.8377 70.876 69.8644 70.9624C69.8911 71.0487 69.89 71.1412 69.8615 71.2269C69.8329 71.3127 69.7782 71.3873 69.705 71.4403C69.6319 71.4934 69.5439 71.5222 69.4536 71.5228L69.4407 71.5176Z" fill="black"/>
<path d="M66.9874 73.7145C66.8935 73.713 66.8026 73.6812 66.7283 73.6238C65.692 72.8129 65.1117 71.129 64.7283 70.0124C64.6425 69.7384 64.5413 69.4694 64.4252 69.2068C64.3468 69.1318 64.2995 69.0301 64.2925 68.9219C64.2856 68.8137 64.3195 68.7069 64.3876 68.6225C64.4557 68.5381 64.553 68.4824 64.6602 68.4663C64.7674 68.4503 64.8768 68.475 64.9666 68.5358C65.1791 68.6834 65.2827 68.9581 65.5469 69.7327C65.8967 70.7508 66.4251 72.2896 67.2593 72.9399C67.3313 72.9945 67.3844 73.0703 67.4111 73.1567C67.4378 73.243 67.4367 73.3355 67.4082 73.4213C67.3796 73.507 67.3249 73.5816 67.2517 73.6347C67.1786 73.6877 67.0906 73.7165 67.0003 73.7171L66.9874 73.7145Z" fill="black"/>
<path d="M6.25222 36.505C6.18154 36.505 6.11194 36.4876 6.04951 36.4545C5.98708 36.4213 5.93373 36.3734 5.89411 36.3149C5.85449 36.2563 5.82983 36.189 5.82226 36.1187C5.81469 36.0484 5.82441 35.9774 5.85066 35.9117C7.55789 31.6942 8.70037 29.2667 10.5864 26.8704C10.621 26.8243 10.6646 26.7856 10.7144 26.7566C10.7643 26.7275 10.8195 26.7088 10.8767 26.7014C10.9339 26.694 10.992 26.6981 11.0476 26.7135C11.1032 26.7289 11.1551 26.7552 11.2003 26.791C11.2456 26.8267 11.2832 26.8712 11.3111 26.9217C11.3389 26.9722 11.3564 27.0278 11.3624 27.0852C11.3685 27.1425 11.3629 27.2005 11.3462 27.2557C11.3295 27.3109 11.302 27.3623 11.2651 27.4067C9.45169 29.7175 8.32734 32.0957 6.65378 36.2356C6.62128 36.3154 6.56568 36.3836 6.49414 36.4316C6.4226 36.4796 6.33837 36.5052 6.25222 36.505Z" fill="black"/>
<path d="M45.5341 55.8908C45.4566 55.8899 45.3807 55.8684 45.3143 55.8284C45.2479 55.7884 45.1933 55.7313 45.1564 55.6632C45.1194 55.595 45.1013 55.5182 45.1039 55.4407C45.1066 55.3633 45.1299 55.2879 45.1714 55.2224C47.6325 51.3986 49.2077 49.2251 51.5056 47.2225C51.593 47.1569 51.7019 47.1267 51.8106 47.1381C51.9193 47.1495 52.0196 47.2016 52.0915 47.2839C52.1633 47.3663 52.2013 47.4728 52.1979 47.582C52.1945 47.6912 52.1498 47.7951 52.0729 47.8728C49.8553 49.808 48.3139 51.9349 45.8994 55.6913C45.8602 55.7526 45.8062 55.803 45.7423 55.8379C45.6785 55.8727 45.6069 55.8909 45.5341 55.8908Z" fill="black"/>
<path d="M21.0449 73.2766C20.9671 73.2772 20.8906 73.2566 20.8235 73.2171C20.7565 73.1776 20.7014 73.1206 20.6642 73.0523C20.627 72.984 20.609 72.9068 20.6122 72.8291C20.6153 72.7513 20.6395 72.6759 20.6822 72.6108C23.1433 68.787 24.7185 66.6135 27.0164 64.6083C27.1034 64.5369 27.2149 64.5023 27.3271 64.5117C27.4393 64.5212 27.5434 64.574 27.6172 64.659C27.6911 64.744 27.7289 64.8545 27.7227 64.9669C27.7164 65.0793 27.6666 65.1849 27.5837 65.2611C25.3635 67.1964 23.8247 69.3233 21.4102 73.0797C21.3705 73.1403 21.3163 73.1901 21.2525 73.2245C21.1887 73.2589 21.1174 73.2768 21.0449 73.2766Z" fill="black"/>
<path d="M72.982 47.422C72.8987 47.4213 72.8173 47.3981 72.7462 47.3546C72.6502 47.292 72.5826 47.1941 72.5584 47.082C72.5341 46.97 72.5551 46.8529 72.6167 46.7562C75.0778 42.9298 76.6529 40.7563 78.9508 38.7537C79.0379 38.6823 79.1494 38.6476 79.2616 38.6571C79.3738 38.6666 79.4779 38.7194 79.5517 38.8044C79.6256 38.8894 79.6634 38.9999 79.6571 39.1123C79.6509 39.2247 79.601 39.3303 79.5182 39.4065C77.3006 41.3392 75.7591 43.4687 73.3446 47.2225C73.3057 47.2834 73.2521 47.3336 73.1887 47.3684C73.1254 47.4033 73.0543 47.4217 72.982 47.422Z" fill="black"/>
<path d="M16.8117 53.1836C16.7368 53.1831 16.6633 53.1632 16.5984 53.1259C16.5335 53.0887 16.4793 53.0353 16.441 52.971C16.4027 52.9067 16.3817 52.8335 16.3799 52.7587C16.3781 52.6838 16.3957 52.6098 16.4309 52.5437C19.3521 47.1058 23.0615 42.1298 27.4385 37.7771C27.5203 37.7007 27.6285 37.6589 27.7403 37.6606C27.8522 37.6622 27.9591 37.7072 28.0385 37.786C28.118 37.8647 28.1638 37.9712 28.1664 38.0831C28.169 38.1949 28.1282 38.3035 28.0525 38.3859C23.7328 42.682 20.0722 47.5934 17.1899 52.9608C17.1527 53.0285 17.098 53.0849 17.0314 53.1241C16.9648 53.1633 16.8889 53.1839 16.8117 53.1836Z" fill="black"/>
<path d="M40.5991 17.0182C40.514 17.0181 40.4307 16.9929 40.3598 16.9457C40.2888 16.8984 40.2335 16.8313 40.2006 16.7528C40.1676 16.6742 40.1586 16.5876 40.1747 16.504C40.1908 16.4203 40.2312 16.3433 40.2909 16.2825C42.5966 13.9509 45.454 11.8317 47.9747 9.96388L49.4151 8.89135C49.4602 8.85397 49.5125 8.82614 49.5687 8.80956C49.6249 8.79297 49.6839 8.78798 49.7421 8.79488C49.8002 8.80178 49.8564 8.82043 49.9072 8.8497C49.958 8.87896 50.0022 8.91824 50.0374 8.96514C50.0725 9.01203 50.0977 9.06558 50.1115 9.12252C50.1254 9.17947 50.1275 9.23863 50.1177 9.29641C50.108 9.35419 50.0867 9.40939 50.0549 9.45867C50.0232 9.50794 49.9818 9.55026 49.9333 9.58305C49.4643 9.93538 48.9799 10.2929 48.4877 10.6582C45.9903 12.5079 43.1613 14.6063 40.9048 16.8913C40.8238 16.9724 40.7138 17.0181 40.5991 17.0182Z" fill="black"/>
<path d="M37.397 42.4868C37.3148 42.4867 37.2343 42.4632 37.165 42.419C37.0957 42.3748 37.0404 42.3118 37.0056 42.2373C36.9708 42.1628 36.958 42.08 36.9686 41.9985C36.9792 41.9169 37.0128 41.8401 37.0655 41.777C45.5757 31.6009 50.6223 27.2694 58.0782 21.9016C58.1716 21.8346 58.2878 21.8074 58.4013 21.8262C58.5147 21.8449 58.6161 21.9079 58.6831 22.0013C58.7501 22.0947 58.7772 22.211 58.7585 22.3244C58.7398 22.4379 58.6768 22.5392 58.5833 22.6062C51.187 27.9196 46.1793 32.2279 37.7286 42.3314C37.6882 42.3801 37.6376 42.4193 37.5802 42.4462C37.5229 42.4731 37.4603 42.4869 37.397 42.4868Z" fill="black"/>
<path d="M52.3475 76.445C52.2736 76.4458 52.2007 76.4276 52.1359 76.3921C52.0711 76.3566 52.0165 76.305 51.9775 76.2422C51.9384 76.1795 51.9161 76.1077 51.9129 76.0339C51.9096 75.96 51.9255 75.8866 51.9589 75.8206C55.2257 69.2663 59.3137 65.0695 64.4924 59.7586L65.2515 58.9815C65.2897 58.9358 65.3369 58.8985 65.3901 58.8719C65.4434 58.8453 65.5015 58.83 65.561 58.8269C65.6204 58.8239 65.6798 58.8331 65.7355 58.854C65.7912 58.8749 65.842 58.9071 65.8847 58.9486C65.9274 58.99 65.9611 59.0398 65.9837 59.0949C66.0063 59.15 66.0172 59.2091 66.0159 59.2686C66.0146 59.3281 66.0011 59.3867 65.9761 59.4407C65.9511 59.4947 65.9152 59.543 65.8707 59.5825L65.1116 60.3597C59.9873 65.6187 55.9382 69.7741 52.7335 76.2067C52.6976 76.2782 52.6424 76.3384 52.5743 76.3805C52.5061 76.4226 52.4276 76.4449 52.3475 76.445Z" fill="black"/>
</svg>
