<svg width="89" height="101" viewBox="0 0 89 101" fill="none" xmlns="http://www.w3.org/2000/svg">
<path d="M11.4342 45.0995C11.6025 44.9641 11.8161 44.8927 12.035 44.8985C12.2539 44.9044 12.4631 44.9871 12.6234 45.1313C12.7836 45.2754 12.884 45.471 12.9056 45.6815C12.9273 45.892 12.8687 46.1028 12.7409 46.2746C5.31813 56.2733 1.34396 66.5641 1.84073 74.5047C2.50669 85.0667 9.85386 92.4163 21.0204 93.6853C21.2591 93.7125 21.4768 93.8301 21.6257 94.0124C21.7745 94.1946 21.8423 94.4265 21.8142 94.657C21.786 94.8875 21.6642 95.0978 21.4755 95.2415C21.2868 95.3853 21.0467 95.4508 20.808 95.4236C8.71993 94.0399 0.764394 86.068 0.0444355 74.609C-0.477534 66.2651 3.61903 55.578 11.2794 45.2629C11.3235 45.2022 11.3755 45.1473 11.4342 45.0995Z" fill="black"/>
<path d="M24.6167 31.3216C26.9854 29.4082 29.5139 27.6872 32.1762 26.1762C39.0158 22.3519 46.1578 21.8235 51.8023 24.7473C56.842 27.3617 59.9738 32.3715 60.359 38.4904C60.8773 46.7926 55.6217 57.1599 47.2737 64.2869C47.1851 64.3625 47.0819 64.4204 46.9701 64.4575C46.8583 64.4945 46.74 64.51 46.622 64.5029C46.504 64.4958 46.3886 64.4663 46.2824 64.4161C46.1762 64.3659 46.0813 64.2961 46.003 64.2104C45.9248 64.1248 45.8648 64.0252 45.8264 63.9172C45.788 63.8092 45.7721 63.6949 45.7794 63.581C45.7868 63.467 45.8173 63.3556 45.8693 63.253C45.9212 63.1504 45.9936 63.0588 46.0822 62.9832C53.9082 56.2977 59.0415 46.2676 58.5591 38.5982C58.1991 33.0947 55.4381 28.6029 50.9491 26.2805C45.8698 23.6522 39.3578 24.1598 33.0798 27.6711C29.0026 30.0052 25.2327 32.8068 21.852 36.015C21.6802 36.1755 21.4494 36.2634 21.2104 36.2595C20.9714 36.2556 20.7438 36.1602 20.5777 35.9942C20.4116 35.8282 20.3205 35.6053 20.3246 35.3745C20.3286 35.1437 20.4274 34.9239 20.5993 34.7635C21.9312 33.549 23.2703 32.4017 24.6167 31.3216Z" fill="black"/>
<path d="M82.1197 30.5603C82.281 30.4318 82.483 30.3607 82.692 30.3586C82.931 30.3586 83.1603 30.4501 83.3297 30.613C83.499 30.7759 83.5946 30.997 83.5956 31.2278C83.6748 55.1609 70.2332 75.9093 45.751 89.635C43.0205 91.1756 40.1416 92.4564 37.1547 93.4593C37.0426 93.4963 36.9241 93.5116 36.806 93.5043C36.6878 93.4971 36.5723 93.4675 36.466 93.4171C36.3597 93.3667 36.2647 93.2967 36.1865 93.2108C36.1082 93.125 36.0482 93.0251 36.0099 92.9169C35.9717 92.8087 35.9558 92.6943 35.9633 92.5802C35.9708 92.4661 36.0015 92.3545 36.0536 92.2518C36.1058 92.1492 36.1784 92.0575 36.2672 91.9819C36.3561 91.9063 36.4595 91.8484 36.5715 91.8114C39.4488 90.8471 42.2217 89.6141 44.851 88.1297C68.7536 74.7168 81.8749 54.5072 81.8029 31.2208C81.8028 31.0951 81.8312 30.9709 81.8859 30.8568C81.9406 30.7428 82.0204 30.6416 82.1197 30.5603Z" fill="black"/>
<path d="M32.8746 44.5779C33.8277 43.8105 34.8451 43.1209 35.9164 42.5163C39.113 40.7258 42.2664 40.3503 44.5559 41.4733C44.6613 41.5251 44.7551 41.5965 44.832 41.6833C44.9089 41.7701 44.9673 41.8707 45.0039 41.9794C45.0405 42.088 45.0546 42.2025 45.0453 42.3164C45.0361 42.4303 45.0037 42.5413 44.9501 42.6432C44.8964 42.745 44.8225 42.8356 44.7326 42.9098C44.6427 42.984 44.5385 43.0405 44.4261 43.0758C44.3136 43.1112 44.195 43.1248 44.0771 43.1158C43.9591 43.1069 43.8442 43.0757 43.7388 43.0239C41.9893 42.1651 39.4622 42.5267 36.8056 44.0147C30.1963 47.7242 25.1314 55.6892 25.5166 61.7733C25.6858 64.5198 26.7297 66.6405 28.5296 67.8713C30.4375 69.1889 33.1518 69.467 36.1756 68.6605C36.2895 68.6301 36.4085 68.6217 36.5258 68.6358C36.6431 68.6498 36.7564 68.6861 36.8592 68.7424C36.9619 68.7987 37.0522 68.8741 37.1249 68.9641C37.1975 69.0541 37.2511 69.1571 37.2825 69.2671C37.314 69.3772 37.3226 69.4921 37.3081 69.6054C37.2935 69.7186 37.256 69.828 37.1977 69.9273C37.1394 70.0266 37.0614 70.1138 36.9681 70.1839C36.8749 70.2541 36.7683 70.3058 36.6544 70.3362C33.0978 71.2888 29.84 70.9133 27.4821 69.2932C25.225 67.7322 23.9219 65.1734 23.7167 61.8845C23.3711 56.2003 27.2877 49.0349 32.8746 44.5779Z" fill="black"/>
<path d="M18.0902 10.5141C28.1696 2.45528 42.6479 -1.44897 55.9924 0.490986C67.0653 2.10066 75.6184 7.40251 80.0822 15.4196C80.1953 15.6229 80.2202 15.8613 80.1513 16.0823C80.0825 16.3034 79.9255 16.4889 79.715 16.5982C79.5045 16.7074 79.2576 16.7315 79.0288 16.665C78.7999 16.5985 78.6078 16.4469 78.4947 16.2436C74.3081 8.72362 66.2194 3.72773 55.726 2.2154C41.7192 0.178098 26.4201 4.81591 16.7474 14.0359C16.5775 14.1982 16.3478 14.2886 16.1088 14.2873C15.8698 14.286 15.6412 14.1931 15.4731 14.0289C15.3051 13.8648 15.2114 13.6429 15.2128 13.4121C15.2141 13.1813 15.3104 12.9605 15.4803 12.7982C16.3131 12.0009 17.183 11.2395 18.0902 10.5141Z" fill="black"/>
<path d="M84.6648 31.3354C82.0333 32.0307 78.8835 29.0547 77.6272 24.6742C76.3709 20.2936 77.4868 16.1704 80.1146 15.4646C82.7425 14.7589 85.8923 17.7453 87.1594 22.1258C88.4266 26.5063 87.2926 30.6296 84.6648 31.3354Z" stroke="black" stroke-miterlimit="10" stroke-linecap="round"/>
<path d="M20.8399 44.3131C23.5435 41.5209 24.1201 37.7987 22.1278 35.9994C20.1355 34.2001 16.3287 35.005 13.6251 37.7972C10.9215 40.5895 10.3449 44.3117 12.3372 46.111C14.3295 47.9103 18.1363 47.1054 20.8399 44.3131Z" stroke="black" stroke-miterlimit="10" stroke-linecap="round"/>
<path d="M46.4603 63.3065C47.9002 65.0448 46.921 68.0869 44.3004 70.0894C41.6797 72.092 38.3967 72.2971 36.9676 70.5553C35.5385 68.8135 36.5069 65.7715 39.1275 63.7724C41.7481 61.7734 45.042 61.5508 46.4603 63.3065Z" stroke="black" stroke-miterlimit="10" stroke-linecap="round"/>
<path d="M50.9959 40.8302C52.7274 42.3008 52.3386 45.4541 50.1355 47.8808C47.9325 50.3075 44.7358 51.0793 43.0079 49.6191C41.28 48.1589 41.6652 44.9952 43.8683 42.572C46.0714 40.1488 49.2644 39.3631 50.9959 40.8302Z" stroke="black" stroke-miterlimit="10" stroke-linecap="round"/>
<path d="M20.4914 96.8142C19.9299 94.238 23.2129 91.3907 27.8206 90.4589C32.4283 89.5272 36.6185 90.8622 37.1801 93.4384C37.7416 96.0146 34.4586 98.8654 29.8509 99.7971C25.2431 100.729 21.0494 99.3938 20.4914 96.8142Z" stroke="black" stroke-miterlimit="10" stroke-linecap="round"/>
</svg>
