<svg width="292" height="123" viewBox="0 0 292 123" fill="none" xmlns="http://www.w3.org/2000/svg">
<path d="M291 1C288.058 10.7763 281.789 14.4479 272.789 17.5326C266.891 19.5542 259.599 21.7921 253.347 21.7921C247.268 21.7921 240.024 22.8999 234.122 21.3589C227.33 19.5851 220.064 18.122 213.449 15.7999C209.032 14.249 203.875 12.8394 199.185 12.6955C187.748 12.3447 175.873 12.1891 164.718 14.9697C155.334 17.3087 146.512 22.6984 138.506 27.9286C132.877 31.6056 128.211 36.6048 123.481 41.3207C120.04 44.751 118.195 49.1895 114.755 52.6192C110.183 57.1781 104.22 58.9903 98.1011 61.102C88.1113 64.5498 76.4345 64.0259 66.0237 64.0259C61.0317 64.0259 56.842 64.3236 52.0125 65.6864C45.4206 67.5465 38.3795 68.8094 31.9189 70.9566C27.9675 72.2698 23.7575 74.7835 20.3334 77.1653C18.7008 78.301 17.9808 80.8445 16.9663 82.4716C15.6912 84.5169 14.1545 86.3808 12.8752 88.4277C7.79279 96.5589 1 112.254 1 122" stroke="black" stroke-width="2" stroke-linecap="round"/>
</svg>
