<svg width="119" height="71" viewBox="0 0 119 71" fill="none" xmlns="http://www.w3.org/2000/svg">
<path d="M65.5148 52.0102C73.8272 48.5441 81.9145 44.5609 89.7291 40.0841C88.7825 45.7009 86.3588 50.9648 82.7066 55.3358C70.7619 69.5919 49.6597 74.2496 35.4988 62.1355C44.6145 59.8797 54.8883 56.4706 65.5148 52.0102Z" stroke="black" stroke-width="2" stroke-miterlimit="10" stroke-linecap="round"/>
<path d="M80.7665 11.5926C82.3278 13.1362 83.7225 14.8397 84.9275 16.675C96.6053 14.1431 105.166 14.0015 106.317 16.8305C107.517 19.7871 100.817 25.6863 90.1212 32.1472L89.6269 32.4442C89.3948 32.5834 89.1628 32.725 88.9307 32.8643C87.6296 33.6378 86.2766 34.4114 84.8718 35.185C84.6165 35.3242 84.3612 35.4634 84.106 35.6073C81.9825 36.7677 79.757 37.928 77.4478 39.0884C77.1601 39.2323 76.8723 39.3785 76.5776 39.52C76.3246 39.65 76.067 39.7753 75.8118 39.9006C74.8943 40.3508 73.966 40.7995 73.0269 41.2467L72.1242 41.6737C71.8248 41.8175 71.5208 41.9568 71.2144 42.0983C70.9081 42.2399 70.6087 42.3815 70.3001 42.523L69.3718 42.9454C67.8247 43.6463 66.2644 44.3371 64.6909 45.0178C64.0597 45.2893 63.4238 45.5585 62.788 45.8254C62.3447 46.0134 61.9014 46.1944 61.4605 46.3801C60.9383 46.5936 60.4185 46.8094 59.901 47.0183C56.8678 48.2459 53.8463 49.4039 50.8827 50.4715C50.53 50.6014 50.1749 50.7291 49.8222 50.8544L48.504 51.3185L47.7149 51.59C45.9667 52.1934 44.2494 52.762 42.563 53.2958C42.2242 53.4025 41.8877 53.5116 41.5535 53.6137L40.5579 53.92C38.5365 54.5373 36.5755 55.1013 34.6911 55.6049L33.8534 55.823C32.628 56.1433 31.439 56.4372 30.2864 56.7049C20.0219 59.072 12.7372 59.2948 11.7556 56.3893C10.7322 53.3584 15.4269 48.3503 23.5077 42.8038C23.0265 40.7901 22.7267 38.7374 22.6119 36.6702C7.70828 46.1364 -0.924765 55.396 1.36577 60.8473C4.92806 69.3411 33.6515 65.382 65.5125 52.0055C97.3735 38.6289 120.314 20.908 116.749 12.4072C114.294 6.56135 99.9007 6.61705 80.7665 11.5926Z" stroke="black" stroke-width="2" stroke-miterlimit="10" stroke-linecap="round"/>
<path d="M80.7665 11.5927C82.3279 13.1363 83.7225 14.8397 84.9275 16.6751C87.959 21.2982 89.7514 26.6228 90.1329 32.1379C82.565 36.7051 72.9921 41.5484 62.8019 45.8301C51.1635 50.7175 39.5252 54.5815 30.312 56.7119C27.0662 52.6277 24.7526 47.8833 23.5332 42.8109C23.052 40.7972 22.7522 38.7444 22.6374 36.6773C22.2081 29.1535 24.1899 21.4047 28.6852 14.3706C38.8266 -1.50999 60.6807 -2.66106 76.1947 7.83318C77.8301 8.94425 79.3605 10.2027 80.7665 11.5927Z" stroke="black" stroke-width="2" stroke-miterlimit="10" stroke-linecap="round"/>
<path d="M59.9754 39.0489C59.9487 39.0848 59.9157 39.1155 59.8779 39.1395C52.758 43.7809 45.3503 45.4471 39.3976 46.7978C37.6455 47.1923 35.9908 47.5636 34.4801 47.979C34.3823 48.0022 34.2793 47.9865 34.1928 47.9352C34.1064 47.8839 34.0433 47.8011 34.0168 47.7041C33.9903 47.6072 34.0025 47.5037 34.0508 47.4156C34.0991 47.3274 34.1799 47.2615 34.2759 47.2318C35.8052 46.8117 37.4668 46.4381 39.2282 46.0412C45.1182 44.7161 52.4563 43.0661 59.4555 38.5013C59.532 38.4516 59.6236 38.4305 59.7142 38.4416C59.8047 38.4528 59.8884 38.4956 59.9505 38.5624C60.0126 38.6293 60.0492 38.7158 60.0537 38.807C60.0583 38.8981 60.0305 38.9879 59.9754 39.0605V39.0489Z" fill="black"/>
<path d="M77.4385 19.8382C77.4201 19.862 77.399 19.8838 77.3759 19.9031C69.33 26.5404 60.3187 29.2045 53.7395 31.1493C53.641 31.1801 53.5343 31.1705 53.4429 31.1226C53.3515 31.0747 53.2829 30.9925 53.2521 30.894C53.2213 30.7955 53.2309 30.6889 53.2788 30.5975C53.3267 30.5061 53.4089 30.4374 53.5074 30.4067C60.0239 28.4805 68.947 25.8418 76.8722 19.3067C76.9456 19.2483 77.0377 19.2184 77.1314 19.2227C77.2251 19.227 77.3141 19.2651 77.3819 19.33C77.4496 19.3949 77.4915 19.4822 77.4998 19.5756C77.508 19.6691 77.4822 19.7623 77.4269 19.8382H77.4385Z" fill="black"/>
<path d="M73.7417 57.0577C73.7153 57.093 73.6831 57.1236 73.6465 57.1482C68.0467 60.8172 60.451 63.7993 52.8043 65.3287C52.7534 65.3416 52.7004 65.344 52.6485 65.3358C52.5967 65.3276 52.547 65.309 52.5026 65.281C52.4581 65.2531 52.4199 65.2164 52.39 65.1732C52.3602 65.13 52.3395 65.0812 52.3291 65.0297C52.3187 64.9782 52.3189 64.9252 52.3296 64.8738C52.3403 64.8224 52.3614 64.7737 52.3915 64.7307C52.4216 64.6877 52.4602 64.6513 52.5048 64.6236C52.5494 64.5959 52.5992 64.5776 52.6511 64.5698C60.205 63.0567 67.7032 60.1164 73.2219 56.5007C73.2982 56.4522 73.389 56.432 73.4787 56.4434C73.5684 56.4549 73.6513 56.4973 73.7129 56.5634C73.7746 56.6295 73.8113 56.7151 73.8165 56.8054C73.8218 56.8956 73.7953 56.9849 73.7417 57.0577Z" fill="black"/>
<path d="M44.582 24.0781C44.5414 24.1325 44.4869 24.175 44.4242 24.2011L43.8603 24.4332C36.8192 27.4176 32.9529 29.063 27.9216 29.3415C27.8224 29.3419 27.7267 29.3043 27.6544 29.2363C27.582 29.1683 27.5386 29.0751 27.5329 28.976C27.5273 28.8769 27.5599 28.7794 27.624 28.7036C27.6881 28.6278 27.7789 28.5795 27.8775 28.5687C32.751 28.2972 36.5965 26.6727 43.5586 23.7207L44.1225 23.4887C44.2012 23.4518 44.2901 23.4427 44.3747 23.4628C44.4593 23.4829 44.5346 23.531 44.5884 23.5993C44.6421 23.6676 44.6712 23.7521 44.6709 23.839C44.6706 23.9259 44.6409 24.0102 44.5866 24.0781H44.582Z" fill="black"/>
<path d="M56.3898 7.2878C56.3506 7.3387 56.2996 7.37931 56.2412 7.40616C55.1018 7.91672 53.96 8.44584 52.853 8.95639C47.5896 11.3908 42.1453 13.9088 34.849 15.6099C34.7983 15.6257 34.7449 15.631 34.6922 15.6253C34.6394 15.6197 34.5883 15.6033 34.5422 15.5771C34.496 15.5509 34.4557 15.5155 34.4238 15.4732C34.3918 15.4308 34.3689 15.3823 34.3565 15.3307C34.3441 15.2791 34.3424 15.2255 34.3516 15.1732C34.3607 15.1209 34.3805 15.0711 34.4097 15.0267C34.4389 14.9824 34.4769 14.9446 34.5213 14.9155C34.5657 14.8865 34.6156 14.8669 34.6679 14.858C41.8853 13.1731 47.2949 10.6807 52.5235 8.25554C53.6304 7.74266 54.7769 7.21354 55.9186 6.70298C55.997 6.66934 56.0842 6.66245 56.1668 6.68337C56.2494 6.70429 56.3228 6.75187 56.3757 6.81873C56.4285 6.88559 56.4579 6.968 56.4592 7.05322C56.4605 7.13844 56.4336 7.2217 56.3828 7.29013L56.3898 7.2878Z" fill="black"/>
<path d="M102.632 10.5274C102.585 10.5894 102.521 10.6358 102.447 10.6606C102.373 10.6855 102.294 10.6876 102.219 10.6667C99.6524 9.97045 88.9377 11.8758 88.8286 11.8966C88.7274 11.9148 88.6231 11.892 88.5386 11.8332C88.4542 11.7745 88.3966 11.6846 88.3784 11.5833C88.3602 11.4821 88.3831 11.3778 88.4418 11.2934C88.5006 11.2089 88.5905 11.1513 88.6917 11.1331C89.1396 11.0542 99.6895 9.16749 102.426 9.9194C102.486 9.93706 102.541 9.96904 102.587 10.0126C102.632 10.0562 102.667 10.1101 102.687 10.1697C102.707 10.2293 102.713 10.293 102.703 10.3553C102.694 10.4175 102.669 10.4766 102.632 10.5274Z" fill="black"/>
<path d="M111.131 19.0817C111.069 19.158 110.981 19.208 110.883 19.2217C110.786 19.2353 110.688 19.2117 110.607 19.1554C110.527 19.0992 110.471 19.0146 110.45 18.9187C110.43 18.8227 110.447 18.7226 110.497 18.6385C111.709 16.7517 112.031 15.1296 111.456 13.8137C110.395 11.3909 106.635 10.7017 106.596 10.697C106.495 10.6792 106.405 10.6218 106.346 10.5376C106.287 10.4534 106.264 10.3492 106.282 10.248C106.299 10.1467 106.357 10.0567 106.441 9.99773C106.525 9.93876 106.629 9.91565 106.731 9.9335C106.902 9.96367 110.938 10.704 112.166 13.5027C112.862 15.0715 112.509 16.9397 111.149 19.0562C111.144 19.0656 111.138 19.0742 111.131 19.0817Z" fill="black"/>
<path d="M107.538 23.0965C104.544 27.0417 99.9378 30.5947 95.9554 31.9941C95.8599 32.0226 95.757 32.0133 95.6682 31.9679C95.5794 31.9225 95.5115 31.8447 95.4786 31.7505C95.4457 31.6564 95.4504 31.5532 95.4916 31.4624C95.5329 31.3716 95.6076 31.3002 95.7002 31.2631C99.6593 29.8706 104.273 26.2712 107.164 22.3028C107.195 22.262 107.233 22.2275 107.277 22.2015C107.321 22.1754 107.369 22.1582 107.42 22.1509C107.47 22.1436 107.521 22.1462 107.571 22.1588C107.62 22.1713 107.667 22.1934 107.708 22.2239C107.748 22.2544 107.783 22.2926 107.809 22.3364C107.835 22.3802 107.852 22.4286 107.859 22.4791C107.867 22.5295 107.864 22.5809 107.852 22.6303C107.839 22.6797 107.817 22.7261 107.786 22.7669C107.701 22.8714 107.615 22.9804 107.538 23.0965Z" fill="black"/>
<path d="M91.0798 36.1691C91.0564 36.1974 91.0299 36.2231 91.0009 36.2456C89.1675 37.6009 83.0269 40.3394 79.3602 41.9755C78.2161 42.486 77.2275 42.927 77.0766 43.0175C77.0328 43.0465 76.9836 43.0663 76.9319 43.0757C76.8802 43.0851 76.8271 43.084 76.7759 43.0722C76.7247 43.0605 76.6764 43.0384 76.6339 43.0075C76.5915 42.9765 76.5558 42.9372 76.529 42.892C76.5022 42.8468 76.4849 42.7966 76.4782 42.7445C76.4714 42.6923 76.4753 42.6394 76.4896 42.5888C76.5039 42.5383 76.5283 42.4912 76.5614 42.4503C76.5945 42.4095 76.6356 42.3759 76.6821 42.3514C76.8631 42.2423 77.5756 41.9244 79.0446 41.2676C82.4444 39.7522 88.773 36.9279 90.5414 35.6237C90.6164 35.5692 90.7084 35.5434 90.8008 35.5509C90.8933 35.5585 90.9799 35.5989 91.045 35.6649C91.1102 35.7309 91.1495 35.818 91.1559 35.9105C91.1622 36.003 91.1352 36.0948 91.0798 36.1691Z" fill="black"/>
<path d="M19.6807 42.3096C19.6436 42.3591 19.595 42.3989 19.5392 42.4257C14.61 44.7742 9.97321 50.8405 9.92911 50.9009C9.86439 50.9733 9.77484 51.0187 9.6782 51.0283C9.58157 51.0378 9.48488 51.0107 9.40727 50.9523C9.32965 50.894 9.27678 50.8086 9.2591 50.7131C9.24143 50.6177 9.26022 50.519 9.3118 50.4367C9.50442 50.1815 14.1064 44.1708 19.205 41.7294C19.2832 41.6926 19.3715 41.6829 19.4558 41.702C19.5402 41.7211 19.6157 41.7679 19.6704 41.8349C19.7251 41.9018 19.7558 41.9852 19.7577 42.0716C19.7596 42.1581 19.7325 42.2427 19.6807 42.3119V42.3096Z" fill="black"/>
<path d="M11.4887 62.2352C11.4531 62.2828 11.4068 62.3213 11.3536 62.3479C11.3005 62.3745 11.2419 62.3884 11.1824 62.3884C8.86171 62.4 7.20008 61.7432 6.26947 60.4413C4.73084 58.2853 5.77747 55.1988 5.82156 55.0665C5.85542 54.9693 5.92651 54.8895 6.01922 54.8446C6.06512 54.8224 6.11494 54.8095 6.16585 54.8066C6.21675 54.8036 6.26772 54.8107 6.31588 54.8275C6.36403 54.8443 6.40843 54.8703 6.4465 54.9042C6.48457 54.9382 6.51558 54.9792 6.53778 55.0251C6.55997 55.071 6.57291 55.1209 6.57585 55.1718C6.57879 55.2227 6.57168 55.2736 6.55492 55.3218C6.55492 55.3497 5.59414 58.167 6.90302 59.9934C7.67814 61.0772 9.11699 61.6179 11.1778 61.6179C11.2501 61.6169 11.3213 61.6363 11.3831 61.6739C11.4449 61.7114 11.4949 61.7656 11.5274 61.8303C11.5598 61.8949 11.5734 61.9674 11.5666 62.0394C11.5597 62.1115 11.5328 62.1801 11.4887 62.2375V62.2352Z" fill="black"/>
<path d="M32.15 59.7544C32.1162 59.8008 32.0716 59.8382 32.0201 59.8635C28.7711 61.5437 16.3553 62.8061 15.8285 62.8595C15.726 62.8697 15.6237 62.8387 15.5441 62.7734C15.4644 62.7081 15.414 62.6139 15.4038 62.5114C15.3937 62.4089 15.4246 62.3066 15.4899 62.227C15.5552 62.1473 15.6494 62.0969 15.7519 62.0867C15.8796 62.0867 28.5483 60.7894 31.665 59.1765C31.7101 59.1533 31.7593 59.1391 31.8099 59.1349C31.8605 59.1307 31.9113 59.1366 31.9596 59.1521C32.0079 59.1676 32.0527 59.1925 32.0913 59.2254C32.13 59.2583 32.1618 59.2985 32.1849 59.3436C32.2191 59.4082 32.234 59.4813 32.2279 59.5541C32.2217 59.627 32.1947 59.6965 32.15 59.7544Z" fill="black"/>
<path d="M50.0867 54.3425C50.0561 54.3847 50.0165 54.4196 49.9707 54.4446C49.1724 54.9087 44.3639 56.3476 39.2955 57.8468C38.3277 58.1322 37.5619 58.3596 37.4389 58.4037C37.3439 58.43 37.2426 58.4191 37.1553 58.3732C37.0681 58.3274 37.0016 58.25 36.9694 58.1569C36.9372 58.0638 36.9417 57.9619 36.9819 57.872C37.0221 57.782 37.0951 57.7108 37.1859 57.6727C37.3275 57.624 37.9332 57.4406 39.0843 57.1041C41.9829 56.2478 48.7732 54.245 49.6041 53.7716C49.6816 53.7283 49.7717 53.713 49.8592 53.7282C49.9466 53.7434 50.0263 53.7881 50.0847 53.855C50.1431 53.9219 50.1768 54.0068 50.1802 54.0955C50.1835 54.1842 50.1563 54.2714 50.103 54.3425H50.0867Z" fill="black"/>
<path d="M71.1031 45.7699C71.0764 45.8057 71.0434 45.8364 71.0056 45.8604C65.3176 49.534 57.2137 51.4301 57.1324 51.4301C57.0347 51.4473 56.934 51.4263 56.8512 51.3715C56.7685 51.3167 56.7099 51.2323 56.6875 51.1355C56.6652 51.0388 56.6809 50.9372 56.7313 50.8517C56.7817 50.7661 56.863 50.7032 56.9584 50.6758C57.0396 50.6573 65.0136 48.7984 70.5856 45.2013C70.6618 45.1493 70.7542 45.1264 70.8459 45.1369C70.9377 45.1473 71.0226 45.1903 71.0852 45.258C71.1479 45.3257 71.1842 45.4137 71.1875 45.506C71.1908 45.5982 71.1608 45.6885 71.1031 45.7606V45.7699Z" fill="black"/>
<path d="M33.3242 24.3102C33.2836 24.3646 33.2291 24.4071 33.1664 24.4332C33.1195 24.4531 33.0691 24.4635 33.0182 24.4638C32.9672 24.4642 32.9167 24.4545 32.8695 24.4353C32.8223 24.4162 32.7793 24.3879 32.7431 24.352C32.7068 24.3162 32.678 24.2736 32.6582 24.2267C32.6187 24.1338 32.4261 23.6511 32.6443 23.2845C32.6982 23.1906 32.7737 23.111 32.8644 23.052C32.9552 22.9931 33.0588 22.9567 33.1664 22.9456C33.2625 22.9352 33.3591 22.961 33.4371 23.018C33.5152 23.0751 33.5691 23.1593 33.5883 23.254C33.6075 23.3488 33.5905 23.4473 33.5408 23.5302C33.4911 23.6131 33.4122 23.6745 33.3196 23.7022C33.3257 23.7818 33.3437 23.86 33.373 23.9343C33.3977 23.9959 33.4062 24.0628 33.3977 24.1286C33.3892 24.1944 33.3639 24.257 33.3242 24.3102Z" fill="black"/>
<path d="M26.9284 35.6004C26.8668 35.6802 26.7793 35.736 26.681 35.758C26.5827 35.7801 26.4797 35.767 26.39 35.7211C26.3259 35.7938 26.2391 35.8425 26.1437 35.8593C26.0483 35.876 25.9501 35.8599 25.8651 35.8135C25.7801 35.7671 25.7134 35.6931 25.6759 35.6038C25.6385 35.5145 25.6325 35.4151 25.659 35.322C25.7309 35.0551 25.9165 34.6025 26.3296 34.5886C26.622 34.5886 26.8449 34.7836 26.9911 35.199C27.0144 35.2659 27.0209 35.3375 27.0099 35.4075C26.999 35.4776 26.971 35.5438 26.9284 35.6004Z" fill="black"/>
<path d="M30.3283 19.8173C30.2814 19.8784 30.2176 19.9244 30.1449 19.9496C30.1389 20.0454 30.0975 20.1355 30.0289 20.2025C29.9602 20.2695 29.8692 20.3087 29.7733 20.3124C29.6774 20.3162 29.5836 20.2842 29.5099 20.2228C29.4362 20.1614 29.388 20.0748 29.3744 19.9798C29.3443 19.7593 29.3396 19.3671 29.6321 19.1954C29.7306 19.1421 29.8434 19.1211 29.9545 19.1353C30.0657 19.1494 30.1696 19.198 30.2517 19.2743C30.2924 19.3049 30.3267 19.3432 30.3525 19.3871C30.3784 19.431 30.3954 19.4795 30.4025 19.5299C30.4096 19.5804 30.4067 19.6317 30.394 19.681C30.3812 19.7303 30.3589 19.7767 30.3283 19.8173Z" fill="black"/>
<path d="M30.8434 38.1277C30.7963 38.1886 30.7326 38.2345 30.66 38.26C30.6536 38.3557 30.6119 38.4455 30.5431 38.5123C30.4743 38.579 30.3832 38.6178 30.2874 38.6213C30.1916 38.6247 30.0979 38.5926 30.0244 38.531C29.9509 38.4694 29.9029 38.3828 29.8896 38.2879C29.8617 38.0697 29.8548 37.6775 30.1472 37.5058C30.2461 37.4524 30.3593 37.4312 30.4708 37.4454C30.5823 37.4595 30.6867 37.5082 30.7691 37.5847C30.8096 37.6155 30.8437 37.6539 30.8694 37.6979C30.8951 37.7418 30.9118 37.7904 30.9187 37.8408C30.9256 37.8913 30.9225 37.9426 30.9096 37.9918C30.8967 38.041 30.8742 38.0872 30.8434 38.1277Z" fill="black"/>
<path d="M26.9539 26.3316C26.9064 26.3919 26.8429 26.4378 26.7706 26.4638C26.7645 26.5596 26.7232 26.6497 26.6545 26.7167C26.5859 26.7837 26.4948 26.8229 26.399 26.8266C26.3031 26.8304 26.2093 26.7985 26.1356 26.737C26.0619 26.6756 26.0136 26.589 26.0001 26.494C25.9699 26.2736 25.9653 25.8814 26.2577 25.7096C26.3563 25.6564 26.4691 25.6353 26.5802 25.6495C26.6913 25.6636 26.7953 25.7123 26.8773 25.7885C26.9181 25.8191 26.9523 25.8575 26.9782 25.9013C27.0041 25.9452 27.0211 25.9937 27.0282 26.0442C27.0353 26.0946 27.0324 26.1459 27.0197 26.1953C27.0069 26.2446 26.9846 26.2909 26.9539 26.3316Z" fill="black"/>
<path d="M33.1735 31.0473C33.127 31.1082 33.063 31.1535 32.9901 31.1773C32.9874 31.2749 32.9477 31.3679 32.879 31.4374C32.8103 31.5069 32.7178 31.5477 32.6202 31.5515C32.5225 31.5553 32.4271 31.5219 32.3532 31.4581C32.2792 31.3942 32.2323 31.3046 32.222 31.2074C32.1918 30.9893 32.1849 30.5971 32.4773 30.4253C32.5762 30.3719 32.6894 30.3508 32.8009 30.3649C32.9125 30.3791 33.0168 30.4278 33.0992 30.5043C33.1397 30.535 33.1738 30.5735 33.1995 30.6174C33.2252 30.6614 33.2419 30.71 33.2488 30.7604C33.2557 30.8108 33.2526 30.8621 33.2397 30.9113C33.2268 30.9606 33.2043 31.0068 33.1735 31.0473Z" fill="black"/>
<path d="M85.7235 51.2026C85.6809 51.2604 85.6226 51.3048 85.5557 51.3307C85.4887 51.3566 85.4157 51.3629 85.3453 51.3488C84.1594 51.1167 81.8642 49.5526 81.769 49.4922C81.6854 49.4333 81.6282 49.3438 81.61 49.243C81.5918 49.1423 81.6139 49.0384 81.6716 48.9538C81.7002 48.9117 81.7369 48.8756 81.7796 48.8478C81.8223 48.82 81.8701 48.801 81.9203 48.792C81.9704 48.7829 82.0219 48.7839 82.0716 48.795C82.1214 48.806 82.1684 48.8269 82.21 48.8564C82.8342 49.2857 84.6374 50.4368 85.4868 50.5946C85.5877 50.6137 85.6769 50.6721 85.7348 50.757C85.7927 50.8418 85.8145 50.9462 85.7955 51.0471C85.784 51.1039 85.7594 51.1571 85.7235 51.2026Z" fill="black"/>
<path d="M84.482 53.3817C84.4386 53.4392 84.3799 53.4834 84.3127 53.5093C84.2454 53.5351 84.1722 53.5416 84.1014 53.5279C82.9248 53.2958 80.314 51.6481 80.205 51.5762C80.1262 51.5178 80.0725 51.4318 80.0546 51.3353C80.0368 51.2389 80.0562 51.1393 80.1088 51.0566C80.1615 50.9739 80.2436 50.9142 80.3385 50.8896C80.4335 50.8651 80.5342 50.8774 80.6204 50.9241C81.3398 51.3882 83.3913 52.6066 84.2453 52.7667C84.2965 52.7761 84.3452 52.7957 84.3887 52.8243C84.4321 52.8529 84.4693 52.89 84.4981 52.9333C84.5269 52.9766 84.5467 53.0253 84.5563 53.0764C84.5659 53.1275 84.5651 53.1801 84.554 53.2309C84.541 53.2857 84.5165 53.3371 84.482 53.3817Z" fill="black"/>
<path d="M87.1159 48.3596C87.0749 48.4129 87.021 48.4547 86.9592 48.4811C86.8974 48.5076 86.8299 48.5177 86.7631 48.5105C85.677 48.3898 83.7973 47.2364 83.5861 47.1041C83.541 47.0781 83.5016 47.0433 83.4703 47.0017C83.439 46.9601 83.4164 46.9127 83.4038 46.8622C83.3912 46.8117 83.389 46.7592 83.3971 46.7078C83.4053 46.6564 83.4237 46.6071 83.4513 46.563C83.4789 46.5189 83.5151 46.4808 83.5578 46.451C83.6004 46.4211 83.6486 46.4002 83.6995 46.3894C83.7505 46.3786 83.803 46.3782 83.8541 46.3881C83.9052 46.3981 83.9537 46.4183 83.9969 46.4474C84.5283 46.7769 86.0855 47.6542 86.849 47.74C86.9511 47.7511 87.0447 47.8023 87.1091 47.8824C87.1735 47.9625 87.2035 48.0649 87.1924 48.167C87.1831 48.2366 87.1568 48.3027 87.1159 48.3596Z" fill="black"/>
<path d="M89.1536 27.782C89.1128 27.8354 89.0588 27.8773 88.997 27.9038C88.9352 27.9302 88.8676 27.9402 88.8008 27.9328C87.7101 27.8144 85.1712 26.1575 84.8858 25.9695C84.7999 25.9129 84.7401 25.8244 84.7194 25.7237C84.6987 25.6229 84.7189 25.5181 84.7756 25.4322C84.8322 25.3464 84.9206 25.2865 85.0213 25.2659C85.1221 25.2452 85.2269 25.2654 85.3128 25.322C86.0461 25.807 88.1185 27.0788 88.8867 27.1646C88.9545 27.1723 89.0191 27.1977 89.0739 27.2383C89.1288 27.2789 89.1719 27.3333 89.199 27.396C89.2261 27.4586 89.2361 27.5273 89.2282 27.5951C89.2202 27.6628 89.1944 27.7273 89.1536 27.782Z" fill="black"/>
<path d="M88.6313 24.2916C88.591 24.345 88.5375 24.387 88.4761 24.4135C88.4146 24.4399 88.3474 24.4499 88.2809 24.4424C87.2087 24.3241 84.4006 22.8713 84.085 22.7066C83.9927 22.6592 83.923 22.577 83.8912 22.4782C83.8595 22.3795 83.8682 22.2721 83.9156 22.1798C83.963 22.0874 84.0452 22.0177 84.1439 21.986C84.2427 21.9542 84.3501 21.963 84.4424 22.0103C85.2686 22.4397 87.58 23.5768 88.3644 23.6627C88.4666 23.6738 88.5602 23.725 88.6246 23.8051C88.689 23.8852 88.7189 23.9875 88.7079 24.0897C88.7016 24.1628 88.6751 24.2327 88.6313 24.2916Z" fill="black"/>
<path d="M87.1833 20.9266C87.1432 20.9802 87.0897 21.0223 87.0282 21.0488C86.9667 21.0753 86.8994 21.0851 86.8329 21.0775C85.7584 20.9591 82.7345 19.3416 82.3934 19.1582C82.3029 19.1093 82.2355 19.0264 82.2062 18.9279C82.1768 18.8293 82.1878 18.7231 82.2367 18.6326C82.2856 18.5421 82.3685 18.4748 82.4671 18.4454C82.5656 18.416 82.6719 18.427 82.7623 18.476C83.6535 18.9563 86.1343 20.2211 86.9187 20.307C87.0205 20.3187 87.1135 20.3701 87.1774 20.4501C87.2413 20.5301 87.271 20.6322 87.2599 20.734C87.253 20.8041 87.2265 20.8709 87.1833 20.9266Z" fill="black"/>
<path d="M85.1572 17.2947C85.1165 17.3484 85.0627 17.3907 85.0009 17.4175C84.9391 17.4444 84.8714 17.4548 84.8044 17.4479C83.7346 17.3296 80.8592 15.8675 80.5413 15.7004C80.449 15.6533 80.3791 15.5715 80.3471 15.4729C80.3151 15.3743 80.3237 15.2671 80.3707 15.1748C80.4178 15.0825 80.4996 15.0126 80.5982 14.9806C80.6968 14.9486 80.804 14.9571 80.8964 15.0042C81.7411 15.4382 84.1036 16.5823 84.8903 16.6705C84.9921 16.6821 85.085 16.7336 85.149 16.8136C85.2129 16.8936 85.2425 16.9957 85.2314 17.0975C85.2256 17.1689 85.1999 17.2372 85.1572 17.2947Z" fill="black"/>
<path d="M82.8087 13.8392C82.7684 13.8926 82.7149 13.9346 82.6535 13.961C82.592 13.9875 82.5248 13.9975 82.4583 13.99C81.3861 13.8717 78.8078 12.535 78.5131 12.3841C78.4674 12.3606 78.4267 12.3284 78.3935 12.2892C78.3602 12.2501 78.335 12.2047 78.3193 12.1558C78.3035 12.1069 78.2976 12.0553 78.3018 12.0041C78.306 11.9529 78.3202 11.903 78.3436 11.8573C78.3671 11.8116 78.3994 11.771 78.4385 11.7377C78.4777 11.7044 78.5231 11.6792 78.572 11.6635C78.6209 11.6478 78.6724 11.6418 78.7237 11.646C78.7749 11.6502 78.8247 11.6644 78.8705 11.6879C79.6247 12.0824 81.7528 13.1244 82.5372 13.2103C82.6393 13.2214 82.7329 13.2726 82.7973 13.3527C82.8617 13.4327 82.8917 13.5351 82.8806 13.6373C82.8754 13.7099 82.8505 13.7797 82.8087 13.8392Z" fill="black"/>
<path d="M79.4159 10.6063C79.3751 10.6597 79.3212 10.7017 79.2594 10.7281C79.1976 10.7546 79.13 10.7646 79.0632 10.7572C77.9934 10.6388 75.415 9.30441 75.118 9.15125C75.0257 9.10355 74.9561 9.02112 74.9245 8.92211C74.893 8.8231 74.902 8.71561 74.9497 8.62329C74.9974 8.53096 75.0799 8.46137 75.1789 8.42981C75.2779 8.39826 75.3854 8.40733 75.4777 8.45503C76.2319 8.84723 78.36 9.88923 79.1444 9.97742C79.2466 9.98851 79.3402 10.0397 79.4046 10.1198C79.469 10.1999 79.4989 10.3023 79.4879 10.4044C79.4823 10.4769 79.4574 10.5466 79.4159 10.6063Z" fill="black"/>
<path d="M88.0836 45.6142C88.0435 45.6678 87.99 45.7099 87.9285 45.7364C87.867 45.7629 87.7997 45.7727 87.7332 45.7651C86.7005 45.6537 85.4125 44.7741 85.3637 44.737C85.3194 44.7093 85.2811 44.6728 85.2512 44.6299C85.2213 44.587 85.2004 44.5385 85.1897 44.4873C85.1791 44.436 85.1789 44.3832 85.1893 44.3319C85.1996 44.2806 85.2202 44.232 85.2498 44.1889C85.2794 44.1457 85.3175 44.1091 85.3617 44.0811C85.4059 44.053 85.4552 44.0343 85.5069 44.0259C85.5585 44.0174 85.6113 44.0196 85.6621 44.0321C85.7129 44.0446 85.7606 44.0673 85.8024 44.0988C85.814 44.0988 86.979 44.9041 87.8167 44.9946C87.9191 45.0062 88.0127 45.058 88.077 45.1384C88.1414 45.2189 88.1713 45.3215 88.1602 45.4239C88.1534 45.4934 88.1269 45.5594 88.0836 45.6142Z" fill="black"/>
<path d="M90.0054 31.284C89.9638 31.3388 89.9083 31.3815 89.8446 31.4076C89.781 31.4337 89.7115 31.4423 89.6434 31.4325C88.6501 31.2979 85.6424 29.8451 85.3036 29.6804C85.2555 29.6596 85.2121 29.6294 85.176 29.5914C85.1399 29.5534 85.1118 29.5085 85.0936 29.4593C85.0753 29.4102 85.0672 29.3579 85.0698 29.3056C85.0723 29.2532 85.0855 29.2019 85.1084 29.1548C85.1313 29.1077 85.1636 29.0657 85.2032 29.0314C85.2428 28.9971 85.289 28.9712 85.3389 28.9552C85.3888 28.9393 85.4415 28.9336 85.4937 28.9386C85.5458 28.9436 85.5965 28.959 85.6425 28.9841C86.5336 29.4181 89.0098 30.5645 89.7478 30.6667C89.8148 30.6757 89.8783 30.7022 89.9319 30.7434C89.9856 30.7845 90.0275 30.8391 90.0535 30.9015C90.0796 30.9639 90.0888 31.032 90.0804 31.0991C90.0719 31.1662 90.0461 31.23 90.0054 31.284Z" fill="black"/>
<path d="M89.5156 43.2518C89.4598 43.3237 89.3862 43.3797 89.3021 43.4143C88.9563 43.5605 88.2624 43.3562 87.2413 42.8062C87.1945 42.7833 87.1528 42.7512 87.1187 42.7117C87.0846 42.6723 87.0588 42.6264 87.0429 42.5768C87.0269 42.5272 87.0212 42.4749 87.0259 42.423C87.0306 42.3711 87.0458 42.3207 87.0705 42.2748C87.0951 42.2289 87.1288 42.1884 87.1695 42.1558C87.2101 42.1232 87.257 42.0992 87.3071 42.0851C87.3573 42.071 87.4098 42.0672 87.4615 42.0739C87.5132 42.0806 87.563 42.0976 87.6079 42.1239C88.0353 42.3687 88.4924 42.5574 88.9679 42.6856C89.0304 42.6296 89.1095 42.5955 89.1931 42.5883C89.2768 42.5811 89.3604 42.6013 89.4316 42.6458C89.5028 42.6903 89.5576 42.7567 89.5878 42.835C89.618 42.9133 89.622 42.9993 89.5991 43.0801C89.5813 43.1417 89.553 43.1998 89.5156 43.2518Z" fill="black"/>
<path d="M87.9769 33.8205C87.9435 33.865 87.901 33.9017 87.8521 33.9281C87.8032 33.9545 87.7492 33.9701 87.6938 33.9737C87.1832 34.0062 86.3942 33.8298 85.3429 33.4469L85.2849 33.426C85.1921 33.3896 85.117 33.3189 85.075 33.2286C85.033 33.1383 85.0274 33.0353 85.0594 32.9409C85.0913 32.8466 85.1583 32.7682 85.2466 32.7219C85.3348 32.6757 85.4374 32.6652 85.5332 32.6927L85.6074 32.7182C86.8513 33.1823 87.4176 33.2148 87.645 33.2009C87.7191 33.1957 87.7931 33.2121 87.8581 33.248C87.9232 33.2839 87.9764 33.3378 88.0115 33.4033C88.0465 33.4688 88.0619 33.543 88.0558 33.617C88.0497 33.6911 88.0222 33.7617 87.9769 33.8205Z" fill="black"/>
</svg>
