<svg width="268" height="122" viewBox="0 0 268 122" fill="none" xmlns="http://www.w3.org/2000/svg">
<path d="M1 1C3.25806 7.07595 7.34137 10.2353 9.59437 13.0949C11.8425 15.9483 14.5002 18.1894 17.0291 20.7024C19.8674 23.523 22.5554 26.6656 26.3792 27.6183C28.2402 28.0819 30.4623 27.7639 32.353 27.7639C38.0688 27.7639 44.4533 28.7713 50.0144 27.1087C55.4273 25.4904 60.7985 26.0144 66.15 24.7791C74.0651 22.9521 82.5303 23.5118 90.0774 20.848C94.7724 19.1909 102.624 20.0994 107.025 22.3768C109.649 23.7348 112.486 24.5231 115.141 25.9439C117.079 26.981 119.481 27.48 121.277 28.783C122.783 29.8752 123.823 31.5802 125.4 32.6414C131.19 36.5359 135.906 43.0099 140.594 48.3659C146.666 55.3013 152.907 58.6395 161.145 61.5425C178.401 67.6229 197.495 66.42 215.396 66.42C227.377 66.42 236.182 72.3253 244.356 81.4894C248.179 85.776 250.882 90.5061 253.738 95.576C256.213 99.9701 259.125 103.915 261.627 108.207C262.027 108.892 266.877 120.171 267 121" stroke="black" stroke-width="2" stroke-linecap="round"/>
</svg>
