<svg width="168" height="130" viewBox="0 0 168 130" fill="none" xmlns="http://www.w3.org/2000/svg">
<path d="M99.0177 99.0869C98.244 98.4333 102.024 87.3409 105.893 76.6884C114.094 69.5538 124.845 59.8672 135.366 50.8799C136.436 49.9668 137.489 49.0288 138.526 48.066C132.908 59.9489 123.25 79.5071 115.988 89.0735C111.612 94.836 101.971 101.572 99.0177 99.0869Z" stroke="black" stroke-width="2" stroke-miterlimit="10" stroke-linecap="round"/>
<path d="M104.84 79.5791C104.801 79.516 104.78 79.4432 104.78 79.3688C104.78 79.2944 104.801 79.2216 104.84 79.1585C105.532 77.957 110.276 75.2128 110.814 74.9028C110.907 74.8499 111.016 74.8359 111.119 74.8638C111.222 74.8917 111.309 74.9594 111.362 75.0518C111.415 75.1442 111.429 75.2538 111.401 75.3566C111.373 75.4593 111.305 75.5468 111.213 75.5997C109.252 76.7243 105.974 78.7957 105.535 79.5598C105.481 79.6514 105.393 79.7181 105.291 79.7455C105.188 79.773 105.079 79.7589 104.987 79.7064C104.929 79.6758 104.879 79.6322 104.84 79.5791Z" fill="black"/>
<path d="M102.716 84.0151C102.675 83.9532 102.652 83.8811 102.649 83.8069C102.647 83.7326 102.665 83.6591 102.702 83.5946C103.394 82.3931 108.14 79.6464 108.678 79.3388C108.724 79.3084 108.775 79.2877 108.829 79.278C108.883 79.2683 108.939 79.2698 108.992 79.2823C109.046 79.2949 109.096 79.3184 109.14 79.3512C109.184 79.384 109.221 79.4255 109.248 79.4731C109.275 79.5207 109.293 79.5734 109.299 79.628C109.305 79.6826 109.3 79.7378 109.284 79.7903C109.268 79.8429 109.241 79.8915 109.206 79.9333C109.17 79.9751 109.126 80.0091 109.077 80.0333C107.114 81.1603 103.838 83.2293 103.396 83.9935C103.37 84.0392 103.335 84.0793 103.294 84.1115C103.252 84.1438 103.205 84.1675 103.154 84.1813C103.104 84.1952 103.051 84.1989 102.999 84.1922C102.946 84.1855 102.896 84.1686 102.851 84.1425C102.796 84.1117 102.75 84.068 102.716 84.0151Z" fill="black"/>
<path d="M101.988 87.908C101.946 87.8458 101.923 87.7731 101.921 87.6983C101.919 87.6235 101.938 87.5496 101.976 87.4851C102.668 86.2836 107.411 83.5394 107.95 83.2318C107.995 83.2014 108.047 83.1807 108.101 83.1709C108.155 83.1612 108.211 83.1627 108.264 83.1753C108.317 83.1879 108.368 83.2113 108.412 83.2441C108.456 83.2769 108.493 83.3184 108.52 83.366C108.547 83.4137 108.565 83.4664 108.571 83.5209C108.577 83.5755 108.572 83.6308 108.556 83.6833C108.54 83.7358 108.513 83.7845 108.477 83.8262C108.442 83.868 108.398 83.9021 108.349 83.9263C106.388 85.0509 103.11 87.1223 102.67 87.8864C102.617 87.9785 102.529 88.0456 102.427 88.0731C102.324 88.1006 102.215 88.0862 102.122 88.033C102.068 88.0025 102.022 87.9597 101.988 87.908Z" fill="black"/>
<path d="M100.472 91.9451C100.432 91.8817 100.411 91.8084 100.411 91.7336C100.411 91.6588 100.432 91.5856 100.472 91.5221C101.164 90.3206 105.907 87.5764 106.445 87.2664C106.538 87.2153 106.647 87.2023 106.75 87.2301C106.852 87.2579 106.939 87.3244 106.993 87.4154C107.02 87.4611 107.037 87.5116 107.043 87.5639C107.05 87.6162 107.046 87.6693 107.032 87.7202C107.019 87.7711 106.995 87.8187 106.963 87.8604C106.93 87.9021 106.89 87.9371 106.844 87.9633C104.884 89.0879 101.606 91.1593 101.166 91.9234C101.113 92.0155 101.025 92.0826 100.922 92.1101C100.82 92.1376 100.71 92.1232 100.618 92.07C100.56 92.0411 100.509 91.9981 100.472 91.9451Z" fill="black"/>
<path d="M99.4647 95.4823C99.4245 95.42 99.4022 95.3479 99.4 95.2737C99.3979 95.1996 99.4161 95.1263 99.4527 95.0618C100.145 93.8603 104.891 91.1136 105.429 90.806C105.475 90.7756 105.526 90.7549 105.58 90.7452C105.634 90.7355 105.69 90.737 105.743 90.7496C105.797 90.7622 105.847 90.7856 105.891 90.8184C105.935 90.8512 105.972 90.8927 105.999 90.9403C106.027 90.9879 106.044 91.0407 106.05 91.0952C106.056 91.1498 106.051 91.205 106.035 91.2576C106.019 91.3101 105.992 91.3587 105.957 91.4005C105.921 91.4423 105.877 91.4764 105.828 91.5005C103.865 92.6275 100.589 94.6965 100.147 95.4607C100.121 95.5064 100.087 95.5465 100.045 95.5788C100.004 95.611 99.9561 95.6347 99.9054 95.6486C99.8547 95.6624 99.8018 95.6661 99.7497 95.6594C99.6976 95.6528 99.6473 95.6358 99.6017 95.6097C99.5469 95.5783 99.5 95.5347 99.4647 95.4823Z" fill="black"/>
<path d="M98.6861 99.3223C98.6459 99.26 98.6235 99.1879 98.6214 99.1138C98.6193 99.0396 98.6375 98.9663 98.6741 98.9018C99.3661 97.7003 104.112 94.9561 104.65 94.6461C104.743 94.5944 104.852 94.5811 104.955 94.6089C105.057 94.6367 105.145 94.7036 105.198 94.795C105.25 94.8872 105.264 94.9963 105.236 95.0985C105.208 95.2007 105.141 95.2877 105.049 95.3405C103.086 96.4675 99.8107 98.5366 99.3685 99.3007C99.3426 99.3464 99.3079 99.3865 99.2664 99.4187C99.2249 99.451 99.1775 99.4747 99.1268 99.4885C99.0761 99.5024 99.0232 99.5061 98.971 99.4994C98.9189 99.4927 98.8686 99.4759 98.8231 99.4497C98.7682 99.4183 98.7214 99.3747 98.6861 99.3223Z" fill="black"/>
<path d="M115.048 14.7601C113.794 15.4113 112.556 16.0913 111.336 16.7906C99.3421 23.6825 86.5989 30.5479 77.1238 35.8778C65.7911 35.9403 54.0716 35.7721 53.7184 34.8229C52.3703 31.2184 61.9535 24.389 68.8574 22.2046C80.3006 18.5809 101.966 16.0577 115.048 14.7601Z" stroke="black" stroke-width="2" stroke-miterlimit="10" stroke-linecap="round"/>
<path d="M74.0311 35.8754C74.001 35.8305 73.9805 35.7797 73.971 35.7264C73.9617 35.6745 73.9627 35.6213 73.9739 35.5697C73.9852 35.5182 74.0065 35.4694 74.0366 35.4261C74.0667 35.3828 74.1051 35.3458 74.1495 35.3174C74.1939 35.2889 74.2435 35.2695 74.2955 35.2602C75.163 35.1016 78.2148 32.713 79.9329 31.2424C79.973 31.2081 80.0194 31.1821 80.0696 31.1658C80.1197 31.1496 80.1726 31.1433 80.2251 31.1474C80.2777 31.1515 80.3289 31.166 80.3758 31.1899C80.4228 31.2138 80.4646 31.2468 80.4989 31.2868C80.5331 31.3269 80.5591 31.3733 80.5754 31.4235C80.5917 31.4736 80.598 31.5265 80.5938 31.579C80.5897 31.6316 80.5753 31.6828 80.5513 31.7298C80.5274 31.7767 80.4945 31.8185 80.4544 31.8528C79.9738 32.2565 75.8022 35.8009 74.4469 36.0484C74.3682 36.0648 74.2864 36.0571 74.2122 36.0262C74.1381 35.9953 74.0749 35.9428 74.0311 35.8754Z" fill="black"/>
<path d="M69.1411 36.3872C69.1113 36.3421 69.0909 36.2914 69.081 36.2383C69.0713 36.1865 69.0719 36.1333 69.0829 36.0818C69.0939 36.0303 69.1149 35.9814 69.1448 35.9381C69.1748 35.8947 69.213 35.8577 69.2573 35.8293C69.3016 35.8008 69.3511 35.7813 69.403 35.7721C70.2705 35.6135 73.3223 33.2225 75.0429 31.7542C75.0828 31.7201 75.129 31.6943 75.179 31.6781C75.2289 31.6618 75.2815 31.6556 75.3338 31.6597C75.3862 31.6639 75.4372 31.6783 75.4839 31.7021C75.5307 31.7259 75.5723 31.7588 75.6064 31.7987C75.6405 31.8386 75.6663 31.8848 75.6826 31.9348C75.6988 31.9847 75.705 32.0373 75.7009 32.0896C75.6967 32.142 75.6823 32.193 75.6585 32.2397C75.6347 32.2865 75.6018 32.3281 75.5619 32.3622C75.0813 32.7659 70.9121 36.3128 69.5544 36.5603C69.4761 36.5761 69.3948 36.5681 69.3211 36.5373C69.2474 36.5064 69.1847 36.4542 69.1411 36.3872Z" fill="black"/>
<path d="M65.2288 35.7625C65.1998 35.7181 65.1802 35.6682 65.1711 35.6159C65.1614 35.5641 65.1621 35.511 65.173 35.4594C65.184 35.4079 65.2051 35.3591 65.235 35.3157C65.2649 35.2724 65.3031 35.2354 65.3475 35.2069C65.3918 35.1784 65.4413 35.159 65.4931 35.1497C66.3606 34.9911 69.4125 32.6001 71.1306 31.1295C71.2116 31.0603 71.3167 31.0262 71.4228 31.0345C71.5289 31.0428 71.6274 31.093 71.6965 31.1739C71.7657 31.2549 71.7998 31.36 71.7915 31.4661C71.7832 31.5722 71.733 31.6707 71.6521 31.7398C71.1715 32.1435 67.0022 35.6904 65.6445 35.9379C65.5657 35.9534 65.4839 35.945 65.4099 35.9137C65.3358 35.8825 65.2728 35.8298 65.2288 35.7625Z" fill="black"/>
<path d="M60.9227 35.8346C60.8935 35.7891 60.8732 35.7386 60.8626 35.6856C60.8533 35.6337 60.8542 35.5804 60.8655 35.5289C60.8767 35.4774 60.898 35.4285 60.9282 35.3852C60.9583 35.3419 60.9967 35.305 61.0411 35.2766C61.0855 35.2481 61.1351 35.2287 61.187 35.2194C62.0545 35.0608 65.1063 32.6722 66.8245 31.2016C66.8646 31.1673 66.911 31.1413 66.9611 31.125C67.0113 31.1087 67.0641 31.1025 67.1167 31.1066C67.1692 31.1107 67.2204 31.1251 67.2674 31.1491C67.3144 31.173 67.3562 31.2059 67.3904 31.246C67.4247 31.2861 67.4507 31.3325 67.467 31.3826C67.4833 31.4328 67.4895 31.4856 67.4854 31.5382C67.4813 31.5907 67.4668 31.6419 67.4429 31.6889C67.419 31.7359 67.386 31.7777 67.346 31.8119C66.8654 32.2156 62.6961 35.7601 61.3384 36.0076C61.2598 36.0236 61.1781 36.0157 61.104 35.9849C61.0299 35.954 60.9667 35.9017 60.9227 35.8346Z" fill="black"/>
<path d="M57.2484 35.5919C57.2182 35.547 57.1978 35.4962 57.1883 35.4429C57.17 35.3385 57.1935 35.2311 57.2538 35.1439C57.314 35.0566 57.4062 34.9966 57.5103 34.9767C58.3802 34.8205 61.4296 32.4295 63.1502 30.9589C63.1903 30.9246 63.2367 30.8986 63.2868 30.8823C63.337 30.866 63.3898 30.8598 63.4424 30.8639C63.4949 30.868 63.5461 30.8825 63.5931 30.9064C63.6401 30.9303 63.6819 30.9633 63.7161 31.0033C63.7503 31.0434 63.7764 31.0898 63.7926 31.14C63.8089 31.1901 63.8152 31.2429 63.8111 31.2955C63.807 31.348 63.7925 31.3993 63.7686 31.4462C63.7447 31.4932 63.7117 31.535 63.6716 31.5692C63.191 31.973 59.0194 35.5198 57.6641 35.7673C57.5852 35.7835 57.5032 35.7754 57.429 35.744C57.3548 35.7127 57.2919 35.6597 57.2484 35.5919Z" fill="black"/>
<path d="M53.37 35.0343C53.3402 34.99 53.3198 34.9402 53.3099 34.8878C53.2987 34.835 53.2982 34.7805 53.3085 34.7276C53.3187 34.6747 53.3395 34.6243 53.3695 34.5795C53.3995 34.5347 53.4382 34.4964 53.4832 34.4668C53.5283 34.4372 53.5789 34.4169 53.6319 34.4071C54.4994 34.251 57.5512 31.8599 59.2718 30.3893C59.3527 30.3202 59.4578 30.286 59.5639 30.2943C59.6701 30.3027 59.7685 30.3528 59.8377 30.4338C59.9068 30.5147 59.941 30.6198 59.9327 30.7259C59.9243 30.832 59.8742 30.9305 59.7932 30.9997C59.3126 31.4034 55.141 34.9502 53.7857 35.1977C53.708 35.2154 53.6268 35.2093 53.5526 35.1802C53.4785 35.151 53.4148 35.1002 53.37 35.0343Z" fill="black"/>
<path d="M164.411 13.5466C161.317 9.92717 158.519 6.06512 156.044 1.99764C161.376 1.56029 165.175 2.0433 166.398 3.48991C167.333 5.10955 166.55 8.76695 164.411 13.5466Z" stroke="black" stroke-width="2" stroke-miterlimit="10" stroke-linecap="round"/>
<path d="M146.321 27.0803C143.454 29.1013 138.526 28.5077 136.262 25.3405C133.693 21.736 135.356 17.1462 138.002 15.2815C140.818 13.2966 145.766 13.7628 148.061 17.0213C149.882 19.6021 149.58 24.7855 146.321 27.0803Z" stroke="black" stroke-width="2" stroke-miterlimit="10" stroke-linecap="round"/>
<path d="M76.1169 63.4116C74.0047 65.8146 72.2433 67.9149 70.9529 69.5489C64.0201 60.23 61.4393 47.9818 62.4534 45.3601C62.6937 44.7065 64.3758 43.4377 67.1104 41.7388C67.8554 46.1099 69.9964 54.2994 76.1169 63.4116Z" stroke="black" stroke-width="2" stroke-miterlimit="10" stroke-linecap="round"/>
<path d="M92.0297 87.3169C89.2927 87.3866 79.8921 81.4102 72.7479 71.9712C74.7544 71.2887 77.3737 70.3155 80.4088 69.1044C84.6068 74.1075 90.0953 79.1971 97.2635 83.9478C94.5986 86.0601 92.7579 87.2976 92.0297 87.3169Z" stroke="black" stroke-width="2" stroke-miterlimit="10" stroke-linecap="round"/>
<path d="M56.8375 99.5818C53.8458 99.4929 58.82 90.8733 60.4949 88.1026C60.5281 88.0471 60.5426 87.9824 60.5363 87.918C60.5301 87.8536 60.5034 87.793 60.4601 87.7449C60.4169 87.6968 60.3593 87.6638 60.296 87.6508C60.2326 87.6378 60.1668 87.6454 60.108 87.6725L28.9 101.951C28.736 102.026 28.5509 102.041 28.3768 101.994C28.2027 101.947 28.0504 101.841 27.9464 101.694C27.8424 101.546 27.7931 101.367 27.8071 101.187C27.821 101.008 27.8974 100.838 28.0229 100.709L51.9354 76.0683C51.9811 76.0221 52.0107 75.9624 52.0198 75.8981C52.029 75.8337 52.0172 75.7682 51.9862 75.711C51.9552 75.6539 51.9067 75.6083 51.8478 75.5809C51.7888 75.5535 51.7227 75.5458 51.659 75.5589C48.4894 76.2077 38.6995 77.9955 39.6199 75.1503C40.2663 73.1558 53.7977 64.7909 64.8516 58.2283C66.3635 62.2611 68.4169 66.0695 70.9553 69.5489C70.5588 70.0511 70.2055 70.5101 69.8979 70.9186C69.3332 71.6732 70.1383 72.8074 71.0322 72.5286C71.5392 72.3724 72.1135 72.1874 72.7503 71.9711C75.3403 75.3799 78.2996 78.4916 81.5742 81.2492C71.6257 89.5036 58.9594 99.6443 56.8375 99.5818Z" stroke="black" stroke-width="2" stroke-miterlimit="10" stroke-linecap="round"/>
<path d="M45.4688 126.135C45.4015 124.722 45.6274 113.769 46.1897 110.143C46.4588 108.401 28.4939 129.898 27.0232 128.971C26.1389 128.413 26.2879 119.212 26.3768 115.656C26.381 115.494 26.3476 115.334 26.2792 115.188C26.2107 115.042 26.1092 114.913 25.9826 114.813C25.856 114.713 25.7078 114.643 25.5498 114.61C25.3917 114.577 25.2281 114.581 25.072 114.622C20.8258 115.742 7.84472 119.015 2.78155 120.298C2.62279 120.339 2.45554 120.33 2.30189 120.273C2.14823 120.216 2.0154 120.114 1.92092 119.981C1.82643 119.847 1.77473 119.687 1.77265 119.524C1.77057 119.36 1.8182 119.199 1.90926 119.063C4.82892 114.738 12.2999 103.633 14.7774 100.017C14.8681 99.8834 14.9266 99.7306 14.9482 99.5707C14.9699 99.4108 14.9541 99.248 14.9021 99.0952C14.8502 98.9424 14.7635 98.8038 14.6489 98.6901C14.5342 98.5765 14.3948 98.4911 14.2416 98.4405C10.8629 97.3327 2.14476 94.377 1.91647 93.3581C1.5392 91.6616 27.8234 81.963 26.0908 81.6314C22.4863 80.9441 12.0957 77.4766 10.7884 76.9383C7.96727 75.7776 17.7283 74.1844 34.1145 65.4831C37.7359 63.5607 51.9618 56.1377 62.636 50.5699C63.1491 53.1824 63.8897 55.7449 64.8492 58.2284C66.3611 62.2612 68.4144 66.0696 70.9528 69.549C70.5563 70.0512 70.2031 70.5102 69.8955 70.9187C69.3308 71.6733 70.1358 72.8075 71.0297 72.5287C71.5368 72.3725 72.1111 72.1875 72.7479 71.9712C75.3378 75.38 78.2972 78.4917 81.5718 81.2493C83.5859 82.9812 85.7582 84.5203 88.0599 85.8463C79.1976 94.0646 67.1537 105.215 64.0922 108.014C50.3926 120.524 45.6154 129.182 45.4688 126.135Z" stroke="black" stroke-width="2" stroke-miterlimit="10" stroke-linecap="round"/>
<path d="M92.0297 87.3169C89.2927 87.3866 79.8921 81.4102 72.7479 71.9712C74.7544 71.2887 77.3737 70.3155 80.4087 69.1044C94.0843 63.6447 116.243 53.3382 129.409 42.7192C132.033 40.6046 125.744 32.7539 125.744 32.7539C125.744 32.7539 120.457 24.1919 117.588 25.9533C103.093 34.8445 85.8251 52.3866 76.1145 63.4116C74.0023 65.8146 72.2409 67.9149 70.9504 69.5489C64.0177 60.23 61.4369 47.9818 62.451 45.3601C62.6913 44.7065 64.3734 43.4377 67.108 41.7388C75.5979 36.3993 94.2285 26.6166 111.324 16.7906C126.65 7.98597 144.774 2.93242 156.02 1.99764C161.352 1.56029 165.151 2.0433 166.374 3.48991C167.309 5.10955 166.526 8.77656 164.387 13.5466C159.773 23.8363 148.871 39.331 135.342 50.8799C120.501 63.5462 105.201 77.6399 97.2395 83.9478C94.5986 86.0601 92.7578 87.2976 92.0297 87.3169Z" stroke="black" stroke-width="2" stroke-miterlimit="10" stroke-linecap="round"/>
<path d="M129.409 42.7192C132.033 40.6045 125.747 32.7538 125.747 32.7538C125.747 32.7538 120.46 24.1919 117.591 25.9533C98.9625 37.3676 75.7542 63.08 69.8956 70.9186C69.3309 71.6732 70.1359 72.8074 71.0322 72.5286C80.3872 69.645 112.4 56.4284 129.409 42.7192Z" stroke="black" stroke-width="2" stroke-miterlimit="10" stroke-linecap="round"/>
<path d="M73.1132 71.6973C73.0733 71.6358 73.0508 71.5647 73.0483 71.4914C73.0458 71.4182 73.0632 71.3457 73.0988 71.2816C73.986 69.7011 74.969 68.1763 76.0425 66.7158C76.0729 66.6708 76.1121 66.6324 76.1578 66.603C76.2035 66.5736 76.2547 66.5537 76.3083 66.5447C76.3619 66.5357 76.4168 66.5376 76.4696 66.5504C76.5225 66.5632 76.5721 66.5867 76.6156 66.6192C76.6591 66.6518 76.6956 66.6929 76.7227 66.74C76.7499 66.7871 76.7671 66.8392 76.7735 66.8932C76.7799 66.9471 76.7753 67.0019 76.7599 67.054C76.7446 67.1061 76.7188 67.1546 76.6841 67.1964C75.6334 68.6267 74.6705 70.1193 73.8005 71.6661C73.7488 71.759 73.6625 71.8278 73.5603 71.8575C73.4582 71.8872 73.3484 71.8754 73.255 71.8247C73.1988 71.7933 73.1504 71.7498 73.1132 71.6973Z" fill="black"/>
<path d="M77.7679 69.6475C77.7276 69.5863 77.7047 69.5152 77.7018 69.442C77.6988 69.3687 77.7159 69.2961 77.7511 69.2318C78.6396 67.6515 79.6234 66.1268 80.6971 64.666C80.7629 64.5867 80.8566 64.5357 80.9589 64.5235C81.0613 64.5114 81.1643 64.5391 81.2468 64.6009C81.3292 64.6626 81.3848 64.7538 81.4019 64.8554C81.419 64.957 81.3964 65.0613 81.3388 65.1467C80.2868 66.5768 79.3238 68.0703 78.4551 69.6187C78.403 69.7112 78.3166 69.7795 78.2145 69.8088C78.1124 69.838 78.0028 69.8258 77.9097 69.7749C77.8531 69.7441 77.8045 69.7005 77.7679 69.6475Z" fill="black"/>
<path d="M81.5526 68.2104C81.5123 68.1492 81.4895 68.0781 81.4865 68.0049C81.4835 67.9317 81.5006 67.859 81.5358 67.7947C82.4232 66.2138 83.4071 64.689 84.4819 63.229C84.5476 63.1496 84.6413 63.0986 84.7437 63.0865C84.846 63.0743 84.9491 63.102 85.0315 63.1638C85.114 63.2256 85.1695 63.3167 85.1866 63.4183C85.2038 63.5199 85.1811 63.6242 85.1235 63.7096C84.0706 65.1383 83.1075 66.631 82.2399 68.1792C82.1882 68.2722 82.1018 68.3409 81.9995 68.3702C81.8972 68.3995 81.7874 68.387 81.6944 68.3354C81.6376 68.306 81.5889 68.2631 81.5526 68.2104Z" fill="black"/>
<path d="M86.2073 66.1607C86.167 66.0999 86.1441 66.0293 86.1411 65.9564C86.1381 65.8835 86.1552 65.8113 86.1905 65.7474C87.0776 64.1663 88.0616 62.6415 89.1366 61.1817C89.167 61.1366 89.2062 61.0982 89.252 61.0688C89.2977 61.0394 89.3489 61.0196 89.4025 61.0105C89.4561 61.0015 89.5109 61.0034 89.5637 61.0163C89.6166 61.0291 89.6662 61.0525 89.7097 61.0851C89.7532 61.1176 89.7897 61.1587 89.8168 61.2058C89.8439 61.2529 89.8613 61.305 89.8677 61.359C89.8741 61.413 89.8694 61.4677 89.8541 61.5198C89.8387 61.5719 89.8128 61.6204 89.7782 61.6623C88.7253 63.091 87.7622 64.5837 86.8945 66.1319C86.8429 66.2249 86.7564 66.2936 86.6542 66.3229C86.5519 66.3522 86.4421 66.3397 86.3491 66.2881C86.292 66.258 86.2433 66.2143 86.2073 66.1607Z" fill="black"/>
<path d="M90.8788 64.1014C90.8385 64.0401 90.8156 63.9691 90.8127 63.8958C90.8097 63.8226 90.8267 63.7499 90.8619 63.6856C91.7495 62.1048 92.7333 60.58 93.808 59.1199C93.8385 59.0748 93.8777 59.0365 93.9234 59.007C93.9691 58.9776 94.0203 58.9578 94.0739 58.9488C94.1275 58.9397 94.1824 58.9417 94.2352 58.9545C94.288 58.9673 94.3377 58.9907 94.3812 59.0233C94.4247 59.0559 94.4611 59.097 94.4883 59.144C94.5154 59.1911 94.5327 59.2433 94.5391 59.2972C94.5455 59.3512 94.5409 59.4059 94.5255 59.458C94.5101 59.5102 94.4843 59.5586 94.4497 59.6005C93.397 61.0293 92.4339 62.5221 91.566 64.0701C91.5407 64.1164 91.5064 64.1572 91.4653 64.1902C91.4241 64.2232 91.3768 64.2478 91.3262 64.2625C91.2755 64.2773 91.2224 64.2819 91.17 64.2761C91.1175 64.2703 91.0668 64.2542 91.0205 64.2287C90.9643 64.1975 90.9158 64.154 90.8788 64.1014Z" fill="black"/>
<path d="M69.4126 60.0666C65.5101 54.1456 65.1256 49.0127 65.1087 48.8013C65.103 48.7475 65.1082 48.6931 65.124 48.6414C65.1398 48.5897 65.1658 48.5417 65.2006 48.5003C65.2354 48.4589 65.2782 48.425 65.3265 48.4006C65.3747 48.3762 65.4274 48.3617 65.4813 48.3582C65.5353 48.3546 65.5894 48.362 65.6404 48.3799C65.6915 48.3977 65.7384 48.4257 65.7783 48.4622C65.8182 48.4986 65.8504 48.5427 65.8728 48.5919C65.8953 48.6411 65.9076 48.6943 65.909 48.7484C65.909 48.8013 66.3415 54.3402 70.6069 60.3934C70.6633 60.4805 70.6837 60.5861 70.664 60.688C70.6442 60.7899 70.5858 60.8801 70.5009 60.9398C70.416 60.9995 70.3113 61.024 70.2087 61.0082C70.1062 60.9923 70.0137 60.9373 69.9508 60.8548C69.7634 60.5833 69.5856 60.3213 69.4126 60.0666Z" fill="black"/>
<path d="M80.1973 74.725C80.1463 74.6374 80.1303 74.5337 80.1527 74.4348C80.175 74.3359 80.2339 74.2491 80.3176 74.1918C80.4013 74.1346 80.5036 74.1112 80.6039 74.1263C80.7041 74.1414 80.795 74.1939 80.8581 74.2732C85.1259 80.3264 90.1987 82.5877 90.2491 82.6093C90.3419 82.6547 90.4135 82.7342 90.4492 82.8311C90.4848 82.928 90.4818 83.0349 90.4406 83.1296C90.3995 83.2244 90.3233 83.2996 90.2282 83.3396C90.133 83.3796 90.026 83.3814 89.9295 83.3446C89.7132 83.2509 84.6068 80.9849 80.2045 74.7346C80.2026 74.7338 80.2009 74.7324 80.1996 74.7308C80.1983 74.7291 80.1975 74.7271 80.1973 74.725Z" fill="black"/>
<path d="M135.671 25.1796C135.618 25.0989 135.595 25.0015 135.609 24.9057C135.794 23.5672 136.762 21.8538 136.81 21.7817C136.865 21.6944 136.952 21.6316 137.052 21.6066C137.152 21.5815 137.258 21.596 137.348 21.6471C137.438 21.6981 137.504 21.7818 137.534 21.8808C137.563 21.9797 137.554 22.0862 137.507 22.1782C137.507 22.195 136.575 23.8315 136.411 25.0138C136.398 25.0916 136.361 25.1637 136.307 25.221C136.253 25.2783 136.183 25.3183 136.106 25.336C136.029 25.3537 135.948 25.3483 135.874 25.3205C135.8 25.2927 135.736 25.2437 135.69 25.1796H135.671Z" fill="black"/>
<path d="M137.74 27.2654C137.687 27.1856 137.664 27.0889 137.678 26.9938C137.846 25.6529 138.836 23.9011 138.879 23.8267C138.904 23.7783 138.938 23.7355 138.98 23.7008C139.021 23.6661 139.069 23.6401 139.121 23.6246C139.173 23.609 139.228 23.6042 139.282 23.6103C139.336 23.6164 139.388 23.6334 139.435 23.6602C139.482 23.6871 139.523 23.7232 139.556 23.7664C139.589 23.8095 139.613 23.8589 139.626 23.9116C139.639 23.9642 139.641 24.0189 139.633 24.0725C139.624 24.126 139.605 24.1773 139.576 24.2232C139.576 24.24 138.615 25.9053 138.473 27.1068C138.46 27.1849 138.424 27.2576 138.37 27.3155C138.316 27.3735 138.246 27.4141 138.169 27.4323C138.092 27.4506 138.011 27.4456 137.937 27.418C137.863 27.3905 137.799 27.3415 137.752 27.2774L137.74 27.2654Z" fill="black"/>
<path d="M140.508 28.3468C140.478 28.3007 140.458 28.2491 140.449 28.195C140.439 28.1409 140.441 28.0855 140.453 28.032C140.715 27.0982 141.087 26.1988 141.561 25.3526C141.587 25.3067 141.622 25.2664 141.663 25.2339C141.705 25.2014 141.753 25.1775 141.803 25.1634C141.854 25.1494 141.907 25.1455 141.96 25.152C142.012 25.1584 142.063 25.1752 142.109 25.2012C142.155 25.2273 142.195 25.2621 142.227 25.3037C142.26 25.3453 142.284 25.3929 142.298 25.4438C142.312 25.4947 142.316 25.5478 142.309 25.6002C142.303 25.6526 142.286 25.7032 142.26 25.7491C141.822 26.5294 141.478 27.3585 141.234 28.2194C141.214 28.2937 141.174 28.3608 141.117 28.4128C141.06 28.4648 140.99 28.4996 140.914 28.513C140.838 28.5263 140.76 28.5178 140.689 28.4884C140.618 28.4589 140.557 28.4098 140.513 28.3468H140.508Z" fill="black"/>
<path d="M143.137 28.3973C143.102 28.3452 143.08 28.2856 143.073 28.2234C143.065 28.1612 143.073 28.0981 143.094 28.0392C143.337 27.3881 143.627 26.756 143.964 26.1481C144.019 26.0607 144.106 25.998 144.206 25.9729C144.306 25.9478 144.412 25.9623 144.502 26.0134C144.591 26.0645 144.658 26.1482 144.688 26.2471C144.717 26.346 144.708 26.4526 144.661 26.5446C144.347 27.1132 144.075 27.7043 143.848 28.3132C143.824 28.3853 143.78 28.449 143.721 28.4969C143.662 28.5447 143.59 28.5749 143.515 28.5837C143.439 28.5925 143.363 28.5796 143.294 28.5466C143.226 28.5136 143.168 28.4618 143.128 28.3973H143.137Z" fill="black"/>
<path d="M45.6707 89.804C45.613 89.7173 45.5915 89.6114 45.6108 89.509C45.6301 89.4066 45.6887 89.3158 45.774 89.2561C48.4342 87.3793 51.301 85.3608 53.8698 83.5393C58.3875 80.3481 61.9584 77.8273 62.2516 77.6399C62.3404 77.5834 62.4479 77.5641 62.5508 77.5862C62.6537 77.6082 62.7439 77.6698 62.8018 77.7576C62.8584 77.8476 62.877 77.9562 62.8536 78.0598C62.8302 78.1634 62.7666 78.2535 62.6769 78.3103C62.3981 78.4858 58.659 81.1291 54.3288 84.1881C51.7504 86.0096 48.8932 88.033 46.2306 89.9025C46.1879 89.9333 46.1394 89.9552 46.0881 89.967C46.0368 89.9788 45.9836 89.9803 45.9317 89.9714C45.8798 89.9624 45.8302 89.9432 45.7858 89.9149C45.7414 89.8866 45.7031 89.8497 45.6731 89.8064L45.6707 89.804Z" fill="black"/>
<path d="M49.8857 72.4061C49.87 72.3812 49.8571 72.3546 49.8472 72.3268C49.8285 72.2772 49.8199 72.2243 49.8219 72.1713C49.8239 72.1182 49.8365 72.0661 49.8588 72.018C49.8812 71.9699 49.913 71.9268 49.9522 71.8911C49.9915 71.8554 50.0375 71.8279 50.0875 71.8102C54.0477 70.3035 57.0395 69.1669 59.1421 68.3498C61.5091 67.4439 62.6962 66.9873 62.9725 66.908C63.024 66.886 63.0796 66.8751 63.1356 66.8758C63.1916 66.8766 63.2468 66.8891 63.2977 66.9125C63.3486 66.9359 63.394 66.9696 63.4311 67.0116C63.4681 67.0537 63.4959 67.1029 63.5128 67.1564C63.5296 67.2098 63.5351 67.2661 63.5289 67.3218C63.5227 67.3775 63.5048 67.4312 63.4766 67.4796C63.4483 67.5279 63.4103 67.5698 63.3648 67.6026C63.3194 67.6353 63.2676 67.6582 63.2128 67.6698C62.9557 67.7539 61.7013 68.2345 59.4208 69.1116C57.3182 69.9166 54.3264 71.0653 50.3663 72.5719C50.2793 72.6036 50.1841 72.6044 50.0966 72.5742C50.0091 72.544 49.9346 72.4847 49.8857 72.4061Z" fill="black"/>
<path d="M22.6257 75.7319C22.61 75.7069 22.5971 75.6803 22.5872 75.6526C22.5685 75.6029 22.5599 75.55 22.5619 75.497C22.5639 75.444 22.5765 75.3919 22.5988 75.3438C22.6212 75.2957 22.653 75.2525 22.6922 75.2168C22.7315 75.1811 22.7775 75.1536 22.8275 75.1359C26.7877 73.6292 29.7794 72.4926 31.8821 71.6756C34.2491 70.7696 35.4362 70.3131 35.7125 70.2338C35.764 70.2118 35.8196 70.2008 35.8756 70.2016C35.9316 70.2023 35.9868 70.2148 36.0377 70.2382C36.0886 70.2616 36.134 70.2954 36.1711 70.3374C36.2081 70.3794 36.2359 70.4287 36.2528 70.4821C36.2696 70.5355 36.2751 70.5919 36.2689 70.6475C36.2627 70.7032 36.2448 70.7569 36.2166 70.8053C36.1883 70.8537 36.1502 70.8956 36.1048 70.9283C36.0594 70.9611 36.0076 70.984 35.9528 70.9955C35.6957 71.0796 34.4413 71.5602 32.1608 72.4373C30.0582 73.2424 27.0664 74.391 23.1063 75.8977C23.0192 75.9289 22.9242 75.9294 22.8368 75.8993C22.7494 75.8691 22.6749 75.8101 22.6257 75.7319Z" fill="black"/>
<path d="M18.2258 92.642C18.2098 92.6176 18.1962 92.5919 18.1849 92.5651C18.1665 92.5152 18.1581 92.4622 18.1602 92.4091C18.1624 92.356 18.1749 92.3039 18.1973 92.2557C18.2196 92.2074 18.2512 92.1641 18.2903 92.1281C18.3294 92.0921 18.3753 92.0643 18.4252 92.046C22.3854 90.5393 25.3771 89.4027 27.4774 88.5881C29.8444 87.6797 31.0314 87.2256 31.3078 87.1343C31.3589 87.1146 31.4136 87.1056 31.4683 87.1079C31.5231 87.1102 31.5768 87.1236 31.6262 87.1474C31.6755 87.1712 31.7195 87.2049 31.7553 87.2464C31.7912 87.2878 31.8181 87.3362 31.8346 87.3885C31.851 87.4407 31.8566 87.4958 31.8509 87.5503C31.8453 87.6049 31.8285 87.6576 31.8016 87.7054C31.7748 87.7532 31.7384 87.795 31.6948 87.8281C31.6512 87.8613 31.6013 87.8853 31.5481 87.8984C31.2934 87.9801 30.0366 88.4631 27.7585 89.3402C25.6559 90.1476 22.6641 91.2939 18.7015 92.8006C18.6161 92.833 18.5221 92.835 18.4354 92.8061C18.3487 92.7772 18.2746 92.7192 18.2258 92.642Z" fill="black"/>
<path d="M13.2587 112.878C13.203 112.792 13.182 112.689 13.1998 112.588C13.2177 112.488 13.2731 112.398 13.3548 112.337C16.7527 109.797 19.3167 107.87 21.1166 106.517C23.1375 105.003 24.1564 104.234 24.3967 104.073C24.4402 104.044 24.4891 104.023 24.5406 104.012C24.5921 104.002 24.6452 104.002 24.6968 104.012C24.7483 104.022 24.7974 104.042 24.8412 104.071C24.885 104.1 24.9226 104.138 24.9518 104.181C25.0104 104.269 25.0316 104.377 25.0109 104.48C24.9902 104.584 24.9292 104.675 24.8413 104.734C24.6178 104.883 23.5461 105.695 21.602 107.151C19.7997 108.507 17.2357 110.434 13.8354 112.974C13.7935 113.006 13.7458 113.029 13.6949 113.042C13.644 113.055 13.591 113.058 13.539 113.051C13.487 113.043 13.4369 113.026 13.3917 112.999C13.3465 112.972 13.307 112.937 13.2755 112.895L13.2587 112.878Z" fill="black"/>
<path d="M63.2727 90.8685C63.2253 90.7958 63.2026 90.7096 63.2082 90.623C63.2139 90.5363 63.2475 90.4538 63.304 90.3879C66.0554 87.1606 68.1437 84.7264 69.6095 83.0178C71.1955 81.1675 72.0702 80.1486 72.2336 79.9348C72.2625 79.8863 72.3012 79.8445 72.3473 79.812C72.3934 79.7795 72.4459 79.7571 72.5012 79.7463C72.5565 79.7354 72.6135 79.7364 72.6685 79.749C72.7235 79.7617 72.7751 79.7858 72.8202 79.8198C72.8652 79.8537 72.9025 79.8968 72.9298 79.9462C72.957 79.9956 72.9736 80.0501 72.9783 80.1063C72.983 80.1625 72.9759 80.2191 72.9573 80.2724C72.9387 80.3256 72.9091 80.3743 72.8704 80.4154C72.6926 80.6557 71.8659 81.6169 70.2271 83.5393C68.7612 85.2478 66.6754 87.6821 63.924 90.907C63.8546 90.9879 63.7561 91.0381 63.6498 91.0467C63.5436 91.0552 63.4383 91.0214 63.3568 90.9526C63.3249 90.9288 63.2966 90.9004 63.2727 90.8685Z" fill="black"/>
<path d="M50.3902 115.115C50.3423 115.042 50.3195 114.956 50.3251 114.869C50.3308 114.783 50.3646 114.7 50.4215 114.634C53.1729 111.41 55.2587 108.975 56.7246 107.264C58.313 105.414 59.1877 104.395 59.3511 104.181C59.4195 104.112 59.5108 104.07 59.608 104.063C59.7052 104.056 59.8016 104.084 59.8793 104.143C59.957 104.202 60.0106 104.287 60.0301 104.382C60.0497 104.478 60.0338 104.577 59.9855 104.662C59.81 104.902 58.981 105.863 57.3421 107.786C55.8763 109.494 53.7881 111.929 51.0366 115.153C51.0025 115.194 50.9608 115.226 50.9139 115.25C50.867 115.274 50.8158 115.289 50.7633 115.293C50.7108 115.297 50.658 115.29 50.608 115.274C50.558 115.257 50.5117 115.231 50.4719 115.197C50.441 115.173 50.4135 115.146 50.3902 115.115Z" fill="black"/>
<path d="M32.6968 113.173C32.6489 113.101 32.6259 113.015 32.6311 112.928C32.6363 112.842 32.6694 112.759 32.7256 112.693C35.4795 109.463 37.5677 107.029 39.0335 105.32C40.6195 103.47 41.4918 102.454 41.6576 102.24C41.6859 102.19 41.7245 102.147 41.7707 102.114C41.8169 102.08 41.8698 102.057 41.9257 102.045C41.9816 102.034 42.0393 102.035 42.095 102.047C42.1506 102.06 42.2029 102.084 42.2484 102.119C42.2939 102.153 42.3316 102.197 42.3588 102.247C42.386 102.297 42.4022 102.353 42.4064 102.41C42.4105 102.467 42.4024 102.524 42.3827 102.577C42.363 102.631 42.3321 102.68 42.292 102.72C42.1142 102.961 41.29 103.922 39.6487 105.844C38.1828 107.553 36.0946 109.987 33.3408 113.214C33.3068 113.255 33.2652 113.288 33.2184 113.312C33.1716 113.336 33.1204 113.35 33.0679 113.355C33.0154 113.359 32.9626 113.353 32.9125 113.337C32.8624 113.32 32.816 113.294 32.7761 113.26C32.745 113.236 32.7182 113.206 32.6968 113.173Z" fill="black"/>
<path d="M119.451 32.9124C119.416 32.8563 119.394 32.7931 119.386 32.7274C119.376 32.6217 119.409 32.5165 119.477 32.435C119.545 32.3535 119.643 32.3022 119.749 32.2925C119.854 32.2925 120.388 32.2516 120.686 32.5712C120.76 32.6548 120.814 32.7545 120.843 32.8626C120.873 32.9706 120.876 33.0839 120.854 33.1936C120.835 33.2928 120.78 33.3812 120.699 33.4413C120.617 33.5013 120.517 33.5286 120.416 33.5177C120.316 33.5068 120.223 33.4585 120.157 33.3824C120.091 33.3063 120.056 33.208 120.059 33.1071C119.98 33.0902 119.899 33.0845 119.818 33.0903C119.747 33.096 119.675 33.0825 119.61 33.0513C119.546 33.02 119.491 32.9721 119.451 32.9124Z" fill="black"/>
<path d="M114.974 32.6361C114.919 32.5508 114.897 32.448 114.914 32.3478C114.932 32.2429 114.991 32.1496 115.078 32.0883C115.165 32.0271 115.273 32.0028 115.377 32.0209C115.603 32.0594 115.993 32.1771 116.07 32.5208C116.092 32.635 116.077 32.7533 116.029 32.8589C115.98 32.9646 115.899 33.0522 115.798 33.1095C115.755 33.1399 115.706 33.1615 115.654 33.1729C115.603 33.1844 115.55 33.1856 115.498 33.1765C115.446 33.1673 115.396 33.148 115.351 33.1196C115.307 33.0912 115.268 33.0543 115.238 33.011C115.192 32.9467 115.166 32.8693 115.166 32.7899C115.087 32.7606 115.02 32.7067 114.974 32.6361Z" fill="black"/>
<path d="M117.694 36.4955C117.639 36.4091 117.618 36.3057 117.634 36.2047C117.652 36.0999 117.711 36.0066 117.798 35.9453C117.885 35.884 117.993 35.8598 118.098 35.8779C118.321 35.9187 118.713 36.0365 118.79 36.3801C118.81 36.4942 118.795 36.6118 118.746 36.7169C118.697 36.8219 118.617 36.9091 118.516 36.9664C118.429 37.0273 118.322 37.0513 118.217 37.0333C118.113 37.0153 118.02 36.9567 117.958 36.8703C117.912 36.8048 117.886 36.727 117.884 36.6469C117.806 36.6176 117.74 36.5646 117.694 36.4955Z" fill="black"/>
<path d="M141.705 16.9492C141.648 16.864 141.626 16.7595 141.645 16.6585C141.664 16.5541 141.723 16.4614 141.81 16.4006C141.897 16.3398 142.004 16.3159 142.109 16.3341C142.332 16.3725 142.721 16.4903 142.801 16.8339C142.822 16.948 142.807 17.0658 142.758 17.1709C142.708 17.276 142.628 17.3632 142.527 17.4202C142.44 17.4811 142.333 17.5051 142.228 17.4871C142.124 17.4691 142.031 17.4105 141.969 17.3241C141.922 17.2601 141.896 17.1827 141.895 17.103C141.817 17.0721 141.751 17.0185 141.705 16.9492Z" fill="black"/>
<path d="M112.866 36.3368C112.832 36.2877 112.81 36.2307 112.804 36.171C112.773 35.9451 112.768 35.539 113.073 35.3612C113.175 35.3061 113.292 35.2843 113.407 35.2989C113.522 35.3136 113.63 35.3639 113.715 35.4429C113.799 35.5076 113.854 35.603 113.869 35.7083C113.883 35.8135 113.855 35.9202 113.792 36.0052C113.744 36.0691 113.677 36.1169 113.602 36.1422C113.596 36.226 113.564 36.306 113.511 36.3708C113.458 36.4357 113.385 36.4821 113.304 36.5036C113.223 36.5251 113.137 36.5206 113.058 36.4907C112.98 36.4607 112.913 36.4069 112.866 36.3368Z" fill="black"/>
<path d="M144.846 18.5592C144.797 18.4875 144.773 18.402 144.776 18.3153C144.78 18.2287 144.812 18.1456 144.867 18.0786C144.916 18.0161 144.984 17.9699 145.06 17.9464C145.07 17.8482 145.117 17.7574 145.191 17.6914C145.264 17.6255 145.36 17.589 145.458 17.589C145.557 17.589 145.653 17.6255 145.726 17.6914C145.8 17.7574 145.847 17.8482 145.857 17.9464C145.881 18.1747 145.879 18.5808 145.569 18.7515C145.465 18.8039 145.348 18.8226 145.234 18.8049C145.119 18.7872 145.013 18.7341 144.93 18.6529C144.896 18.6271 144.868 18.5953 144.846 18.5592Z" fill="black"/>
<path d="M163.697 5.27772C163.648 5.20632 163.623 5.1206 163.627 5.03376C163.631 4.94692 163.663 4.86378 163.719 4.79712C163.768 4.73456 163.835 4.68846 163.911 4.66495C163.922 4.5667 163.969 4.47589 164.042 4.40993C164.116 4.34397 164.211 4.3075 164.31 4.3075C164.409 4.3075 164.504 4.34397 164.578 4.40993C164.652 4.47589 164.698 4.5667 164.709 4.66495C164.733 4.90525 164.731 5.29935 164.421 5.46996C164.317 5.52239 164.2 5.54108 164.085 5.52341C163.971 5.50574 163.864 5.45259 163.782 5.37144C163.748 5.3456 163.72 5.31384 163.697 5.27772Z" fill="black"/>
<path d="M160.537 4.19398C160.489 4.12202 160.466 4.03659 160.469 3.95013C160.473 3.86368 160.505 3.78073 160.559 3.71338C160.609 3.65188 160.676 3.60602 160.751 3.58121C160.759 3.48046 160.805 3.38635 160.879 3.31771C160.953 3.24907 161.05 3.21094 161.151 3.21094C161.253 3.21094 161.35 3.24907 161.424 3.31771C161.498 3.38635 161.544 3.48046 161.552 3.58121C161.576 3.8095 161.573 4.21561 161.263 4.38622C161.16 4.43865 161.042 4.45734 160.928 4.43967C160.813 4.422 160.707 4.36885 160.624 4.2877C160.59 4.26127 160.561 4.22964 160.537 4.19398Z" fill="black"/>
</svg>
