<svg width="565" height="523" viewBox="0 0 565 523" fill="none" xmlns="http://www.w3.org/2000/svg">
<path d="M323.178 342.351C323.178 342.351 300.452 400.168 291.501 400.047C282.549 399.926 260.692 341.882 260.692 341.882C261.762 342.281 262.894 342.489 264.035 342.497L319.811 342.916C320.958 342.928 322.098 342.737 323.178 342.351Z" stroke="black" stroke-width="2" stroke-miterlimit="10" stroke-linecap="round"/>
<path d="M327.075 119.957C326.993 120.126 326.881 120.279 326.744 120.408C321.164 125.888 304.883 132.598 299.333 139.973C297.513 139.056 295.506 138.572 293.469 138.556C291.431 138.541 289.417 138.995 287.584 139.884C282.135 132.42 265.977 125.466 260.466 119.913C260.336 119.785 260.23 119.635 260.152 119.47C264.494 122.796 277.807 125.017 293.565 125.136C309.324 125.255 322.671 123.24 327.075 119.957Z" stroke="black" stroke-width="2" stroke-linecap="round" stroke-linejoin="round"/>
<path d="M328.598 117.612C328.565 122.213 312.884 125.288 293.568 125.143C274.253 124.999 258.616 121.688 258.652 117.083C258.688 112.478 274.351 111.373 293.667 111.517C312.982 111.662 328.629 113.005 328.598 117.612Z" stroke="black" stroke-width="2" stroke-miterlimit="10" stroke-linecap="round"/>
<path d="M510.719 208.314L510.03 300.425L343.042 299.169C344.411 292.805 345.447 286.374 346.146 279.902C346.84 273.717 347.243 267.456 347.403 261.184C347.557 255.158 347.48 249.121 347.19 243.154C346.879 236.814 346.327 230.538 345.557 224.419C344.808 218.462 343.852 212.65 342.71 207.054L510.719 208.314Z" stroke="black" stroke-width="2" stroke-linecap="round" stroke-linejoin="round"/>
<path d="M345.242 225.277C345.04 225.202 344.871 225.059 344.764 224.872C344.657 224.686 344.619 224.467 344.657 224.255C344.695 224.044 344.807 223.852 344.972 223.714C345.138 223.576 345.346 223.501 345.561 223.502L510.597 224.742C510.815 224.774 511.014 224.883 511.158 225.05C511.302 225.217 511.381 225.43 511.381 225.651C511.38 225.871 511.3 226.084 511.155 226.25C511.011 226.416 510.811 226.525 510.592 226.555L345.548 225.335C345.443 225.334 345.339 225.314 345.242 225.277Z" fill="black"/>
<path d="M346.875 244.012C346.674 243.936 346.506 243.792 346.4 243.605C346.295 243.419 346.258 243.201 346.297 242.99C346.335 242.779 346.447 242.588 346.612 242.451C346.777 242.314 346.985 242.239 347.199 242.239L510.456 243.467C510.576 243.467 510.695 243.491 510.806 243.537C510.917 243.584 511.017 243.652 511.102 243.737C511.186 243.823 511.253 243.924 511.298 244.036C511.343 244.147 511.365 244.266 511.364 244.386C511.362 244.628 511.264 244.86 511.092 245.03C510.92 245.201 510.687 245.296 510.445 245.295L347.183 244.064C347.078 244.066 346.973 244.048 346.875 244.012Z" fill="black"/>
<path d="M347.088 262.042C346.887 261.966 346.719 261.822 346.613 261.636C346.508 261.449 346.471 261.231 346.51 261.02C346.548 260.809 346.66 260.618 346.825 260.481C346.99 260.344 347.198 260.269 347.412 260.269L510.318 261.497C510.448 261.479 510.58 261.488 510.706 261.526C510.832 261.563 510.948 261.627 511.047 261.713C511.146 261.8 511.225 261.906 511.279 262.025C511.334 262.145 511.362 262.275 511.361 262.406C511.361 262.537 511.332 262.667 511.278 262.786C511.223 262.905 511.143 263.011 511.044 263.097C510.944 263.183 510.828 263.246 510.702 263.283C510.576 263.319 510.444 263.329 510.314 263.31L347.393 262.1C347.289 262.1 347.185 262.08 347.088 262.042Z" fill="black"/>
<path d="M345.828 280.765C345.624 280.692 345.452 280.548 345.344 280.36C345.235 280.172 345.197 279.951 345.236 279.737C345.276 279.524 345.39 279.331 345.558 279.194C345.726 279.056 345.938 278.983 346.155 278.987L510.177 280.221C510.42 280.225 510.651 280.323 510.822 280.496C510.993 280.668 511.089 280.901 511.09 281.143C511.088 281.386 510.989 281.618 510.816 281.787C510.642 281.957 510.409 282.051 510.166 282.049L346.141 280.82C346.035 280.818 345.929 280.8 345.828 280.765Z" fill="black"/>
<path d="M491.256 301.144C491.081 301.081 490.931 300.966 490.824 300.814C490.717 300.663 490.659 300.482 490.659 300.297L489.829 208.174C489.817 208.048 489.831 207.92 489.871 207.8C489.91 207.679 489.974 207.568 490.059 207.474C490.144 207.379 490.247 207.303 490.363 207.251C490.478 207.199 490.603 207.171 490.73 207.17C490.857 207.168 490.983 207.193 491.1 207.243C491.216 207.293 491.321 207.366 491.408 207.458C491.495 207.551 491.562 207.66 491.604 207.78C491.646 207.9 491.663 208.027 491.654 208.153L492.483 300.276C492.484 300.396 492.462 300.516 492.417 300.627C492.372 300.738 492.305 300.84 492.221 300.925C492.137 301.011 492.036 301.079 491.926 301.125C491.815 301.172 491.696 301.196 491.576 301.196C491.467 301.197 491.359 301.18 491.256 301.144Z" fill="black"/>
<path d="M470.699 300.989C470.524 300.926 470.373 300.811 470.267 300.66C470.16 300.508 470.102 300.328 470.101 300.142L469.263 208.039C469.25 207.913 469.265 207.786 469.304 207.665C469.344 207.545 469.408 207.434 469.493 207.339C469.577 207.245 469.681 207.169 469.796 207.117C469.912 207.064 470.037 207.036 470.164 207.035C470.291 207.034 470.416 207.059 470.533 207.108C470.65 207.158 470.755 207.231 470.842 207.324C470.929 207.417 470.995 207.526 471.037 207.646C471.08 207.765 471.097 207.892 471.087 208.019L471.917 300.142C471.918 300.385 471.823 300.618 471.652 300.792C471.482 300.965 471.25 301.064 471.007 301.067C470.901 301.059 470.796 301.033 470.699 300.989Z" fill="black"/>
<path d="M450.9 300.844C450.725 300.779 450.574 300.662 450.467 300.509C450.36 300.357 450.302 300.176 450.3 299.989L449.469 207.883C449.489 207.657 449.593 207.447 449.76 207.293C449.928 207.139 450.146 207.053 450.373 207.051C450.6 207.049 450.819 207.132 450.989 207.283C451.159 207.434 451.266 207.642 451.291 207.868L452.123 299.986C452.124 300.229 452.029 300.462 451.858 300.636C451.688 300.809 451.456 300.908 451.213 300.911C451.106 300.906 451 300.884 450.9 300.844Z" fill="black"/>
<path d="M430.343 300.689C430.166 300.62 430.015 300.499 429.91 300.342C429.805 300.184 429.75 299.999 429.755 299.809L428.93 207.689C428.951 207.463 429.055 207.252 429.222 207.098C429.389 206.945 429.607 206.859 429.834 206.857C430.061 206.855 430.281 206.937 430.451 207.088C430.62 207.239 430.728 207.448 430.752 207.673L431.582 299.796C431.583 300.038 431.488 300.271 431.318 300.444C431.148 300.616 430.917 300.714 430.675 300.716C430.563 300.726 430.451 300.717 430.343 300.689Z" fill="black"/>
<path d="M412.668 300.554C412.494 300.491 412.343 300.376 412.237 300.224C412.13 300.073 412.072 299.892 412.071 299.707L411.235 207.599C411.223 207.472 411.237 207.345 411.276 207.224C411.316 207.104 411.38 206.993 411.465 206.898C411.549 206.804 411.653 206.728 411.768 206.676C411.884 206.623 412.009 206.596 412.136 206.594C412.263 206.593 412.389 206.618 412.505 206.668C412.622 206.717 412.727 206.791 412.814 206.883C412.901 206.976 412.967 207.085 413.01 207.205C413.052 207.325 413.069 207.452 413.059 207.578L413.889 299.701C413.89 299.821 413.868 299.94 413.823 300.052C413.778 300.163 413.711 300.264 413.627 300.35C413.543 300.435 413.442 300.504 413.331 300.55C413.221 300.597 413.102 300.621 412.982 300.621C412.874 300.617 412.768 300.594 412.668 300.554Z" fill="black"/>
<path d="M392.111 300.399C391.937 300.336 391.786 300.221 391.679 300.07C391.573 299.918 391.515 299.737 391.514 299.552L390.685 207.429C390.672 207.303 390.687 207.175 390.726 207.055C390.766 206.934 390.83 206.823 390.915 206.729C390.999 206.634 391.103 206.559 391.218 206.506C391.334 206.454 391.459 206.426 391.586 206.425C391.713 206.423 391.839 206.448 391.955 206.498C392.072 206.548 392.177 206.621 392.264 206.714C392.351 206.806 392.417 206.916 392.459 207.035C392.502 207.155 392.519 207.282 392.509 207.409L393.339 299.532C393.34 299.774 393.245 300.006 393.075 300.179C392.905 300.351 392.674 300.449 392.432 300.452C392.323 300.453 392.214 300.435 392.111 300.399Z" fill="black"/>
<path d="M372.313 300.253C372.138 300.188 371.987 300.072 371.88 299.919C371.773 299.767 371.715 299.585 371.713 299.399L370.888 207.278C370.874 207.151 370.887 207.022 370.926 206.9C370.965 206.778 371.029 206.666 371.114 206.571C371.2 206.475 371.304 206.398 371.42 206.345C371.537 206.293 371.663 206.265 371.791 206.263C371.919 206.262 372.045 206.288 372.163 206.339C372.28 206.39 372.386 206.465 372.472 206.559C372.559 206.653 372.625 206.764 372.666 206.886C372.707 207.007 372.722 207.135 372.71 207.263L373.542 299.381C373.543 299.624 373.448 299.857 373.278 300.03C373.108 300.204 372.876 300.303 372.633 300.306C372.524 300.307 372.415 300.289 372.313 300.253Z" fill="black"/>
<path d="M351.755 300.099C351.581 300.034 351.43 299.917 351.323 299.765C351.216 299.612 351.157 299.431 351.155 299.244L350.331 207.123C350.352 206.897 350.456 206.687 350.623 206.533C350.79 206.379 351.008 206.293 351.235 206.291C351.462 206.289 351.682 206.372 351.851 206.523C352.021 206.674 352.129 206.882 352.153 207.108L352.985 299.226C352.986 299.469 352.891 299.703 352.721 299.876C352.55 300.049 352.318 300.148 352.076 300.151C351.967 300.152 351.858 300.134 351.755 300.099Z" fill="black"/>
<path d="M238.664 279.094C239.262 285.583 240.198 292.037 241.469 298.429L73.1893 297.14L73.8786 205.03L243.193 206.305C241.972 211.882 240.914 217.68 240.095 223.614C239.231 229.721 238.563 235.979 238.177 242.321C237.813 248.291 237.632 254.323 237.694 260.353C237.753 266.636 238.068 272.899 238.664 279.094Z" stroke="black" stroke-width="2" stroke-linecap="round" stroke-linejoin="round"/>
<path d="M73.4342 223.237C73.2568 223.169 73.1048 223.048 72.9987 222.89C72.8926 222.732 72.8375 222.546 72.841 222.356C72.843 222.114 72.9409 221.882 73.1132 221.712C73.2856 221.542 73.5183 221.447 73.7605 221.448L240.092 222.711C240.222 222.693 240.354 222.703 240.48 222.741C240.606 222.778 240.722 222.842 240.821 222.928C240.92 223.014 240.999 223.121 241.053 223.24C241.107 223.36 241.135 223.489 241.135 223.621C241.135 223.752 241.106 223.881 241.051 224C240.997 224.12 240.917 224.226 240.817 224.311C240.718 224.397 240.602 224.461 240.476 224.497C240.35 224.534 240.217 224.543 240.087 224.524L73.7223 223.281C73.6247 223.28 73.5277 223.265 73.4342 223.237Z" fill="black"/>
<path d="M73.2906 241.955C73.0898 241.879 72.922 241.735 72.8164 241.548C72.7107 241.362 72.674 241.144 72.7127 240.933C72.7513 240.722 72.8628 240.531 73.0277 240.394C73.1926 240.257 73.4005 240.182 73.615 240.182L238.19 241.425C238.31 241.426 238.429 241.45 238.539 241.496C238.65 241.542 238.751 241.61 238.835 241.696C238.92 241.781 238.986 241.883 239.031 241.994C239.076 242.105 239.099 242.225 239.098 242.345C239.096 242.587 238.998 242.819 238.826 242.989C238.653 243.159 238.42 243.254 238.178 243.253L73.6037 242.01C73.4968 242.01 73.3907 241.992 73.2906 241.955Z" fill="black"/>
<path d="M73.158 259.987C72.956 259.912 72.7868 259.769 72.6798 259.583C72.5729 259.396 72.5352 259.177 72.5733 258.966C72.6114 258.754 72.723 258.562 72.8883 258.424C73.0536 258.287 73.2622 258.211 73.4774 258.212L237.699 259.448C237.825 259.435 237.953 259.45 238.074 259.49C238.195 259.53 238.307 259.595 238.401 259.681C238.495 259.766 238.57 259.871 238.621 259.988C238.673 260.105 238.699 260.231 238.698 260.358C238.697 260.486 238.67 260.612 238.618 260.728C238.565 260.844 238.489 260.948 238.394 261.033C238.299 261.118 238.187 261.182 238.065 261.22C237.944 261.259 237.816 261.272 237.689 261.258L73.4753 260.02C73.3684 260.029 73.2608 260.018 73.158 259.987Z" fill="black"/>
<path d="M73.017 278.711C72.8162 278.636 72.6484 278.492 72.5427 278.305C72.4371 278.119 72.4004 277.901 72.439 277.69C72.4777 277.479 72.5891 277.288 72.7541 277.151C72.919 277.013 73.1268 276.938 73.3414 276.939L238.681 278.188C238.899 278.22 239.099 278.329 239.243 278.496C239.387 278.663 239.466 278.876 239.465 279.097C239.465 279.317 239.385 279.53 239.24 279.696C239.095 279.862 238.895 279.97 238.677 280.001L73.3227 278.769C73.2181 278.769 73.1144 278.749 73.017 278.711Z" fill="black"/>
<path d="M91.3314 298.141C91.1518 298.074 90.9975 297.953 90.8902 297.795C90.7829 297.636 90.7281 297.448 90.7333 297.257L92.9551 205.129C92.9721 204.894 93.0789 204.674 93.2535 204.516C93.4281 204.358 93.657 204.273 93.8925 204.279C94.1281 204.285 94.3522 204.382 94.5182 204.549C94.6842 204.717 94.7794 204.941 94.7839 205.177L92.562 297.305C92.5549 297.547 92.4525 297.777 92.277 297.944C92.1016 298.112 91.8673 298.203 91.6248 298.199C91.5249 298.193 91.4262 298.173 91.3314 298.141Z" fill="black"/>
<path d="M111.888 298.295C111.709 298.229 111.554 298.108 111.447 297.949C111.34 297.791 111.285 297.603 111.29 297.411L113.517 205.286C113.5 205.156 113.511 205.023 113.549 204.898C113.588 204.772 113.653 204.657 113.74 204.559C113.827 204.461 113.935 204.383 114.055 204.331C114.175 204.278 114.305 204.252 114.436 204.255C114.568 204.257 114.697 204.288 114.815 204.345C114.933 204.402 115.037 204.484 115.121 204.585C115.205 204.686 115.265 204.804 115.299 204.931C115.333 205.058 115.338 205.191 115.316 205.32L113.119 297.459C113.112 297.702 113.009 297.932 112.834 298.099C112.659 298.266 112.424 298.358 112.182 298.353C112.082 298.347 111.983 298.328 111.888 298.295Z" fill="black"/>
<path d="M131.685 298.446C131.506 298.378 131.353 298.257 131.246 298.099C131.139 297.941 131.083 297.753 131.087 297.562L133.3 205.466C133.294 205.341 133.313 205.215 133.358 205.098C133.402 204.98 133.471 204.873 133.558 204.782C133.646 204.692 133.751 204.621 133.868 204.574C133.984 204.526 134.109 204.503 134.235 204.506C134.361 204.509 134.484 204.537 134.599 204.59C134.713 204.643 134.815 204.719 134.898 204.812C134.982 204.906 135.045 205.017 135.085 205.136C135.124 205.256 135.138 205.382 135.126 205.507L132.918 297.605C132.913 297.75 132.873 297.892 132.803 298.019C132.733 298.147 132.634 298.255 132.514 298.337C132.394 298.419 132.256 298.472 132.112 298.49C131.969 298.509 131.822 298.494 131.685 298.446Z" fill="black"/>
<path d="M152.256 298.571C152.076 298.505 151.922 298.384 151.815 298.225C151.708 298.067 151.653 297.878 151.658 297.687L153.871 205.591C153.877 205.349 153.978 205.118 154.154 204.95C154.33 204.783 154.565 204.692 154.808 204.698C155.051 204.703 155.281 204.805 155.449 204.981C155.617 205.157 155.708 205.392 155.702 205.635L153.489 297.73C153.486 297.85 153.46 297.969 153.411 298.079C153.362 298.189 153.293 298.288 153.205 298.371C153.118 298.454 153.016 298.52 152.904 298.563C152.792 298.606 152.672 298.627 152.552 298.624C152.451 298.626 152.35 298.608 152.256 298.571Z" fill="black"/>
<path d="M169.919 298.731C169.739 298.665 169.584 298.545 169.477 298.386C169.369 298.227 169.315 298.039 169.321 297.847L171.529 205.749C171.534 205.506 171.636 205.276 171.812 205.108C171.988 204.94 172.223 204.849 172.466 204.855C172.709 204.861 172.939 204.963 173.107 205.139C173.275 205.314 173.365 205.549 173.36 205.792L171.152 297.89C171.145 298.133 171.042 298.362 170.867 298.53C170.691 298.697 170.457 298.789 170.215 298.784C170.114 298.782 170.014 298.764 169.919 298.731Z" fill="black"/>
<path d="M190.476 298.885C190.296 298.819 190.142 298.698 190.035 298.54C189.927 298.381 189.873 298.193 189.878 298.002L192.086 205.904C192.093 205.661 192.197 205.431 192.373 205.264C192.55 205.097 192.785 205.006 193.028 205.012C193.148 205.015 193.266 205.041 193.375 205.09C193.485 205.138 193.584 205.208 193.667 205.295C193.749 205.381 193.814 205.484 193.857 205.596C193.9 205.708 193.92 205.827 193.917 205.947L191.709 298.045C191.702 298.287 191.599 298.517 191.424 298.684C191.248 298.851 191.014 298.943 190.772 298.939C190.671 298.937 190.571 298.919 190.476 298.885Z" fill="black"/>
<path d="M210.284 299.011C210.105 298.944 209.952 298.823 209.845 298.664C209.738 298.506 209.682 298.319 209.686 298.128L211.899 206.032C211.877 205.9 211.884 205.764 211.921 205.635C211.957 205.505 212.021 205.386 212.109 205.284C212.196 205.183 212.305 205.101 212.427 205.047C212.55 204.992 212.683 204.964 212.817 204.967C212.951 204.969 213.083 205 213.204 205.059C213.324 205.118 213.431 205.203 213.515 205.307C213.599 205.412 213.659 205.533 213.691 205.664C213.723 205.794 213.726 205.93 213.7 206.061L211.505 298.196C211.5 298.341 211.461 298.483 211.391 298.61C211.321 298.737 211.221 298.846 211.101 298.928C210.981 299.009 210.844 299.062 210.7 299.081C210.556 299.1 210.41 299.084 210.272 299.036L210.284 299.011Z" fill="black"/>
<path d="M230.832 299.186C230.652 299.119 230.498 298.999 230.391 298.84C230.283 298.682 230.228 298.493 230.234 298.302L232.447 206.206C232.452 205.963 232.554 205.733 232.73 205.565C232.906 205.398 233.141 205.307 233.384 205.312C233.627 205.318 233.857 205.42 234.025 205.596C234.192 205.771 234.283 206.007 234.278 206.249L232.062 298.35C232.06 298.47 232.033 298.589 231.984 298.699C231.936 298.809 231.866 298.908 231.779 298.991C231.692 299.074 231.589 299.139 231.477 299.183C231.365 299.226 231.246 299.247 231.125 299.244C231.025 299.244 230.925 299.224 230.832 299.186Z" fill="black"/>
<path d="M329.046 166.484C322.419 154.126 302.819 138.634 293.464 138.561C284.109 138.488 264.275 153.686 257.472 165.94C235.96 204.693 227.399 288.735 255.515 337.495C256.376 338.999 257.616 340.252 259.111 341.128C260.606 342.005 262.305 342.475 264.038 342.492L291.926 342.702L319.811 342.916C321.544 342.925 323.25 342.48 324.758 341.627C326.267 340.774 327.527 339.542 328.413 338.052C357.268 289.717 349.984 205.558 329.046 166.484Z" stroke="black" stroke-width="2" stroke-miterlimit="10" stroke-linecap="round"/>
<path d="M304.253 123.441C304.1 123.387 303.965 123.292 303.862 123.167C303.758 123.042 303.69 122.891 303.665 122.731L293.154 59.5177C293.134 59.3989 293.138 59.2774 293.165 59.1601C293.193 59.0428 293.243 58.932 293.313 58.8341C293.383 58.7361 293.472 58.653 293.574 58.5894C293.676 58.5257 293.79 58.4829 293.909 58.4632C294.027 58.4435 294.149 58.4475 294.266 58.4748C294.384 58.502 294.494 58.5521 294.592 58.6222C294.69 58.6923 294.773 58.781 294.837 58.8833C294.901 58.9855 294.943 59.0993 294.963 59.2181L305.467 122.434C305.507 122.673 305.45 122.919 305.309 123.116C305.168 123.314 304.955 123.447 304.716 123.487C304.56 123.513 304.401 123.497 304.253 123.441Z" fill="black"/>
<path d="M282.293 123.273C282.091 123.198 281.922 123.054 281.815 122.867C281.708 122.68 281.669 122.462 281.705 122.249L293.164 59.196C293.186 59.0781 293.231 58.9658 293.296 58.8652C293.361 58.7645 293.445 58.6777 293.544 58.6096C293.642 58.5415 293.753 58.4936 293.87 58.4685C293.987 58.4433 294.108 58.4414 294.226 58.463C294.344 58.4846 294.456 58.5292 294.557 58.5942C294.658 58.6593 294.745 58.7434 294.813 58.842C294.881 58.9406 294.929 59.0517 294.954 59.1688C294.979 59.286 294.981 59.4069 294.959 59.5248L283.507 122.575C283.459 122.809 283.323 123.014 283.126 123.148C282.929 123.283 282.687 123.335 282.453 123.293C282.399 123.29 282.345 123.283 282.293 123.273Z" fill="black"/>
<path d="M292.866 400.363C292.655 400.286 292.481 400.135 292.375 399.937C292.27 399.739 292.241 399.51 292.294 399.292C297.589 377.454 305.526 344.361 305.659 342.778C305.659 342.659 305.683 342.541 305.73 342.431C305.776 342.321 305.845 342.222 305.93 342.139C306.016 342.056 306.117 341.991 306.228 341.948C306.339 341.904 306.457 341.884 306.577 341.887C306.821 341.892 307.054 341.994 307.225 342.17C307.395 342.345 307.49 342.581 307.488 342.826C307.474 344.374 296.307 390.492 294.072 399.722C294.046 399.841 293.996 399.954 293.925 400.054C293.854 400.153 293.764 400.238 293.66 400.302C293.557 400.366 293.441 400.409 293.32 400.428C293.2 400.447 293.076 400.442 292.958 400.412C292.926 400.398 292.895 400.382 292.866 400.363Z" fill="black"/>
<path d="M289.537 400.341C289.396 400.291 289.27 400.206 289.17 400.095C289.07 399.984 288.998 399.85 288.962 399.705L274.878 342.804C274.834 342.574 274.879 342.335 275.006 342.137C275.133 341.939 275.331 341.797 275.559 341.741C275.787 341.685 276.028 341.719 276.232 341.836C276.436 341.952 276.587 342.143 276.655 342.368L290.736 399.261C290.765 399.378 290.771 399.499 290.753 399.618C290.735 399.737 290.694 399.852 290.632 399.955C290.57 400.058 290.488 400.148 290.391 400.219C290.294 400.291 290.184 400.342 290.067 400.371C289.891 400.415 289.706 400.404 289.537 400.341Z" fill="black"/>
<path d="M291.185 400.905C291.007 400.838 290.854 400.717 290.748 400.559C290.642 400.401 290.587 400.214 290.592 400.023L291.011 342.705C291.042 342.487 291.152 342.287 291.319 342.143C291.485 341.999 291.699 341.92 291.919 341.921C292.139 341.921 292.352 342.002 292.518 342.146C292.684 342.291 292.793 342.491 292.823 342.709L292.394 400.053C292.391 400.295 292.292 400.527 292.119 400.697C291.945 400.867 291.712 400.961 291.469 400.958C291.372 400.956 291.276 400.938 291.185 400.905Z" fill="black"/>
<path d="M294.201 139.431L294.147 139.406C292.317 138.595 287.592 134.002 287.06 133.482C286.899 133.31 286.811 133.083 286.813 132.847C286.815 132.611 286.908 132.386 287.073 132.217C287.237 132.048 287.46 131.949 287.696 131.941C287.931 131.932 288.161 132.015 288.337 132.172C290.26 134.054 293.736 137.224 294.891 137.732C295.002 137.778 295.104 137.844 295.19 137.929C295.275 138.014 295.344 138.114 295.39 138.225C295.437 138.336 295.462 138.455 295.463 138.575C295.464 138.696 295.441 138.815 295.396 138.927C295.35 139.038 295.283 139.14 295.199 139.226C295.114 139.311 295.014 139.379 294.903 139.426C294.792 139.473 294.673 139.498 294.553 139.499C294.432 139.5 294.313 139.477 294.201 139.431Z" fill="black"/>
<path d="M305.078 134.503C304.985 134.48 304.897 134.439 304.819 134.383C303.414 133.241 302.081 132.014 300.829 130.707C300.738 130.621 300.667 130.518 300.618 130.404C300.569 130.289 300.544 130.166 300.544 130.042C300.544 129.917 300.569 129.794 300.619 129.68C300.668 129.566 300.74 129.463 300.831 129.377C300.921 129.292 301.028 129.226 301.145 129.183C301.262 129.14 301.386 129.122 301.51 129.129C301.635 129.136 301.756 129.168 301.867 129.224C301.979 129.279 302.078 129.356 302.158 129.451C303.358 130.693 304.632 131.86 305.972 132.948C306.13 133.088 306.235 133.278 306.269 133.486C306.303 133.694 306.265 133.908 306.159 134.09C306.054 134.273 305.889 134.414 305.692 134.489C305.495 134.565 305.278 134.569 305.078 134.503Z" fill="black"/>
<path d="M301.073 138.498C301.056 138.487 301.038 138.478 301.019 138.472C299.186 137.654 294.466 133.064 293.93 132.541C293.843 132.458 293.773 132.357 293.725 132.246C293.676 132.135 293.651 132.016 293.649 131.895C293.647 131.774 293.669 131.654 293.714 131.542C293.759 131.429 293.826 131.327 293.91 131.24C293.995 131.154 294.096 131.085 294.207 131.038C294.319 130.991 294.438 130.966 294.559 130.966C294.68 130.965 294.8 130.988 294.912 131.034C295.024 131.08 295.126 131.148 295.211 131.233C297.129 133.114 300.611 136.286 301.763 136.799C301.974 136.899 302.139 137.076 302.223 137.294C302.308 137.512 302.306 137.754 302.218 137.97C302.131 138.187 301.963 138.361 301.751 138.459C301.539 138.556 301.297 138.568 301.076 138.493L301.073 138.498Z" fill="black"/>
<path d="M310.109 131.925C310.031 131.904 309.957 131.869 309.891 131.823C308.663 130.954 306.526 128.155 306.301 127.845C306.227 127.748 306.173 127.638 306.141 127.52C306.11 127.403 306.102 127.28 306.117 127.159C306.133 127.039 306.173 126.922 306.234 126.817C306.294 126.711 306.375 126.619 306.472 126.545C306.568 126.471 306.679 126.416 306.796 126.385C306.914 126.353 307.036 126.345 307.157 126.361C307.278 126.377 307.394 126.416 307.5 126.477C307.605 126.538 307.697 126.619 307.772 126.715C308.372 127.516 310.13 129.715 310.975 130.314C311.153 130.444 311.277 130.633 311.327 130.847C311.376 131.061 311.347 131.286 311.245 131.48C311.142 131.674 310.974 131.825 310.769 131.905C310.565 131.986 310.338 131.99 310.131 131.917L310.109 131.925Z" fill="black"/>
<path d="M280.014 161.437C279.981 161.424 279.95 161.41 279.92 161.392C279.739 161.296 279.604 161.132 279.543 160.936C279.483 160.74 279.502 160.528 279.597 160.347C283.475 152.99 293.456 138.279 293.582 138.139C293.698 137.969 293.876 137.851 294.078 137.813C294.28 137.774 294.488 137.817 294.658 137.932C294.828 138.048 294.946 138.226 294.984 138.428C295.023 138.63 294.98 138.839 294.864 139.009C294.788 139.173 284.829 153.797 280.99 161.081C280.902 161.252 280.752 161.383 280.572 161.449C280.391 161.515 280.192 161.51 280.014 161.437Z" fill="black"/>
<path d="M303.993 163.568C303.882 163.527 303.782 163.462 303.7 163.376C303.618 163.291 303.557 163.188 303.521 163.075C301.047 155.225 293.884 139.047 293.809 138.885C293.726 138.697 293.721 138.484 293.795 138.292C293.869 138.1 294.016 137.946 294.204 137.863C294.392 137.779 294.605 137.774 294.797 137.848C294.989 137.923 295.143 138.07 295.227 138.258C295.297 138.418 302.494 154.678 304.997 162.608C305.041 162.746 305.045 162.893 305.009 163.034C304.974 163.174 304.899 163.301 304.794 163.401C304.69 163.501 304.559 163.57 304.418 163.599C304.276 163.629 304.129 163.618 303.993 163.568Z" fill="black"/>
<path d="M300.723 390.609C300.67 390.59 300.618 390.566 300.569 390.537C300.452 390.467 300.352 390.371 300.277 390.258C300.201 390.144 300.152 390.015 300.132 389.88C299.278 388.544 298.355 387.253 297.367 386.013C297.292 385.918 297.237 385.808 297.205 385.692C297.173 385.575 297.164 385.453 297.178 385.332C297.193 385.212 297.232 385.096 297.291 384.99C297.351 384.885 297.431 384.792 297.527 384.718C297.622 384.643 297.731 384.588 297.848 384.556C297.965 384.523 298.087 384.514 298.208 384.529C298.328 384.544 298.444 384.582 298.55 384.642C298.655 384.702 298.748 384.782 298.822 384.877C302.319 389.393 302.169 389.65 301.833 390.201C301.727 390.39 301.557 390.535 301.353 390.61C301.15 390.685 300.926 390.684 300.723 390.609Z" fill="black"/>
<path d="M303.758 384.789C303.703 384.769 303.649 384.745 303.599 384.715C303.482 384.646 303.382 384.551 303.307 384.437C303.232 384.324 303.184 384.195 303.166 384.06C302.311 382.726 301.388 381.437 300.4 380.198C300.249 380.006 300.18 379.761 300.209 379.519C300.239 379.276 300.363 379.055 300.555 378.904C300.748 378.753 300.992 378.684 301.235 378.714C301.478 378.743 301.699 378.867 301.85 379.06C305.351 383.578 305.196 383.832 304.863 384.391C304.756 384.577 304.586 384.719 304.383 384.792C304.181 384.865 303.959 384.864 303.758 384.789Z" fill="black"/>
<path d="M306.791 379.023C306.736 379.003 306.683 378.978 306.632 378.949C306.515 378.879 306.414 378.784 306.339 378.67C306.263 378.556 306.214 378.427 306.195 378.291C305.342 376.956 304.419 375.667 303.428 374.43C303.277 374.237 303.21 373.992 303.24 373.749C303.27 373.506 303.395 373.285 303.588 373.134C303.781 372.983 304.026 372.915 304.269 372.945C304.512 372.975 304.733 373.101 304.884 373.294C308.38 377.81 308.23 378.066 307.894 378.618C307.789 378.805 307.62 378.949 307.418 379.023C307.215 379.098 306.993 379.098 306.791 379.023Z" fill="black"/>
<path d="M309.019 372.832C308.964 372.812 308.91 372.788 308.86 372.758C308.743 372.688 308.644 372.593 308.569 372.48C308.494 372.366 308.445 372.237 308.427 372.103C307.571 370.768 306.649 369.478 305.663 368.236C305.588 368.142 305.533 368.034 305.501 367.918C305.469 367.803 305.46 367.682 305.475 367.563C305.49 367.444 305.529 367.329 305.589 367.225C305.648 367.12 305.728 367.029 305.824 366.956C305.919 366.883 306.028 366.829 306.144 366.797C306.26 366.765 306.381 366.757 306.5 366.772C306.62 366.787 306.735 366.826 306.839 366.886C306.944 366.945 307.035 367.025 307.109 367.12C310.605 371.636 310.45 371.89 310.117 372.449C310.007 372.63 309.837 372.768 309.636 372.837C309.436 372.907 309.218 372.905 309.019 372.832Z" fill="black"/>
<path d="M312.039 367.03C311.986 367.011 311.934 366.987 311.885 366.958C311.768 366.888 311.667 366.793 311.591 366.679C311.516 366.565 311.467 366.436 311.448 366.3C310.595 364.965 309.671 363.676 308.681 362.439C308.53 362.246 308.462 362.001 308.492 361.758C308.522 361.515 308.647 361.294 308.84 361.143C309.033 360.992 309.278 360.924 309.521 360.954C309.764 360.984 309.986 361.11 310.136 361.303C313.632 365.818 313.482 366.075 313.144 366.631C313.038 366.819 312.868 366.961 312.665 367.034C312.463 367.107 312.241 367.106 312.039 367.03Z" fill="black"/>
<path d="M314.684 360.398C314.628 360.379 314.575 360.354 314.525 360.324C314.408 360.254 314.309 360.159 314.234 360.046C314.159 359.932 314.11 359.804 314.092 359.669C313.376 358.625 312.601 357.624 311.771 356.669C311.652 356.481 311.605 356.257 311.639 356.038C311.673 355.819 311.786 355.619 311.956 355.477C312.126 355.334 312.342 355.258 312.563 355.263C312.785 355.268 312.998 355.353 313.162 355.502C316.282 359.19 316.11 359.466 315.772 360.023C315.662 360.201 315.493 360.336 315.295 360.405C315.097 360.473 314.881 360.471 314.684 360.398Z" fill="black"/>
<path d="M317.409 354.307C317.354 354.287 317.301 354.262 317.25 354.233C317.133 354.164 317.033 354.07 316.958 353.957C316.883 353.845 316.834 353.717 316.816 353.582C316.052 352.455 315.227 351.371 314.343 350.336C314.263 350.244 314.203 350.138 314.165 350.023C314.127 349.907 314.112 349.786 314.122 349.665C314.132 349.544 314.166 349.426 314.222 349.319C314.278 349.211 314.355 349.116 314.448 349.038C314.542 348.961 314.65 348.903 314.766 348.868C314.882 348.832 315.004 348.821 315.125 348.834C315.245 348.846 315.362 348.883 315.468 348.941C315.575 349 315.668 349.079 315.743 349.174C318.996 353.11 318.836 353.375 318.5 353.926C318.391 354.106 318.222 354.242 318.023 354.312C317.824 354.381 317.607 354.379 317.409 354.307Z" fill="black"/>
<path d="M272.312 305.365C272.312 305.522 272.266 305.676 272.178 305.806C272.09 305.937 271.965 306.038 271.82 306.097C270.178 306.777 264.09 307.701 259.139 307.667C254.189 307.633 250.07 306.657 248.621 305.938C248.488 305.871 248.375 305.768 248.297 305.64C248.219 305.513 248.177 305.367 248.177 305.217L248.312 287.737C248.313 287.609 248.345 287.483 248.405 287.369C248.465 287.256 248.551 287.159 248.656 287.086C248.761 287.013 248.882 286.966 249.009 286.95C249.136 286.933 249.266 286.947 249.386 286.991C251.767 287.853 257.128 288.55 260.376 288.449C263.623 288.348 269.172 287.942 271.383 287.158C271.504 287.115 271.634 287.102 271.762 287.121C271.889 287.139 272.01 287.187 272.115 287.262C272.219 287.337 272.304 287.436 272.362 287.551C272.421 287.665 272.45 287.792 272.449 287.921L272.312 305.365Z" stroke="black" stroke-width="2" stroke-miterlimit="10" stroke-linecap="round"/>
<path d="M303.557 305.603C303.555 305.76 303.508 305.914 303.42 306.045C303.332 306.177 303.207 306.279 303.062 306.34C301.42 307.02 295.332 307.944 290.384 307.905C285.435 307.866 281.31 306.892 279.865 306.176C279.73 306.11 279.616 306.006 279.537 305.879C279.458 305.751 279.416 305.603 279.416 305.453L279.552 287.972C279.553 287.844 279.584 287.718 279.644 287.605C279.704 287.492 279.79 287.394 279.895 287.321C280.001 287.248 280.122 287.202 280.249 287.185C280.376 287.169 280.505 287.183 280.625 287.226C283.009 288.096 288.365 288.791 291.615 288.685C294.864 288.579 300.414 288.184 302.625 287.4C302.746 287.358 302.876 287.345 303.004 287.363C303.131 287.382 303.252 287.43 303.356 287.505C303.461 287.58 303.546 287.679 303.604 287.793C303.662 287.908 303.692 288.035 303.691 288.164L303.557 305.603Z" stroke="black" stroke-width="2" stroke-miterlimit="10" stroke-linecap="round"/>
<path d="M336.243 305.848C336.241 306.004 336.194 306.157 336.106 306.287C336.019 306.417 335.895 306.519 335.751 306.58C334.109 307.26 329.106 308.194 324.132 308.143C319.159 308.093 313.974 307.121 312.522 306.407C312.388 306.34 312.276 306.236 312.197 306.107C312.119 305.979 312.079 305.831 312.08 305.681L312.216 288.201C312.216 288.072 312.247 287.945 312.306 287.832C312.366 287.718 312.452 287.62 312.557 287.547C312.663 287.473 312.785 287.427 312.912 287.411C313.04 287.395 313.169 287.41 313.289 287.455C315.675 288.319 321.021 288.713 324.281 288.612C327.54 288.51 333.076 288.406 335.292 287.624C335.412 287.581 335.542 287.568 335.669 287.586C335.796 287.604 335.917 287.653 336.021 287.727C336.125 287.802 336.21 287.901 336.267 288.015C336.325 288.13 336.354 288.257 336.352 288.385L336.243 305.848Z" stroke="black" stroke-width="2" stroke-miterlimit="10" stroke-linecap="round"/>
<path d="M272.944 221.473C272.944 221.63 272.896 221.783 272.809 221.914C272.721 222.044 272.597 222.145 272.451 222.205C270.809 222.885 264.722 223.809 259.774 223.771C254.825 223.732 250.7 222.758 249.248 222.044C249.114 221.976 249.002 221.872 248.924 221.744C248.846 221.615 248.805 221.468 248.806 221.318L248.941 203.837C248.943 203.709 248.974 203.583 249.034 203.47C249.094 203.357 249.18 203.26 249.285 203.187C249.39 203.114 249.512 203.067 249.639 203.05C249.766 203.034 249.895 203.048 250.015 203.092C252.401 203.956 257.757 204.651 261.005 204.55C264.252 204.449 269.807 204.045 272.017 203.261C272.139 203.218 272.268 203.206 272.396 203.224C272.523 203.242 272.644 203.29 272.749 203.365C272.853 203.44 272.938 203.539 272.996 203.654C273.055 203.768 273.084 203.896 273.083 204.024L272.944 221.473Z" stroke="black" stroke-width="2" stroke-miterlimit="10" stroke-linecap="round"/>
<path d="M304.191 221.706C304.189 221.863 304.141 222.015 304.053 222.145C303.966 222.275 303.842 222.377 303.698 222.438C302.056 223.118 295.966 224.047 291.018 224.008C286.069 223.97 281.959 223.003 280.493 222.253C280.359 222.187 280.245 222.084 280.166 221.957C280.088 221.829 280.047 221.681 280.049 221.531L280.185 204.051C280.186 203.923 280.218 203.797 280.278 203.684C280.338 203.571 280.424 203.473 280.529 203.4C280.634 203.327 280.755 203.28 280.882 203.264C281.009 203.247 281.138 203.262 281.259 203.305C283.642 204.175 288.999 204.87 292.248 204.764C295.498 204.658 301.043 204.261 303.259 203.479C303.379 203.436 303.509 203.423 303.636 203.441C303.763 203.459 303.884 203.508 303.988 203.583C304.092 203.657 304.177 203.756 304.234 203.871C304.292 203.985 304.321 204.112 304.319 204.24L304.191 221.706Z" stroke="black" stroke-width="2" stroke-miterlimit="10" stroke-linecap="round"/>
<path d="M336.901 221.938C336.902 222.096 336.855 222.251 336.766 222.382C336.678 222.513 336.553 222.615 336.406 222.675C334.764 223.355 329.767 224.291 324.788 224.239C319.81 224.186 314.635 223.218 313.185 222.5C313.05 222.434 312.937 222.332 312.858 222.204C312.779 222.076 312.739 221.929 312.741 221.779L312.877 204.298C312.878 204.17 312.909 204.044 312.969 203.931C313.029 203.818 313.115 203.721 313.22 203.648C313.326 203.575 313.447 203.528 313.574 203.511C313.701 203.495 313.83 203.509 313.95 203.553C316.329 204.42 321.682 204.811 324.939 204.714C328.196 204.618 333.734 204.508 335.95 203.727C336.071 203.684 336.2 203.671 336.327 203.689C336.454 203.707 336.575 203.755 336.679 203.83C336.784 203.905 336.868 204.003 336.926 204.118C336.984 204.232 337.013 204.359 337.011 204.488L336.901 221.938Z" stroke="black" stroke-width="2" stroke-miterlimit="10" stroke-linecap="round"/>
<path d="M242.89 207.138C242.679 207.057 242.505 206.9 242.403 206.699C242.3 206.498 242.276 206.265 242.334 206.047C242.392 205.829 242.529 205.64 242.718 205.516C242.908 205.393 243.136 205.344 243.359 205.378C245.205 205.689 247.465 205.902 248.204 205.768C248.321 205.616 248.482 205.503 248.666 205.447C248.85 205.391 249.047 205.395 249.229 205.457C249.41 205.519 249.568 205.636 249.679 205.793C249.791 205.95 249.85 206.137 249.848 206.329C249.849 206.495 249.813 206.659 249.743 206.809C249.673 206.96 249.57 207.093 249.443 207.199C249.184 207.417 248.42 208.095 243.065 207.189C243.005 207.178 242.946 207.161 242.89 207.138Z" fill="black"/>
<path d="M240.458 219.954C240.243 219.873 240.066 219.713 239.964 219.507C239.861 219.301 239.84 219.064 239.904 218.843C239.968 218.622 240.113 218.433 240.31 218.314C240.507 218.195 240.742 218.155 240.967 218.201C243.082 218.661 246.967 219.112 248.394 218.349C248.5 218.285 248.618 218.244 248.741 218.227C248.864 218.21 248.989 218.219 249.108 218.252C249.228 218.285 249.34 218.341 249.437 218.419C249.533 218.496 249.614 218.593 249.672 218.702C249.731 218.811 249.766 218.931 249.777 219.055C249.788 219.179 249.773 219.303 249.734 219.421C249.696 219.539 249.633 219.647 249.551 219.74C249.469 219.833 249.369 219.908 249.257 219.962C246.771 221.283 241.209 220.123 240.582 219.988C240.539 219.982 240.498 219.971 240.458 219.954Z" fill="black"/>
<path d="M272.752 207.796C272.572 207.729 272.417 207.608 272.309 207.449C272.201 207.29 272.145 207.102 272.149 206.91C272.152 206.669 272.25 206.44 272.421 206.272C272.593 206.104 272.824 206.01 273.064 206.011C273.16 206.014 273.388 206.029 273.71 206.065C274.962 206.183 278.285 206.504 279.838 205.897C280.063 205.823 280.308 205.838 280.522 205.941C280.735 206.043 280.901 206.224 280.984 206.446C281.067 206.668 281.061 206.913 280.966 207.131C280.872 207.348 280.697 207.521 280.479 207.612C278.527 208.347 275.024 208.008 273.531 207.863C273.288 207.84 273.121 207.822 273.037 207.82C272.942 207.827 272.845 207.819 272.752 207.796Z" fill="black"/>
<path d="M272.655 218.876C272.44 218.791 272.265 218.628 272.166 218.42C272.066 218.212 272.048 217.973 272.117 217.753C272.185 217.532 272.334 217.346 272.534 217.231C272.735 217.115 272.971 217.08 273.196 217.132C273.226 217.146 276.723 218.002 279.497 217.19C279.726 217.132 279.97 217.166 280.175 217.284C280.381 217.402 280.533 217.595 280.599 217.822C280.665 218.05 280.64 218.294 280.53 218.504C280.42 218.714 280.233 218.872 280.008 218.947C276.752 219.897 272.907 218.945 272.764 218.915C272.726 218.905 272.69 218.893 272.655 218.876Z" fill="black"/>
<path d="M303.996 206.594C303.778 206.506 303.602 206.337 303.505 206.122C303.408 205.908 303.397 205.664 303.475 205.442C303.553 205.22 303.713 205.036 303.923 204.929C304.133 204.822 304.376 204.8 304.601 204.868C304.646 204.889 309.591 206.48 312.412 204.983C312.519 204.911 312.639 204.861 312.766 204.839C312.892 204.816 313.022 204.82 313.147 204.851C313.272 204.882 313.389 204.939 313.491 205.018C313.592 205.098 313.676 205.197 313.736 205.311C313.796 205.424 313.832 205.55 313.841 205.678C313.849 205.806 313.831 205.935 313.787 206.056C313.742 206.177 313.673 206.287 313.583 206.379C313.493 206.471 313.385 206.543 313.265 206.591C309.735 208.441 304.236 206.663 304.006 206.586L303.996 206.594Z" fill="black"/>
<path d="M303.879 220.454C303.668 220.375 303.492 220.222 303.387 220.022C303.282 219.823 303.254 219.591 303.309 219.372C303.363 219.154 303.497 218.963 303.684 218.836C303.871 218.71 304.098 218.657 304.322 218.688C306.73 219.024 310.59 219.191 311.675 218.487C311.878 218.354 312.126 218.307 312.364 218.357C312.601 218.406 312.81 218.548 312.943 218.751C313.076 218.955 313.123 219.203 313.073 219.44C313.023 219.678 312.881 219.886 312.678 220.019C310.656 221.345 305.158 220.657 304.079 220.505C304.011 220.496 303.944 220.479 303.879 220.454Z" fill="black"/>
<path d="M337.162 208.496C336.958 208.419 336.789 208.272 336.684 208.081C336.579 207.89 336.545 207.668 336.589 207.454C336.633 207.241 336.752 207.05 336.924 206.917C337.096 206.783 337.311 206.715 337.528 206.725C339.167 206.818 341.21 206.809 341.63 206.647C341.731 206.586 341.844 206.546 341.961 206.529C342.078 206.512 342.197 206.518 342.312 206.547C342.427 206.576 342.535 206.628 342.629 206.699C342.724 206.77 342.803 206.86 342.863 206.962C342.984 207.176 343.017 207.428 342.956 207.665C342.894 207.903 342.743 208.108 342.534 208.237C341.936 208.599 340.217 208.705 337.426 208.553C337.336 208.547 337.247 208.528 337.162 208.496Z" fill="black"/>
<path d="M336.57 220.949C336.377 220.879 336.213 220.745 336.106 220.57C335.998 220.394 335.954 220.188 335.98 219.984C336.008 219.743 336.131 219.523 336.321 219.372C336.512 219.221 336.754 219.153 336.995 219.181C339.818 219.523 342.739 219.5 343.247 219.138C343.444 218.997 343.688 218.938 343.928 218.975C344.167 219.012 344.382 219.142 344.528 219.336C344.67 219.53 344.73 219.773 344.694 220.011C344.657 220.249 344.528 220.464 344.334 220.607C342.961 221.618 338.602 221.224 336.775 221.002C336.705 220.993 336.636 220.975 336.57 220.949Z" fill="black"/>
<path d="M239.511 289.719C239.303 289.641 239.129 289.491 239.024 289.295C238.918 289.099 238.887 288.871 238.937 288.654C238.987 288.437 239.114 288.246 239.295 288.116C239.476 287.986 239.698 287.927 239.919 287.949C242.706 288.226 247.039 288.443 247.958 288.068C248.183 287.982 248.431 287.988 248.651 288.084C248.871 288.18 249.045 288.358 249.134 288.581C249.224 288.803 249.223 289.052 249.131 289.274C249.039 289.496 248.863 289.672 248.643 289.766C246.981 290.437 240.936 289.881 239.743 289.766C239.664 289.761 239.586 289.745 239.511 289.719Z" fill="black"/>
<path d="M241.978 303.228L241.928 303.205C241.804 303.143 241.695 303.054 241.609 302.944C241.523 302.835 241.462 302.709 241.43 302.573C241.378 302.336 241.422 302.088 241.552 301.884C241.683 301.679 241.889 301.535 242.126 301.482C242.32 301.44 242.523 301.46 242.704 301.54C243.334 301.707 246.587 302.141 247.818 301.589C247.928 301.531 248.049 301.495 248.173 301.485C248.297 301.475 248.423 301.491 248.541 301.531C248.659 301.571 248.768 301.634 248.86 301.718C248.953 301.801 249.028 301.903 249.08 302.016C249.132 302.13 249.16 302.253 249.163 302.377C249.165 302.502 249.143 302.626 249.096 302.742C249.049 302.857 248.979 302.962 248.89 303.05C248.801 303.137 248.695 303.206 248.579 303.251C246.605 304.151 242.624 303.463 241.978 303.228Z" fill="black"/>
<path d="M272.143 291.16C271.96 291.094 271.803 290.973 271.693 290.813C271.583 290.653 271.526 290.463 271.53 290.269C271.534 290.032 271.632 289.806 271.802 289.64C271.972 289.475 272.2 289.383 272.438 289.386C272.74 289.401 273.042 289.441 273.339 289.503C274.61 289.709 277.569 290.2 279.174 289.508C279.285 289.461 279.404 289.436 279.524 289.434C279.644 289.433 279.764 289.455 279.875 289.5C279.987 289.545 280.089 289.611 280.175 289.695C280.261 289.779 280.33 289.88 280.377 289.99C280.425 290.1 280.451 290.219 280.453 290.339C280.455 290.459 280.433 290.578 280.388 290.69C280.343 290.801 280.277 290.903 280.193 290.988C280.108 291.074 280.008 291.142 279.897 291.188C277.8 292.092 274.587 291.561 273.042 291.307C272.744 291.259 272.527 291.218 272.414 291.214C272.321 291.209 272.23 291.191 272.143 291.16Z" fill="black"/>
<path d="M272.016 303.756C271.815 303.681 271.647 303.537 271.542 303.35C271.436 303.164 271.399 302.946 271.438 302.735C271.476 302.524 271.588 302.333 271.753 302.196C271.918 302.058 272.126 301.983 272.34 301.984C272.69 302.001 273.039 302.036 273.386 302.09C274.824 302.289 277.81 302.695 278.714 301.496C278.86 301.302 279.077 301.173 279.318 301.139C279.558 301.105 279.803 301.168 279.997 301.314C280.191 301.459 280.32 301.677 280.354 301.917C280.388 302.158 280.325 302.402 280.179 302.596C278.616 304.65 275.054 304.169 273.138 303.905C272.804 303.857 272.456 303.811 272.329 303.812C272.222 303.809 272.117 303.79 272.016 303.756Z" fill="black"/>
<path d="M303.352 291.394C303.15 291.32 302.981 291.176 302.874 290.989C302.768 290.802 302.731 290.583 302.77 290.372C302.82 290.139 302.958 289.934 303.156 289.8C303.353 289.667 303.595 289.615 303.83 289.656C303.875 289.677 308.847 290.574 311.978 289.735C312.21 289.683 312.452 289.723 312.655 289.847C312.858 289.97 313.004 290.168 313.064 290.397C313.124 290.627 313.093 290.87 312.977 291.077C312.86 291.284 312.668 291.438 312.441 291.506C308.89 292.439 303.716 291.496 303.499 291.456C303.448 291.44 303.399 291.419 303.352 291.394Z" fill="black"/>
<path d="M303.908 303.915C303.699 303.834 303.527 303.679 303.425 303.48C303.322 303.281 303.296 303.051 303.352 302.834C303.408 302.617 303.541 302.427 303.727 302.302C303.913 302.177 304.138 302.124 304.36 302.154C304.395 302.17 308.753 302.787 311.173 302.022C311.399 301.965 311.639 301.998 311.842 302.112C312.045 302.226 312.197 302.413 312.267 302.636C312.337 302.858 312.32 303.099 312.218 303.309C312.117 303.519 311.939 303.682 311.721 303.765C308.888 304.652 304.288 303.995 304.091 303.964C304.028 303.953 303.967 303.937 303.908 303.915Z" fill="black"/>
<path d="M336.039 291.639C335.844 291.568 335.679 291.432 335.571 291.254C335.464 291.076 335.42 290.867 335.448 290.661C335.482 290.422 335.608 290.205 335.8 290.058C335.992 289.911 336.234 289.845 336.474 289.875C338.001 290.079 342.322 290.491 344.005 289.969C344.232 289.913 344.471 289.946 344.675 290.06C344.878 290.175 345.03 290.364 345.099 290.587C345.168 290.81 345.15 291.051 345.047 291.261C344.944 291.471 344.764 291.633 344.545 291.715C342.186 292.43 336.844 291.754 336.234 291.687C336.167 291.679 336.102 291.663 336.039 291.639Z" fill="black"/>
<path d="M335.955 302.821C335.743 302.734 335.571 302.57 335.474 302.362C335.377 302.154 335.362 301.917 335.431 301.699C335.501 301.48 335.649 301.295 335.848 301.181C336.047 301.067 336.282 301.031 336.506 301.082C337.889 301.449 340.482 301.805 341.552 301.209C341.658 301.151 341.775 301.115 341.895 301.103C342.016 301.09 342.137 301.101 342.253 301.136C342.369 301.17 342.477 301.227 342.571 301.303C342.665 301.379 342.743 301.473 342.801 301.58C342.859 301.686 342.895 301.803 342.907 301.923C342.92 302.043 342.909 302.165 342.874 302.281C342.84 302.397 342.783 302.505 342.707 302.599C342.631 302.693 342.537 302.771 342.43 302.828C340.374 303.981 336.464 302.987 336.029 302.868C336.003 302.855 335.978 302.839 335.955 302.821Z" fill="black"/>
<path d="M325.882 341.494C325.749 341.446 325.628 341.366 325.53 341.263C323.059 338.626 320.9 335.713 319.094 332.582C319.037 332.476 319.001 332.359 318.989 332.239C318.977 332.119 318.988 331.998 319.023 331.882C319.057 331.767 319.114 331.659 319.19 331.565C319.266 331.472 319.36 331.394 319.466 331.337C319.573 331.279 319.689 331.243 319.809 331.231C319.929 331.219 320.05 331.23 320.166 331.265C320.282 331.299 320.389 331.356 320.483 331.432C320.577 331.508 320.654 331.602 320.712 331.709C322.445 334.704 324.511 337.493 326.87 340.025C327.01 340.175 327.094 340.368 327.111 340.573C327.128 340.778 327.075 340.982 326.962 341.153C326.849 341.324 326.681 341.452 326.486 341.517C326.292 341.581 326.081 341.578 325.888 341.509L325.882 341.494Z" fill="black"/>
<path d="M329.025 334.496C328.892 334.445 328.772 334.365 328.675 334.26C324.681 330.021 323.252 327.092 323.195 326.968C323.133 326.859 323.094 326.738 323.081 326.614C323.068 326.489 323.081 326.363 323.118 326.244C323.156 326.124 323.217 326.014 323.299 325.919C323.381 325.824 323.482 325.747 323.594 325.693C323.707 325.639 323.83 325.608 323.955 325.603C324.08 325.598 324.205 325.619 324.322 325.664C324.439 325.709 324.545 325.778 324.634 325.866C324.724 325.953 324.794 326.059 324.841 326.175C324.859 326.214 326.238 329.004 330.009 333.007C330.152 333.157 330.24 333.352 330.258 333.558C330.277 333.765 330.225 333.971 330.11 334.144C329.996 334.317 329.826 334.446 329.629 334.51C329.432 334.574 329.219 334.569 329.025 334.496Z" fill="black"/>
<path d="M332.496 327.494C332.348 327.442 332.217 327.352 332.116 327.232C330.469 325.294 328.973 323.233 327.64 321.068C327.578 320.965 327.537 320.851 327.519 320.733C327.502 320.614 327.507 320.493 327.536 320.377C327.565 320.261 327.617 320.151 327.688 320.055C327.759 319.959 327.849 319.877 327.951 319.815C328.054 319.754 328.168 319.713 328.286 319.695C328.405 319.677 328.526 319.683 328.642 319.712C328.758 319.741 328.868 319.793 328.964 319.864C329.06 319.935 329.142 320.024 329.204 320.127C330.493 322.2 331.931 324.176 333.506 326.041C333.636 326.195 333.712 326.388 333.721 326.59C333.731 326.791 333.674 326.99 333.559 327.156C333.443 327.321 333.277 327.444 333.085 327.505C332.892 327.567 332.685 327.563 332.496 327.494Z" fill="black"/>
<path d="M335.85 320.196C335.687 320.138 335.545 320.033 335.44 319.895C334.452 318.59 333.542 317.229 332.714 315.817C332.604 315.607 332.579 315.363 332.645 315.136C332.711 314.909 332.863 314.716 333.068 314.598C333.274 314.48 333.517 314.446 333.746 314.503C333.976 314.561 334.175 314.705 334.3 314.905C335.091 316.244 335.956 317.539 336.891 318.781C337.01 318.939 337.076 319.13 337.077 319.328C337.078 319.525 337.016 319.718 336.899 319.877C336.782 320.036 336.616 320.153 336.427 320.211C336.239 320.268 336.036 320.263 335.85 320.196Z" fill="black"/>
<path d="M319.501 343.776C319.409 343.75 319.321 343.71 319.242 343.655C316.889 341.801 314.529 338.584 314.235 337.255C314.186 337.018 314.231 336.77 314.362 336.566C314.494 336.363 314.7 336.219 314.937 336.166C315.054 336.14 315.176 336.137 315.294 336.159C315.413 336.18 315.526 336.224 315.627 336.289C315.729 336.355 315.816 336.439 315.884 336.539C315.953 336.638 316 336.75 316.025 336.867C316.171 337.54 318.059 340.393 320.378 342.219C320.549 342.354 320.667 342.545 320.709 342.76C320.752 342.974 320.716 343.196 320.609 343.386C320.502 343.576 320.331 343.722 320.126 343.797C319.921 343.872 319.696 343.872 319.492 343.795L319.501 343.776Z" fill="black"/>
<path d="M344.809 282.353C344.691 282.309 344.582 282.24 344.492 282.15C343.704 281.39 340.094 276.47 339.688 275.899C339.545 275.703 339.486 275.457 339.523 275.216C339.542 275.097 339.584 274.983 339.647 274.88C339.71 274.777 339.792 274.688 339.89 274.617C339.987 274.546 340.098 274.495 340.215 274.467C340.332 274.439 340.454 274.434 340.573 274.452C340.692 274.471 340.806 274.513 340.909 274.576C341.012 274.639 341.101 274.721 341.172 274.819C342.676 276.887 345.248 280.349 345.764 280.838C345.914 280.984 346.009 281.177 346.034 281.386C346.058 281.594 346.011 281.804 345.899 281.981C345.787 282.158 345.618 282.292 345.42 282.36C345.222 282.427 345.006 282.425 344.809 282.353Z" fill="black"/>
<path d="M345.448 273.485C345.329 273.441 345.221 273.372 345.131 273.283C344.342 272.522 340.732 267.602 340.326 267.032C340.224 266.838 340.195 266.614 340.244 266.4C340.293 266.187 340.416 265.998 340.593 265.868C340.769 265.738 340.986 265.675 341.205 265.691C341.423 265.708 341.629 265.802 341.784 265.957C343.287 268.025 345.859 271.487 346.376 271.976C346.525 272.122 346.621 272.316 346.645 272.524C346.67 272.732 346.622 272.942 346.511 273.119C346.399 273.297 346.23 273.43 346.032 273.498C345.833 273.565 345.618 273.563 345.421 273.491L345.448 273.485Z" fill="black"/>
<path d="M346.531 265.091C346.41 265.047 346.3 264.977 346.209 264.887C345.42 264.126 341.815 259.208 341.409 258.638C341.266 258.442 341.206 258.196 341.243 257.956C341.28 257.716 341.411 257.5 341.607 257.357C341.804 257.213 342.049 257.153 342.289 257.191C342.529 257.228 342.745 257.359 342.888 257.555C344.392 259.623 346.964 263.085 347.48 263.574C347.63 263.72 347.726 263.913 347.751 264.121C347.776 264.328 347.729 264.538 347.618 264.716C347.507 264.893 347.338 265.027 347.141 265.095C346.943 265.164 346.728 265.162 346.531 265.091Z" fill="black"/>
<path d="M346.591 257.049C346.471 257.008 346.362 256.94 346.271 256.852C345.483 256.091 341.873 251.171 341.469 250.596C341.343 250.399 341.296 250.162 341.339 249.932C341.381 249.702 341.51 249.497 341.699 249.36C341.888 249.222 342.122 249.161 342.354 249.191C342.586 249.22 342.798 249.337 342.946 249.518C344.457 251.583 347.022 255.048 347.54 255.532C347.69 255.678 347.786 255.871 347.811 256.078C347.836 256.286 347.789 256.496 347.678 256.673C347.567 256.851 347.398 256.985 347.201 257.053C347.003 257.122 346.788 257.12 346.591 257.049Z" fill="black"/>
<path d="M346.66 248.001C346.539 247.958 346.428 247.89 346.336 247.801C345.547 247.04 341.942 242.123 341.539 241.548C341.459 241.451 341.401 241.34 341.366 241.22C341.331 241.1 341.322 240.974 341.337 240.851C341.353 240.727 341.394 240.608 341.457 240.501C341.521 240.393 341.605 240.3 341.706 240.226C341.807 240.153 341.921 240.101 342.043 240.073C342.164 240.045 342.29 240.043 342.413 240.066C342.536 240.088 342.652 240.136 342.756 240.205C342.859 240.275 342.948 240.365 343.015 240.469C344.521 242.533 347.091 246 347.609 246.484C347.759 246.63 347.855 246.822 347.88 247.03C347.905 247.238 347.858 247.448 347.747 247.625C347.636 247.803 347.467 247.937 347.27 248.005C347.072 248.073 346.857 248.072 346.66 248.001Z" fill="black"/>
<path d="M339.12 197.28C339 197.237 338.892 197.167 338.803 197.078C338.014 196.317 334.404 191.397 334.001 190.821C333.874 190.625 333.827 190.388 333.87 190.158C333.913 189.928 334.041 189.723 334.23 189.586C334.419 189.448 334.653 189.387 334.885 189.417C335.117 189.446 335.329 189.563 335.477 189.744C336.988 191.809 339.553 195.274 340.069 195.763C340.24 195.932 340.337 196.163 340.338 196.404C340.339 196.645 340.244 196.876 340.075 197.048C339.954 197.173 339.8 197.261 339.631 197.302C339.462 197.343 339.285 197.335 339.12 197.28Z" fill="black"/>
<path d="M335.983 187.971C335.864 187.928 335.756 187.858 335.666 187.769C334.878 187.008 331.267 182.088 330.864 181.513C330.727 181.316 330.673 181.073 330.713 180.837C330.753 180.601 330.884 180.39 331.078 180.249C331.272 180.108 331.513 180.049 331.75 180.084C331.987 180.119 332.201 180.246 332.346 180.437C333.85 182.505 336.422 185.967 336.933 186.454C337.104 186.624 337.2 186.854 337.201 187.095C337.202 187.336 337.108 187.567 336.938 187.739C336.817 187.864 336.663 187.952 336.494 187.993C336.325 188.034 336.148 188.026 335.983 187.971Z" fill="black"/>
<path d="M332.564 176.751C332.445 176.708 332.337 176.639 332.247 176.549C331.458 175.788 327.848 170.868 327.445 170.293C327.308 170.096 327.254 169.854 327.294 169.618C327.334 169.381 327.465 169.17 327.659 169.03C327.853 168.889 328.094 168.83 328.331 168.865C328.568 168.9 328.782 169.027 328.927 169.217C330.43 171.286 333.002 174.748 333.519 175.236C333.688 175.407 333.784 175.637 333.785 175.878C333.786 176.118 333.692 176.35 333.524 176.522C333.402 176.647 333.248 176.735 333.077 176.776C332.907 176.817 332.729 176.808 332.564 176.751Z" fill="black"/>
<path d="M258.024 181.285C257.804 181.205 257.623 181.044 257.518 180.835C257.413 180.626 257.392 180.385 257.46 180.161C257.527 179.937 257.677 179.747 257.88 179.631C258.083 179.514 258.323 179.48 258.55 179.534C258.691 179.57 272.862 182.832 282.697 179.735C282.929 179.662 283.18 179.684 283.395 179.796C283.611 179.908 283.773 180.1 283.847 180.332C283.92 180.564 283.898 180.815 283.786 181.03C283.675 181.246 283.482 181.408 283.25 181.481C272.926 184.732 258.73 181.457 258.13 181.317L258.024 181.285Z" fill="black"/>
<path d="M290.559 190.08C290.341 189.999 290.163 189.837 290.059 189.628C289.956 189.42 289.937 189.18 290.004 188.957C290.072 188.734 290.222 188.545 290.424 188.429C290.625 188.313 290.864 188.278 291.09 188.332C291.231 188.367 305.4 191.635 315.235 188.538C315.352 188.493 315.476 188.473 315.601 188.478C315.726 188.483 315.848 188.514 315.961 188.569C316.073 188.623 316.174 188.7 316.255 188.794C316.337 188.889 316.398 188.999 316.436 189.118C316.473 189.238 316.486 189.363 316.473 189.488C316.46 189.612 316.422 189.732 316.361 189.841C316.3 189.95 316.217 190.045 316.117 190.121C316.018 190.197 315.904 190.251 315.783 190.282C305.467 193.529 291.27 190.255 290.671 190.114C290.632 190.108 290.595 190.097 290.559 190.08Z" fill="black"/>
<path d="M260.153 243.573C259.933 243.493 259.752 243.332 259.647 243.123C259.542 242.914 259.521 242.672 259.588 242.448C259.655 242.224 259.806 242.035 260.009 241.918C260.211 241.802 260.451 241.767 260.679 241.822C260.808 241.882 274.988 245.125 284.826 242.023C285.058 241.95 285.31 241.972 285.525 242.085C285.741 242.197 285.903 242.391 285.976 242.623C286.05 242.855 286.027 243.107 285.915 243.323C285.802 243.539 285.608 243.701 285.376 243.774C275.055 247.019 260.859 243.745 260.259 243.604L260.153 243.573Z" fill="black"/>
<path d="M297.243 252.901C297.023 252.821 296.842 252.66 296.737 252.451C296.632 252.242 296.611 252 296.678 251.776C296.745 251.552 296.896 251.363 297.099 251.246C297.302 251.129 297.541 251.095 297.769 251.149C297.912 251.18 312.081 254.448 321.921 251.353C322.147 251.297 322.386 251.329 322.59 251.443C322.793 251.557 322.945 251.745 323.015 251.967C323.085 252.19 323.067 252.43 322.966 252.64C322.864 252.85 322.687 253.013 322.469 253.097C312.145 256.347 297.949 253.073 297.349 252.932L297.243 252.901Z" fill="black"/>
<path d="M269.652 271.45C269.434 271.368 269.255 271.207 269.152 270.998C269.049 270.789 269.029 270.549 269.096 270.326C269.164 270.104 269.314 269.915 269.516 269.799C269.718 269.683 269.956 269.648 270.183 269.701C270.323 269.737 284.49 272.997 294.33 269.903C294.444 269.867 294.565 269.854 294.685 269.865C294.805 269.876 294.921 269.91 295.028 269.966C295.134 270.022 295.229 270.098 295.306 270.19C295.383 270.283 295.441 270.389 295.477 270.504C295.513 270.619 295.526 270.74 295.515 270.859C295.504 270.979 295.47 271.096 295.414 271.202C295.358 271.309 295.282 271.403 295.189 271.48C295.097 271.557 294.99 271.615 294.875 271.651C284.559 274.899 270.363 271.624 269.763 271.484L269.652 271.45Z" fill="black"/>
<path d="M284.429 319.067C284.211 318.985 284.032 318.823 283.929 318.615C283.826 318.406 283.806 318.166 283.874 317.943C283.941 317.72 284.091 317.532 284.293 317.416C284.495 317.299 284.733 317.265 284.96 317.318C285.089 317.378 299.27 320.621 309.105 317.524C309.221 317.479 309.346 317.459 309.471 317.464C309.596 317.47 309.718 317.501 309.83 317.555C309.943 317.609 310.043 317.686 310.125 317.781C310.206 317.875 310.268 317.986 310.305 318.105C310.343 318.224 310.355 318.35 310.343 318.474C310.33 318.598 310.292 318.718 310.23 318.827C310.169 318.936 310.086 319.032 309.987 319.107C309.888 319.183 309.774 319.238 309.653 319.268C299.336 322.515 285.14 319.241 284.54 319.1L284.429 319.067Z" fill="black"/>
<path d="M262.895 329.751C262.684 329.665 262.513 329.504 262.414 329.298C262.316 329.093 262.298 328.858 262.363 328.64C262.429 328.422 262.573 328.236 262.768 328.118C262.963 328.001 263.195 327.961 263.419 328.005C263.562 328.035 277.731 331.303 287.571 328.209C287.797 328.152 288.036 328.185 288.239 328.299C288.443 328.413 288.595 328.6 288.665 328.823C288.735 329.045 288.717 329.286 288.616 329.496C288.514 329.706 288.336 329.869 288.119 329.952C277.795 333.202 263.599 329.928 262.999 329.787C262.963 329.778 262.929 329.766 262.895 329.751Z" fill="black"/>
<path d="M259.369 210.587C259.33 210.572 259.292 210.555 259.255 210.534C258.77 210.278 258.037 209.76 258.108 208.959C258.144 208.696 258.261 208.45 258.442 208.257C258.624 208.063 258.861 207.93 259.121 207.876C259.236 207.841 259.356 207.829 259.475 207.841C259.595 207.853 259.711 207.888 259.816 207.945C259.922 208.001 260.016 208.078 260.091 208.171C260.167 208.264 260.224 208.371 260.259 208.486C260.312 208.658 260.315 208.842 260.266 209.015C260.432 209.152 260.545 209.344 260.584 209.556C260.623 209.769 260.585 209.988 260.478 210.175C260.371 210.363 260.202 210.506 259.999 210.581C259.797 210.655 259.574 210.656 259.372 210.582L259.369 210.587Z" fill="black"/>
<path d="M287.133 211.284L287.024 211.233C286.563 210.988 285.801 210.457 285.877 209.657C285.91 209.395 286.025 209.149 286.205 208.955C286.386 208.761 286.623 208.629 286.882 208.577C286.997 208.542 287.118 208.53 287.238 208.541C287.358 208.552 287.474 208.587 287.581 208.643C287.687 208.7 287.781 208.776 287.858 208.869C287.934 208.962 287.992 209.069 288.027 209.184C288.082 209.355 288.083 209.539 288.03 209.711C288.201 209.847 288.318 210.04 288.359 210.255C288.401 210.469 288.364 210.692 288.256 210.882C288.147 211.072 287.975 211.217 287.769 211.29C287.563 211.364 287.337 211.362 287.133 211.284Z" fill="black"/>
<path d="M273.451 157.777C273.411 157.762 273.373 157.744 273.336 157.724C272.876 157.479 272.118 156.95 272.19 156.148C272.226 155.885 272.342 155.64 272.524 155.446C272.705 155.252 272.942 155.119 273.202 155.066C273.318 155.031 273.439 155.019 273.558 155.031C273.678 155.043 273.794 155.078 273.9 155.135C274.007 155.192 274.101 155.269 274.177 155.362C274.253 155.455 274.31 155.562 274.345 155.677C274.395 155.849 274.396 156.032 274.347 156.205C274.514 156.342 274.626 156.534 274.665 156.746C274.704 156.958 274.667 157.177 274.56 157.365C274.453 157.552 274.283 157.696 274.081 157.77C273.878 157.845 273.656 157.845 273.453 157.772L273.451 157.777Z" fill="black"/>
<path d="M262.827 170.621C262.788 170.606 262.75 170.588 262.713 170.568C262.228 170.311 261.49 169.792 261.566 168.993C261.602 168.73 261.719 168.486 261.9 168.293C262.081 168.1 262.318 167.968 262.577 167.915C262.691 167.879 262.812 167.866 262.932 167.877C263.051 167.887 263.167 167.922 263.274 167.978C263.38 168.034 263.473 168.111 263.55 168.204C263.626 168.297 263.683 168.404 263.717 168.519C263.771 168.691 263.773 168.875 263.724 169.049C263.887 169.183 263.999 169.371 264.04 169.578C264.081 169.786 264.049 170.002 263.949 170.188C263.847 170.385 263.677 170.538 263.47 170.618C263.264 170.698 263.035 170.699 262.827 170.621Z" fill="black"/>
<path d="M272.675 171.662C272.637 171.647 272.601 171.63 272.566 171.611C272.069 171.379 271.342 170.835 271.419 170.036C271.452 169.773 271.567 169.527 271.747 169.333C271.928 169.139 272.164 169.007 272.424 168.956C272.539 168.92 272.66 168.907 272.78 168.918C272.9 168.929 273.017 168.963 273.123 169.02C273.23 169.076 273.324 169.153 273.401 169.246C273.477 169.339 273.535 169.447 273.569 169.562C273.624 169.734 273.625 169.918 273.571 170.09C273.738 170.227 273.85 170.419 273.889 170.631C273.928 170.843 273.891 171.062 273.784 171.25C273.677 171.437 273.507 171.581 273.305 171.655C273.102 171.73 272.88 171.73 272.677 171.657L272.675 171.662Z" fill="black"/>
<path d="M285.325 216.938C285.286 216.923 285.248 216.905 285.211 216.885C284.75 216.64 283.988 216.109 284.064 215.309C284.097 215.046 284.212 214.801 284.392 214.607C284.573 214.413 284.81 214.281 285.07 214.229C285.185 214.193 285.306 214.18 285.426 214.191C285.546 214.202 285.662 214.237 285.769 214.293C285.875 214.35 285.97 214.427 286.046 214.52C286.123 214.613 286.18 214.721 286.215 214.836C286.269 215.007 286.27 215.191 286.217 215.363C286.381 215.498 286.493 215.685 286.535 215.893C286.577 216.101 286.546 216.317 286.447 216.505C286.344 216.701 286.174 216.853 285.968 216.933C285.761 217.012 285.533 217.014 285.325 216.938Z" fill="black"/>
<path d="M257.057 294.658C257.02 294.643 256.983 294.626 256.948 294.607C256.463 294.35 255.725 293.831 255.801 293.031C255.834 292.769 255.949 292.523 256.129 292.329C256.31 292.135 256.547 292.003 256.807 291.952C256.922 291.916 257.042 291.904 257.162 291.915C257.282 291.926 257.398 291.961 257.505 292.018C257.611 292.074 257.705 292.151 257.782 292.243C257.859 292.336 257.916 292.443 257.952 292.558C258.006 292.731 258.005 292.917 257.951 293.09C258.118 293.228 258.23 293.419 258.269 293.632C258.308 293.844 258.271 294.063 258.164 294.25C258.057 294.438 257.887 294.582 257.685 294.656C257.482 294.731 257.26 294.731 257.057 294.658Z" fill="black"/>
<path d="M252.138 299.835L252.024 299.782C251.557 299.564 250.806 299.008 250.882 298.209C250.915 297.946 251.03 297.7 251.211 297.506C251.391 297.313 251.628 297.181 251.888 297.129C252.314 297.33 252.671 297.653 252.913 298.057C253.156 298.46 253.273 298.927 253.25 299.398C253.146 299.59 252.977 299.739 252.774 299.819C252.571 299.899 252.345 299.905 252.138 299.835Z" fill="black"/>
<path d="M284.953 293.903C284.915 293.888 284.879 293.871 284.844 293.852C284.347 293.62 283.618 293.081 283.697 292.277C283.73 292.014 283.845 291.768 284.025 291.574C284.206 291.381 284.443 291.248 284.702 291.197C284.897 291.142 285.102 291.131 285.302 291.164C285.502 291.197 285.692 291.273 285.859 291.388C286.026 291.503 286.166 291.653 286.269 291.828C286.371 292.003 286.434 292.198 286.453 292.4C286.471 292.601 286.445 292.805 286.377 292.995C286.308 293.186 286.198 293.359 286.055 293.503C285.912 293.646 285.739 293.756 285.549 293.826C285.358 293.895 285.155 293.921 284.953 293.903Z" fill="black"/>
<path d="M282.102 300.057C282.062 300.041 282.024 300.024 281.987 300.003C281.527 299.758 280.769 299.229 280.846 298.43C280.879 298.167 280.994 297.92 281.175 297.725C281.355 297.531 281.593 297.398 281.854 297.346C282.049 297.291 282.253 297.279 282.453 297.312C282.653 297.345 282.843 297.422 283.01 297.537C283.177 297.652 283.317 297.802 283.42 297.976C283.522 298.151 283.585 298.346 283.604 298.548C283.622 298.75 283.597 298.953 283.528 299.144C283.459 299.335 283.349 299.508 283.206 299.651C283.063 299.795 282.89 299.905 282.7 299.974C282.509 300.043 282.306 300.07 282.104 300.052L282.102 300.057Z" fill="black"/>
<path d="M320.212 293.678C320.175 293.663 320.138 293.646 320.103 293.627C319.606 293.395 318.88 292.851 318.956 292.051C318.989 291.789 319.104 291.543 319.284 291.349C319.465 291.155 319.702 291.023 319.962 290.972C320.077 290.936 320.197 290.924 320.317 290.935C320.437 290.946 320.553 290.981 320.66 291.037C320.766 291.094 320.86 291.171 320.937 291.263C321.014 291.356 321.071 291.463 321.107 291.578C321.158 291.752 321.158 291.937 321.106 292.11C321.271 292.243 321.385 292.429 321.427 292.637C321.469 292.844 321.438 293.06 321.339 293.247C321.233 293.442 321.062 293.592 320.855 293.671C320.648 293.75 320.42 293.752 320.212 293.678Z" fill="black"/>
<path d="M315.471 296.93L315.357 296.877C314.897 296.632 314.134 296.101 314.21 295.301C314.243 295.038 314.358 294.793 314.539 294.599C314.719 294.405 314.956 294.273 315.216 294.221C315.331 294.185 315.452 294.172 315.572 294.183C315.692 294.194 315.809 294.229 315.915 294.285C316.022 294.342 316.116 294.419 316.192 294.512C316.269 294.605 316.326 294.713 316.361 294.828C316.415 294.999 316.416 295.183 316.363 295.355C316.534 295.491 316.651 295.683 316.693 295.898C316.735 296.112 316.699 296.334 316.591 296.524C316.484 296.714 316.312 296.86 316.106 296.934C315.901 297.008 315.676 297.007 315.471 296.93Z" fill="black"/>
<path d="M320.842 208.908L320.728 208.855C320.267 208.61 319.505 208.079 319.581 207.279C319.614 207.017 319.729 206.771 319.909 206.577C320.09 206.383 320.327 206.251 320.587 206.2C320.702 206.164 320.823 206.15 320.943 206.161C321.063 206.172 321.179 206.207 321.286 206.264C321.392 206.32 321.487 206.397 321.563 206.49C321.64 206.583 321.697 206.691 321.731 206.806C321.787 206.979 321.787 207.165 321.731 207.338C321.898 207.475 322.011 207.667 322.05 207.878C322.089 208.09 322.053 208.309 321.946 208.497C321.84 208.685 321.671 208.829 321.469 208.904C321.267 208.979 321.045 208.981 320.842 208.908Z" fill="black"/>
<path d="M276.844 117.496C276.805 117.481 276.766 117.463 276.73 117.443C276.244 117.186 275.509 116.674 275.588 115.87C275.621 115.607 275.736 115.361 275.916 115.167C276.097 114.973 276.333 114.841 276.593 114.79C276.708 114.754 276.828 114.742 276.948 114.753C277.067 114.764 277.183 114.799 277.289 114.855C277.395 114.911 277.489 114.988 277.565 115.08C277.641 115.173 277.698 115.279 277.733 115.394C277.789 115.568 277.791 115.754 277.738 115.929C277.904 116.066 278.017 116.258 278.056 116.47C278.095 116.682 278.058 116.901 277.951 117.089C277.844 117.276 277.674 117.42 277.472 117.494C277.269 117.569 277.047 117.569 276.844 117.496Z" fill="black"/>
<path d="M269.353 119.496C269.316 119.482 269.279 119.465 269.244 119.445C268.784 119.2 268.021 118.669 268.097 117.87C268.13 117.607 268.245 117.361 268.426 117.168C268.606 116.974 268.843 116.842 269.103 116.79C269.218 116.755 269.339 116.742 269.459 116.754C269.578 116.765 269.695 116.8 269.801 116.856C269.907 116.912 270.002 116.989 270.078 117.082C270.155 117.175 270.212 117.282 270.248 117.397C270.302 117.57 270.302 117.756 270.248 117.929C270.414 118.066 270.527 118.258 270.566 118.47C270.604 118.682 270.567 118.901 270.46 119.089C270.353 119.276 270.184 119.42 269.981 119.495C269.779 119.569 269.556 119.57 269.353 119.496Z" fill="black"/>
<path d="M317.136 214.742C317.097 214.73 317.06 214.713 317.026 214.691C316.554 214.471 315.801 213.92 315.879 213.115C315.912 212.853 316.027 212.607 316.208 212.413C316.388 212.219 316.625 212.087 316.885 212.036C317 212 317.121 211.988 317.241 211.999C317.361 212.01 317.477 212.045 317.583 212.102C317.69 212.158 317.784 212.235 317.86 212.327C317.937 212.42 317.995 212.527 318.03 212.642C318.084 212.815 318.084 213.001 318.03 213.174C318.196 213.312 318.309 213.503 318.348 213.716C318.387 213.928 318.349 214.147 318.242 214.334C318.136 214.522 317.966 214.665 317.763 214.74C317.561 214.814 317.339 214.815 317.136 214.742Z" fill="black"/>
<path d="M253.684 214.748C253.647 214.734 253.61 214.717 253.575 214.697C253.114 214.453 252.352 213.921 252.428 213.122C252.461 212.858 252.576 212.612 252.757 212.417C252.938 212.222 253.175 212.09 253.436 212.037C253.668 211.967 253.919 211.992 254.133 212.105C254.347 212.219 254.508 212.412 254.581 212.644C254.545 213.212 254.623 213.781 254.811 214.318C254.707 214.514 254.535 214.666 254.328 214.745C254.121 214.824 253.892 214.825 253.684 214.748Z" fill="black"/>
<path d="M252.623 235.421C252.585 235.407 252.549 235.39 252.513 235.37C252.028 235.114 251.29 234.594 251.367 233.795C251.4 233.532 251.514 233.286 251.695 233.093C251.876 232.899 252.112 232.767 252.372 232.715C252.487 232.679 252.608 232.666 252.728 232.677C252.848 232.688 252.965 232.723 253.071 232.779C253.178 232.835 253.272 232.913 253.349 233.006C253.425 233.099 253.482 233.206 253.517 233.322C253.572 233.493 253.573 233.677 253.519 233.849C253.683 233.984 253.796 234.171 253.838 234.379C253.879 234.587 253.848 234.803 253.749 234.991C253.646 235.187 253.475 235.34 253.267 235.419C253.06 235.499 252.831 235.499 252.623 235.421Z" fill="black"/>
<path d="M253.706 256.84C253.667 256.824 253.629 256.807 253.592 256.786C253.131 256.541 252.366 256.015 252.445 255.211C252.478 254.948 252.593 254.703 252.773 254.509C252.954 254.315 253.191 254.183 253.45 254.131C253.565 254.096 253.686 254.083 253.806 254.095C253.926 254.106 254.042 254.141 254.149 254.197C254.255 254.254 254.349 254.33 254.426 254.423C254.502 254.516 254.56 254.623 254.595 254.738C254.649 254.911 254.649 255.097 254.595 255.27C254.762 255.407 254.875 255.598 254.914 255.81C254.953 256.022 254.917 256.241 254.81 256.429C254.704 256.616 254.535 256.76 254.333 256.835C254.131 256.911 253.909 256.912 253.706 256.84Z" fill="black"/>
<path d="M245.698 247.727C245.659 247.712 245.621 247.695 245.584 247.674C245.124 247.429 244.366 246.9 244.437 246.099C244.473 245.836 244.59 245.591 244.772 245.397C244.953 245.203 245.19 245.07 245.45 245.016C245.682 244.946 245.931 244.971 246.145 245.084C246.358 245.197 246.518 245.39 246.59 245.621C246.642 245.795 246.644 245.98 246.595 246.155C246.761 246.292 246.874 246.484 246.913 246.696C246.952 246.909 246.915 247.128 246.808 247.315C246.701 247.503 246.531 247.646 246.328 247.721C246.126 247.795 245.904 247.796 245.701 247.722L245.698 247.727Z" fill="black"/>
<path d="M244.274 264.807C244.235 264.792 244.197 264.774 244.16 264.754C243.674 264.497 242.937 263.978 243.013 263.178C243.047 262.915 243.163 262.669 243.344 262.475C243.524 262.281 243.761 262.147 244.021 262.093C244.253 262.023 244.504 262.048 244.718 262.161C244.932 262.275 245.093 262.469 245.166 262.7C245.22 262.873 245.22 263.059 245.166 263.232C245.332 263.369 245.445 263.56 245.484 263.772C245.524 263.984 245.487 264.203 245.381 264.391C245.274 264.578 245.105 264.722 244.903 264.798C244.701 264.873 244.479 264.874 244.276 264.802L244.274 264.807Z" fill="black"/>
<path d="M432.924 128.094L441.291 134.802C441.323 134.829 441.362 134.847 441.403 134.856C441.444 134.865 441.487 134.863 441.528 134.852L451.79 131.773C451.835 131.758 451.884 131.757 451.93 131.769C451.976 131.781 452.017 131.806 452.05 131.841C452.082 131.876 452.104 131.919 452.113 131.966C452.122 132.013 452.118 132.061 452.1 132.105L448.308 142.133C448.293 142.172 448.288 142.214 448.293 142.255C448.298 142.297 448.313 142.336 448.336 142.371L454.447 151.179C454.474 151.218 454.489 151.265 454.492 151.313C454.494 151.36 454.483 151.408 454.459 151.45C454.436 151.492 454.402 151.527 454.36 151.55C454.318 151.573 454.27 151.584 454.222 151.582L443.516 151.073C443.475 151.069 443.433 151.076 443.395 151.094C443.357 151.111 443.325 151.138 443.3 151.172L436.805 159.704C436.777 159.743 436.738 159.773 436.693 159.79C436.649 159.808 436.6 159.812 436.553 159.803C436.505 159.794 436.462 159.771 436.427 159.738C436.392 159.705 436.368 159.662 436.356 159.615L433.533 149.273C433.521 149.233 433.501 149.197 433.473 149.167C433.445 149.137 433.41 149.114 433.371 149.1L423.238 145.585C423.193 145.569 423.154 145.54 423.125 145.503C423.096 145.466 423.078 145.421 423.072 145.374C423.066 145.327 423.074 145.28 423.093 145.237C423.113 145.194 423.144 145.157 423.183 145.13L432.145 139.249C432.178 139.224 432.203 139.191 432.221 139.154C432.238 139.117 432.246 139.076 432.245 139.035L432.482 128.317C432.471 128.262 432.479 128.205 432.504 128.154C432.528 128.104 432.569 128.063 432.619 128.038C432.669 128.013 432.726 128.005 432.781 128.015C432.836 128.025 432.887 128.053 432.924 128.094Z" stroke="black" stroke-width="2" stroke-miterlimit="10" stroke-linecap="round"/>
<path d="M151.441 102.02L159.807 108.728C159.84 108.753 159.879 108.769 159.919 108.776C159.96 108.784 160.001 108.782 160.041 108.771L170.303 105.692C170.349 105.678 170.398 105.678 170.445 105.691C170.491 105.703 170.533 105.729 170.566 105.764C170.598 105.8 170.62 105.843 170.629 105.89C170.638 105.938 170.634 105.987 170.617 106.032L166.819 116.057C166.805 116.096 166.8 116.138 166.805 116.179C166.81 116.22 166.824 116.26 166.847 116.294L172.958 125.103C172.986 125.141 173.002 125.187 173.005 125.235C173.007 125.283 172.996 125.331 172.973 125.372C172.95 125.414 172.915 125.448 172.873 125.471C172.831 125.494 172.784 125.504 172.736 125.501L162.03 124.992C161.988 124.989 161.946 124.998 161.907 125.016C161.869 125.034 161.836 125.061 161.812 125.096L155.319 133.623C155.29 133.66 155.251 133.689 155.207 133.706C155.163 133.723 155.114 133.728 155.068 133.719C155.021 133.71 154.978 133.689 154.942 133.657C154.907 133.626 154.881 133.585 154.868 133.539L152.044 123.197C152.034 123.156 152.014 123.119 151.986 123.089C151.957 123.059 151.922 123.037 151.882 123.024L141.799 119.466C141.754 119.45 141.714 119.422 141.684 119.385C141.654 119.348 141.635 119.303 141.629 119.256C141.622 119.208 141.63 119.16 141.649 119.116C141.669 119.073 141.7 119.036 141.74 119.009L150.702 113.127C150.735 113.103 150.762 113.071 150.779 113.033C150.797 112.996 150.805 112.955 150.801 112.914L151.038 102.195C151.045 102.152 151.062 102.11 151.088 102.075C151.115 102.04 151.15 102.013 151.191 101.995C151.231 101.978 151.275 101.971 151.319 101.975C151.363 101.979 151.405 101.995 151.441 102.02Z" stroke="black" stroke-width="2" stroke-miterlimit="10" stroke-linecap="round"/>
<path d="M291 399C293.258 405.076 297.341 408.235 299.594 411.095C301.843 413.948 304.5 416.189 307.029 418.702C309.867 421.523 312.555 424.666 316.379 425.618C318.24 426.082 320.462 425.764 322.353 425.764C328.069 425.764 334.453 426.771 340.014 425.109C345.427 423.49 350.798 424.014 356.15 422.779C364.065 420.952 372.53 421.512 380.077 418.848C384.772 417.191 392.624 418.099 397.025 420.377C399.649 421.735 402.486 422.523 405.141 423.944C407.079 424.981 409.481 425.48 411.277 426.783C412.783 427.875 413.823 429.58 415.4 430.641C421.19 434.536 425.906 441.01 430.594 446.366C436.666 453.301 442.907 456.64 451.145 459.543C468.401 465.623 487.495 464.42 505.396 464.42C517.377 464.42 526.182 470.325 534.356 479.489C538.179 483.776 540.882 488.506 543.738 493.576C546.213 497.97 549.125 501.915 551.627 506.207C552.027 506.892 556.877 518.171 557 519" stroke="black" stroke-width="2" stroke-linecap="round"/>
<path d="M291 401C288.058 410.776 281.789 414.448 272.789 417.533C266.891 419.554 259.599 421.792 253.347 421.792C247.268 421.792 240.024 422.9 234.122 421.359C227.33 419.585 220.064 418.122 213.449 415.8C209.032 414.249 203.875 412.839 199.185 412.696C187.748 412.345 175.873 412.189 164.718 414.97C155.334 417.309 146.512 422.698 138.506 427.929C132.877 431.606 128.211 436.605 123.481 441.321C120.04 444.751 118.195 449.189 114.755 452.619C110.183 457.178 104.22 458.99 98.1011 461.102C88.1113 464.55 76.4345 464.026 66.0237 464.026C61.0317 464.026 56.842 464.324 52.0125 465.686C45.4206 467.546 38.3795 468.809 31.9189 470.957C27.9675 472.27 23.7575 474.783 20.3334 477.165C18.7008 478.301 17.9808 480.844 16.9663 482.472C15.6912 484.517 14.1545 486.381 12.8752 488.428C7.79279 496.559 1 512.254 1 522" stroke="black" stroke-width="2" stroke-linecap="round"/>
</svg>
