<svg width="528" height="467" viewBox="0 0 528 467" fill="none" xmlns="http://www.w3.org/2000/svg">
<path d="M286.178 342.351C286.178 342.351 263.452 400.168 254.501 400.047C245.549 399.926 223.692 341.882 223.692 341.882C224.762 342.281 225.894 342.489 227.035 342.497L282.811 342.916C283.958 342.928 285.098 342.737 286.178 342.351Z" stroke="black" stroke-width="2" stroke-miterlimit="10" stroke-linecap="round"/>
<path d="M290.075 119.957C289.993 120.126 289.881 120.279 289.744 120.408C284.164 125.888 267.883 132.598 262.333 139.973C260.513 139.056 258.506 138.572 256.469 138.556C254.431 138.541 252.417 138.995 250.584 139.884C245.135 132.42 228.977 125.466 223.466 119.913C223.336 119.785 223.23 119.635 223.152 119.47C227.494 122.796 240.807 125.017 256.565 125.136C272.324 125.255 285.671 123.24 290.075 119.957Z" stroke="black" stroke-width="2" stroke-linecap="round" stroke-linejoin="round"/>
<path d="M291.598 117.612C291.565 122.213 275.884 125.288 256.568 125.143C237.253 124.999 221.616 121.688 221.652 117.083C221.688 112.478 237.351 111.373 256.667 111.517C275.982 111.662 291.629 113.005 291.598 117.612Z" stroke="black" stroke-width="2" stroke-miterlimit="10" stroke-linecap="round"/>
<path d="M473.719 208.314L473.03 300.425L306.042 299.169C307.411 292.805 308.447 286.374 309.146 279.902C309.84 273.717 310.243 267.456 310.403 261.184C310.557 255.158 310.48 249.121 310.19 243.154C309.879 236.814 309.327 230.538 308.557 224.419C307.808 218.462 306.852 212.65 305.71 207.054L473.719 208.314Z" stroke="black" stroke-width="2" stroke-linecap="round" stroke-linejoin="round"/>
<path d="M308.242 225.277C308.04 225.202 307.871 225.059 307.764 224.872C307.657 224.686 307.619 224.467 307.657 224.255C307.695 224.044 307.807 223.852 307.972 223.714C308.138 223.576 308.346 223.501 308.561 223.502L473.597 224.742C473.815 224.774 474.014 224.883 474.158 225.05C474.302 225.217 474.381 225.43 474.381 225.651C474.38 225.871 474.3 226.084 474.155 226.25C474.011 226.416 473.811 226.525 473.592 226.555L308.548 225.335C308.443 225.334 308.339 225.314 308.242 225.277Z" fill="black"/>
<path d="M309.875 244.012C309.674 243.936 309.506 243.792 309.4 243.605C309.295 243.419 309.258 243.201 309.297 242.99C309.335 242.779 309.447 242.588 309.612 242.451C309.777 242.314 309.985 242.239 310.199 242.239L473.456 243.467C473.576 243.467 473.695 243.491 473.806 243.537C473.917 243.584 474.017 243.652 474.102 243.737C474.186 243.823 474.253 243.924 474.298 244.036C474.343 244.147 474.365 244.266 474.364 244.386C474.362 244.628 474.264 244.86 474.092 245.03C473.92 245.201 473.687 245.296 473.445 245.295L310.183 244.064C310.078 244.066 309.973 244.048 309.875 244.012Z" fill="black"/>
<path d="M310.088 262.042C309.887 261.966 309.719 261.822 309.613 261.636C309.508 261.449 309.471 261.231 309.51 261.02C309.548 260.809 309.66 260.618 309.825 260.481C309.99 260.344 310.198 260.269 310.412 260.269L473.318 261.497C473.448 261.479 473.58 261.488 473.706 261.526C473.832 261.563 473.948 261.627 474.047 261.713C474.146 261.8 474.225 261.906 474.279 262.025C474.334 262.145 474.362 262.275 474.361 262.406C474.361 262.537 474.332 262.667 474.278 262.786C474.223 262.905 474.143 263.011 474.044 263.097C473.944 263.183 473.828 263.246 473.702 263.283C473.576 263.319 473.444 263.329 473.314 263.31L310.393 262.1C310.289 262.1 310.185 262.08 310.088 262.042Z" fill="black"/>
<path d="M308.828 280.765C308.624 280.692 308.452 280.548 308.344 280.36C308.235 280.172 308.197 279.951 308.236 279.737C308.276 279.524 308.39 279.331 308.558 279.194C308.726 279.056 308.938 278.983 309.155 278.987L473.177 280.221C473.42 280.225 473.651 280.323 473.822 280.496C473.993 280.668 474.089 280.901 474.09 281.143C474.088 281.386 473.989 281.618 473.816 281.787C473.642 281.957 473.409 282.051 473.166 282.049L309.141 280.82C309.035 280.818 308.929 280.8 308.828 280.765Z" fill="black"/>
<path d="M454.256 301.144C454.081 301.081 453.931 300.966 453.824 300.814C453.717 300.663 453.659 300.482 453.659 300.297L452.829 208.174C452.817 208.048 452.831 207.92 452.871 207.8C452.91 207.679 452.974 207.568 453.059 207.474C453.144 207.379 453.247 207.303 453.363 207.251C453.478 207.199 453.603 207.171 453.73 207.17C453.857 207.168 453.983 207.193 454.1 207.243C454.216 207.293 454.321 207.366 454.408 207.458C454.495 207.551 454.562 207.66 454.604 207.78C454.646 207.9 454.663 208.027 454.654 208.153L455.483 300.276C455.484 300.396 455.462 300.516 455.417 300.627C455.372 300.738 455.305 300.84 455.221 300.925C455.137 301.011 455.036 301.079 454.926 301.125C454.815 301.172 454.696 301.196 454.576 301.196C454.467 301.197 454.359 301.18 454.256 301.144Z" fill="black"/>
<path d="M433.699 300.989C433.524 300.926 433.373 300.811 433.267 300.66C433.16 300.508 433.102 300.328 433.101 300.142L432.263 208.039C432.25 207.913 432.265 207.786 432.304 207.665C432.344 207.545 432.408 207.434 432.493 207.339C432.577 207.245 432.681 207.169 432.796 207.117C432.912 207.064 433.037 207.036 433.164 207.035C433.291 207.034 433.416 207.059 433.533 207.108C433.65 207.158 433.755 207.231 433.842 207.324C433.929 207.417 433.995 207.526 434.037 207.646C434.08 207.765 434.097 207.892 434.087 208.019L434.917 300.142C434.918 300.385 434.823 300.618 434.652 300.792C434.482 300.965 434.25 301.064 434.007 301.067C433.901 301.059 433.796 301.033 433.699 300.989Z" fill="black"/>
<path d="M413.9 300.844C413.725 300.779 413.574 300.662 413.467 300.509C413.36 300.357 413.302 300.176 413.3 299.989L412.469 207.883C412.489 207.657 412.593 207.447 412.76 207.293C412.928 207.139 413.146 207.053 413.373 207.051C413.6 207.049 413.819 207.132 413.989 207.283C414.159 207.434 414.266 207.642 414.291 207.868L415.123 299.986C415.124 300.229 415.029 300.462 414.858 300.636C414.688 300.809 414.456 300.908 414.213 300.911C414.106 300.906 414 300.884 413.9 300.844Z" fill="black"/>
<path d="M393.343 300.689C393.166 300.62 393.015 300.499 392.91 300.342C392.805 300.184 392.75 299.999 392.755 299.809L391.93 207.689C391.951 207.463 392.055 207.252 392.222 207.098C392.389 206.945 392.607 206.859 392.834 206.857C393.061 206.855 393.281 206.937 393.451 207.088C393.62 207.239 393.728 207.448 393.752 207.673L394.582 299.796C394.583 300.038 394.488 300.271 394.318 300.444C394.148 300.616 393.917 300.714 393.675 300.716C393.563 300.726 393.451 300.717 393.343 300.689Z" fill="black"/>
<path d="M375.668 300.554C375.494 300.491 375.343 300.376 375.237 300.224C375.13 300.073 375.072 299.892 375.071 299.707L374.235 207.599C374.223 207.472 374.237 207.345 374.276 207.224C374.316 207.104 374.38 206.993 374.465 206.898C374.549 206.804 374.653 206.728 374.768 206.676C374.884 206.623 375.009 206.596 375.136 206.594C375.263 206.593 375.389 206.618 375.505 206.668C375.622 206.717 375.727 206.791 375.814 206.883C375.901 206.976 375.967 207.085 376.01 207.205C376.052 207.325 376.069 207.452 376.059 207.578L376.889 299.701C376.89 299.821 376.868 299.94 376.823 300.052C376.778 300.163 376.711 300.264 376.627 300.35C376.543 300.435 376.442 300.504 376.331 300.55C376.221 300.597 376.102 300.621 375.982 300.621C375.874 300.617 375.768 300.594 375.668 300.554Z" fill="black"/>
<path d="M355.111 300.399C354.937 300.336 354.786 300.221 354.679 300.07C354.573 299.918 354.515 299.737 354.514 299.552L353.685 207.429C353.672 207.303 353.687 207.175 353.726 207.055C353.766 206.934 353.83 206.823 353.915 206.729C353.999 206.634 354.103 206.559 354.218 206.506C354.334 206.454 354.459 206.426 354.586 206.425C354.713 206.423 354.839 206.448 354.955 206.498C355.072 206.548 355.177 206.621 355.264 206.714C355.351 206.806 355.417 206.916 355.459 207.035C355.502 207.155 355.519 207.282 355.509 207.409L356.339 299.532C356.34 299.774 356.245 300.006 356.075 300.179C355.905 300.351 355.674 300.449 355.432 300.452C355.323 300.453 355.214 300.435 355.111 300.399Z" fill="black"/>
<path d="M335.313 300.253C335.138 300.188 334.987 300.072 334.88 299.919C334.773 299.767 334.715 299.585 334.713 299.399L333.888 207.278C333.874 207.151 333.887 207.022 333.926 206.9C333.965 206.778 334.029 206.666 334.114 206.57C334.2 206.475 334.304 206.398 334.42 206.345C334.537 206.293 334.663 206.265 334.791 206.263C334.919 206.262 335.045 206.288 335.163 206.339C335.28 206.39 335.386 206.465 335.472 206.559C335.559 206.653 335.625 206.764 335.666 206.886C335.707 207.007 335.722 207.135 335.71 207.263L336.542 299.381C336.543 299.624 336.448 299.857 336.278 300.03C336.108 300.204 335.876 300.303 335.633 300.306C335.524 300.307 335.415 300.289 335.313 300.253Z" fill="black"/>
<path d="M314.755 300.099C314.581 300.034 314.43 299.917 314.323 299.765C314.216 299.612 314.157 299.431 314.155 299.244L313.331 207.123C313.352 206.897 313.456 206.687 313.623 206.533C313.79 206.379 314.008 206.293 314.235 206.291C314.462 206.289 314.682 206.372 314.851 206.523C315.021 206.674 315.129 206.882 315.153 207.108L315.985 299.226C315.986 299.469 315.891 299.703 315.721 299.876C315.55 300.049 315.318 300.148 315.076 300.151C314.967 300.152 314.858 300.134 314.755 300.099Z" fill="black"/>
<path d="M201.664 279.094C202.262 285.583 203.198 292.037 204.469 298.429L36.1893 297.14L36.8786 205.03L206.193 206.305C204.972 211.882 203.914 217.68 203.095 223.614C202.231 229.721 201.563 235.979 201.177 242.321C200.813 248.291 200.632 254.323 200.694 260.353C200.753 266.636 201.068 272.899 201.664 279.094Z" stroke="black" stroke-width="2" stroke-linecap="round" stroke-linejoin="round"/>
<path d="M36.4342 223.237C36.2568 223.169 36.1048 223.048 35.9987 222.89C35.8926 222.732 35.8375 222.546 35.841 222.356C35.843 222.114 35.9409 221.882 36.1132 221.712C36.2856 221.542 36.5183 221.447 36.7605 221.448L203.092 222.711C203.222 222.693 203.354 222.703 203.48 222.741C203.606 222.778 203.722 222.842 203.821 222.928C203.92 223.014 203.999 223.121 204.053 223.24C204.107 223.36 204.135 223.489 204.135 223.621C204.135 223.752 204.106 223.881 204.051 224C203.997 224.12 203.917 224.226 203.817 224.311C203.718 224.397 203.602 224.461 203.476 224.497C203.35 224.534 203.217 224.543 203.087 224.524L36.7223 223.281C36.6247 223.28 36.5277 223.265 36.4342 223.237Z" fill="black"/>
<path d="M36.2906 241.955C36.0898 241.879 35.922 241.735 35.8164 241.548C35.7107 241.362 35.674 241.144 35.7127 240.933C35.7513 240.722 35.8628 240.531 36.0277 240.394C36.1926 240.257 36.4005 240.182 36.615 240.182L201.19 241.425C201.31 241.426 201.429 241.45 201.539 241.496C201.65 241.542 201.751 241.61 201.835 241.696C201.92 241.781 201.986 241.883 202.031 241.994C202.076 242.105 202.099 242.225 202.098 242.345C202.096 242.587 201.998 242.819 201.826 242.989C201.653 243.159 201.42 243.254 201.178 243.253L36.6037 242.01C36.4968 242.01 36.3907 241.992 36.2906 241.955Z" fill="black"/>
<path d="M36.158 259.987C35.956 259.912 35.7868 259.769 35.6798 259.583C35.5729 259.396 35.5352 259.177 35.5733 258.966C35.6114 258.754 35.723 258.562 35.8883 258.424C36.0536 258.287 36.2622 258.211 36.4774 258.212L200.699 259.448C200.825 259.435 200.953 259.45 201.074 259.49C201.195 259.53 201.307 259.595 201.401 259.681C201.495 259.766 201.57 259.871 201.621 259.988C201.673 260.105 201.699 260.231 201.698 260.358C201.697 260.486 201.67 260.612 201.618 260.728C201.565 260.844 201.489 260.948 201.394 261.033C201.299 261.118 201.187 261.182 201.065 261.22C200.944 261.259 200.816 261.272 200.689 261.258L36.4753 260.02C36.3684 260.029 36.2608 260.018 36.158 259.987Z" fill="black"/>
<path d="M36.017 278.711C35.8162 278.636 35.6484 278.492 35.5427 278.305C35.4371 278.119 35.4004 277.901 35.439 277.69C35.4777 277.479 35.5891 277.288 35.7541 277.151C35.919 277.013 36.1268 276.938 36.3414 276.939L201.681 278.188C201.899 278.22 202.099 278.329 202.243 278.496C202.387 278.663 202.466 278.876 202.465 279.097C202.465 279.317 202.385 279.53 202.24 279.696C202.095 279.862 201.895 279.97 201.677 280.001L36.3227 278.769C36.2181 278.769 36.1144 278.749 36.017 278.711Z" fill="black"/>
<path d="M54.3314 298.141C54.1518 298.074 53.9975 297.953 53.8902 297.795C53.7829 297.636 53.7281 297.448 53.7333 297.257L55.9551 205.129C55.9721 204.894 56.0789 204.674 56.2535 204.516C56.4281 204.358 56.657 204.273 56.8925 204.279C57.1281 204.285 57.3522 204.382 57.5182 204.549C57.6842 204.717 57.7794 204.941 57.7839 205.177L55.562 297.305C55.5549 297.547 55.4525 297.777 55.277 297.944C55.1016 298.112 54.8673 298.203 54.6248 298.199C54.5249 298.193 54.4262 298.173 54.3314 298.141Z" fill="black"/>
<path d="M74.8884 298.295C74.7088 298.229 74.5545 298.108 74.4472 297.949C74.3399 297.791 74.285 297.603 74.2902 297.411L76.5171 205.286C76.4997 205.156 76.5106 205.023 76.549 204.898C76.5875 204.772 76.6526 204.657 76.7399 204.559C76.8272 204.461 76.9347 204.383 77.055 204.331C77.1752 204.278 77.3053 204.252 77.4365 204.255C77.5677 204.257 77.6967 204.288 77.8149 204.345C77.933 204.402 78.0375 204.484 78.121 204.585C78.2045 204.686 78.2652 204.804 78.2989 204.931C78.3325 205.058 78.3383 205.191 78.316 205.32L76.1189 297.459C76.1118 297.702 76.0095 297.932 75.834 298.099C75.6586 298.266 75.4242 298.358 75.1818 298.353C75.0818 298.347 74.9831 298.328 74.8884 298.295Z" fill="black"/>
<path d="M94.6851 298.446C94.5064 298.378 94.3531 298.257 94.246 298.099C94.1389 297.941 94.0834 297.753 94.087 297.562L96.2999 205.466C96.2937 205.341 96.3134 205.215 96.3578 205.098C96.4023 204.98 96.4705 204.873 96.5582 204.782C96.646 204.692 96.7513 204.621 96.8677 204.574C96.9841 204.526 97.1091 204.503 97.2349 204.506C97.3606 204.509 97.4844 204.537 97.5986 204.59C97.7128 204.643 97.8148 204.719 97.8985 204.812C97.9821 204.906 98.0454 205.017 98.0846 205.136C98.1237 205.256 98.1378 205.382 98.1259 205.507L95.918 297.605C95.9127 297.75 95.8734 297.892 95.8033 298.019C95.7331 298.147 95.634 298.255 95.514 298.337C95.394 298.419 95.2565 298.472 95.1125 298.49C94.9685 298.509 94.8221 298.494 94.6851 298.446Z" fill="black"/>
<path d="M115.256 298.571C115.076 298.505 114.922 298.384 114.815 298.225C114.708 298.067 114.653 297.878 114.658 297.687L116.871 205.591C116.877 205.349 116.978 205.118 117.154 204.95C117.33 204.783 117.565 204.692 117.808 204.698C118.051 204.703 118.281 204.805 118.449 204.981C118.617 205.157 118.708 205.392 118.702 205.635L116.489 297.73C116.486 297.85 116.46 297.969 116.411 298.079C116.362 298.189 116.293 298.288 116.205 298.371C116.118 298.454 116.016 298.52 115.904 298.563C115.792 298.606 115.672 298.627 115.552 298.624C115.451 298.626 115.35 298.608 115.256 298.571Z" fill="black"/>
<path d="M132.919 298.731C132.739 298.665 132.584 298.545 132.477 298.386C132.369 298.227 132.315 298.039 132.321 297.847L134.529 205.749C134.534 205.506 134.636 205.276 134.812 205.108C134.988 204.94 135.223 204.849 135.466 204.855C135.709 204.861 135.939 204.963 136.107 205.139C136.275 205.314 136.365 205.549 136.36 205.792L134.152 297.89C134.145 298.133 134.042 298.362 133.867 298.53C133.691 298.697 133.457 298.789 133.215 298.784C133.114 298.782 133.014 298.764 132.919 298.731Z" fill="black"/>
<path d="M153.476 298.885C153.296 298.819 153.142 298.698 153.035 298.54C152.927 298.381 152.873 298.193 152.878 298.002L155.086 205.904C155.093 205.661 155.197 205.431 155.373 205.264C155.55 205.097 155.785 205.006 156.028 205.012C156.148 205.015 156.266 205.041 156.375 205.09C156.485 205.138 156.584 205.208 156.667 205.295C156.749 205.381 156.814 205.484 156.857 205.596C156.9 205.708 156.92 205.827 156.917 205.947L154.709 298.045C154.702 298.287 154.599 298.517 154.424 298.684C154.248 298.851 154.014 298.943 153.772 298.939C153.671 298.937 153.571 298.919 153.476 298.885Z" fill="black"/>
<path d="M173.284 299.011C173.105 298.944 172.952 298.823 172.845 298.664C172.738 298.506 172.682 298.319 172.686 298.128L174.899 206.032C174.877 205.9 174.884 205.764 174.921 205.635C174.957 205.505 175.021 205.386 175.109 205.284C175.196 205.183 175.305 205.101 175.427 205.047C175.55 204.992 175.683 204.964 175.817 204.967C175.951 204.969 176.083 205 176.204 205.059C176.324 205.118 176.431 205.203 176.515 205.307C176.599 205.412 176.659 205.533 176.691 205.664C176.723 205.794 176.726 205.93 176.7 206.061L174.505 298.196C174.5 298.341 174.461 298.483 174.391 298.61C174.321 298.737 174.221 298.846 174.101 298.928C173.981 299.009 173.844 299.062 173.7 299.081C173.556 299.1 173.41 299.084 173.272 299.036L173.284 299.011Z" fill="black"/>
<path d="M193.832 299.186C193.652 299.119 193.498 298.999 193.391 298.84C193.283 298.682 193.228 298.493 193.234 298.302L195.447 206.206C195.452 205.963 195.554 205.733 195.73 205.565C195.906 205.398 196.141 205.307 196.384 205.312C196.627 205.318 196.857 205.42 197.025 205.596C197.192 205.771 197.283 206.007 197.278 206.249L195.062 298.35C195.06 298.47 195.033 298.589 194.984 298.699C194.936 298.809 194.866 298.908 194.779 298.991C194.692 299.074 194.589 299.139 194.477 299.183C194.365 299.226 194.246 299.247 194.125 299.244C194.025 299.244 193.925 299.224 193.832 299.186Z" fill="black"/>
<path d="M292.046 166.484C285.419 154.126 265.819 138.634 256.464 138.561C247.109 138.488 227.275 153.686 220.472 165.94C198.96 204.693 190.399 288.735 218.515 337.495C219.376 338.999 220.616 340.252 222.111 341.128C223.606 342.005 225.305 342.475 227.038 342.492L254.926 342.702L282.811 342.916C284.544 342.925 286.25 342.48 287.758 341.627C289.267 340.774 290.527 339.542 291.413 338.052C320.268 289.717 312.984 205.558 292.046 166.484Z" stroke="black" stroke-width="2" stroke-miterlimit="10" stroke-linecap="round"/>
<path d="M267.253 123.441C267.1 123.387 266.965 123.292 266.862 123.167C266.758 123.042 266.69 122.891 266.665 122.731L256.154 59.5177C256.134 59.3989 256.138 59.2774 256.165 59.1601C256.193 59.0428 256.243 58.932 256.313 58.8341C256.383 58.7361 256.472 58.653 256.574 58.5894C256.676 58.5257 256.79 58.4829 256.909 58.4632C257.027 58.4435 257.149 58.4475 257.266 58.4748C257.384 58.502 257.494 58.5521 257.592 58.6222C257.69 58.6923 257.773 58.781 257.837 58.8833C257.901 58.9855 257.943 59.0993 257.963 59.2181L268.467 122.434C268.507 122.673 268.45 122.919 268.309 123.116C268.168 123.314 267.955 123.447 267.716 123.487C267.56 123.513 267.401 123.497 267.253 123.441Z" fill="black"/>
<path d="M245.293 123.273C245.091 123.198 244.922 123.054 244.815 122.867C244.708 122.68 244.669 122.462 244.705 122.249L256.164 59.196C256.186 59.0781 256.231 58.9658 256.296 58.8652C256.361 58.7645 256.445 58.6777 256.544 58.6096C256.642 58.5415 256.753 58.4936 256.87 58.4685C256.987 58.4433 257.108 58.4414 257.226 58.463C257.344 58.4846 257.456 58.5292 257.557 58.5942C257.658 58.6593 257.745 58.7434 257.813 58.842C257.881 58.9406 257.929 59.0517 257.954 59.1688C257.979 59.286 257.981 59.4069 257.959 59.5248L246.507 122.575C246.459 122.809 246.323 123.014 246.126 123.148C245.929 123.283 245.687 123.335 245.453 123.293C245.399 123.29 245.345 123.283 245.293 123.273Z" fill="black"/>
<path d="M255.866 400.363C255.655 400.286 255.481 400.135 255.375 399.937C255.27 399.739 255.241 399.51 255.294 399.292C260.589 377.454 268.526 344.361 268.659 342.778C268.659 342.659 268.683 342.541 268.73 342.431C268.776 342.321 268.845 342.222 268.93 342.139C269.016 342.056 269.117 341.991 269.228 341.948C269.339 341.904 269.457 341.884 269.577 341.887C269.821 341.892 270.054 341.994 270.225 342.17C270.395 342.345 270.49 342.581 270.488 342.826C270.474 344.374 259.307 390.492 257.072 399.722C257.046 399.841 256.996 399.954 256.925 400.054C256.854 400.153 256.764 400.238 256.66 400.302C256.557 400.366 256.441 400.409 256.32 400.428C256.2 400.447 256.076 400.442 255.958 400.412C255.926 400.398 255.895 400.382 255.866 400.363Z" fill="black"/>
<path d="M252.537 400.341C252.396 400.291 252.27 400.206 252.17 400.095C252.07 399.984 251.998 399.85 251.962 399.705L237.878 342.804C237.834 342.574 237.879 342.335 238.006 342.137C238.133 341.939 238.331 341.797 238.559 341.741C238.787 341.685 239.028 341.719 239.232 341.836C239.436 341.952 239.587 342.143 239.655 342.368L253.736 399.261C253.765 399.378 253.771 399.499 253.753 399.618C253.735 399.737 253.694 399.852 253.632 399.955C253.57 400.058 253.488 400.148 253.391 400.219C253.294 400.291 253.184 400.342 253.067 400.371C252.891 400.415 252.706 400.404 252.537 400.341Z" fill="black"/>
<path d="M254.185 400.905C254.007 400.838 253.854 400.717 253.748 400.559C253.642 400.401 253.587 400.214 253.592 400.023L254.011 342.705C254.042 342.487 254.152 342.287 254.319 342.143C254.485 341.999 254.699 341.92 254.919 341.921C255.139 341.921 255.352 342.002 255.518 342.146C255.684 342.291 255.793 342.491 255.823 342.709L255.394 400.053C255.391 400.295 255.292 400.527 255.119 400.697C254.945 400.867 254.712 400.961 254.469 400.958C254.372 400.956 254.276 400.938 254.185 400.905Z" fill="black"/>
<path d="M257.201 139.431L257.147 139.406C255.317 138.595 250.592 134.002 250.06 133.482C249.899 133.31 249.811 133.083 249.813 132.847C249.815 132.611 249.908 132.386 250.073 132.217C250.237 132.048 250.46 131.949 250.696 131.941C250.931 131.932 251.161 132.015 251.337 132.172C253.26 134.054 256.736 137.224 257.891 137.732C258.002 137.778 258.104 137.844 258.19 137.929C258.275 138.014 258.344 138.114 258.39 138.225C258.437 138.336 258.462 138.455 258.463 138.575C258.464 138.696 258.441 138.815 258.396 138.927C258.35 139.038 258.283 139.14 258.199 139.226C258.114 139.311 258.014 139.379 257.903 139.426C257.792 139.473 257.673 139.498 257.553 139.499C257.432 139.5 257.313 139.477 257.201 139.431Z" fill="black"/>
<path d="M268.078 134.503C267.985 134.48 267.897 134.439 267.819 134.383C266.414 133.241 265.081 132.014 263.829 130.707C263.738 130.621 263.667 130.518 263.618 130.404C263.569 130.289 263.544 130.166 263.544 130.042C263.544 129.917 263.569 129.794 263.619 129.68C263.668 129.566 263.74 129.463 263.831 129.377C263.921 129.292 264.028 129.226 264.145 129.183C264.262 129.14 264.386 129.122 264.51 129.129C264.635 129.136 264.756 129.168 264.867 129.224C264.979 129.279 265.078 129.356 265.158 129.451C266.358 130.693 267.632 131.86 268.972 132.948C269.13 133.088 269.235 133.278 269.269 133.486C269.303 133.694 269.265 133.908 269.159 134.09C269.054 134.273 268.889 134.414 268.692 134.489C268.495 134.565 268.278 134.569 268.078 134.503Z" fill="black"/>
<path d="M264.073 138.498C264.056 138.487 264.038 138.478 264.019 138.472C262.186 137.654 257.466 133.064 256.93 132.541C256.843 132.458 256.773 132.357 256.725 132.246C256.676 132.135 256.651 132.016 256.649 131.895C256.647 131.774 256.669 131.654 256.714 131.542C256.759 131.429 256.826 131.327 256.91 131.24C256.995 131.154 257.096 131.085 257.207 131.038C257.319 130.991 257.438 130.966 257.559 130.966C257.68 130.965 257.8 130.988 257.912 131.034C258.024 131.08 258.126 131.148 258.211 131.233C260.129 133.114 263.611 136.286 264.763 136.799C264.974 136.899 265.139 137.076 265.223 137.294C265.308 137.512 265.306 137.754 265.218 137.97C265.131 138.187 264.963 138.361 264.751 138.459C264.539 138.556 264.297 138.568 264.076 138.493L264.073 138.498Z" fill="black"/>
<path d="M273.109 131.925C273.031 131.904 272.957 131.869 272.891 131.823C271.663 130.954 269.526 128.155 269.301 127.845C269.227 127.748 269.173 127.638 269.141 127.52C269.11 127.403 269.102 127.28 269.117 127.159C269.133 127.039 269.173 126.922 269.234 126.817C269.294 126.711 269.375 126.619 269.472 126.545C269.568 126.471 269.679 126.416 269.796 126.385C269.914 126.353 270.036 126.345 270.157 126.361C270.278 126.377 270.394 126.416 270.5 126.477C270.605 126.538 270.697 126.619 270.772 126.715C271.372 127.516 273.13 129.715 273.975 130.314C274.153 130.444 274.277 130.633 274.327 130.847C274.376 131.061 274.347 131.286 274.245 131.48C274.142 131.674 273.974 131.825 273.769 131.905C273.565 131.986 273.338 131.99 273.131 131.917L273.109 131.925Z" fill="black"/>
<path d="M243.014 161.437C242.981 161.424 242.95 161.41 242.92 161.392C242.739 161.296 242.604 161.132 242.543 160.936C242.483 160.74 242.502 160.528 242.597 160.347C246.475 152.99 256.456 138.279 256.582 138.139C256.698 137.969 256.876 137.851 257.078 137.813C257.28 137.774 257.488 137.817 257.658 137.932C257.828 138.048 257.946 138.226 257.984 138.428C258.023 138.63 257.98 138.839 257.864 139.009C257.788 139.173 247.829 153.797 243.99 161.081C243.902 161.252 243.752 161.383 243.572 161.449C243.391 161.515 243.192 161.51 243.014 161.437Z" fill="black"/>
<path d="M266.993 163.568C266.882 163.527 266.782 163.462 266.7 163.376C266.618 163.291 266.557 163.188 266.521 163.075C264.047 155.225 256.884 139.047 256.809 138.885C256.726 138.697 256.721 138.484 256.795 138.292C256.869 138.1 257.016 137.946 257.204 137.863C257.392 137.779 257.605 137.774 257.797 137.848C257.989 137.923 258.143 138.07 258.227 138.258C258.297 138.418 265.494 154.678 267.997 162.608C268.041 162.746 268.045 162.893 268.009 163.034C267.974 163.174 267.899 163.301 267.794 163.401C267.69 163.501 267.559 163.57 267.418 163.599C267.276 163.629 267.129 163.618 266.993 163.568Z" fill="black"/>
<path d="M263.723 390.609C263.67 390.59 263.618 390.566 263.569 390.537C263.452 390.467 263.352 390.371 263.277 390.258C263.201 390.144 263.152 390.015 263.132 389.88C262.278 388.544 261.355 387.253 260.367 386.013C260.292 385.918 260.237 385.808 260.205 385.692C260.173 385.575 260.164 385.453 260.178 385.332C260.193 385.212 260.232 385.096 260.291 384.99C260.351 384.885 260.431 384.792 260.527 384.718C260.622 384.643 260.731 384.588 260.848 384.556C260.965 384.523 261.087 384.514 261.208 384.529C261.328 384.544 261.444 384.582 261.55 384.642C261.655 384.702 261.748 384.782 261.822 384.877C265.319 389.393 265.169 389.65 264.833 390.201C264.727 390.39 264.557 390.535 264.353 390.61C264.15 390.685 263.926 390.684 263.723 390.609Z" fill="black"/>
<path d="M266.758 384.789C266.703 384.769 266.649 384.745 266.599 384.715C266.482 384.646 266.382 384.551 266.307 384.437C266.232 384.324 266.184 384.195 266.166 384.06C265.311 382.726 264.388 381.437 263.4 380.198C263.249 380.006 263.18 379.761 263.209 379.519C263.239 379.276 263.363 379.055 263.555 378.904C263.748 378.753 263.992 378.684 264.235 378.714C264.478 378.743 264.699 378.867 264.85 379.06C268.351 383.578 268.196 383.832 267.863 384.391C267.756 384.577 267.586 384.719 267.383 384.792C267.181 384.865 266.959 384.864 266.758 384.789Z" fill="black"/>
<path d="M269.791 379.023C269.736 379.003 269.683 378.978 269.632 378.949C269.515 378.879 269.414 378.784 269.339 378.67C269.263 378.556 269.214 378.427 269.195 378.291C268.342 376.956 267.419 375.667 266.428 374.43C266.277 374.237 266.21 373.992 266.24 373.749C266.27 373.506 266.395 373.285 266.588 373.134C266.781 372.983 267.026 372.915 267.269 372.945C267.512 372.975 267.733 373.101 267.884 373.294C271.38 377.81 271.23 378.066 270.894 378.618C270.789 378.805 270.62 378.949 270.418 379.023C270.215 379.098 269.993 379.098 269.791 379.023Z" fill="black"/>
<path d="M272.019 372.832C271.964 372.812 271.91 372.788 271.86 372.758C271.743 372.688 271.644 372.593 271.569 372.48C271.494 372.366 271.445 372.237 271.427 372.103C270.571 370.768 269.649 369.478 268.663 368.236C268.588 368.142 268.533 368.034 268.501 367.918C268.469 367.803 268.46 367.682 268.475 367.563C268.49 367.444 268.529 367.329 268.589 367.225C268.648 367.12 268.728 367.029 268.824 366.956C268.919 366.883 269.028 366.829 269.144 366.797C269.26 366.765 269.381 366.757 269.5 366.772C269.62 366.787 269.735 366.826 269.839 366.886C269.944 366.945 270.035 367.025 270.109 367.12C273.605 371.636 273.45 371.89 273.117 372.449C273.007 372.63 272.837 372.768 272.636 372.837C272.436 372.907 272.218 372.905 272.019 372.832Z" fill="black"/>
<path d="M275.039 367.03C274.986 367.011 274.934 366.987 274.885 366.958C274.768 366.888 274.667 366.793 274.591 366.679C274.516 366.565 274.467 366.436 274.448 366.3C273.595 364.965 272.671 363.676 271.681 362.439C271.53 362.246 271.462 362.001 271.492 361.758C271.522 361.515 271.647 361.294 271.84 361.143C272.033 360.992 272.278 360.924 272.521 360.954C272.764 360.984 272.986 361.11 273.136 361.303C276.632 365.818 276.482 366.075 276.144 366.631C276.038 366.819 275.868 366.961 275.665 367.034C275.463 367.107 275.241 367.106 275.039 367.03Z" fill="black"/>
<path d="M277.684 360.398C277.628 360.379 277.575 360.354 277.525 360.324C277.408 360.254 277.309 360.159 277.234 360.046C277.159 359.932 277.11 359.804 277.092 359.669C276.376 358.625 275.601 357.624 274.771 356.669C274.652 356.481 274.605 356.257 274.639 356.038C274.673 355.819 274.786 355.619 274.956 355.477C275.126 355.334 275.342 355.258 275.563 355.263C275.785 355.268 275.998 355.353 276.162 355.502C279.282 359.19 279.11 359.466 278.772 360.023C278.662 360.201 278.493 360.336 278.295 360.405C278.097 360.473 277.881 360.471 277.684 360.398Z" fill="black"/>
<path d="M280.409 354.307C280.354 354.287 280.301 354.262 280.25 354.233C280.133 354.164 280.033 354.07 279.958 353.957C279.883 353.845 279.834 353.717 279.816 353.582C279.052 352.455 278.227 351.371 277.343 350.336C277.263 350.244 277.203 350.138 277.165 350.023C277.127 349.907 277.112 349.786 277.122 349.665C277.132 349.544 277.166 349.426 277.222 349.319C277.278 349.211 277.355 349.116 277.448 349.038C277.542 348.961 277.65 348.903 277.766 348.868C277.882 348.832 278.004 348.821 278.125 348.834C278.245 348.846 278.362 348.883 278.468 348.941C278.575 349 278.668 349.079 278.743 349.174C281.996 353.11 281.836 353.375 281.5 353.926C281.391 354.106 281.222 354.242 281.023 354.312C280.824 354.381 280.607 354.379 280.409 354.307Z" fill="black"/>
<path d="M235.312 305.365C235.312 305.522 235.266 305.676 235.178 305.806C235.09 305.937 234.965 306.038 234.82 306.097C233.178 306.777 227.09 307.701 222.139 307.667C217.189 307.633 213.07 306.657 211.621 305.938C211.488 305.871 211.375 305.768 211.297 305.64C211.219 305.513 211.177 305.367 211.177 305.217L211.312 287.737C211.313 287.609 211.345 287.483 211.405 287.369C211.465 287.256 211.551 287.159 211.656 287.086C211.761 287.013 211.882 286.966 212.009 286.95C212.136 286.933 212.266 286.947 212.386 286.991C214.767 287.853 220.128 288.55 223.376 288.449C226.623 288.348 232.172 287.942 234.383 287.158C234.504 287.115 234.634 287.102 234.762 287.121C234.889 287.139 235.01 287.187 235.115 287.262C235.219 287.337 235.304 287.436 235.362 287.551C235.421 287.665 235.45 287.792 235.449 287.921L235.312 305.365Z" stroke="black" stroke-width="2" stroke-miterlimit="10" stroke-linecap="round"/>
<path d="M266.557 305.603C266.555 305.76 266.508 305.914 266.42 306.045C266.332 306.177 266.207 306.279 266.062 306.34C264.42 307.02 258.332 307.944 253.384 307.905C248.435 307.866 244.31 306.892 242.865 306.176C242.73 306.11 242.616 306.006 242.537 305.879C242.458 305.751 242.416 305.603 242.416 305.453L242.552 287.972C242.553 287.844 242.584 287.718 242.644 287.605C242.704 287.492 242.79 287.394 242.895 287.321C243.001 287.248 243.122 287.202 243.249 287.185C243.376 287.169 243.505 287.183 243.625 287.226C246.009 288.096 251.365 288.791 254.615 288.685C257.864 288.579 263.414 288.184 265.625 287.4C265.746 287.358 265.876 287.345 266.004 287.363C266.131 287.382 266.252 287.43 266.356 287.505C266.461 287.58 266.546 287.679 266.604 287.793C266.662 287.908 266.692 288.035 266.691 288.164L266.557 305.603Z" stroke="black" stroke-width="2" stroke-miterlimit="10" stroke-linecap="round"/>
<path d="M299.243 305.848C299.241 306.004 299.194 306.157 299.106 306.287C299.019 306.417 298.895 306.519 298.751 306.58C297.109 307.26 292.106 308.194 287.132 308.143C282.159 308.093 276.974 307.121 275.522 306.407C275.388 306.34 275.276 306.236 275.197 306.107C275.119 305.979 275.079 305.831 275.08 305.681L275.216 288.201C275.216 288.072 275.247 287.945 275.306 287.832C275.366 287.718 275.452 287.62 275.557 287.547C275.663 287.473 275.785 287.427 275.912 287.411C276.04 287.395 276.169 287.41 276.289 287.455C278.675 288.319 284.021 288.713 287.281 288.612C290.54 288.51 296.076 288.406 298.292 287.624C298.412 287.581 298.542 287.568 298.669 287.586C298.796 287.604 298.917 287.653 299.021 287.727C299.125 287.802 299.21 287.901 299.267 288.015C299.325 288.13 299.354 288.257 299.352 288.385L299.243 305.848Z" stroke="black" stroke-width="2" stroke-miterlimit="10" stroke-linecap="round"/>
<path d="M235.944 221.473C235.944 221.63 235.896 221.783 235.809 221.914C235.721 222.044 235.597 222.145 235.451 222.205C233.809 222.885 227.722 223.809 222.774 223.771C217.825 223.732 213.7 222.758 212.248 222.044C212.114 221.976 212.002 221.872 211.924 221.744C211.846 221.615 211.805 221.468 211.806 221.318L211.941 203.837C211.943 203.709 211.974 203.583 212.034 203.47C212.094 203.357 212.18 203.26 212.285 203.187C212.39 203.114 212.512 203.067 212.639 203.05C212.766 203.034 212.895 203.048 213.015 203.092C215.401 203.956 220.757 204.651 224.005 204.55C227.252 204.449 232.807 204.045 235.017 203.261C235.139 203.218 235.268 203.206 235.396 203.224C235.523 203.242 235.644 203.29 235.749 203.365C235.853 203.44 235.938 203.539 235.996 203.654C236.055 203.768 236.084 203.896 236.083 204.024L235.944 221.473Z" stroke="black" stroke-width="2" stroke-miterlimit="10" stroke-linecap="round"/>
<path d="M267.191 221.706C267.189 221.863 267.141 222.015 267.053 222.145C266.966 222.275 266.842 222.377 266.698 222.438C265.056 223.118 258.966 224.047 254.018 224.008C249.069 223.97 244.959 223.003 243.493 222.253C243.359 222.187 243.245 222.084 243.166 221.957C243.088 221.829 243.047 221.681 243.049 221.531L243.185 204.051C243.186 203.923 243.218 203.797 243.278 203.684C243.338 203.571 243.424 203.473 243.529 203.4C243.634 203.327 243.755 203.28 243.882 203.264C244.009 203.247 244.138 203.262 244.259 203.305C246.642 204.175 251.999 204.87 255.248 204.764C258.498 204.658 264.043 204.261 266.259 203.479C266.379 203.436 266.509 203.423 266.636 203.441C266.763 203.459 266.884 203.508 266.988 203.583C267.092 203.657 267.177 203.756 267.234 203.871C267.292 203.985 267.321 204.112 267.319 204.24L267.191 221.706Z" stroke="black" stroke-width="2" stroke-miterlimit="10" stroke-linecap="round"/>
<path d="M299.901 221.938C299.902 222.096 299.855 222.251 299.766 222.382C299.678 222.513 299.553 222.615 299.406 222.675C297.764 223.355 292.767 224.291 287.788 224.239C282.81 224.186 277.635 223.218 276.185 222.5C276.05 222.434 275.937 222.332 275.858 222.204C275.779 222.076 275.739 221.929 275.741 221.779L275.877 204.298C275.878 204.17 275.909 204.044 275.969 203.931C276.029 203.818 276.115 203.721 276.22 203.648C276.326 203.575 276.447 203.528 276.574 203.511C276.701 203.495 276.83 203.509 276.95 203.553C279.329 204.42 284.682 204.811 287.939 204.714C291.196 204.618 296.734 204.508 298.95 203.727C299.071 203.684 299.2 203.671 299.327 203.689C299.454 203.707 299.575 203.755 299.679 203.83C299.784 203.905 299.868 204.003 299.926 204.118C299.984 204.232 300.013 204.359 300.011 204.488L299.901 221.938Z" stroke="black" stroke-width="2" stroke-miterlimit="10" stroke-linecap="round"/>
<path d="M205.89 207.138C205.679 207.057 205.505 206.9 205.403 206.699C205.3 206.498 205.276 206.265 205.334 206.047C205.392 205.829 205.529 205.64 205.718 205.516C205.908 205.393 206.136 205.344 206.359 205.378C208.205 205.689 210.465 205.902 211.204 205.768C211.321 205.616 211.482 205.503 211.666 205.447C211.85 205.391 212.047 205.395 212.229 205.457C212.41 205.519 212.568 205.636 212.679 205.793C212.791 205.95 212.85 206.137 212.848 206.329C212.849 206.495 212.813 206.659 212.743 206.809C212.673 206.96 212.57 207.093 212.443 207.199C212.184 207.417 211.42 208.095 206.065 207.189C206.005 207.178 205.946 207.161 205.89 207.138Z" fill="black"/>
<path d="M203.458 219.954C203.243 219.873 203.066 219.713 202.964 219.507C202.861 219.301 202.84 219.064 202.904 218.843C202.968 218.622 203.113 218.433 203.31 218.314C203.507 218.195 203.742 218.155 203.967 218.201C206.082 218.661 209.967 219.112 211.394 218.349C211.5 218.285 211.618 218.244 211.741 218.227C211.864 218.21 211.989 218.219 212.108 218.252C212.228 218.285 212.34 218.341 212.437 218.419C212.533 218.496 212.614 218.593 212.672 218.702C212.731 218.811 212.766 218.931 212.777 219.055C212.788 219.179 212.773 219.303 212.734 219.421C212.696 219.539 212.633 219.647 212.551 219.74C212.469 219.833 212.369 219.908 212.257 219.962C209.771 221.283 204.209 220.123 203.582 219.988C203.539 219.982 203.498 219.971 203.458 219.954Z" fill="black"/>
<path d="M235.752 207.796C235.572 207.729 235.417 207.608 235.309 207.449C235.201 207.29 235.145 207.102 235.149 206.91C235.152 206.669 235.25 206.44 235.421 206.272C235.593 206.104 235.824 206.01 236.064 206.011C236.16 206.014 236.388 206.029 236.71 206.065C237.962 206.183 241.285 206.504 242.838 205.897C243.063 205.823 243.308 205.838 243.522 205.941C243.735 206.043 243.901 206.224 243.984 206.446C244.067 206.668 244.061 206.913 243.966 207.131C243.872 207.348 243.697 207.521 243.479 207.612C241.527 208.347 238.024 208.008 236.531 207.863C236.288 207.84 236.121 207.822 236.037 207.82C235.942 207.827 235.845 207.819 235.752 207.796Z" fill="black"/>
<path d="M235.655 218.876C235.44 218.791 235.265 218.628 235.166 218.42C235.066 218.212 235.048 217.973 235.117 217.753C235.185 217.532 235.334 217.346 235.534 217.231C235.735 217.115 235.971 217.08 236.196 217.132C236.226 217.146 239.723 218.002 242.497 217.19C242.726 217.132 242.97 217.166 243.175 217.284C243.381 217.402 243.533 217.595 243.599 217.822C243.665 218.05 243.64 218.294 243.53 218.504C243.42 218.714 243.233 218.872 243.008 218.947C239.752 219.897 235.907 218.945 235.764 218.915C235.726 218.905 235.69 218.893 235.655 218.876Z" fill="black"/>
<path d="M266.996 206.594C266.778 206.506 266.602 206.337 266.505 206.122C266.408 205.908 266.397 205.664 266.475 205.442C266.553 205.22 266.713 205.036 266.923 204.929C267.133 204.822 267.376 204.8 267.601 204.868C267.646 204.889 272.591 206.48 275.412 204.983C275.519 204.911 275.639 204.861 275.766 204.839C275.892 204.816 276.022 204.82 276.147 204.851C276.272 204.882 276.389 204.939 276.491 205.018C276.592 205.098 276.676 205.197 276.736 205.311C276.796 205.424 276.832 205.55 276.841 205.678C276.849 205.806 276.831 205.935 276.787 206.056C276.742 206.177 276.673 206.287 276.583 206.379C276.493 206.471 276.385 206.543 276.265 206.591C272.735 208.441 267.236 206.663 267.006 206.586L266.996 206.594Z" fill="black"/>
<path d="M266.879 220.454C266.668 220.375 266.492 220.222 266.387 220.022C266.282 219.823 266.254 219.591 266.309 219.372C266.363 219.154 266.497 218.963 266.684 218.836C266.871 218.71 267.098 218.657 267.322 218.688C269.73 219.024 273.59 219.191 274.675 218.487C274.878 218.354 275.126 218.307 275.364 218.357C275.601 218.406 275.81 218.548 275.943 218.751C276.076 218.955 276.123 219.203 276.073 219.44C276.024 219.678 275.881 219.886 275.678 220.019C273.656 221.345 268.158 220.657 267.079 220.505C267.011 220.496 266.944 220.479 266.879 220.454Z" fill="black"/>
<path d="M300.162 208.496C299.958 208.419 299.789 208.272 299.684 208.081C299.579 207.89 299.545 207.668 299.589 207.454C299.633 207.241 299.752 207.05 299.924 206.917C300.096 206.783 300.311 206.715 300.528 206.725C302.167 206.818 304.21 206.809 304.63 206.647C304.731 206.586 304.844 206.546 304.961 206.529C305.078 206.512 305.197 206.518 305.312 206.547C305.427 206.576 305.535 206.628 305.629 206.699C305.724 206.77 305.803 206.86 305.863 206.962C305.984 207.176 306.017 207.428 305.956 207.665C305.894 207.903 305.743 208.108 305.534 208.237C304.936 208.599 303.217 208.705 300.426 208.553C300.336 208.547 300.247 208.528 300.162 208.496Z" fill="black"/>
<path d="M299.57 220.949C299.377 220.879 299.213 220.745 299.106 220.57C298.998 220.394 298.954 220.188 298.98 219.984C299.008 219.743 299.131 219.523 299.321 219.372C299.512 219.221 299.754 219.153 299.995 219.181C302.818 219.523 305.739 219.5 306.247 219.138C306.444 218.997 306.688 218.938 306.928 218.975C307.167 219.012 307.382 219.142 307.528 219.336C307.67 219.53 307.73 219.773 307.694 220.011C307.657 220.249 307.528 220.464 307.334 220.607C305.961 221.618 301.602 221.224 299.775 221.002C299.705 220.993 299.636 220.975 299.57 220.949Z" fill="black"/>
<path d="M202.511 289.719C202.303 289.641 202.129 289.491 202.024 289.295C201.918 289.099 201.887 288.871 201.937 288.654C201.987 288.437 202.114 288.246 202.295 288.116C202.476 287.986 202.698 287.927 202.919 287.949C205.706 288.226 210.039 288.443 210.958 288.068C211.183 287.982 211.431 287.988 211.651 288.084C211.871 288.18 212.045 288.358 212.134 288.581C212.224 288.803 212.223 289.052 212.131 289.274C212.039 289.496 211.863 289.672 211.643 289.766C209.981 290.437 203.936 289.881 202.743 289.766C202.664 289.761 202.586 289.745 202.511 289.719Z" fill="black"/>
<path d="M204.978 303.228L204.928 303.205C204.804 303.143 204.695 303.054 204.609 302.944C204.523 302.835 204.462 302.709 204.43 302.573C204.378 302.336 204.422 302.088 204.552 301.884C204.683 301.679 204.889 301.535 205.126 301.482C205.32 301.44 205.523 301.46 205.704 301.54C206.334 301.707 209.587 302.141 210.818 301.589C210.928 301.531 211.049 301.495 211.173 301.485C211.297 301.475 211.423 301.491 211.541 301.531C211.659 301.571 211.768 301.634 211.86 301.718C211.953 301.801 212.028 301.903 212.08 302.016C212.132 302.13 212.16 302.253 212.163 302.377C212.165 302.502 212.143 302.626 212.096 302.742C212.049 302.857 211.979 302.962 211.89 303.05C211.801 303.137 211.695 303.206 211.579 303.251C209.605 304.151 205.624 303.463 204.978 303.228Z" fill="black"/>
<path d="M235.143 291.16C234.96 291.094 234.803 290.973 234.693 290.813C234.583 290.653 234.526 290.463 234.53 290.269C234.534 290.032 234.632 289.806 234.802 289.64C234.972 289.475 235.2 289.383 235.438 289.386C235.74 289.401 236.042 289.441 236.339 289.503C237.61 289.709 240.569 290.2 242.174 289.508C242.285 289.461 242.404 289.436 242.524 289.434C242.644 289.433 242.764 289.455 242.875 289.5C242.987 289.545 243.089 289.611 243.175 289.695C243.261 289.779 243.33 289.88 243.377 289.99C243.425 290.1 243.451 290.219 243.453 290.339C243.455 290.459 243.433 290.578 243.388 290.69C243.343 290.801 243.277 290.903 243.193 290.988C243.108 291.074 243.008 291.142 242.897 291.188C240.8 292.092 237.587 291.561 236.042 291.307C235.744 291.259 235.527 291.218 235.414 291.214C235.321 291.209 235.23 291.191 235.143 291.16Z" fill="black"/>
<path d="M235.016 303.756C234.815 303.681 234.647 303.537 234.542 303.35C234.436 303.164 234.399 302.946 234.438 302.735C234.476 302.524 234.588 302.333 234.753 302.196C234.918 302.058 235.126 301.983 235.34 301.984C235.69 302.001 236.039 302.036 236.386 302.09C237.824 302.289 240.81 302.695 241.714 301.496C241.86 301.302 242.077 301.173 242.318 301.139C242.558 301.105 242.803 301.168 242.997 301.314C243.191 301.459 243.32 301.677 243.354 301.917C243.388 302.158 243.325 302.402 243.179 302.596C241.616 304.65 238.054 304.169 236.138 303.905C235.804 303.857 235.456 303.811 235.329 303.812C235.222 303.809 235.117 303.79 235.016 303.756Z" fill="black"/>
<path d="M266.352 291.394C266.15 291.32 265.981 291.176 265.874 290.989C265.768 290.802 265.731 290.583 265.77 290.372C265.82 290.139 265.958 289.934 266.156 289.8C266.353 289.667 266.595 289.615 266.83 289.656C266.875 289.677 271.847 290.574 274.978 289.735C275.21 289.683 275.452 289.723 275.655 289.847C275.858 289.97 276.004 290.168 276.064 290.397C276.124 290.627 276.093 290.87 275.977 291.077C275.86 291.284 275.668 291.438 275.441 291.506C271.89 292.439 266.716 291.496 266.499 291.456C266.448 291.44 266.399 291.419 266.352 291.394Z" fill="black"/>
<path d="M266.908 303.915C266.699 303.834 266.527 303.679 266.425 303.48C266.322 303.281 266.296 303.051 266.352 302.834C266.408 302.617 266.541 302.427 266.727 302.302C266.913 302.177 267.138 302.124 267.36 302.154C267.395 302.17 271.753 302.787 274.173 302.022C274.399 301.965 274.639 301.998 274.842 302.112C275.045 302.226 275.197 302.413 275.267 302.636C275.337 302.858 275.32 303.099 275.218 303.309C275.117 303.519 274.939 303.682 274.721 303.765C271.888 304.652 267.288 303.995 267.091 303.964C267.028 303.953 266.967 303.937 266.908 303.915Z" fill="black"/>
<path d="M299.039 291.639C298.844 291.568 298.679 291.432 298.571 291.254C298.464 291.076 298.42 290.867 298.448 290.661C298.482 290.422 298.608 290.205 298.8 290.058C298.992 289.911 299.234 289.845 299.474 289.875C301.001 290.079 305.322 290.491 307.005 289.969C307.232 289.913 307.471 289.946 307.675 290.06C307.878 290.175 308.03 290.364 308.099 290.587C308.168 290.81 308.15 291.051 308.047 291.261C307.944 291.471 307.764 291.633 307.545 291.715C305.186 292.43 299.844 291.754 299.234 291.687C299.167 291.679 299.102 291.663 299.039 291.639Z" fill="black"/>
<path d="M298.955 302.821C298.743 302.734 298.571 302.57 298.474 302.362C298.377 302.154 298.362 301.917 298.431 301.699C298.501 301.48 298.649 301.295 298.848 301.181C299.047 301.067 299.282 301.031 299.506 301.082C300.889 301.449 303.482 301.805 304.552 301.209C304.658 301.151 304.775 301.115 304.895 301.103C305.016 301.09 305.137 301.101 305.253 301.136C305.369 301.17 305.477 301.227 305.571 301.303C305.665 301.379 305.743 301.473 305.801 301.58C305.859 301.686 305.895 301.803 305.907 301.923C305.92 302.043 305.909 302.165 305.874 302.281C305.84 302.397 305.783 302.505 305.707 302.599C305.631 302.693 305.537 302.771 305.43 302.828C303.374 303.981 299.464 302.987 299.029 302.868C299.003 302.855 298.978 302.839 298.955 302.821Z" fill="black"/>
<path d="M288.882 341.494C288.749 341.446 288.628 341.366 288.53 341.263C286.059 338.626 283.9 335.713 282.094 332.582C282.037 332.476 282.001 332.359 281.989 332.239C281.977 332.119 281.988 331.998 282.023 331.882C282.057 331.767 282.114 331.659 282.19 331.565C282.266 331.472 282.36 331.394 282.466 331.337C282.573 331.279 282.689 331.243 282.809 331.231C282.929 331.219 283.05 331.23 283.166 331.265C283.282 331.299 283.389 331.356 283.483 331.432C283.577 331.508 283.654 331.602 283.712 331.709C285.445 334.704 287.511 337.493 289.87 340.025C290.01 340.175 290.094 340.368 290.111 340.573C290.128 340.778 290.075 340.982 289.962 341.153C289.849 341.324 289.681 341.452 289.486 341.517C289.292 341.581 289.081 341.578 288.888 341.509L288.882 341.494Z" fill="black"/>
<path d="M292.025 334.496C291.892 334.445 291.772 334.365 291.675 334.26C287.681 330.021 286.252 327.092 286.195 326.968C286.133 326.859 286.094 326.738 286.081 326.614C286.068 326.489 286.081 326.363 286.118 326.244C286.156 326.124 286.217 326.014 286.299 325.919C286.381 325.824 286.482 325.747 286.594 325.693C286.707 325.639 286.83 325.608 286.955 325.603C287.08 325.598 287.205 325.619 287.322 325.664C287.439 325.709 287.545 325.778 287.634 325.866C287.724 325.953 287.794 326.059 287.841 326.175C287.859 326.214 289.238 329.004 293.009 333.007C293.152 333.157 293.24 333.352 293.258 333.558C293.277 333.765 293.225 333.971 293.11 334.144C292.996 334.317 292.826 334.446 292.629 334.51C292.432 334.574 292.219 334.569 292.025 334.496Z" fill="black"/>
<path d="M295.496 327.494C295.348 327.442 295.217 327.352 295.116 327.232C293.469 325.294 291.973 323.233 290.64 321.068C290.578 320.965 290.537 320.851 290.519 320.733C290.502 320.614 290.507 320.493 290.536 320.377C290.565 320.261 290.617 320.151 290.688 320.055C290.759 319.959 290.849 319.877 290.951 319.815C291.054 319.754 291.168 319.713 291.286 319.695C291.405 319.677 291.526 319.683 291.642 319.712C291.758 319.741 291.868 319.793 291.964 319.864C292.06 319.935 292.142 320.024 292.204 320.127C293.493 322.2 294.931 324.176 296.506 326.041C296.636 326.195 296.712 326.388 296.721 326.59C296.731 326.791 296.674 326.99 296.559 327.156C296.443 327.321 296.277 327.444 296.085 327.505C295.892 327.567 295.685 327.563 295.496 327.494Z" fill="black"/>
<path d="M298.85 320.196C298.687 320.138 298.545 320.033 298.44 319.895C297.452 318.59 296.542 317.229 295.714 315.817C295.604 315.607 295.579 315.363 295.645 315.136C295.711 314.909 295.863 314.716 296.068 314.598C296.274 314.48 296.517 314.446 296.746 314.503C296.976 314.561 297.175 314.705 297.3 314.905C298.091 316.244 298.956 317.539 299.891 318.781C300.01 318.939 300.076 319.13 300.077 319.328C300.078 319.525 300.016 319.718 299.899 319.877C299.782 320.036 299.616 320.153 299.427 320.211C299.239 320.268 299.036 320.263 298.85 320.196Z" fill="black"/>
<path d="M282.501 343.776C282.409 343.75 282.321 343.71 282.242 343.655C279.889 341.801 277.529 338.584 277.235 337.255C277.186 337.018 277.231 336.77 277.362 336.567C277.494 336.363 277.7 336.219 277.937 336.166C278.054 336.14 278.176 336.137 278.294 336.159C278.413 336.18 278.526 336.224 278.627 336.289C278.729 336.355 278.816 336.439 278.884 336.539C278.953 336.638 279 336.75 279.025 336.867C279.171 337.54 281.059 340.393 283.378 342.219C283.549 342.354 283.667 342.545 283.709 342.76C283.752 342.974 283.716 343.196 283.609 343.386C283.502 343.576 283.331 343.722 283.126 343.797C282.921 343.872 282.696 343.872 282.492 343.795L282.501 343.776Z" fill="black"/>
<path d="M307.809 282.353C307.691 282.309 307.582 282.24 307.492 282.15C306.704 281.39 303.094 276.47 302.688 275.899C302.545 275.703 302.486 275.457 302.523 275.216C302.542 275.097 302.584 274.983 302.647 274.88C302.71 274.777 302.792 274.688 302.89 274.617C302.987 274.546 303.098 274.495 303.215 274.467C303.332 274.439 303.454 274.434 303.573 274.452C303.692 274.471 303.806 274.513 303.909 274.576C304.012 274.639 304.101 274.721 304.172 274.819C305.676 276.887 308.248 280.349 308.764 280.838C308.914 280.984 309.009 281.177 309.034 281.386C309.058 281.594 309.011 281.804 308.899 281.981C308.787 282.158 308.618 282.292 308.42 282.36C308.222 282.427 308.006 282.425 307.809 282.353Z" fill="black"/>
<path d="M308.448 273.485C308.329 273.441 308.221 273.372 308.131 273.283C307.342 272.522 303.732 267.602 303.326 267.032C303.224 266.838 303.195 266.614 303.244 266.4C303.293 266.187 303.416 265.998 303.593 265.868C303.769 265.738 303.986 265.675 304.205 265.691C304.423 265.708 304.629 265.802 304.784 265.957C306.287 268.025 308.859 271.487 309.376 271.976C309.525 272.122 309.621 272.316 309.645 272.524C309.67 272.732 309.622 272.942 309.511 273.119C309.399 273.297 309.23 273.43 309.032 273.498C308.833 273.565 308.618 273.563 308.421 273.491L308.448 273.485Z" fill="black"/>
<path d="M309.531 265.091C309.41 265.047 309.3 264.977 309.209 264.887C308.42 264.126 304.815 259.208 304.409 258.638C304.266 258.442 304.206 258.196 304.243 257.956C304.28 257.716 304.411 257.5 304.607 257.357C304.804 257.213 305.049 257.153 305.289 257.191C305.529 257.228 305.745 257.359 305.888 257.555C307.392 259.623 309.964 263.085 310.48 263.574C310.63 263.72 310.726 263.913 310.751 264.121C310.776 264.328 310.729 264.538 310.618 264.716C310.507 264.893 310.338 265.027 310.141 265.095C309.943 265.164 309.728 265.162 309.531 265.091Z" fill="black"/>
<path d="M309.591 257.049C309.471 257.008 309.362 256.94 309.271 256.852C308.483 256.091 304.873 251.171 304.469 250.596C304.343 250.399 304.296 250.162 304.339 249.932C304.381 249.702 304.51 249.497 304.699 249.36C304.888 249.222 305.122 249.161 305.354 249.191C305.586 249.22 305.798 249.337 305.946 249.518C307.457 251.583 310.022 255.048 310.54 255.532C310.69 255.678 310.786 255.871 310.811 256.078C310.836 256.286 310.789 256.496 310.678 256.673C310.567 256.851 310.398 256.985 310.201 257.053C310.003 257.122 309.788 257.12 309.591 257.049Z" fill="black"/>
<path d="M309.66 248.001C309.539 247.958 309.428 247.89 309.336 247.801C308.547 247.04 304.942 242.123 304.539 241.548C304.459 241.451 304.401 241.34 304.366 241.22C304.331 241.1 304.322 240.974 304.337 240.851C304.353 240.727 304.394 240.608 304.457 240.501C304.521 240.393 304.605 240.3 304.706 240.226C304.807 240.153 304.921 240.101 305.043 240.073C305.164 240.045 305.29 240.043 305.413 240.066C305.536 240.088 305.652 240.136 305.756 240.205C305.859 240.275 305.948 240.365 306.015 240.469C307.521 242.533 310.091 246 310.609 246.484C310.759 246.63 310.855 246.822 310.88 247.03C310.905 247.238 310.858 247.448 310.747 247.625C310.636 247.803 310.467 247.937 310.27 248.005C310.072 248.073 309.857 248.072 309.66 248.001Z" fill="black"/>
<path d="M302.12 197.28C302 197.237 301.892 197.167 301.803 197.078C301.014 196.317 297.404 191.397 297.001 190.821C296.874 190.625 296.827 190.388 296.87 190.158C296.913 189.928 297.041 189.723 297.23 189.586C297.419 189.448 297.653 189.387 297.885 189.417C298.117 189.446 298.329 189.563 298.477 189.744C299.988 191.809 302.553 195.274 303.069 195.763C303.24 195.932 303.337 196.163 303.338 196.404C303.339 196.645 303.244 196.876 303.075 197.048C302.954 197.173 302.8 197.261 302.631 197.302C302.462 197.343 302.285 197.335 302.12 197.28Z" fill="black"/>
<path d="M298.983 187.971C298.864 187.928 298.756 187.858 298.666 187.769C297.878 187.008 294.267 182.088 293.864 181.513C293.727 181.316 293.673 181.073 293.713 180.837C293.753 180.601 293.884 180.39 294.078 180.249C294.272 180.108 294.513 180.049 294.75 180.084C294.987 180.119 295.201 180.246 295.346 180.437C296.85 182.505 299.422 185.967 299.933 186.454C300.104 186.624 300.2 186.854 300.201 187.095C300.202 187.336 300.108 187.567 299.938 187.739C299.817 187.864 299.663 187.952 299.494 187.993C299.325 188.034 299.148 188.026 298.983 187.971Z" fill="black"/>
<path d="M295.564 176.751C295.445 176.708 295.337 176.639 295.247 176.549C294.458 175.788 290.848 170.868 290.445 170.293C290.308 170.096 290.254 169.854 290.294 169.618C290.334 169.381 290.465 169.17 290.659 169.03C290.853 168.889 291.094 168.83 291.331 168.865C291.568 168.9 291.782 169.027 291.927 169.217C293.43 171.286 296.002 174.748 296.519 175.236C296.688 175.407 296.784 175.637 296.785 175.878C296.786 176.118 296.692 176.35 296.524 176.522C296.402 176.647 296.248 176.735 296.077 176.776C295.907 176.817 295.729 176.808 295.564 176.751Z" fill="black"/>
<path d="M221.024 181.285C220.804 181.205 220.623 181.044 220.518 180.835C220.413 180.626 220.392 180.385 220.46 180.161C220.527 179.937 220.677 179.747 220.88 179.631C221.083 179.514 221.323 179.48 221.55 179.534C221.691 179.57 235.862 182.832 245.697 179.735C245.929 179.662 246.18 179.684 246.395 179.796C246.611 179.908 246.773 180.1 246.847 180.332C246.92 180.564 246.898 180.815 246.786 181.03C246.675 181.246 246.482 181.408 246.25 181.481C235.926 184.732 221.73 181.457 221.13 181.317L221.024 181.285Z" fill="black"/>
<path d="M253.559 190.08C253.341 189.999 253.163 189.837 253.059 189.628C252.956 189.42 252.937 189.18 253.004 188.957C253.072 188.734 253.222 188.545 253.424 188.429C253.625 188.313 253.864 188.278 254.09 188.332C254.231 188.367 268.4 191.635 278.235 188.538C278.352 188.493 278.476 188.473 278.601 188.478C278.726 188.483 278.848 188.514 278.961 188.569C279.073 188.623 279.174 188.7 279.255 188.794C279.337 188.889 279.398 188.999 279.436 189.118C279.473 189.238 279.486 189.363 279.473 189.488C279.46 189.612 279.422 189.732 279.361 189.841C279.3 189.95 279.217 190.045 279.117 190.121C279.018 190.197 278.904 190.251 278.783 190.282C268.467 193.529 254.27 190.255 253.671 190.114C253.632 190.108 253.595 190.097 253.559 190.08Z" fill="black"/>
<path d="M223.153 243.573C222.933 243.493 222.752 243.332 222.647 243.123C222.542 242.914 222.521 242.672 222.588 242.448C222.655 242.224 222.806 242.035 223.009 241.918C223.211 241.802 223.451 241.767 223.679 241.822C223.808 241.882 237.988 245.125 247.826 242.023C248.058 241.95 248.31 241.972 248.525 242.085C248.741 242.197 248.903 242.391 248.976 242.623C249.05 242.855 249.027 243.107 248.915 243.323C248.802 243.539 248.608 243.701 248.376 243.774C238.055 247.019 223.859 243.745 223.259 243.604L223.153 243.573Z" fill="black"/>
<path d="M260.243 252.901C260.023 252.821 259.842 252.66 259.737 252.451C259.632 252.242 259.611 252 259.678 251.776C259.745 251.552 259.896 251.363 260.099 251.246C260.302 251.129 260.541 251.095 260.769 251.149C260.912 251.18 275.081 254.448 284.921 251.353C285.147 251.297 285.386 251.329 285.59 251.443C285.793 251.557 285.945 251.745 286.015 251.967C286.085 252.19 286.067 252.43 285.966 252.64C285.864 252.85 285.687 253.013 285.469 253.097C275.145 256.347 260.949 253.073 260.349 252.932L260.243 252.901Z" fill="black"/>
<path d="M232.652 271.45C232.434 271.368 232.255 271.207 232.152 270.998C232.049 270.789 232.029 270.549 232.096 270.326C232.164 270.104 232.314 269.915 232.516 269.799C232.718 269.683 232.956 269.648 233.183 269.701C233.323 269.737 247.49 272.997 257.33 269.903C257.444 269.867 257.565 269.854 257.685 269.865C257.805 269.876 257.921 269.91 258.028 269.966C258.134 270.022 258.229 270.098 258.306 270.19C258.383 270.283 258.441 270.389 258.477 270.504C258.513 270.619 258.526 270.74 258.515 270.859C258.504 270.979 258.47 271.096 258.414 271.202C258.358 271.309 258.282 271.403 258.189 271.48C258.097 271.557 257.99 271.615 257.875 271.651C247.559 274.899 233.363 271.624 232.763 271.484L232.652 271.45Z" fill="black"/>
<path d="M247.429 319.067C247.211 318.985 247.032 318.823 246.929 318.615C246.826 318.406 246.806 318.166 246.874 317.943C246.941 317.72 247.091 317.532 247.293 317.416C247.495 317.299 247.733 317.265 247.96 317.318C248.089 317.378 262.27 320.621 272.105 317.524C272.221 317.479 272.346 317.459 272.471 317.464C272.596 317.47 272.718 317.501 272.83 317.555C272.943 317.609 273.043 317.686 273.125 317.781C273.206 317.875 273.268 317.986 273.305 318.105C273.343 318.224 273.355 318.35 273.343 318.474C273.33 318.598 273.292 318.718 273.23 318.827C273.169 318.936 273.086 319.032 272.987 319.107C272.888 319.183 272.774 319.238 272.653 319.268C262.336 322.515 248.14 319.241 247.54 319.1L247.429 319.067Z" fill="black"/>
<path d="M225.895 329.751C225.684 329.665 225.513 329.504 225.414 329.298C225.316 329.093 225.298 328.858 225.363 328.64C225.429 328.422 225.573 328.236 225.768 328.118C225.963 328.001 226.195 327.961 226.419 328.005C226.562 328.035 240.731 331.303 250.571 328.209C250.797 328.152 251.036 328.185 251.239 328.299C251.443 328.413 251.595 328.6 251.665 328.823C251.735 329.045 251.717 329.286 251.616 329.496C251.514 329.706 251.336 329.869 251.119 329.952C240.795 333.202 226.599 329.928 225.999 329.787C225.963 329.778 225.929 329.766 225.895 329.751Z" fill="black"/>
<path d="M222.369 210.587C222.33 210.572 222.292 210.555 222.255 210.534C221.77 210.278 221.037 209.76 221.108 208.959C221.144 208.696 221.261 208.45 221.442 208.257C221.624 208.063 221.861 207.93 222.121 207.876C222.236 207.841 222.356 207.829 222.475 207.841C222.595 207.853 222.711 207.888 222.816 207.945C222.922 208.001 223.016 208.078 223.091 208.171C223.167 208.264 223.224 208.371 223.259 208.486C223.312 208.658 223.315 208.842 223.266 209.015C223.432 209.152 223.545 209.344 223.584 209.556C223.623 209.769 223.585 209.988 223.478 210.175C223.371 210.363 223.202 210.506 222.999 210.581C222.797 210.655 222.574 210.656 222.372 210.582L222.369 210.587Z" fill="black"/>
<path d="M250.133 211.284L250.024 211.233C249.563 210.988 248.801 210.457 248.877 209.657C248.91 209.395 249.025 209.149 249.205 208.955C249.386 208.761 249.623 208.629 249.882 208.577C249.997 208.542 250.118 208.53 250.238 208.541C250.358 208.552 250.474 208.587 250.581 208.643C250.687 208.7 250.781 208.776 250.858 208.869C250.934 208.962 250.992 209.069 251.027 209.184C251.082 209.355 251.083 209.539 251.03 209.711C251.201 209.847 251.318 210.04 251.359 210.255C251.401 210.469 251.364 210.692 251.256 210.882C251.147 211.072 250.975 211.217 250.769 211.29C250.563 211.364 250.337 211.362 250.133 211.284Z" fill="black"/>
<path d="M236.451 157.777C236.411 157.762 236.373 157.744 236.336 157.724C235.876 157.479 235.118 156.95 235.19 156.148C235.226 155.885 235.342 155.64 235.524 155.446C235.705 155.252 235.942 155.119 236.202 155.066C236.318 155.031 236.439 155.019 236.558 155.031C236.678 155.043 236.794 155.078 236.9 155.135C237.007 155.192 237.101 155.269 237.177 155.362C237.253 155.455 237.31 155.562 237.345 155.677C237.395 155.849 237.396 156.032 237.347 156.205C237.514 156.342 237.626 156.534 237.665 156.746C237.704 156.958 237.667 157.177 237.56 157.365C237.453 157.552 237.283 157.696 237.081 157.77C236.878 157.845 236.656 157.845 236.453 157.772L236.451 157.777Z" fill="black"/>
<path d="M225.827 170.621C225.788 170.606 225.75 170.588 225.713 170.568C225.228 170.311 224.49 169.792 224.566 168.993C224.602 168.73 224.719 168.486 224.9 168.293C225.081 168.1 225.318 167.968 225.577 167.915C225.691 167.879 225.812 167.866 225.932 167.877C226.051 167.887 226.167 167.922 226.274 167.978C226.38 168.034 226.473 168.111 226.55 168.204C226.626 168.297 226.683 168.404 226.717 168.519C226.771 168.691 226.773 168.875 226.724 169.049C226.887 169.183 226.999 169.371 227.04 169.578C227.081 169.786 227.049 170.002 226.949 170.188C226.847 170.385 226.677 170.538 226.47 170.618C226.264 170.698 226.035 170.699 225.827 170.621Z" fill="black"/>
<path d="M235.675 171.662C235.637 171.647 235.601 171.63 235.566 171.611C235.069 171.379 234.342 170.835 234.419 170.036C234.452 169.773 234.567 169.527 234.747 169.333C234.928 169.139 235.164 169.007 235.424 168.956C235.539 168.92 235.66 168.907 235.78 168.918C235.9 168.929 236.017 168.963 236.123 169.02C236.23 169.076 236.324 169.153 236.401 169.246C236.477 169.339 236.535 169.447 236.569 169.562C236.624 169.734 236.625 169.918 236.571 170.09C236.738 170.227 236.85 170.419 236.889 170.631C236.928 170.843 236.891 171.062 236.784 171.25C236.677 171.437 236.507 171.581 236.305 171.655C236.102 171.73 235.88 171.73 235.677 171.657L235.675 171.662Z" fill="black"/>
<path d="M248.325 216.938C248.286 216.923 248.248 216.905 248.211 216.885C247.75 216.64 246.988 216.109 247.064 215.309C247.097 215.046 247.212 214.801 247.392 214.607C247.573 214.413 247.81 214.281 248.07 214.229C248.185 214.193 248.306 214.18 248.426 214.191C248.546 214.202 248.662 214.237 248.769 214.293C248.875 214.35 248.97 214.427 249.046 214.52C249.123 214.613 249.18 214.721 249.215 214.836C249.269 215.007 249.27 215.191 249.217 215.363C249.381 215.498 249.493 215.685 249.535 215.893C249.577 216.101 249.546 216.317 249.447 216.505C249.344 216.701 249.174 216.853 248.968 216.933C248.761 217.012 248.533 217.014 248.325 216.938Z" fill="black"/>
<path d="M220.057 294.658C220.02 294.643 219.983 294.626 219.948 294.607C219.463 294.35 218.725 293.831 218.801 293.031C218.834 292.769 218.949 292.523 219.129 292.329C219.31 292.135 219.547 292.003 219.807 291.952C219.922 291.916 220.042 291.904 220.162 291.915C220.282 291.926 220.398 291.961 220.505 292.018C220.611 292.074 220.705 292.151 220.782 292.243C220.859 292.336 220.916 292.443 220.952 292.558C221.006 292.731 221.005 292.917 220.951 293.09C221.118 293.228 221.23 293.419 221.269 293.632C221.308 293.844 221.271 294.063 221.164 294.25C221.057 294.438 220.887 294.582 220.685 294.656C220.482 294.731 220.26 294.731 220.057 294.658Z" fill="black"/>
<path d="M215.138 299.835L215.024 299.782C214.557 299.564 213.806 299.008 213.882 298.209C213.915 297.946 214.03 297.7 214.211 297.506C214.391 297.313 214.628 297.181 214.888 297.129C215.314 297.33 215.671 297.653 215.913 298.057C216.156 298.46 216.273 298.927 216.25 299.398C216.146 299.59 215.977 299.739 215.774 299.819C215.571 299.899 215.345 299.905 215.138 299.835Z" fill="black"/>
<path d="M247.953 293.903C247.915 293.888 247.879 293.871 247.844 293.852C247.347 293.62 246.618 293.081 246.697 292.277C246.73 292.014 246.845 291.768 247.025 291.574C247.206 291.381 247.443 291.248 247.702 291.197C247.897 291.142 248.102 291.131 248.302 291.164C248.502 291.197 248.692 291.273 248.859 291.388C249.026 291.503 249.166 291.653 249.269 291.828C249.371 292.003 249.434 292.198 249.453 292.4C249.471 292.601 249.445 292.805 249.377 292.995C249.308 293.186 249.198 293.359 249.055 293.503C248.912 293.646 248.739 293.756 248.549 293.826C248.358 293.895 248.155 293.921 247.953 293.903Z" fill="black"/>
<path d="M245.102 300.057C245.062 300.041 245.024 300.024 244.987 300.003C244.527 299.758 243.769 299.229 243.846 298.43C243.879 298.167 243.994 297.92 244.175 297.725C244.355 297.531 244.593 297.398 244.854 297.346C245.049 297.291 245.253 297.279 245.453 297.312C245.653 297.345 245.843 297.422 246.01 297.537C246.177 297.652 246.317 297.802 246.42 297.976C246.522 298.151 246.585 298.346 246.604 298.548C246.622 298.75 246.597 298.953 246.528 299.144C246.459 299.335 246.349 299.508 246.206 299.651C246.063 299.795 245.89 299.905 245.7 299.974C245.509 300.043 245.306 300.07 245.104 300.052L245.102 300.057Z" fill="black"/>
<path d="M283.212 293.678C283.175 293.663 283.138 293.646 283.103 293.627C282.606 293.395 281.88 292.851 281.956 292.051C281.989 291.789 282.104 291.543 282.284 291.349C282.465 291.155 282.702 291.023 282.962 290.972C283.077 290.936 283.197 290.924 283.317 290.935C283.437 290.946 283.553 290.981 283.66 291.037C283.766 291.094 283.86 291.171 283.937 291.263C284.014 291.356 284.071 291.463 284.107 291.578C284.158 291.752 284.158 291.937 284.106 292.11C284.271 292.243 284.385 292.429 284.427 292.637C284.469 292.844 284.438 293.06 284.339 293.247C284.233 293.442 284.062 293.592 283.855 293.671C283.648 293.75 283.42 293.752 283.212 293.678Z" fill="black"/>
<path d="M278.471 296.93L278.357 296.877C277.897 296.632 277.134 296.101 277.21 295.301C277.243 295.038 277.358 294.793 277.539 294.599C277.719 294.405 277.956 294.273 278.216 294.221C278.331 294.185 278.452 294.172 278.572 294.183C278.692 294.194 278.809 294.229 278.915 294.285C279.022 294.342 279.116 294.419 279.192 294.512C279.269 294.605 279.326 294.713 279.361 294.828C279.415 294.999 279.416 295.183 279.363 295.355C279.534 295.491 279.651 295.683 279.693 295.898C279.735 296.112 279.699 296.334 279.591 296.524C279.484 296.714 279.312 296.86 279.106 296.934C278.901 297.008 278.676 297.007 278.471 296.93Z" fill="black"/>
<path d="M283.842 208.908L283.728 208.855C283.267 208.61 282.505 208.079 282.581 207.279C282.614 207.017 282.729 206.771 282.909 206.577C283.09 206.383 283.327 206.251 283.587 206.2C283.702 206.164 283.823 206.15 283.943 206.161C284.063 206.172 284.179 206.207 284.286 206.264C284.392 206.32 284.487 206.397 284.563 206.49C284.64 206.583 284.697 206.691 284.731 206.806C284.787 206.979 284.787 207.165 284.731 207.338C284.898 207.475 285.011 207.667 285.05 207.878C285.089 208.09 285.053 208.309 284.946 208.497C284.84 208.685 284.671 208.829 284.469 208.904C284.267 208.979 284.045 208.981 283.842 208.908Z" fill="black"/>
<path d="M239.844 117.496C239.805 117.481 239.766 117.463 239.73 117.443C239.244 117.186 238.509 116.674 238.588 115.87C238.621 115.607 238.736 115.361 238.916 115.167C239.097 114.973 239.333 114.841 239.593 114.79C239.708 114.754 239.828 114.742 239.948 114.753C240.067 114.764 240.183 114.799 240.289 114.855C240.395 114.911 240.489 114.988 240.565 115.08C240.641 115.173 240.698 115.279 240.733 115.394C240.789 115.568 240.791 115.754 240.738 115.929C240.904 116.066 241.017 116.258 241.056 116.47C241.095 116.682 241.058 116.901 240.951 117.089C240.844 117.276 240.674 117.42 240.472 117.494C240.269 117.569 240.047 117.569 239.844 117.496Z" fill="black"/>
<path d="M232.353 119.496C232.316 119.482 232.279 119.465 232.244 119.445C231.784 119.2 231.021 118.669 231.097 117.87C231.13 117.607 231.245 117.361 231.426 117.168C231.606 116.974 231.843 116.842 232.103 116.79C232.218 116.755 232.339 116.742 232.459 116.754C232.578 116.765 232.695 116.8 232.801 116.856C232.907 116.912 233.002 116.989 233.078 117.082C233.155 117.175 233.212 117.282 233.248 117.397C233.302 117.57 233.302 117.756 233.248 117.929C233.414 118.066 233.527 118.258 233.566 118.47C233.604 118.682 233.567 118.901 233.46 119.089C233.353 119.276 233.184 119.42 232.981 119.495C232.779 119.569 232.556 119.57 232.353 119.496Z" fill="black"/>
<path d="M280.136 214.742C280.097 214.73 280.06 214.713 280.026 214.691C279.554 214.471 278.801 213.92 278.879 213.115C278.912 212.853 279.027 212.607 279.208 212.413C279.388 212.219 279.625 212.087 279.885 212.036C280 212 280.121 211.988 280.241 211.999C280.361 212.01 280.477 212.045 280.583 212.102C280.69 212.158 280.784 212.235 280.86 212.327C280.937 212.42 280.995 212.527 281.03 212.642C281.084 212.815 281.084 213.001 281.03 213.174C281.196 213.312 281.309 213.503 281.348 213.716C281.387 213.928 281.349 214.147 281.242 214.334C281.136 214.522 280.966 214.665 280.763 214.74C280.561 214.814 280.339 214.815 280.136 214.742Z" fill="black"/>
<path d="M216.684 214.748C216.647 214.734 216.61 214.717 216.575 214.697C216.114 214.453 215.352 213.921 215.428 213.122C215.461 212.858 215.576 212.612 215.757 212.417C215.938 212.222 216.175 212.09 216.436 212.037C216.668 211.967 216.919 211.992 217.133 212.105C217.347 212.219 217.508 212.412 217.581 212.644C217.545 213.212 217.623 213.781 217.811 214.318C217.707 214.514 217.535 214.666 217.328 214.745C217.121 214.824 216.892 214.825 216.684 214.748Z" fill="black"/>
<path d="M215.623 235.421C215.585 235.407 215.549 235.39 215.513 235.37C215.028 235.114 214.29 234.594 214.367 233.795C214.4 233.532 214.514 233.286 214.695 233.093C214.876 232.899 215.112 232.767 215.372 232.715C215.487 232.679 215.608 232.666 215.728 232.677C215.848 232.688 215.965 232.723 216.071 232.779C216.178 232.835 216.272 232.913 216.349 233.006C216.425 233.099 216.482 233.206 216.517 233.322C216.572 233.493 216.573 233.677 216.519 233.849C216.683 233.984 216.796 234.171 216.838 234.379C216.879 234.587 216.848 234.803 216.749 234.991C216.646 235.187 216.475 235.34 216.267 235.419C216.06 235.499 215.831 235.499 215.623 235.421Z" fill="black"/>
<path d="M216.706 256.84C216.667 256.824 216.629 256.807 216.592 256.786C216.131 256.541 215.366 256.015 215.445 255.211C215.478 254.948 215.593 254.703 215.773 254.509C215.954 254.315 216.191 254.183 216.45 254.131C216.565 254.096 216.686 254.083 216.806 254.095C216.926 254.106 217.042 254.141 217.149 254.197C217.255 254.254 217.349 254.33 217.426 254.423C217.502 254.516 217.56 254.623 217.595 254.738C217.649 254.911 217.649 255.097 217.595 255.27C217.762 255.407 217.875 255.598 217.914 255.81C217.953 256.022 217.917 256.241 217.81 256.429C217.704 256.616 217.535 256.76 217.333 256.835C217.131 256.911 216.909 256.912 216.706 256.84Z" fill="black"/>
<path d="M208.698 247.727C208.659 247.712 208.621 247.695 208.584 247.674C208.124 247.429 207.366 246.9 207.437 246.099C207.473 245.836 207.59 245.591 207.772 245.397C207.953 245.203 208.19 245.07 208.45 245.016C208.682 244.946 208.931 244.971 209.145 245.084C209.358 245.197 209.518 245.39 209.59 245.621C209.642 245.795 209.644 245.98 209.595 246.155C209.761 246.292 209.874 246.484 209.913 246.696C209.952 246.909 209.915 247.128 209.808 247.315C209.701 247.503 209.531 247.646 209.328 247.721C209.126 247.795 208.904 247.796 208.701 247.722L208.698 247.727Z" fill="black"/>
<path d="M207.274 264.807C207.235 264.792 207.197 264.774 207.16 264.754C206.674 264.497 205.937 263.978 206.013 263.178C206.047 262.915 206.163 262.669 206.344 262.475C206.524 262.281 206.761 262.147 207.021 262.093C207.253 262.023 207.504 262.048 207.718 262.161C207.932 262.275 208.093 262.469 208.166 262.7C208.22 262.873 208.22 263.059 208.166 263.232C208.332 263.369 208.445 263.56 208.484 263.772C208.524 263.984 208.487 264.203 208.381 264.391C208.274 264.578 208.105 264.722 207.903 264.798C207.701 264.873 207.479 264.874 207.276 264.802L207.274 264.807Z" fill="black"/>
<path d="M395.924 128.094L404.291 134.802C404.323 134.829 404.362 134.847 404.403 134.856C404.444 134.865 404.487 134.863 404.528 134.852L414.79 131.773C414.835 131.758 414.884 131.757 414.93 131.769C414.976 131.781 415.017 131.806 415.05 131.841C415.082 131.876 415.104 131.919 415.113 131.966C415.122 132.013 415.118 132.061 415.1 132.105L411.308 142.133C411.293 142.172 411.288 142.214 411.293 142.255C411.298 142.297 411.313 142.336 411.336 142.371L417.447 151.179C417.474 151.218 417.489 151.265 417.492 151.313C417.494 151.36 417.483 151.408 417.459 151.45C417.436 151.492 417.402 151.527 417.36 151.55C417.318 151.573 417.27 151.584 417.222 151.582L406.516 151.073C406.475 151.069 406.433 151.076 406.395 151.094C406.357 151.111 406.325 151.138 406.3 151.172L399.805 159.704C399.777 159.743 399.738 159.773 399.693 159.79C399.649 159.808 399.6 159.812 399.553 159.803C399.505 159.794 399.462 159.771 399.427 159.738C399.392 159.705 399.368 159.662 399.356 159.615L396.533 149.273C396.521 149.233 396.501 149.197 396.473 149.167C396.445 149.137 396.41 149.114 396.371 149.1L386.238 145.585C386.193 145.569 386.154 145.54 386.125 145.503C386.096 145.466 386.078 145.421 386.072 145.374C386.066 145.327 386.074 145.28 386.093 145.237C386.113 145.194 386.144 145.157 386.183 145.13L395.145 139.249C395.178 139.224 395.203 139.191 395.221 139.154C395.238 139.117 395.246 139.076 395.245 139.035L395.482 128.317C395.471 128.262 395.479 128.205 395.504 128.154C395.528 128.104 395.569 128.063 395.619 128.038C395.669 128.013 395.726 128.005 395.781 128.015C395.836 128.025 395.887 128.053 395.924 128.094Z" stroke="black" stroke-width="2" stroke-miterlimit="10" stroke-linecap="round"/>
<path d="M114.441 102.02L122.807 108.728C122.84 108.753 122.879 108.769 122.919 108.776C122.96 108.784 123.001 108.782 123.041 108.771L133.303 105.692C133.349 105.678 133.398 105.678 133.445 105.691C133.491 105.703 133.533 105.729 133.566 105.764C133.598 105.8 133.62 105.843 133.629 105.89C133.638 105.938 133.634 105.987 133.617 106.032L129.819 116.057C129.805 116.096 129.8 116.138 129.805 116.179C129.81 116.22 129.824 116.26 129.847 116.294L135.958 125.103C135.986 125.141 136.002 125.187 136.005 125.235C136.007 125.283 135.996 125.331 135.973 125.372C135.95 125.414 135.915 125.448 135.873 125.471C135.831 125.494 135.784 125.504 135.736 125.501L125.03 124.992C124.988 124.989 124.946 124.998 124.907 125.016C124.869 125.034 124.836 125.061 124.812 125.096L118.319 133.623C118.29 133.66 118.251 133.689 118.207 133.706C118.163 133.723 118.114 133.728 118.068 133.719C118.021 133.71 117.978 133.689 117.942 133.657C117.907 133.626 117.881 133.585 117.868 133.539L115.044 123.197C115.034 123.156 115.014 123.119 114.986 123.089C114.957 123.059 114.922 123.037 114.882 123.024L104.799 119.466C104.754 119.45 104.714 119.422 104.684 119.385C104.654 119.348 104.635 119.303 104.629 119.256C104.622 119.208 104.63 119.16 104.649 119.116C104.669 119.073 104.7 119.036 104.74 119.009L113.702 113.127C113.735 113.103 113.762 113.071 113.779 113.033C113.797 112.996 113.805 112.955 113.801 112.914L114.038 102.195C114.045 102.152 114.062 102.11 114.088 102.075C114.115 102.04 114.15 102.013 114.191 101.995C114.231 101.978 114.275 101.971 114.319 101.975C114.363 101.979 114.405 101.995 114.441 102.02Z" stroke="black" stroke-width="2" stroke-miterlimit="10" stroke-linecap="round"/>
</svg>
