<svg width="117" height="72" viewBox="0 0 117 72" fill="none" xmlns="http://www.w3.org/2000/svg">
<path d="M1.03602 38.5979C1.00871 38.6496 0.996507 38.7079 1.00087 38.7661C1.00522 38.8244 1.02595 38.8802 1.06064 38.9273C1.09533 38.9743 1.14256 39.0105 1.19694 39.0319C1.25132 39.0532 1.31061 39.0588 1.36802 39.0479C4.16096 38.5141 15.4259 36.4784 17.2878 37.8345C17.9737 38.3341 8.07734 56.569 8.93074 58.1951C10.0727 60.3674 21.558 51.88 25.7102 48.7053C25.8372 48.6074 25.9897 48.5482 26.1495 48.535C26.3093 48.5218 26.4696 48.5551 26.6109 48.6309C26.7523 48.7066 26.8687 48.8216 26.9462 48.962C27.0237 49.1024 27.0589 49.2622 27.0476 49.4222C26.697 54.6419 26.1881 69.0287 31.1905 70.0776C32.8849 70.4344 31.1595 54.8715 45.4284 43.5849C57.1278 34.3185 65.0287 29.3533 76.2812 27.4479C80.0889 26.8086 86.522 25.8962 91.9527 25.1483L91.8503 23.5408C91.8472 23.5077 91.8367 23.4757 91.8195 23.4472C91.8023 23.4187 91.7788 23.3945 91.7509 23.3764L81.7181 17.3808C81.6846 17.3609 81.6574 17.332 81.6396 17.2973C81.6218 17.2627 81.6141 17.2238 81.6173 17.1849C81.6206 17.1461 81.6346 17.109 81.6579 17.0778C81.6813 17.0466 81.7128 17.0226 81.7491 17.0084L92.6106 12.7073C92.6423 12.6956 92.6706 12.6761 92.6928 12.6506C92.7151 12.6251 92.7306 12.5945 92.7378 12.5614L93.5074 9.21922C85.0789 5.7032 68.6626 1.88617 43.7308 9.26576C13.4646 18.2249 2.86075 35.265 1.03602 38.5979Z" stroke="black" stroke-width="2" stroke-miterlimit="10" stroke-linecap="round"/>
<path d="M81.7182 17.3809L91.7479 23.395C91.7765 23.4126 91.8008 23.4367 91.8185 23.4652C91.8363 23.4938 91.8472 23.526 91.8503 23.5595L92.5796 35.234C92.5822 35.2727 92.5955 35.31 92.6181 35.3415C92.6407 35.373 92.6717 35.3976 92.7075 35.4124C92.7434 35.4273 92.7826 35.4318 92.8209 35.4255C92.8592 35.4192 92.8949 35.4023 92.9241 35.3768L101.744 27.6962C101.769 27.6743 101.8 27.6589 101.833 27.6514C101.866 27.6438 101.9 27.6443 101.933 27.6527L113.26 30.5636C113.297 30.5729 113.337 30.5717 113.373 30.56C113.41 30.5483 113.443 30.5265 113.468 30.4972C113.493 30.4679 113.51 30.4321 113.516 30.394C113.522 30.3558 113.517 30.3168 113.502 30.2812L108.925 19.519C108.911 19.4882 108.905 19.4545 108.908 19.4208C108.911 19.3872 108.922 19.3548 108.94 19.3266L115.215 9.44579C115.235 9.41347 115.245 9.37637 115.245 9.33857C115.244 9.30077 115.234 9.26375 115.214 9.23163C115.194 9.1995 115.166 9.17351 115.132 9.15654C115.098 9.13956 115.06 9.13227 115.022 9.13546L103.37 10.1658C103.336 10.1687 103.303 10.1635 103.272 10.1505C103.241 10.1375 103.214 10.1172 103.193 10.0913L95.745 1.07625C95.7206 1.04605 95.6882 1.02339 95.6515 1.0109C95.6147 0.99841 95.5752 0.996614 95.5375 1.00572C95.4997 1.01482 95.4654 1.03445 95.4384 1.06232C95.4114 1.0902 95.3929 1.12516 95.385 1.16315L92.7627 12.5615C92.7549 12.5943 92.7392 12.6247 92.7171 12.6501C92.6949 12.6755 92.6669 12.6952 92.6355 12.7073L81.774 17.0085C81.7361 17.0197 81.7023 17.0416 81.6764 17.0714C81.6504 17.1012 81.6336 17.1378 81.6277 17.1769C81.6219 17.216 81.6272 17.2559 81.6432 17.2921C81.6593 17.3282 81.6853 17.359 81.7182 17.3809Z" stroke="black" stroke-width="2" stroke-miterlimit="10" stroke-linecap="round"/>
<path d="M22.7371 42.3343C22.8289 42.3666 22.928 42.3723 23.023 42.3509C23.1179 42.3295 23.2049 42.2818 23.274 42.2133C41.3319 24.1336 55.9204 21.2072 61.3543 20.8007H61.525C61.662 20.7891 61.7888 20.7237 61.8776 20.6186C61.9663 20.5136 62.0097 20.3776 61.9982 20.2405C61.9867 20.1035 61.9212 19.9766 61.8161 19.8879C61.7111 19.7991 61.5751 19.7557 61.4381 19.7673H61.2736C55.7249 20.1955 40.8417 23.1809 22.5385 41.4902C22.4415 41.5874 22.387 41.7191 22.387 41.8564C22.387 41.9937 22.4415 42.1254 22.5385 42.2226C22.5962 42.2732 22.6639 42.3113 22.7371 42.3343Z" fill="black"/>
<path d="M20.2546 34.3651C20.3468 34.3966 20.4459 34.4017 20.5408 34.3797C20.6356 34.3578 20.7225 34.3097 20.7915 34.241C39.917 15.0937 64.4297 12.4032 74.0809 12.1363C74.3168 12.1363 74.4844 12.1363 74.5713 12.1208C74.6411 12.119 74.7098 12.1032 74.7733 12.0742C74.8368 12.0452 74.8938 12.0036 74.9409 11.9521C74.988 11.9005 75.0241 11.8399 75.0472 11.774C75.0703 11.7081 75.0798 11.6382 75.0752 11.5686C75.0706 11.4989 75.0519 11.4309 75.0204 11.3686C74.9888 11.3063 74.945 11.251 74.8916 11.2061C74.8381 11.1611 74.7762 11.1275 74.7094 11.1071C74.6426 11.0867 74.5724 11.08 74.503 11.0874H74.0499C64.2777 11.3574 39.4484 14.0821 20.0529 33.4931C19.9559 33.5902 19.9014 33.7219 19.9014 33.8592C19.9014 33.9966 19.9559 34.1283 20.0529 34.2254C20.1071 34.2884 20.1766 34.3365 20.2546 34.3651Z" fill="black"/>
<path d="M29.9337 46.1266C30.0346 46.1622 30.1441 46.1655 30.247 46.1361C30.3499 46.1066 30.441 46.0458 30.5078 45.9621C38.3219 36.3047 48.0475 32.7887 51.2439 31.6312C52.1749 31.2898 52.42 31.2029 52.5752 31.0385C52.6653 30.9427 52.7156 30.8163 52.716 30.6848C52.7164 30.5533 52.6668 30.4266 52.5772 30.3303C52.4876 30.234 52.3649 30.1754 52.2337 30.1663C52.1025 30.1572 51.9727 30.1983 51.8707 30.2813C51.7497 30.3464 51.3121 30.5047 50.8901 30.6599C47.6286 31.8391 37.6981 35.4296 29.7009 45.3135C29.6582 45.3663 29.6263 45.4269 29.607 45.4919C29.5878 45.557 29.5816 45.6253 29.5888 45.6927C29.596 45.7602 29.6165 45.8256 29.649 45.8852C29.6816 45.9447 29.7256 45.9972 29.7785 46.0397C29.8244 46.078 29.877 46.1075 29.9337 46.1266Z" fill="black"/>
<path d="M95.5557 28.1678C95.6791 28.21 95.8138 28.2044 95.9333 28.1521C96.0528 28.0998 96.1484 28.0047 96.2012 27.8854L98.5782 22.4671C98.6061 22.405 98.6214 22.338 98.6232 22.2699C98.625 22.2019 98.6132 22.1342 98.5887 22.0707C98.5642 22.0072 98.5274 21.9492 98.4803 21.9001C98.4332 21.8509 98.3769 21.8116 98.3145 21.7843C98.1885 21.73 98.0462 21.7276 97.9183 21.7775C97.7905 21.8275 97.6876 21.9258 97.6318 22.0512L95.2515 27.4695C95.2242 27.5319 95.2095 27.599 95.2081 27.6671C95.2068 27.7351 95.2188 27.8028 95.2436 27.8662C95.2684 27.9296 95.3054 27.9875 95.3525 28.0366C95.3997 28.0856 95.4561 28.125 95.5185 28.1523L95.5557 28.1678Z" fill="black"/>
<path d="M89.9234 18.5136C89.9733 18.5309 90.0257 18.5403 90.0785 18.5415L95.7762 18.7308C95.8469 18.7381 95.9183 18.7308 95.9861 18.7093C96.0539 18.6878 96.1166 18.6526 96.1701 18.6058C96.2237 18.5591 96.2671 18.5018 96.2976 18.4375C96.3281 18.3733 96.3451 18.3035 96.3474 18.2324C96.3498 18.1613 96.3375 18.0905 96.3113 18.0244C96.2851 17.9583 96.2455 17.8983 96.1951 17.8481C96.1448 17.7979 96.0846 17.7586 96.0184 17.7327C95.9522 17.7068 95.8813 17.6948 95.8103 17.6974L90.1127 17.5081C89.9897 17.505 89.8695 17.5458 89.7738 17.6231C89.6781 17.7005 89.613 17.8094 89.5902 17.9303C89.5675 18.0513 89.5885 18.1763 89.6496 18.2832C89.7106 18.3901 89.8076 18.4717 89.9234 18.5136Z" fill="black"/>
<path d="M107.146 25.617C107.26 25.6564 107.384 25.6549 107.497 25.6128C107.61 25.5707 107.704 25.4907 107.765 25.3864C107.825 25.2822 107.847 25.1602 107.827 25.0414C107.807 24.9227 107.746 24.8146 107.655 24.7357L103.332 21.0118C103.228 20.9244 103.093 20.8816 102.958 20.8926C102.822 20.9037 102.696 20.9677 102.607 21.0709C102.518 21.174 102.474 21.308 102.483 21.4439C102.492 21.5797 102.554 21.7065 102.656 21.7969L106.979 25.5208C107.028 25.5633 107.085 25.5959 107.146 25.617Z" fill="black"/>
<path d="M103.786 16.3009C103.917 16.3453 104.061 16.3364 104.186 16.2761L109.368 13.7252C109.492 13.6647 109.586 13.5576 109.631 13.4276C109.675 13.2975 109.666 13.1551 109.606 13.0316C109.545 12.9082 109.438 12.8138 109.308 12.7693C109.178 12.7247 109.036 12.7337 108.912 12.7942L103.727 15.3451C103.604 15.4071 103.511 15.5146 103.467 15.6445C103.423 15.7745 103.431 15.9165 103.491 16.0402C103.551 16.1627 103.657 16.2565 103.786 16.3009Z" fill="black"/>
<path d="M99.5433 14.349C99.6412 14.3811 99.7465 14.3832 99.8456 14.3552C99.9448 14.3271 100.033 14.2702 100.1 14.1916C100.167 14.1129 100.208 14.0163 100.22 13.9139C100.231 13.8115 100.212 13.708 100.164 13.6166L97.4951 8.57692C97.4277 8.46145 97.3184 8.37649 97.1898 8.33979C97.0612 8.3031 96.9235 8.3175 96.8053 8.38C96.6871 8.44249 96.5976 8.54826 96.5556 8.67517C96.5135 8.80208 96.5222 8.94034 96.5797 9.06103L99.2485 14.1008C99.3102 14.2192 99.4161 14.3084 99.5433 14.349Z" fill="black"/>
</svg>
