<svg width="43" height="41" viewBox="0 0 43 41" fill="none" xmlns="http://www.w3.org/2000/svg">
<path d="M35.9563 3.0897L32.6883 16.1732C32.6749 16.2244 32.6744 16.2781 32.6866 16.3296C32.6989 16.3811 32.7236 16.429 32.7588 16.4693L41.9148 26.516C41.9561 26.56 41.9838 26.6146 41.9948 26.6734C42.0057 26.7322 41.9994 26.7929 41.9766 26.8484C41.9538 26.9038 41.9153 26.9518 41.8657 26.9868C41.8162 27.0218 41.7575 27.0424 41.6965 27.0462L27.9624 28.0516C27.9091 28.0554 27.8576 28.0718 27.8122 28.0994C27.7668 28.127 27.7289 28.1649 27.7018 28.2099L20.7643 39.8404C20.733 39.8924 20.6875 39.9348 20.633 39.9628C20.5784 39.9909 20.5169 40.0035 20.4554 39.9992C20.3939 39.9949 20.3348 39.9739 20.2849 39.9385C20.2349 39.9032 20.1961 39.8549 20.1727 39.7991L14.9537 27.3423C14.9352 27.2933 14.9042 27.2498 14.8634 27.216C14.8227 27.1822 14.7737 27.1593 14.7213 27.1495L1.26187 24.2849C1.20127 24.2733 1.1453 24.2451 1.10058 24.2034C1.05586 24.1618 1.02424 24.1085 1.00944 24.0499C0.994642 23.9913 0.997287 23.9298 1.01705 23.8726C1.03682 23.8154 1.07287 23.7649 1.121 23.7271L11.6294 15.0232C11.668 14.9884 11.6981 14.9456 11.7176 14.898C11.7371 14.8503 11.7454 14.799 11.742 14.7477L10.3334 1.34752C10.3303 1.28809 10.3436 1.22897 10.372 1.17633C10.4004 1.1237 10.4428 1.07955 10.4948 1.04852C10.5467 1.0175 10.6062 1.00072 10.6671 1.00002C10.7279 0.999326 10.7879 1.0147 10.8405 1.04453L22.5744 8.1165C22.6212 8.14005 22.6731 8.15235 22.7258 8.15235C22.7785 8.15235 22.8304 8.14005 22.8772 8.1165L35.4844 2.6972C35.5433 2.66532 35.6107 2.65177 35.6777 2.65832C35.7447 2.66486 35.808 2.69121 35.8592 2.73384C35.9105 2.77648 35.9473 2.83338 35.9646 2.89696C35.982 2.96054 35.9791 3.02777 35.9563 3.0897Z" stroke="black" stroke-width="2" stroke-miterlimit="10" stroke-linecap="round"/>
</svg>
