<svg width="156" height="123" viewBox="0 0 156 123" fill="none" xmlns="http://www.w3.org/2000/svg">
<path d="M32.0385 40.8853C31.1076 41.2779 30.2838 40.3858 29.1614 38.7721C28.1987 37.384 28.7279 35.63 29.6572 35.2437C30.5866 34.8574 31.6122 35.9391 32.5312 37.3561C33.6443 39.0472 32.9819 40.4958 32.0385 40.8853Z" stroke="black" stroke-width="2" stroke-miterlimit="10" stroke-linecap="round"/>
<path d="M47.9763 29.6086C48.3153 28.8596 49.2381 28.9265 50.7113 29.2099C51.975 29.4678 52.5634 30.7728 52.2283 31.5194C51.8932 32.2659 50.7469 32.2165 49.4933 31.918C47.9981 31.5627 47.6404 30.3583 47.9763 29.6086Z" stroke="black" stroke-width="2" stroke-miterlimit="10" stroke-linecap="round"/>
<path d="M125.668 78.2026C125.254 77.1967 126.24 76.3165 128.013 75.1143C129.538 74.0826 131.445 74.6632 131.86 75.666C132.274 76.6687 131.071 77.7672 129.515 78.7512C127.643 79.9255 126.083 79.2054 125.668 78.2026Z" stroke="black" stroke-width="2" stroke-miterlimit="10" stroke-linecap="round"/>
<path d="M91.6485 69.8173C92.3238 68.7172 93.7993 69.0045 96.0943 69.8011C98.0681 70.4879 98.77 72.6709 98.0946 73.771C97.4193 74.8712 95.5999 74.5382 93.6488 73.7873C91.3224 72.89 90.9638 70.9152 91.6485 69.8173Z" stroke="black" stroke-width="2" stroke-miterlimit="10" stroke-linecap="round"/>
<path d="M61.1126 59.9716C60.406 61.0507 58.9351 60.718 56.6682 59.862C54.7155 59.1174 54.0815 56.9148 54.7858 55.8318C55.49 54.7488 57.3071 55.131 59.2333 55.9421C61.5324 56.909 61.8231 58.8901 61.1126 59.9716Z" stroke="black" stroke-width="2" stroke-miterlimit="10" stroke-linecap="round"/>
<path d="M119.249 58.3243C118.636 58.8689 117.808 58.444 116.592 57.5673C115.545 56.8122 115.546 55.3815 116.159 54.837C116.773 54.2924 117.796 54.8092 118.815 55.5972C120.032 56.5372 119.862 57.7829 119.249 58.3243Z" stroke="black" stroke-width="2" stroke-miterlimit="10" stroke-linecap="round"/>
<path d="M79.0144 77.1554L69.1514 101.26L66.0362 99.9838L75.889 75.9066C76.9365 76.3309 77.9783 76.7472 79.0144 77.1554Z" stroke="black" stroke-width="2" stroke-miterlimit="10" stroke-linecap="round"/>
<path d="M72.7021 104.709C72.3188 105.65 69.5033 105.384 66.4116 104.121C63.3198 102.857 61.1315 101.071 61.514 100.134C61.8965 99.1966 64.7128 99.4589 67.8045 100.723C70.8963 101.986 73.0847 103.772 72.7021 104.709Z" stroke="black" stroke-width="2" stroke-miterlimit="10" stroke-linecap="round"/>
<path d="M40.17 58.4043L21.8549 77.6512L19.4143 75.3312L37.2432 56.6107C38.1972 57.2065 39.1728 57.8044 40.17 58.4043Z" stroke="black" stroke-width="2" stroke-miterlimit="10" stroke-linecap="round"/>
<path d="M23.9134 82.1469C23.2127 82.8822 20.6867 81.6133 18.2688 79.3088C15.8509 77.0044 14.4719 74.5534 15.1571 73.8142C15.8422 73.075 18.3831 74.3511 20.8018 76.6523C23.2205 78.9536 24.6173 81.3991 23.9134 82.1469Z" stroke="black" stroke-width="2" stroke-miterlimit="10" stroke-linecap="round"/>
<path d="M121.742 115.038L118.375 114.987L118.796 88.5606C119.948 88.721 121.049 88.8454 122.156 88.948L121.742 115.038Z" stroke="black" stroke-width="2" stroke-miterlimit="10" stroke-linecap="round"/>
<path d="M113.757 116.747C113.741 117.762 116.434 118.627 119.77 118.68C123.106 118.733 125.826 117.956 125.846 116.942C125.866 115.927 123.169 115.064 119.833 115.011C116.496 114.958 113.77 115.734 113.757 116.747Z" stroke="black" stroke-width="2" stroke-miterlimit="10" stroke-linecap="round"/>
<path d="M142.853 82.3311C137.579 95.221 106.328 88.3843 73.7595 75.0584C39.2079 60.9238 10.2658 41.1466 14.8451 29.9562C17.7331 22.8964 37.8111 20.0657 62.9973 25.5136C61.3663 27.7012 60.0236 30.0897 59.0022 32.62C58.1247 34.7616 57.5271 37.0074 57.2241 39.3019C57.1272 40.0958 57.2854 40.8998 57.6757 41.5979C58.0661 42.2959 58.6683 42.8518 59.3954 43.1849C70.0332 48.2244 82.5255 54.8438 99.2995 60.1446C100.869 60.6413 102.589 60.2657 103.6 58.9769C105.181 56.9897 106.469 54.7874 107.428 52.4363C108.583 49.6781 109.395 46.7881 109.844 43.8316C134.12 57.6878 146.563 73.2615 142.853 82.3311Z" stroke="black" stroke-width="2" stroke-miterlimit="10" stroke-linecap="round"/>
<path d="M107.428 52.4362C106.468 54.7853 105.179 56.9863 103.601 58.9736C102.576 60.2656 100.863 60.6396 99.2995 60.1445C82.5263 54.8405 70.0379 48.2188 59.3978 43.1887C58.6705 42.8545 58.0681 42.298 57.6775 41.5995C57.2868 40.9009 57.1281 40.0964 57.2241 39.3018C57.5241 37.0079 58.1205 34.7626 58.9983 32.6223C64.5351 19.0905 77.38 11.5461 93.2343 18.0357C110.798 25.2194 112.966 38.8982 107.428 52.4362Z" stroke="black" stroke-width="2" stroke-miterlimit="10" stroke-linecap="round"/>
<path d="M104.403 39.6398C104.297 39.6133 104.202 39.5552 104.13 39.4732C104.057 39.3913 104.012 39.2893 103.999 39.1809C103.994 39.1231 103.307 33.5146 100.012 30.3979C99.9087 30.2999 99.8481 30.1647 99.8441 30.022C99.84 29.8794 99.8928 29.741 99.9908 29.6372C100.089 29.5335 100.224 29.473 100.367 29.4689C100.509 29.4649 100.648 29.5176 100.751 29.6156C104.333 33.0063 105.037 38.8116 105.066 39.0546C105.075 39.1253 105.069 39.1968 105.049 39.2652C105.029 39.3335 104.996 39.3972 104.951 39.4526C104.907 39.5079 104.851 39.5538 104.789 39.5876C104.726 39.6213 104.657 39.6422 104.587 39.649C104.525 39.6574 104.463 39.6543 104.403 39.6398Z" fill="black"/>
<path d="M76.8128 52.0386C76.6881 52.0074 76.5784 51.9331 76.5032 51.8288C75.1006 49.82 74.2123 45.9706 74.1769 45.8058C74.161 45.7369 74.1588 45.6656 74.1706 45.5959C74.1824 45.5263 74.2079 45.4596 74.2456 45.3998C74.2833 45.3401 74.3325 45.2884 74.3903 45.2477C74.4481 45.2071 74.5134 45.1783 74.5824 45.163C74.7214 45.1326 74.8667 45.1581 74.987 45.234C75.1073 45.3099 75.1928 45.4301 75.2252 45.5686C75.2323 45.6068 76.1002 49.3914 77.3814 51.2073C77.4442 51.2969 77.4782 51.4036 77.4788 51.513C77.4794 51.6224 77.4467 51.7294 77.3849 51.8197C77.3231 51.9101 77.2352 51.9794 77.133 52.0185C77.0308 52.0576 76.9191 52.0646 76.8128 52.0386Z" fill="black"/>
<path d="M71.6435 49.3717C71.5168 49.3396 71.4062 49.2625 71.3323 49.1548C70.3343 47.7214 69.8554 45.1756 69.8357 45.0678C69.831 44.9392 69.8725 44.8132 69.9528 44.7126C70.0331 44.612 70.1467 44.5435 70.2732 44.5195C70.3996 44.4955 70.5305 44.5177 70.642 44.5819C70.7535 44.6462 70.8383 44.7483 70.8809 44.8697C70.8755 44.8916 71.337 47.3069 72.2027 48.538C72.2433 48.596 72.2721 48.6615 72.2874 48.7306C72.3026 48.7997 72.3041 48.8712 72.2917 48.9409C72.2793 49.0106 72.2532 49.0772 72.2151 49.1368C72.1769 49.1964 72.1273 49.2479 72.0692 49.2883C72.0077 49.3306 71.9382 49.3599 71.865 49.3742C71.7918 49.3886 71.7164 49.3877 71.6435 49.3717Z" fill="black"/>
<path d="M81.6082 53.4469C81.4829 53.4168 81.3729 53.3422 81.2985 53.2371C79.8959 51.2284 79.0076 47.3789 78.9691 47.2133C78.9379 47.0735 78.9635 46.927 79.0403 46.806C79.117 46.685 79.2387 46.5995 79.3786 46.5682C79.5184 46.537 79.6649 46.5626 79.7859 46.6393C79.9069 46.7161 79.9924 46.8378 80.0237 46.9777C80.0307 47.016 80.8986 50.8005 82.1799 52.6164C82.2207 52.6739 82.2498 52.739 82.2654 52.8078C82.281 52.8766 82.2828 52.9478 82.2708 53.0174C82.2587 53.0869 82.2331 53.1533 82.1953 53.2129C82.1574 53.2724 82.1081 53.3239 82.0503 53.3643C81.9873 53.41 81.915 53.4411 81.8385 53.4553C81.7621 53.4696 81.6834 53.4667 81.6082 53.4469Z" fill="black"/>
<path d="M87.1114 55.7055C86.9866 55.6731 86.8772 55.5977 86.8025 55.4925C85.3953 53.5026 84.5116 49.6344 84.4763 49.4696C84.4454 49.3298 84.4714 49.1836 84.5484 49.063C84.6254 48.9423 84.7472 48.8573 84.8869 48.8264C85.0266 48.7956 85.1729 48.8215 85.2935 48.8985C85.4141 48.9755 85.4992 49.0973 85.53 49.237C85.5223 49.2683 86.405 53.0599 87.687 54.8727C87.7514 54.9628 87.7864 55.0705 87.7873 55.1812C87.7882 55.292 87.7548 55.4002 87.6919 55.4913C87.6289 55.5824 87.5394 55.6519 87.4355 55.6902C87.3316 55.7285 87.2184 55.7339 87.1114 55.7055Z" fill="black"/>
<path d="M92.7125 58.5459C92.5877 58.5148 92.478 58.4404 92.4028 58.3361C91.0034 56.3282 90.1119 52.478 90.0766 52.3132C90.0453 52.1734 90.0709 52.0268 90.1477 51.9058C90.2244 51.7849 90.3462 51.6994 90.486 51.6681C90.6258 51.6369 90.7724 51.6624 90.8933 51.7392C91.0143 51.816 91.0998 51.9377 91.1311 52.0775C91.1225 52.1119 92.0061 55.9004 93.2873 57.7163C93.3501 57.8059 93.3841 57.9125 93.3847 58.0219C93.3853 58.1314 93.3526 58.2384 93.2908 58.3287C93.229 58.419 93.1411 58.4884 93.0389 58.5275C92.9367 58.5666 92.825 58.5735 92.7187 58.5475L92.7125 58.5459Z" fill="black"/>
<path d="M98.1091 59.8186C97.9841 59.788 97.8743 59.7135 97.7995 59.6088C96.3922 57.6189 95.5086 53.7507 95.4732 53.5859C95.4573 53.517 95.4551 53.4457 95.4669 53.376C95.4787 53.3063 95.5042 53.2397 95.5419 53.1799C95.5796 53.1201 95.6289 53.0684 95.6867 53.0278C95.7445 52.9872 95.8097 52.9584 95.8788 52.9431C96.0177 52.9127 96.163 52.9382 96.2833 53.0141C96.4036 53.09 96.4891 53.2101 96.5215 53.3486C96.5286 53.3869 97.3965 57.1715 98.6778 58.9874C98.7406 59.077 98.7745 59.1836 98.7751 59.2931C98.7757 59.4025 98.743 59.5095 98.6812 59.5998C98.6194 59.6901 98.5315 59.7594 98.4293 59.7985C98.3271 59.8376 98.2154 59.8447 98.1091 59.8186Z" fill="black"/>
<path d="M103.47 59.4989C103.398 59.4811 103.33 59.4484 103.271 59.4028C103.212 59.3573 103.163 59.2999 103.128 59.2344C102.307 57.7024 101.5 54.66 101.466 54.5319C101.435 54.3956 101.458 54.2526 101.53 54.133C101.603 54.0134 101.719 53.9268 101.854 53.8914C101.989 53.856 102.133 53.8746 102.255 53.9433C102.376 54.012 102.467 54.1254 102.506 54.2595C102.499 54.2877 103.309 57.3175 104.073 58.7191C104.123 58.8109 104.145 58.9152 104.137 59.0193C104.128 59.1235 104.09 59.223 104.026 59.3057C103.962 59.3883 103.876 59.4507 103.777 59.485C103.678 59.5193 103.572 59.5241 103.47 59.4989Z" fill="black"/>
<path d="M65.1313 53.0502C65.0179 53.0203 64.9177 52.9533 64.8467 52.8599C64.7602 52.747 64.7219 52.6045 64.7402 52.4635C64.7584 52.3225 64.8318 52.1944 64.9442 52.1074C65.0754 52.0072 65.7569 51.5094 66.4134 51.6727C66.5774 51.7162 66.7285 51.7986 66.8538 51.913C66.9791 52.0274 67.0749 52.1704 67.1331 52.3298C67.1883 52.4615 67.189 52.6098 67.135 52.742C67.0809 52.8742 66.9765 52.9796 66.8448 53.0349C66.7131 53.0901 66.5648 53.0908 66.4325 53.0368C66.3003 52.9827 66.195 52.8784 66.1397 52.7466C66.1331 52.7303 66.1247 52.7149 66.1146 52.7006C65.923 52.748 65.7439 52.8358 65.5891 52.9582C65.5244 53.0065 65.4497 53.0399 65.3706 53.0558C65.2914 53.0717 65.2097 53.0698 65.1313 53.0502Z" fill="black"/>
<path d="M38.7519 29.2828L38.6769 29.2641C38.5443 29.2084 38.4383 29.1035 38.3812 28.9715C38.3155 29.0031 38.2441 29.021 38.1713 29.0241C38.0985 29.0272 38.0258 29.0156 37.9577 28.9898C37.8895 28.964 37.8273 28.9246 37.7749 28.874C37.7224 28.8235 37.6807 28.7628 37.6524 28.6957C37.6241 28.6285 37.6097 28.5563 37.6101 28.4835C37.6106 28.4106 37.6258 28.3386 37.6549 28.2717C37.684 28.2049 37.7263 28.1448 37.7794 28.0948C37.8324 28.0449 37.8951 28.0063 37.9636 27.9813C38.29 27.8434 38.8946 27.6684 39.2779 28.0359C39.3906 28.1614 39.4609 28.3192 39.4788 28.487C39.4966 28.6547 39.4612 28.8239 39.3774 28.9703C39.3275 29.0884 39.237 29.1847 39.1223 29.242C39.0077 29.2993 38.8763 29.3138 38.7519 29.2828Z" fill="black"/>
<path d="M21.0413 32.5263C21.0156 32.5231 20.9904 32.5169 20.9662 32.5077C20.9 32.4818 20.8398 32.4426 20.7894 32.3923C20.7391 32.3421 20.6997 32.282 20.6737 32.2158C20.6085 32.2432 20.5385 32.2574 20.4677 32.2577C20.397 32.2581 20.3269 32.2444 20.2614 32.2177C20.1959 32.1909 20.1364 32.1515 20.0861 32.1017C20.0359 32.052 19.9959 31.9928 19.9686 31.9276C19.9412 31.8623 19.9269 31.7923 19.9266 31.7216C19.9263 31.6508 19.9399 31.5807 19.9666 31.5153C19.9934 31.4498 20.0328 31.3902 20.0826 31.34C20.1324 31.2897 20.1916 31.2498 20.2568 31.2224C20.5833 31.0845 21.1878 30.9096 21.5703 31.2802C21.6838 31.4047 21.7547 31.562 21.7728 31.7294C21.7908 31.8969 21.7551 32.0657 21.6707 32.2115C21.6211 32.3308 21.5302 32.4283 21.4146 32.4861C21.299 32.5439 21.1665 32.5582 21.0413 32.5263Z" fill="black"/>
<path d="M45.6061 42.3943C45.4935 42.3689 45.3923 42.3076 45.3176 42.2196C45.086 41.9495 44.7416 41.4124 44.966 40.9636C45.049 40.8152 45.1773 40.6972 45.3321 40.627C45.487 40.5568 45.6603 40.538 45.8266 40.5735C45.8968 40.579 45.9651 40.5984 46.0277 40.6304C46.0903 40.6625 46.146 40.7065 46.1916 40.7601C46.2372 40.8137 46.2717 40.8757 46.2933 40.9427C46.3148 41.0096 46.323 41.0802 46.3172 41.1503C46.304 41.2941 46.2352 41.4271 46.1255 41.5209C46.217 41.63 46.2615 41.7711 46.2493 41.913C46.237 42.055 46.1689 42.1863 46.0599 42.2781C45.9982 42.3309 45.9252 42.3687 45.8465 42.3889C45.7678 42.409 45.6856 42.4109 45.6061 42.3943Z" fill="black"/>
<path d="M79.8787 22.5882C79.7659 22.5621 79.6648 22.4996 79.5909 22.4104C79.3625 22.1411 79.0141 21.6195 79.2394 21.1544C79.3224 21.0067 79.4502 20.8893 79.6043 20.819C79.7584 20.7488 79.9309 20.7293 80.0968 20.7635C80.1673 20.7692 80.2361 20.7887 80.299 20.821C80.362 20.8533 80.418 20.8977 80.4638 20.9516C80.5095 21.0055 80.5443 21.068 80.5659 21.1354C80.5875 21.2027 80.5956 21.2737 80.5898 21.3442C80.5766 21.487 80.5081 21.6189 80.3988 21.7117C80.4692 21.7992 80.5105 21.9066 80.5168 22.0188C80.5231 22.131 80.4941 22.2424 80.4339 22.3373C80.3736 22.4321 80.2852 22.5057 80.181 22.5478C80.0768 22.5899 79.9621 22.5983 79.8529 22.5718L79.8787 22.5882Z" fill="black"/>
<path d="M71.7557 25.0428C71.6428 25.0166 71.5418 24.9541 71.4679 24.8649C71.2394 24.5957 70.895 24.0585 71.1164 23.609C71.2004 23.4616 71.3289 23.3445 71.4834 23.2745C71.638 23.2044 71.8107 23.1849 71.9769 23.2188C72.0824 23.229 72.1826 23.2699 72.265 23.3365C72.3474 23.403 72.4085 23.4924 72.4407 23.5933C72.4728 23.6943 72.4746 23.8025 72.4459 23.9045C72.4171 24.0064 72.359 24.0977 72.2789 24.167C72.3493 24.2546 72.3906 24.362 72.3969 24.4742C72.4032 24.5864 72.3742 24.6977 72.314 24.7926C72.2538 24.8875 72.1653 24.9611 72.0611 25.0032C71.9569 25.0452 71.8422 25.0536 71.733 25.0272L71.7557 25.0428Z" fill="black"/>
<path d="M77.3726 29.381C77.26 29.3557 77.1587 29.2944 77.084 29.2064C76.8532 28.9332 76.508 28.3992 76.7333 27.9473C76.8169 27.7995 76.9454 27.6821 77.1 27.612C77.2547 27.5419 77.4276 27.5227 77.5939 27.5571C77.6997 27.5665 77.8004 27.6071 77.8832 27.6737C77.966 27.7402 78.0273 27.8298 78.0592 27.9312C78.0912 28.0325 78.0924 28.141 78.0628 28.2431C78.0331 28.3451 77.974 28.4361 77.8927 28.5045C77.9631 28.5921 78.0044 28.6995 78.0107 28.8117C78.017 28.9239 77.988 29.0352 77.9278 29.1301C77.8676 29.225 77.7791 29.2986 77.6749 29.3407C77.5707 29.3828 77.456 29.3911 77.3468 29.3647L77.3726 29.381Z" fill="black"/>
<path d="M40.9309 53.1823C40.8187 53.1559 40.7178 53.0948 40.6424 53.0077C40.4147 52.7352 40.0694 52.2012 40.2908 51.7517C40.3738 51.6037 40.5016 51.4858 40.6558 51.415C40.81 51.3442 40.9827 51.3241 41.1491 51.3576C41.2614 51.3577 41.371 51.3929 41.4623 51.4583C41.5536 51.5238 41.6222 51.6162 41.6583 51.7225C41.6945 51.8289 41.6964 51.944 41.6639 52.0515C41.6313 52.1591 41.5659 52.2537 41.4768 52.3222C41.5472 52.4098 41.5885 52.5172 41.5948 52.6294C41.6011 52.7415 41.5721 52.8529 41.5119 52.9478C41.4517 53.0427 41.3633 53.1163 41.2591 53.1584C41.1549 53.2004 41.0401 53.2088 40.9309 53.1823Z" fill="black"/>
<path d="M100.802 85.1474C100.682 85.1178 100.575 85.0479 100.5 84.9493C99.1956 83.1629 98.1172 81.2222 97.2893 79.1712C97.2495 79.041 97.2605 78.9005 97.3202 78.7781C97.3799 78.6557 97.4838 78.5605 97.6109 78.5117C97.738 78.4629 97.8789 78.464 98.0052 78.515C98.1315 78.566 98.2337 78.663 98.2913 78.7864C99.0951 80.7435 100.131 82.5971 101.376 84.3075C101.448 84.3964 101.489 84.5057 101.495 84.6196C101.5 84.7336 101.469 84.8463 101.407 84.9415C101.344 85.0367 101.252 85.1095 101.145 85.1493C101.038 85.1891 100.922 85.1939 100.812 85.163L100.802 85.1474Z" fill="black"/>
<path d="M94.6771 82.9732C94.5493 82.9428 94.4371 82.8665 94.362 82.7587C93.7281 81.8833 93.263 80.8973 92.9904 79.8514C92.9769 79.7187 93.0132 79.5857 93.0923 79.4782C93.1713 79.3707 93.2875 79.2965 93.4182 79.2699C93.5489 79.2432 93.6849 79.2661 93.7997 79.3341C93.9145 79.402 94 79.5102 94.0395 79.6376C94.284 80.5395 94.6915 81.3891 95.2419 82.1443C95.3036 82.2341 95.3365 82.3405 95.3364 82.4495C95.3363 82.5585 95.3031 82.6649 95.2412 82.7546C95.1793 82.8443 95.0917 82.913 94.9898 82.9518C94.888 82.9906 94.7767 82.9975 94.6709 82.9716L94.6771 82.9732Z" fill="black"/>
<path d="M106.017 86.2187C105.896 86.1878 105.79 86.1168 105.715 86.0174C104.412 84.2302 103.334 82.2896 102.504 80.2393C102.476 80.1729 102.461 80.1013 102.46 80.0289C102.46 79.9565 102.474 79.8848 102.502 79.8181C102.53 79.7513 102.571 79.6909 102.623 79.6404C102.675 79.59 102.737 79.5505 102.804 79.5244C102.872 79.4983 102.944 79.4861 103.016 79.4884C103.089 79.4908 103.16 79.5078 103.225 79.5383C103.291 79.5689 103.35 79.6123 103.398 79.6661C103.447 79.7199 103.484 79.7829 103.507 79.8513C104.31 81.8097 105.346 83.6645 106.592 85.3757C106.663 85.4645 106.705 85.5738 106.71 85.6877C106.716 85.8017 106.685 85.9144 106.622 86.0096C106.559 86.1048 106.467 86.1776 106.36 86.2174C106.254 86.2572 106.137 86.2621 106.027 86.2312L106.017 86.2187Z" fill="black"/>
<path d="M112.319 87.68C112.198 87.6512 112.091 87.5798 112.017 87.4788C109.993 84.7676 107.762 80.4017 107.668 80.219C107.634 80.1559 107.612 80.0865 107.605 80.0149C107.598 79.9433 107.605 79.871 107.626 79.8023C107.648 79.7335 107.682 79.6697 107.729 79.6147C107.775 79.5596 107.832 79.5144 107.896 79.4817C107.96 79.449 108.03 79.4295 108.102 79.4244C108.174 79.4192 108.246 79.4285 108.314 79.4517C108.382 79.4748 108.445 79.5114 108.498 79.5593C108.552 79.6071 108.596 79.6653 108.627 79.7303C108.648 79.7756 110.908 84.1984 112.878 86.8362C112.948 86.9238 112.989 87.0312 112.996 87.1434C113.002 87.2556 112.973 87.367 112.913 87.4618C112.853 87.5567 112.764 87.6303 112.66 87.6724C112.556 87.7145 112.441 87.7228 112.332 87.6964L112.319 87.68Z" fill="black"/>
<path d="M117.127 88.2517C117.006 88.2223 116.899 88.151 116.825 88.0504C114.796 85.3314 112.858 81.2309 112.775 81.0677C112.715 80.9386 112.708 80.7906 112.756 80.6563C112.804 80.522 112.904 80.4124 113.033 80.3517C113.162 80.2909 113.31 80.2839 113.445 80.3322C113.579 80.3806 113.688 80.4803 113.749 80.6095C113.769 80.6508 115.718 84.7873 117.683 87.4173C117.753 87.5048 117.795 87.6122 117.801 87.7244C117.807 87.8366 117.778 87.948 117.718 88.0429C117.658 88.1377 117.569 88.2114 117.465 88.2534C117.361 88.2955 117.246 88.3039 117.137 88.2774L117.127 88.2517Z" fill="black"/>
<path d="M123.227 88.8991C123.105 88.8703 122.998 88.7989 122.925 88.6979C120.896 85.9789 118.746 81.4739 118.651 81.2841C118.619 81.2201 118.6 81.1503 118.595 81.0789C118.59 81.0075 118.6 80.9358 118.623 80.8681C118.646 80.8004 118.683 80.738 118.73 80.6846C118.778 80.6312 118.836 80.5879 118.901 80.5571C118.965 80.5264 119.035 80.5088 119.107 80.5055C119.178 80.5022 119.25 80.5132 119.317 80.5379C119.384 80.5625 119.446 80.6004 119.498 80.6491C119.551 80.6979 119.593 80.7567 119.622 80.822C119.644 80.8673 121.821 85.4222 123.798 88.0584C123.868 88.146 123.91 88.2534 123.916 88.3656C123.922 88.4778 123.893 88.5891 123.833 88.684C123.773 88.7789 123.684 88.8525 123.58 88.8946C123.476 88.9367 123.361 88.9451 123.252 88.9186L123.227 88.8991Z" fill="black"/>
<path d="M129.157 89.1459C129.044 89.1143 128.944 89.045 128.874 88.9494C126.84 86.2257 125.155 82.5499 125.093 82.3984C125.063 82.334 125.047 82.2645 125.045 82.1937C125.042 82.123 125.054 82.0525 125.078 81.9862C125.103 81.92 125.141 81.8592 125.189 81.8075C125.237 81.7557 125.295 81.714 125.36 81.6847C125.424 81.6554 125.494 81.6391 125.564 81.6366C125.635 81.6342 125.706 81.6457 125.772 81.6705C125.838 81.6953 125.899 81.7329 125.951 81.7812C126.002 81.8295 126.044 81.8875 126.074 81.9519C126.088 81.9886 127.769 85.6933 129.735 88.3069C129.806 88.3957 129.848 88.505 129.853 88.6189C129.859 88.7329 129.828 88.8456 129.765 88.9408C129.702 89.036 129.61 89.1088 129.504 89.1486C129.397 89.1884 129.28 89.1932 129.17 89.1623L129.157 89.1459Z" fill="black"/>
<path d="M133.967 89.0972C133.832 89.0641 133.715 88.9803 133.64 88.8632C132.696 87.3842 131.881 85.8275 131.202 84.2101C131.17 84.1435 131.153 84.0713 131.15 83.9977C131.148 83.9241 131.16 83.8508 131.187 83.7823C131.214 83.7138 131.255 83.6516 131.307 83.5995C131.359 83.5473 131.421 83.5064 131.49 83.4793C131.558 83.4522 131.631 83.4393 131.705 83.4417C131.778 83.444 131.851 83.4614 131.917 83.4928C131.984 83.5242 132.043 83.5689 132.092 83.6242C132.141 83.6795 132.177 83.7442 132.2 83.8143C132.86 85.3673 133.646 86.864 134.549 88.2894C134.586 88.3498 134.61 88.4168 134.621 88.4867C134.632 88.5566 134.629 88.628 134.611 88.6966C134.594 88.7652 134.564 88.8297 134.522 88.8865C134.48 88.9432 134.427 88.9911 134.366 89.0272C134.307 89.0646 134.242 89.09 134.173 89.102C134.105 89.114 134.034 89.1124 133.967 89.0972Z" fill="black"/>
<path d="M138.035 87.45C137.901 87.4175 137.785 87.3352 137.71 87.2199C137.071 86.2236 136.557 85.1525 136.18 84.0307C136.156 83.9623 136.146 83.8898 136.15 83.8175C136.155 83.7452 136.174 83.6746 136.207 83.61C136.24 83.5453 136.285 83.4879 136.341 83.4412C136.396 83.3945 136.46 83.3595 136.53 83.3382C136.599 83.317 136.672 83.3099 136.744 83.3175C136.816 83.3251 136.885 83.3472 136.949 83.3824C137.012 83.4176 137.068 83.4652 137.112 83.5225C137.157 83.5797 137.189 83.6453 137.207 83.7153C137.561 84.7461 138.038 85.73 138.63 86.6452C138.706 86.7659 138.731 86.9118 138.699 87.0508C138.668 87.1899 138.583 87.3108 138.462 87.3869C138.399 87.4269 138.329 87.4533 138.255 87.4641C138.181 87.475 138.106 87.4701 138.035 87.45Z" fill="black"/>
<path d="M141.656 85.2766C141.522 85.2439 141.406 85.1603 141.332 85.0434C140.691 84.0483 140.177 82.9769 139.802 81.8542C139.76 81.7176 139.775 81.5702 139.842 81.4444C139.91 81.3186 140.024 81.2247 140.161 81.1834C140.298 81.1421 140.445 81.1568 140.571 81.2242C140.697 81.2916 140.791 81.4062 140.832 81.5428C141.184 82.5724 141.661 83.555 142.252 84.4688C142.329 84.5891 142.354 84.7349 142.323 84.8741C142.292 85.0134 142.207 85.1346 142.087 85.2113C142.024 85.252 141.953 85.279 141.879 85.2902C141.804 85.3015 141.728 85.2968 141.656 85.2766Z" fill="black"/>
</svg>
