<svg width="141" height="138" viewBox="0 0 141 138" fill="none" xmlns="http://www.w3.org/2000/svg">
<rect width="140.556" height="138" rx="10" fill="black"/>
<path d="M107.972 15.7592H33.4351C29.199 15.7592 25.1364 17.442 22.141 20.4374C19.1457 23.4327 17.4629 27.4953 17.4629 31.7314V106.268C17.4629 110.505 19.1457 114.567 22.141 117.563C25.1364 120.558 29.199 122.241 33.4351 122.241H107.972C108.848 122.228 109.721 122.139 110.581 121.974L112.178 121.602H112.551H112.817L114.787 120.856L115.479 120.484C116.011 120.164 116.597 119.898 117.13 119.525C117.84 119.002 118.516 118.433 119.153 117.822L119.525 117.343C120.048 116.813 120.529 116.243 120.963 115.639L121.442 114.947C121.814 114.354 122.135 113.731 122.4 113.083C122.546 112.828 122.671 112.561 122.773 112.285C123.039 111.646 123.199 110.954 123.412 110.262V109.463C123.714 108.423 123.892 107.35 123.944 106.268V31.7314C123.944 27.4953 122.262 23.4327 119.266 20.4374C116.271 17.442 112.208 15.7592 107.972 15.7592ZM33.4351 111.593C32.0231 111.593 30.6689 111.032 29.6704 110.033C28.672 109.035 28.111 107.68 28.111 106.268V83.3217L45.6272 65.7523C46.1222 65.2532 46.711 64.8572 47.3598 64.5869C48.0086 64.3166 48.7045 64.1774 49.4073 64.1774C50.1102 64.1774 50.8061 64.3166 51.4548 64.5869C52.1036 64.8572 52.6925 65.2532 53.1874 65.7523L98.9745 111.593H33.4351ZM113.296 106.268C113.291 106.925 113.165 107.575 112.924 108.185C112.802 108.445 112.659 108.694 112.498 108.931C112.355 109.156 112.195 109.37 112.018 109.569L83.5346 81.0856L88.2198 76.4004C88.7148 75.9014 89.3036 75.5053 89.9524 75.235C90.6012 74.9647 91.2971 74.8256 91.9999 74.8256C92.7028 74.8256 93.3987 74.9647 94.0474 75.235C94.6962 75.5053 95.2851 75.9014 95.78 76.4004L113.296 93.9699V106.268ZM113.296 78.9027L103.287 68.9999C100.24 66.1089 96.2001 64.4973 91.9999 64.4973C87.7998 64.4973 83.7597 66.1089 80.7129 68.9999L76.0277 73.6851L60.6944 58.3518C57.6475 55.4608 53.6075 53.8491 49.4073 53.8491C45.2072 53.8491 41.1672 55.4608 38.1203 58.3518L28.111 68.2546V31.7314C28.111 30.3194 28.672 28.9652 29.6704 27.9667C30.6689 26.9683 32.0231 26.4074 33.4351 26.4074H107.972C109.384 26.4074 110.738 26.9683 111.737 27.9667C112.735 28.9652 113.296 30.3194 113.296 31.7314V78.9027ZM78.6897 37.0555C77.1102 37.0555 75.5662 37.5239 74.2529 38.4014C72.9396 39.2789 71.916 40.5262 71.3115 41.9855C70.7071 43.4447 70.5489 45.0505 70.8571 46.5996C71.1652 48.1488 71.9258 49.5718 73.0427 50.6886C74.1596 51.8055 75.5826 52.5661 77.1317 52.8743C78.6809 53.1824 80.2866 53.0243 81.7459 52.4198C83.2052 51.8154 84.4524 50.7918 85.3299 49.4785C86.2075 48.1651 86.6758 46.6211 86.6758 45.0416C86.6758 42.9236 85.8345 40.8923 84.3368 39.3946C82.8391 37.8969 80.8078 37.0555 78.6897 37.0555Z" fill="#767676" fill-opacity="0.5"/>
<circle cx="70.278" cy="68.574" r="19.1667" fill="white"/>
<path d="M62.9062 72.0142V73.98C62.9062 75.0657 63.7864 75.9458 64.8721 75.9458H76.6669C77.7526 75.9458 78.6327 75.0657 78.6327 73.98V72.0142" stroke="black" stroke-width="2" stroke-linecap="round" stroke-linejoin="round"/>
<path d="M65.855 64.151L70.7695 59.2364L75.684 64.151" stroke="black" stroke-width="2" stroke-linecap="round" stroke-linejoin="round"/>
<path d="M70.7693 59.2364V71.0313" stroke="black" stroke-width="2" stroke-linecap="round" stroke-linejoin="round"/>
</svg>
