<svg width="35" height="35" viewBox="0 0 35 35" fill="none" xmlns="http://www.w3.org/2000/svg">
<g clip-path="url(#clip0_94_20586)">
<path d="M17.4995 0.48291C8.11668 0.48291 0.48291 8.11668 0.48291 17.4998C0.48291 26.8833 8.11668 34.5174 17.4995 34.5174C26.883 34.5174 34.5168 26.8833 34.5168 17.4998C34.5165 8.11668 26.8827 0.48291 17.4995 0.48291ZM26.5564 13.0616C26.1052 13.7373 25.5441 14.3327 24.8963 14.8232C24.8991 14.9219 24.9009 15.0207 24.9009 15.1194C24.9009 20.082 21.1247 25.215 14.8053 25.215C12.8768 25.216 10.9886 24.663 9.36538 23.6218C9.30751 23.5849 9.2639 23.5294 9.24171 23.4644C9.21952 23.3994 9.22006 23.3288 9.24324 23.2642C9.2658 23.1992 9.30994 23.1439 9.36833 23.1075C9.42671 23.0712 9.4958 23.0559 9.56407 23.0643C9.83052 23.095 10.0945 23.1102 10.3491 23.1102C11.5887 23.1102 12.77 22.7769 13.8069 22.1401C13.1824 21.9893 12.6072 21.6804 12.1367 21.2429C11.6662 20.8055 11.3163 20.2543 11.1205 19.6424C11.1045 19.5921 11.1018 19.5386 11.1127 19.487C11.1235 19.4354 11.1476 19.3875 11.1825 19.348C11.2174 19.3084 11.2621 19.2787 11.3122 19.2618C11.3622 19.2449 11.4157 19.2414 11.4675 19.2517C11.5246 19.2626 11.582 19.272 11.6392 19.2799C10.584 18.6076 9.89949 17.4254 9.89949 16.1165V16.0731C9.89952 16.0202 9.91334 15.9683 9.9396 15.9224C9.96586 15.8765 10.0036 15.8382 10.0492 15.8114C10.0948 15.7846 10.1466 15.7701 10.1994 15.7695C10.2523 15.7688 10.3044 15.7819 10.3507 15.8076C10.4828 15.8808 10.6198 15.9443 10.7605 15.9978C10.2206 15.3305 9.92647 14.4979 9.92744 13.6395C9.92744 12.9778 10.1027 12.3264 10.4342 11.7561C10.4589 11.7136 10.4935 11.6777 10.5351 11.6515C10.5767 11.6253 10.624 11.6096 10.673 11.6057C10.722 11.6019 10.7712 11.6099 10.8164 11.6292C10.8616 11.6485 10.9014 11.6785 10.9325 11.7166C12.5485 13.6981 14.8976 14.9447 17.4245 15.1744C17.4066 15.0239 17.3977 14.8724 17.3978 14.7208C17.3978 12.6557 19.0782 10.9756 21.1435 10.9756C22.1179 10.9756 23.0606 11.36 23.7561 12.035C24.4357 11.8837 25.0871 11.6254 25.6856 11.2697C25.7006 11.2228 25.7267 11.1803 25.7617 11.1457C25.7967 11.1112 25.8396 11.0856 25.8866 11.0713C25.9337 11.057 25.9835 11.0543 26.0319 11.0635C26.0802 11.0726 26.1256 11.0934 26.1641 11.124C26.2026 11.1546 26.2332 11.1941 26.253 11.2391C26.2729 11.2841 26.2816 11.3333 26.2783 11.3824C26.275 11.4315 26.2598 11.479 26.234 11.5209C26.2083 11.5629 26.1727 11.5979 26.1304 11.6231C25.9816 12.0895 25.7421 12.5219 25.4256 12.8955C25.683 12.8177 25.9354 12.7239 26.1812 12.6147C26.2414 12.5881 26.3086 12.5818 26.3727 12.5967C26.4368 12.6116 26.4943 12.6469 26.5366 12.6973C26.5789 12.7477 26.6037 12.8105 26.6073 12.8762C26.6108 12.9419 26.593 13.007 26.5564 13.0616Z" fill="#231F20"/>
</g>
<defs>
<clipPath id="clip0_94_20586">
<rect width="35" height="35" fill="white"/>
</clipPath>
</defs>
</svg>
