<svg width="84" height="84" viewBox="0 0 84 84" fill="none" xmlns="http://www.w3.org/2000/svg">
<path fill-rule="evenodd" clip-rule="evenodd" d="M38.0932 0.258744C36.4091 0.810721 34.9855 2.04852 34.0329 3.78888C33.6891 4.41748 30.9374 9.98626 27.9182 16.164L22.4287 27.3965L20.9864 28.3151C20.1931 28.8205 17.486 30.8624 14.9704 32.8526C9.8321 36.9181 7.89724 38.9187 6.62032 41.4864C5.73268 43.2715 0.344307 58.3478 0.0961398 59.7404C-0.383086 62.4313 0.977685 66.0348 3.10007 67.6948L3.86744 68.295L3.87117 75.6563L3.87489 83.0179L4.29077 83.5088C4.52962 83.7911 4.90365 84 5.17011 84C5.46418 84 7.74614 82.5601 11.4033 80.0673C18.9565 74.9189 18.29 75.4671 19.1383 73.7063C19.8472 72.2344 20.1371 71.8841 20.1371 72.4985C20.1371 73.1209 20.9163 74.7266 21.6244 75.5633C22.7233 76.8619 23.9878 77.4715 25.5827 77.4715C26.6955 77.4715 27.0348 77.3819 27.9616 76.8431C28.556 76.4976 29.2198 75.9916 29.4368 75.7189L29.8312 75.2232L30.2777 75.7195C30.9995 76.5216 31.6946 76.9621 32.7669 77.2974C34.5072 77.8414 36.4523 77.2436 37.8728 75.728L38.5433 75.0125L39.8853 75.7906C41.6421 76.8095 43.4354 77.5083 45.3036 77.9018C46.6295 78.1813 49.0751 78.2191 65.0275 78.2077L83.2377 78.1945L83.6189 77.685L84 77.1754V58.0899C84 44.3313 83.9466 38.8659 83.8086 38.5084C83.7034 38.2355 83.4174 37.9182 83.1733 37.803C82.8864 37.6677 78.9296 37.5701 71.9728 37.5269C60.1642 37.4535 60.5344 37.4897 58.3439 36.1935C57.7806 35.8604 55.9096 34.3639 54.186 32.8682C49.7178 28.991 47.1757 27.3074 43.8018 25.9914C42.6892 25.5573 42.658 25.5272 42.887 25.1115C43.0175 24.8746 44.3914 22.0701 45.9404 18.8791C49.315 11.9273 49.5919 10.9814 49.0844 8.13547C48.8115 6.60478 48.1161 5.03708 47.2368 3.97013C46.3077 2.84277 43.4913 0.847533 42.1152 0.34177C40.9681 -0.079965 39.2355 -0.115776 38.0932 0.258744ZM43.1504 4.44809C45.0883 5.7441 45.9394 6.76803 46.3129 8.25331C46.6048 9.41448 46.6263 10.1995 46.3935 11.1892C46.2673 11.726 30.9812 43.3027 29.0926 46.9283L28.7589 47.5689L26.2691 46.0962C23.5167 44.4687 21.5356 43.47 19.6611 42.7656C18.7387 42.4189 18.4407 42.2218 18.4934 41.9933C18.6557 41.2883 36.3086 5.4176 36.797 4.8002C37.0907 4.42908 37.7121 3.90651 38.1779 3.63903C38.894 3.2279 39.2124 3.16508 40.238 3.2323C41.3424 3.30472 41.6031 3.41355 43.1504 4.44809ZM45.2189 30.0703C47.4237 31.2149 49.1395 32.4763 52.8308 35.6671C54.5544 37.157 56.4983 38.6937 57.1505 39.0822C58.6706 39.9879 60.5122 40.5313 62.6515 40.7051L64.3499 40.8434V57.9202V74.9971L57.2775 75.0351C48.2815 75.0833 47.1494 75.0425 45.2926 74.6046C41.8699 73.7973 39.7845 72.4539 34.5181 67.663C27.0554 60.8746 22.8735 58.1333 16.1562 55.6269C13.67 54.6992 12.9094 54.1096 12.2774 52.6197C11.4937 50.7727 11.533 49.2709 12.4102 47.5373C13.0437 46.2851 14.3242 45.2888 15.5572 45.0885C17.2163 44.819 20.8126 46.3991 27.1671 50.1892C29.4963 51.5784 32.0881 53.0531 32.9266 53.4662C36.1679 55.0635 40.8221 56.3911 43.1797 56.3911C44.0445 56.3911 44.2105 56.3257 44.518 55.864C44.9737 55.18 44.9626 54.5414 44.4843 53.8843C44.1519 53.428 43.9037 53.331 42.6632 53.1729C40.6921 52.9214 38.1769 52.264 36.2415 51.4942C34.2997 50.7219 31.3173 49.195 31.3173 48.9732C31.3173 48.8383 37.5735 35.9356 40.3952 30.251L41.3047 28.4186L42.4517 28.8239C43.0825 29.0468 44.3277 29.6078 45.2189 30.0703ZM17.5831 37.3036C16.4562 39.6042 15.463 41.5876 15.3761 41.7114C15.2892 41.8353 14.93 41.9909 14.5776 42.0576C13.4941 42.2622 11.9397 43.3194 11.0033 44.4889C9.15942 46.7915 8.54316 49.9877 9.39404 52.8356L9.61917 53.5896L7.06567 58.8417C5.66136 61.7303 4.41612 64.2145 4.2989 64.3623C3.85761 64.9179 2.68911 62.3771 2.68911 60.8618C2.68911 60.0875 8.06562 44.8671 8.98427 43.0407C9.98388 41.0534 11.6472 39.3409 15.7327 36.0926C17.829 34.4259 19.564 33.0753 19.5881 33.0915C19.6123 33.1075 18.7101 35.0031 17.5831 37.3036ZM81.2896 57.8916V74.9971H74.1749H67.0602V57.8916V40.7861H74.1749H81.2896V57.8916ZM12.2128 57.1838C12.6304 57.5251 14.1226 58.2361 15.7327 58.8609C18.1483 59.7984 21.5222 61.3615 21.7755 61.6606C21.8205 61.7139 20.7361 64.0516 19.3656 66.8557L16.874 71.9543L14.9059 70.6049C13.8233 69.8629 11.6418 68.3756 10.0579 67.2996C8.47404 66.2239 7.15325 65.3182 7.12292 65.287C7.03501 65.1966 11.2301 56.6056 11.3658 56.598C11.4329 56.5942 11.8141 56.8579 12.2128 57.1838ZM25.4682 63.9902C26.0745 64.4283 26.9906 65.1163 27.504 65.5189L28.4376 66.2509V68.93C28.4376 71.9311 28.2885 72.6039 27.4366 73.4506C26.6941 74.1885 25.7375 74.4695 24.8878 74.1993C24.0471 73.932 23.2099 73.1121 22.9091 72.262C22.7551 71.8267 22.678 70.7616 22.678 69.0688V66.5288L23.4706 64.8611C23.9065 63.9438 24.2863 63.1933 24.3146 63.1933C24.3429 63.1933 24.8621 63.5518 25.4682 63.9902ZM14.3427 74.3009C14.181 74.4749 9.39743 77.758 6.71231 79.538C6.64234 79.5844 6.58526 77.1498 6.58526 74.128V68.6339L10.5736 71.3493C13.7213 73.4926 14.5156 74.1146 14.3427 74.3009ZM33.6372 70.918C34.9235 72.0856 36.0071 73.0753 36.0454 73.1175C36.2232 73.3136 35.4616 73.9748 34.8096 74.1903C33.4577 74.6374 32.0615 73.8523 31.4691 72.312C31.1889 71.5834 30.9941 68.7951 31.2233 68.7951C31.2648 68.7951 32.3512 69.7504 33.6372 70.918Z" fill="#666873"/>
</svg>
