<svg width="107" height="108" viewBox="0 0 107 108" fill="none" xmlns="http://www.w3.org/2000/svg">
<path d="M90.9721 0.759209H16.4351C12.199 0.759209 8.13642 2.44199 5.14105 5.43736C2.14567 8.43274 0.462891 12.4953 0.462891 16.7314V91.2685C0.462891 95.5046 2.14567 99.5672 5.14105 102.563C8.13642 105.558 12.199 107.241 16.4351 107.241H90.9721C91.8479 107.228 92.7208 107.139 93.5809 106.974L95.1782 106.602H95.5508H95.8171L97.787 105.856L98.4791 105.484C99.0115 105.164 99.5971 104.898 100.13 104.525C100.84 104.002 101.516 103.433 102.153 102.822L102.525 102.343C103.048 101.813 103.529 101.243 103.963 100.639L104.442 99.9467C104.814 99.354 105.135 98.7306 105.4 98.0833C105.546 97.8278 105.671 97.5607 105.773 97.2847C106.039 96.6458 106.199 95.9537 106.412 95.2615V94.4629C106.714 93.4226 106.892 92.3504 106.944 91.2685V16.7314C106.944 12.4953 105.262 8.43274 102.266 5.43736C99.2708 2.44199 95.2082 0.759209 90.9721 0.759209ZM16.4351 96.5925C15.0231 96.5925 13.6689 96.0316 12.6704 95.0332C11.672 94.0347 11.111 92.6805 11.111 91.2685V68.3217L28.6272 50.7523C29.1222 50.2532 29.711 49.8572 30.3598 49.5869C31.0086 49.3166 31.7045 49.1774 32.4073 49.1774C33.1102 49.1774 33.8061 49.3166 34.4548 49.5869C35.1036 49.8572 35.6925 50.2532 36.1874 50.7523L81.9745 96.5925H16.4351ZM96.2962 91.2685C96.2912 91.9249 96.1649 92.5747 95.9235 93.1851C95.8019 93.4446 95.6594 93.6939 95.4976 93.9305C95.3552 94.1559 95.1949 94.3695 95.0184 94.5694L66.5346 66.0856L71.2198 61.4004C71.7148 60.9014 72.3036 60.5053 72.9524 60.235C73.6012 59.9647 74.2971 59.8256 74.9999 59.8256C75.7028 59.8256 76.3987 59.9647 77.0474 60.235C77.6962 60.5053 78.2851 60.9014 78.78 61.4004L96.2962 78.9699V91.2685ZM96.2962 63.9027L86.287 53.9999C83.2401 51.1089 79.2001 49.4973 74.9999 49.4973C70.7998 49.4973 66.7597 51.1089 63.7129 53.9999L59.0277 58.6851L43.6944 43.3518C40.6475 40.4608 36.6075 38.8491 32.4073 38.8491C28.2072 38.8491 24.1672 40.4608 21.1203 43.3518L11.111 53.2546V16.7314C11.111 15.3194 11.672 13.9652 12.6704 12.9667C13.6689 11.9683 15.0231 11.4074 16.4351 11.4074H90.9721C92.3842 11.4074 93.7384 11.9683 94.7368 12.9667C95.7353 13.9652 96.2962 15.3194 96.2962 16.7314V63.9027ZM61.6897 22.0555C60.1102 22.0555 58.5662 22.5239 57.2529 23.4014C55.9396 24.2789 54.916 25.5262 54.3115 26.9855C53.7071 28.4447 53.5489 30.0505 53.8571 31.5996C54.1652 33.1488 54.9258 34.5718 56.0427 35.6886C57.1596 36.8055 58.5826 37.5661 60.1317 37.8743C61.6809 38.1824 63.2866 38.0243 64.7459 37.4198C66.2052 36.8154 67.4524 35.7918 68.3299 34.4785C69.2075 33.1651 69.6758 31.6211 69.6758 30.0416C69.6758 27.9236 68.8345 25.8923 67.3368 24.3946C65.8391 22.8969 63.8078 22.0555 61.6897 22.0555Z" fill="#767676" fill-opacity="0.5"/>
</svg>
