<svg width="66" height="66" viewBox="0 0 66 66" fill="none" xmlns="http://www.w3.org/2000/svg">
<rect width="66" height="66" rx="33" fill="#F3AE09"/>
<g clip-path="url(#clip0_281_8778)">
<path d="M33 33C34.78 33 36.5201 32.4722 38.0001 31.4832C39.4802 30.4943 40.6337 29.0887 41.3149 27.4442C41.9961 25.7996 42.1743 23.99 41.8271 22.2442C41.4798 20.4984 40.6226 18.8947 39.364 17.636C38.1053 16.3774 36.5016 15.5202 34.7558 15.1729C33.01 14.8257 31.2004 15.0039 29.5558 15.6851C27.9113 16.3663 26.5057 17.5198 25.5168 18.9999C24.5278 20.4799 24 22.22 24 24C24.0024 26.3862 24.9514 28.674 26.6387 30.3613C28.326 32.0486 30.6138 32.9976 33 33ZM33 18C34.1867 18 35.3467 18.3519 36.3334 19.0112C37.3201 19.6705 38.0892 20.6075 38.5433 21.7039C38.9974 22.8003 39.1162 24.0067 38.8847 25.1705C38.6532 26.3344 38.0818 27.4035 37.2426 28.2426C36.4035 29.0818 35.3344 29.6532 34.1705 29.8847C33.0067 30.1162 31.8003 29.9974 30.7039 29.5433C29.6075 29.0892 28.6705 28.3201 28.0112 27.3334C27.3519 26.3467 27 25.1867 27 24C27 22.4087 27.6321 20.8826 28.7574 19.7574C29.8826 18.6321 31.4087 18 33 18Z" fill="white"/>
<path d="M33 36.001C29.4208 36.0049 25.9893 37.4285 23.4584 39.9594C20.9276 42.4903 19.504 45.9218 19.5 49.501C19.5 49.8988 19.658 50.2803 19.9393 50.5616C20.2206 50.8429 20.6022 51.001 21 51.001C21.3978 51.001 21.7794 50.8429 22.0607 50.5616C22.342 50.2803 22.5 49.8988 22.5 49.501C22.5 46.7162 23.6062 44.0455 25.5754 42.0764C27.5445 40.1072 30.2152 39.001 33 39.001C35.7848 39.001 38.4555 40.1072 40.4246 42.0764C42.3938 44.0455 43.5 46.7162 43.5 49.501C43.5 49.8988 43.658 50.2803 43.9393 50.5616C44.2206 50.8429 44.6022 51.001 45 51.001C45.3978 51.001 45.7794 50.8429 46.0607 50.5616C46.342 50.2803 46.5 49.8988 46.5 49.501C46.496 45.9218 45.0724 42.4903 42.5416 39.9594C40.0107 37.4285 36.5792 36.0049 33 36.001Z" fill="white"/>
</g>
<defs>
<clipPath id="clip0_281_8778">
<rect width="36" height="36" fill="white" transform="translate(15 15)"/>
</clipPath>
</defs>
</svg>
