<svg width="24" height="24" viewBox="0 0 24 24" fill="none" xmlns="http://www.w3.org/2000/svg">
<path d="M17.4459 5.63752C17.4792 5.61769 17.5207 5.61769 17.5539 5.63752L18.8309 6.39808C18.911 6.44578 19.0091 6.37383 18.9876 6.2831L18.6497 4.85387C18.6406 4.81539 18.6538 4.77505 18.6839 4.74935L19.8077 3.78858C19.879 3.72765 19.8414 3.61098 19.7479 3.60316L18.2656 3.47905C18.2267 3.4758 18.1928 3.45137 18.1774 3.41552L17.5969 2.0639C17.5603 1.9787 17.4395 1.9787 17.4029 2.0639L16.8224 3.41552C16.807 3.45137 16.7731 3.4758 16.7343 3.47905L15.2519 3.60316C15.1585 3.61098 15.1209 3.72765 15.1921 3.78858L16.316 4.74935C16.346 4.77505 16.3592 4.81539 16.3501 4.85387L16.0122 6.2831C15.9908 6.37383 16.0889 6.44578 16.169 6.39808L17.4459 5.63752Z" fill="white"/>
<path fill-rule="evenodd" clip-rule="evenodd" d="M6.6 3.43779C5.8268 3.43779 5.2 4.06459 5.2 4.83779V18.8378C5.2 19.611 5.8268 20.2378 6.6 20.2378H16.6C17.3732 20.2378 18 19.611 18 18.8378V8.08632L15.6544 5.74073L13.3515 3.43779H6.6ZM4 4.83779C4 3.40185 5.16406 2.23779 6.6 2.23779H13.3515V3.43779C13.3515 3.43779 17.8875 7.9738 18 8.08632H19.2V18.8378C19.2 20.2737 18.0359 21.4378 16.6 21.4378H6.6C5.16406 21.4378 4 20.2737 4 18.8378V4.83779Z" fill="white"/>
<path d="M7 12.3379C7 12.0617 7.22386 11.8379 7.5 11.8379H15.5C15.7761 11.8379 16 12.0617 16 12.3379V12.3379C16 12.614 15.7761 12.8379 15.5 12.8379H7.5C7.22386 12.8379 7 12.614 7 12.3379V12.3379Z" fill="white"/>
<path fill-rule="evenodd" clip-rule="evenodd" d="M14.5 16.8379H8.5C7.94772 16.8379 7.5 17.2856 7.5 17.8379C7.5 18.3902 7.94772 18.8379 8.5 18.8379H14.5C15.0523 18.8379 15.5 18.3902 15.5 17.8379C15.5 17.2856 15.0523 16.8379 14.5 16.8379ZM8.5 16.3379C7.67157 16.3379 7 17.0095 7 17.8379C7 18.6663 7.67157 19.3379 8.5 19.3379H14.5C15.3284 19.3379 16 18.6663 16 17.8379C16 17.0095 15.3284 16.3379 14.5 16.3379H8.5Z" fill="white"/>
<path d="M9 14.0879C9 13.9498 9.11193 13.8379 9.25 13.8379H15.75C15.8881 13.8379 16 13.9498 16 14.0879V14.0879C16 14.226 15.8881 14.3379 15.75 14.3379H9.25C9.11193 14.3379 9 14.226 9 14.0879V14.0879Z" fill="white"/>
<path d="M7.5 14.0879C7.5 13.9498 7.61193 13.8379 7.75 13.8379V13.8379C7.88807 13.8379 8 13.9498 8 14.0879V14.0879C8 14.226 7.88807 14.3379 7.75 14.3379V14.3379C7.61193 14.3379 7.5 14.226 7.5 14.0879V14.0879Z" fill="white"/>
<path d="M9 15.0879C9 14.9498 9.11193 14.8379 9.25 14.8379H15.75C15.8881 14.8379 16 14.9498 16 15.0879V15.0879C16 15.226 15.8881 15.3379 15.75 15.3379H9.25C9.11193 15.3379 9 15.226 9 15.0879V15.0879Z" fill="white"/>
<path d="M7.5 15.0879C7.5 14.9498 7.61193 14.8379 7.75 14.8379V14.8379C7.88807 14.8379 8 14.9498 8 15.0879V15.0879C8 15.226 7.88807 15.3379 7.75 15.3379V15.3379C7.61193 15.3379 7.5 15.226 7.5 15.0879V15.0879Z" fill="white"/>
<path d="M13.1968 6.66044L13.0353 7.25185H10L10.1647 6.66044H13.1968ZM11.6856 10.1545L10.0936 8.29401L10.0904 7.78252H10.8589C11.0462 7.78252 11.2001 7.74842 11.3207 7.68022C11.4434 7.60989 11.5349 7.51505 11.5952 7.3957C11.6576 7.27636 11.6888 7.14209 11.6888 6.99291C11.6888 6.83733 11.6608 6.69987 11.6048 6.58052C11.5489 6.45904 11.4595 6.3642 11.3368 6.296C11.2141 6.22781 11.0516 6.19371 10.8492 6.19371H10.0032L10.1873 5.5H10.8492C11.2324 5.5 11.551 5.55754 11.805 5.67263C12.0612 5.78558 12.2528 5.95075 12.3798 6.16813C12.509 6.38338 12.5736 6.64339 12.5736 6.94815C12.5736 7.21455 12.5284 7.45005 12.4379 7.65465C12.3497 7.85711 12.2065 8.02228 12.0085 8.15015C11.8104 8.27802 11.5499 8.36327 11.227 8.40589L12.6704 10.1098V10.1545H11.6856ZM13.2 5.5L13.0353 6.09141H10.5393L10.7039 5.5H13.2Z" fill="white"/>
</svg>
