<svg width="21" height="16" viewBox="0 0 21 16" fill="none" xmlns="http://www.w3.org/2000/svg">
<path d="M20.3007 5H13.0083C11.3417 5 9.99072 6.3431 9.99072 8C9.99072 9.6569 11.3417 11 13.0083 11H20.3007M12.9907 8V8.01M2.54628 1.72222C3.07405 1.36111 6.7685 1 10.9907 1C15.2129 1 18.9074 1.36111 19.4351 1.72222C19.7463 1.93511 20.0574 3.40107 20.2604 4.75005C20.3114 5.08894 20.3556 5.45201 20.3912 5.83339C20.4544 6.509 20.4907 7.2421 20.4907 8.0001C20.4907 9.1859 20.4018 10.3108 20.2604 11.2501C20.0574 12.599 19.7463 14.0649 19.4351 14.2778C18.9074 14.6389 15.2129 15 10.9907 15C6.7685 15 3.07405 14.6389 2.54628 14.2778C2.0185 13.9167 1.49072 10.8889 1.49072 8.0001C1.49072 7.2421 1.52705 6.509 1.59018 5.83339C1.76766 3.9339 2.15697 1.98859 2.54628 1.72222Z" stroke="white" stroke-linecap="round" stroke-linejoin="round"/>
</svg>
