<svg width="22" height="22" viewBox="0 0 22 22" fill="none" xmlns="http://www.w3.org/2000/svg">
<path d="M19.9925 8.24992H13.3078C11.7801 8.24992 10.5417 9.48109 10.5417 10.9999C10.5417 12.5187 11.7801 13.7499 13.3078 13.7499H19.9925M13.2917 10.9999V11.0091M3.7176 5.24529C4.20139 4.91427 7.58796 4.58325 11.4583 4.58325C15.3287 4.58325 18.7153 4.91427 19.199 5.24529C19.4843 5.44044 19.7695 6.78423 19.9556 8.0208C20.0023 8.33145 20.0428 8.66426 20.0755 9.01386C20.1334 9.63317 20.1667 10.3052 20.1667 11C20.1667 12.087 20.0852 13.1182 19.9556 13.9792C19.7695 15.2157 19.4843 16.5594 19.199 16.7546C18.7153 17.0856 15.3287 17.4166 11.4583 17.4166C7.58796 17.4166 4.20139 17.0856 3.7176 16.7546C3.2338 16.4236 2.75 13.6481 2.75 11C2.75 10.3052 2.7833 9.63317 2.84117 9.01386C3.00386 7.27266 3.36073 5.48946 3.7176 5.24529Z" stroke="#F3AE09" stroke-width="1.2" stroke-linecap="round" stroke-linejoin="round"/>
</svg>
