<svg width="66" height="66" viewBox="0 0 66 66" fill="none" xmlns="http://www.w3.org/2000/svg">
<circle cx="33" cy="33" r="32" fill="#080808" stroke="#EBEBEB" stroke-width="2"/>
<path d="M39.5 27C39.5 27.5523 39.9477 28 40.5 28C41.0523 28 41.5 27.5523 41.5 27H39.5ZM42.5 33C42.5 33.5523 42.9477 34 43.5 34C44.0523 34 44.5 33.5523 44.5 33H42.5ZM44.5 39C44.5 38.4477 44.0523 38 43.5 38C42.9477 38 42.5 38.4477 42.5 39H44.5ZM22 24C22 23.4477 21.5523 23 21 23C20.4477 23 20 23.4477 20 24H22ZM41.5 27V22.5H39.5V27H41.5ZM41.5 22.5C41.5 21.1193 40.3807 20 39 20V22C39.2761 22 39.5 22.2239 39.5 22.5H41.5ZM39 20H24V22H39V20ZM24 20C21.7909 20 20 21.7909 20 24H22C22 22.8954 22.8954 22 24 22V20ZM20 24C20 26.2091 21.7909 28 24 28V26C22.8954 26 22 25.1046 22 24H20ZM24 28H42V26H24V28ZM42 28C42.2761 28 42.5 28.2239 42.5 28.5H44.5C44.5 27.1193 43.3807 26 42 26V28ZM42.5 28.5V33H44.5V28.5H42.5ZM42.5 39V43.5H44.5V39H42.5ZM42.5 43.5C42.5 43.7761 42.2761 44 42 44V46C43.3807 46 44.5 44.8807 44.5 43.5H42.5ZM42 44H24V46H42V44ZM24 44C22.8954 44 22 43.1046 22 42H20C20 44.2091 21.7909 46 24 46V44ZM22 42V24H20V42H22Z" fill="#F3AE09"/>
<path d="M45 33V39H39C37.3431 39 36 37.6569 36 36C36 34.3431 37.3431 33 39 33H45" stroke="#F3AE09" stroke-width="1.2" stroke-linecap="round" stroke-linejoin="round"/>
</svg>
