<svg width="24" height="24" viewBox="0 0 24 24" fill="none" xmlns="http://www.w3.org/2000/svg">
<path d="M21.81 9H14.5176C12.851 9 11.5 10.3431 11.5 12C11.5 13.6569 12.851 15 14.5176 15H21.81M14.5 12V12.01M4.05556 5.72222C4.58333 5.36111 8.27778 5 12.5 5C16.7222 5 20.4167 5.36111 20.9444 5.72222C21.2556 5.93511 21.5667 7.40107 21.7697 8.75005C21.8207 9.08894 21.8649 9.45201 21.9005 9.83339C21.9637 10.509 22 11.2421 22 12.0001C22 13.1859 21.9111 14.3108 21.7697 15.2501C21.5667 16.599 21.2556 18.0649 20.9444 18.2778C20.4167 18.6389 16.7222 19 12.5 19C8.27778 19 4.58333 18.6389 4.05556 18.2778C3.52778 17.9167 3 14.8889 3 12.0001C3 11.2421 3.03633 10.509 3.09946 9.83339C3.27694 7.9339 3.66625 5.98859 4.05556 5.72222Z" stroke="white" stroke-width="1.2" stroke-linecap="round" stroke-linejoin="round"/>
</svg>
