<svg width="253" height="60" viewBox="0 0 253 60" fill="none" xmlns="http://www.w3.org/2000/svg">
<path d="M27.08 58H20.12L16.76 16.88L16.52 11.12H16.2L15.88 16.88L12.6 58H5.56L0.04 2H5.56L8.76 44.64L8.92 50.56H9.24L9.48 44.64L13.08 2H19.64L23.4 44.64L23.56 50.56H23.88L24.04 44.64L27.16 2H32.68L27.08 58ZM54.0875 58H48.5675V32.32H41.5275V58H36.0075V2H41.5275V27.84H48.5675V2H54.0875V58ZM77.1419 48.08C77.1419 51.8133 76.3419 54.6133 74.7419 56.48C73.1952 58.2933 70.9019 59.2 67.8619 59.2C64.8219 59.2 62.5019 58.2667 60.9019 56.4C59.3019 54.5333 58.5019 51.76 58.5019 48.08V11.76C58.5019 8.08 59.3019 5.33333 60.9019 3.52C62.5019 1.70666 64.8219 0.799997 67.8619 0.799997C70.9019 0.799997 73.1952 1.70666 74.7419 3.52C76.3419 5.33333 77.1419 8.08 77.1419 11.76V48.08ZM71.6219 11.12C71.6219 9.09333 71.3285 7.62667 70.7419 6.72C70.1552 5.76 69.1952 5.28 67.8619 5.28C66.5285 5.28 65.5419 5.76 64.9019 6.72C64.3152 7.62667 64.0219 9.09333 64.0219 11.12V48.8C64.0219 52.7467 65.3019 54.72 67.8619 54.72C70.3685 54.72 71.6219 52.7467 71.6219 48.8V11.12ZM111.749 58H106.229L104.949 43.84H98.8694L97.5894 58H92.1494L98.4694 2H105.349L111.749 58ZM104.549 39.36L102.389 16.08L102.069 10.4H101.749L101.429 16.08L99.3494 39.36H104.549ZM122.843 2C126.15 2 128.683 2.93333 130.443 4.8C132.256 6.66666 133.163 9.52 133.163 13.36V22.08C133.163 27.04 131.43 30.16 127.963 31.44V31.6C129.67 32.1867 130.95 33.28 131.803 34.88C132.71 36.48 133.163 38.48 133.163 40.88V49.92C133.163 51.52 133.19 52.8533 133.243 53.92C133.35 54.9333 133.536 56.1867 133.803 57.68V58H128.283C128.016 56.4533 127.83 55.12 127.723 54C127.67 52.88 127.643 51.52 127.643 49.92V39.6C127.643 37.5733 127.243 36.1067 126.443 35.2C125.696 34.24 124.496 33.76 122.843 33.76H120.043V58H114.523V2H122.843ZM120.043 29.28H122.843C124.496 29.28 125.696 28.8267 126.443 27.92C127.243 26.96 127.643 25.44 127.643 23.36V12.32C127.643 10.2933 127.243 8.82666 126.443 7.92C125.696 6.96 124.496 6.48 122.843 6.48H120.043V29.28ZM150.296 6.48H142.856V27.84H149.816V32.32H142.856V53.52H151.016V58H137.336V2H150.296V6.48ZM177.6 38.48V58H172.08V38.48L165.04 2H170.56L174 26.24L174.72 32.64H175.04L175.76 26.24L179.2 2H184.64L177.6 38.48ZM205.579 48.08C205.579 51.8133 204.779 54.6133 203.179 56.48C201.633 58.2933 199.339 59.2 196.299 59.2C193.259 59.2 190.939 58.2667 189.339 56.4C187.739 54.5333 186.939 51.76 186.939 48.08V11.76C186.939 8.08 187.739 5.33333 189.339 3.52C190.939 1.70666 193.259 0.799997 196.299 0.799997C199.339 0.799997 201.633 1.70666 203.179 3.52C204.779 5.33333 205.579 8.08 205.579 11.76V48.08ZM200.059 11.12C200.059 9.09333 199.766 7.62667 199.179 6.72C198.593 5.76 197.633 5.28 196.299 5.28C194.966 5.28 193.979 5.76 193.339 6.72C192.753 7.62667 192.459 9.09333 192.459 11.12V48.8C192.459 52.7467 193.739 54.72 196.299 54.72C198.806 54.72 200.059 52.7467 200.059 48.8V11.12ZM229.432 48.08C229.432 51.92 228.579 54.7467 226.872 56.56C225.165 58.32 222.765 59.2 219.672 59.2C216.525 59.2 214.072 58.2933 212.312 56.48C210.605 54.6667 209.752 51.8667 209.752 48.08V2H215.272V48.8C215.272 52.7467 216.712 54.72 219.592 54.72C222.472 54.72 223.912 52.7467 223.912 48.8V2H229.432V48.08ZM233.827 13.2C233.827 8.88 234.628 5.73333 236.228 3.76C237.881 1.78666 240.148 0.799997 243.028 0.799997C245.908 0.799997 248.148 1.78666 249.748 3.76C251.348 5.73333 252.148 8.93333 252.148 13.36V18.8C252.148 20.3467 252.014 21.76 251.747 23.04C251.534 24.32 251.241 25.52 250.868 26.64C250.494 27.76 250.041 28.8 249.508 29.76C249.028 30.72 248.521 31.6533 247.988 32.56C247.028 34.2667 246.148 36.08 245.348 38C244.548 39.8667 244.148 42.16 244.148 44.88V46.32H238.708V45.12C238.708 43.2533 238.841 41.5733 239.108 40.08C239.428 38.5333 239.801 37.1467 240.228 35.92C240.708 34.64 241.214 33.4667 241.747 32.4C242.334 31.3333 242.894 30.32 243.428 29.36C244.281 27.92 245.028 26.3467 245.668 24.64C246.308 22.9333 246.628 20.9867 246.628 18.8V12.32C246.628 9.70667 246.308 7.89333 245.668 6.88C245.081 5.81333 244.174 5.28 242.947 5.28C241.774 5.28 240.868 5.76 240.228 6.72C239.641 7.68 239.348 9.44 239.348 12V21.68H233.827V13.2ZM238.148 51.04H244.628V58H238.148V51.04Z" fill="black"/>
<path d="M27.08 58V63H31.6049L32.0552 58.4975L27.08 58ZM20.12 58L15.1366 58.4072L15.5119 63H20.12V58ZM16.76 16.88L11.7643 17.0882L11.7685 17.1878L11.7766 17.2872L16.76 16.88ZM16.52 11.12L21.5157 10.9118L21.316 6.12H16.52V11.12ZM16.2 11.12V6.12H11.4701L11.2077 10.8426L16.2 11.12ZM15.88 16.88L20.8642 17.2776L20.869 17.2175L20.8723 17.1574L15.88 16.88ZM12.6 58V63H17.217L17.5842 58.3976L12.6 58ZM5.56 58L0.584115 58.4905L1.02863 63H5.56V58ZM0.04 2V-3H-5.47709L-4.93588 2.49048L0.04 2ZM5.56 2L10.546 1.62581L10.1988 -3H5.56V2ZM8.76 44.64L13.7582 44.5049L13.7549 44.3852L13.746 44.2658L8.76 44.64ZM8.92 50.56L3.92183 50.6951L4.05331 55.56H8.92V50.56ZM9.24 50.56V55.56H14.0414L14.2359 50.7625L9.24 50.56ZM9.48 44.64L4.49773 44.2194L4.48853 44.3283L4.4841 44.4375L9.48 44.64ZM13.08 2V-3H8.48435L8.09773 1.57935L13.08 2ZM19.64 2L24.6207 1.5608L24.2185 -3H19.64V2ZM23.4 44.64L28.3982 44.5049L28.3941 44.3526L28.3807 44.2008L23.4 44.64ZM23.56 50.56L18.5618 50.6951L18.6933 55.56H23.56V50.56ZM23.88 50.56V55.56H28.7467L28.8782 50.6951L23.88 50.56ZM24.04 44.64L19.0533 44.2751L19.0449 44.3899L19.0418 44.5049L24.04 44.64ZM27.16 2V-3H22.5125L22.1733 1.63512L27.16 2ZM32.68 2L37.6552 2.49751L38.2049 -3H32.68V2ZM27.08 53H20.12V63H27.08V53ZM25.1034 57.5928L21.7434 16.4728L11.7766 17.2872L15.1366 58.4072L25.1034 57.5928ZM21.7557 16.6718L21.5157 10.9118L11.5243 11.3282L11.7643 17.0882L21.7557 16.6718ZM16.52 6.12H16.2V16.12H16.52V6.12ZM11.2077 10.8426L10.8877 16.6026L20.8723 17.1574L21.1923 11.3973L11.2077 10.8426ZM10.8958 16.4824L7.61583 57.6024L17.5842 58.3976L20.8642 17.2776L10.8958 16.4824ZM12.6 53H5.56V63H12.6V53ZM10.5359 57.5095L5.01588 1.50952L-4.93588 2.49048L0.584115 58.4905L10.5359 57.5095ZM0.04 7H5.56V-3H0.04V7ZM0.574021 2.37418L3.77402 45.0142L13.746 44.2658L10.546 1.62581L0.574021 2.37418ZM3.76183 44.7751L3.92183 50.6951L13.9182 50.4249L13.7582 44.5049L3.76183 44.7751ZM8.92 55.56H9.24V45.56H8.92V55.56ZM14.2359 50.7625L14.4759 44.8425L4.4841 44.4375L4.2441 50.3575L14.2359 50.7625ZM14.4623 45.0606L18.0623 2.42064L8.09773 1.57935L4.49773 44.2194L14.4623 45.0606ZM13.08 7H19.64V-3H13.08V7ZM14.6593 2.43919L18.4193 45.0792L28.3807 44.2008L24.6207 1.5608L14.6593 2.43919ZM18.4018 44.7751L18.5618 50.6951L28.5582 50.4249L28.3982 44.5049L18.4018 44.7751ZM23.56 55.56H23.88V45.56H23.56V55.56ZM28.8782 50.6951L29.0382 44.7751L19.0418 44.5049L18.8818 50.4249L28.8782 50.6951ZM29.0267 45.0049L32.1467 2.36487L22.1733 1.63512L19.0533 44.2751L29.0267 45.0049ZM27.16 7H32.68V-3H27.16V7ZM27.7048 1.50248L22.1048 57.5025L32.0552 58.4975L37.6552 2.49751L27.7048 1.50248ZM54.0875 58V63H59.0875V58H54.0875ZM48.5675 58H43.5675V63H48.5675V58ZM48.5675 32.32H53.5675V27.32H48.5675V32.32ZM41.5275 32.32V27.32H36.5275V32.32H41.5275ZM41.5275 58V63H46.5275V58H41.5275ZM36.0075 58H31.0075V63H36.0075V58ZM36.0075 2V-3H31.0075V2H36.0075ZM41.5275 2H46.5275V-3H41.5275V2ZM41.5275 27.84H36.5275V32.84H41.5275V27.84ZM48.5675 27.84V32.84H53.5675V27.84H48.5675ZM48.5675 2V-3H43.5675V2H48.5675ZM54.0875 2H59.0875V-3H54.0875V2ZM54.0875 53H48.5675V63H54.0875V53ZM53.5675 58V32.32H43.5675V58H53.5675ZM48.5675 27.32H41.5275V37.32H48.5675V27.32ZM36.5275 32.32V58H46.5275V32.32H36.5275ZM41.5275 53H36.0075V63H41.5275V53ZM41.0075 58V2H31.0075V58H41.0075ZM36.0075 7H41.5275V-3H36.0075V7ZM36.5275 2V27.84H46.5275V2H36.5275ZM41.5275 32.84H48.5675V22.84H41.5275V32.84ZM53.5675 27.84V2H43.5675V27.84H53.5675ZM48.5675 7H54.0875V-3H48.5675V7ZM49.0875 2V58H59.0875V2H49.0875ZM74.7419 56.48L70.9456 53.226L70.9377 53.2353L74.7419 56.48ZM60.9019 3.52L57.1527 0.211886L57.1527 0.21189L60.9019 3.52ZM74.7419 3.52L70.9377 6.76473L70.9649 6.79665L70.9927 6.8281L74.7419 3.52ZM70.7419 6.72L66.4755 9.32725L66.509 9.38219L66.544 9.43625L70.7419 6.72ZM64.9019 6.72L60.7416 3.9465L60.7226 3.97499L60.704 4.00374L64.9019 6.72ZM72.1419 48.08C72.1419 51.2151 71.4537 52.6333 70.9456 53.226L78.5382 59.734C81.2301 56.5934 82.1419 52.4116 82.1419 48.08H72.1419ZM70.9377 53.2353C70.5907 53.6421 69.8723 54.2 67.8619 54.2V64.2C71.9314 64.2 75.7997 62.9446 78.546 59.7247L70.9377 53.2353ZM67.8619 54.2C65.9062 54.2 65.1285 53.6481 64.6982 53.146L57.1056 59.654C59.8752 62.8852 63.7376 64.2 67.8619 64.2V54.2ZM64.6982 53.146C64.1808 52.5424 63.5019 51.1401 63.5019 48.08H53.5019C53.5019 52.3799 54.423 56.5243 57.1056 59.654L64.6982 53.146ZM63.5019 48.08V11.76H53.5019V48.08H63.5019ZM63.5019 11.76C63.5019 8.685 64.1869 7.35419 64.6511 6.8281L57.1527 0.21189C54.4169 3.31247 53.5019 7.475 53.5019 11.76H63.5019ZM64.6511 6.8281C65.0676 6.35597 65.8596 5.8 67.8619 5.8V-4.2C63.7841 -4.2 59.9361 -2.94264 57.1527 0.211886L64.6511 6.8281ZM67.8619 5.8C69.8723 5.8 70.5907 6.3579 70.9377 6.76473L78.546 0.27526C75.7997 -2.94457 71.9314 -4.2 67.8619 -4.2V5.8ZM70.9927 6.8281C71.4569 7.35419 72.1419 8.68499 72.1419 11.76H82.1419C82.1419 7.475 81.2269 3.31247 78.4911 0.211891L70.9927 6.8281ZM72.1419 11.76V48.08H82.1419V11.76H72.1419ZM76.6219 11.12C76.6219 8.84737 76.337 6.16317 74.9397 4.00374L66.544 9.43625C66.3908 9.19942 66.4316 9.14373 66.499 9.48058C66.5629 9.8004 66.6219 10.3284 66.6219 11.12H76.6219ZM75.0083 4.11275C73.3322 1.37005 70.5589 0.279997 67.8619 0.279997V10.28C67.9364 10.28 67.7079 10.2932 67.3458 10.1121C66.9463 9.91235 66.6461 9.60643 66.4755 9.32725L75.0083 4.11275ZM67.8619 0.279997C65.1592 0.279997 62.465 1.36136 60.7416 3.9465L69.0621 9.4935C68.9157 9.71315 68.6567 9.96711 68.3092 10.1362C67.9901 10.2914 67.7926 10.28 67.8619 10.28V0.279997ZM60.704 4.00374C59.3068 6.16317 59.0219 8.84737 59.0219 11.12H69.0219C69.0219 10.3284 69.0808 9.8004 69.1448 9.48058C69.2122 9.14373 69.253 9.19942 69.0997 9.43625L60.704 4.00374ZM59.0219 11.12V48.8H69.0219V11.12H59.0219ZM59.0219 48.8C59.0219 51.154 59.3746 53.7834 60.7871 55.961C62.4419 58.5121 65.0659 59.72 67.8619 59.72V49.72C67.8697 49.72 68.1201 49.7244 68.4672 49.9028C68.832 50.0903 69.0656 50.3477 69.1767 50.519C69.266 50.6567 69.216 50.6433 69.1489 50.3333C69.0826 50.0267 69.0219 49.532 69.0219 48.8H59.0219ZM67.8619 59.72C70.678 59.72 73.2817 58.4726 74.9025 55.9207C76.2792 53.7532 76.6219 51.1415 76.6219 48.8H66.6219C66.6219 49.5375 66.562 50.0396 66.4953 50.3544C66.4277 50.6736 66.3758 50.6938 66.4612 50.5593C66.568 50.3911 66.8026 50.1225 67.1833 49.9227C67.549 49.7308 67.825 49.72 67.8619 49.72V59.72ZM76.6219 48.8V11.12H66.6219V48.8H76.6219ZM111.749 58V63H117.353L116.717 57.4323L111.749 58ZM106.229 58L101.25 58.4501L101.661 63H106.229V58ZM104.949 43.84L109.929 43.3899L109.518 38.84H104.949V43.84ZM98.8694 43.84V38.84H94.301L93.8897 43.3899L98.8694 43.84ZM97.5894 58V63H102.158L102.569 58.4501L97.5894 58ZM92.1494 58L87.1809 57.4393L86.5533 63H92.1494V58ZM98.4694 2V-3H94.0019L93.5009 1.43927L98.4694 2ZM105.349 2L110.317 1.43226L109.81 -3H105.349V2ZM104.549 39.36V44.36H110.035L109.528 38.8981L104.549 39.36ZM102.389 16.08L97.3973 16.3612L97.4024 16.4517L97.4108 16.5419L102.389 16.08ZM102.069 10.4L107.061 10.1188L106.796 5.4H102.069V10.4ZM101.749 10.4V5.4H97.0231L96.7573 10.1188L101.749 10.4ZM101.429 16.08L106.41 16.525L106.417 16.4432L106.421 16.3612L101.429 16.08ZM99.3494 39.36L94.3692 38.915L93.8827 44.36H99.3494V39.36ZM111.749 53H106.229V63H111.749V53ZM111.209 57.5499L109.929 43.3899L99.9697 44.2901L101.25 58.4501L111.209 57.5499ZM104.949 38.84H98.8694V48.84H104.949V38.84ZM93.8897 43.3899L92.6097 57.5499L102.569 58.4501L103.849 44.2901L93.8897 43.3899ZM97.5894 53H92.1494V63H97.5894V53ZM97.1178 58.5607L103.438 2.56072L93.5009 1.43927L87.1809 57.4393L97.1178 58.5607ZM98.4694 7H105.349V-3H98.4694V7ZM100.382 2.56773L106.782 58.5677L116.717 57.4323L110.317 1.43226L100.382 2.56773ZM109.528 38.8981L107.368 15.6181L97.4108 16.5419L99.5708 39.8219L109.528 38.8981ZM107.381 15.7988L107.061 10.1188L97.0773 10.6812L97.3973 16.3612L107.381 15.7988ZM102.069 5.4H101.749V15.4H102.069V5.4ZM96.7573 10.1188L96.4373 15.7988L106.421 16.3612L106.741 10.6812L96.7573 10.1188ZM96.4492 15.635L94.3692 38.915L104.33 39.805L106.41 16.525L96.4492 15.635ZM99.3494 44.36H104.549V34.36H99.3494V44.36ZM130.443 4.8L126.805 8.23006L126.831 8.25719L126.857 8.28393L130.443 4.8ZM127.963 31.44L126.231 26.7495L122.963 27.9562V31.44H127.963ZM127.963 31.6H122.963V35.1684L126.338 36.3284L127.963 31.6ZM131.803 34.88L127.391 37.2329L127.421 37.2894L127.453 37.3451L131.803 34.88ZM133.243 53.92L128.249 54.1697L128.256 54.3068L128.271 54.4434L133.243 53.92ZM133.803 57.68H138.803V57.2371L138.725 56.801L133.803 57.68ZM133.803 58V63H138.803V58H133.803ZM128.283 58L123.356 58.8495L124.071 63H128.283V58ZM127.723 54L122.729 54.2378L122.734 54.3561L122.746 54.474L127.723 54ZM126.443 35.2L122.496 38.2697L122.591 38.392L122.694 38.5081L126.443 35.2ZM120.043 33.76V28.76H115.043V33.76H120.043ZM120.043 58V63H125.043V58H120.043ZM114.523 58H109.523V63H114.523V58ZM114.523 2V-3H109.523V2H114.523ZM120.043 29.28H115.043V34.28H120.043V29.28ZM126.443 27.92L122.602 24.7191L122.593 24.7302L122.583 24.7415L126.443 27.92ZM126.443 7.92L122.496 10.9897L122.591 11.112L122.694 11.2281L126.443 7.92ZM120.043 6.48V1.48H115.043V6.48H120.043ZM122.843 7C125.192 7 126.244 7.63455 126.805 8.23006L134.081 1.36994C131.123 -1.76789 127.107 -3 122.843 -3V7ZM126.857 8.28393C127.411 8.85487 128.163 10.2083 128.163 13.36H138.163C138.163 8.83169 137.102 4.47846 134.03 1.31607L126.857 8.28393ZM128.163 13.36V22.08H138.163V13.36H128.163ZM128.163 22.08C128.163 24.0247 127.817 25.128 127.492 25.7118C127.229 26.1867 126.886 26.5077 126.231 26.7495L129.695 36.1305C132.507 35.0923 134.764 33.2133 136.234 30.5682C137.643 28.032 138.163 25.0953 138.163 22.08H128.163ZM122.963 31.44V31.6H132.963V31.44H122.963ZM126.338 36.3284C126.842 36.5019 127.13 36.7426 127.391 37.2329L136.215 32.5271C134.77 29.8174 132.497 27.8715 129.589 26.8716L126.338 36.3284ZM127.453 37.3451C127.823 37.998 128.163 39.0877 128.163 40.88H138.163C138.163 37.8723 137.597 34.962 136.153 32.4149L127.453 37.3451ZM128.163 40.88V49.92H138.163V40.88H128.163ZM128.163 49.92C128.163 51.5667 128.19 52.99 128.249 54.1697L138.237 53.6703C138.189 52.7167 138.163 51.4733 138.163 49.92H128.163ZM128.271 54.4434C128.394 55.618 128.602 56.9986 128.881 58.559L138.725 56.801C138.471 55.3747 138.305 54.2486 138.216 53.3966L128.271 54.4434ZM128.803 57.68V58H138.803V57.68H128.803ZM133.803 53H128.283V63H133.803V53ZM133.21 57.1505C132.958 55.6838 132.792 54.4821 132.701 53.526L122.746 54.474C122.868 55.7579 123.075 57.2229 123.356 58.8495L133.21 57.1505ZM132.717 53.7622C132.669 52.7468 132.643 51.4711 132.643 49.92H122.643C122.643 51.5689 122.67 53.0132 122.729 54.2378L132.717 53.7622ZM132.643 49.92V39.6H122.643V49.92H132.643ZM132.643 39.6C132.643 37.1183 132.19 34.1562 130.192 31.8919L122.694 38.5081C122.475 38.26 122.47 38.115 122.519 38.2956C122.571 38.485 122.643 38.8933 122.643 39.6H132.643ZM130.39 32.1303C128.383 29.5502 125.446 28.76 122.843 28.76V38.76C123.204 38.76 123.256 38.8145 123.126 38.7624C123.056 38.7341 122.948 38.6808 122.825 38.5897C122.7 38.4976 122.588 38.3876 122.496 38.2697L130.39 32.1303ZM122.843 28.76H120.043V38.76H122.843V28.76ZM115.043 33.76V58H125.043V33.76H115.043ZM120.043 53H114.523V63H120.043V53ZM119.523 58V2H109.523V58H119.523ZM114.523 7H122.843V-3H114.523V7ZM120.043 34.28H122.843V24.28H120.043V34.28ZM122.843 34.28C125.354 34.28 128.265 33.5734 130.303 31.0985L122.583 24.7415C122.689 24.6137 122.81 24.5034 122.935 24.4162C123.057 24.3304 123.159 24.2842 123.216 24.2626C123.318 24.2243 123.232 24.28 122.843 24.28V34.28ZM130.284 31.1209C132.19 28.8335 132.643 25.8928 132.643 23.36H122.643C122.643 24.1 122.57 24.5518 122.508 24.7875C122.447 25.0168 122.429 24.9269 122.602 24.7191L130.284 31.1209ZM132.643 23.36V12.32H122.643V23.36H132.643ZM132.643 12.32C132.643 9.83825 132.19 6.87621 130.192 4.61189L122.694 11.2281C122.475 10.98 122.47 10.835 122.519 11.0156C122.571 11.205 122.643 11.6133 122.643 12.32H132.643ZM130.39 4.85029C128.383 2.27021 125.446 1.48 122.843 1.48V11.48C123.204 11.48 123.256 11.5345 123.126 11.4824C123.056 11.4541 122.948 11.4008 122.825 11.3097C122.7 11.2176 122.588 11.1076 122.496 10.9897L130.39 4.85029ZM122.843 1.48H120.043V11.48H122.843V1.48ZM115.043 6.48V29.28H125.043V6.48H115.043ZM150.296 6.48V11.48H155.296V6.48H150.296ZM142.856 6.48V1.48H137.856V6.48H142.856ZM142.856 27.84H137.856V32.84H142.856V27.84ZM149.816 27.84H154.816V22.84H149.816V27.84ZM149.816 32.32V37.32H154.816V32.32H149.816ZM142.856 32.32V27.32H137.856V32.32H142.856ZM142.856 53.52H137.856V58.52H142.856V53.52ZM151.016 53.52H156.016V48.52H151.016V53.52ZM151.016 58V63H156.016V58H151.016ZM137.336 58H132.336V63H137.336V58ZM137.336 2V-3H132.336V2H137.336ZM150.296 2H155.296V-3H150.296V2ZM150.296 1.48H142.856V11.48H150.296V1.48ZM137.856 6.48V27.84H147.856V6.48H137.856ZM142.856 32.84H149.816V22.84H142.856V32.84ZM144.816 27.84V32.32H154.816V27.84H144.816ZM149.816 27.32H142.856V37.32H149.816V27.32ZM137.856 32.32V53.52H147.856V32.32H137.856ZM142.856 58.52H151.016V48.52H142.856V58.52ZM146.016 53.52V58H156.016V53.52H146.016ZM151.016 53H137.336V63H151.016V53ZM142.336 58V2H132.336V58H142.336ZM137.336 7H150.296V-3H137.336V7ZM145.296 2V6.48H155.296V2H145.296ZM177.6 38.48L172.691 37.5326L172.6 38.002V38.48H177.6ZM177.6 58V63H182.6V58H177.6ZM172.08 58H167.08V63H172.08V58ZM172.08 38.48H177.08V38.002L176.989 37.5326L172.08 38.48ZM165.04 2V-3H158.983L160.131 2.94743L165.04 2ZM170.56 2L175.51 1.29746L174.901 -3H170.56V2ZM174 26.24L178.969 25.681L178.961 25.6091L178.95 25.5375L174 26.24ZM174.72 32.64L169.751 33.199L170.251 37.64H174.72V32.64ZM175.04 32.64V37.64H179.509L180.009 33.199L175.04 32.64ZM175.76 26.24L170.81 25.5375L170.799 25.6091L170.791 25.681L175.76 26.24ZM179.2 2V-3H174.859L174.25 1.29746L179.2 2ZM184.64 2L189.549 2.94743L190.697 -3H184.64V2ZM172.6 38.48V58H182.6V38.48H172.6ZM177.6 53H172.08V63H177.6V53ZM177.08 58V38.48H167.08V58H177.08ZM176.989 37.5326L169.949 1.05257L160.131 2.94743L167.171 39.4274L176.989 37.5326ZM165.04 7H170.56V-3H165.04V7ZM165.61 2.70253L169.05 26.9425L178.95 25.5375L175.51 1.29746L165.61 2.70253ZM169.031 26.799L169.751 33.199L179.689 32.081L178.969 25.681L169.031 26.799ZM174.72 37.64H175.04V27.64H174.72V37.64ZM180.009 33.199L180.729 26.799L170.791 25.681L170.071 32.081L180.009 33.199ZM180.71 26.9425L184.15 2.70253L174.25 1.29746L170.81 25.5375L180.71 26.9425ZM179.2 7H184.64V-3H179.2V7ZM179.731 1.05256L172.691 37.5326L182.509 39.4274L189.549 2.94743L179.731 1.05256ZM203.179 56.48L199.383 53.226L199.375 53.2353L203.179 56.48ZM189.339 3.52L185.59 0.211886V0.21189L189.339 3.52ZM203.179 3.52L199.375 6.76473L199.402 6.79665L199.43 6.8281L203.179 3.52ZM199.179 6.72L194.913 9.32725L194.947 9.38219L194.982 9.43625L199.179 6.72ZM193.339 6.72L189.179 3.9465L189.16 3.97499L189.142 4.00374L193.339 6.72ZM200.579 48.08C200.579 51.2151 199.891 52.6333 199.383 53.226L206.976 59.734C209.668 56.5934 210.579 52.4116 210.579 48.08H200.579ZM199.375 53.2353C199.028 53.6421 198.31 54.2 196.299 54.2V64.2C200.369 64.2 204.237 62.9446 206.984 59.7247L199.375 53.2353ZM196.299 54.2C194.344 54.2 193.566 53.6481 193.136 53.146L185.543 59.654C188.313 62.8852 192.175 64.2 196.299 64.2V54.2ZM193.136 53.146C192.618 52.5424 191.939 51.1401 191.939 48.08H181.939C181.939 52.3799 182.86 56.5243 185.543 59.654L193.136 53.146ZM191.939 48.08V11.76H181.939V48.08H191.939ZM191.939 11.76C191.939 8.685 192.624 7.35419 193.089 6.8281L185.59 0.21189C182.854 3.31247 181.939 7.475 181.939 11.76H191.939ZM193.089 6.8281C193.505 6.35597 194.297 5.8 196.299 5.8V-4.2C192.222 -4.2 188.374 -2.94264 185.59 0.211886L193.089 6.8281ZM196.299 5.8C198.31 5.8 199.028 6.3579 199.375 6.76473L206.984 0.27526C204.237 -2.94457 200.369 -4.2 196.299 -4.2V5.8ZM199.43 6.8281C199.894 7.35419 200.579 8.68499 200.579 11.76H210.579C210.579 7.475 209.664 3.31247 206.929 0.211891L199.43 6.8281ZM200.579 11.76V48.08H210.579V11.76H200.579ZM205.059 11.12C205.059 8.84737 204.775 6.16317 203.377 4.00374L194.982 9.43625C194.828 9.19942 194.869 9.14373 194.936 9.48058C195 9.8004 195.059 10.3284 195.059 11.12H205.059ZM203.446 4.11275C201.77 1.37005 198.996 0.279997 196.299 0.279997V10.28C196.374 10.28 196.145 10.2932 195.783 10.1121C195.384 9.91235 195.084 9.60643 194.913 9.32725L203.446 4.11275ZM196.299 0.279997C193.597 0.279997 190.903 1.36136 189.179 3.9465L197.5 9.4935C197.353 9.71315 197.094 9.96711 196.747 10.1362C196.428 10.2914 196.23 10.28 196.299 10.28V0.279997ZM189.142 4.00374C187.744 6.16317 187.459 8.84737 187.459 11.12H197.459C197.459 10.3284 197.518 9.8004 197.582 9.48058C197.65 9.14373 197.69 9.19942 197.537 9.43625L189.142 4.00374ZM187.459 11.12V48.8H197.459V11.12H187.459ZM187.459 48.8C187.459 51.154 187.812 53.7834 189.225 55.961C190.879 58.5121 193.503 59.72 196.299 59.72V49.72C196.307 49.72 196.558 49.7244 196.905 49.9028C197.27 50.0903 197.503 50.3477 197.614 50.519C197.703 50.6567 197.653 50.6433 197.586 50.3333C197.52 50.0267 197.459 49.532 197.459 48.8H187.459ZM196.299 59.72C199.115 59.72 201.719 58.4726 203.34 55.9207C204.717 53.7532 205.059 51.1415 205.059 48.8H195.059C195.059 49.5375 194.999 50.0396 194.933 50.3544C194.865 50.6736 194.813 50.6938 194.899 50.5593C195.006 50.3911 195.24 50.1225 195.621 49.9227C195.987 49.7308 196.263 49.72 196.299 49.72V59.72ZM205.059 48.8V11.12H195.059V48.8H205.059ZM226.872 56.56L230.461 60.0407L230.487 60.014L230.513 59.9868L226.872 56.56ZM212.312 56.48L208.671 59.9068L208.697 59.9348L208.724 59.9624L212.312 56.48ZM209.752 2V-3H204.752V2H209.752ZM215.272 2H220.272V-3H215.272V2ZM223.912 2V-3H218.912V2H223.912ZM229.432 2H234.432V-3H229.432V2ZM224.432 48.08C224.432 51.315 223.695 52.6406 223.231 53.1332L230.513 59.9868C233.463 56.8528 234.432 52.525 234.432 48.08H224.432ZM223.282 53.0793C222.75 53.6286 221.787 54.2 219.672 54.2V64.2C223.743 64.2 227.581 63.0114 230.461 60.0407L223.282 53.0793ZM219.672 54.2C217.525 54.2 216.498 53.6142 215.9 52.9976L208.724 59.9624C211.646 62.9725 215.526 64.2 219.672 64.2V54.2ZM215.953 53.0532C215.479 52.5497 214.752 51.2389 214.752 48.08H204.752C204.752 52.4945 205.731 56.7836 208.671 59.9068L215.953 53.0532ZM214.752 48.08V2H204.752V48.08H214.752ZM209.752 7H215.272V-3H209.752V7ZM210.272 2V48.8H220.272V2H210.272ZM210.272 48.8C210.272 51.2332 210.689 53.9624 212.313 56.1873C214.15 58.7055 216.88 59.72 219.592 59.72V49.72C219.439 49.72 219.544 49.6944 219.779 49.802C220.043 49.9223 220.26 50.1138 220.391 50.2927C220.5 50.4417 220.462 50.4637 220.4 50.2082C220.337 49.9493 220.272 49.4988 220.272 48.8H210.272ZM219.592 59.72C222.304 59.72 225.033 58.7055 226.871 56.1873C228.494 53.9624 228.912 51.2332 228.912 48.8H218.912C218.912 49.4988 218.847 49.9493 218.784 50.2082C218.721 50.4637 218.684 50.4417 218.793 50.2927C218.923 50.1138 219.141 49.9223 219.404 49.802C219.64 49.6944 219.745 49.72 219.592 49.72V59.72ZM228.912 48.8V2H218.912V48.8H228.912ZM223.912 7H229.432V-3H223.912V7ZM224.432 2V48.08H234.432V2H224.432ZM236.227 3.76L232.395 0.548898L232.369 0.579737L232.344 0.610988L236.227 3.76ZM249.747 3.76L245.864 6.90901V6.90901L249.747 3.76ZM251.747 23.04L246.853 22.0202L246.832 22.1187L246.816 22.218L251.747 23.04ZM250.868 26.64L246.124 25.0589V25.0589L250.868 26.64ZM249.508 29.76L245.137 27.3318L245.084 27.4268L245.035 27.5239L249.508 29.76ZM247.988 32.56L243.678 30.0249L243.653 30.0666L243.63 30.1087L247.988 32.56ZM245.348 38L249.943 39.9696L249.953 39.9464L249.963 39.9231L245.348 38ZM244.148 46.32V51.32H249.148V46.32H244.148ZM238.708 46.32H233.708V51.32H238.708V46.32ZM239.107 40.08L234.211 39.067L234.197 39.1338L234.185 39.201L239.107 40.08ZM240.227 35.92L235.546 34.1644L235.525 34.2206L235.505 34.2774L240.227 35.92ZM241.747 32.4L237.366 29.9904L237.319 30.0763L237.275 30.1639L241.747 32.4ZM243.428 29.36L239.126 26.811L239.091 26.8709L239.057 26.9318L243.428 29.36ZM245.667 6.88L241.286 9.28959L241.359 9.4221L241.44 9.54995L245.667 6.88ZM240.227 6.72L236.067 3.9465L236.013 4.02858L235.961 4.11275L240.227 6.72ZM239.348 21.68V26.68H244.348V21.68H239.348ZM233.827 21.68H228.827V26.68H233.827V21.68ZM238.148 51.04V46.04H233.148V51.04H238.148ZM244.628 51.04H249.628V46.04H244.628V51.04ZM244.628 58V63H249.628V58H244.628ZM238.148 58H233.148V63H238.148V58ZM238.827 13.2C238.827 9.29519 239.588 7.55378 240.111 6.90901L232.344 0.610988C229.667 3.91288 228.827 8.4648 228.827 13.2H238.827ZM240.06 6.9711C240.643 6.27494 241.429 5.8 243.027 5.8V-4.2C238.866 -4.2 235.118 -2.70162 232.395 0.548898L240.06 6.9711ZM243.027 5.8C244.627 5.8 245.348 6.27238 245.864 6.90901L253.631 0.610988C250.947 -2.69906 247.188 -4.2 243.027 -4.2V5.8ZM245.864 6.90901C246.374 7.53777 247.148 9.31303 247.148 13.36H257.147C257.147 8.55363 256.321 3.92889 253.631 0.610987L245.864 6.90901ZM247.148 13.36V18.8H257.147V13.36H247.148ZM247.148 18.8C247.148 20.0643 247.038 21.1299 246.853 22.0202L256.642 24.0598C256.99 22.3901 257.147 20.629 257.147 18.8H247.148ZM246.816 22.218C246.641 23.2654 246.407 24.2096 246.124 25.0589L255.611 28.2211C256.074 26.8304 256.427 25.3745 256.679 23.862L246.816 22.218ZM246.124 25.0589C245.841 25.9073 245.509 26.6613 245.137 27.3318L253.878 32.1882C254.572 30.9387 255.147 29.6127 255.611 28.2211L246.124 25.0589ZM245.035 27.5239C244.605 28.3845 244.152 29.218 243.678 30.0249L252.297 35.0951C252.889 34.0887 253.45 33.0555 253.98 31.9961L245.035 27.5239ZM243.63 30.1087C242.568 31.9964 241.603 33.9871 240.732 36.0769L249.963 39.9231C250.692 38.1729 251.487 36.5369 252.345 35.0113L243.63 30.1087ZM240.752 36.0304C239.611 38.6921 239.148 41.7001 239.148 44.88H249.148C249.148 42.6199 249.484 41.0412 249.943 39.9696L240.752 36.0304ZM239.148 44.88V46.32H249.148V44.88H239.148ZM244.148 41.32H238.708V51.32H244.148V41.32ZM243.708 46.32V45.12H233.708V46.32H243.708ZM243.708 45.12C243.708 43.4836 243.825 42.105 244.03 40.959L234.185 39.201C233.857 41.0417 233.708 43.0231 233.708 45.12H243.708ZM244.004 41.093C244.289 39.716 244.608 38.5451 244.95 37.5626L235.505 34.2774C234.993 35.7482 234.566 37.3507 234.211 39.067L244.004 41.093ZM244.909 37.6756C245.336 36.5362 245.775 35.5257 246.22 34.6361L237.275 30.1639C236.654 31.4076 236.079 32.7438 235.546 34.1644L244.909 37.6756ZM246.129 34.8096C246.712 33.7485 247.269 32.7414 247.798 31.7882L239.057 26.9318C238.52 27.8986 237.956 28.9182 237.366 29.9904L246.129 34.8096ZM247.729 31.909C248.745 30.195 249.615 28.3533 250.349 26.3956L240.986 22.8844C240.44 24.34 239.817 25.645 239.126 26.811L247.729 31.909ZM250.349 26.3956C251.237 24.0279 251.628 21.4697 251.628 18.8H241.628C241.628 20.5037 241.378 21.8388 240.986 22.8844L250.349 26.3956ZM251.628 18.8V12.32H241.628V18.8H251.628ZM251.628 12.32C251.628 9.63976 251.362 6.53308 249.895 4.21004L241.44 9.54995C241.278 9.29361 241.362 9.29452 241.464 9.86892C241.557 10.3974 241.628 11.1943 241.628 12.32H251.628ZM250.049 4.4704C249.391 3.275 248.426 2.1605 247.083 1.37032C245.741 0.58132 244.302 0.279997 242.947 0.279997V10.28C242.819 10.28 242.447 10.2453 242.012 9.98967C241.576 9.73283 241.357 9.41833 241.286 9.28959L250.049 4.4704ZM242.947 0.279997C240.137 0.279997 237.653 1.56733 236.067 3.9465L244.388 9.4935C244.305 9.61725 244.095 9.86385 243.727 10.0589C243.362 10.2522 243.058 10.28 242.947 10.28V0.279997ZM235.961 4.11275C235.196 5.36543 234.833 6.75338 234.636 7.938C234.429 9.17846 234.348 10.5523 234.348 12H244.348C244.348 10.8877 244.413 10.1015 244.499 9.58199C244.595 9.00661 244.673 9.03457 244.494 9.32725L235.961 4.11275ZM234.348 12V21.68H244.348V12H234.348ZM239.348 16.68H233.827V26.68H239.348V16.68ZM238.827 21.68V13.2H228.827V21.68H238.827ZM238.148 56.04H244.628V46.04H238.148V56.04ZM239.628 51.04V58H249.628V51.04H239.628ZM244.628 53H238.148V63H244.628V53ZM243.148 58V51.04H233.148V58H243.148Z" fill="white"/>
</svg>
