<svg width="112" height="95" viewBox="0 0 112 95" fill="none" xmlns="http://www.w3.org/2000/svg">
<path d="M83.7551 31.8668C84.0425 31.7973 84.3126 31.7017 84.5739 31.58C85.0617 31.3541 85.6018 31.0153 85.7934 30.4853C85.8979 30.1986 85.8631 29.8771 85.8195 29.5817C85.7673 29.269 85.7063 28.9649 85.6453 28.6521C85.5234 28.0179 85.4014 27.3836 85.2795 26.7494C85.0356 25.4722 84.783 24.195 84.5303 22.9178C84.4171 22.3531 84.3474 21.7362 84.0948 21.2149C83.877 20.7718 83.4589 20.4677 82.9798 20.3722C82.4397 20.2592 81.8822 20.3374 81.3422 20.433C80.9763 20.4938 80.6192 20.5633 80.2533 20.6328C80.0791 20.6676 79.9049 20.7023 79.7219 20.7371C79.6697 20.7458 79.6174 20.7545 79.5564 20.7631L79.3561 18.9734C79.269 18.2001 78.8247 17.5051 78.154 17.1054C77.823 16.9056 77.5181 16.7752 77.2306 16.6884C77.1697 16.1671 77.1 15.6371 77.039 15.1158C76.8996 13.9255 76.7602 12.7352 76.6122 11.5536C76.4728 10.3807 76.3334 9.20776 76.194 8.03484C76.1418 7.57436 76.0808 7.10519 75.7759 6.7316C75.5146 6.41882 75.1313 6.25374 74.7393 6.19293C74.3125 6.13211 73.8944 6.15817 73.4675 6.21899C72.8752 6.29718 72.2829 6.38407 71.6905 6.46226C70.5145 6.62734 69.3473 6.79242 68.18 6.96618C67.9797 6.99225 67.788 7.027 67.5877 7.05306C67.5093 6.05391 67.4222 5.04607 67.3351 4.03824C67.2915 3.49087 67.2393 2.94351 67.1957 2.39615C67.1609 2.00518 67.1086 1.59683 66.8995 1.25799C66.6643 0.875706 66.2724 0.693253 65.8281 0.701941C65.2967 0.710629 64.7567 0.840953 64.234 0.919148C63.1451 1.07554 62.0563 1.24061 60.9674 1.397C56.6033 2.03993 52.2478 2.68287 47.8837 3.3258C43.5718 3.96873 39.2686 4.68117 34.9916 5.56737C33.9202 5.78458 32.8487 6.01916 31.7773 6.25374C30.9759 6.42751 30.1658 6.62734 29.4428 7.03569C28.7372 7.43535 28.1797 8.05222 27.9706 8.84285C27.7355 9.73774 27.9271 10.6848 28.1971 11.5449C28.4933 12.5267 28.8679 13.4824 29.1902 14.4555C29.5212 15.4546 29.8348 16.4625 30.1222 17.479C30.7059 19.5207 31.2111 21.5798 31.6466 23.6563C31.6989 23.8822 31.7425 24.1168 31.7947 24.3427C31.5421 24.5078 31.2634 24.725 30.9933 25.0117C30.4968 25.5504 30.2529 26.2889 30.34 27.01C30.3139 27.01 30.2877 27.01 30.2703 27.01C30.0787 27.0187 29.887 27.0361 29.7041 27.0621C29.3295 27.1056 28.955 27.1751 28.5978 27.262C27.8574 27.4444 27.1431 27.7051 26.455 28.0352C26.1675 28.1742 26.4201 28.5913 26.6989 28.461C27.3435 28.1482 28.0229 27.9049 28.7198 27.7225C29.0682 27.6356 29.4079 27.5574 29.7651 27.4879C29.9393 27.4531 30.1048 27.4271 30.279 27.401C30.3226 27.3923 30.3661 27.3923 30.4097 27.3836L30.6623 28.8519C30.4881 28.8259 30.3052 28.8519 30.1484 28.878C29.9219 28.9127 29.7041 28.9736 29.495 29.0518C29.0943 29.1908 28.6936 29.3732 28.3278 29.5817C28.0229 29.7642 27.718 30.0075 27.5612 30.3463C27.4828 30.5288 27.4567 30.7025 27.4654 30.9024C27.4741 30.9979 27.4393 31.1369 27.4654 31.2238C27.4915 31.3368 27.5874 31.4063 27.7006 31.4063C27.8139 31.3976 27.901 31.3368 27.9358 31.2238C27.9881 31.0587 27.9532 30.8937 27.9706 30.7373C27.9881 30.6156 28.0403 30.5114 28.11 30.4158C28.2755 30.1986 28.5369 30.0509 28.7808 29.9206C29.0943 29.7555 29.4254 29.5991 29.7651 29.4688C29.9393 29.408 30.1135 29.3472 30.2877 29.3124C30.4271 29.2777 30.5839 29.269 30.7233 29.2342L31.516 33.7869C30.5229 34.2995 29.9306 35.3855 30.1135 36.5584C30.34 38.0181 30.6013 39.4777 30.8452 40.9373C31.3679 44.0998 31.8993 47.2624 32.4219 50.4249C33.0055 53.935 33.5892 57.4363 34.1728 60.9464C34.5909 63.4399 35.0003 65.9335 35.4184 68.427C35.4881 68.8701 35.5578 69.3132 35.6362 69.7563C35.8975 71.242 37.3 72.1195 38.7547 71.8849C40.2007 71.6503 41.6554 71.4071 43.1014 71.1638C46.0457 70.6772 48.99 70.1907 51.943 69.7042C55.5057 69.1134 59.0685 68.5226 62.6399 67.9318C65.8978 67.3931 69.1644 66.8544 72.4222 66.3157C74.4693 65.9769 76.5076 65.6381 78.5547 65.2992C78.8334 65.2558 79.1209 65.2036 79.3996 65.1602C79.6174 65.1254 79.5216 64.7953 79.3038 64.83C78.1801 65.0125 77.0651 65.2036 75.9414 65.3861C73.1975 65.8379 70.4449 66.2984 67.7009 66.7502C64.2079 67.3236 60.7148 67.9057 57.2305 68.4791C53.8768 69.0352 50.5318 69.5912 47.1781 70.1386C44.8523 70.5209 42.5265 70.9118 40.2094 71.2941C39.7042 71.381 39.2077 71.4592 38.7024 71.5461C37.4045 71.7633 36.1937 70.964 35.9672 69.6433C35.7059 68.1316 35.462 66.6111 35.2094 65.0907C34.6867 61.9368 34.1554 58.783 33.6327 55.6379C33.0491 52.1539 32.4742 48.6699 31.8905 45.1772C31.4811 42.7184 31.0717 40.2509 30.6623 37.7922C30.5926 37.3491 30.5055 36.9146 30.4445 36.4715C30.2964 35.4811 30.8017 34.4819 31.7163 34.0475C31.9602 33.9346 32.2128 33.8737 32.4742 33.8303C33.8156 33.6044 35.1658 33.3872 36.5073 33.1613C39.2251 32.7095 41.9429 32.2577 44.6607 31.8059C45.7495 31.6235 46.8384 31.4497 47.9273 31.2673C47.9969 31.7364 48.0753 32.2056 48.145 32.6748C48.1886 33.0049 48.0318 33.2829 47.7008 33.3611C47.6311 33.3785 47.5701 33.3872 47.5004 33.4046C46.5422 33.6044 45.5753 33.8042 44.6171 34.0041C43.2147 34.2908 41.8122 34.5862 40.4011 34.8729C39.469 35.064 38.5369 35.2552 37.6049 35.4463C37.5526 35.455 37.4916 35.4637 37.4394 35.4811C37.0474 35.5766 36.7512 35.9068 36.7338 36.3151C36.7077 36.7843 37.0909 37.1058 37.4045 37.3925C37.9707 37.9138 38.5979 38.3656 39.2599 38.7652C40.2007 39.33 41.2112 39.7818 42.2478 40.1554C43.6415 40.6506 45.0875 40.9981 46.5509 41.2327C48.4935 41.5542 50.4621 41.6845 52.4308 41.7019C54.835 41.7192 57.2479 41.5802 59.6434 41.2935C60.0876 41.2414 60.5232 41.1719 60.9587 41.0937C61.9953 40.9112 63.0232 40.6767 64.0337 40.4073C65.41 40.0424 66.7776 39.5906 68.1016 39.0606C69.5999 38.4525 71.0546 37.74 72.4135 36.8625C73.7985 35.9676 75.0878 34.9076 76.1505 33.6565C76.6906 33.0136 77.1784 32.3272 77.5878 31.5974C77.6923 31.415 77.7881 31.2238 77.8839 31.0414C77.9798 30.8502 78.093 30.6504 78.1191 30.4332C78.1801 29.9901 77.8839 29.547 77.4397 29.4427C77.2132 29.3906 76.9519 29.434 76.7167 29.4601C76.2724 29.5035 75.8282 29.5383 75.3839 29.5817C74.0163 29.7034 72.6574 29.825 71.2898 29.9466C70.0267 30.0596 68.7724 30.1725 67.5093 30.2855C67.187 30.3116 66.8647 30.3463 66.5337 30.3724C66.4291 30.3811 66.3333 30.3898 66.2288 30.3724C65.8978 30.2942 65.8281 29.9988 65.7497 29.7208C65.6277 29.269 65.5058 28.8259 65.3838 28.3741C65.41 28.3741 65.4274 28.3654 65.4535 28.3654C68.3543 27.8875 71.255 27.401 74.147 26.9231C75.7933 26.6538 77.4397 26.3758 79.0948 26.1064C79.8352 25.9848 80.5495 25.95 81.2202 26.4192C82.1 27.0274 82.1697 27.9831 82.3178 28.9301C82.7707 31.832 83.2237 34.7426 83.6767 37.6445C84.1558 40.7201 84.6349 43.7871 85.114 46.8627C85.1924 47.3753 85.2708 47.8879 85.3579 48.4092C85.3927 48.6264 85.7237 48.5309 85.6889 48.3136C85.384 46.3675 85.0791 44.4213 84.7742 42.4751C84.2342 39.0259 83.6941 35.5766 83.1627 32.1361C83.154 32.0753 83.1453 32.0058 83.1366 31.945C83.3457 31.9623 83.5547 31.9189 83.7551 31.8668ZM31.0195 19.1124C30.5055 17.1141 29.9219 15.1418 29.2599 13.1957C28.955 12.2921 28.5804 11.3972 28.4149 10.4589C28.2668 9.64217 28.3278 8.73859 28.8853 8.08697C29.3905 7.49617 30.1484 7.18339 30.8888 6.97487C31.8034 6.71422 32.7442 6.55783 33.6676 6.36669C37.8139 5.51524 41.9864 4.78543 46.1764 4.15118C50.4011 3.51694 54.6259 2.91745 58.8507 2.30058C60.9761 1.9878 63.1103 1.67503 65.2358 1.36225C65.6016 1.31012 66.1068 1.17111 66.3682 1.51864C66.5859 1.81404 66.6034 2.23108 66.6382 2.5873C66.734 3.64726 66.8298 4.71592 66.9257 5.77589C66.9692 6.23637 67.0128 6.69685 67.065 7.14864C65.0964 7.43535 63.1364 7.73075 61.1678 8.03484C56.49 8.75597 51.821 9.51184 47.152 10.2851C42.4655 11.0584 37.7878 11.849 33.1013 12.6396C32.8139 12.6917 32.5351 12.7352 32.2477 12.7873C32.0212 12.8221 31.786 12.8481 31.5769 12.9437C31.0978 13.1609 31.0978 13.6214 31.2721 14.0558C31.6641 15.0723 31.9951 16.1149 32.2477 17.1749C32.7529 19.3209 32.9446 21.5277 32.8574 23.7259C32.8574 23.7867 32.8487 23.8562 32.8487 23.917C32.7965 23.917 32.7442 23.9257 32.6919 23.9431C32.5351 23.9865 32.3609 24.0473 32.1606 24.1516C31.8557 22.4487 31.4463 20.7718 31.0195 19.1124ZM65.4274 29.8424C65.5058 30.1117 65.5755 30.3724 65.8194 30.5548C66.011 30.6938 66.2375 30.746 66.464 30.7286C67.248 30.6678 68.0232 30.5896 68.8072 30.5201C70.201 30.3984 71.6034 30.2681 72.9971 30.1465C74.1557 30.0422 75.3055 29.938 76.4641 29.8337C76.6906 29.8163 76.917 29.7903 77.1435 29.7729C77.4832 29.7468 77.8055 29.9988 77.7794 30.3637C77.762 30.5722 77.6313 30.772 77.5355 30.9545C77.4397 31.1456 77.3439 31.3281 77.2393 31.5105C76.4292 32.9441 75.3229 34.1778 74.0599 35.2291C72.8055 36.2717 71.4118 37.1318 69.9483 37.8617C68.5894 38.5393 67.1696 39.0954 65.7236 39.5559C64.5389 39.9382 63.3455 40.2509 62.1347 40.5116C61.403 40.668 60.6713 40.807 59.9308 40.9112C59.8873 40.9199 59.835 40.9286 59.7915 40.9286H59.7827H59.774C59.7566 40.9286 59.7392 40.9286 59.7218 40.9373C59.6956 40.9373 59.6608 40.946 59.6347 40.946C58.3716 41.0937 57.1085 41.198 55.8367 41.2675C53.6242 41.3891 51.3942 41.3891 49.1816 41.198C47.5091 41.0503 45.8366 40.7983 44.2077 40.3726C42.9969 40.0598 41.8035 39.6514 40.6798 39.1128C39.861 38.7218 39.077 38.27 38.354 37.7226C38.1014 37.5315 37.8401 37.3143 37.6049 37.0884C37.5003 36.9928 37.4045 36.8973 37.3 36.793C37.0648 36.5497 36.969 36.1935 37.2477 35.9329C37.4219 35.7678 37.7268 35.7504 37.9533 35.707C38.3976 35.6201 38.8331 35.5245 39.2774 35.4376C40.6101 35.1596 41.9342 34.8903 43.2669 34.6122C44.4778 34.3603 45.6798 34.117 46.8907 33.8651C47.1781 33.8042 47.4569 33.7521 47.7443 33.6913C47.936 33.6479 48.1102 33.5783 48.2496 33.4393C48.5022 33.1874 48.537 32.8659 48.4847 32.5271C48.4151 32.084 48.3454 31.6322 48.2757 31.1891C50.5144 30.8155 52.7444 30.4506 54.9831 30.077C56.6468 29.799 58.3106 29.5296 59.9744 29.2516C60.0354 29.2863 60.1138 29.269 60.1747 29.2168C61.8037 28.9475 63.4326 28.6782 65.0615 28.4088C65.1748 28.9041 65.2967 29.3732 65.4274 29.8424ZM53.6939 28.3654C53.7723 28.1656 53.8681 27.9831 53.9987 27.818C54.0858 27.7051 54.2165 27.5139 54.3559 27.4618C54.6608 27.3575 54.7043 27.7746 54.7479 27.9657C54.8437 28.3393 54.9482 28.7216 55.044 29.0952C55.0963 29.3037 55.1573 29.5122 55.2095 29.7294C54.6433 29.825 54.0771 29.9206 53.5196 30.0075C53.4674 29.4514 53.4935 28.8867 53.6939 28.3654ZM58.119 27.4444C58.119 27.2533 58.0319 26.8536 58.2671 26.7667C58.4239 26.7059 58.6155 26.8623 58.7462 26.9492C58.9117 27.0621 59.051 27.2012 59.1817 27.3575C59.5563 27.8093 59.7566 28.3828 59.8611 28.9475C59.2949 29.0431 58.7287 29.1386 58.1625 29.2255C58.1364 28.6347 58.1277 28.0439 58.119 27.4444ZM70.0442 27.262C66.7602 27.8093 63.4762 28.348 60.1922 28.8954C60.0876 28.3046 59.8873 27.7225 59.5214 27.2446C59.3733 27.0535 59.2165 26.8797 59.0249 26.732C58.8681 26.6104 58.6939 26.48 58.5023 26.4279C58.1974 26.341 57.8664 26.5322 57.7792 26.8362C57.7531 26.9405 57.7618 27.0535 57.7618 27.1577C57.7705 27.5661 57.7793 27.9657 57.788 28.3741C57.7967 28.6782 57.7967 28.9823 57.8054 29.2863C57.0562 29.408 56.3071 29.5383 55.558 29.6599C55.3925 29.0431 55.2357 28.4262 55.0702 27.8006C55.044 27.7138 55.0266 27.6182 55.0005 27.5313C54.9221 27.2794 54.713 27.0969 54.443 27.0969C53.9987 27.0882 53.6503 27.6529 53.4848 27.9918C53.1712 28.626 53.1102 29.3558 53.1886 30.0509C51.9081 30.2594 50.6276 30.4766 49.3471 30.6852C46.1764 31.2064 43.0056 31.7364 39.8349 32.2577C38.1624 32.5358 36.4986 32.8138 34.8261 33.0831L33.4324 24.4209C33.4062 24.2732 33.3278 24.1342 33.2059 24.0386C33.3714 22.3792 33.2756 20.6936 33.0491 19.0516C32.901 18.0003 32.6832 16.9577 32.3871 15.9412C32.239 15.4286 32.0822 14.9246 31.8993 14.4294C31.8121 14.1861 31.6902 13.9342 31.6292 13.6822C31.5595 13.4129 31.7425 13.3521 31.9689 13.2999C32.509 13.1783 33.0665 13.1088 33.6066 13.0219C34.1728 12.9263 34.7477 12.8308 35.3139 12.7352C36.455 12.544 37.5874 12.3529 38.7286 12.1618C41.0021 11.7795 43.2757 11.4059 45.5492 11.0236C50.0963 10.2764 54.652 9.53791 59.2078 8.83416C63.7636 8.13041 68.3281 7.45272 72.8926 6.81848C73.6069 6.72291 74.7916 6.41013 75.3491 7.05306C75.6627 7.40928 75.654 7.9914 75.7062 8.44319C75.7759 9.01661 75.8456 9.59004 75.9066 10.1548C76.1592 12.2921 76.4118 14.4381 76.6644 16.5754C76.5076 16.5493 76.3595 16.5493 76.2376 16.5493C76.2289 16.5493 76.2289 16.5493 76.2202 16.5493C76.046 16.5493 75.8804 16.6275 75.7672 16.7579C75.654 16.8882 75.6017 17.0619 75.6191 17.2357L76.7341 26.1499C74.5128 26.5235 72.2741 26.8971 70.0442 27.262ZM82.6227 28.626C82.5878 28.3828 82.5443 28.1395 82.5094 27.8875C82.3788 27.0969 81.9084 26.4018 81.2115 26.0022C80.8631 25.8023 80.4798 25.6981 80.0878 25.672L79.5826 21.1194C79.6 21.1194 79.6174 21.1107 79.6348 21.1107C79.7829 21.0933 79.9397 21.0672 80.0878 21.0499C80.384 21.0064 80.6888 20.963 80.985 20.9195C81.4728 20.8413 81.9606 20.7458 82.4484 20.7631C82.8491 20.7718 83.2847 20.8761 83.5373 21.2149C83.8335 21.6059 83.877 22.1706 83.9554 22.6398C84.1732 23.8388 84.3997 25.0291 84.6349 26.2194C84.7481 26.8102 84.8614 27.3923 84.9746 27.9831C85.0878 28.5652 85.2185 29.156 85.3143 29.7468C85.3579 30.0075 85.3579 30.2942 85.1924 30.5201C85.0356 30.7373 84.783 30.885 84.5478 31.0153C84.2951 31.1543 84.0338 31.2673 83.7551 31.3455C83.5286 31.4063 83.2934 31.4237 83.0669 31.4845C82.9188 30.5288 82.7707 29.5731 82.6227 28.626Z" fill="black"/>
<path d="M82.8664 44.291C82.8142 43.8044 82.7619 43.3179 82.7009 42.8313C82.64 42.2927 82.457 41.8061 82.0302 41.4412C81.525 41.0068 80.9065 40.9286 80.2793 41.0242C79.957 41.0763 79.626 41.1198 79.3037 41.1719C77.9622 41.3717 76.6208 41.5629 75.2793 41.7627C73.2496 42.0581 71.2287 42.3622 69.1991 42.6576C66.7775 43.0138 64.3471 43.37 61.9255 43.7262C59.3819 44.0998 56.8384 44.4734 54.2948 44.847C51.9429 45.1946 49.5822 45.5421 47.2303 45.8896C45.3226 46.1676 43.4149 46.4544 41.5072 46.7324C40.3574 46.8975 39.2076 47.0712 38.049 47.2363C37.8399 47.271 37.6309 47.2971 37.4218 47.3319C36.3417 47.5056 35.6535 48.5048 35.8016 49.5648C36.002 50.9723 36.2197 52.3797 36.4288 53.7872C36.7946 56.246 37.1605 58.7048 37.5176 61.1636C37.7616 62.8057 38.0055 64.4477 38.2494 66.0898C38.2842 66.2983 38.319 66.5069 38.3974 66.7067C38.7197 67.48 39.5299 67.9752 40.3661 67.8883C40.5665 67.8709 40.7668 67.8275 40.9759 67.8014C42.2041 67.619 43.4236 67.4365 44.6518 67.2627C46.7076 66.9587 48.7634 66.6546 50.8191 66.3592C53.3105 65.9943 55.7931 65.6294 58.2844 65.2644C60.7583 64.8995 63.2234 64.5346 65.6973 64.1697C67.7618 63.8656 69.8263 63.5615 71.8908 63.2575C73.1103 63.075 74.3298 62.9012 75.5406 62.7188C75.7061 62.6927 75.8629 62.6667 76.0284 62.6493C76.2462 62.6145 76.1504 62.2844 75.9326 62.3191C75.2793 62.4147 74.6347 62.5103 73.9814 62.6058C72.3002 62.8491 70.6277 63.1011 68.9465 63.3443C66.6555 63.6832 64.3646 64.022 62.0736 64.3522C59.5736 64.7171 57.0736 65.0907 54.5735 65.4556C52.2564 65.7944 49.9481 66.1333 47.631 66.4808C45.9236 66.7328 44.2163 66.9847 42.509 67.2367C41.8034 67.3409 41.0978 67.4626 40.3922 67.5495C39.6605 67.6363 38.9288 67.2106 38.6849 66.5069C38.6239 66.3331 38.6065 66.1593 38.5804 65.9856C38.4933 65.3861 38.4062 64.7866 38.319 64.1958C37.988 61.9368 37.6483 59.6692 37.3173 57.4103C36.995 55.2556 36.6814 53.1096 36.3591 50.9549C36.2894 50.477 36.211 49.9905 36.1413 49.5126C36.0194 48.6004 36.6291 47.8184 37.5351 47.6794C38.2406 47.5751 38.9462 47.4709 39.6431 47.3666C41.2023 47.1407 42.7703 46.9061 44.3295 46.6802C46.4724 46.3675 48.624 46.046 50.7669 45.7332C53.2321 45.3683 55.6972 45.0121 58.1537 44.6472C60.645 44.2823 63.1276 43.9174 65.6189 43.5525C67.8576 43.2223 70.105 42.8922 72.3437 42.562C74.0685 42.31 75.7932 42.0581 77.5267 41.7974C78.45 41.6584 79.3734 41.5281 80.2967 41.3891C80.7933 41.3196 81.2811 41.337 81.7166 41.6671C82.1522 41.9973 82.3002 42.4664 82.3525 42.979C82.4135 43.4917 82.4658 43.9956 82.5267 44.5082C82.6225 45.3683 82.7184 46.2285 82.8142 47.0886C82.8403 47.3058 83.18 47.3058 83.1626 47.0886C83.0755 46.1242 82.971 45.2032 82.8664 44.291Z" fill="black"/>
<path d="M42.1518 51.2677C42.1518 51.259 42.1518 51.2503 42.1518 51.2503C42.1518 51.2416 42.1518 51.2329 42.1518 51.2329C42.1344 50.4944 41.5682 49.921 40.8887 49.7038C40.157 49.4779 39.2859 49.643 38.7458 50.199C38.2493 50.7116 38.1535 51.5109 38.5803 52.1017C39.042 52.736 39.8608 52.9879 40.61 52.8663C41.4114 52.7273 42.1344 52.1104 42.1518 51.2677ZM40.758 52.4753C40.1657 52.6491 39.4601 52.5275 39.0159 52.0844C38.5978 51.676 38.5281 51.0504 38.8765 50.5726C39.2424 50.0774 39.9218 49.8688 40.5229 49.9644C41.1762 50.0687 41.8034 50.5465 41.8121 51.2503C41.8034 51.8498 41.3155 52.3103 40.758 52.4753Z" fill="black"/>
<path d="M43.1711 56.8195C43.9725 56.6891 44.6868 56.0636 44.7129 55.2295C44.7129 55.2208 44.7129 55.2121 44.7129 55.2121C44.7129 55.2034 44.7129 55.1948 44.7129 55.1948C44.6955 54.4563 44.1293 53.8828 43.4499 53.6656C42.7182 53.4397 41.8471 53.6048 41.307 54.1608C40.8105 54.6735 40.7147 55.4728 41.1415 56.0636C41.5945 56.6891 42.4133 56.9411 43.1711 56.8195ZM41.4377 54.5258C41.8035 54.0305 42.483 53.822 43.084 53.9176C43.7373 54.0218 44.3645 54.4997 44.3732 55.2034C44.3645 55.8116 43.8854 56.2721 43.3279 56.4285C42.7356 56.6023 42.03 56.4806 41.5857 56.0375C41.1589 55.6292 41.0892 55.0036 41.4377 54.5258Z" fill="black"/>
<path d="M45.2444 61.0941C46.0458 60.9638 46.7601 60.3382 46.7862 59.5041C46.7862 59.4954 46.7862 59.4868 46.7862 59.4868C46.7862 59.4781 46.7862 59.4694 46.7862 59.4694C46.7688 58.7309 46.2026 58.1575 45.5231 57.9402C44.7914 57.7144 43.9203 57.8794 43.3802 58.4355C42.8837 58.9481 42.7879 59.7474 43.2147 60.3382C43.6677 60.9638 44.4865 61.2157 45.2444 61.0941ZM43.5109 58.8004C43.8768 58.3052 44.5562 58.0966 45.1573 58.1922C45.8106 58.2965 46.4378 58.7743 46.4465 59.4781C46.4378 60.0862 45.9587 60.5467 45.4012 60.7031C44.8088 60.8769 44.1032 60.7552 43.659 60.3121C43.2322 59.9038 43.1538 59.2782 43.5109 58.8004Z" fill="black"/>
<path d="M49.896 60.5207C50.6974 60.3903 51.4117 59.7648 51.4378 58.9307C51.4378 58.922 51.4378 58.9133 51.4378 58.9133C51.4378 58.9046 51.4378 58.896 51.4378 58.896C51.4204 58.1575 50.8542 57.584 50.1747 57.3668C49.443 57.1409 48.5719 57.306 48.0319 57.8621C47.5353 58.3747 47.4395 59.174 47.8663 59.7648C48.3193 60.3903 49.1468 60.6423 49.896 60.5207ZM48.1625 58.227C48.5284 57.7317 49.2078 57.5232 49.8089 57.6188C50.4622 57.723 51.0894 58.2009 51.0981 58.9046C51.0894 59.5128 50.6103 59.9733 50.0528 60.1297C49.4604 60.3035 48.7548 60.1818 48.3106 59.7387C47.8838 59.3304 47.8141 58.7048 48.1625 58.227Z" fill="black"/>
<path d="M55.0353 56.776C54.3036 56.5501 53.4325 56.7152 52.8924 57.2713C52.3959 57.7839 52.3001 58.5832 52.7269 59.174C53.1886 59.8082 54.0074 60.0602 54.7566 59.9385C55.558 59.8082 56.2723 59.1827 56.2984 58.3486C56.2984 58.3399 56.2984 58.3312 56.2984 58.3312C56.2984 58.3225 56.2984 58.3138 56.2984 58.3138C56.281 57.5753 55.7148 56.9932 55.0353 56.776ZM54.9047 59.5563C54.3123 59.73 53.6067 59.6084 53.1625 59.1653C52.7444 58.7569 52.6747 58.1314 53.0231 57.6535C53.389 57.1583 54.0684 56.9498 54.6695 57.0454C55.3228 57.1496 55.95 57.6275 55.9587 58.3312C55.9413 58.9394 55.4622 59.3912 54.9047 59.5563Z" fill="black"/>
<path d="M59.5214 55.8637C58.7897 55.6379 57.9186 55.8029 57.3785 56.359C56.882 56.8716 56.7862 57.6709 57.213 58.2617C57.6747 58.8959 58.4935 59.1479 59.2427 59.0263C60.0441 58.8959 60.7583 58.2704 60.7845 57.4363C60.7845 57.4276 60.7845 57.4189 60.7845 57.4189C60.7845 57.4103 60.7845 57.4016 60.7845 57.4016C60.7583 56.6544 60.2009 56.081 59.5214 55.8637ZM59.3907 58.644C58.7984 58.8178 58.0928 58.6961 57.6486 58.253C57.2304 57.8447 57.1608 57.2191 57.5092 56.7413C57.875 56.246 58.5545 56.0375 59.1555 56.1331C59.8089 56.2373 60.436 56.7152 60.4448 57.4189C60.4273 58.0184 59.9482 58.4789 59.3907 58.644Z" fill="black"/>
<path d="M64.0075 55.2903C63.2758 55.0644 62.4047 55.2295 61.8646 55.7856C61.3681 56.2982 61.2723 57.0975 61.6991 57.6883C62.1608 58.3225 62.9796 58.5745 63.7287 58.4529C64.5301 58.3225 65.2444 57.697 65.2706 56.8629C65.2706 56.8542 65.2706 56.8455 65.2706 56.8455C65.2706 56.8368 65.2706 56.8281 65.2706 56.8281C65.2444 56.081 64.6869 55.5075 64.0075 55.2903ZM63.8768 58.0706C63.2845 58.2443 62.5789 58.1227 62.1346 57.6796C61.7165 57.2712 61.6468 56.6457 61.9953 56.1678C62.3611 55.6726 63.0406 55.4641 63.6416 55.5597C64.2949 55.6639 64.9221 56.1418 64.9308 56.8455C64.9134 57.445 64.4343 57.9055 63.8768 58.0706Z" fill="black"/>
<path d="M68.7026 54.6995C69.1642 54.8646 69.6433 55.2556 69.6869 55.7769C69.7043 55.9941 70.0528 55.9941 70.0353 55.7769C69.9395 54.6126 68.5284 54.0479 67.5179 54.3433C67.0127 54.491 66.551 54.8385 66.3158 55.3164C66.0545 55.8724 66.2113 56.498 66.612 56.9411C67.152 57.5493 67.9883 57.6535 68.7374 57.4798C68.9552 57.4276 68.8594 57.0975 68.6416 57.1496C68.0754 57.2886 67.4743 57.2452 67.004 56.8629C66.6294 56.5588 66.4203 56.0462 66.5771 55.577C66.8559 54.7343 67.936 54.4302 68.7026 54.6995Z" fill="black"/>
<path d="M73.6941 55.9854C73.5373 56.1418 73.7812 56.385 73.938 56.2287C74.3213 55.8551 74.5216 55.3077 74.3997 54.7777C74.2951 54.3346 73.9816 53.9697 73.5896 53.7525C72.7795 53.3007 71.6993 53.405 71.046 54.074C70.654 54.4736 70.4972 55.021 70.6627 55.5597C70.7237 55.7682 71.0634 55.6813 70.9937 55.4641C70.7411 54.6561 71.438 53.9697 72.1958 53.8394C72.8753 53.7177 73.7115 54.0045 73.999 54.6648C74.1993 55.1339 74.0512 55.6379 73.6941 55.9854Z" fill="black"/>
<path d="M76.7079 56.0549C76.9257 56.0983 77.0128 55.7682 76.8038 55.7247C76.2985 55.6118 75.741 55.3859 75.5494 54.8646C75.3752 54.4041 75.471 53.8394 75.8891 53.544C76.0721 53.4137 75.8978 53.1183 75.7149 53.2486C75.1835 53.6309 74.9919 54.3085 75.201 54.9167C75.4274 55.5857 76.0633 55.9159 76.7079 56.0549Z" fill="black"/>
<path d="M48.145 56.0462C48.9464 55.9159 49.6607 55.2903 49.6868 54.4562C49.6868 54.4476 49.6868 54.4389 49.6868 54.4389C49.6868 54.4302 49.6868 54.4215 49.6868 54.4215C49.6694 53.683 49.1032 53.1096 48.4237 52.8924C47.692 52.6665 46.8209 52.8315 46.2809 53.3876C45.7844 53.9002 45.6885 54.6995 46.1154 55.2903C46.5683 55.9159 47.3872 56.1678 48.145 56.0462ZM46.5509 55.2643C46.1328 54.8559 46.0631 54.2303 46.4115 53.7525C46.7774 53.2573 47.4568 53.0487 48.0579 53.1443C48.7112 53.2486 49.3384 53.7264 49.3471 54.4302C49.3384 55.0384 48.8593 55.4988 48.3018 55.6552C47.7007 55.829 46.9952 55.7074 46.5509 55.2643Z" fill="black"/>
<path d="M51.1328 52.6578C50.6363 53.1704 50.5405 53.9697 50.9673 54.5605C51.429 55.1948 52.2478 55.4467 52.9969 55.3251C53.7983 55.1948 54.5126 54.5692 54.5388 53.7351C54.5388 53.7264 54.5388 53.7177 54.5388 53.7177C54.5388 53.7091 54.5388 53.7004 54.5388 53.7004C54.5213 52.9619 53.9551 52.3884 53.2757 52.1712C52.5527 51.9367 51.6729 52.1017 51.1328 52.6578ZM54.199 53.7091C54.1903 54.3172 53.7112 54.7777 53.1537 54.9341C52.5614 55.1079 51.8558 54.9862 51.4116 54.5431C50.9934 54.1348 50.9237 53.5092 51.2722 53.0314C51.638 52.5361 52.3175 52.3276 52.9185 52.4232C53.5631 52.5361 54.1903 53.014 54.199 53.7091Z" fill="black"/>
<path d="M56.2288 53.5614C56.6904 54.1956 57.5093 54.4476 58.2584 54.3259C59.0598 54.1956 59.7741 53.57 59.8002 52.736C59.8002 52.7273 59.8002 52.7186 59.8002 52.7186C59.8002 52.7099 59.8002 52.7012 59.8002 52.7012C59.7828 51.9627 59.2166 51.3893 58.5371 51.1721C57.8054 50.9462 56.9344 51.1113 56.3943 51.6673C55.8978 52.1712 55.8019 52.9706 56.2288 53.5614ZM58.1713 51.424C58.8246 51.5283 59.4518 52.0062 59.4605 52.7099C59.4518 53.3181 58.9727 53.7786 58.4152 53.935C57.8229 54.1087 57.1173 53.9871 56.673 53.544C56.2549 53.1356 56.1852 52.5101 56.5336 52.0322C56.8908 51.537 57.579 51.3285 58.1713 51.424Z" fill="black"/>
<path d="M61.2025 52.9879C61.6642 53.6222 62.483 53.8741 63.2322 53.7525C64.0336 53.6222 64.7478 52.9966 64.774 52.1626C64.774 52.1539 64.774 52.1452 64.774 52.1452C64.774 52.1365 64.774 52.1278 64.774 52.1278C64.7566 51.3893 64.1904 50.8159 63.5109 50.5987C62.7792 50.3728 61.9081 50.5378 61.368 51.0939C60.8715 51.5978 60.7757 52.3971 61.2025 52.9879ZM63.1451 50.8506C63.7984 50.9549 64.4255 51.4327 64.4343 52.1365C64.4255 52.7447 63.9465 53.2051 63.389 53.3615C62.7966 53.5353 62.091 53.4137 61.6468 52.9706C61.2287 52.5622 61.159 51.9367 61.5074 51.4588C61.8645 50.9636 62.5527 50.7551 63.1451 50.8506Z" fill="black"/>
<path d="M65.9152 52.3276C66.3768 52.9619 67.1957 53.2138 67.9448 53.0922C68.7462 52.9619 69.4605 52.3363 69.4866 51.5022C69.4866 51.4936 69.4866 51.4849 69.4866 51.4849C69.4866 51.4762 69.4866 51.4675 69.4866 51.4675C69.4692 50.729 68.903 50.1556 68.2236 49.9384C67.4918 49.7125 66.6207 49.8775 66.0807 50.4336C65.5842 50.9375 65.4883 51.7368 65.9152 52.3276ZM67.8577 50.1903C68.511 50.2946 69.1382 50.7724 69.1469 51.4762C69.1382 52.0844 68.6591 52.5448 68.1016 52.7012C67.5093 52.875 66.8037 52.7534 66.3594 52.3103C65.9413 51.9019 65.8716 51.2763 66.2201 50.7985C66.5772 50.3033 67.2654 50.0947 67.8577 50.1903Z" fill="black"/>
<path d="M74.3822 51.537C73.7463 52.0322 72.7794 52.1017 72.1086 51.6326C71.7341 51.3719 71.5511 50.9723 71.5511 50.5205C71.5511 50.3293 71.5599 50.1034 71.6731 49.9383C71.7689 49.7906 71.9344 49.7038 72.0912 49.6429C72.3003 49.5648 72.2045 49.2346 71.9954 49.3128C71.6557 49.4344 71.3595 49.6516 71.2637 50.0079C71.1504 50.4075 71.1766 50.9027 71.3595 51.2763C71.7166 52.0148 72.6052 52.3537 73.3978 52.2668C73.8508 52.2147 74.2602 52.0496 74.6174 51.7629C74.8003 51.6412 74.5564 51.398 74.3822 51.537Z" fill="black"/>
<path d="M45.6712 52.2581C46.4726 52.1278 47.1869 51.5022 47.2131 50.6682C47.2131 50.6595 47.2131 50.6508 47.2131 50.6508C47.2131 50.6421 47.2131 50.6334 47.2131 50.6334C47.1956 49.8949 46.6294 49.3215 45.95 49.1043C45.2183 48.8784 44.3472 49.0435 43.8071 49.5995C43.3106 50.1121 43.2148 50.9114 43.6416 51.5022C44.0946 52.1278 44.9221 52.3884 45.6712 52.2581ZM43.9378 49.9644C44.3036 49.4692 44.9831 49.2607 45.5841 49.3562C46.2375 49.4605 46.8646 49.9383 46.8733 50.6421C46.8646 51.2503 46.3855 51.7108 45.828 51.8671C45.2357 52.0409 44.5301 51.9193 44.0859 51.4762C43.659 51.0678 43.5893 50.4423 43.9378 49.9644Z" fill="black"/>
<path d="M52.0998 49.7385C52.0824 49 51.5162 48.4266 50.8367 48.2094C50.105 47.9835 49.2339 48.1486 48.6938 48.7046C48.1973 49.2172 48.1015 50.0165 48.5283 50.6073C48.99 51.2416 49.8088 51.4936 50.558 51.3719C51.3594 51.2416 52.0737 50.616 52.0998 49.782C52.0998 49.7733 52.0998 49.7646 52.0998 49.7646C52.0998 49.7472 52.0998 49.7385 52.0998 49.7385ZM50.706 50.9809C50.1137 51.1547 49.4081 51.0331 48.9639 50.59C48.5458 50.1816 48.4761 49.5561 48.8245 49.0782C49.1904 48.583 49.8698 48.3745 50.4709 48.47C51.1242 48.5743 51.7514 49.0521 51.7601 49.7559C51.7514 50.3641 51.2635 50.8246 50.706 50.9809Z" fill="black"/>
<path d="M56.9343 49.1303C56.9168 48.3918 56.3506 47.8184 55.6712 47.6012C54.9395 47.3753 54.0684 47.5404 53.5283 48.0964C53.0318 48.609 52.936 49.4084 53.3628 49.9992C53.8245 50.6334 54.6433 50.8854 55.3924 50.7637C56.1938 50.6334 56.9081 50.0079 56.9343 49.1738C56.9343 49.1651 56.9343 49.1564 56.9343 49.1564C56.9343 49.1477 56.9343 49.139 56.9343 49.1303ZM55.5405 50.3815C54.9482 50.5552 54.2426 50.4336 53.7983 49.9905C53.3802 49.5821 53.3105 48.9566 53.659 48.4787C54.0248 47.9835 54.7043 47.775 55.3053 47.8705C55.9586 47.9748 56.5858 48.4527 56.5945 49.1564C56.5771 49.7646 56.098 50.2164 55.5405 50.3815Z" fill="black"/>
<path d="M61.5597 48.2441C61.5423 47.5056 60.9761 46.9322 60.2967 46.715C59.565 46.4891 58.6939 46.6542 58.1538 47.2102C57.6573 47.7228 57.5615 48.5222 57.9883 49.113C58.45 49.7472 59.2688 49.9992 60.0179 49.8775C60.8193 49.7472 61.5336 49.1217 61.5597 48.2876C61.5597 48.2789 61.5597 48.2702 61.5597 48.2702C61.5597 48.2615 61.5597 48.2528 61.5597 48.2441ZM60.166 49.4952C59.5737 49.669 58.8681 49.5474 58.4238 49.1043C58.0057 48.6959 57.936 48.0704 58.2845 47.5925C58.6503 47.0973 59.3298 46.8888 59.9308 46.9843C60.5841 47.0886 61.2113 47.5665 61.22 48.2702C61.2026 48.8697 60.7235 49.3302 60.166 49.4952Z" fill="black"/>
<path d="M66.5337 47.6446C66.5163 46.9061 65.9501 46.3327 65.2707 46.1155C64.539 45.8896 63.6679 46.0547 63.1278 46.6107C62.6313 47.1234 62.5355 47.9227 62.9623 48.5135C63.424 49.1477 64.2428 49.3997 64.9919 49.278C65.7933 49.1477 66.5076 48.5222 66.5337 47.6881C66.5337 47.6794 66.5337 47.6707 66.5337 47.6707C66.5337 47.6533 66.5337 47.6533 66.5337 47.6446ZM65.14 48.8958C64.5477 49.0695 63.8421 48.9479 63.3978 48.5048C62.9797 48.0964 62.91 47.4709 63.2585 46.993C63.6243 46.4978 64.3038 46.2893 64.9048 46.3848C65.5581 46.4891 66.1853 46.967 66.194 47.6707C66.1766 48.2702 65.6975 48.7307 65.14 48.8958Z" fill="black"/>
<path d="M68.2759 45.7593C68.7462 45.4552 69.3473 45.3944 69.8699 45.5768C70.3926 45.7593 70.8369 46.2024 70.8456 46.7845C70.8456 47.0017 71.194 47.0104 71.194 46.7845C71.1853 46.159 70.7846 45.6203 70.2271 45.3509C69.626 45.0642 68.903 45.0642 68.302 45.3509C67.7532 45.6203 67.3351 46.159 67.3351 46.7845C67.3351 47.3927 67.7358 47.9227 68.2671 48.2007C68.6156 48.3745 68.9727 48.4266 69.356 48.4353C69.5041 48.4353 69.6522 48.4613 69.8003 48.4527C69.9571 48.4353 70.0877 48.3658 70.2097 48.2702C70.3839 48.1399 70.2097 47.8358 70.0355 47.9748C69.9571 48.0356 69.8699 48.0964 69.7741 48.1138C69.6783 48.1312 69.5738 48.1138 69.4692 48.1051C69.1905 48.0877 68.9205 48.0877 68.6504 48.0009C68.1887 47.8445 67.7706 47.4622 67.6922 46.967C67.6138 46.463 67.8839 46.0112 68.2759 45.7593Z" fill="black"/>
<path d="M76.0372 46.8453C76.1417 46.6542 75.8455 46.4804 75.741 46.6716C75.5929 46.9496 75.3577 47.1842 75.0616 47.3058C74.8612 47.384 74.9483 47.7228 75.1574 47.636C75.5319 47.4796 75.8368 47.2102 76.0372 46.8453Z" fill="black"/>
<path d="M74.748 44.5429C74.1295 44.43 73.4588 44.5516 72.9535 44.9339C72.4048 45.3596 72.1173 46.1589 72.4832 46.7932C72.5964 46.9843 72.8926 46.8106 72.7793 46.6194C72.4832 46.1068 72.7793 45.4726 73.2236 45.1598C73.633 44.8818 74.1644 44.7862 74.6522 44.8731C74.8699 44.9165 74.9658 44.5864 74.748 44.5429Z" fill="black"/>
<path d="M78.9903 43.622C78.2498 43.5612 77.5181 43.8913 77.1087 44.5082C76.9868 44.6906 77.2829 44.8644 77.4049 44.682C78.1279 43.5959 80.0617 43.7523 80.384 45.099C80.4363 45.3162 80.7673 45.2206 80.715 45.0034C80.5147 44.1954 79.8004 43.7002 78.9903 43.622Z" fill="black"/>
<path d="M50.2443 64.274C50.5056 64.2827 50.7843 64.2132 51.0369 64.1697C51.5509 64.0828 52.0648 64.0047 52.5875 63.9178C53.3628 63.7874 54.138 63.6658 54.922 63.5355C55.8802 63.3791 56.8384 63.2227 57.7966 63.0663C58.8593 62.8926 59.9133 62.7188 60.9761 62.545C62.0562 62.3713 63.1364 62.1888 64.2165 62.015C65.2357 61.85 66.2636 61.6762 67.2827 61.5111C68.1712 61.3634 69.051 61.2244 69.9395 61.0767C70.6103 60.9638 71.2723 60.8595 71.943 60.7466C72.3089 60.6857 72.6835 60.6249 73.0493 60.5641C73.0929 60.5554 73.1451 60.5467 73.1887 60.538C73.4065 60.5033 73.3106 60.1731 73.0929 60.2079C72.9012 60.2426 72.7096 60.2687 72.518 60.3035C71.9953 60.3903 71.4727 60.4772 70.95 60.5641C70.1747 60.6944 69.3995 60.8161 68.6155 60.9464C67.666 61.1028 66.7165 61.2592 65.767 61.4155C64.713 61.5893 63.6677 61.7631 62.6137 61.9282C61.5423 62.1019 60.4708 62.2757 59.3994 62.4581C58.3889 62.6232 57.3698 62.7883 56.3593 62.9534C55.4795 63.1011 54.6084 63.2401 53.7286 63.3878C53.0579 63.5007 52.3871 63.605 51.7251 63.7179C51.3505 63.7788 50.9673 63.8396 50.5927 63.9004C50.5404 63.9091 50.4795 63.9178 50.4272 63.9265C49.7216 64.022 49.1554 63.2575 49.5038 62.6232C49.6606 62.3365 49.9307 62.1888 50.253 62.1367C50.3749 62.1193 50.4882 62.1019 50.6101 62.0845C51.1241 62.0064 51.638 61.9282 52.1519 61.85C52.9533 61.7283 53.7547 61.6067 54.5474 61.4937C55.5318 61.346 56.5161 61.1983 57.5004 61.0506C58.5631 60.8943 59.6259 60.7292 60.6973 60.5728C61.7513 60.4164 62.8053 60.26 63.8593 60.0949C64.8001 59.9559 65.7322 59.8169 66.673 59.6692C67.396 59.565 68.119 59.452 68.842 59.3477C69.2427 59.2869 69.6521 59.2261 70.0528 59.1653C70.105 59.1566 70.1573 59.1479 70.2096 59.1392C70.4273 59.1045 70.3315 58.7743 70.1138 58.8091C69.896 58.8438 69.6782 58.8786 69.4517 58.9046C68.8594 58.9915 68.2671 59.0784 67.6834 59.174C66.821 59.3043 65.9674 59.4346 65.105 59.5563C64.0771 59.7127 63.0492 59.8604 62.0214 60.0167C60.9412 60.1818 59.8524 60.3382 58.7722 60.5033C57.7269 60.6597 56.6903 60.8161 55.645 60.9724C54.7478 61.1028 53.8506 61.2418 52.9533 61.3721C52.3087 61.4677 51.6554 61.5633 51.0108 61.6675C50.7146 61.711 50.4185 61.7544 50.1223 61.7978C49.6432 61.876 49.2425 62.2149 49.1031 62.684C48.8767 63.4573 49.4603 64.2479 50.2443 64.274Z" fill="black"/>
<path d="M49.7652 13.6214C49.5562 13.4824 49.3036 13.4042 49.1206 13.2217C48.868 12.9785 49.0335 12.6309 49.2426 12.4224C49.3645 12.3008 49.5039 12.1878 49.6781 12.1531C49.8436 12.1183 49.983 12.1878 50.1398 12.2052C50.2095 12.2139 50.2792 12.1618 50.253 12.0923C50.1659 11.8229 49.8088 11.7708 49.5649 11.8229C49.2774 11.8837 49.0335 12.0923 48.8593 12.3181C48.6851 12.544 48.5806 12.8481 48.659 13.1348C48.7286 13.3868 48.9377 13.5606 49.1555 13.6909C49.382 13.8212 49.6084 13.9342 49.8088 14.1166C50.0004 14.2991 50.1572 14.5163 50.2705 14.7596C50.4708 15.1853 50.6276 15.9672 50.1398 16.2539C49.5736 16.5928 48.7896 16.5928 48.3541 16.0454C48.2757 15.9412 48.1102 16.0541 48.145 16.167C48.3279 16.7839 48.99 16.9924 49.5736 16.8795C49.8698 16.8274 50.1746 16.6883 50.4273 16.5146C50.6973 16.3234 50.8018 16.0454 50.8193 15.7239C50.8628 15.1853 50.6886 14.6292 50.3663 14.1948C50.1921 13.9776 50.0004 13.7778 49.7652 13.6214Z" fill="black"/>
<path d="M52.4569 16.0541C52.3349 16.2713 52.0213 16.3148 51.9255 16.0454C51.8645 15.863 51.8646 15.6458 51.8471 15.4546C51.8384 15.3417 51.8297 15.2287 51.821 15.1158C51.8907 15.1071 51.9604 15.0984 52.0213 15.0897C52.1433 15.081 52.2391 15.0897 52.3349 15.0115C52.3872 14.9681 52.3872 14.8725 52.3349 14.8291C52.1956 14.7248 51.9778 14.7509 51.7862 14.7856C51.7862 14.7682 51.7862 14.7596 51.7862 14.7422C51.7513 14.2817 51.7339 13.8125 51.7252 13.3521C51.7165 13.1262 51.7165 12.9003 51.7078 12.6744C51.699 12.4572 51.7165 12.2052 51.6294 12.0141C51.6032 11.9619 51.5248 11.9619 51.4987 12.0141C51.3855 12.2313 51.4029 12.5441 51.3942 12.7873C51.3855 13.074 51.3855 13.3521 51.3942 13.6388C51.4029 14.0471 51.4203 14.4642 51.4464 14.8725C51.2461 14.9333 51.0631 15.0289 50.8802 15.1418C50.7757 15.2027 50.8454 15.3938 50.9673 15.3417C51.1241 15.2809 51.2983 15.22 51.4726 15.1766C51.4726 15.2287 51.4813 15.2809 51.4813 15.333C51.5161 15.724 51.4726 16.3408 51.9081 16.532C52.213 16.671 52.6834 16.532 52.7531 16.1671C52.7966 16.002 52.5527 15.8803 52.4569 16.0541Z" fill="black"/>
<path d="M54.8262 14.3425C54.6607 14.1948 54.4255 14.1166 54.2078 14.1427C54.0684 14.1601 53.8855 14.2383 53.7983 14.3599C53.7809 14.3686 53.7722 14.386 53.7548 14.3947C53.5544 14.5858 53.4586 14.8464 53.4064 15.1158C53.3628 15.3764 53.3018 15.7066 53.3802 15.9585C53.4499 16.1844 53.6328 16.3495 53.8593 16.4016C54.8959 16.697 55.5318 14.9855 54.8262 14.3425ZM54.382 15.9585C54.2426 16.0715 54.051 16.1062 53.8942 16.028C53.6938 15.9238 53.7374 15.6718 53.7548 15.4807C53.7722 15.2374 53.7983 14.9941 53.929 14.7769C53.9726 14.6987 54.0335 14.6292 54.1032 14.5771C54.1729 14.5337 54.2426 14.4989 54.3471 14.5076C54.5214 14.525 54.652 14.6292 54.713 14.7856C54.8524 15.1505 54.6956 15.7153 54.382 15.9585Z" fill="black"/>
<path d="M60.4186 13.0045C60.3577 12.8568 60.0963 12.8568 60.1138 13.048C60.1573 13.6648 59.9483 14.2904 59.4517 14.6901C59.3559 14.7682 59.173 14.9246 59.0336 14.8812C58.9117 14.8378 58.8507 14.664 58.8158 14.551C58.7113 14.1688 58.7026 13.7691 58.7549 13.3781C58.781 13.187 58.4935 13.1696 58.4326 13.3347C58.3019 13.7257 58.1451 14.1079 57.9535 14.4642C57.8576 14.6466 57.7531 14.8204 57.6486 14.9941C57.5441 15.1592 57.4395 15.3417 57.3001 15.4807C57.2043 15.5849 57.0127 15.7153 56.9343 15.5241C56.8733 15.3764 56.9169 15.1766 56.9343 15.0289C56.9866 14.6727 57.0911 14.3251 57.2479 14.0037C57.2827 13.9515 57.3089 13.8907 57.335 13.8299C57.396 13.6561 57.1172 13.5345 57.0301 13.6996C57.004 13.7517 56.9778 13.8125 56.9517 13.8647C56.8646 13.995 56.7252 14.0819 56.5684 14.1253C56.4726 14.1514 56.3681 14.1514 56.2636 14.134C56.1416 14.1079 56.0458 14.0211 55.9325 13.9776C55.7061 13.882 55.4622 13.9429 55.3141 14.1514C55.1311 14.4033 55.1834 14.7161 55.2792 14.9855C55.3228 15.0984 55.5231 15.0984 55.5144 14.9507C55.497 14.7682 55.3925 14.2817 55.6886 14.2469C55.8019 14.2296 55.9238 14.3425 56.0196 14.3947C56.1242 14.4468 56.2287 14.4728 56.342 14.4815C56.4813 14.4902 56.612 14.4728 56.7339 14.4294C56.6555 14.6814 56.6033 14.942 56.5771 15.2027C56.5597 15.3938 56.5597 15.6023 56.673 15.7674C56.7862 15.9412 57.004 16.002 57.1956 15.9412C57.4134 15.8717 57.5615 15.6892 57.6921 15.5154C57.8402 15.3069 57.9796 15.0897 58.1016 14.8725C58.2148 14.6727 58.3193 14.4728 58.4151 14.2643C58.4413 14.4555 58.4848 14.6379 58.5545 14.803C58.6242 14.9681 58.7374 15.1158 58.903 15.1853C59.1033 15.2635 59.3036 15.1853 59.4779 15.0723C59.9395 14.7769 60.2793 14.2904 60.3925 13.7517C60.5929 14.2296 60.7845 14.7161 60.9761 15.194C61.2288 15.8021 61.5075 16.4277 61.5772 17.0967C61.6382 17.6701 61.5423 18.3391 61.0023 18.6519C60.5841 18.8952 60.0528 18.8865 59.5998 18.7996C59.4604 18.7735 59.2862 18.7475 59.173 18.6693C59.0423 18.5911 59.0249 18.3913 59.0249 18.2609C59.0162 17.9395 59.1294 17.6354 59.3472 17.4008C59.504 17.2357 59.2601 16.9924 59.0946 17.1488C58.8594 17.3834 58.6852 17.6962 58.6329 18.0263C58.5806 18.3478 58.5981 18.7562 58.8681 18.9734C59.112 19.1732 59.5127 19.2166 59.8176 19.2514C60.1138 19.2861 60.4186 19.2775 60.7061 19.208C61.3681 19.0602 61.8472 18.565 61.9692 17.9047C62.1173 17.1141 61.8821 16.3408 61.5772 15.6197C61.2288 14.7335 60.7671 13.8907 60.4186 13.0045Z" fill="black"/>
<path d="M65.619 12.7786C65.5319 12.7613 65.4796 12.7439 65.3925 12.7526C65.3228 12.7613 65.2444 12.7786 65.1748 12.7873C65.018 12.8221 64.8525 12.8568 64.6957 12.8829C64.3646 12.9524 64.0423 13.0219 63.7113 13.0827C63.389 13.1522 63.0754 13.213 62.7531 13.2825C62.4395 13.3521 62.0998 13.3955 61.8037 13.5258C61.673 13.5866 61.7514 13.7778 61.8733 13.7778C62.1869 13.7778 62.5179 13.6822 62.8228 13.6214C63.1451 13.5606 63.4587 13.4911 63.781 13.4302C64.0859 13.3694 64.3995 13.2999 64.7044 13.2391C64.8612 13.2044 65.0267 13.1696 65.1835 13.1435C65.2706 13.1262 65.349 13.1088 65.4361 13.0827C65.5232 13.0567 65.5667 13.0219 65.6451 12.9698C65.7235 12.935 65.7235 12.796 65.619 12.7786Z" fill="black"/>
<path d="M46.821 15.5589C46.4116 15.5763 45.9935 15.6371 45.5928 15.6892C45.1921 15.7413 44.8001 15.8021 44.3994 15.8717C43.9987 15.9412 43.6067 16.0194 43.2147 16.1149C43.0231 16.1584 42.8227 16.2105 42.6224 16.2452C42.5353 16.2626 42.4394 16.2713 42.3523 16.2887C42.2391 16.3061 42.1258 16.3321 42.0126 16.3495C41.9255 16.3582 41.8907 16.4885 41.9865 16.5146C42.091 16.5407 42.1694 16.5667 42.2826 16.5754C42.3697 16.5754 42.4656 16.5754 42.5527 16.5667C42.7443 16.5493 42.9447 16.5146 43.1363 16.4798C43.5457 16.4016 43.9638 16.3148 44.3733 16.2452C44.7827 16.1757 45.1921 16.1149 45.6102 16.0628C46.0283 16.0107 46.4464 15.9846 46.8646 15.9325C47.0823 15.8977 47.0301 15.5502 46.821 15.5589Z" fill="black"/>
<mask id="mask0_1215_17700" style="mask-type:luminance" maskUnits="userSpaceOnUse" x="0" y="25" width="112" height="70">
<path d="M111.961 25.533H0V94.4918H111.961V25.533Z" fill="white"/>
</mask>
<g mask="url(#mask0_1215_17700)">
<path d="M112.841 85.7514C112.623 85.2388 112.231 84.8391 111.804 84.4916C111.377 84.1441 110.924 83.84 110.471 83.5272C110.044 83.2231 109.618 82.9103 109.26 82.5193C108.834 82.0589 108.572 81.4854 108.293 80.9294C108.006 80.356 107.666 79.8347 107.187 79.4089C106.726 78.9919 106.194 78.6618 105.672 78.3229C105.14 77.9754 104.644 77.5931 104.208 77.1239C103.755 76.6461 103.354 76.1161 102.945 75.5948C102.501 75.0474 102.03 74.5174 101.473 74.083C101.203 73.8658 100.898 73.6747 100.576 73.527C100.419 73.4575 100.271 73.4054 100.105 73.3619C99.9311 73.3098 99.7568 73.3098 99.5826 73.2924C99.4607 73.2837 99.452 73.4575 99.5565 73.4922C99.8352 73.5878 100.123 73.7181 100.384 73.8658C100.654 74.0135 100.898 74.1786 101.133 74.3611C101.621 74.752 102.039 75.2125 102.431 75.6991C102.832 76.203 103.215 76.7243 103.633 77.2195C104.06 77.7147 104.53 78.1405 105.062 78.5227C105.558 78.8703 106.081 79.1744 106.551 79.5393C107.03 79.9129 107.405 80.356 107.692 80.8946C107.997 81.4594 108.233 82.0589 108.616 82.5628C108.956 83.0059 109.365 83.3708 109.818 83.7009C110.288 84.0485 110.785 84.3613 111.246 84.7175C111.708 85.0737 112.118 85.4907 112.466 85.9686C112.623 86.2205 112.954 86.012 112.841 85.7514Z" fill="black"/>
<path d="M94.4868 89.6263C94.1993 89.1485 94.0251 88.6446 93.877 88.1059C93.7115 87.4977 93.546 86.8722 93.1802 86.3422C92.8317 85.8383 92.3613 85.4386 91.9171 85.0216C91.4903 84.6219 91.1244 84.1875 90.8457 83.6749C90.5321 83.1188 90.3317 82.502 90.2272 81.8764C90.1227 81.2248 90.1575 80.5819 90.2185 79.9302C90.2272 79.7825 90.0181 79.7739 89.9746 79.8955C89.7742 80.4255 89.722 81.051 89.7655 81.6158C89.8091 82.1979 89.9397 82.78 90.1662 83.3274C90.3927 83.8834 90.6889 84.396 91.0721 84.8478C91.4641 85.317 91.9432 85.6993 92.3614 86.1424C92.7882 86.6028 93.0495 87.1241 93.2237 87.7236C93.3979 88.3144 93.5286 88.9226 93.8074 89.4786C94.2603 90.4083 95.0007 91.1555 95.6889 91.9027C96.4293 92.7107 97.1872 93.5708 97.3962 94.6829C97.4224 94.8219 97.5966 94.9088 97.7272 94.8741C97.8753 94.8306 97.945 94.6829 97.9189 94.5439C97.5095 92.4848 95.5234 91.3292 94.4868 89.6263Z" fill="black"/>
<path d="M107.745 84.2049C108.128 84.6914 108.477 85.1953 108.816 85.7079C109.156 86.2205 109.452 86.794 109.879 87.2458C110.01 87.3761 110.271 87.2458 110.201 87.0546C110.001 86.5246 109.67 86.0555 109.356 85.5863C109.051 85.1171 108.738 84.6567 108.398 84.2136C107.727 83.3273 106.978 82.4933 106.098 81.8069C105.201 81.1118 104.165 80.5992 103.372 79.7738C102.754 79.1309 102.283 78.3577 101.743 77.6452C101.151 76.8807 100.428 76.1161 99.4347 75.9249C99.243 75.8902 99.1733 76.1508 99.3563 76.2117C100.158 76.4984 100.75 77.0805 101.255 77.7495C101.795 78.4619 102.257 79.2439 102.841 79.9215C103.564 80.7556 104.522 81.2943 105.419 81.9285C106.308 82.5628 107.074 83.3534 107.745 84.2049Z" fill="black"/>
<path d="M109.722 89.9478C109.287 89.4439 108.851 88.9573 108.398 88.4708C107.483 87.489 106.534 86.5507 105.541 85.6471C105.253 85.3865 104.966 85.1432 104.67 84.8912C104.522 84.7696 104.365 84.648 104.217 84.535C104.069 84.4221 103.929 84.3004 103.755 84.2309C103.685 84.2049 103.59 84.2657 103.642 84.3439C103.825 84.6132 104.095 84.8217 104.33 85.0476C104.565 85.2735 104.809 85.4994 105.053 85.7253C105.55 86.1771 106.029 86.6463 106.508 87.1154C107.457 88.0538 108.372 89.0182 109.243 90.026C109.487 90.3127 109.731 90.5907 109.975 90.8775C110.097 91.0252 110.219 91.1729 110.341 91.3206C110.463 91.4683 110.593 91.5986 110.741 91.7202C110.863 91.8245 111.046 91.6941 110.968 91.5464C110.645 90.9643 110.158 90.4604 109.722 89.9478Z" fill="black"/>
<path d="M92.2568 63.8309C93.2586 65.4035 94.33 66.9326 95.4015 68.4617C95.567 68.705 95.9677 68.4704 95.7935 68.2272C93.8422 65.4469 91.8823 62.6493 90.384 59.5997C90.0094 58.8264 89.661 58.0445 89.3561 57.2452C89.0338 56.4111 88.7725 55.551 88.4937 54.7082C87.9275 53.014 87.1697 51.398 86.3509 49.808C86.1244 49.3649 85.8892 48.9218 85.654 48.4787C85.4536 48.0964 85.2359 47.7228 84.9571 47.4014C84.4519 46.8106 83.5808 46.3588 82.8143 46.6716C82.5442 46.3848 82.2568 46.1068 81.9519 45.8549C81.1853 45.2206 80.2184 44.6124 79.1905 44.5864C78.9379 44.5777 78.6679 44.6124 78.4327 44.708C78.2933 44.7601 78.1278 44.8383 78.0059 44.9513C77.8403 44.847 77.6748 44.7515 77.5093 44.6472C77.0128 44.3518 76.5076 44.0477 75.9762 43.8392C75.5407 43.6654 74.809 43.4743 74.4867 43.9434C74.2079 44.3518 74.4867 44.8818 74.6957 45.2467C75.0267 45.8201 75.3839 46.3762 75.7759 46.9061C76.0111 47.2363 76.255 47.5751 76.525 47.8966C76.072 47.6794 75.6191 47.4709 75.1574 47.2884C74.1556 46.8801 73.0929 46.5673 72.0128 46.5325C71.4901 46.5152 70.9588 46.576 70.4535 46.715C70.0441 46.8279 69.5389 47.0712 69.5824 47.5838C69.626 48.0964 70.1661 48.4179 70.5406 48.6872C70.9936 49.0174 71.464 49.3302 71.9257 49.6603C72.7532 50.2424 73.5198 50.8854 74.1905 51.6412C75.4449 53.0574 76.3595 54.7777 76.8125 56.6109C76.8647 56.8368 76.917 57.0714 76.9605 57.2973C76.978 57.4103 77.0041 57.5232 77.0215 57.6362C77.0215 57.6622 77.0128 57.723 77.0215 57.7491C77.0128 57.7491 77.0128 57.7491 77.0128 57.7404C76.6382 57.445 76.2724 57.1322 75.8717 56.8629C75.0442 56.3155 74.1121 55.8985 73.1539 55.6552C72.2393 55.4206 71.2462 55.299 70.3054 55.4293C69.4866 55.5423 68.633 55.9941 68.572 56.9063C68.5023 57.9576 69.4518 58.6353 70.2706 59.0697C71.2288 59.5736 72.1957 60.0689 73.1278 60.6249C74.0511 61.181 74.9309 61.7978 75.741 62.5103C76.5337 63.2053 77.2829 63.9351 78.1626 64.5259C79.0686 65.1341 80.1226 65.4903 80.9763 66.1767C81.7864 66.837 82.4832 67.6624 83.1366 68.4791C84.4432 70.0951 85.5582 71.8675 86.4554 73.7442C86.6732 74.196 86.8822 74.6565 87.1 75.1169C87.161 75.2473 87.3875 75.1517 87.3352 75.0214C86.9955 74.0483 86.5599 73.1186 86.0721 72.2151C85.593 71.3115 85.0617 70.434 84.4693 69.5999C83.8857 68.7571 83.2498 67.9578 82.5704 67.1846C81.8648 66.3852 81.1156 65.6641 80.1836 65.1428C79.7132 64.8822 79.2167 64.6476 78.755 64.3696C78.3107 64.1002 77.9013 63.7874 77.5006 63.4573C76.7079 62.7883 75.9588 62.0585 75.1313 61.4242C74.2776 60.7726 73.363 60.2166 72.4222 59.6953C71.9518 59.4346 71.4727 59.1827 70.9849 58.9307C70.5493 58.7048 70.0964 58.4963 69.7044 58.1922C69.356 57.9142 69.0511 57.5319 69.0162 57.0714C68.9814 56.6804 69.173 56.3416 69.504 56.1331C69.8351 55.9333 70.227 55.8464 70.6016 55.8203C71.0633 55.7856 71.5337 55.8116 71.9866 55.8724C72.9361 55.9854 73.8769 56.2721 74.7393 56.7065C75.1748 56.9237 75.5929 57.1844 75.9849 57.4711C76.1766 57.6188 76.3595 57.7665 76.5424 57.9316C76.7079 58.0793 76.9257 58.2356 77.1696 58.1488C77.3961 58.0706 77.4571 57.836 77.4396 57.6188C77.4135 57.3842 77.37 57.1496 77.3177 56.9237C77.2219 56.4632 77.0999 56.0114 76.9518 55.5597C76.6557 54.6735 76.255 53.8133 75.7672 53.014C75.2706 52.206 74.687 51.4588 74.025 50.7898C73.2933 50.0513 72.457 49.4518 71.6121 48.861C71.1765 48.5569 70.7149 48.2615 70.3142 47.914C70.1922 47.801 69.9831 47.6186 70.0528 47.4274C70.1138 47.271 70.3316 47.1929 70.4797 47.1494C71.4727 46.8366 72.5441 46.9148 73.5372 47.1755C74.5825 47.4448 75.5581 47.8879 76.525 48.3571C77.5355 48.8523 78.5198 49.391 79.4867 49.9644C79.9571 50.2424 80.4101 50.5292 80.8717 50.8246C81.1069 50.9809 81.3334 50.5987 81.0895 50.4423C80.1313 49.8167 79.1557 49.2346 78.1452 48.6959C77.8665 48.5482 77.579 48.3918 77.3003 48.2528C77.3003 48.2528 77.3003 48.2441 77.2916 48.2441C76.9867 47.7837 76.6208 47.3579 76.2985 46.9061C75.9762 46.463 75.6801 46.0026 75.3926 45.5334C75.2532 45.2988 75.1051 45.0642 74.9745 44.821C74.8874 44.6646 74.8003 44.4734 74.809 44.291C74.8351 43.8044 75.7149 44.152 75.9588 44.2562C76.4466 44.4647 76.9083 44.7515 77.3612 45.0295C77.8142 45.2988 78.2585 45.5855 78.7027 45.8809C79.5825 46.4717 80.4362 47.1147 81.2463 47.7923C82.1609 48.5656 83.032 49.391 83.8508 50.2598C84.0425 50.4683 84.3561 50.1556 84.1644 49.947C82.6052 48.2876 80.8543 46.8019 78.9641 45.5247C78.7463 45.377 78.5285 45.238 78.302 45.0903C78.3717 45.0469 78.4501 45.0121 78.5285 44.986C78.7289 44.9252 78.9379 44.9078 79.1557 44.9165C79.6087 44.9426 80.0355 45.0816 80.4449 45.2901C81.3334 45.7419 82.0738 46.4196 82.7359 47.1494C82.9188 47.3492 83.1017 47.5578 83.2759 47.775C83.363 47.8792 83.4589 47.9922 83.546 48.0964C83.6418 48.2094 83.7202 48.3397 83.8596 48.4005C83.9902 48.4613 84.1383 48.3658 84.1035 48.2094C84.0686 48.0704 83.9815 47.9748 83.8944 47.8705C83.8073 47.7576 83.7115 47.6533 83.6244 47.5491C83.4501 47.3406 83.2759 47.1407 83.1017 46.9409C83.0843 46.9235 83.0669 46.9061 83.0495 46.8888C83.7115 46.8106 84.3125 47.2015 84.7219 47.7228C84.9571 48.0182 85.1313 48.3571 85.3056 48.6959C85.5059 49.0782 85.6976 49.4605 85.8979 49.8341C86.6993 51.3893 87.4484 52.9619 88.0059 54.6213C88.2847 55.4554 88.5373 56.2982 88.8422 57.1235C89.1296 57.8968 89.4519 58.6614 89.8091 59.4086C90.5321 60.9724 91.3596 62.4234 92.2568 63.8309ZM77.0041 57.7925C76.9954 57.7925 76.9954 57.7925 77.0041 57.7925V57.7925Z" fill="black"/>
<path d="M99.8268 72.8059C99.4086 71.2941 98.8076 70.1386 97.6491 69.0612C97.318 68.7571 96.9173 68.4617 96.4731 68.4791C96.0811 68.4965 95.7327 68.7484 95.4191 68.983C92.6142 71.1377 89.8093 73.3011 86.9957 75.4558C86.8302 75.5861 86.6646 75.7164 86.5862 75.9076C86.4382 76.2898 86.7256 76.6982 86.9957 77.011C87.6751 77.8016 88.3458 78.5836 89.0253 79.3742C89.2082 79.5914 89.4173 79.8173 89.6873 79.8868C90.0619 79.9824 90.4365 79.7565 90.7588 79.548C93.4156 77.7842 96.055 75.9945 98.6856 74.196C99.1299 73.8919 99.6003 73.553 99.7658 73.0404C99.94 72.5191 99.7397 71.937 99.3999 71.5026C99.0602 71.0769 98.5811 70.7728 98.1194 70.4774L99.8268 72.8059Z" fill="#6B6B6B"/>
<path d="M99.9486 72.7711C99.7482 71.6764 99.2778 70.6599 98.6071 69.7737C98.2587 69.3132 97.8405 68.8614 97.3614 68.5312C97.1088 68.3575 96.8214 68.2445 96.5165 68.2358C96.2029 68.2271 95.9067 68.3575 95.6454 68.5225C95.3667 68.705 95.1053 68.9222 94.8353 69.122C94.5478 69.3392 94.2604 69.5651 93.9729 69.7823C93.398 70.2254 92.8231 70.6686 92.2395 71.1117C91.0896 71.9979 89.9311 72.8841 88.7812 73.7703C88.2063 74.2134 87.6314 74.6565 87.0478 75.0996C86.8039 75.282 86.5251 75.4645 86.3857 75.7425C86.2377 76.0379 86.2899 76.3507 86.4206 76.6374C86.56 76.9241 86.7864 77.1674 86.9955 77.4106C87.2307 77.68 87.4659 77.958 87.6924 78.2273C87.9276 78.4967 88.1628 78.7747 88.3892 79.044C88.607 79.296 88.8074 79.5653 89.0513 79.7912C89.2778 80.0084 89.5565 80.1735 89.8788 80.1648C90.2098 80.1561 90.5234 79.9997 90.7935 79.8173C91.3945 79.4263 91.9868 79.018 92.5879 78.627C93.79 77.8277 94.9834 77.0197 96.1768 76.203C96.7778 75.7946 97.3702 75.395 97.9625 74.9866C98.4851 74.6304 99.0688 74.3002 99.5217 73.8571C99.9573 73.4314 100.166 72.8667 100.036 72.2672C99.905 71.6677 99.4956 71.1812 99.0165 70.8076C98.7726 70.6164 98.5113 70.4427 98.2412 70.2776C97.9799 70.1125 97.736 70.5295 97.9973 70.6946C98.459 70.99 98.9643 71.2941 99.2866 71.7633C99.574 72.189 99.7047 72.7277 99.4259 73.1881C99.1559 73.6399 98.6507 73.918 98.2325 74.2047C97.6663 74.587 97.1001 74.9779 96.5426 75.3602C95.4363 76.1161 94.3301 76.8633 93.2151 77.6105C92.6576 77.9841 92.0914 78.3577 91.5339 78.7313C91.2551 78.9137 90.9851 79.0962 90.7063 79.2873C90.4799 79.4437 90.2185 79.6348 89.9311 79.6609C89.6523 79.687 89.4607 79.4958 89.2865 79.3047C89.0774 79.0701 88.8683 78.8181 88.6593 78.5749C88.2237 78.0623 87.7882 77.5583 87.3527 77.0457C87.1697 76.8372 86.9607 76.62 86.8474 76.3681C86.7429 76.1248 86.8039 75.9423 86.9955 75.7686C87.2307 75.5514 87.5007 75.3689 87.7534 75.1778C88.0147 74.9779 88.2847 74.7694 88.546 74.5609C90.6889 72.9101 92.8405 71.2594 94.9834 69.6086C95.2447 69.4087 95.4973 69.2002 95.7587 69.0178C95.9677 68.8701 96.2116 68.7137 96.4729 68.7137C97.0043 68.705 97.4573 69.1915 97.797 69.5478C98.5113 70.2776 99.0165 71.1377 99.3911 72.0847C99.4869 72.3367 99.5914 72.58 99.6873 72.8319C99.7569 72.997 99.9834 72.9362 99.9486 72.7711Z" fill="#6B6B6B"/>
<path d="M20.0785 57.6796C18.9548 58.531 18.1708 59.704 17.622 60.9898C17.3519 61.6327 17.1255 62.2931 16.7857 62.9012C16.4286 63.5529 15.9408 64.0307 15.3659 64.4825C14.8084 64.9256 14.277 65.3774 13.8415 65.9508C13.4233 66.4895 13.101 67.0977 12.8746 67.7406C12.6394 68.4096 12.5784 69.1047 12.4129 69.7823C12.3345 70.1212 12.2212 70.4426 12.0383 70.738C11.8467 71.0334 11.5766 71.2767 11.3066 71.5026C10.7752 71.9457 10.2613 72.3888 9.79962 72.9101C9.33795 73.4314 8.91983 73.9875 8.56268 74.5783C7.79612 75.8554 7.36058 77.2456 7.06441 78.6965C6.76824 80.1648 6.51562 81.6331 5.98426 83.0406C5.51387 84.3004 4.8954 85.4994 4.28564 86.6897C3.07483 89.0355 1.78562 91.4335 1.47203 94.1008C1.43718 94.431 1.41105 94.7611 1.40234 95.0913C1.39363 95.3954 1.86402 95.3954 1.87273 95.0913C1.9337 92.4327 3.12709 89.9999 4.32048 87.6889C4.93896 86.4986 5.56614 85.317 6.08879 84.0919C6.35012 83.4837 6.59402 82.8669 6.78566 82.2326C7.01214 81.5115 7.16894 80.773 7.30831 80.0345C7.59577 78.5488 7.8571 77.0631 8.52784 75.6991C9.12018 74.474 9.94771 73.3619 10.9582 72.441C11.4721 71.9805 12.0732 71.5895 12.4477 70.9987C12.8223 70.4079 12.9181 69.7128 13.0314 69.0351C13.2578 67.6711 13.8415 66.4113 14.8432 65.4469C15.3659 64.9343 15.9931 64.5346 16.4809 63.9873C16.9164 63.4833 17.2126 62.8925 17.4739 62.2844C17.7439 61.6414 17.9704 60.9724 18.3014 60.3556C18.6237 59.7387 19.0331 59.1566 19.5035 58.6353C19.73 58.3833 19.9652 58.1314 20.2178 57.8968C20.3572 57.7925 20.2091 57.584 20.0785 57.6796Z" fill="black"/>
<path d="M31.2196 64.7692C31.1238 63.6832 30.8538 62.6145 30.3747 61.6328C30.2614 61.3895 30.1221 61.1636 29.974 60.9377C29.9043 60.8334 29.704 60.8942 29.7562 61.0246C30.1743 62.0237 30.5489 63.0403 30.7057 64.1176C30.8712 65.1949 30.8277 66.2984 30.6186 67.367C30.3921 68.5139 30.0263 69.6346 29.9479 70.8076C29.8695 71.9197 30.0611 73.0231 30.2702 74.1091C30.4705 75.1778 30.7057 76.2551 30.6709 77.3498C30.6534 77.8885 30.575 78.4098 30.4008 78.9224C30.2266 79.4437 29.9827 79.9302 29.7475 80.4255C29.5123 80.9207 29.2771 81.4333 29.129 81.9633C28.9722 82.528 28.8938 83.1101 28.8677 83.6923C28.8067 84.8652 28.9287 86.0468 28.9548 87.2197C28.9984 89.6263 28.7719 92.033 28.2928 94.3962C28.2318 94.6916 28.1708 94.9783 28.1012 95.2737C28.0315 95.5517 28.467 95.6734 28.5367 95.3954C29.1203 93.0408 29.4426 90.6081 29.4688 88.1841C29.4862 86.9851 29.3904 85.7861 29.3642 84.5872C29.3468 83.4142 29.4688 82.2848 29.9479 81.2074C30.3921 80.1996 30.9496 79.2352 31.1151 78.1231C31.2719 77.0284 31.1238 75.925 30.9322 74.8389C30.7318 73.7442 30.4792 72.6495 30.4444 71.5374C30.4095 70.3731 30.7057 69.2524 30.9496 68.1229C31.1848 67.0108 31.3155 65.8987 31.2196 64.7692Z" fill="black"/>
<path d="M19.791 61.4503C18.7631 62.3018 18.0401 63.466 17.5697 64.6997C17.3258 65.334 17.1951 65.9856 17.0558 66.6372C16.9164 67.2888 16.7422 67.9404 16.3502 68.4878C15.9582 69.0352 15.4007 69.4609 14.9303 69.9387C14.4686 70.4079 14.0418 70.8945 13.6411 71.4157C12.831 72.4583 12.1515 73.5878 11.6115 74.7781C11.3066 75.4471 11.0453 76.1248 10.8362 76.8198C10.7317 77.1674 10.6359 77.5236 10.5487 77.8798C10.5052 78.0623 10.4529 78.2534 10.4355 78.4446C10.4268 78.627 10.4181 78.8095 10.4094 78.9919C10.4007 79.1831 10.6881 79.2178 10.7404 79.0354C10.7839 78.8877 10.8275 78.74 10.8798 78.5923C10.9407 78.4272 10.9669 78.2621 11.0017 78.097C11.0714 77.7756 11.1585 77.4628 11.2456 77.15C11.4198 76.5418 11.6376 75.9423 11.8815 75.3689C12.3867 74.1786 13.0313 73.0491 13.7979 72.0065C14.1812 71.4939 14.5906 70.9987 15.0261 70.5295C15.4791 70.043 16.0018 69.6173 16.446 69.122C16.899 68.6181 17.1777 68.0186 17.3519 67.367C17.5262 66.7154 17.6133 66.0464 17.7962 65.3948C18.1969 63.9699 18.9722 62.7101 19.9216 61.5893C20.0175 61.4937 19.8955 61.3721 19.791 61.4503Z" fill="black"/>
<path d="M14.9566 73.7616C14.7388 73.8832 14.5994 74.1525 14.4601 74.3437C14.3033 74.5783 14.1552 74.8128 14.0158 75.0561C13.7371 75.534 13.4845 76.0292 13.258 76.5331C13.0315 77.0284 12.8311 77.541 12.6569 78.0536C12.474 78.5836 12.3346 79.1222 12.1865 79.6609C12.021 80.2691 11.812 80.8599 11.629 81.4594C11.5855 81.6071 11.7771 81.6592 11.8555 81.5549C12.1952 81.1118 12.3782 80.5819 12.535 80.0519C12.6918 79.5219 12.8224 78.9832 12.9879 78.4532C13.3102 77.4106 13.7371 76.4115 14.2423 75.4471C14.3817 75.1864 14.5298 74.9258 14.6691 74.6651C14.7475 74.5348 14.8172 74.3958 14.8956 74.2655C14.9653 74.1352 15.0611 73.9962 15.0785 73.8485C15.096 73.7876 15.0263 73.7268 14.9566 73.7616Z" fill="black"/>
<path d="M27.3085 74.2221C27.265 73.7442 27.204 73.2663 27.1169 72.7972C27.0211 72.328 26.9078 71.8588 26.8033 71.3897C26.7772 71.2854 26.6378 71.3375 26.6552 71.4331C26.7162 71.8588 26.7423 72.3019 26.7772 72.7277C26.812 73.1534 26.8469 73.5704 26.8904 73.9962C26.9688 74.8302 27.0124 75.6556 27.0298 76.4897C27.0646 78.1578 26.9688 79.826 26.7597 81.4854C26.5507 83.1362 26.1761 84.7783 26.1238 86.4464C26.0803 87.9408 26.2284 89.4352 26.2632 90.9296C26.2806 91.755 26.2632 92.5804 26.1413 93.3971C26.0193 94.2051 25.7754 94.9783 25.427 95.7168C25.305 95.9775 25.6796 96.2121 25.8277 95.9514C26.5594 94.6482 26.7423 93.093 26.7597 91.6246C26.7772 90.0955 26.6204 88.5751 26.6117 87.0459C26.6029 85.3952 26.9078 83.7878 27.1343 82.1544C27.3782 80.4602 27.4915 78.7573 27.4653 77.0457C27.4566 76.1074 27.4043 75.1604 27.3085 74.2221Z" fill="black"/>
<path d="M23.1098 88.6098C23.1969 89.6524 23.1359 90.7298 22.9443 91.755C22.7527 92.7889 22.4042 93.788 22.0209 94.7698C21.9687 94.9175 22.1865 94.9957 22.2649 94.8741C22.8311 93.9444 23.1621 92.8844 23.3363 91.8158C23.5105 90.7384 23.5105 89.6611 23.3537 88.5838C23.3189 88.4447 23.1011 88.4795 23.1098 88.6098Z" fill="black"/>
<path d="M31.7598 43.2223C31.4549 42.0928 30.7755 41.1545 30.157 40.1814C29.5385 39.2083 29.0855 38.1744 28.8765 37.0363C28.772 36.4802 28.7371 35.9155 28.7458 35.3421C28.7632 34.7947 28.8504 34.256 28.9549 33.7173C29.0507 33.2221 29.1378 32.7095 29.042 32.2056C28.9462 31.719 28.6239 31.3107 28.1535 31.1369C27.7005 30.9632 27.1779 31.0414 26.751 31.2499C26.2806 31.4758 25.9322 31.9015 25.6883 32.3446C25.5925 32.5271 25.5054 32.7182 25.427 32.9093C25.2702 32.3707 25.2005 31.8146 25.2441 31.2412C25.305 30.5461 25.5402 29.8598 25.9235 29.269C26.1413 28.9388 26.4026 28.6434 26.7075 28.3914C26.8556 28.2698 26.751 28.07 26.6117 28.0178C25.7144 27.6529 24.8695 28.4696 24.3643 29.1126C23.7632 29.8771 23.1796 30.6678 22.6482 31.4845C21.6029 33.1005 20.7841 34.9163 20.6708 36.8625C20.5489 38.9564 21.2196 40.9807 21.8555 42.9443C22.1343 43.8044 22.4304 44.6646 22.5872 45.5595C22.7266 46.3414 22.7876 47.1407 22.7702 47.94C22.744 49.4952 22.4566 51.146 21.5942 52.4753C21.4984 52.6143 21.4026 52.7533 21.298 52.8837C21.2109 52.9879 21.1935 53.1356 21.298 53.2312C21.3851 53.3181 21.5594 53.3354 21.6465 53.2312C22.6482 52.0148 23.0663 50.4249 23.2144 48.8871C23.3625 47.2884 23.2057 45.6724 22.744 44.1346C22.1604 42.1797 21.3677 40.2509 21.1848 38.2005C21.0977 37.2187 21.1674 36.2456 21.42 35.2986C21.6552 34.395 22.0385 33.5349 22.4914 32.7182C22.9531 31.8841 23.4845 31.0848 24.0507 30.3115C24.3294 29.9293 24.5994 29.5383 24.913 29.1821C25.1831 28.8693 25.5228 28.5391 25.9322 28.4175C25.9758 28.4088 26.0193 28.4001 26.0542 28.3914C25.1047 29.3993 24.6691 30.8415 24.8608 32.2056C24.9218 32.6226 25.0437 33.031 25.2441 33.4046C25.1831 33.5696 25.1308 33.7434 25.0785 33.9172C24.8869 34.5167 24.7301 35.1335 24.5994 35.7504C24.3381 36.9668 24.1726 38.2179 24.1639 39.469C24.1639 39.6167 24.1639 39.7557 24.1639 39.9034C24.1639 40.0685 24.2075 40.2249 24.2336 40.3812C24.2597 40.5376 24.5298 40.5463 24.5646 40.3812C24.6691 39.7904 24.6691 39.1823 24.7127 38.5828C24.765 37.9833 24.8259 37.3925 24.9305 36.793C25.1221 35.6201 25.4183 34.4645 25.819 33.3438C26.1151 32.5097 26.6552 31.5105 27.6831 31.554C28.0925 31.5713 28.4235 31.832 28.5281 32.2317C28.65 32.6574 28.5629 33.1265 28.4758 33.5436C28.3713 34.0736 28.2754 34.6035 28.2493 35.1422C28.2232 35.707 28.2493 36.263 28.3277 36.8191C28.4845 37.9225 28.8678 38.9737 29.434 39.9295C29.9915 40.8678 30.7145 41.7279 31.1152 42.7531C31.542 43.8218 31.5943 44.986 31.481 46.1155C31.3678 47.2971 31.0978 48.4613 30.8539 49.6169C30.5925 50.8506 30.3399 52.0843 30.0873 53.3181C30.0263 53.6222 29.9741 53.9176 29.9479 54.2303C29.9305 54.3867 30.1657 54.4041 30.2092 54.2651C30.4183 53.6395 30.5403 52.9792 30.6883 52.3363C30.8277 51.7021 30.9671 51.0591 31.1065 50.4249C31.3678 49.2085 31.6727 48.0009 31.8469 46.7671C32.0211 45.6029 32.0734 44.3865 31.7598 43.2223Z" fill="black"/>
<path d="M31.4984 60.79C32.4043 59.5041 32.927 58.3138 33.0315 56.7413C33.0576 56.2895 33.0402 55.7942 32.744 55.4554C32.4827 55.16 32.0733 55.0557 31.6813 54.9602C28.2318 54.1522 24.7823 53.3528 21.3328 52.5448C21.1324 52.5014 20.9147 52.4493 20.723 52.5101C20.331 52.6404 20.1917 53.1183 20.122 53.5266C19.939 54.5431 19.7561 55.5683 19.5645 56.5849C19.5122 56.8629 19.4687 57.167 19.5819 57.4276C19.7474 57.7752 20.1568 57.9229 20.5227 58.0358C23.5715 58.9741 26.629 59.8864 29.6952 60.7813C30.2092 60.929 30.7754 61.0767 31.2719 60.8856C31.7858 60.6857 32.1168 60.1731 32.2301 59.6344C32.3433 59.0958 32.2823 58.5397 32.2214 58.0011L31.4984 60.79Z" fill="#6B6B6B"/>
<path d="M31.5943 60.8856C32.3522 59.9907 32.8661 58.9394 33.1187 57.8012C33.2494 57.2365 33.3365 56.6022 33.2407 56.0288C33.1971 55.7508 33.0839 55.4728 32.8835 55.2642C32.6832 55.0557 32.4131 54.9254 32.1344 54.8385C31.8295 54.7429 31.5072 54.6734 31.1849 54.6039C30.8278 54.5171 30.4793 54.4389 30.1222 54.352C29.4166 54.1869 28.7023 54.0218 27.9967 53.8567C26.5768 53.5266 25.1657 53.1964 23.7458 52.8663C23.0402 52.7012 22.3259 52.5361 21.6204 52.3711C21.2981 52.2929 20.9409 52.1799 20.6186 52.3015C20.3747 52.3971 20.1831 52.5883 20.0698 52.8228C19.9566 53.0661 19.8956 53.3268 19.8521 53.5874C19.7911 53.9436 19.7214 54.2912 19.6604 54.6474C19.5385 55.3424 19.3817 56.0375 19.2858 56.7413C19.2423 57.0627 19.2423 57.3929 19.4252 57.6709C19.5733 57.8968 19.8085 58.0445 20.0524 58.1488C20.3399 58.2704 20.6535 58.3486 20.9496 58.4441C21.2981 58.5484 21.6378 58.6527 21.9862 58.7569C23.3712 59.174 24.7476 59.591 26.1326 60.008C26.8207 60.2166 27.5176 60.4164 28.2058 60.6249C28.5542 60.7292 28.9026 60.8247 29.2424 60.929C29.5734 61.0246 29.9044 61.1375 30.2354 61.1983C30.8626 61.3113 31.5072 61.2244 31.9515 60.7292C32.3696 60.2774 32.5264 59.6605 32.5351 59.061C32.5438 58.7135 32.5002 58.366 32.4567 58.0184C32.4393 57.8881 32.3522 57.7752 32.2128 57.7752C32.0908 57.7752 31.9515 57.8881 31.9689 58.0184C32.0386 58.6266 32.1257 59.2695 31.9166 59.8516C31.7511 60.3121 31.3765 60.7031 30.8713 60.7379C30.5577 60.7639 30.2528 60.6944 29.9567 60.6075C29.6431 60.5206 29.3295 60.4251 29.0159 60.3382C28.3713 60.1471 27.718 59.9559 27.0734 59.7648C25.7754 59.3825 24.4862 59.0002 23.197 58.6005C22.5611 58.4094 21.9252 58.2183 21.2893 58.0184C20.9932 57.9229 20.6883 57.8447 20.3834 57.7404C20.1918 57.6709 19.974 57.584 19.8433 57.4189C19.6778 57.2104 19.7388 56.9063 19.7824 56.6631C19.8433 56.3329 19.9043 55.9941 19.9653 55.6639C20.0872 55.0036 20.2005 54.3433 20.3224 53.6917C20.3921 53.3007 20.4792 52.7012 21.0019 52.7533C21.3155 52.7881 21.6378 52.8923 21.9427 52.9619C22.265 53.04 22.596 53.1182 22.9183 53.1877C25.5664 53.8046 28.2145 54.4215 30.8626 55.0384C31.1675 55.1079 31.4811 55.1774 31.7859 55.2556C32.0211 55.3164 32.265 55.3859 32.4567 55.5423C32.8661 55.8811 32.8051 56.5154 32.7616 56.9932C32.6657 58.0619 32.3173 59.0697 31.7859 59.9994C31.6466 60.2426 31.5159 60.4859 31.3765 60.7292C31.3156 60.8508 31.4985 60.9985 31.5943 60.8856Z" fill="#6B6B6B"/>
</g>
<mask id="mask1_1215_17700" style="mask-type:luminance" maskUnits="userSpaceOnUse" x="0" y="25" width="112" height="70">
<path d="M111.961 25.533H0V94.4918H111.961V25.533Z" fill="white"/>
</mask>
<g mask="url(#mask1_1215_17700)">
<path d="M63.1189 68.3314C63.4848 68.7919 63.842 69.2524 64.2078 69.7128C64.7392 70.3905 65.2705 71.0769 65.8106 71.7546C66.4639 72.5887 67.1172 73.4227 67.7706 74.2568C68.4848 75.1691 69.1991 76.0726 69.9047 76.9849C70.6277 77.9059 71.342 78.8181 72.065 79.7391C72.7358 80.5992 73.4152 81.4594 74.0859 82.3195C74.6521 83.0406 75.2184 83.7618 75.7846 84.4916C76.194 85.0129 76.6034 85.5342 77.0128 86.0555C77.2044 86.2987 77.3874 86.5594 77.5877 86.794C77.5964 86.8027 77.6051 86.8113 77.6138 86.8287C77.7532 87.0025 77.9971 86.7592 77.8577 86.5854C77.7271 86.4204 77.5964 86.2466 77.457 86.0815C77.0912 85.6211 76.734 85.1606 76.3682 84.7001C75.8368 84.0224 75.3055 83.336 74.7654 82.6584C74.1121 81.8243 73.4588 80.9902 72.8054 80.1561C72.0911 79.2439 71.3769 78.3403 70.6713 77.428C69.9483 76.5071 69.234 75.5948 68.511 74.6738C67.8402 73.8137 67.1608 72.9536 66.4901 72.0934C65.9239 71.3723 65.3576 70.6512 64.7914 69.9214C64.382 69.4001 63.9726 68.8788 63.5632 68.3575C63.3716 68.1142 63.1886 67.8535 62.9883 67.619C62.9796 67.6103 62.9709 67.6016 62.9622 67.5842C62.8228 67.4104 62.5789 67.6537 62.7183 67.8275C62.8489 67.9926 62.9883 68.1663 63.1189 68.3314Z" fill="black"/>
<path d="M86.5512 97.3589C86.3508 97.0374 86.0546 96.7594 85.8107 96.4814C85.3839 95.9862 84.9571 95.4909 84.5215 94.987C84.2951 94.7263 84.0686 94.4657 83.8421 94.1964C83.8247 94.179 83.8072 94.1616 83.7898 94.1529C83.3456 93.5795 82.9013 93.0148 82.4571 92.4413C81.6731 91.4422 80.8891 90.4343 80.1051 89.4352C79.9222 89.2093 79.748 88.9747 79.565 88.7488C79.4257 88.5751 79.1905 88.8183 79.3211 88.9921C79.8177 89.6263 80.3055 90.2519 80.802 90.8861C81.586 91.8853 82.3699 92.8931 83.1539 93.8923C83.3369 94.1182 83.5111 94.3528 83.694 94.5787C83.7201 94.6047 83.7463 94.6221 83.7724 94.6308C84.3735 95.3258 84.9745 96.0209 85.5756 96.7247C85.7323 96.9071 85.8891 97.0809 86.0372 97.2633C86.133 97.3763 86.2289 97.4805 86.2986 97.6109C86.5076 98.0279 86.3508 98.4971 85.985 98.7664C85.6714 98.9923 85.3491 99.2182 85.0268 99.4528C84.3734 99.9219 83.7201 100.382 83.0668 100.852C82.1696 101.495 81.2724 102.137 80.3752 102.78C79.3299 103.528 78.2845 104.275 77.2305 105.022C76.133 105.804 75.0441 106.586 73.9465 107.368C72.8838 108.124 71.8298 108.88 70.7671 109.635C69.8524 110.287 68.9291 110.947 68.0144 111.599C67.3263 112.094 66.6294 112.589 65.9412 113.076C65.5754 113.337 65.2095 113.597 64.8524 113.858C64.652 114.006 64.4343 114.119 64.1729 114.101C63.8419 114.084 63.598 113.884 63.4238 113.632C63.1625 113.241 62.9011 112.859 62.6398 112.468C62.1433 111.729 61.6381 110.999 61.1416 110.261C60.4795 109.288 59.8175 108.306 59.1555 107.333C58.415 106.238 57.6746 105.144 56.9255 104.058C56.1764 102.954 55.4272 101.842 54.6781 100.739C54.0073 99.7482 53.3279 98.749 52.6572 97.7586C52.1258 96.9853 51.6031 96.2034 51.0718 95.4301C50.854 95.1086 50.6362 94.7959 50.4272 94.4744C50.4272 94.4396 50.4185 94.4049 50.401 94.3701C50.0962 93.9183 49.7826 93.4666 49.4777 93.0148C48.746 91.9374 48.0143 90.8601 47.2826 89.7827C46.394 88.4795 45.5055 87.1676 44.617 85.8643C43.8505 84.7348 43.0839 83.6054 42.3086 82.4759C42.0647 82.1197 41.8295 81.7721 41.5856 81.4159C42.4654 80.9989 43.3365 80.5819 44.2163 80.1735C44.347 80.1127 44.4864 80.0432 44.617 79.9824C44.678 79.9563 44.7216 79.852 44.6954 79.7912C44.1815 78.4619 43.6675 77.1239 43.1536 75.7946C43.1013 75.6643 43.0578 75.534 43.0055 75.4123C43.1275 75.3341 43.2581 75.2646 43.3975 75.2125C43.502 75.1691 43.6066 75.1256 43.7111 75.0822C44.225 74.865 44.7303 74.6565 45.2442 74.4393C46.0543 74.1004 46.8644 73.7529 47.6745 73.414C48.6502 73.0057 49.6258 72.5973 50.5927 72.1803C51.6031 71.7546 52.6223 71.3289 53.6328 70.8944C54.5474 70.5122 55.4708 70.1212 56.3854 69.7389C57.0823 69.4435 57.7792 69.1481 58.476 68.8614C58.8157 68.7137 59.1642 68.5834 59.5039 68.427C59.5213 68.4183 59.53 68.4183 59.5475 68.4096C59.6346 68.3748 59.652 68.2445 59.6084 68.175C59.5562 68.0881 59.4604 68.0794 59.3732 68.1142C59.199 68.1924 59.0161 68.2619 58.8419 68.3401C58.3628 68.5399 57.875 68.7484 57.3959 68.9483C56.699 69.2437 56.0021 69.5391 55.3053 69.8258C54.469 70.1733 53.6415 70.5295 52.8052 70.8771C51.9254 71.2507 51.0456 71.6156 50.1746 71.9892C49.3296 72.3454 48.4847 72.7016 47.631 73.0578C46.908 73.3619 46.185 73.666 45.462 73.9701C44.9393 74.1873 44.4254 74.4045 43.9027 74.6304C43.6763 74.726 43.4411 74.8215 43.2146 74.9171C43.0752 74.9779 42.9358 75.0474 42.8139 75.1256C42.7093 75.0996 42.5874 75.1691 42.5961 75.282C42.0647 75.7077 41.7163 76.3159 41.5856 77.011C41.4376 77.7842 41.2895 78.5575 41.1414 79.3307C41.0717 79.7217 40.9933 80.104 40.9236 80.495C40.9062 80.5905 40.8539 80.7382 40.8539 80.8686C40.7146 81.3117 40.5665 81.7635 40.4271 82.2066C40.0787 83.2839 39.7389 84.3699 39.3905 85.4473C38.9724 86.7505 38.5543 88.0538 38.1361 89.3483C37.7703 90.4778 37.4131 91.616 37.0473 92.7454C36.8905 93.2233 36.7163 93.7011 36.5769 94.179C36.4898 94.4223 36.4027 94.6655 36.3156 94.9001C36.0629 95.5952 35.8103 96.2902 35.5664 96.9853C35.2267 97.9323 34.887 98.8793 34.5473 99.8177C34.1814 100.834 33.8155 101.851 33.4497 102.859C33.1187 103.78 32.7877 104.692 32.4566 105.613C32.2215 106.256 31.995 106.89 31.7598 107.533C31.6117 107.941 31.4026 108.358 31.5246 108.801C31.6552 109.305 32.1082 109.644 32.6222 109.67C32.6831 109.67 32.7528 109.679 32.8138 109.679C33.1622 109.696 33.502 109.714 33.8504 109.731C34.4427 109.757 35.0438 109.783 35.6361 109.818C36.4288 109.853 37.2302 109.887 38.0229 109.931C38.9637 109.974 39.9044 110.018 40.8539 110.061C41.8905 110.113 42.9358 110.157 43.9724 110.209C45.0613 110.261 46.1414 110.313 47.2303 110.357C48.3104 110.409 49.3819 110.461 50.462 110.504C51.4899 110.548 52.5178 110.6 53.5457 110.643C54.469 110.687 55.3924 110.73 56.307 110.774C57.0736 110.808 57.8401 110.843 58.6067 110.878C59.1642 110.904 59.7217 110.93 60.2792 110.956C60.5753 110.973 60.8802 110.982 61.1764 110.999C61.1938 110.999 61.2112 110.999 61.2287 110.999C61.4203 111.278 61.6119 111.564 61.8036 111.842C62.1781 112.39 62.544 112.937 62.9186 113.476C62.997 113.597 63.0754 113.71 63.1625 113.832C63.4499 114.249 63.9029 114.492 64.4168 114.414C64.8175 114.353 65.1486 114.058 65.4621 113.832C66.0109 113.441 66.5684 113.041 67.1172 112.65C67.9535 112.051 68.7897 111.451 69.6347 110.852C70.6538 110.122 71.673 109.401 72.6922 108.671C73.7985 107.88 74.896 107.098 76.0023 106.308C77.0912 105.526 78.18 104.753 79.2776 103.971C80.2619 103.267 81.2375 102.572 82.2219 101.868C82.9971 101.312 83.7637 100.765 84.539 100.209C85.0093 99.8785 85.471 99.5397 85.9414 99.2095C86.0285 99.1487 86.1156 99.0879 86.2027 99.0184C86.7254 98.6621 86.917 97.9323 86.5512 97.3589ZM41.6205 78.6965C41.7076 78.2447 41.7947 77.7842 41.8818 77.3324C41.9515 76.9502 42.0299 76.5766 42.2302 76.2377C42.3609 76.0031 42.5351 75.8033 42.7268 75.6382C43.2059 76.872 43.6762 78.1057 44.1553 79.3394C44.2076 79.4784 44.2686 79.6261 44.3209 79.7652C43.4323 80.1822 42.5438 80.6079 41.6553 81.025C41.5769 81.0684 41.4898 81.1032 41.4114 81.1466C41.3504 81.051 41.2895 80.9555 41.2198 80.8686C41.3417 80.1474 41.4811 79.4176 41.6205 78.6965ZM60.8367 110.661C60.4011 110.643 59.9656 110.617 59.53 110.6C58.868 110.565 58.1973 110.539 57.5352 110.504C56.6903 110.469 55.8541 110.426 55.0091 110.391C54.0422 110.348 53.0666 110.304 52.0997 110.252C51.0456 110.2 49.9916 110.157 48.9376 110.105C47.8575 110.052 46.7773 110 45.6972 109.957C44.6344 109.905 43.563 109.861 42.5003 109.809C41.5072 109.766 40.5142 109.714 39.5212 109.67C38.6414 109.627 37.7616 109.592 36.8905 109.549C36.1849 109.514 35.4793 109.479 34.7737 109.453C34.2859 109.427 33.7981 109.41 33.3016 109.383C33.0838 109.375 32.8573 109.366 32.6396 109.349C32.2389 109.331 31.8992 109.045 31.8469 108.636C31.8208 108.445 31.8817 108.271 31.9427 108.098C32.1082 107.637 32.2737 107.185 32.4392 106.725C32.7267 105.917 33.0229 105.109 33.3103 104.31C33.6675 103.319 34.0246 102.329 34.3818 101.338C34.7389 100.348 35.096 99.3572 35.4532 98.358C35.7494 97.524 36.0542 96.6986 36.3504 95.8645C36.5072 95.4388 36.6553 95.0044 36.8121 94.5787C36.8295 94.5613 36.8469 94.5352 36.8556 94.5091C37.0037 94.0574 37.1431 93.6056 37.2912 93.1625C37.6396 92.0851 37.9793 90.9991 38.3278 89.9217C38.7459 88.6185 39.164 87.3153 39.5821 86.0207C39.948 84.8912 40.3051 83.7531 40.671 82.6236C40.8104 82.1892 40.9672 81.7635 41.0978 81.329C41.1675 81.4159 41.2285 81.5028 41.2895 81.5897C41.6118 82.0589 41.9341 82.528 42.2477 83.0059C42.7006 83.6662 43.1536 84.3352 43.6066 84.9955C44.1292 85.7601 44.6519 86.5246 45.1658 87.2892C45.6972 88.0711 46.2285 88.8531 46.7599 89.635C47.2477 90.3562 47.7355 91.0686 48.2233 91.7897C48.6066 92.3458 48.9812 92.9105 49.3645 93.4666C49.4864 93.649 49.6171 93.8315 49.739 94.0226C49.739 94.0574 49.7477 94.0921 49.7652 94.1269C49.9307 94.3701 50.0875 94.6047 50.253 94.848C50.6885 95.4822 51.1153 96.1252 51.5509 96.7594C52.1781 97.6804 52.7965 98.6013 53.4237 99.5136C54.1641 100.6 54.8959 101.686 55.6363 102.772C56.4028 103.901 57.1607 105.022 57.9272 106.151C58.6415 107.203 59.3558 108.254 60.0701 109.305C60.3837 109.766 60.6886 110.218 61.0022 110.678C60.9412 110.669 60.8889 110.669 60.8367 110.661Z" fill="black"/>
</g>
</svg>
